<?xml version="1.0" encoding="utf-8"?>
<!-- Generator: Adobe Illustrator 16.1.0, SVG Export Plug-In . SVG Version: 6.00 Build 0)  -->
<!DOCTYPE svg PUBLIC "-//W3C//DTD SVG 1.1//EN" "http://www.w3.org/Graphics/SVG/1.1/DTD/svg11.dtd">
<svg version="1.1" id="Layer_1" xmlns="http://www.w3.org/2000/svg" xmlns:xlink="http://www.w3.org/1999/xlink" x="0px" y="0px"
	 width="48px" height="48px" viewBox="0 0 48 48" enable-background="new 0 0 48 48" xml:space="preserve">
<g>
	<path fill="#333333" d="M27.067,18.788c4.588,3.062,7.039,8.373,7.039,13.475c0,6.231-7.142,6.737-11.326,6.737
		c-1.837,0-8.935-0.645-8.885-7.35c0.038-5.102,3.042-9.278,6.436-12.862H27.067z"/>
	<path fill="#333333" d="M20.632,16.334c0,0,6.125,0.011,6.125,0c0-0.774,0.306-1.653,0.587-2.062
		c0.289-0.421,0.936-0.89,1.276-1.327c0.796-1.023-0.482-2.414-1.577-1.794c-0.34,0.193-0.791,0.736-0.898,1.113
		c0.211-0.742-0.114-1.535-0.519-2.144c-0.432-0.648-1.061-0.979-1.831-1.089c-0.681-0.098-1.351,0.034-1.759,0.417
		c-0.43,0.403-0.868,1.199-0.798,2.195c-0.277-0.672-0.799-1.382-1.495-1.653c-0.609-0.237-1.234,0.114-1.471,0.681
		c-0.278,0.665-0.046,1.472,0.375,2.03c0.458,0.606,1.164,1.024,1.475,1.724C20.443,15.147,20.552,16.334,20.632,16.334z"/>
	<g>
		<path fill="#FFFFFF" d="M25.461,32.39c-0.514,0.896-1.446,1.407-2.721,1.407c-1.389,0-2.721-0.854-2.721-2.682
			c0-2.036,1.693-3.064,3.71-3.064c0.571,0,1.199,0.115,1.656,0.324V27.5c0-1.218-0.589-1.789-1.731-1.789
			c-0.856,0-2.246,0.438-2.93,0.855c-0.058-0.151-0.077-0.437-0.077-0.646c0-0.494,0.115-1.046,0.286-1.331
			c0.666-0.324,2.169-0.591,3.253-0.591c2.227,0,3.33,0.951,3.33,3.482v3.444c0,0.495,0.096,0.971,0.248,1.198
			c0.323,0,0.932-0.094,1.294-0.19c0.019,0.097,0.019,0.19,0.019,0.248c0,0.362-0.114,0.762-0.267,1.065
			c-0.457,0.267-1.522,0.551-2.359,0.551c-0.399-0.228-0.742-0.798-0.856-1.407H25.461z M25.423,29.44
			c-0.342-0.096-0.875-0.152-1.199-0.152c-1.294,0-2.017,0.609-2.017,1.522c0,0.971,0.686,1.39,1.465,1.39
			c0.742,0,1.408-0.343,1.75-0.819V29.44z"/>
	</g>
	<rect x="20.632" y="16.951" fill="#333333" width="6.125" height="1.226"/>
</g>
</svg>
