<?xml version="1.0" encoding="utf-8"?>
<!-- Generator: Adobe Illustrator 16.1.0, SVG Export Plug-In . SVG Version: 6.00 Build 0)  -->
<!DOCTYPE svg PUBLIC "-//W3C//DTD SVG 1.1//EN" "http://www.w3.org/Graphics/SVG/1.1/DTD/svg11.dtd">
<svg version="1.1" id="Layer_1" xmlns="http://www.w3.org/2000/svg" xmlns:xlink="http://www.w3.org/1999/xlink" x="0px" y="0px"
	 width="48px" height="48px" viewBox="0 0 48 48" enable-background="new 0 0 48 48" xml:space="preserve">
<g>
	<g>
		<path fill="#333333" d="M18.722,12h0.515l8.303,18H10.405L18.722,12z M12.966,28.449l10.21,0.016l-4.989-11.512L12.966,28.449z"/>
	</g>
	<g>
		<g>
			<path fill="#333333" d="M33.905,34.563C33.381,35.477,32.43,36,31.129,36c-1.418,0-2.777-0.873-2.777-2.737
				c0-2.078,1.729-3.127,3.786-3.127c0.583,0,1.224,0.117,1.689,0.331v-0.894c0-1.242-0.602-1.824-1.767-1.824
				c-0.875,0-2.292,0.446-2.99,0.872c-0.059-0.154-0.078-0.445-0.078-0.66c0-0.504,0.117-1.067,0.292-1.357
				C29.963,26.271,31.497,26,32.604,26c2.271,0,3.397,0.971,3.397,3.554v3.515c0,0.505,0.098,0.99,0.252,1.224
				c0.331,0,0.952-0.097,1.321-0.194c0.02,0.098,0.02,0.194,0.02,0.252c0,0.37-0.116,0.777-0.272,1.088
				C36.856,35.709,35.77,36,34.915,36c-0.408-0.232-0.758-0.814-0.874-1.437H33.905z M33.866,31.554
				c-0.35-0.097-0.894-0.155-1.224-0.155c-1.32,0-2.059,0.621-2.059,1.554c0,0.989,0.699,1.418,1.496,1.418
				c0.757,0,1.437-0.351,1.786-0.836V31.554z"/>
		</g>
	</g>
</g>
</svg>
