<?xml version="1.0" encoding="utf-8"?>
<!-- Generator: Adobe Illustrator 16.1.0, SVG Export Plug-In . SVG Version: 6.00 Build 0)  -->
<!DOCTYPE svg PUBLIC "-//W3C//DTD SVG 1.1//EN" "http://www.w3.org/Graphics/SVG/1.1/DTD/svg11.dtd">
<svg version="1.1" id="Layer_1" xmlns="http://www.w3.org/2000/svg" xmlns:xlink="http://www.w3.org/1999/xlink" x="0px" y="0px"
	 width="48px" height="48px" viewBox="0 0 48 48" enable-background="new 0 0 48 48" xml:space="preserve">
<g>
	<g>
		<path fill="#333333" d="M19.796,18.614h-2.145l-1.072,3.218l-1.613,0.579l-3.033-1.518l-1.515,1.518l1.516,3.033l-0.716,1.75
			L8,28.266v2.146l3.218,1.072l0.547,1.608l-1.519,3.034l1.516,1.516l3.034-1.516l1.783,0.719l1.072,3.219h2.145l1.073-3.219
			l1.776-0.721l3.033,1.518l1.515-1.517l-1.516-3.033l0.553-1.608l3.219-1.072v-2.145l-3.218-1.072l-0.723-1.75l1.519-3.034
			l-1.516-1.517l-3.034,1.517l-1.608-0.578L19.796,18.614z M21.941,29.339c0,1.775-1.44,3.217-3.218,3.217
			c-1.776,0-3.217-1.441-3.217-3.217c0-1.777,1.44-3.218,3.217-3.218C20.501,26.121,21.941,27.562,21.941,29.339z"/>
	</g>
	<g>
		<path fill="#333333" d="M35.884,8.743l-1.575-0.678l-1.808,2.027l-1.368-0.084l-1.751-2.072L27.79,8.573l0.158,2.708l-1.078,1.06
			l-2.704-0.227L23.49,13.69l2.024,1.805l-0.106,1.354l-2.073,1.752l0.638,1.594l2.706-0.158l1.083,1.092l-0.226,2.704l1.576,0.679
			l1.804-2.028l1.534,0.03l1.751,2.074l1.591-0.638l-0.156-2.706l0.915-1.008l2.706,0.229l0.675-1.577l-2.026-1.806l0.021-1.515
			L40,13.815l-0.637-1.594l-2.706,0.158l-0.998-0.934L35.884,8.743z M34.074,17.304c-0.562,1.307-2.074,1.91-3.38,1.349
			c-1.306-0.561-1.91-2.073-1.348-3.38c0.56-1.307,2.074-1.91,3.38-1.35S34.635,15.997,34.074,17.304z"/>
	</g>
	<g>
		<g>
			<path fill="#333333" d="M36.311,38.627c-0.524,0.913-1.476,1.437-2.776,1.437c-1.417,0-2.777-0.873-2.777-2.737
				c0-2.078,1.728-3.127,3.786-3.127c0.583,0,1.223,0.117,1.689,0.331v-0.894c0-1.242-0.602-1.824-1.767-1.824
				c-0.875,0-2.292,0.446-2.991,0.872c-0.059-0.154-0.078-0.445-0.078-0.66c0-0.504,0.117-1.067,0.292-1.357
				c0.679-0.332,2.213-0.604,3.32-0.604c2.272,0,3.398,0.971,3.398,3.554v3.515c0,0.505,0.098,0.99,0.252,1.224
				c0.331,0,0.952-0.097,1.321-0.194C40,38.259,40,38.355,40,38.413c0,0.37-0.116,0.777-0.272,1.088
				c-0.466,0.271-1.553,0.562-2.408,0.562c-0.408-0.232-0.757-0.814-0.874-1.437H36.311z M36.272,35.617
				c-0.35-0.097-0.894-0.155-1.224-0.155c-1.32,0-2.059,0.621-2.059,1.554c0,0.989,0.699,1.418,1.496,1.418
				c0.757,0,1.437-0.351,1.786-0.836V35.617z"/>
		</g>
	</g>
</g>
</svg>
