<?xml version="1.0" encoding="utf-8"?>
<!-- Generator: Adobe Illustrator 16.1.0, SVG Export Plug-In . SVG Version: 6.00 Build 0)  -->
<!DOCTYPE svg PUBLIC "-//W3C//DTD SVG 1.1//EN" "http://www.w3.org/Graphics/SVG/1.1/DTD/svg11.dtd">
<svg version="1.1" id="Layer_1" xmlns="http://www.w3.org/2000/svg" xmlns:xlink="http://www.w3.org/1999/xlink" x="0px" y="0px"
	 width="48px" height="48px" viewBox="0 0 48 48" enable-background="new 0 0 48 48" xml:space="preserve">
<g>
	<g>
		<path fill="#333333" d="M6.873,6.986c0.24-0.133,0.768-0.24,1.116-0.24v1.739h1.703c0.036,0.18,0.083,0.659,0.048,0.923H7.989
			v2.999c0,0.72,0.192,0.995,0.768,0.995c0.324,0,0.768-0.072,1.115-0.156c0.012,0.061,0.012,0.156,0.012,0.181
			c0,0.216-0.072,0.479-0.192,0.684c-0.468,0.228-1.092,0.348-1.56,0.348c-1.031,0-1.547-0.528-1.547-1.848
			c0-0.743,0.024-2.11,0.084-3.202H5.806c0-0.216,0.084-0.647,0.18-0.852c0.192-0.096,0.468-0.191,0.684-0.239L6.873,6.986z"/>
		<path fill="#333333" d="M16.194,11.279c0,2.027-1.127,3.179-2.866,3.179c-1.835,0-2.867-1.092-2.867-3.179
			c0-1.858,1.235-2.998,2.867-2.998C15.043,8.281,16.194,9.349,16.194,11.279z M13.328,13.546c0.971,0,1.439-0.875,1.439-2.267
			c0-1.199-0.563-2.099-1.439-2.099c-0.936,0-1.452,0.84-1.452,2.099C11.876,12.646,12.428,13.546,13.328,13.546z"/>
	</g>
	<g>
		<path fill="#333333" d="M6.873,18.986c0.24-0.133,0.768-0.24,1.116-0.24v1.739h1.703c0.036,0.18,0.083,0.659,0.048,0.923H7.989
			v2.999c0,0.72,0.192,0.995,0.768,0.995c0.324,0,0.768-0.072,1.115-0.156c0.012,0.061,0.012,0.156,0.012,0.181
			c0,0.216-0.072,0.479-0.192,0.684c-0.468,0.228-1.092,0.348-1.56,0.348c-1.031,0-1.547-0.528-1.547-1.848
			c0-0.743,0.024-2.11,0.084-3.202H5.806c0-0.216,0.084-0.647,0.18-0.852c0.192-0.096,0.468-0.191,0.684-0.239L6.873,18.986z"/>
		<path fill="#333333" d="M16.194,23.279c0,2.027-1.127,3.179-2.866,3.179c-1.835,0-2.867-1.092-2.867-3.179
			c0-1.858,1.235-2.998,2.867-2.998C15.043,20.281,16.194,21.349,16.194,23.279z M13.328,25.546c0.971,0,1.439-0.875,1.439-2.267
			c0-1.199-0.563-2.099-1.439-2.099c-0.936,0-1.452,0.84-1.452,2.099C11.876,24.646,12.428,25.546,13.328,25.546z"/>
	</g>
	<g>
		<path fill="#333333" d="M20.697,18.519h-0.851c0.012-0.276,0.12-0.648,0.24-0.864c0.3-0.119,0.768-0.203,1.211-0.203
			c0.264,0,0.587,0.035,0.779,0.107v1.775c0,0.6-0.048,1.295-0.096,1.847h0.156c0.204-0.468,0.731-0.899,1.631-0.899
			c1.092,0,2.315,0.731,2.315,2.927c0,1.954-1.259,3.25-3.083,3.25c-0.803,0-1.619-0.156-2.303-0.504V18.519z M22.04,25.414
			c0.24,0.072,0.552,0.12,0.828,0.12c1.224,0,1.775-0.863,1.775-2.159c0-1.331-0.575-2.074-1.367-2.074
			c-0.563,0-0.995,0.3-1.235,0.659V25.414z"/>
		<path fill="#333333" d="M28.508,23.615c0.061,1.115,0.768,1.775,1.812,1.775c0.527,0,1.331-0.156,1.774-0.324
			c0.024,0.252-0.084,0.684-0.228,0.912c-0.432,0.239-1.163,0.479-1.967,0.479c-1.8,0-2.831-1.283-2.831-2.975
			c0-1.823,1.152-3.202,2.915-3.202c1.535,0,2.171,1.067,2.171,2.687c0,0.204-0.012,0.432-0.036,0.647H28.508z M30.799,22.728
			c0.072-0.731-0.156-1.606-1.02-1.606c-0.731,0-1.223,0.659-1.295,1.606H30.799z"/>
	</g>
	<g>
		<path fill="#333333" d="M6.873,31.986c0.24-0.133,0.768-0.24,1.116-0.24v1.739h1.703c0.036,0.18,0.083,0.659,0.048,0.923H7.989
			v2.999c0,0.72,0.192,0.995,0.768,0.995c0.324,0,0.768-0.072,1.115-0.156c0.012,0.061,0.012,0.156,0.012,0.181
			c0,0.216-0.072,0.479-0.192,0.684c-0.468,0.228-1.092,0.348-1.56,0.348c-1.031,0-1.547-0.528-1.547-1.848
			c0-0.743,0.024-2.11,0.084-3.202H5.806c0-0.216,0.084-0.647,0.18-0.852c0.192-0.096,0.468-0.191,0.684-0.239L6.873,31.986z"/>
		<path fill="#333333" d="M16.194,36.279c0,2.027-1.127,3.179-2.866,3.179c-1.835,0-2.867-1.092-2.867-3.179
			c0-1.858,1.235-2.998,2.867-2.998C15.043,33.281,16.194,34.349,16.194,36.279z M13.328,38.546c0.971,0,1.439-0.875,1.439-2.267
			c0-1.199-0.563-2.099-1.439-2.099c-0.936,0-1.452,0.84-1.452,2.099C11.876,37.646,12.428,38.546,13.328,38.546z"/>
	</g>
	<g>
		<path fill="#333333" d="M20.697,31.519h-0.851c0.012-0.276,0.12-0.648,0.24-0.864c0.3-0.119,0.768-0.203,1.211-0.203
			c0.264,0,0.587,0.035,0.779,0.107v1.775c0,0.6-0.048,1.295-0.096,1.847h0.156c0.204-0.468,0.731-0.899,1.631-0.899
			c1.092,0,2.315,0.731,2.315,2.927c0,1.954-1.259,3.25-3.083,3.25c-0.803,0-1.619-0.156-2.303-0.504V31.519z M22.04,38.414
			c0.24,0.072,0.552,0.12,0.828,0.12c1.224,0,1.775-0.863,1.775-2.159c0-1.331-0.575-2.074-1.367-2.074
			c-0.563,0-0.995,0.3-1.235,0.659V38.414z"/>
		<path fill="#333333" d="M28.508,36.615c0.061,1.115,0.768,1.775,1.812,1.775c0.527,0,1.331-0.156,1.774-0.324
			c0.024,0.252-0.084,0.684-0.228,0.912c-0.432,0.239-1.163,0.479-1.967,0.479c-1.8,0-2.831-1.283-2.831-2.975
			c0-1.823,1.152-3.202,2.915-3.202c1.535,0,2.171,1.067,2.171,2.687c0,0.204-0.012,0.432-0.036,0.647H28.508z M30.799,35.728
			c0.072-0.731-0.156-1.606-1.02-1.606c-0.731,0-1.223,0.659-1.295,1.606H30.799z"/>
	</g>
	<path fill="#333333" d="M39.576,38.57c-0.324,0.563-0.912,0.888-1.715,0.888c-0.876,0-1.716-0.54-1.716-1.691
		c0-1.283,1.067-1.931,2.339-1.931c0.359,0,0.756,0.072,1.043,0.204v-0.552c0-0.768-0.371-1.128-1.091-1.128
		c-0.54,0-1.415,0.276-1.847,0.54c-0.037-0.096-0.049-0.276-0.049-0.408c0-0.312,0.072-0.659,0.18-0.839
		c0.42-0.204,1.367-0.372,2.051-0.372c1.404,0,2.1,0.6,2.1,2.194v2.171c0,0.312,0.061,0.612,0.156,0.756
		c0.203,0,0.588-0.06,0.814-0.12c0.013,0.061,0.013,0.12,0.013,0.156c0,0.228-0.071,0.479-0.168,0.672
		c-0.288,0.168-0.96,0.348-1.487,0.348c-0.252-0.145-0.468-0.504-0.539-0.888H39.576z M39.552,36.711
		c-0.216-0.06-0.552-0.096-0.755-0.096c-0.816,0-1.271,0.384-1.271,0.96c0,0.611,0.432,0.875,0.923,0.875
		c0.468,0,0.888-0.216,1.104-0.516V36.711z"/>
	<rect x="5.5" y="27.254" fill="#989898" width="11" height="1"/>
	<rect x="5.5" y="40.254" fill="#989898" width="11" height="1"/>
	<rect x="19.5" y="40.254" fill="#989898" width="13" height="1"/>
	<rect x="19.5" y="27.254" fill="#989898" width="13" height="1"/>
	<rect x="35.5" y="40.254" fill="#989898" width="7" height="1"/>
	<rect x="5.5" y="15.254" fill="#989898" width="11" height="1"/>
</g>
</svg>
