<?xml version="1.0" encoding="utf-8"?>
<!-- Generator: Adobe Illustrator 16.0.0, SVG Export Plug-In . SVG Version: 6.00 Build 0)  -->
<!DOCTYPE svg PUBLIC "-//W3C//DTD SVG 1.1//EN" "http://www.w3.org/Graphics/SVG/1.1/DTD/svg11.dtd">
<svg version="1.1"
	 id="Layer_1" xmlns:dc="http://purl.org/dc/elements/1.1/" xmlns:cc="http://creativecommons.org/ns#" xmlns:rdf="http://www.w3.org/1999/02/22-rdf-syntax-ns#" xmlns:svg="http://www.w3.org/2000/svg"
	 xmlns="http://www.w3.org/2000/svg" xmlns:xlink="http://www.w3.org/1999/xlink" x="0px" y="0px" width="48px" height="48px"
	 viewBox="0 0 48 48" enable-background="new 0 0 48 48" xml:space="preserve">
<g id="g3810">
	<path id="path3812" fill="#FFFFFF" d="M25,8H13v32h22V17c0-4.123-8-1-8-1C28,12,27,8,25,8z"/>
	<path id="path3814" fill="#333333" d="M28,6H13h-2v2v32v2h2h22h2v-2V16v-2L28,6z M35,40H13V8h12c2,0,3,4,2,8c0,0,8-3.123,8,1V40z"
		/>
</g>
<g>
	<path fill="#333333" d="M14.734,21.891V33.56c0,0,4.485-0.521,4.485,3.86V26.378C19.219,22.204,14.734,21.891,14.734,21.891"/>
	<path fill="#333333" d="M16.834,21.072v10.267c0,0,2.476,0.478,2.476,4.859c0,4.381,0.014-8.15,0.014-10.499
		C19.325,21.527,16.834,21.072,16.834,21.072"/>
</g>
<path fill="#333333" d="M19.391,26.271v10.619c0,0,2.154-6.034,11.207,1.736c0-2.814,0.019-9.918,0.019-12.267
	C21.666,19.843,19.391,26.271,19.391,26.271"/>
<polygon fill="#FFFFFF" points="20.245,34.22 22.251,34.22 22.899,29.753 22.918,29.753 24.699,34.22 25.503,34.22 27.365,29.753 
	27.385,29.753 27.953,34.22 29.97,34.22 28.794,26.465 26.789,26.465 25.122,30.608 23.546,26.465 21.561,26.465 "/>
</svg>
