<?xml version="1.0" encoding="utf-8"?>
<!-- Generator: Adobe Illustrator 23.0.4, SVG Export Plug-In . SVG Version: 6.00 Build 0)  -->
<svg version="1.1" id="Layer_1" xmlns="http://www.w3.org/2000/svg" xmlns:xlink="http://www.w3.org/1999/xlink" x="0px" y="0px"
	 viewBox="0 0 48 48" style="enable-background:new 0 0 48 48;" xml:space="preserve">
<style type="text/css">
	.st0{fill:#333333;}
	.st1{fill:#FFFFFF;}
</style>
<path class="st0" d="M19.4,6.6c-1.8,0.1-3.7,0.7-5.3,1.5C8.3,10.9,5,16.3,3.3,22.4c-0.7,2.3-1.2,4.9-0.5,7.3c0.9,3.4,4,6.8,7.8,6.2
	c2-0.3,3.7-1.7,4.6-3.5c1-2.2,1-4.8,1.5-7.1c0.5-2.4,1.4-4.5,3.3-6.2c1.3-1.1,2.8-1.8,4.1-2.8c1.8-1.3,3.1-3.5,2.2-5.7
	C25,7.4,22.3,6.4,19.4,6.6z"/>
<path class="st0" d="M38,6c-1.7,0.2-3.3,1.1-4.2,2.6c-1.2,2.2-0.2,4.9-1,7.2c-1,2.9-3.8,3.7-6.1,5.3c-3.1,2.2-2.2,6.7,1.1,8.1
	c6,2.5,12.1-0.8,15.2-6.1c2.8-4.7,4.3-14-2.1-16.7C40,6,38.9,5.9,38,6z"/>
<path class="st0" d="M23.4,31.5c-1,0-2,0.3-3,1.1c-2.6,2.2-2.9,7.4,0.8,8.7c0.7,0.3,1.6,0.2,2.3,0.2c3.8-0.1,7.6,1,11.3,0.6
	c3.5-0.3,4.2-3.7,1.3-5.6C32.9,34.1,27.7,31.4,23.4,31.5z"/>
<g>
	<circle class="st1" cx="18.9" cy="12.7" r="3.2"/>
</g>
<g>
	<circle class="st1" cx="11.7" cy="19.3" r="3.2"/>
</g>
<g>
	<circle class="st1" cx="9.3" cy="28.8" r="3.2"/>
</g>
<g>
	<circle class="st1" cx="34.1" cy="23.2" r="3.2"/>
</g>
<g>
	<circle class="st1" cx="39.2" cy="14.6" r="3.2"/>
</g>
<g>
	<circle class="st1" cx="24.4" cy="36.5" r="3.2"/>
</g>
</svg>
