<svg xmlns="http://www.w3.org/2000/svg" viewBox="0 0 48 48"><defs><style>.cls-1{fill:#333;}.cls-2{fill:#fff;}</style></defs><g id="Draw_Layer" data-name="Draw Layer"><path class="cls-1" d="M31,43.28a35.84,35.84,0,0,1-4.79.4,52.84,52.84,0,0,1-8.34-.3c-2.35-.26-4.43-.55-6.2-2.33a9.87,9.87,0,0,1-2.46-4.64,14.31,14.31,0,0,1-.15-6.88c1.41-5.42,5-12.67,10.49-14.89C25.41,12.27,30.85,16,34.09,21c2.4,3.72,5.6,9.47,5.14,14.08a9.41,9.41,0,0,1-4.43,6.82A10.42,10.42,0,0,1,31,43.28Z"/><path class="cls-1" d="M28.25,13.91l.14-.11A11.71,11.71,0,0,0,30.32,11,11,11,0,0,0,31.78,7.5a3.86,3.86,0,0,0,0-1.82A2,2,0,0,0,29.5,4.27c-2.29.12-3.83,2.82-6.13,2.55C21.6,6.62,20.51,5,18.89,4.47A2.78,2.78,0,0,0,16,5c-.88.93-.71,2.43-.33,3.66a10.65,10.65,0,0,0,3.17,5.11l.52-.24A10.55,10.55,0,0,1,28.25,13.91Z"/><path class="cls-2" d="M25.45,35.52a4.66,4.66,0,0,1-4.32,2.24A4.07,4.07,0,0,1,16.8,33.5c0-3.24,2.7-4.87,5.9-4.87a6.7,6.7,0,0,1,2.63.51V27.75c0-1.93-.94-2.84-2.75-2.84a11.21,11.21,0,0,0-4.66,1.36,3.55,3.55,0,0,1-.12-1,4.55,4.55,0,0,1,.46-2.11,14.54,14.54,0,0,1,5.16-.94c3.54,0,5.3,1.51,5.3,5.53v5.47a3.93,3.93,0,0,0,.39,1.91,10.46,10.46,0,0,0,2.06-.3,2,2,0,0,1,0,.39,4,4,0,0,1-.43,1.69,8.89,8.89,0,0,1-3.75.88,3.38,3.38,0,0,1-1.36-2.24Zm-.06-4.68a8.45,8.45,0,0,0-1.9-.24c-2.06,0-3.21,1-3.21,2.41a2.11,2.11,0,0,0,2.33,2.21,3.44,3.44,0,0,0,2.78-1.3Z"/></g></svg>
