<?xml version="1.0" standalone="no"?>
<!DOCTYPE svg PUBLIC "-//W3C//DTD SVG 20010904//EN"
 "http://www.w3.org/TR/2001/REC-SVG-20010904/DTD/svg10.dtd">
<svg version="1.0" xmlns="http://www.w3.org/2000/svg"
 width="512.000000pt" height="512.000000pt" viewBox="0 0 512.000000 512.000000"
 preserveAspectRatio="xMidYMid meet">
<metadata>
Created by potrace 1.12, written by Peter Selinger 2001-2015
</metadata>
<g transform="translate(0.000000,512.000000) scale(0.100000,-0.100000)"
fill="#000000" stroke="none">
<path d="M1290 5056 c-74 -20 -120 -47 -185 -107 -116 -109 -145 -195 -145
-431 l0 -158 -210 0 c-261 0 -290 -8 -391 -109 -115 -116 -104 106 -104 -2021
l0 -1845 27 -57 c37 -79 98 -142 177 -181 l66 -32 2030 0 2030 0 57 27 c79 37
142 98 181 177 l32 66 0 1850 0 1850 -29 63 c-37 80 -123 162 -201 191 -50 19
-77 21 -265 21 l-210 0 0 158 c0 232 -29 320 -140 426 -64 61 -132 99 -208
115 -80 17 -316 14 -387 -4 -124 -32 -231 -123 -289 -245 -31 -64 -31 -68 -36
-255 l-5 -190 -530 0 -530 0 -5 190 -5 191 -34 69 c-59 119 -165 208 -286 239
-73 20 -338 21 -405 2z m329 -351 c51 -26 52 -37 49 -493 l-3 -421 -23 -23
c-20 -21 -33 -23 -141 -26 l-119 -4 -33 30 -34 30 0 430 c0 416 1 431 20 452
30 33 51 39 158 39 67 1 107 -4 126 -14z m2145 -14 l26 -24 0 -438 0 -437 -32
-27 c-31 -26 -34 -27 -151 -23 -116 3 -119 4 -143 31 l-24 28 0 419 c0 241 4
429 10 444 17 45 53 56 177 54 102 -3 114 -5 137 -27z m-2364 -1791 l0 -400
-395 0 -395 0 0 400 0 400 395 0 395 0 0 -400z m1068 3 l-3 -398 -442 -3 -443
-2 0 400 0 400 445 0 445 0 -2 -397z m1062 -3 l0 -400 -442 2 -443 3 -3 398
-2 397 445 0 445 0 0 -400z m970 0 l0 -400 -395 0 -395 0 0 400 0 400 395 0
395 0 0 -400z m-3100 -1015 l0 -445 -395 0 -395 0 0 445 0 445 395 0 395 0 0
-445z m1068 -2 l2 -443 -445 0 -445 0 0 438 c0 241 3 442 7 445 3 4 203 6 442
5 l436 -3 3 -442z m1060 0 l2 -443 -445 0 -445 0 0 438 c0 241 3 442 7 445 3
4 203 6 442 5 l436 -3 3 -442z m972 2 l0 -445 -395 0 -395 0 0 445 0 445 395
0 395 0 0 -445z m-3100 -1020 l0 -395 -395 0 -395 0 0 395 0 395 395 0 395 0
0 -395z m1070 0 l0 -395 -445 0 -445 0 0 395 0 395 445 0 445 0 0 -395z m1060
0 l0 -395 -445 0 -445 0 0 395 0 395 445 0 445 0 0 -395z m970 0 l0 -395 -395
0 -395 0 0 395 0 395 395 0 395 0 0 -395z"/>
</g>
</svg>
