<?xml version="1.0" encoding="utf-8"?>
<!-- Generator: Adobe Illustrator 22.0.1, SVG Export Plug-In . SVG Version: 6.00 Build 0)  -->
<svg version="1.1" id="Layer_1" xmlns="http://www.w3.org/2000/svg" xmlns:xlink="http://www.w3.org/1999/xlink" x="0px" y="0px"
	 viewBox="0 0 48 48" style="enable-background:new 0 0 48 48;" xml:space="preserve">
<style type="text/css">
	.st0{fill:#333333;}
</style>
<g>
	<path class="st0" d="M27,35.5c-1.7,2.9-4.8,4.6-9,4.6c-4.6,0-9-2.8-9-8.8c0-6.7,5.6-10.1,12.3-10.1c1.9,0,4,0.4,5.5,1.1v-2.9
		c0-4-2-5.9-5.7-5.9c-2.8,0-7.4,1.4-9.7,2.8c-0.2-0.5-0.3-1.4-0.3-2.1c0-1.6,0.4-3.4,0.9-4.4c2.2-1.1,7.2-1.9,10.8-1.9
		c7.4,0,11,3.1,11,11.4v11.3c0,1.6,0.3,3.2,0.8,3.9c1.1,0,3.1-0.3,4.3-0.6c0.1,0.3,0.1,0.6,0.1,0.8c0,1.2-0.4,2.5-0.9,3.5
		c-1.5,0.9-5,1.8-7.8,1.8c-1.3-0.7-2.5-2.6-2.8-4.6L27,35.5L27,35.5z M26.9,25.8c-1.1-0.3-2.9-0.5-4-0.5c-4.3,0-6.7,2-6.7,5
		c0,3.2,2.3,4.6,4.9,4.6c2.5,0,4.7-1.1,5.8-2.7V25.8z"/>
</g>
</svg>
