<?xml version="1.0" encoding="UTF-8"?><svg id="Layer_1" xmlns="http://www.w3.org/2000/svg" viewBox="0 0 48 48"><defs><style>.cls-1{fill:#707070;}.cls-2{fill:none;stroke:#333;stroke-miterlimit:10;stroke-width:2px;}</style></defs><path class="cls-1" d="M3.65,13.83v-3.16h-.94v-1.17l1.03-.07,.18-1.81h1.29v1.81h1.69v1.24h-1.69v3.16c0,.78,.3,1.16,.94,1.16,.23,0,.5-.07,.69-.15l.26,1.14c-.36,.12-.82,.24-1.36,.24-1.53,0-2.1-.97-2.1-2.4Z"/><path class="cls-1" d="M7.64,12.76c0-2.21,1.5-3.48,3.15-3.48s3.15,1.27,3.15,3.48-1.5,3.47-3.15,3.47-3.15-1.27-3.15-3.47Zm4.71,0c0-1.33-.58-2.21-1.56-2.21s-1.56,.89-1.56,2.21,.58,2.2,1.56,2.2,1.56-.88,1.56-2.2Z"/><path class="cls-1" d="M4.82,27.88h-.04l-.14,.7h-1.23v-9.54h1.56v2.47l-.04,1.1c.55-.49,1.23-.83,1.91-.83,1.66,0,2.62,1.33,2.62,3.37,0,2.28-1.36,3.59-2.83,3.59-.6,0-1.25-.31-1.81-.86Zm3.04-2.71c0-1.32-.43-2.11-1.44-2.11-.48,0-.95,.24-1.45,.75v3.09c.47,.41,.95,.55,1.33,.55,.89,0,1.56-.78,1.56-2.28Z"/><path class="cls-1" d="M10.58,25.27c0-2.15,1.5-3.48,3.06-3.48,1.79,0,2.74,1.3,2.74,3.15,0,.3-.03,.59-.07,.76h-4.21c.13,1.18,.89,1.85,1.95,1.85,.57,0,1.05-.18,1.54-.48l.53,.97c-.63,.43-1.43,.72-2.27,.72-1.83,0-3.27-1.29-3.27-3.47Zm4.45-.64c0-1.02-.45-1.64-1.36-1.64-.77,0-1.45,.58-1.59,1.64h2.95Z"/><path class="cls-1" d="M3.65,38.85v-3.16h-.94v-1.17l1.03-.07,.18-1.81h1.29v1.81h1.69v1.24h-1.69v3.16c0,.78,.3,1.16,.94,1.16,.23,0,.5-.07,.69-.15l.26,1.14c-.36,.12-.82,.24-1.36,.24-1.53,0-2.1-.97-2.1-2.4Z"/><path class="cls-1" d="M7.64,37.78c0-2.21,1.5-3.48,3.15-3.48s3.15,1.27,3.15,3.48-1.5,3.47-3.15,3.47-3.15-1.27-3.15-3.47Zm4.71,0c0-1.33-.58-2.21-1.56-2.21s-1.56,.89-1.56,2.21,.58,2.2,1.56,2.2,1.56-.88,1.56-2.2Z"/><path class="cls-1" d="M33.21,15.37h-.04l-.14,.7h-1.23V6.53h1.56v2.47l-.04,1.1c.55-.49,1.23-.83,1.92-.83,1.66,0,2.62,1.33,2.62,3.37,0,2.28-1.36,3.59-2.83,3.59-.61,0-1.25-.31-1.81-.86Zm3.04-2.71c0-1.32-.43-2.11-1.44-2.11-.48,0-.95,.24-1.45,.75v3.09c.46,.41,.94,.55,1.33,.55,.89,0,1.56-.78,1.56-2.28Z"/><path class="cls-1" d="M38.98,12.76c0-2.15,1.5-3.48,3.06-3.48,1.79,0,2.74,1.3,2.74,3.15,0,.3-.03,.59-.07,.76h-4.21c.13,1.18,.89,1.85,1.96,1.85,.57,0,1.05-.18,1.54-.48l.53,.97c-.63,.43-1.43,.72-2.27,.72-1.83,0-3.27-1.29-3.27-3.47Zm4.45-.64c0-1.02-.45-1.64-1.36-1.64-.77,0-1.45,.58-1.59,1.64h2.95Z"/><path class="cls-1" d="M34.09,19.9c0-.52,.41-.88,.96-.88s.96,.36,.96,.88-.41,.88-.96,.88-.96-.37-.96-.88Zm.18,2.04h1.56v6.63h-1.56v-6.63Z"/><path class="cls-1" d="M37.8,21.94h1.28l.12,.9h.04c.59-.58,1.27-1.06,2.18-1.06,1.42,0,2.04,.96,2.04,2.64v4.16h-1.56v-3.96c0-1.09-.31-1.5-1.03-1.5-.58,0-.97,.29-1.51,.83v4.63h-1.56v-6.63Z"/><path class="cls-1" d="M31.4,37.78c0-2.16,1.36-3.48,2.81-3.48,.75,0,1.23,.28,1.74,.73l-.06-1.07v-2.4h1.55v9.54h-1.27l-.12-.72h-.04c-.49,.49-1.17,.88-1.89,.88-1.65,0-2.72-1.29-2.72-3.47Zm4.49,1.44v-3.09c-.45-.4-.9-.55-1.35-.55-.84,0-1.54,.8-1.54,2.18s.55,2.2,1.51,2.2c.51,0,.95-.23,1.38-.75Z"/><path class="cls-1" d="M38.99,37.78c0-2.21,1.5-3.48,3.15-3.48s3.15,1.27,3.15,3.48-1.5,3.47-3.15,3.47-3.15-1.27-3.15-3.47Zm4.71,0c0-1.33-.58-2.21-1.56-2.21s-1.56,.89-1.56,2.21,.58,2.2,1.56,2.2,1.56-.88,1.56-2.2Z"/><g><line class="cls-2" x1="24" y1="9.37" x2="24" y2="16.13"/><line class="cls-2" x1="20.62" y1="12.75" x2="27.38" y2="12.75"/></g><g><line class="cls-2" x1="24" y1="34.07" x2="24" y2="41.47"/><line class="cls-2" x1="20.3" y1="37.77" x2="27.7" y2="37.77"/></g><g><line class="cls-2" x1="24" y1="21.4" x2="24" y2="28.8"/><line class="cls-2" x1="20.3" y1="25.1" x2="27.7" y2="25.1"/></g></svg>
