<?xml version="1.0" encoding="utf-8"?>
<!-- Generator: Adobe Illustrator 16.0.0, SVG Export Plug-In . SVG Version: 6.00 Build 0)  -->
<!DOCTYPE svg PUBLIC "-//W3C//DTD SVG 1.1//EN" "http://www.w3.org/Graphics/SVG/1.1/DTD/svg11.dtd">
<svg version="1.1" id="Layer_1" xmlns="http://www.w3.org/2000/svg" xmlns:xlink="http://www.w3.org/1999/xlink" x="0px" y="0px"
	 width="48px" height="48px" viewBox="0 0 48 48" enable-background="new 0 0 48 48" xml:space="preserve">
<g enable-background="new    ">
	<path fill="#707070" d="M5.547,10.418H6.46v1.273h0.857v0.626H6.46v2.977c0,0.159,0.063,0.266,0.191,0.319
		c0.07,0.031,0.187,0.047,0.351,0.047c0.043,0,0.09-0.001,0.141-0.003s0.108-0.007,0.175-0.014v0.609
		c-0.104,0.025-0.211,0.044-0.323,0.055c-0.112,0.012-0.233,0.017-0.364,0.017c-0.421,0-0.707-0.091-0.857-0.274
		s-0.226-0.421-0.226-0.713v-3.019H4.82v-0.626h0.727V10.418z"/>
	<path fill="#707070" d="M12.111,12.146c0.475,0.392,0.712,0.967,0.712,1.728c0,0.734-0.209,1.341-0.627,1.821
		s-1.067,0.719-1.947,0.719c-0.734,0-1.316-0.212-1.748-0.636c-0.431-0.424-0.647-0.994-0.647-1.708c0-0.766,0.228-1.376,0.682-1.83
		s1.065-0.681,1.833-0.681C11.056,11.559,11.636,11.755,12.111,12.146z M11.551,15.177c0.22-0.384,0.33-0.812,0.33-1.283
		c0-0.425-0.079-0.771-0.238-1.038c-0.251-0.419-0.684-0.629-1.299-0.629c-0.545,0-0.942,0.179-1.19,0.536
		c-0.248,0.357-0.372,0.788-0.372,1.292c0,0.485,0.124,0.889,0.372,1.212c0.248,0.323,0.642,0.485,1.18,0.485
		C10.925,15.753,11.331,15.561,11.551,15.177z"/>
</g>
<g enable-background="new    ">
	<path fill="none" stroke="#707070" stroke-width="0.25" stroke-miterlimit="10" d="M5.547,10.418H6.46v1.273h0.857v0.626H6.46
		v2.977c0,0.159,0.063,0.266,0.191,0.319c0.07,0.031,0.187,0.047,0.351,0.047c0.043,0,0.09-0.001,0.141-0.003
		s0.108-0.007,0.175-0.014v0.609c-0.104,0.025-0.211,0.044-0.323,0.055c-0.112,0.012-0.233,0.017-0.364,0.017
		c-0.421,0-0.707-0.091-0.857-0.274s-0.226-0.421-0.226-0.713v-3.019H4.82v-0.626h0.727V10.418z"/>
	<path fill="none" stroke="#707070" stroke-width="0.25" stroke-miterlimit="10" d="M12.111,12.146
		c0.475,0.392,0.712,0.967,0.712,1.728c0,0.734-0.209,1.341-0.627,1.821s-1.067,0.719-1.947,0.719c-0.734,0-1.316-0.212-1.748-0.636
		c-0.431-0.424-0.647-0.994-0.647-1.708c0-0.766,0.228-1.376,0.682-1.83s1.065-0.681,1.833-0.681
		C11.056,11.559,11.636,11.755,12.111,12.146z M11.551,15.177c0.22-0.384,0.33-0.812,0.33-1.283c0-0.425-0.079-0.771-0.238-1.038
		c-0.251-0.419-0.684-0.629-1.299-0.629c-0.545,0-0.942,0.179-1.19,0.536c-0.248,0.357-0.372,0.788-0.372,1.292
		c0,0.485,0.124,0.889,0.372,1.212c0.248,0.323,0.642,0.485,1.18,0.485C10.925,15.753,11.331,15.561,11.551,15.177z"/>
</g>
<g enable-background="new    ">
	<path fill="#333333" d="M21.457,12.168c0.409,0.44,0.613,1.008,0.613,1.703c0,0.721-0.202,1.319-0.605,1.793
		s-0.966,0.711-1.688,0.711c-0.454,0-0.818-0.077-1.094-0.23c-0.165-0.091-0.343-0.25-0.534-0.477v0.583H16.74V9.983h1.429v2.231
		c0.182-0.216,0.382-0.38,0.601-0.494c0.259-0.142,0.589-0.213,0.989-0.213C20.482,11.508,21.048,11.728,21.457,12.168z
		 M20.262,14.995c0.206-0.252,0.309-0.584,0.309-0.996c0-0.33-0.051-0.602-0.152-0.818c-0.192-0.409-0.546-0.613-1.062-0.613
		c-0.522,0-0.881,0.2-1.077,0.6c-0.101,0.213-0.151,0.488-0.151,0.826c0,0.397,0.104,0.727,0.313,0.988s0.527,0.392,0.956,0.392
		C19.769,15.375,20.057,15.248,20.262,14.995z"/>
	<path fill="#333333" d="M26.625,11.704c0.381,0.145,0.695,0.374,0.943,0.687c0.225,0.276,0.369,0.596,0.436,0.959
		c0.039,0.213,0.055,0.521,0.048,0.921h-3.981c0.022,0.465,0.213,0.792,0.572,0.979c0.219,0.116,0.48,0.174,0.787,0.174
		c0.326,0,0.591-0.071,0.794-0.213c0.111-0.077,0.21-0.183,0.294-0.319h1.459c-0.038,0.275-0.215,0.555-0.529,0.839
		c-0.49,0.451-1.176,0.677-2.057,0.677c-0.727,0-1.369-0.19-1.925-0.571s-0.834-1-0.834-1.858c0-0.804,0.251-1.421,0.753-1.85
		c0.502-0.429,1.153-0.644,1.955-0.644C25.814,11.487,26.243,11.559,26.625,11.704z M24.487,12.752
		c-0.202,0.177-0.329,0.416-0.381,0.718h2.462c-0.026-0.322-0.153-0.566-0.381-0.733c-0.229-0.167-0.511-0.25-0.848-0.25
		C24.973,12.487,24.688,12.576,24.487,12.752z"/>
</g>
<g enable-background="new    ">
	<path fill="none" stroke="#333333" stroke-width="0.25" stroke-miterlimit="10" d="M21.457,12.168
		c0.409,0.44,0.613,1.008,0.613,1.703c0,0.721-0.202,1.319-0.605,1.793s-0.966,0.711-1.688,0.711c-0.454,0-0.818-0.077-1.094-0.23
		c-0.165-0.091-0.343-0.25-0.534-0.477v0.583H16.74V9.983h1.429v2.231c0.182-0.216,0.382-0.38,0.601-0.494
		c0.259-0.142,0.589-0.213,0.989-0.213C20.482,11.508,21.048,11.728,21.457,12.168z M20.262,14.995
		c0.206-0.252,0.309-0.584,0.309-0.996c0-0.33-0.051-0.602-0.152-0.818c-0.192-0.409-0.546-0.613-1.062-0.613
		c-0.522,0-0.881,0.2-1.077,0.6c-0.101,0.213-0.151,0.488-0.151,0.826c0,0.397,0.104,0.727,0.313,0.988s0.527,0.392,0.956,0.392
		C19.769,15.375,20.057,15.248,20.262,14.995z"/>
	<path fill="none" stroke="#333333" stroke-width="0.25" stroke-miterlimit="10" d="M26.625,11.704
		c0.381,0.145,0.695,0.374,0.943,0.687c0.225,0.276,0.369,0.596,0.436,0.959c0.039,0.213,0.055,0.521,0.048,0.921h-3.981
		c0.022,0.465,0.213,0.792,0.572,0.979c0.219,0.116,0.48,0.174,0.787,0.174c0.326,0,0.591-0.071,0.794-0.213
		c0.111-0.077,0.21-0.183,0.294-0.319h1.459c-0.038,0.275-0.215,0.555-0.529,0.839c-0.49,0.451-1.176,0.677-2.057,0.677
		c-0.727,0-1.369-0.19-1.925-0.571s-0.834-1-0.834-1.858c0-0.804,0.251-1.421,0.753-1.85c0.502-0.429,1.153-0.644,1.955-0.644
		C25.814,11.487,26.243,11.559,26.625,11.704z M24.487,12.752c-0.202,0.177-0.329,0.416-0.381,0.718h2.462
		c-0.026-0.322-0.153-0.566-0.381-0.733c-0.229-0.167-0.511-0.25-0.848-0.25C24.973,12.487,24.688,12.576,24.487,12.752z"/>
</g>
<g enable-background="new    ">
	<path fill="#707070" d="M34.5,13.492c0.207-0.023,0.346-0.097,0.416-0.221c0.041-0.068,0.061-0.167,0.061-0.295
		c0-0.262-0.109-0.453-0.328-0.571s-0.531-0.177-0.938-0.177c-0.471,0-0.805,0.108-1.002,0.325c-0.109,0.12-0.182,0.298-0.215,0.535
		h-0.842c0.016-0.564,0.23-0.956,0.643-1.177c0.413-0.221,0.891-0.331,1.436-0.331c0.631,0,1.144,0.103,1.537,0.307
		c0.391,0.205,0.586,0.522,0.586,0.954v2.627c0,0.08,0.02,0.143,0.059,0.191c0.038,0.048,0.119,0.072,0.242,0.072
		c0.041,0,0.086-0.002,0.136-0.006s0.104-0.011,0.161-0.019v0.566c-0.141,0.034-0.248,0.055-0.321,0.063
		c-0.073,0.009-0.174,0.013-0.301,0.013c-0.312,0-0.536-0.094-0.677-0.281c-0.074-0.099-0.125-0.24-0.156-0.421
		c-0.184,0.205-0.447,0.382-0.792,0.532s-0.724,0.226-1.138,0.226c-0.498,0-0.905-0.128-1.221-0.385
		c-0.316-0.257-0.475-0.578-0.475-0.963c0-0.422,0.155-0.75,0.467-0.982c0.311-0.232,0.719-0.375,1.223-0.43L34.5,13.492z
		 M32.6,15.562c0.19,0.127,0.416,0.191,0.678,0.191c0.316,0,0.625-0.062,0.922-0.187c0.502-0.207,0.752-0.546,0.752-1.016v-0.617
		c-0.109,0.06-0.252,0.11-0.426,0.149c-0.173,0.04-0.343,0.068-0.51,0.085l-0.545,0.06c-0.328,0.037-0.573,0.095-0.738,0.174
		c-0.279,0.133-0.418,0.346-0.418,0.637C32.314,15.26,32.409,15.435,32.6,15.562z"/>
</g>
<g enable-background="new    ">
	<path fill="none" stroke="#707070" stroke-width="0.25" stroke-miterlimit="10" d="M34.5,13.492
		c0.207-0.023,0.346-0.097,0.416-0.221c0.041-0.068,0.061-0.167,0.061-0.295c0-0.262-0.109-0.453-0.328-0.571
		s-0.531-0.177-0.938-0.177c-0.471,0-0.805,0.108-1.002,0.325c-0.109,0.12-0.182,0.298-0.215,0.535h-0.842
		c0.016-0.564,0.23-0.956,0.643-1.177c0.413-0.221,0.891-0.331,1.436-0.331c0.631,0,1.144,0.103,1.537,0.307
		c0.391,0.205,0.586,0.522,0.586,0.954v2.627c0,0.08,0.02,0.143,0.059,0.191c0.038,0.048,0.119,0.072,0.242,0.072
		c0.041,0,0.086-0.002,0.136-0.006s0.104-0.011,0.161-0.019v0.566c-0.141,0.034-0.248,0.055-0.321,0.063
		c-0.073,0.009-0.174,0.013-0.301,0.013c-0.312,0-0.536-0.094-0.677-0.281c-0.074-0.099-0.125-0.24-0.156-0.421
		c-0.184,0.205-0.447,0.382-0.792,0.532s-0.724,0.226-1.138,0.226c-0.498,0-0.905-0.128-1.221-0.385
		c-0.316-0.257-0.475-0.578-0.475-0.963c0-0.422,0.155-0.75,0.467-0.982c0.311-0.232,0.719-0.375,1.223-0.43L34.5,13.492z
		 M32.6,15.562c0.19,0.127,0.416,0.191,0.678,0.191c0.316,0,0.625-0.062,0.922-0.187c0.502-0.207,0.752-0.546,0.752-1.016v-0.617
		c-0.109,0.06-0.252,0.11-0.426,0.149c-0.173,0.04-0.343,0.068-0.51,0.085l-0.545,0.06c-0.328,0.037-0.573,0.095-0.738,0.174
		c-0.279,0.133-0.418,0.346-0.418,0.637C32.314,15.26,32.409,15.435,32.6,15.562z"/>
</g>
<g enable-background="new    ">
	<path fill="#707070" d="M5.547,20.883H6.46v1.273h0.857v0.626H6.46v2.976c0,0.16,0.063,0.266,0.191,0.32
		c0.07,0.031,0.187,0.047,0.351,0.047c0.043,0,0.09-0.002,0.141-0.004s0.108-0.006,0.175-0.014v0.609
		c-0.104,0.025-0.211,0.043-0.323,0.055s-0.233,0.018-0.364,0.018c-0.421,0-0.707-0.092-0.857-0.275
		c-0.15-0.183-0.226-0.42-0.226-0.713v-3.019H4.82v-0.626h0.727V20.883z"/>
	<path fill="#707070" d="M12.111,22.611c0.475,0.392,0.712,0.967,0.712,1.728c0,0.734-0.209,1.341-0.627,1.821
		s-1.067,0.719-1.947,0.719c-0.734,0-1.316-0.212-1.748-0.636c-0.431-0.424-0.647-0.994-0.647-1.708c0-0.766,0.228-1.376,0.682-1.83
		s1.065-0.681,1.833-0.681C11.056,22.024,11.636,22.22,12.111,22.611z M11.551,25.643c0.22-0.385,0.33-0.812,0.33-1.283
		c0-0.425-0.079-0.771-0.238-1.038c-0.251-0.419-0.684-0.629-1.299-0.629c-0.545,0-0.942,0.179-1.19,0.536
		c-0.248,0.357-0.372,0.788-0.372,1.293c0,0.484,0.124,0.889,0.372,1.212c0.248,0.323,0.642,0.485,1.18,0.485
		C10.925,26.219,11.331,26.025,11.551,25.643z"/>
</g>
<g enable-background="new    ">
	<path fill="none" stroke="#707070" stroke-width="0.25" stroke-miterlimit="10" d="M5.547,20.883H6.46v1.273h0.857v0.626H6.46
		v2.976c0,0.16,0.063,0.266,0.191,0.32c0.07,0.031,0.187,0.047,0.351,0.047c0.043,0,0.09-0.002,0.141-0.004s0.108-0.006,0.175-0.014
		v0.609c-0.104,0.025-0.211,0.043-0.323,0.055s-0.233,0.018-0.364,0.018c-0.421,0-0.707-0.092-0.857-0.275
		c-0.15-0.183-0.226-0.42-0.226-0.713v-3.019H4.82v-0.626h0.727V20.883z"/>
	<path fill="none" stroke="#707070" stroke-width="0.25" stroke-miterlimit="10" d="M12.111,22.611
		c0.475,0.392,0.712,0.967,0.712,1.728c0,0.734-0.209,1.341-0.627,1.821s-1.067,0.719-1.947,0.719c-0.734,0-1.316-0.212-1.748-0.636
		c-0.431-0.424-0.647-0.994-0.647-1.708c0-0.766,0.228-1.376,0.682-1.83s1.065-0.681,1.833-0.681
		C11.056,22.024,11.636,22.22,12.111,22.611z M11.551,25.643c0.22-0.385,0.33-0.812,0.33-1.283c0-0.425-0.079-0.771-0.238-1.038
		c-0.251-0.419-0.684-0.629-1.299-0.629c-0.545,0-0.942,0.179-1.19,0.536c-0.248,0.357-0.372,0.788-0.372,1.293
		c0,0.484,0.124,0.889,0.372,1.212c0.248,0.323,0.642,0.485,1.18,0.485C10.925,26.219,11.331,26.025,11.551,25.643z"/>
</g>
<g enable-background="new    ">
	<path fill="#333333" d="M21.457,22.633c0.409,0.44,0.613,1.008,0.613,1.703c0,0.721-0.202,1.318-0.605,1.793
		s-0.966,0.711-1.688,0.711c-0.454,0-0.818-0.076-1.094-0.23c-0.165-0.09-0.343-0.25-0.534-0.477v0.584H16.74v-6.269h1.429v2.231
		c0.182-0.216,0.382-0.38,0.601-0.494c0.259-0.142,0.589-0.213,0.989-0.213C20.482,21.973,21.048,22.193,21.457,22.633z
		 M20.262,25.46c0.206-0.253,0.309-0.585,0.309-0.996c0-0.33-0.051-0.602-0.152-0.818c-0.192-0.409-0.546-0.613-1.062-0.613
		c-0.522,0-0.881,0.2-1.077,0.6c-0.101,0.213-0.151,0.488-0.151,0.826c0,0.398,0.104,0.726,0.313,0.988s0.527,0.393,0.956,0.393
		C19.769,25.84,20.057,25.713,20.262,25.46z"/>
	<path fill="#333333" d="M26.625,22.169c0.381,0.145,0.695,0.374,0.943,0.687c0.225,0.276,0.369,0.596,0.436,0.959
		c0.039,0.213,0.055,0.521,0.048,0.921h-3.981c0.022,0.465,0.213,0.792,0.572,0.979c0.219,0.116,0.48,0.175,0.787,0.175
		c0.326,0,0.591-0.071,0.794-0.213c0.111-0.077,0.21-0.184,0.294-0.32h1.459c-0.038,0.275-0.215,0.556-0.529,0.84
		c-0.49,0.451-1.176,0.677-2.057,0.677c-0.727,0-1.369-0.19-1.925-0.571s-0.834-1-0.834-1.858c0-0.804,0.251-1.421,0.753-1.85
		c0.502-0.429,1.153-0.644,1.955-0.644C25.814,21.952,26.243,22.024,26.625,22.169z M24.487,23.217
		c-0.202,0.177-0.329,0.416-0.381,0.718h2.462c-0.026-0.322-0.153-0.566-0.381-0.733c-0.229-0.167-0.511-0.25-0.848-0.25
		C24.973,22.952,24.688,23.041,24.487,23.217z"/>
</g>
<g enable-background="new    ">
	<path fill="none" stroke="#333333" stroke-width="0.25" stroke-miterlimit="10" d="M21.457,22.633
		c0.409,0.44,0.613,1.008,0.613,1.703c0,0.721-0.202,1.318-0.605,1.793s-0.966,0.711-1.688,0.711c-0.454,0-0.818-0.076-1.094-0.23
		c-0.165-0.09-0.343-0.25-0.534-0.477v0.584H16.74v-6.269h1.429v2.231c0.182-0.216,0.382-0.38,0.601-0.494
		c0.259-0.142,0.589-0.213,0.989-0.213C20.482,21.973,21.048,22.193,21.457,22.633z M20.262,25.46
		c0.206-0.253,0.309-0.585,0.309-0.996c0-0.33-0.051-0.602-0.152-0.818c-0.192-0.409-0.546-0.613-1.062-0.613
		c-0.522,0-0.881,0.2-1.077,0.6c-0.101,0.213-0.151,0.488-0.151,0.826c0,0.398,0.104,0.726,0.313,0.988s0.527,0.393,0.956,0.393
		C19.769,25.84,20.057,25.713,20.262,25.46z"/>
	<path fill="none" stroke="#333333" stroke-width="0.25" stroke-miterlimit="10" d="M26.625,22.169
		c0.381,0.145,0.695,0.374,0.943,0.687c0.225,0.276,0.369,0.596,0.436,0.959c0.039,0.213,0.055,0.521,0.048,0.921h-3.981
		c0.022,0.465,0.213,0.792,0.572,0.979c0.219,0.116,0.48,0.175,0.787,0.175c0.326,0,0.591-0.071,0.794-0.213
		c0.111-0.077,0.21-0.184,0.294-0.32h1.459c-0.038,0.275-0.215,0.556-0.529,0.84c-0.49,0.451-1.176,0.677-2.057,0.677
		c-0.727,0-1.369-0.19-1.925-0.571s-0.834-1-0.834-1.858c0-0.804,0.251-1.421,0.753-1.85c0.502-0.429,1.153-0.644,1.955-0.644
		C25.814,21.952,26.243,22.024,26.625,22.169z M24.487,23.217c-0.202,0.177-0.329,0.416-0.381,0.718h2.462
		c-0.026-0.322-0.153-0.566-0.381-0.733c-0.229-0.167-0.511-0.25-0.848-0.25C24.973,22.952,24.688,23.041,24.487,23.217z"/>
</g>
<g enable-background="new    ">
	<path fill="#707070" d="M31.803,20.883h0.912v1.273h0.857v0.626h-0.857v2.976c0,0.16,0.063,0.266,0.191,0.32
		c0.069,0.031,0.187,0.047,0.35,0.047c0.044,0,0.091-0.002,0.141-0.004c0.051-0.002,0.109-0.006,0.176-0.014v0.609
		c-0.104,0.025-0.211,0.043-0.323,0.055s-0.233,0.018-0.364,0.018c-0.42,0-0.707-0.092-0.857-0.275
		c-0.15-0.183-0.225-0.42-0.225-0.713v-3.019h-0.728v-0.626h0.728V20.883z"/>
	<path fill="#707070" d="M34.475,20.44h0.902v2.333c0.215-0.23,0.406-0.392,0.577-0.486c0.291-0.162,0.653-0.243,1.089-0.243
		c0.778,0,1.307,0.231,1.584,0.694c0.15,0.252,0.226,0.603,0.226,1.052v2.926h-0.928v-2.875c0-0.335-0.05-0.581-0.15-0.737
		c-0.164-0.25-0.472-0.375-0.923-0.375c-0.375,0-0.713,0.109-1.018,0.328s-0.457,0.632-0.457,1.239v2.419h-0.902V20.44z"/>
	<path fill="#707070" d="M43.504,22.281c0.355,0.152,0.626,0.349,0.812,0.59c0.179,0.23,0.299,0.499,0.358,0.805
		c0.054,0.21,0.079,0.545,0.079,1.006h-3.906c0.018,0.463,0.145,0.836,0.384,1.115c0.239,0.281,0.608,0.422,1.109,0.422
		c0.468,0,0.841-0.133,1.12-0.398c0.155-0.154,0.266-0.332,0.33-0.535h0.889c-0.023,0.168-0.102,0.354-0.233,0.561
		c-0.132,0.205-0.28,0.374-0.442,0.504c-0.271,0.228-0.608,0.381-1.01,0.461c-0.216,0.045-0.46,0.067-0.732,0.067
		c-0.664,0-1.227-0.206-1.688-0.619s-0.692-0.991-0.692-1.735c0-0.732,0.232-1.327,0.697-1.784s1.073-0.686,1.824-0.686
		C42.781,22.054,43.148,22.129,43.504,22.281z M43.826,24.072c-0.036-0.332-0.121-0.597-0.253-0.796
		c-0.245-0.369-0.655-0.554-1.228-0.554c-0.412,0-0.756,0.127-1.035,0.381c-0.278,0.254-0.426,0.577-0.442,0.969H43.826z"/>
</g>
<g enable-background="new    ">
	<path fill="none" stroke="#707070" stroke-width="0.25" stroke-miterlimit="10" d="M31.803,20.883h0.912v1.273h0.857v0.626h-0.857
		v2.976c0,0.16,0.063,0.266,0.191,0.32c0.069,0.031,0.187,0.047,0.35,0.047c0.044,0,0.091-0.002,0.141-0.004
		c0.051-0.002,0.109-0.006,0.176-0.014v0.609c-0.104,0.025-0.211,0.043-0.323,0.055s-0.233,0.018-0.364,0.018
		c-0.42,0-0.707-0.092-0.857-0.275c-0.15-0.183-0.225-0.42-0.225-0.713v-3.019h-0.728v-0.626h0.728V20.883z"/>
	<path fill="none" stroke="#707070" stroke-width="0.25" stroke-miterlimit="10" d="M34.475,20.44h0.902v2.333
		c0.215-0.23,0.406-0.392,0.577-0.486c0.291-0.162,0.653-0.243,1.089-0.243c0.778,0,1.307,0.231,1.584,0.694
		c0.15,0.252,0.226,0.603,0.226,1.052v2.926h-0.928v-2.875c0-0.335-0.05-0.581-0.15-0.737c-0.164-0.25-0.472-0.375-0.923-0.375
		c-0.375,0-0.713,0.109-1.018,0.328s-0.457,0.632-0.457,1.239v2.419h-0.902V20.44z"/>
	<path fill="none" stroke="#707070" stroke-width="0.25" stroke-miterlimit="10" d="M43.504,22.281
		c0.355,0.152,0.626,0.349,0.812,0.59c0.179,0.23,0.299,0.499,0.358,0.805c0.054,0.21,0.079,0.545,0.079,1.006h-3.906
		c0.018,0.463,0.145,0.836,0.384,1.115c0.239,0.281,0.608,0.422,1.109,0.422c0.468,0,0.841-0.133,1.12-0.398
		c0.155-0.154,0.266-0.332,0.33-0.535h0.889c-0.023,0.168-0.102,0.354-0.233,0.561c-0.132,0.205-0.28,0.374-0.442,0.504
		c-0.271,0.228-0.608,0.381-1.01,0.461c-0.216,0.045-0.46,0.067-0.732,0.067c-0.664,0-1.227-0.206-1.688-0.619
		s-0.692-0.991-0.692-1.735c0-0.732,0.232-1.327,0.697-1.784s1.073-0.686,1.824-0.686C42.781,22.054,43.148,22.129,43.504,22.281z
		 M43.826,24.072c-0.036-0.332-0.121-0.597-0.253-0.796c-0.245-0.369-0.655-0.554-1.228-0.554c-0.412,0-0.756,0.127-1.035,0.381
		c-0.278,0.254-0.426,0.577-0.442,0.969H43.826z"/>
</g>
<g enable-background="new    ">
	<path fill="#707070" d="M5.547,31.347H6.46v1.272h0.857v0.626H6.46v2.977c0,0.159,0.063,0.266,0.191,0.319
		c0.07,0.031,0.187,0.047,0.351,0.047c0.043,0,0.09-0.001,0.141-0.003s0.108-0.007,0.175-0.014v0.608
		c-0.104,0.025-0.211,0.044-0.323,0.056s-0.233,0.017-0.364,0.017c-0.421,0-0.707-0.091-0.857-0.274
		c-0.15-0.183-0.226-0.421-0.226-0.713v-3.02H4.82v-0.626h0.727V31.347z"/>
	<path fill="#707070" d="M12.111,33.074c0.475,0.392,0.712,0.968,0.712,1.728c0,0.734-0.209,1.342-0.627,1.821
		s-1.067,0.719-1.947,0.719c-0.734,0-1.316-0.212-1.748-0.636c-0.431-0.425-0.647-0.994-0.647-1.708c0-0.767,0.228-1.376,0.682-1.83
		c0.455-0.453,1.065-0.681,1.833-0.681C11.056,32.487,11.636,32.684,12.111,33.074z M11.551,36.105
		c0.22-0.384,0.33-0.812,0.33-1.282c0-0.426-0.079-0.771-0.238-1.038c-0.251-0.419-0.684-0.629-1.299-0.629
		c-0.545,0-0.942,0.179-1.19,0.536c-0.248,0.356-0.372,0.788-0.372,1.292c0,0.485,0.124,0.89,0.372,1.213
		c0.248,0.323,0.642,0.484,1.18,0.484C10.925,36.682,11.331,36.489,11.551,36.105z"/>
</g>
<g enable-background="new    ">
	<path fill="none" stroke="#707070" stroke-width="0.25" stroke-miterlimit="10" d="M5.547,31.347H6.46v1.272h0.857v0.626H6.46
		v2.977c0,0.159,0.063,0.266,0.191,0.319c0.07,0.031,0.187,0.047,0.351,0.047c0.043,0,0.09-0.001,0.141-0.003
		s0.108-0.007,0.175-0.014v0.608c-0.104,0.025-0.211,0.044-0.323,0.056s-0.233,0.017-0.364,0.017c-0.421,0-0.707-0.091-0.857-0.274
		c-0.15-0.183-0.226-0.421-0.226-0.713v-3.02H4.82v-0.626h0.727V31.347z"/>
	<path fill="none" stroke="#707070" stroke-width="0.25" stroke-miterlimit="10" d="M12.111,33.074
		c0.475,0.392,0.712,0.968,0.712,1.728c0,0.734-0.209,1.342-0.627,1.821s-1.067,0.719-1.947,0.719c-0.734,0-1.316-0.212-1.748-0.636
		c-0.431-0.425-0.647-0.994-0.647-1.708c0-0.767,0.228-1.376,0.682-1.83c0.455-0.453,1.065-0.681,1.833-0.681
		C11.056,32.487,11.636,32.684,12.111,33.074z M11.551,36.105c0.22-0.384,0.33-0.812,0.33-1.282c0-0.426-0.079-0.771-0.238-1.038
		c-0.251-0.419-0.684-0.629-1.299-0.629c-0.545,0-0.942,0.179-1.19,0.536c-0.248,0.356-0.372,0.788-0.372,1.292
		c0,0.485,0.124,0.89,0.372,1.213c0.248,0.323,0.642,0.484,1.18,0.484C10.925,36.682,11.331,36.489,11.551,36.105z"/>
</g>
<g enable-background="new    ">
	<path fill="#333333" d="M21.457,33.097c0.409,0.439,0.613,1.008,0.613,1.703c0,0.721-0.202,1.318-0.605,1.793
		c-0.403,0.474-0.966,0.711-1.688,0.711c-0.454,0-0.818-0.077-1.094-0.23c-0.165-0.091-0.343-0.25-0.534-0.477v0.583H16.74v-6.268
		h1.429v2.231c0.182-0.216,0.382-0.381,0.601-0.494c0.259-0.142,0.589-0.213,0.989-0.213C20.482,32.437,21.048,32.656,21.457,33.097
		z M20.262,35.924c0.206-0.253,0.309-0.585,0.309-0.996c0-0.33-0.051-0.603-0.152-0.818c-0.192-0.408-0.546-0.612-1.062-0.612
		c-0.522,0-0.881,0.199-1.077,0.6c-0.101,0.213-0.151,0.488-0.151,0.826c0,0.397,0.104,0.727,0.313,0.988
		c0.209,0.261,0.527,0.392,0.956,0.392C19.769,36.303,20.057,36.177,20.262,35.924z"/>
	<path fill="#333333" d="M26.625,32.633c0.381,0.145,0.695,0.374,0.943,0.687c0.225,0.275,0.369,0.596,0.436,0.959
		c0.039,0.214,0.055,0.521,0.048,0.922h-3.981c0.022,0.465,0.213,0.792,0.572,0.979c0.219,0.116,0.48,0.174,0.787,0.174
		c0.326,0,0.591-0.07,0.794-0.213c0.111-0.076,0.21-0.183,0.294-0.319h1.459c-0.038,0.275-0.215,0.556-0.529,0.839
		c-0.49,0.451-1.176,0.678-2.057,0.678c-0.727,0-1.369-0.19-1.925-0.571s-0.834-1-0.834-1.858c0-0.804,0.251-1.421,0.753-1.85
		s1.153-0.644,1.955-0.644C25.814,32.415,26.243,32.487,26.625,32.633z M24.487,33.681c-0.202,0.177-0.329,0.416-0.381,0.719h2.462
		c-0.026-0.322-0.153-0.566-0.381-0.733c-0.229-0.167-0.511-0.25-0.848-0.25C24.973,33.416,24.688,33.504,24.487,33.681z"/>
</g>
<g enable-background="new    ">
	<path fill="none" stroke="#333333" stroke-width="0.25" stroke-miterlimit="10" d="M21.457,33.097
		c0.409,0.439,0.613,1.008,0.613,1.703c0,0.721-0.202,1.318-0.605,1.793c-0.403,0.474-0.966,0.711-1.688,0.711
		c-0.454,0-0.818-0.077-1.094-0.23c-0.165-0.091-0.343-0.25-0.534-0.477v0.583H16.74v-6.268h1.429v2.231
		c0.182-0.216,0.382-0.381,0.601-0.494c0.259-0.142,0.589-0.213,0.989-0.213C20.482,32.437,21.048,32.656,21.457,33.097z
		 M20.262,35.924c0.206-0.253,0.309-0.585,0.309-0.996c0-0.33-0.051-0.603-0.152-0.818c-0.192-0.408-0.546-0.612-1.062-0.612
		c-0.522,0-0.881,0.199-1.077,0.6c-0.101,0.213-0.151,0.488-0.151,0.826c0,0.397,0.104,0.727,0.313,0.988
		c0.209,0.261,0.527,0.392,0.956,0.392C19.769,36.303,20.057,36.177,20.262,35.924z"/>
	<path fill="none" stroke="#333333" stroke-width="0.25" stroke-miterlimit="10" d="M26.625,32.633
		c0.381,0.145,0.695,0.374,0.943,0.687c0.225,0.275,0.369,0.596,0.436,0.959c0.039,0.214,0.055,0.521,0.048,0.922h-3.981
		c0.022,0.465,0.213,0.792,0.572,0.979c0.219,0.116,0.48,0.174,0.787,0.174c0.326,0,0.591-0.07,0.794-0.213
		c0.111-0.076,0.21-0.183,0.294-0.319h1.459c-0.038,0.275-0.215,0.556-0.529,0.839c-0.49,0.451-1.176,0.678-2.057,0.678
		c-0.727,0-1.369-0.19-1.925-0.571s-0.834-1-0.834-1.858c0-0.804,0.251-1.421,0.753-1.85s1.153-0.644,1.955-0.644
		C25.814,32.415,26.243,32.487,26.625,32.633z M24.487,33.681c-0.202,0.177-0.329,0.416-0.381,0.719h2.462
		c-0.026-0.322-0.153-0.566-0.381-0.733c-0.229-0.167-0.511-0.25-0.848-0.25C24.973,33.416,24.688,33.504,24.487,33.681z"/>
</g>
<g enable-background="new    ">
	<path fill="#707070" d="M35.514,33.074c0.475,0.392,0.711,0.968,0.711,1.728c0,0.734-0.209,1.342-0.627,1.821
		s-1.067,0.719-1.947,0.719c-0.733,0-1.316-0.212-1.748-0.636c-0.431-0.425-0.646-0.994-0.646-1.708c0-0.767,0.228-1.376,0.682-1.83
		c0.455-0.453,1.066-0.681,1.833-0.681C34.457,32.487,35.038,32.684,35.514,33.074z M34.953,36.105
		c0.219-0.384,0.329-0.812,0.329-1.282c0-0.426-0.079-0.771-0.237-1.038c-0.252-0.419-0.685-0.629-1.3-0.629
		c-0.546,0-0.942,0.179-1.19,0.536c-0.247,0.356-0.371,0.788-0.371,1.292c0,0.485,0.124,0.89,0.371,1.213
		c0.248,0.323,0.643,0.484,1.181,0.484C34.327,36.682,34.732,36.489,34.953,36.105z"/>
	<path fill="#707070" d="M37.358,32.619h0.857v0.788c0.07-0.153,0.242-0.34,0.517-0.56c0.273-0.221,0.59-0.33,0.947-0.33
		c0.018,0,0.045,0.001,0.086,0.004c0.039,0.003,0.108,0.009,0.205,0.017v0.81c-0.053-0.009-0.103-0.015-0.148-0.018
		c-0.045-0.002-0.094-0.004-0.147-0.004c-0.454,0-0.804,0.124-1.048,0.373c-0.244,0.248-0.366,0.534-0.366,0.857v2.623h-0.902
		V32.619z"/>
</g>
<g enable-background="new    ">
	<path fill="none" stroke="#707070" stroke-width="0.25" stroke-miterlimit="10" d="M35.514,33.074
		c0.475,0.392,0.711,0.968,0.711,1.728c0,0.734-0.209,1.342-0.627,1.821s-1.067,0.719-1.947,0.719c-0.733,0-1.316-0.212-1.748-0.636
		c-0.431-0.425-0.646-0.994-0.646-1.708c0-0.767,0.228-1.376,0.682-1.83c0.455-0.453,1.066-0.681,1.833-0.681
		C34.457,32.487,35.038,32.684,35.514,33.074z M34.953,36.105c0.219-0.384,0.329-0.812,0.329-1.282c0-0.426-0.079-0.771-0.237-1.038
		c-0.252-0.419-0.685-0.629-1.3-0.629c-0.546,0-0.942,0.179-1.19,0.536c-0.247,0.356-0.371,0.788-0.371,1.292
		c0,0.485,0.124,0.89,0.371,1.213c0.248,0.323,0.643,0.484,1.181,0.484C34.327,36.682,34.732,36.489,34.953,36.105z"/>
	<path fill="none" stroke="#707070" stroke-width="0.25" stroke-miterlimit="10" d="M37.358,32.619h0.857v0.788
		c0.07-0.153,0.242-0.34,0.517-0.56c0.273-0.221,0.59-0.33,0.947-0.33c0.018,0,0.045,0.001,0.086,0.004
		c0.039,0.003,0.108,0.009,0.205,0.017v0.81c-0.053-0.009-0.103-0.015-0.148-0.018c-0.045-0.002-0.094-0.004-0.147-0.004
		c-0.454,0-0.804,0.124-1.048,0.373c-0.244,0.248-0.366,0.534-0.366,0.857v2.623h-0.902V32.619z"/>
</g>
</svg>
