<?xml version="1.0" encoding="UTF-8"?><svg id="Layer_1" xmlns="http://www.w3.org/2000/svg" viewBox="0 0 48 48"><defs><style>.cls-1{fill:#333;}.cls-2{fill:#707070;}</style></defs><path class="cls-2" d="M2.81,14.36v-2.74h-.82v-1.01l.89-.06,.16-1.57h1.12v1.57h1.46v1.07h-1.46v2.73c0,.68,.26,1.01,.81,1.01,.2,0,.43-.06,.6-.13l.23,.99c-.31,.1-.71,.21-1.17,.21-1.32,0-1.82-.84-1.82-2.08Z"/><path class="cls-2" d="M6.27,13.43c0-1.91,1.3-3.02,2.73-3.02s2.73,1.1,2.73,3.02-1.3,3.01-2.73,3.01-2.73-1.1-2.73-3.01Zm4.08,0c0-1.15-.51-1.92-1.35-1.92s-1.35,.77-1.35,1.92,.51,1.91,1.35,1.91,1.35-.76,1.35-1.91Z"/><path class="cls-1" d="M16.94,15.67h-.05l-.16,.63h-1.57V8.16h2.01v1.89l-.05,.84c.41-.37,.92-.58,1.44-.58,1.38,0,2.28,1.17,2.28,2.96,0,2.02-1.19,3.17-2.43,3.17-.51,0-1.03-.26-1.47-.77Zm1.85-2.36c0-.96-.28-1.36-.82-1.36-.3,0-.54,.12-.8,.42v2.15c.23,.21,.49,.28,.75,.28,.47,0,.87-.37,.87-1.5Z"/><path class="cls-1" d="M21.64,13.38c0-1.89,1.38-3.06,2.81-3.06,1.73,0,2.55,1.26,2.55,2.83,0,.35-.05,.7-.08,.84h-3.33c.19,.7,.7,.94,1.36,.94,.4,0,.77-.12,1.19-.35l.66,1.19c-.63,.44-1.47,.68-2.13,.68-1.71,0-3.02-1.12-3.02-3.06Zm3.65-.7c0-.44-.19-.84-.8-.84-.44,0-.82,.26-.94,.84h1.73Z"/><path class="cls-2" d="M30.31,14.76c0-1.23,1.02-1.87,3.38-2.12-.02-.62-.27-1.13-1.04-1.13-.57,0-1.11,.26-1.61,.57l-.5-.9c.63-.4,1.45-.75,2.36-.75,1.44,0,2.14,.88,2.14,2.48v3.4h-1.1l-.1-.64h-.04c-.51,.44-1.1,.78-1.78,.78-1.01,0-1.7-.68-1.7-1.68Zm3.38,0v-1.29c-1.56,.2-2.08,.6-2.08,1.18,0,.51,.35,.73,.83,.73s.82-.23,1.25-.62Z"/><path class="cls-2" d="M2.81,26.06v-2.74h-.82v-1.01l.89-.06,.16-1.57h1.12v1.57h1.46v1.07h-1.46v2.73c0,.68,.26,1.01,.81,1.01,.2,0,.43-.06,.6-.13l.23,.99c-.31,.1-.71,.21-1.17,.21-1.32,0-1.82-.84-1.82-2.08Z"/><path class="cls-2" d="M6.27,25.13c0-1.91,1.3-3.02,2.73-3.02s2.73,1.1,2.73,3.02-1.3,3.01-2.73,3.01-2.73-1.1-2.73-3.01Zm4.08,0c0-1.15-.51-1.92-1.35-1.92s-1.35,.77-1.35,1.92,.51,1.91,1.35,1.91,1.35-.76,1.35-1.91Z"/><path class="cls-1" d="M16.94,27.37h-.05l-.16,.63h-1.57v-8.14h2.01v1.89l-.05,.84c.41-.37,.92-.58,1.44-.58,1.38,0,2.28,1.17,2.28,2.96,0,2.02-1.19,3.17-2.43,3.17-.51,0-1.03-.26-1.47-.77Zm1.85-2.36c0-.96-.28-1.36-.82-1.36-.3,0-.54,.12-.8,.42v2.15c.23,.21,.49,.28,.75,.28,.47,0,.87-.37,.87-1.5Z"/><path class="cls-1" d="M21.64,25.08c0-1.89,1.38-3.06,2.81-3.06,1.73,0,2.55,1.26,2.55,2.83,0,.35-.05,.7-.08,.84h-3.33c.19,.7,.7,.94,1.36,.94,.4,0,.77-.12,1.19-.35l.66,1.19c-.63,.44-1.47,.68-2.13,.68-1.71,0-3.02-1.12-3.02-3.06Zm3.65-.7c0-.44-.19-.84-.8-.84-.44,0-.82,.26-.94,.84h1.73Z"/><path class="cls-2" d="M30.82,26.06v-2.74h-.82v-1.01l.89-.06,.16-1.57h1.12v1.57h1.46v1.07h-1.46v2.73c0,.68,.26,1.01,.81,1.01,.2,0,.43-.06,.6-.13l.23,.99c-.31,.1-.71,.21-1.17,.21-1.32,0-1.82-.84-1.82-2.08Z"/><path class="cls-2" d="M34.84,19.74h1.35v2.14l-.06,1.11c.48-.45,1.05-.87,1.84-.87,1.23,0,1.77,.83,1.77,2.28v3.6h-1.35v-3.43c0-.94-.27-1.3-.89-1.3-.51,0-.84,.25-1.31,.72v4.01h-1.35v-8.26Z"/><path class="cls-2" d="M40.99,25.13c0-1.87,1.3-3.02,2.65-3.02,1.55,0,2.37,1.12,2.37,2.73,0,.26-.03,.51-.06,.66h-3.65c.11,1.02,.77,1.6,1.69,1.6,.49,0,.91-.15,1.33-.42l.46,.84c-.55,.37-1.24,.62-1.97,.62-1.59,0-2.83-1.11-2.83-3.01Zm3.85-.55c0-.88-.39-1.42-1.18-1.42-.67,0-1.26,.5-1.38,1.42h2.55Z"/><path class="cls-2" d="M2.81,37.76v-2.74h-.82v-1.01l.89-.06,.16-1.57h1.12v1.57h1.46v1.07h-1.46v2.73c0,.68,.26,1.01,.81,1.01,.2,0,.43-.06,.6-.13l.23,.99c-.31,.1-.71,.21-1.17,.21-1.32,0-1.82-.84-1.82-2.08Z"/><path class="cls-2" d="M6.27,36.83c0-1.91,1.3-3.02,2.73-3.02s2.73,1.1,2.73,3.02-1.3,3.01-2.73,3.01-2.73-1.1-2.73-3.01Zm4.08,0c0-1.15-.51-1.92-1.35-1.92s-1.35,.77-1.35,1.92,.51,1.91,1.35,1.91,1.35-.76,1.35-1.91Z"/><path class="cls-1" d="M16.94,39.07h-.05l-.16,.63h-1.57v-8.14h2.01v1.89l-.05,.84c.41-.37,.92-.58,1.44-.58,1.38,0,2.28,1.17,2.28,2.96,0,2.02-1.19,3.17-2.43,3.17-.51,0-1.03-.26-1.47-.77Zm1.85-2.36c0-.96-.28-1.36-.82-1.36-.3,0-.54,.12-.8,.42v2.15c.23,.21,.49,.28,.75,.28,.47,0,.87-.37,.87-1.5Z"/><path class="cls-1" d="M21.64,36.78c0-1.89,1.38-3.06,2.81-3.06,1.73,0,2.55,1.26,2.55,2.83,0,.35-.05,.7-.08,.84h-3.33c.19,.7,.7,.94,1.36,.94,.4,0,.77-.12,1.19-.35l.66,1.19c-.63,.44-1.47,.68-2.13,.68-1.71,0-3.02-1.12-3.02-3.06Zm3.65-.7c0-.44-.19-.84-.8-.84-.44,0-.82,.26-.94,.84h1.73Z"/><path class="cls-2" d="M30.24,36.83c0-1.91,1.3-3.02,2.73-3.02s2.73,1.1,2.73,3.02-1.3,3.01-2.73,3.01-2.73-1.1-2.73-3.01Zm4.08,0c0-1.15-.51-1.92-1.35-1.92s-1.35,.77-1.35,1.92,.51,1.91,1.35,1.91,1.35-.76,1.35-1.91Z"/><path class="cls-2" d="M37.04,33.95h1.1l.1,1.02h.04c.41-.75,1.02-1.16,1.63-1.16,.29,0,.48,.04,.65,.12l-.23,1.17c-.2-.06-.35-.09-.59-.09-.46,0-1.01,.31-1.36,1.19v3.5h-1.35v-5.74Z"/></svg>
