<?xml version="1.0" encoding="UTF-8" standalone="no"?>
<!-- Created with Inkscape (http://www.inkscape.org/) -->

<svg
   xmlns:dc="http://purl.org/dc/elements/1.1/"
   xmlns:cc="http://creativecommons.org/ns#"
   xmlns:rdf="http://www.w3.org/1999/02/22-rdf-syntax-ns#"
   xmlns:svg="http://www.w3.org/2000/svg"
   xmlns="http://www.w3.org/2000/svg"
   xmlns:sodipodi="http://sodipodi.sourceforge.net/DTD/sodipodi-0.dtd"
   xmlns:inkscape="http://www.inkscape.org/namespaces/inkscape"
   width="48"
   height="48"
   viewBox="0 0 12.7 12.7"
   version="1.1"
   id="svg8"
   sodipodi:docname="concordances2.svg"
   inkscape:version="0.92.1 r15371">
  <defs
     id="defs2" />
  <sodipodi:namedview
     id="base"
     pagecolor="#ffffff"
     bordercolor="#666666"
     borderopacity="1.0"
     inkscape:pageopacity="0.0"
     inkscape:pageshadow="2"
     inkscape:zoom="11.583333"
     inkscape:cx="20.244604"
     inkscape:cy="22.431655"
     inkscape:document-units="mm"
     inkscape:current-layer="layer1"
     showgrid="true"
     units="px"
     inkscape:snap-bbox="true"
     inkscape:bbox-nodes="false"
     inkscape:window-width="1920"
     inkscape:window-height="1017"
     inkscape:window-x="-8"
     inkscape:window-y="-8"
     inkscape:window-maximized="1"
     showguides="false">
    <inkscape:grid
       type="xygrid"
       id="grid3680" />
  </sodipodi:namedview>
  <metadata
     id="metadata5">
    <rdf:RDF>
      <cc:Work
         rdf:about="">
        <dc:format>image/svg+xml</dc:format>
        <dc:type
           rdf:resource="http://purl.org/dc/dcmitype/StillImage" />
        <dc:title></dc:title>
      </cc:Work>
    </rdf:RDF>
  </metadata>
  <g
     inkscape:label="Layer 1"
     inkscape:groupmode="layer"
     id="layer1"
     transform="translate(0,-284.29998)">
    <text
       xml:space="preserve"
       style="font-style:normal;font-weight:normal;font-size:10.58333302px;line-height:1.25;font-family:sans-serif;letter-spacing:0px;word-spacing:0px;fill:#000000;fill-opacity:1;stroke:none;stroke-width:0.26458332"
       x="3.4395833"
       y="286.9458"
       id="text3684"><tspan
         sodipodi:role="line"
         id="tspan3682"
         x="3.4395833"
         y="296.60129"
         style="stroke-width:0.26458332" /></text>
    <g
       aria-label="to be a"
       style="font-style:normal;font-weight:normal;font-size:3.07890463px;line-height:1.25;font-family:sans-serif;letter-spacing:0px;word-spacing:0px;fill:#000000;fill-opacity:1;stroke:none;stroke-width:0.1649413"
       id="text3690">
      <path
         d="m 1.4841384,288.5504 q -0.091944,0.0243 -0.2012353,0.0399 -0.1075568,0.0156 -0.1925613,0.0156 -0.29664853,0 -0.45104455,-0.1596 -0.15439601,-0.1596 -0.15439601,-0.51176 v -1.03046 H 0.26458333 v -0.2741 h 0.22031791 v -0.55686 h 0.32613989 v 0.55686 H 1.4841384 v 0.2741 H 0.81104113 v 0.88301 q 0,0.15266 0.006939,0.2394 0.006939,0.085 0.048574,0.1596 0.0381653,0.0694 0.1040872,0.10235 0.0676567,0.0312 0.20470479,0.0312 0.0798,0 0.1665396,-0.0225 0.086739,-0.0243 0.1249046,-0.0399 h 0.017348 z"
         style="font-size:3.55284309px;fill:#808080;stroke-width:0.1649413"
         id="path3782" />
      <path
         d="m 3.5311866,287.59974 q 0,0.47359 -0.2428701,0.74769 -0.2428701,0.2741 -0.650545,0.2741 -0.4111444,0 -0.6540146,-0.2741 -0.2411353,-0.2741 -0.2411353,-0.74769 0,-0.4736 0.2411353,-0.74769 0.2428702,-0.27584 0.6540146,-0.27584 0.4076749,0 0.650545,0.27584 0.2428701,0.27409 0.2428701,0.74769 z m -0.3365486,0 q 0,-0.37645 -0.1474568,-0.5586 -0.1474569,-0.18389 -0.4094097,-0.18389 -0.2654223,0 -0.4128792,0.18389 -0.1457221,0.18215 -0.1457221,0.5586 0,0.3643 0.1474569,0.5534 0.1474568,0.18735 0.4111444,0.18735 0.260218,0 0.4076749,-0.18562 0.1491916,-0.18736 0.1491916,-0.55513 z"
         style="font-size:3.55284309px;fill:#808080;stroke-width:0.1649413"
         id="path3784" />
      <path
         d="m 6.9777911,287.59106 q 0,0.24116 -0.068902,0.43409 -0.067179,0.19292 -0.1825901,0.32384 -0.1223009,0.13608 -0.2687174,0.20498 -0.1464166,0.0672 -0.3221164,0.0672 -0.1636421,0 -0.2859429,-0.0396 -0.1223009,-0.0379 -0.2411567,-0.10335 l -0.020671,0.0896 H 5.2845267 v -2.68029 h 0.323839 v 0.95774 q 0.1360812,-0.11196 0.289388,-0.18259 0.1533067,-0.0723 0.3445095,-0.0723 0.3410645,0 0.5374349,0.26183 0.198093,0.26183 0.198093,0.73897 z m -0.3341743,0.009 q 0,-0.34451 -0.1136881,-0.52193 -0.1136882,-0.17915 -0.3669027,-0.17915 -0.1412489,0 -0.2859429,0.062 -0.144694,0.0603 -0.2687174,0.15675 v 1.10243 q 0.1378038,0.062 0.235989,0.0861 0.099908,0.0241 0.2256538,0.0241 0.2687174,0 0.4203016,-0.1757 0.1533067,-0.17742 0.1533067,-0.55466 z"
         style="font-size:3.52777767px"
         id="path3786" />
      <path
         d="M 9.0930797,287.6393 H 7.6754229 q 0,0.17742 0.053399,0.31005 0.053399,0.13092 0.1464166,0.21532 0.089572,0.0827 0.2118733,0.12403 0.1240235,0.0413 0.2721626,0.0413 0.1963704,0 0.3944634,-0.0775 0.1998155,-0.0792 0.2842203,-0.15503 h 0.017225 v 0.35313 q -0.163642,0.0689 -0.3341742,0.11541 -0.1705323,0.0465 -0.3582899,0.0465 -0.4788683,0 -0.7475857,-0.25839 -0.2687175,-0.2601 -0.2687175,-0.73725 0,-0.47198 0.2566596,-0.74931 0.2583822,-0.27733 0.6786838,-0.27733 0.3892958,0 0.5994466,0.22738 0.2118734,0.22738 0.2118734,0.64596 z m -0.3152263,-0.24805 q -0.00172,-0.25494 -0.129191,-0.39446 -0.125746,-0.13953 -0.3841282,-0.13953 -0.2601047,0 -0.415134,0.15331 -0.1533067,0.1533 -0.1739773,0.38068 z"
         style="font-size:3.52777767px"
         id="path3788" />
      <path
         d="m 12.341111,288.56775 h -0.324405 v -0.20644 q -0.04337,0.0295 -0.117966,0.0833 -0.07286,0.052 -0.142252,0.0833 -0.08153,0.0399 -0.187357,0.0659 -0.105822,0.0278 -0.248074,0.0278 -0.261953,0 -0.444106,-0.17348 -0.182152,-0.17348 -0.182152,-0.44237 0,-0.22032 0.09368,-0.35563 0.09541,-0.13705 0.270627,-0.21512 0.176948,-0.0781 0.425022,-0.10582 0.248075,-0.0278 0.53258,-0.0416 v -0.0503 q 0,-0.11103 -0.0399,-0.18389 -0.03816,-0.0729 -0.111026,-0.1145 -0.06939,-0.0399 -0.16654,-0.0538 -0.09715,-0.0139 -0.20297,-0.0139 -0.128374,0 -0.28624,0.0347 -0.157865,0.033 -0.32614,0.0971 h -0.01735 v -0.33134 q 0.09541,-0.026 0.275831,-0.0573 0.180418,-0.0312 0.355632,-0.0312 0.204705,0 0.355631,0.0347 0.152661,0.033 0.263688,0.11449 0.109291,0.0798 0.166539,0.20644 0.05725,0.12664 0.05725,0.314 z m -0.324405,-0.47707 v -0.53952 q -0.149192,0.009 -0.352162,0.026 -0.201235,0.0173 -0.3192,0.0503 -0.140518,0.0399 -0.227258,0.12491 -0.08674,0.0833 -0.08674,0.23073 0,0.16654 0.100618,0.25154 0.100617,0.0833 0.307057,0.0833 0.171744,0 0.313996,-0.0659 0.142253,-0.0677 0.263688,-0.16134 z"
         style="font-size:3.55284309px;fill:#808080;stroke-width:0.1649413"
         id="path3790" />
    </g>
    <g
       aria-label="to be "
       style="font-style:normal;font-weight:normal;font-size:2.87351036px;line-height:1.25;font-family:sans-serif;letter-spacing:0px;word-spacing:0px;fill:#000000;fill-opacity:1;stroke:none;stroke-width:0.15393804"
       id="text3690-3">
      <path
         d="m 1.5037346,292.07015 q -0.091295,0.0241 -0.1998155,0.0396 -0.106798,0.0155 -0.1912028,0.0155 -0.29455567,0 -0.44786242,-0.15848 -0.15330674,-0.15847 -0.15330674,-0.50815 v -1.02319 H 0.29278358 v -0.27216 h 0.21876356 v -0.55294 H 0.8353861 v 0.55294 h 0.6683485 v 0.27216 H 0.8353861 v 0.87678 q 0,0.15158 0.00689,0.23771 0.00689,0.0844 0.0482313,0.15847 0.037896,0.0689 0.10335286,0.10163 0.0671794,0.031 0.20326061,0.031 0.079237,0 0.1653646,-0.0224 0.086127,-0.0241 0.1240234,-0.0396 h 0.017226 z"
         style="font-size:3.52777767px;fill:#808080;stroke-width:0.15393804"
         id="path3793" />
      <path
         d="m 3.5363409,291.12619 q 0,0.47026 -0.2411567,0.74242 -0.2411567,0.27216 -0.6459554,0.27216 -0.4082438,0 -0.6494005,-0.27216 -0.2394341,-0.27216 -0.2394341,-0.74242 0,-0.47026 0.2394341,-0.74242 0.2411567,-0.27388 0.6494005,-0.27388 0.4047987,0 0.6459554,0.27388 0.2411567,0.27216 0.2411567,0.74242 z m -0.3341743,0 q 0,-0.37379 -0.1464165,-0.55466 -0.1464166,-0.18259 -0.4065213,-0.18259 -0.2635498,0 -0.4099663,0.18259 -0.144694,0.18087 -0.144694,0.55466 0,0.36174 0.1464165,0.54949 0.1464166,0.18604 0.4082438,0.18604 0.2583822,0 0.4047987,-0.18431 0.1481391,-0.18604 0.1481391,-0.55122 z"
         style="font-size:3.52777767px;fill:#808080;stroke-width:0.15393804"
         id="path3795" />
      <path
         d="m 6.9728237,291.11069 q 0,0.24115 -0.068902,0.43408 -0.067179,0.19292 -0.1825901,0.32384 -0.1223009,0.13608 -0.2687174,0.20498 -0.1464166,0.0672 -0.3221164,0.0672 -0.1636421,0 -0.285943,-0.0396 -0.1223009,-0.0379 -0.2411566,-0.10335 l -0.020671,0.0896 H 5.2795593 v -2.68028 h 0.323839 v 0.95773 q 0.1360812,-0.11196 0.289388,-0.18259 0.1533067,-0.0723 0.3445095,-0.0723 0.3410645,0 0.5374349,0.26182 0.198093,0.26183 0.198093,0.73898 z m -0.3341743,0.009 q 0,-0.34451 -0.1136881,-0.52193 -0.1136882,-0.17915 -0.3669027,-0.17915 -0.1412489,0 -0.2859429,0.062 -0.144694,0.0603 -0.2687174,0.15676 v 1.10243 q 0.1378038,0.062 0.235989,0.0861 0.099908,0.0241 0.2256537,0.0241 0.2687175,0 0.4203017,-0.1757 0.1533067,-0.17742 0.1533067,-0.55466 z"
         style="font-size:3.52777767px;stroke-width:0.15393804"
         id="path3797" />
      <path
         d="M 9.0881122,291.15892 H 7.6704555 q 0,0.17742 0.053399,0.31006 0.053399,0.13091 0.1464165,0.21532 0.089573,0.0827 0.2118734,0.12402 0.1240234,0.0413 0.2721625,0.0413 0.1963705,0 0.3944635,-0.0775 0.1998155,-0.0792 0.2842203,-0.15503 h 0.017226 v 0.35312 q -0.163642,0.0689 -0.3341743,0.11541 -0.1705322,0.0465 -0.3582899,0.0465 -0.4788682,0 -0.7475857,-0.25838 -0.2687174,-0.26011 -0.2687174,-0.73725 0,-0.47198 0.2566596,-0.74931 0.2583822,-0.27733 0.6786838,-0.27733 0.3892958,0 0.5994466,0.22737 0.2118733,0.22738 0.2118733,0.64596 z M 8.772886,290.91087 q -0.00172,-0.25494 -0.1291911,-0.39446 -0.1257459,-0.13953 -0.3841281,-0.13953 -0.2601047,0 -0.415134,0.15331 -0.1533067,0.15331 -0.1739773,0.38068 z"
         style="font-size:3.52777767px;stroke-width:0.15393804"
         id="path3799" />
    </g>
    <g
       aria-label="it be a"
       style="font-style:normal;font-weight:normal;font-size:2.74467945px;line-height:1.25;font-family:sans-serif;letter-spacing:0px;word-spacing:0px;fill:#000000;fill-opacity:1;stroke:none;stroke-width:0.14703639"
       id="text3690-2">
      <path
         d="M 2.0212053,293.36061 H 1.6560252 v -0.3359 h 0.3651801 z m -0.020671,2.2462 h -0.323839 v -1.92408 h 0.323839 z"
         style="font-size:3.52777767px;fill:#808080;stroke-width:0.14703639"
         id="path3802" />
      <path
         d="m 3.6300648,295.58959 q -0.091295,0.0241 -0.1998155,0.0396 -0.106798,0.0155 -0.1912028,0.0155 -0.2945557,0 -0.4478624,-0.15848 -0.1533068,-0.15847 -0.1533068,-0.50815 v -1.02319 H 2.4191138 v -0.27216 h 0.2187635 v -0.55294 h 0.323839 v 0.55294 h 0.6683485 v 0.27216 H 2.9617163 v 0.87678 q 0,0.15158 0.00689,0.23771 0.00689,0.0844 0.048231,0.15847 0.037896,0.0689 0.1033529,0.10163 0.067179,0.031 0.2032606,0.031 0.079237,0 0.1653646,-0.0224 0.086127,-0.0241 0.1240234,-0.0396 h 0.017225 z"
         style="font-size:3.52777767px;fill:#808080;stroke-width:0.14703639"
         id="path3804" />
      <path
         d="m 6.9563044,294.63013 q 0,0.24115 -0.068902,0.43408 -0.067179,0.19292 -0.18259,0.32384 -0.1223009,0.13608 -0.2687175,0.20498 -0.1464165,0.0672 -0.3221164,0.0672 -0.163642,0 -0.2859429,-0.0396 -0.1223009,-0.0379 -0.2411567,-0.10335 l -0.020671,0.0896 H 5.26304 v -2.68028 h 0.323839 v 0.95773 q 0.1360813,-0.11196 0.289388,-0.18259 0.1533068,-0.0723 0.3445096,-0.0723 0.3410644,0 0.5374348,0.26182 0.198093,0.26183 0.198093,0.73898 z m -0.3341742,0.009 q 0,-0.34451 -0.1136882,-0.52193 -0.1136881,-0.17915 -0.3669026,-0.17915 -0.1412489,0 -0.285943,0.062 -0.144694,0.0603 -0.2687174,0.15676 v 1.10243 q 0.1378038,0.062 0.235989,0.0861 0.099908,0.0241 0.2256538,0.0241 0.2687174,0 0.4203016,-0.1757 0.1533068,-0.17742 0.1533068,-0.55466 z"
         style="font-size:3.52777767px;stroke-width:0.14703639"
         id="path3806" />
      <path
         d="M 9.071593,294.67836 H 7.6539363 q 0,0.17742 0.053399,0.31006 0.053399,0.13091 0.1464166,0.21532 0.089572,0.0827 0.2118733,0.12402 0.1240235,0.0413 0.2721626,0.0413 0.1963704,0 0.3944634,-0.0775 0.1998155,-0.0792 0.2842204,-0.15503 h 0.017226 v 0.35312 q -0.1636421,0.0689 -0.3341743,0.11541 -0.1705322,0.0465 -0.3582899,0.0465 -0.4788683,0 -0.7475857,-0.25838 -0.2687175,-0.26011 -0.2687175,-0.73725 0,-0.47198 0.2566596,-0.74931 0.2583822,-0.27733 0.6786838,-0.27733 0.3892958,0 0.5994466,0.22737 0.2118734,0.22738 0.2118734,0.64596 z m -0.3152262,-0.24805 q -0.00172,-0.25494 -0.1291911,-0.39446 -0.125746,-0.13953 -0.3841281,-0.13953 -0.2601047,0 -0.415134,0.15331 -0.1533068,0.15331 -0.1739773,0.38068 z"
         style="font-size:3.52777767px;stroke-width:0.14703639"
         id="path3808" />
      <path
         d="m 12.297925,295.60681 h -0.322116 v -0.20498 q -0.04306,0.0293 -0.117133,0.0827 -0.07235,0.0517 -0.141249,0.0827 -0.08096,0.0396 -0.186035,0.0655 -0.105076,0.0276 -0.246325,0.0276 -0.260104,0 -0.440972,-0.17225 -0.180867,-0.17226 -0.180867,-0.43925 0,-0.21877 0.09302,-0.35313 0.09474,-0.13608 0.268718,-0.21359 0.175699,-0.0775 0.422024,-0.10508 0.246324,-0.0276 0.528822,-0.0413 v -0.05 q 0,-0.11025 -0.03962,-0.18259 -0.0379,-0.0723 -0.110243,-0.11369 -0.0689,-0.0396 -0.165364,-0.0534 -0.09646,-0.0138 -0.201538,-0.0138 -0.127469,0 -0.284221,0.0344 -0.156752,0.0327 -0.323839,0.0965 h -0.01722 v -0.329 q 0.09474,-0.0258 0.273885,-0.0568 0.179145,-0.031 0.353122,-0.031 0.203261,0 0.353122,0.0344 0.151585,0.0327 0.261828,0.11369 0.10852,0.0792 0.165364,0.20498 0.05684,0.12575 0.05684,0.31178 z m -0.322116,-0.4737 v -0.53571 q -0.148139,0.009 -0.349677,0.0258 -0.199816,0.0172 -0.316949,0.0499 -0.139526,0.0396 -0.225654,0.12402 -0.08613,0.0827 -0.08613,0.2291 0,0.16537 0.09991,0.24977 0.09991,0.0827 0.30489,0.0827 0.170533,0 0.311782,-0.0654 0.141249,-0.0672 0.261827,-0.1602 z"
         style="font-size:3.52777767px;fill:#808080;stroke-width:0.14703639"
         id="path3810" />
    </g>
  </g>
</svg>
