<?xml version="1.0" encoding="utf-8"?>
<!-- Generator: Adobe Illustrator 16.0.0, SVG Export Plug-In . SVG Version: 6.00 Build 0)  -->
<!DOCTYPE svg PUBLIC "-//W3C//DTD SVG 1.1//EN" "http://www.w3.org/Graphics/SVG/1.1/DTD/svg11.dtd">
<svg version="1.1" id="Layer_1" xmlns="http://www.w3.org/2000/svg" xmlns:xlink="http://www.w3.org/1999/xlink" x="0px" y="0px"
	 width="48px" height="48px" viewBox="0 0 48 48" enable-background="new 0 0 48 48" xml:space="preserve">
<g>
	<g enable-background="new    ">
		<path fill="#707070" d="M5.896,10.756h0.859v1.272h0.807v0.626H6.755v2.978c0,0.159,0.06,0.266,0.18,0.318
			c0.066,0.031,0.176,0.048,0.33,0.048c0.041,0,0.085-0.001,0.133-0.003s0.102-0.008,0.165-0.015v0.609
			c-0.098,0.024-0.198,0.044-0.304,0.055c-0.105,0.012-0.22,0.018-0.343,0.018c-0.396,0-0.665-0.092-0.807-0.274
			c-0.141-0.183-0.213-0.421-0.213-0.713v-3.02H5.212v-0.626h0.684V10.756z"/>
		<path fill="#707070" d="M12.072,12.483c0.447,0.393,0.671,0.967,0.671,1.729c0,0.733-0.197,1.341-0.591,1.82
			c-0.394,0.48-1.004,0.72-1.832,0.72c-0.69,0-1.238-0.212-1.645-0.637c-0.406-0.424-0.609-0.993-0.609-1.708
			c0-0.766,0.215-1.376,0.643-1.829c0.427-0.454,1.002-0.682,1.725-0.682C11.08,11.896,11.626,12.093,12.072,12.483z M11.545,15.515
			c0.208-0.384,0.312-0.812,0.312-1.283c0-0.425-0.075-0.771-0.225-1.038c-0.235-0.419-0.644-0.629-1.222-0.629
			c-0.514,0-0.887,0.18-1.12,0.536c-0.233,0.357-0.35,0.788-0.35,1.292c0,0.485,0.116,0.889,0.35,1.212s0.604,0.485,1.11,0.485
			C10.956,16.091,11.339,15.898,11.545,15.515z"/>
	</g>
	<g enable-background="new    ">
		<path fill="none" stroke="#707070" stroke-width="0.25" stroke-miterlimit="10" d="M5.896,10.756h0.859v1.272h0.807v0.626H6.755
			v2.978c0,0.159,0.06,0.266,0.18,0.318c0.066,0.031,0.176,0.048,0.33,0.048c0.041,0,0.085-0.001,0.133-0.003
			s0.102-0.008,0.165-0.015v0.609c-0.098,0.024-0.198,0.044-0.304,0.055c-0.105,0.012-0.22,0.018-0.343,0.018
			c-0.396,0-0.665-0.092-0.807-0.274c-0.141-0.183-0.213-0.421-0.213-0.713v-3.02H5.212v-0.626h0.684V10.756z"/>
		<path fill="none" stroke="#707070" stroke-width="0.25" stroke-miterlimit="10" d="M12.072,12.483
			c0.447,0.393,0.671,0.967,0.671,1.729c0,0.733-0.197,1.341-0.591,1.82c-0.394,0.48-1.004,0.72-1.832,0.72
			c-0.69,0-1.238-0.212-1.645-0.637c-0.406-0.424-0.609-0.993-0.609-1.708c0-0.766,0.215-1.376,0.643-1.829
			c0.427-0.454,1.002-0.682,1.725-0.682C11.08,11.896,11.626,12.093,12.072,12.483z M11.545,15.515
			c0.208-0.384,0.312-0.812,0.312-1.283c0-0.425-0.075-0.771-0.225-1.038c-0.235-0.419-0.644-0.629-1.222-0.629
			c-0.514,0-0.887,0.18-1.12,0.536c-0.233,0.357-0.35,0.788-0.35,1.292c0,0.485,0.116,0.889,0.35,1.212s0.604,0.485,1.11,0.485
			C10.956,16.091,11.339,15.898,11.545,15.515z"/>
	</g>
	<g enable-background="new    ">
		<path fill="#333333" d="M20.867,12.506c0.385,0.439,0.576,1.008,0.576,1.703c0,0.721-0.189,1.318-0.569,1.793
			c-0.379,0.474-0.908,0.711-1.588,0.711c-0.427,0-0.77-0.077-1.029-0.23c-0.155-0.091-0.323-0.25-0.503-0.477v0.583h-1.325V10.32
			h1.345v2.231c0.171-0.216,0.359-0.38,0.565-0.494c0.243-0.142,0.554-0.213,0.931-0.213C19.949,11.846,20.482,12.065,20.867,12.506
			z M19.743,15.333c0.193-0.252,0.29-0.584,0.29-0.996c0-0.33-0.048-0.603-0.143-0.818c-0.181-0.409-0.514-0.613-1-0.613
			c-0.491,0-0.828,0.2-1.014,0.601c-0.095,0.213-0.142,0.488-0.142,0.826c0,0.396,0.098,0.727,0.295,0.987
			c0.196,0.262,0.496,0.393,0.899,0.393C19.278,15.713,19.55,15.586,19.743,15.333z"/>
		<path fill="#333333" d="M25.729,12.042c0.358,0.145,0.654,0.374,0.888,0.687c0.212,0.276,0.348,0.596,0.41,0.959
			c0.037,0.213,0.052,0.521,0.046,0.921h-3.747c0.021,0.465,0.201,0.792,0.538,0.979c0.206,0.116,0.452,0.174,0.741,0.174
			c0.307,0,0.557-0.071,0.748-0.213c0.104-0.077,0.196-0.184,0.275-0.319h1.373c-0.035,0.275-0.202,0.556-0.497,0.839
			c-0.462,0.451-1.107,0.678-1.937,0.678c-0.684,0-1.288-0.19-1.811-0.571c-0.523-0.381-0.785-1-0.785-1.858
			c0-0.804,0.236-1.421,0.708-1.85c0.474-0.429,1.086-0.645,1.84-0.645C24.967,11.824,25.37,11.896,25.729,12.042z M23.718,13.09
			c-0.189,0.177-0.309,0.416-0.358,0.718h2.317c-0.025-0.322-0.145-0.566-0.358-0.733c-0.216-0.167-0.481-0.25-0.799-0.25
			C24.175,12.824,23.907,12.914,23.718,13.09z"/>
	</g>
	<g enable-background="new    ">
		<path fill="none" stroke="#333333" stroke-width="0.25" stroke-miterlimit="10" d="M20.867,12.506
			c0.385,0.439,0.576,1.008,0.576,1.703c0,0.721-0.189,1.318-0.569,1.793c-0.379,0.474-0.908,0.711-1.588,0.711
			c-0.427,0-0.77-0.077-1.029-0.23c-0.155-0.091-0.323-0.25-0.503-0.477v0.583h-1.325V10.32h1.345v2.231
			c0.171-0.216,0.359-0.38,0.565-0.494c0.243-0.142,0.554-0.213,0.931-0.213C19.949,11.846,20.482,12.065,20.867,12.506z
			 M19.743,15.333c0.193-0.252,0.29-0.584,0.29-0.996c0-0.33-0.048-0.603-0.143-0.818c-0.181-0.409-0.514-0.613-1-0.613
			c-0.491,0-0.828,0.2-1.014,0.601c-0.095,0.213-0.142,0.488-0.142,0.826c0,0.396,0.098,0.727,0.295,0.987
			c0.196,0.262,0.496,0.393,0.899,0.393C19.278,15.713,19.55,15.586,19.743,15.333z"/>
		<path fill="none" stroke="#333333" stroke-width="0.25" stroke-miterlimit="10" d="M25.729,12.042
			c0.358,0.145,0.654,0.374,0.888,0.687c0.212,0.276,0.348,0.596,0.41,0.959c0.037,0.213,0.052,0.521,0.046,0.921h-3.747
			c0.021,0.465,0.201,0.792,0.538,0.979c0.206,0.116,0.452,0.174,0.741,0.174c0.307,0,0.557-0.071,0.748-0.213
			c0.104-0.077,0.196-0.184,0.275-0.319h1.373c-0.035,0.275-0.202,0.556-0.497,0.839c-0.462,0.451-1.107,0.678-1.937,0.678
			c-0.684,0-1.288-0.19-1.811-0.571c-0.523-0.381-0.785-1-0.785-1.858c0-0.804,0.236-1.421,0.708-1.85
			c0.474-0.429,1.086-0.645,1.84-0.645C24.967,11.824,25.37,11.896,25.729,12.042z M23.718,13.09
			c-0.189,0.177-0.309,0.416-0.358,0.718h2.317c-0.025-0.322-0.145-0.566-0.358-0.733c-0.216-0.167-0.481-0.25-0.799-0.25
			C24.175,12.824,23.907,12.914,23.718,13.09z"/>
	</g>
	<g enable-background="new    ">
		<path fill="#707070" d="M33.141,13.83c0.194-0.023,0.325-0.098,0.391-0.222c0.039-0.067,0.058-0.167,0.058-0.295
			c0-0.262-0.103-0.453-0.309-0.57c-0.206-0.118-0.499-0.178-0.883-0.178c-0.442,0-0.757,0.108-0.942,0.325
			c-0.104,0.12-0.171,0.298-0.202,0.535h-0.792c0.015-0.564,0.216-0.956,0.604-1.177c0.389-0.222,0.838-0.331,1.351-0.331
			c0.594,0,1.077,0.103,1.446,0.307c0.369,0.205,0.552,0.522,0.552,0.954v2.627c0,0.08,0.019,0.143,0.056,0.191
			c0.036,0.048,0.112,0.071,0.228,0.071c0.038,0,0.081-0.002,0.128-0.006s0.098-0.011,0.152-0.019v0.565
			c-0.134,0.034-0.233,0.056-0.303,0.063c-0.068,0.009-0.164,0.013-0.283,0.013c-0.294,0-0.504-0.094-0.638-0.281
			c-0.068-0.099-0.117-0.239-0.146-0.421c-0.174,0.205-0.421,0.382-0.746,0.532s-0.682,0.226-1.071,0.226
			c-0.469,0-0.851-0.128-1.148-0.385s-0.446-0.578-0.446-0.963c0-0.422,0.145-0.75,0.438-0.981c0.293-0.232,0.677-0.375,1.151-0.431
			L33.141,13.83z M31.352,15.899c0.18,0.127,0.392,0.191,0.638,0.191c0.298,0,0.589-0.062,0.869-0.188
			c0.472-0.207,0.707-0.546,0.707-1.016v-0.617c-0.103,0.061-0.237,0.11-0.401,0.149c-0.162,0.04-0.321,0.067-0.479,0.085
			l-0.513,0.06c-0.309,0.037-0.539,0.096-0.695,0.174c-0.262,0.134-0.393,0.347-0.393,0.638
			C31.084,15.598,31.173,15.772,31.352,15.899z"/>
	</g>
	<g enable-background="new    ">
		<path fill="none" stroke="#707070" stroke-width="0.25" stroke-miterlimit="10" d="M33.141,13.83
			c0.194-0.023,0.325-0.098,0.391-0.222c0.039-0.067,0.058-0.167,0.058-0.295c0-0.262-0.103-0.453-0.309-0.57
			c-0.206-0.118-0.499-0.178-0.883-0.178c-0.442,0-0.757,0.108-0.942,0.325c-0.104,0.12-0.171,0.298-0.202,0.535h-0.792
			c0.015-0.564,0.216-0.956,0.604-1.177c0.389-0.222,0.838-0.331,1.351-0.331c0.594,0,1.077,0.103,1.446,0.307
			c0.369,0.205,0.552,0.522,0.552,0.954v2.627c0,0.08,0.019,0.143,0.056,0.191c0.036,0.048,0.112,0.071,0.228,0.071
			c0.038,0,0.081-0.002,0.128-0.006s0.098-0.011,0.152-0.019v0.565c-0.134,0.034-0.233,0.056-0.303,0.063
			c-0.068,0.009-0.164,0.013-0.283,0.013c-0.294,0-0.504-0.094-0.638-0.281c-0.068-0.099-0.117-0.239-0.146-0.421
			c-0.174,0.205-0.421,0.382-0.746,0.532s-0.682,0.226-1.071,0.226c-0.469,0-0.851-0.128-1.148-0.385s-0.446-0.578-0.446-0.963
			c0-0.422,0.145-0.75,0.438-0.981c0.293-0.232,0.677-0.375,1.151-0.431L33.141,13.83z M31.352,15.899
			c0.18,0.127,0.392,0.191,0.638,0.191c0.298,0,0.589-0.062,0.869-0.188c0.472-0.207,0.707-0.546,0.707-1.016v-0.617
			c-0.103,0.061-0.237,0.11-0.401,0.149c-0.162,0.04-0.321,0.067-0.479,0.085l-0.513,0.06c-0.309,0.037-0.539,0.096-0.695,0.174
			c-0.262,0.134-0.393,0.347-0.393,0.638C31.084,15.598,31.173,15.772,31.352,15.899z"/>
	</g>
	<g enable-background="new    ">
		<path fill="#707070" d="M5.896,21.221h0.859v1.273h0.807v0.626H6.755v2.976c0,0.16,0.06,0.266,0.18,0.32
			c0.066,0.031,0.176,0.047,0.33,0.047c0.041,0,0.085-0.002,0.133-0.004s0.102-0.006,0.165-0.014v0.608
			c-0.098,0.025-0.198,0.043-0.304,0.056c-0.105,0.012-0.22,0.018-0.343,0.018c-0.396,0-0.665-0.092-0.807-0.275
			c-0.141-0.183-0.213-0.42-0.213-0.713V23.12H5.212v-0.626h0.684V21.221z"/>
		<path fill="#707070" d="M12.072,22.948c0.447,0.393,0.671,0.968,0.671,1.729c0,0.734-0.197,1.341-0.591,1.821
			s-1.004,0.719-1.832,0.719c-0.69,0-1.238-0.212-1.645-0.636c-0.406-0.425-0.609-0.994-0.609-1.708c0-0.767,0.215-1.376,0.643-1.83
			c0.427-0.454,1.002-0.682,1.725-0.682C11.08,22.361,11.626,22.558,12.072,22.948z M11.545,25.98
			c0.208-0.385,0.312-0.812,0.312-1.283c0-0.425-0.075-0.771-0.225-1.037c-0.235-0.42-0.644-0.63-1.222-0.63
			c-0.514,0-0.887,0.18-1.12,0.536c-0.233,0.357-0.35,0.788-0.35,1.293c0,0.484,0.116,0.89,0.35,1.213
			c0.233,0.322,0.604,0.484,1.11,0.484C10.956,26.557,11.339,26.363,11.545,25.98z"/>
	</g>
	<g enable-background="new    ">
		<path fill="none" stroke="#707070" stroke-width="0.25" stroke-miterlimit="10" d="M5.896,21.221h0.859v1.273h0.807v0.626H6.755
			v2.976c0,0.16,0.06,0.266,0.18,0.32c0.066,0.031,0.176,0.047,0.33,0.047c0.041,0,0.085-0.002,0.133-0.004s0.102-0.006,0.165-0.014
			v0.608c-0.098,0.025-0.198,0.043-0.304,0.056c-0.105,0.012-0.22,0.018-0.343,0.018c-0.396,0-0.665-0.092-0.807-0.275
			c-0.141-0.183-0.213-0.42-0.213-0.713V23.12H5.212v-0.626h0.684V21.221z"/>
		<path fill="none" stroke="#707070" stroke-width="0.25" stroke-miterlimit="10" d="M12.072,22.948
			c0.447,0.393,0.671,0.968,0.671,1.729c0,0.734-0.197,1.341-0.591,1.821s-1.004,0.719-1.832,0.719c-0.69,0-1.238-0.212-1.645-0.636
			c-0.406-0.425-0.609-0.994-0.609-1.708c0-0.767,0.215-1.376,0.643-1.83c0.427-0.454,1.002-0.682,1.725-0.682
			C11.08,22.361,11.626,22.558,12.072,22.948z M11.545,25.98c0.208-0.385,0.312-0.812,0.312-1.283c0-0.425-0.075-0.771-0.225-1.037
			c-0.235-0.42-0.644-0.63-1.222-0.63c-0.514,0-0.887,0.18-1.12,0.536c-0.233,0.357-0.35,0.788-0.35,1.293
			c0,0.484,0.116,0.89,0.35,1.213c0.233,0.322,0.604,0.484,1.11,0.484C10.956,26.557,11.339,26.363,11.545,25.98z"/>
	</g>
	<g enable-background="new    ">
		<path fill="#333333" d="M20.867,22.971c0.385,0.44,0.576,1.008,0.576,1.703c0,0.721-0.189,1.318-0.569,1.793
			c-0.379,0.475-0.908,0.711-1.588,0.711c-0.427,0-0.77-0.076-1.029-0.23c-0.155-0.09-0.323-0.25-0.503-0.477v0.584h-1.325v-6.269
			h1.345v2.23c0.171-0.216,0.359-0.38,0.565-0.494c0.243-0.142,0.554-0.213,0.931-0.213C19.949,22.311,20.482,22.53,20.867,22.971z
			 M19.743,25.798c0.193-0.253,0.29-0.585,0.29-0.996c0-0.33-0.048-0.603-0.143-0.818c-0.181-0.409-0.514-0.612-1-0.612
			c-0.491,0-0.828,0.199-1.014,0.6c-0.095,0.213-0.142,0.488-0.142,0.826c0,0.398,0.098,0.727,0.295,0.988
			c0.196,0.262,0.496,0.393,0.899,0.393C19.278,26.178,19.55,26.051,19.743,25.798z"/>
		<path fill="#333333" d="M25.729,22.507c0.358,0.145,0.654,0.374,0.888,0.687c0.212,0.276,0.348,0.597,0.41,0.959
			c0.037,0.213,0.052,0.521,0.046,0.922h-3.747c0.021,0.465,0.201,0.791,0.538,0.979c0.206,0.116,0.452,0.176,0.741,0.176
			c0.307,0,0.557-0.072,0.748-0.214c0.104-0.077,0.196-0.184,0.275-0.319h1.373c-0.035,0.274-0.202,0.556-0.497,0.84
			c-0.462,0.451-1.107,0.677-1.937,0.677c-0.684,0-1.288-0.19-1.811-0.571c-0.523-0.381-0.785-1-0.785-1.858
			c0-0.804,0.236-1.421,0.708-1.85c0.474-0.429,1.086-0.644,1.84-0.644C24.967,22.29,25.37,22.361,25.729,22.507z M23.718,23.555
			c-0.189,0.177-0.309,0.416-0.358,0.718h2.317c-0.025-0.322-0.145-0.565-0.358-0.732c-0.216-0.167-0.481-0.25-0.799-0.25
			C24.175,23.29,23.907,23.379,23.718,23.555z"/>
	</g>
	<g enable-background="new    ">
		<path fill="none" stroke="#333333" stroke-width="0.25" stroke-miterlimit="10" d="M20.867,22.971
			c0.385,0.44,0.576,1.008,0.576,1.703c0,0.721-0.189,1.318-0.569,1.793c-0.379,0.475-0.908,0.711-1.588,0.711
			c-0.427,0-0.77-0.076-1.029-0.23c-0.155-0.09-0.323-0.25-0.503-0.477v0.584h-1.325v-6.269h1.345v2.23
			c0.171-0.216,0.359-0.38,0.565-0.494c0.243-0.142,0.554-0.213,0.931-0.213C19.949,22.311,20.482,22.53,20.867,22.971z
			 M19.743,25.798c0.193-0.253,0.29-0.585,0.29-0.996c0-0.33-0.048-0.603-0.143-0.818c-0.181-0.409-0.514-0.612-1-0.612
			c-0.491,0-0.828,0.199-1.014,0.6c-0.095,0.213-0.142,0.488-0.142,0.826c0,0.398,0.098,0.727,0.295,0.988
			c0.196,0.262,0.496,0.393,0.899,0.393C19.278,26.178,19.55,26.051,19.743,25.798z"/>
		<path fill="none" stroke="#333333" stroke-width="0.25" stroke-miterlimit="10" d="M25.729,22.507
			c0.358,0.145,0.654,0.374,0.888,0.687c0.212,0.276,0.348,0.597,0.41,0.959c0.037,0.213,0.052,0.521,0.046,0.922h-3.747
			c0.021,0.465,0.201,0.791,0.538,0.979c0.206,0.116,0.452,0.176,0.741,0.176c0.307,0,0.557-0.072,0.748-0.214
			c0.104-0.077,0.196-0.184,0.275-0.319h1.373c-0.035,0.274-0.202,0.556-0.497,0.84c-0.462,0.451-1.107,0.677-1.937,0.677
			c-0.684,0-1.288-0.19-1.811-0.571c-0.523-0.381-0.785-1-0.785-1.858c0-0.804,0.236-1.421,0.708-1.85
			c0.474-0.429,1.086-0.644,1.84-0.644C24.967,22.29,25.37,22.361,25.729,22.507z M23.718,23.555
			c-0.189,0.177-0.309,0.416-0.358,0.718h2.317c-0.025-0.322-0.145-0.565-0.358-0.732c-0.216-0.167-0.481-0.25-0.799-0.25
			C24.175,23.29,23.907,23.379,23.718,23.555z"/>
	</g>
	<g enable-background="new    ">
		<path fill="#707070" d="M30.603,21.221h0.857v1.273h0.808v0.626H31.46v2.976c0,0.16,0.06,0.266,0.181,0.32
			c0.064,0.031,0.176,0.047,0.329,0.047c0.041,0,0.086-0.002,0.132-0.004c0.048-0.002,0.104-0.006,0.166-0.014v0.608
			c-0.098,0.025-0.199,0.043-0.304,0.056c-0.104,0.012-0.219,0.018-0.342,0.018c-0.396,0-0.665-0.092-0.807-0.275
			c-0.142-0.183-0.212-0.42-0.212-0.713V23.12h-0.686v-0.626h0.686L30.603,21.221L30.603,21.221z"/>
		<path fill="#707070" d="M33.116,20.777h0.85v2.333c0.202-0.229,0.382-0.392,0.543-0.485c0.273-0.162,0.614-0.243,1.024-0.243
			c0.731,0,1.229,0.23,1.49,0.693c0.142,0.253,0.213,0.604,0.213,1.053v2.926h-0.873v-2.875c0-0.335-0.047-0.581-0.141-0.737
			c-0.154-0.25-0.445-0.375-0.87-0.375c-0.353,0-0.67,0.109-0.957,0.328s-0.43,0.632-0.43,1.239v2.419h-0.85V20.777z"/>
		<path fill="#707070" d="M41.612,22.619c0.335,0.151,0.59,0.349,0.765,0.59c0.169,0.229,0.281,0.499,0.337,0.805
			c0.051,0.21,0.074,0.545,0.074,1.006h-3.675c0.017,0.463,0.136,0.836,0.36,1.115c0.226,0.281,0.572,0.422,1.044,0.422
			c0.44,0,0.792-0.133,1.054-0.398c0.146-0.153,0.251-0.331,0.311-0.534h0.837c-0.021,0.168-0.096,0.354-0.22,0.562
			c-0.123,0.204-0.264,0.373-0.416,0.504c-0.255,0.228-0.571,0.381-0.95,0.461c-0.204,0.045-0.433,0.066-0.688,0.066
			c-0.625,0-1.154-0.206-1.588-0.619c-0.435-0.412-0.652-0.99-0.652-1.734c0-0.732,0.218-1.327,0.656-1.784
			c0.438-0.457,1.01-0.687,1.716-0.687C40.933,22.392,41.278,22.467,41.612,22.619z M41.916,24.41
			c-0.034-0.332-0.114-0.598-0.238-0.797c-0.23-0.368-0.616-0.554-1.155-0.554c-0.388,0-0.712,0.127-0.974,0.381
			s-0.401,0.577-0.416,0.97H41.916z"/>
	</g>
	<g enable-background="new    ">
		<path fill="none" stroke="#707070" stroke-width="0.25" stroke-miterlimit="10" d="M30.603,21.221h0.857v1.273h0.808v0.626H31.46
			v2.976c0,0.16,0.06,0.266,0.181,0.32c0.064,0.031,0.176,0.047,0.329,0.047c0.041,0,0.086-0.002,0.132-0.004
			c0.048-0.002,0.104-0.006,0.166-0.014v0.608c-0.098,0.025-0.199,0.043-0.304,0.056c-0.104,0.012-0.219,0.018-0.342,0.018
			c-0.396,0-0.665-0.092-0.807-0.275c-0.142-0.183-0.212-0.42-0.212-0.713V23.12h-0.686v-0.626h0.686L30.603,21.221L30.603,21.221z"
			/>
		<path fill="none" stroke="#707070" stroke-width="0.25" stroke-miterlimit="10" d="M33.116,20.777h0.85v2.333
			c0.202-0.229,0.382-0.392,0.543-0.485c0.273-0.162,0.614-0.243,1.024-0.243c0.731,0,1.229,0.23,1.49,0.693
			c0.142,0.253,0.213,0.604,0.213,1.053v2.926h-0.873v-2.875c0-0.335-0.047-0.581-0.141-0.737c-0.154-0.25-0.445-0.375-0.87-0.375
			c-0.353,0-0.67,0.109-0.957,0.328s-0.43,0.632-0.43,1.239v2.419h-0.85V20.777z"/>
		<path fill="none" stroke="#707070" stroke-width="0.25" stroke-miterlimit="10" d="M41.612,22.619
			c0.335,0.151,0.59,0.349,0.765,0.59c0.169,0.229,0.281,0.499,0.337,0.805c0.051,0.21,0.074,0.545,0.074,1.006h-3.675
			c0.017,0.463,0.136,0.836,0.36,1.115c0.226,0.281,0.572,0.422,1.044,0.422c0.44,0,0.792-0.133,1.054-0.398
			c0.146-0.153,0.251-0.331,0.311-0.534h0.837c-0.021,0.168-0.096,0.354-0.22,0.562c-0.123,0.204-0.264,0.373-0.416,0.504
			c-0.255,0.228-0.571,0.381-0.95,0.461c-0.204,0.045-0.433,0.066-0.688,0.066c-0.625,0-1.154-0.206-1.588-0.619
			c-0.435-0.412-0.652-0.99-0.652-1.734c0-0.732,0.218-1.327,0.656-1.784c0.438-0.457,1.01-0.687,1.716-0.687
			C40.933,22.392,41.278,22.467,41.612,22.619z M41.916,24.41c-0.034-0.332-0.114-0.598-0.238-0.797
			c-0.23-0.368-0.616-0.554-1.155-0.554c-0.388,0-0.712,0.127-0.974,0.381s-0.401,0.577-0.416,0.97H41.916z"/>
	</g>
	<g enable-background="new    ">
		<path fill="#707070" d="M5.896,31.686h0.859v1.271h0.807v0.626H6.755v2.978c0,0.158,0.06,0.266,0.18,0.318
			c0.066,0.031,0.176,0.047,0.33,0.047c0.041,0,0.085-0.001,0.133-0.003s0.102-0.007,0.165-0.015v0.609
			c-0.098,0.024-0.198,0.043-0.304,0.055c-0.105,0.013-0.22,0.018-0.343,0.018c-0.396,0-0.665-0.091-0.807-0.273
			c-0.141-0.184-0.213-0.422-0.213-0.713v-3.021H5.212v-0.626h0.684V31.686z"/>
		<path fill="#707070" d="M12.072,33.412c0.447,0.392,0.671,0.968,0.671,1.728c0,0.734-0.197,1.343-0.591,1.821
			s-1.004,0.719-1.832,0.719c-0.69,0-1.238-0.212-1.645-0.636c-0.406-0.425-0.609-0.994-0.609-1.708c0-0.768,0.215-1.376,0.643-1.83
			c0.428-0.453,1.002-0.682,1.725-0.682C11.08,32.824,11.626,33.021,12.072,33.412z M11.545,36.443
			c0.208-0.385,0.312-0.812,0.312-1.282c0-0.427-0.075-0.771-0.225-1.038c-0.235-0.419-0.644-0.629-1.222-0.629
			c-0.514,0-0.887,0.179-1.12,0.535s-0.35,0.789-0.35,1.293c0,0.484,0.116,0.89,0.35,1.213c0.233,0.322,0.604,0.484,1.11,0.484
			C10.956,37.02,11.339,36.827,11.545,36.443z"/>
	</g>
	<g enable-background="new    ">
		<path fill="none" stroke="#707070" stroke-width="0.25" stroke-miterlimit="10" d="M5.896,31.686h0.859v1.271h0.807v0.626H6.755
			v2.978c0,0.158,0.06,0.266,0.18,0.318c0.066,0.031,0.176,0.047,0.33,0.047c0.041,0,0.085-0.001,0.133-0.003
			s0.102-0.007,0.165-0.015v0.609c-0.098,0.024-0.198,0.043-0.304,0.055c-0.105,0.013-0.22,0.018-0.343,0.018
			c-0.396,0-0.665-0.091-0.807-0.273c-0.141-0.184-0.213-0.422-0.213-0.713v-3.021H5.212v-0.626h0.684V31.686z"/>
		<path fill="none" stroke="#707070" stroke-width="0.25" stroke-miterlimit="10" d="M12.072,33.412
			c0.447,0.392,0.671,0.968,0.671,1.728c0,0.734-0.197,1.343-0.591,1.821s-1.004,0.719-1.832,0.719c-0.69,0-1.238-0.212-1.645-0.636
			c-0.406-0.425-0.609-0.994-0.609-1.708c0-0.768,0.215-1.376,0.643-1.83c0.428-0.453,1.002-0.682,1.725-0.682
			C11.08,32.824,11.626,33.021,12.072,33.412z M11.545,36.443c0.208-0.385,0.312-0.812,0.312-1.282c0-0.427-0.075-0.771-0.225-1.038
			c-0.235-0.419-0.644-0.629-1.222-0.629c-0.514,0-0.887,0.179-1.12,0.535s-0.35,0.789-0.35,1.293c0,0.484,0.116,0.89,0.35,1.213
			c0.233,0.322,0.604,0.484,1.11,0.484C10.956,37.02,11.339,36.827,11.545,36.443z"/>
	</g>
	<g enable-background="new    ">
		<path fill="#333333" d="M20.867,33.436c0.385,0.438,0.576,1.008,0.576,1.702c0,0.722-0.189,1.318-0.569,1.793
			c-0.379,0.474-0.908,0.712-1.588,0.712c-0.427,0-0.77-0.078-1.029-0.23c-0.155-0.092-0.323-0.25-0.503-0.477v0.582h-1.325V31.25
			h1.345v2.23c0.171-0.216,0.359-0.381,0.565-0.494c0.243-0.142,0.554-0.213,0.931-0.213C19.949,32.775,20.482,32.994,20.867,33.436
			z M19.743,36.262c0.193-0.253,0.29-0.585,0.29-0.996c0-0.33-0.048-0.603-0.143-0.818c-0.181-0.407-0.514-0.611-1-0.611
			c-0.491,0-0.828,0.199-1.014,0.6c-0.095,0.213-0.142,0.488-0.142,0.826c0,0.396,0.098,0.727,0.295,0.988
			c0.196,0.261,0.496,0.393,0.899,0.393C19.278,36.641,19.55,36.515,19.743,36.262z"/>
		<path fill="#333333" d="M25.729,32.971c0.358,0.145,0.654,0.374,0.888,0.688c0.212,0.274,0.348,0.596,0.41,0.959
			c0.037,0.214,0.052,0.521,0.046,0.922h-3.747c0.021,0.465,0.201,0.792,0.538,0.979c0.206,0.116,0.452,0.174,0.741,0.174
			c0.307,0,0.557-0.069,0.748-0.213c0.104-0.076,0.196-0.183,0.275-0.318h1.373c-0.035,0.275-0.202,0.556-0.497,0.839
			c-0.462,0.45-1.107,0.678-1.937,0.678c-0.684,0-1.288-0.19-1.811-0.571c-0.523-0.381-0.785-1-0.785-1.857
			c0-0.805,0.236-1.421,0.708-1.85c0.474-0.43,1.086-0.645,1.84-0.645C24.967,32.753,25.37,32.824,25.729,32.971z M23.718,34.02
			c-0.189,0.176-0.309,0.416-0.358,0.719h2.317c-0.025-0.322-0.145-0.566-0.358-0.733c-0.216-0.167-0.481-0.25-0.799-0.25
			C24.175,33.754,23.907,33.842,23.718,34.02z"/>
	</g>
	<g enable-background="new    ">
		<path fill="none" stroke="#333333" stroke-width="0.25" stroke-miterlimit="10" d="M20.867,33.436
			c0.385,0.438,0.576,1.008,0.576,1.702c0,0.722-0.189,1.318-0.569,1.793c-0.379,0.474-0.908,0.712-1.588,0.712
			c-0.427,0-0.77-0.078-1.029-0.23c-0.155-0.092-0.323-0.25-0.503-0.477v0.582h-1.325V31.25h1.345v2.23
			c0.171-0.216,0.359-0.381,0.565-0.494c0.243-0.142,0.554-0.213,0.931-0.213C19.949,32.775,20.482,32.994,20.867,33.436z
			 M19.743,36.262c0.193-0.253,0.29-0.585,0.29-0.996c0-0.33-0.048-0.603-0.143-0.818c-0.181-0.407-0.514-0.611-1-0.611
			c-0.491,0-0.828,0.199-1.014,0.6c-0.095,0.213-0.142,0.488-0.142,0.826c0,0.396,0.098,0.727,0.295,0.988
			c0.196,0.261,0.496,0.393,0.899,0.393C19.278,36.641,19.55,36.515,19.743,36.262z"/>
		<path fill="none" stroke="#333333" stroke-width="0.25" stroke-miterlimit="10" d="M25.729,32.971
			c0.358,0.145,0.654,0.374,0.888,0.688c0.212,0.274,0.348,0.596,0.41,0.959c0.037,0.214,0.052,0.521,0.046,0.922h-3.747
			c0.021,0.465,0.201,0.792,0.538,0.979c0.206,0.116,0.452,0.174,0.741,0.174c0.307,0,0.557-0.069,0.748-0.213
			c0.104-0.076,0.196-0.183,0.275-0.318h1.373c-0.035,0.275-0.202,0.556-0.497,0.839c-0.462,0.45-1.107,0.678-1.937,0.678
			c-0.684,0-1.288-0.19-1.811-0.571c-0.523-0.381-0.785-1-0.785-1.857c0-0.805,0.236-1.421,0.708-1.85
			c0.474-0.43,1.086-0.645,1.84-0.645C24.967,32.753,25.37,32.824,25.729,32.971z M23.718,34.02
			c-0.189,0.176-0.309,0.416-0.358,0.719h2.317c-0.025-0.322-0.145-0.566-0.358-0.733c-0.216-0.167-0.481-0.25-0.799-0.25
			C24.175,33.754,23.907,33.842,23.718,34.02z"/>
	</g>
	<g enable-background="new    ">
		<path fill="#707070" d="M34.094,33.412c0.447,0.392,0.669,0.968,0.669,1.728c0,0.734-0.196,1.343-0.59,1.821
			s-1.003,0.719-1.832,0.719c-0.689,0-1.238-0.212-1.645-0.636c-0.405-0.425-0.607-0.994-0.607-1.708
			c0-0.768,0.214-1.376,0.642-1.83c0.429-0.453,1.003-0.682,1.725-0.682C33.1,32.824,33.646,33.021,34.094,33.412z M33.566,36.443
			c0.206-0.385,0.31-0.812,0.31-1.282c0-0.427-0.074-0.771-0.223-1.038c-0.237-0.419-0.646-0.629-1.224-0.629
			c-0.514,0-0.887,0.179-1.12,0.535c-0.231,0.356-0.35,0.789-0.35,1.293c0,0.484,0.118,0.89,0.35,1.213
			c0.233,0.322,0.605,0.484,1.112,0.484C32.978,37.02,33.358,36.827,33.566,36.443z"/>
		<path fill="#707070" d="M35.829,32.957h0.807v0.788c0.066-0.153,0.228-0.341,0.487-0.56c0.256-0.222,0.555-0.33,0.892-0.33
			c0.016,0,0.042,0,0.08,0.004c0.037,0.002,0.102,0.008,0.193,0.017v0.81c-0.051-0.009-0.098-0.015-0.14-0.018
			c-0.042-0.002-0.088-0.004-0.139-0.004c-0.428,0-0.757,0.124-0.986,0.373c-0.229,0.248-0.344,0.533-0.344,0.857v2.623h-0.849
			v-4.561H35.829z"/>
	</g>
	<g enable-background="new    ">
		<path fill="none" stroke="#707070" stroke-width="0.25" stroke-miterlimit="10" d="M34.094,33.412
			c0.447,0.392,0.669,0.968,0.669,1.728c0,0.734-0.196,1.343-0.59,1.821s-1.003,0.719-1.832,0.719c-0.689,0-1.238-0.212-1.645-0.636
			c-0.405-0.425-0.607-0.994-0.607-1.708c0-0.768,0.214-1.376,0.642-1.83c0.429-0.453,1.003-0.682,1.725-0.682
			C33.1,32.824,33.646,33.021,34.094,33.412z M33.566,36.443c0.206-0.385,0.31-0.812,0.31-1.282c0-0.427-0.074-0.771-0.223-1.038
			c-0.237-0.419-0.646-0.629-1.224-0.629c-0.514,0-0.887,0.179-1.12,0.535c-0.231,0.356-0.35,0.789-0.35,1.293
			c0,0.484,0.118,0.89,0.35,1.213c0.233,0.322,0.605,0.484,1.112,0.484C32.978,37.02,33.358,36.827,33.566,36.443z"/>
		<path fill="none" stroke="#707070" stroke-width="0.25" stroke-miterlimit="10" d="M35.829,32.957h0.807v0.788
			c0.066-0.153,0.228-0.341,0.487-0.56c0.256-0.222,0.555-0.33,0.892-0.33c0.016,0,0.042,0,0.08,0.004
			c0.037,0.002,0.102,0.008,0.193,0.017v0.81c-0.051-0.009-0.098-0.015-0.14-0.018c-0.042-0.002-0.088-0.004-0.139-0.004
			c-0.428,0-0.757,0.124-0.986,0.373c-0.229,0.248-0.344,0.533-0.344,0.857v2.623h-0.849v-4.561H35.829z"/>
	</g>
</g>
</svg>
