<svg id="Layer_1" data-name="Layer 1" xmlns="http://www.w3.org/2000/svg" viewBox="0 0 48 48"><defs><style>.cls-1,.cls-3{fill:none;stroke:#333;stroke-miterlimit:10;}.cls-1{stroke-width:2px;}.cls-2{fill:#333;}</style></defs><line class="cls-1" x1="24.33" y1="24" x2="15.3" y2="24.01"/><polygon class="cls-2" points="21.17 28.17 22.94 24 21.16 19.83 31.05 23.99 21.17 28.17"/><circle class="cls-2" cx="43.31" cy="20.98" r="2.8"/><circle class="cls-2" cx="35.65" cy="24.79" r="3.45"/><circle class="cls-2" cx="39.6" cy="14.86" r="2.8"/><circle class="cls-2" cx="40.6" cy="33.14" r="2.8"/><polyline class="cls-3" points="41.35 33.89 35.66 24.79 44.58 20.98"/><line class="cls-3" x1="39.6" y1="16.06" x2="35.66" y2="26"/><path class="cls-2" d="M9.25,28.73a4,4,0,0,1-3.68,1.9A3.47,3.47,0,0,1,1.88,27c0-2.75,2.3-4.15,5-4.15a5.77,5.77,0,0,1,2.24.44V22.11c0-1.65-.8-2.42-2.35-2.42a9.48,9.48,0,0,0-4,1.15A2.87,2.87,0,0,1,2.73,20a4,4,0,0,1,.39-1.8,12.53,12.53,0,0,1,4.4-.8c3,0,4.51,1.28,4.51,4.71v4.66a3.3,3.3,0,0,0,.34,1.63,8.72,8.72,0,0,0,1.75-.26,2.19,2.19,0,0,1,0,.33,3.41,3.41,0,0,1-.36,1.45,7.65,7.65,0,0,1-3.19.74,2.89,2.89,0,0,1-1.16-1.91H9.25Zm-.05-4a7.2,7.2,0,0,0-1.62-.21c-1.76,0-2.73.82-2.73,2.06a1.79,1.79,0,0,0,2,1.88A3,3,0,0,0,9.2,27.36Z"/></svg>
