<?xml version="1.0" encoding="utf-8"?>
<!-- Generator: Adobe Illustrator 16.0.4, SVG Export Plug-In . SVG Version: 6.00 Build 0)  -->
<!DOCTYPE svg PUBLIC "-//W3C//DTD SVG 1.1//EN" "http://www.w3.org/Graphics/SVG/1.1/DTD/svg11.dtd">
<svg version="1.1" id="Layer_1" xmlns="http://www.w3.org/2000/svg" xmlns:xlink="http://www.w3.org/1999/xlink" x="0px" y="0px"
	 width="48px" height="48px" viewBox="0 0 48 48" enable-background="new 0 0 48 48" xml:space="preserve">
<g>
	<path fill="#FFFFFF" d="M25,8H13v32h22V17c0-4.123-8-1-8-1C28,12,27,8,25,8z"/>
	<path fill="#333333" d="M28,6H13h-2v2v32v2h2h22h2v-2V16v-2L28,6z M35,40H13V8h12c2,0,3,4,2,8c0,0,8-3.123,8,1V40z"/>
</g>
<g>
	<path fill-rule="evenodd" clip-rule="evenodd" fill="#333333" d="M39.062,46.692c-0.794,0.328-1.604,0.414-2.436,0.158
		c-0.534-0.166-1-0.445-1.395-0.84c-2.538-2.535-5.076-5.07-7.607-7.613c-0.161-0.162-0.288-0.191-0.501-0.131
		c-4.938,1.441-10.125-1.326-11.678-6.221c-1.717-5.411,1.696-11.134,7.259-12.183c5.17-0.975,10.164,2.442,11.097,7.61
		c0.391,2.17,0.058,4.241-0.977,6.193c-0.053,0.101-0.176,0.197-0.069,0.336c0.031,0.043,0.036,0.078-0.007,0.109
		c-0.039,0.031-0.082,0.021-0.109-0.018c-0.032-0.043-0.055-0.1-0.093-0.168c0.027,0.096,0.105,0.156-0.028,0.236
		c-0.168,0.094-0.199,0.316-0.31,0.469c-0.223,0.318-0.473,0.613-0.726,0.902c-0.396,0.447-0.823,0.873-1.313,1.211
		c-0.381,0.262-0.761,0.523-1.163,0.752c0.398-0.182,0.774-0.416,1.111-0.684c0.412-0.326,0.831-0.654,1.189-1.049
		c0.386-0.422,0.773-0.842,1.049-1.344c0.12-0.225,0.298-0.27,0.503-0.314c0.758,0.752,1.521,1.502,2.276,2.256
		c1.619,1.619,3.241,3.234,4.856,4.857c1.145,1.15,1.33,2.863,0.476,4.223c-0.269,0.426-0.639,0.752-1.039,1.051
		C39.317,46.575,39.21,46.671,39.062,46.692z"/>
	<path fill-rule="evenodd" clip-rule="evenodd" fill="#333333" d="M32.859,34.106c-0.03,0.064-0.225-0.01-0.142,0.156
		c0.002,0.006-0.021,0.033-0.021,0.031c-0.333-0.191-0.291,0.191-0.351,0.285c-0.298,0.451-0.651,0.852-1.021,1.248
		c-0.446,0.475-0.941,0.887-1.481,1.244c-0.241,0.162-0.469,0.35-0.744,0.459c-0.083,0.031-0.16,0.105-0.266,0.029
		c0.057-0.131,0.191-0.145,0.295-0.205c0.9-0.537,1.74-1.158,2.406-1.967c0.305-0.371,0.694-0.703,0.831-1.197
		c0.004-0.008,0.007-0.021,0.012-0.021c0.16-0.059,0.174-0.184,0.129-0.341c0.127,0.048,0.092,0.157,0.145,0.218
		c0.08,0.09,0.09,0.021,0.105-0.043C32.804,34.022,32.844,34.052,32.859,34.106z"/>
	<path fill-rule="evenodd" clip-rule="evenodd" fill="#F5F6F5" d="M39.062,46.692c0.123-0.066,0.244-0.133,0.366-0.199
		C39.335,46.608,39.252,46.751,39.062,46.692z"/>
	<path fill-rule="evenodd" clip-rule="evenodd" fill="#FEFEFE" d="M31.779,29.177c-0.016,4.07-3.294,7.316-7.375,7.297
		c-3.983-0.018-7.242-3.324-7.221-7.322c0.02-4.057,3.301-7.297,7.371-7.274C28.529,21.899,31.794,25.198,31.779,29.177z"/>
	<path fill-rule="evenodd" clip-rule="evenodd" fill="#F1F1F1" d="M37.064,40.618c-0.002,0.492-0.31,0.756-0.716,0.701
		c-0.251-0.033-0.461-0.148-0.639-0.326c-1.031-1.029-2.062-2.061-3.091-3.094c-0.177-0.176-0.301-0.379-0.341-0.631
		c-0.064-0.439,0.23-0.764,0.674-0.734c0.284,0.021,0.508,0.16,0.705,0.357c1.012,1.014,2.022,2.025,3.033,3.035
		C36.907,40.144,37.061,40.386,37.064,40.618z"/>
	<path fill-rule="evenodd" clip-rule="evenodd" fill="#333333" d="M28.378,37.839c-0.267,0.148-0.528,0.311-0.851,0.236
		C27.827,38.062,28.063,37.794,28.378,37.839z"/>
	<path fill-rule="evenodd" clip-rule="evenodd" fill="#333333" d="M24.52,35.497c-1.509-0.033-2.943-0.633-4.223-1.643
		c-0.34-0.268-0.377-0.68-0.118-0.977c0.252-0.286,0.63-0.281,0.969-0.016c1.357,1.068,2.86,1.592,4.597,1.189
		c0.905-0.209,1.675-0.685,2.374-1.289c0.068-0.059,0.136-0.125,0.209-0.18c0.287-0.215,0.655-0.182,0.89,0.077
		c0.225,0.251,0.225,0.659-0.03,0.896C27.909,34.739,26.445,35.495,24.52,35.497z"/>
</g>
</svg>
