<?xml version="1.0" encoding="UTF-8" standalone="no"?>
<!DOCTYPE svg PUBLIC "-//W3C//DTD SVG 1.1//EN" "http://www.w3.org/Graphics/SVG/1.1/DTD/svg11.dtd">
<svg version="1.1" xmlns="http://www.w3.org/2000/svg" xmlns:xlink="http://www.w3.org/1999/xlink" preserveAspectRatio="xMidYMid meet" viewBox="201.99886125211503 203.21711261476128 100.69661082910312 76.29888509125834" width="96.7" height="72.3"><defs><path d="M238.1 206.93C238.1 214.39 238.1 221.84 238.1 229.3C237.58 229.39 207.93 229.43 205.7 229.34C205.7 221.89 205.7 214.44 205.7 206.93C216.51 206.93 227.29 206.93 238.1 206.93ZM219.3 221.81C219.24 221.75 219.19 221.68 219.15 221.68C218.89 221.71 218.65 221.61 218.4 221.56C218.14 221.51 217.87 221.53 217.6 221.45C217.32 221.37 216.99 221.45 216.69 221.43C216.4 221.41 216.11 221.37 215.83 221.31C215.5 221.24 215.21 221.44 214.9 221.43C214.23 221.41 213.58 221.49 212.93 221.67C212.4 221.81 211.86 221.92 211.36 222.16C210.76 222.46 210.19 222.81 209.68 223.24C209.22 223.64 208.91 224.16 208.62 224.69C208.43 225.03 208.31 225.41 208.14 225.81C208.14 225.9 208.14 226.03 208.14 226.16C217.34 226.16 226.51 226.16 235.74 226.16C234.56 222.79 233.43 219.46 232.37 216.1C232.36 216.09 232.34 216.07 232.32 216.07C232.3 216.06 232.28 216.07 232.25 216.07C231.85 216.62 231.43 217.16 231.04 217.73C230.65 218.29 230.26 218.85 229.77 219.51C229.7 219.36 229.67 219.28 229.62 219.22C229.15 218.5 228.71 217.75 228.19 217.07C227.48 216.11 226.82 215.12 226.13 214.14C225.81 213.68 225.47 213.23 225.13 212.75C223.18 215.78 221.23 218.79 219.3 221.81ZM212.43 211.67C211.92 211.95 211.59 212.4 211.3 212.86C211.04 213.28 210.93 213.8 210.95 214.28C210.98 215.04 211.2 215.78 211.77 216.37C212.37 216.99 213.07 217.38 213.96 217.42C214.62 217.45 215.2 217.26 215.77 216.93C216.24 216.64 216.56 216.22 216.87 215.79C217.18 215.36 217.08 214.79 217.27 214.32C217.09 213.85 217.17 213.32 216.9 212.88C216.61 212.41 216.28 211.97 215.8 211.68C215.28 211.38 214.75 211.1 214.17 211.19C213.32 211.19 213.32 211.19 212.43 211.67Z" id="i1YbQt4oiU"></path><path d="M240.2 205.74C240.2 205.74 240.2 205.74 240.2 205.74C240.2 220.68 240.2 228.99 240.2 230.65C240.2 230.65 240.2 230.65 240.2 230.65C218.24 230.65 206.05 230.65 203.61 230.65C203.61 230.65 203.61 230.65 203.61 230.65C203.61 215.7 203.61 207.4 203.61 205.74C203.61 205.74 203.61 205.74 203.61 205.74C225.56 205.74 237.76 205.74 240.2 205.74Z" id="e19FytsrFD"></path><path d="M207.41 208.48L207.41 211.22L209.24 211.22L209.24 211.59L206.91 211.59L206.91 208.48L207.41 208.48Z" id="cdvMx54il"></path><path d="M211.97 210.41C211.97 210.77 211.86 211.07 211.66 211.31C211.45 211.55 211.13 211.67 210.69 211.67C210.33 211.67 210.04 211.56 209.82 211.35C209.61 211.14 209.5 210.86 209.5 210.51C209.5 210.13 209.61 209.82 209.84 209.6C210.06 209.37 210.37 209.26 210.75 209.26C211.09 209.26 211.38 209.36 211.61 209.55C211.85 209.74 211.97 210.03 211.97 210.41ZM211.5 210.42C211.5 210.21 211.46 210.04 211.38 209.9C211.26 209.69 211.04 209.59 210.74 209.59C210.47 209.59 210.27 209.68 210.15 209.86C210.02 210.03 209.96 210.25 209.96 210.5C209.96 210.74 210.02 210.94 210.15 211.1C210.27 211.26 210.46 211.34 210.73 211.34C211.03 211.34 211.23 211.24 211.34 211.05C211.45 210.86 211.5 210.65 211.5 210.42Z" id="c2f26VGHK0"></path><path d="M212.95 209.32C212.95 209.56 212.95 209.69 212.95 209.71C212.99 209.64 213.07 209.55 213.21 209.44C213.35 209.33 213.5 209.27 213.68 209.27C213.69 209.27 213.7 209.27 213.72 209.27C213.74 209.28 213.78 209.28 213.82 209.28C213.82 209.32 213.82 209.65 213.82 209.69C213.8 209.68 213.77 209.68 213.75 209.68C213.73 209.68 213.7 209.68 213.68 209.68C213.45 209.68 213.28 209.74 213.16 209.86C213.04 209.98 212.98 210.12 212.98 210.29C212.98 210.37 212.98 210.81 212.98 211.59L212.53 211.59L212.53 209.32L212.53 209.32L212.95 209.32Z" id="cHbv9TTVz"></path><path d="M216.26 209.68C216.35 209.79 216.41 209.93 216.44 210.08C216.47 210.18 216.48 210.35 216.48 210.58C216.29 210.58 214.74 210.58 214.54 210.58C214.55 210.81 214.61 210.99 214.73 211.13C214.85 211.27 215.03 211.34 215.28 211.34C215.51 211.34 215.7 211.27 215.84 211.14C215.91 211.07 215.97 210.98 216 210.88C216.05 210.88 216.4 210.88 216.44 210.88C216.43 210.96 216.39 211.05 216.33 211.15C216.26 211.26 216.19 211.34 216.11 211.4C215.97 211.52 215.81 211.59 215.61 211.63C215.5 211.65 215.38 211.67 215.24 211.67C214.91 211.67 214.63 211.56 214.4 211.36C214.18 211.15 214.06 210.87 214.06 210.5C214.06 210.13 214.18 209.84 214.41 209.61C214.64 209.39 214.94 209.27 215.31 209.27C215.5 209.27 215.68 209.31 215.86 209.39C216.04 209.46 216.17 209.56 216.26 209.68ZM215.89 209.88C215.77 209.7 215.57 209.61 215.29 209.61C215.08 209.61 214.91 209.67 214.77 209.79C214.63 209.92 214.56 210.08 214.55 210.27C214.65 210.27 215.14 210.27 216.02 210.27C215.98 210.08 215.94 209.95 215.89 209.88Z" id="avwfgPFAY"></path><path d="M217.49 209.32C217.49 209.52 217.49 209.62 217.49 209.65C217.6 209.53 217.69 209.45 217.78 209.4C217.93 209.32 218.09 209.27 218.28 209.27C218.49 209.27 218.66 209.32 218.79 209.41C218.87 209.46 218.93 209.53 218.99 209.63C219.09 209.51 219.21 209.42 219.35 209.36C219.48 209.3 219.63 209.27 219.8 209.27C220.16 209.27 220.4 209.38 220.53 209.6C220.6 209.72 220.63 209.88 220.63 210.08C220.63 210.18 220.63 210.68 220.63 211.59L220.17 211.59C220.17 210.64 220.17 210.12 220.17 210.01C220.17 209.86 220.12 209.76 220.03 209.7C219.95 209.65 219.84 209.62 219.71 209.62C219.53 209.62 219.38 209.67 219.26 209.77C219.13 209.87 219.07 210.04 219.07 210.27C219.07 210.36 219.07 210.8 219.07 211.58L218.61 211.58C218.61 210.7 218.61 210.21 218.61 210.11C218.61 209.95 218.59 209.84 218.55 209.77C218.48 209.67 218.35 209.61 218.17 209.61C218 209.61 217.84 209.67 217.7 209.78C217.57 209.89 217.5 210.09 217.5 210.38C217.5 210.46 217.5 210.86 217.5 211.58L217.05 211.58L217.05 209.32L217.05 209.32L217.49 209.32Z" id="b1yeQP0x6T"></path><path d="M223.16 208.48L223.16 208.91L222.71 208.91L222.71 208.48L223.16 208.48ZM223.16 209.34L223.16 211.59L222.71 211.59L222.71 209.34L223.16 209.34Z" id="cJgu4yX5M"></path><path d="M224.24 209.34C224.24 209.52 224.24 209.62 224.24 209.64C224.33 209.53 224.43 209.45 224.53 209.4C224.68 209.31 224.86 209.27 225.07 209.27C225.37 209.27 225.63 209.37 225.84 209.56C226.05 209.76 226.15 210.04 226.15 210.41C226.15 210.9 226 211.25 225.69 211.46C225.5 211.6 225.28 211.66 225.02 211.66C224.82 211.66 224.65 211.63 224.51 211.55C224.43 211.51 224.34 211.44 224.25 211.33C224.25 211.41 224.25 211.8 224.25 212.49L223.8 212.49L223.8 209.34L223.8 209.34L224.24 209.34ZM225.69 210.44C225.69 210.26 225.66 210.11 225.6 209.98C225.48 209.73 225.27 209.6 224.96 209.6C224.65 209.6 224.44 209.73 224.32 210C224.26 210.14 224.23 210.32 224.23 210.53C224.23 210.71 224.26 210.86 224.32 210.98C224.44 211.21 224.65 211.33 224.96 211.33C225.17 211.33 225.35 211.26 225.48 211.11C225.62 210.96 225.69 210.74 225.69 210.44Z" id="a2DpBi1Pr8"></path><path d="M227.05 211.17C227.17 211.29 227.36 211.35 227.65 211.35C227.82 211.35 227.97 211.32 228.1 211.26C228.23 211.2 228.29 211.1 228.29 210.98C228.29 210.88 228.24 210.81 228.14 210.76C228.07 210.72 227.94 210.69 227.75 210.65C227.71 210.64 227.42 210.58 227.39 210.57C227.16 210.52 226.99 210.47 226.88 210.41C226.68 210.31 226.58 210.17 226.58 209.98C226.58 209.77 226.68 209.6 226.86 209.47C227.04 209.33 227.29 209.27 227.6 209.27C228.01 209.27 228.3 209.37 228.48 209.57C228.59 209.69 228.65 209.83 228.65 209.98C228.6 209.98 228.26 209.98 228.22 209.98C228.21 209.89 228.17 209.81 228.11 209.74C228.01 209.64 227.82 209.59 227.56 209.59C227.39 209.59 227.26 209.62 227.17 209.68C227.08 209.73 227.04 209.8 227.04 209.89C227.04 209.99 227.1 210.07 227.21 210.13C227.28 210.16 227.38 210.2 227.51 210.22C227.54 210.23 227.78 210.28 227.81 210.28C228.14 210.35 228.36 210.41 228.47 210.48C228.65 210.57 228.73 210.73 228.73 210.93C228.73 211.13 228.64 211.31 228.46 211.45C228.28 211.6 228 211.67 227.63 211.67C227.23 211.67 226.94 211.6 226.78 211.45C226.61 211.29 226.52 211.1 226.51 210.88C226.54 210.88 226.68 210.88 226.93 210.88L226.94 210.88L226.94 210.88C226.97 211.03 227.01 211.12 227.05 211.17Z" id="d1iokE4DQs"></path><path d="M229.67 210.83C229.67 210.94 229.69 211.04 229.73 211.11C229.81 211.24 229.95 211.31 230.16 211.31C230.47 211.31 230.67 211.19 230.78 210.96C230.84 210.83 230.87 210.66 230.87 210.44C230.87 210.36 230.87 209.99 230.87 209.33L231.32 209.33L231.32 211.59L230.9 211.59C230.9 211.39 230.9 211.28 230.9 211.25C230.84 211.34 230.77 211.41 230.69 211.47C230.52 211.59 230.32 211.65 230.08 211.65C229.71 211.65 229.45 211.54 229.32 211.33C229.25 211.21 229.21 211.06 229.21 210.86C229.21 210.76 229.21 210.25 229.21 209.33L229.67 209.33L229.67 209.32L229.67 209.32C229.67 210.23 229.67 210.73 229.67 210.83Z" id="a1p2czDfiY"></path><path d="M232.49 209.32C232.49 209.52 232.49 209.62 232.49 209.65C232.6 209.53 232.7 209.45 232.78 209.4C232.93 209.32 233.09 209.27 233.28 209.27C233.49 209.27 233.67 209.32 233.79 209.41C233.87 209.46 233.93 209.53 233.99 209.63C234.09 209.51 234.21 209.42 234.34 209.36C234.48 209.3 234.63 209.27 234.8 209.27C235.16 209.27 235.4 209.38 235.53 209.6C235.6 209.72 235.63 209.88 235.63 210.08C235.63 210.18 235.63 210.68 235.63 211.59L235.17 211.59C235.17 210.64 235.17 210.12 235.17 210.01C235.17 209.86 235.12 209.76 235.03 209.7C234.95 209.65 234.84 209.62 234.71 209.62C234.54 209.62 234.38 209.67 234.26 209.77C234.13 209.87 234.07 210.04 234.07 210.27C234.07 210.36 234.07 210.8 234.07 211.58L233.61 211.58C233.61 210.7 233.61 210.21 233.61 210.11C233.61 209.95 233.59 209.84 233.55 209.77C233.48 209.67 233.35 209.61 233.17 209.61C233 209.61 232.84 209.67 232.7 209.78C232.57 209.89 232.5 210.09 232.5 210.38C232.5 210.46 232.5 210.86 232.5 211.58L232.05 211.58L232.05 209.32L232.05 209.32L232.49 209.32Z" id="b1eEKs8Wvo"></path><path d="M207.41 208.48L207.41 211.22L209.24 211.22L209.24 211.59L206.91 211.59L206.91 208.48L207.41 208.48Z" id="b1jAxD5DJm"></path><path d="M211.97 210.41C211.97 210.77 211.86 211.07 211.66 211.31C211.45 211.55 211.13 211.67 210.69 211.67C210.33 211.67 210.04 211.56 209.82 211.35C209.61 211.14 209.5 210.86 209.5 210.51C209.5 210.13 209.61 209.82 209.84 209.6C210.06 209.37 210.37 209.26 210.75 209.26C211.09 209.26 211.38 209.36 211.61 209.55C211.85 209.74 211.97 210.03 211.97 210.41ZM211.5 210.42C211.5 210.21 211.46 210.04 211.38 209.9C211.26 209.69 211.04 209.59 210.74 209.59C210.47 209.59 210.27 209.68 210.15 209.86C210.02 210.03 209.96 210.25 209.96 210.5C209.96 210.74 210.02 210.94 210.15 211.1C210.27 211.26 210.46 211.34 210.73 211.34C211.03 211.34 211.23 211.24 211.34 211.05C211.45 210.86 211.5 210.65 211.5 210.42Z" id="aQNaSPTpk"></path><path d="M212.95 209.32C212.95 209.56 212.95 209.69 212.95 209.71C212.99 209.64 213.07 209.55 213.21 209.44C213.35 209.33 213.5 209.27 213.68 209.27C213.69 209.27 213.7 209.27 213.72 209.27C213.74 209.28 213.78 209.28 213.82 209.28C213.82 209.32 213.82 209.65 213.82 209.69C213.8 209.68 213.77 209.68 213.75 209.68C213.73 209.68 213.7 209.68 213.68 209.68C213.45 209.68 213.28 209.74 213.16 209.86C213.04 209.98 212.98 210.12 212.98 210.29C212.98 210.37 212.98 210.81 212.98 211.59L212.53 211.59L212.53 209.32L212.53 209.32L212.95 209.32Z" id="a1d1tzS6E"></path><path d="M216.26 209.68C216.35 209.79 216.41 209.93 216.44 210.08C216.47 210.18 216.48 210.35 216.48 210.58C216.29 210.58 214.74 210.58 214.54 210.58C214.55 210.81 214.61 210.99 214.73 211.13C214.85 211.27 215.03 211.34 215.28 211.34C215.51 211.34 215.7 211.27 215.84 211.14C215.91 211.07 215.97 210.98 216 210.88C216.05 210.88 216.4 210.88 216.44 210.88C216.43 210.96 216.39 211.05 216.33 211.15C216.26 211.26 216.19 211.34 216.11 211.4C215.97 211.52 215.81 211.59 215.61 211.63C215.5 211.65 215.38 211.67 215.24 211.67C214.91 211.67 214.63 211.56 214.4 211.36C214.18 211.15 214.06 210.87 214.06 210.5C214.06 210.13 214.18 209.84 214.41 209.61C214.64 209.39 214.94 209.27 215.31 209.27C215.5 209.27 215.68 209.31 215.86 209.39C216.04 209.46 216.17 209.56 216.26 209.68ZM215.89 209.88C215.77 209.7 215.57 209.61 215.29 209.61C215.08 209.61 214.91 209.67 214.77 209.79C214.63 209.92 214.56 210.08 214.55 210.27C214.65 210.27 215.14 210.27 216.02 210.27C215.98 210.08 215.94 209.95 215.89 209.88Z" id="fLUt4cbj8"></path><path d="M217.49 209.32C217.49 209.52 217.49 209.62 217.49 209.65C217.6 209.53 217.69 209.45 217.78 209.4C217.93 209.32 218.09 209.27 218.28 209.27C218.49 209.27 218.66 209.32 218.79 209.41C218.87 209.46 218.93 209.53 218.99 209.63C219.09 209.51 219.21 209.42 219.35 209.36C219.48 209.3 219.63 209.27 219.8 209.27C220.16 209.27 220.4 209.38 220.53 209.6C220.6 209.72 220.63 209.88 220.63 210.08C220.63 210.18 220.63 210.68 220.63 211.59L220.17 211.59C220.17 210.64 220.17 210.12 220.17 210.01C220.17 209.86 220.12 209.76 220.03 209.7C219.95 209.65 219.84 209.62 219.71 209.62C219.53 209.62 219.38 209.67 219.26 209.77C219.13 209.87 219.07 210.04 219.07 210.27C219.07 210.36 219.07 210.8 219.07 211.58L218.61 211.58C218.61 210.7 218.61 210.21 218.61 210.11C218.61 209.95 218.59 209.84 218.55 209.77C218.48 209.67 218.35 209.61 218.17 209.61C218 209.61 217.84 209.67 217.7 209.78C217.57 209.89 217.5 210.09 217.5 210.38C217.5 210.46 217.5 210.86 217.5 211.58L217.05 211.58L217.05 209.32L217.05 209.32L217.49 209.32Z" id="a8eHNHduZ"></path><path d="M223.16 208.48L223.16 208.91L222.71 208.91L222.71 208.48L223.16 208.48ZM223.16 209.34L223.16 211.59L222.71 211.59L222.71 209.34L223.16 209.34Z" id="g5LA7EV4E5"></path><path d="M224.24 209.34C224.24 209.52 224.24 209.62 224.24 209.64C224.33 209.53 224.43 209.45 224.53 209.4C224.68 209.31 224.86 209.27 225.07 209.27C225.37 209.27 225.63 209.37 225.84 209.56C226.05 209.76 226.15 210.04 226.15 210.41C226.15 210.9 226 211.25 225.69 211.46C225.5 211.6 225.28 211.66 225.02 211.66C224.82 211.66 224.65 211.63 224.51 211.55C224.43 211.51 224.34 211.44 224.25 211.33C224.25 211.41 224.25 211.8 224.25 212.49L223.8 212.49L223.8 209.34L223.8 209.34L224.24 209.34ZM225.69 210.44C225.69 210.26 225.66 210.11 225.6 209.98C225.48 209.73 225.27 209.6 224.96 209.6C224.65 209.6 224.44 209.73 224.32 210C224.26 210.14 224.23 210.32 224.23 210.53C224.23 210.71 224.26 210.86 224.32 210.98C224.44 211.21 224.65 211.33 224.96 211.33C225.17 211.33 225.35 211.26 225.48 211.11C225.62 210.96 225.69 210.74 225.69 210.44Z" id="b15s29uO5m"></path><path d="M227.05 211.17C227.17 211.29 227.36 211.35 227.65 211.35C227.82 211.35 227.97 211.32 228.1 211.26C228.23 211.2 228.29 211.1 228.29 210.98C228.29 210.88 228.24 210.81 228.14 210.76C228.07 210.72 227.94 210.69 227.75 210.65C227.71 210.64 227.42 210.58 227.39 210.57C227.16 210.52 226.99 210.47 226.88 210.41C226.68 210.31 226.58 210.17 226.58 209.98C226.58 209.77 226.68 209.6 226.86 209.47C227.04 209.33 227.29 209.27 227.6 209.27C228.01 209.27 228.3 209.37 228.48 209.57C228.59 209.69 228.65 209.83 228.65 209.98C228.6 209.98 228.26 209.98 228.22 209.98C228.21 209.89 228.17 209.81 228.11 209.74C228.01 209.64 227.82 209.59 227.56 209.59C227.39 209.59 227.26 209.62 227.17 209.68C227.08 209.73 227.04 209.8 227.04 209.89C227.04 209.99 227.1 210.07 227.21 210.13C227.28 210.16 227.38 210.2 227.51 210.22C227.54 210.23 227.78 210.28 227.81 210.28C228.14 210.35 228.36 210.41 228.47 210.48C228.65 210.57 228.73 210.73 228.73 210.93C228.73 211.13 228.64 211.31 228.46 211.45C228.28 211.6 228 211.67 227.63 211.67C227.23 211.67 226.94 211.6 226.78 211.45C226.61 211.29 226.52 211.1 226.51 210.88C226.54 210.88 226.68 210.88 226.93 210.88L226.94 210.88L226.94 210.88C226.97 211.03 227.01 211.12 227.05 211.17Z" id="a3mHjEvqx"></path><path d="M229.67 210.83C229.67 210.94 229.69 211.04 229.73 211.11C229.81 211.24 229.95 211.31 230.16 211.31C230.47 211.31 230.67 211.19 230.78 210.96C230.84 210.83 230.87 210.66 230.87 210.44C230.87 210.36 230.87 209.99 230.87 209.33L231.32 209.33L231.32 211.59L230.9 211.59C230.9 211.39 230.9 211.28 230.9 211.25C230.84 211.34 230.77 211.41 230.69 211.47C230.52 211.59 230.32 211.65 230.08 211.65C229.71 211.65 229.45 211.54 229.32 211.33C229.25 211.21 229.21 211.06 229.21 210.86C229.21 210.76 229.21 210.25 229.21 209.33L229.67 209.33L229.67 209.32L229.67 209.32C229.67 210.23 229.67 210.73 229.67 210.83Z" id="bkwANNgBS"></path><path d="M232.49 209.32C232.49 209.52 232.49 209.62 232.49 209.65C232.6 209.53 232.7 209.45 232.78 209.4C232.93 209.32 233.09 209.27 233.28 209.27C233.49 209.27 233.67 209.32 233.79 209.41C233.87 209.46 233.93 209.53 233.99 209.63C234.09 209.51 234.21 209.42 234.34 209.36C234.48 209.3 234.63 209.27 234.8 209.27C235.16 209.27 235.4 209.38 235.53 209.6C235.6 209.72 235.63 209.88 235.63 210.08C235.63 210.18 235.63 210.68 235.63 211.59L235.17 211.59C235.17 210.64 235.17 210.12 235.17 210.01C235.17 209.86 235.12 209.76 235.03 209.7C234.95 209.65 234.84 209.62 234.71 209.62C234.54 209.62 234.38 209.67 234.26 209.77C234.13 209.87 234.07 210.04 234.07 210.27C234.07 210.36 234.07 210.8 234.07 211.58L233.61 211.58C233.61 210.7 233.61 210.21 233.61 210.11C233.61 209.95 233.59 209.84 233.55 209.77C233.48 209.67 233.35 209.61 233.17 209.61C233 209.61 232.84 209.67 232.7 209.78C232.57 209.89 232.5 210.09 232.5 210.38C232.5 210.46 232.5 210.86 232.5 211.58L232.05 211.58L232.05 209.32L232.05 209.32L232.49 209.32Z" id="bvLtvMbYk"></path><path d="M209.13 215.6C209.13 215.96 209.03 216.26 208.82 216.5C208.61 216.74 208.29 216.86 207.86 216.86C207.49 216.86 207.2 216.75 206.99 216.54C206.77 216.33 206.67 216.05 206.67 215.69C206.67 215.31 206.78 215.01 207.01 214.79C207.23 214.56 207.53 214.45 207.91 214.45C208.26 214.45 208.55 214.55 208.78 214.74C209.02 214.94 209.13 215.22 209.13 215.6ZM208.67 215.61C208.67 215.4 208.63 215.23 208.55 215.09C208.42 214.89 208.21 214.78 207.9 214.78C207.63 214.78 207.44 214.87 207.31 215.05C207.19 215.22 207.13 215.44 207.13 215.69C207.13 215.93 207.19 216.13 207.31 216.29C207.44 216.45 207.63 216.53 207.9 216.53C208.19 216.53 208.39 216.44 208.5 216.24C208.61 216.05 208.67 215.84 208.67 215.61Z" id="axAZPtgcn"></path><path d="M210.14 213.68L210.14 216.78L209.7 216.78L209.7 213.68L210.14 213.68Z" id="b3tzVv5HN"></path><path d="M213.1 215.6C213.1 215.96 213 216.26 212.79 216.5C212.58 216.74 212.26 216.86 211.82 216.86C211.46 216.86 211.17 216.75 210.95 216.54C210.74 216.33 210.63 216.05 210.63 215.69C210.63 215.31 210.75 215.01 210.97 214.79C211.2 214.56 211.5 214.45 211.88 214.45C212.22 214.45 212.51 214.55 212.75 214.74C212.98 214.94 213.1 215.22 213.1 215.6ZM212.63 215.61C212.63 215.4 212.59 215.23 212.51 215.09C212.39 214.89 212.17 214.78 211.87 214.78C211.6 214.78 211.4 214.87 211.28 215.05C211.15 215.23 211.09 215.44 211.09 215.69C211.09 215.93 211.15 216.13 211.28 216.29C211.4 216.45 211.6 216.53 211.86 216.53C212.16 216.53 212.36 216.44 212.47 216.24C212.58 216.05 212.63 215.84 212.63 215.61Z" id="dJXB2v8x9"></path><path d="M214.09 214.52C214.09 214.75 214.09 214.88 214.09 214.91C214.12 214.83 214.21 214.74 214.34 214.63C214.48 214.52 214.64 214.46 214.81 214.46C214.82 214.46 214.84 214.46 214.86 214.47C214.88 214.47 214.91 214.47 214.96 214.47C214.96 214.52 214.96 214.84 214.96 214.88C214.93 214.87 214.91 214.87 214.88 214.87C214.86 214.87 214.84 214.87 214.81 214.87C214.59 214.87 214.41 214.93 214.29 215.05C214.17 215.17 214.11 215.32 214.11 215.48C214.11 215.56 214.11 216 214.11 216.78L213.66 216.78L213.66 214.52L213.66 214.52L214.09 214.52Z" id="duZ8Kxzt"></path><path d="M217.14 216.36C217.26 216.48 217.45 216.55 217.74 216.55C217.91 216.55 218.06 216.51 218.19 216.45C218.31 216.39 218.38 216.3 218.38 216.17C218.38 216.07 218.33 216 218.23 215.95C218.16 215.92 218.03 215.88 217.84 215.84C217.8 215.83 217.51 215.77 217.47 215.76C217.24 215.72 217.07 215.66 216.96 215.6C216.77 215.5 216.67 215.36 216.67 215.18C216.67 214.96 216.76 214.79 216.95 214.66C217.13 214.53 217.38 214.46 217.69 214.46C218.09 214.46 218.39 214.56 218.57 214.76C218.68 214.89 218.74 215.02 218.73 215.17C218.69 215.17 218.35 215.17 218.31 215.17C218.3 215.08 218.26 215.01 218.2 214.94C218.09 214.84 217.91 214.79 217.65 214.79C217.48 214.79 217.35 214.81 217.26 214.87C217.17 214.92 217.13 215 217.13 215.09C217.13 215.18 217.18 215.26 217.3 215.32C217.37 215.36 217.47 215.39 217.6 215.41C217.63 215.42 217.87 215.47 217.9 215.47C218.23 215.54 218.45 215.6 218.56 215.67C218.73 215.76 218.82 215.92 218.82 216.12C218.82 216.33 218.73 216.5 218.55 216.65C218.37 216.79 218.09 216.87 217.72 216.87C217.31 216.87 217.03 216.79 216.86 216.64C216.7 216.48 216.61 216.29 216.6 216.07C216.62 216.07 216.77 216.07 217.03 216.07L217.03 216.07C217.06 216.22 217.1 216.32 217.14 216.36Z" id="e1geDzZW5y"></path><path d="M219.76 213.68L219.76 214.11L219.31 214.11L219.31 213.68L219.76 213.68ZM219.76 214.53L219.76 216.78L219.31 216.78L219.31 214.53L219.76 214.53Z" id="b1zotwfhz1"></path><path d="M220.98 213.88L220.98 214.52L221.41 214.52L221.41 214.83L220.98 214.83C220.98 215.71 220.98 216.21 220.98 216.3C220.98 216.38 221.01 216.43 221.08 216.46C221.11 216.48 221.17 216.48 221.25 216.48C221.27 216.48 221.3 216.48 221.32 216.48C221.34 216.48 221.37 216.48 221.41 216.48C221.41 216.51 221.41 216.75 221.41 216.78C221.35 216.79 221.3 216.8 221.25 216.81C221.19 216.81 221.13 216.81 221.06 216.81C220.86 216.81 220.71 216.77 220.64 216.68C220.57 216.59 220.53 216.47 220.53 216.32C220.53 216.22 220.53 215.73 220.53 214.83L220.17 214.83L220.17 214.52L220.53 214.52L220.53 213.88L220.53 213.88L220.98 213.88Z" id="a1tIL7S9cF"></path><path d="M224.9 215.3C224.92 215.26 224.93 215.22 224.93 215.15C224.93 215.02 224.88 214.93 224.77 214.87C224.66 214.81 224.5 214.78 224.3 214.78C224.07 214.78 223.91 214.84 223.81 214.94C223.75 215 223.72 215.09 223.7 215.21C223.66 215.21 223.32 215.21 223.28 215.21C223.29 214.93 223.4 214.73 223.6 214.63C223.81 214.52 224.04 214.46 224.31 214.46C224.63 214.46 224.88 214.51 225.08 214.61C225.27 214.71 225.37 214.87 225.37 215.09C225.37 215.22 225.37 216.26 225.37 216.39C225.37 216.43 225.38 216.46 225.39 216.49C225.41 216.51 225.45 216.52 225.51 216.52C225.53 216.52 225.56 216.52 225.58 216.52C225.61 216.52 225.63 216.51 225.66 216.51C225.66 216.54 225.66 216.76 225.66 216.79C225.59 216.81 225.54 216.82 225.5 216.82C225.47 216.82 225.41 216.83 225.35 216.83C225.2 216.83 225.09 216.78 225.02 216.69C224.98 216.64 224.96 216.57 224.94 216.48C224.85 216.58 224.72 216.67 224.55 216.74C224.38 216.82 224.19 216.85 223.98 216.85C223.74 216.85 223.53 216.79 223.38 216.66C223.22 216.54 223.14 216.38 223.14 216.19C223.14 215.98 223.22 215.81 223.37 215.7C223.53 215.58 223.73 215.51 223.98 215.49C224.03 215.48 224.27 215.46 224.7 215.41C224.81 215.38 224.88 215.34 224.9 215.3ZM224.09 216.53C224.25 216.53 224.4 216.5 224.55 216.44C224.8 216.34 224.92 216.17 224.92 215.94C224.92 215.91 224.92 215.66 224.92 215.63C224.87 215.66 224.8 215.69 224.71 215.7C224.63 215.72 224.54 215.74 224.46 215.75C224.43 215.75 224.22 215.77 224.19 215.78C224.03 215.79 223.9 215.82 223.82 215.86C223.68 215.93 223.62 216.03 223.62 216.18C223.61 216.29 223.66 216.37 223.76 216.44C223.85 216.5 223.96 216.53 224.09 216.53Z" id="dulPJzKZA"></path><path d="M226.55 214.52C226.55 214.71 226.55 214.82 226.55 214.84C226.65 214.73 226.75 214.64 226.83 214.59C226.98 214.51 227.15 214.46 227.34 214.46C227.55 214.46 227.72 214.51 227.85 214.6C227.92 214.65 227.99 214.72 228.05 214.82C228.15 214.7 228.26 214.61 228.4 214.55C228.53 214.49 228.68 214.46 228.85 214.46C229.21 214.46 229.45 214.57 229.58 214.79C229.65 214.91 229.69 215.07 229.69 215.27C229.69 215.37 229.69 215.87 229.69 216.78L229.22 216.78C229.22 215.83 229.22 215.31 229.22 215.2C229.22 215.05 229.18 214.95 229.09 214.89C229 214.84 228.89 214.81 228.76 214.81C228.59 214.81 228.44 214.86 228.31 214.96C228.18 215.06 228.12 215.23 228.12 215.46C228.12 215.55 228.12 215.99 228.12 216.77L227.66 216.77C227.66 215.89 227.66 215.4 227.66 215.3C227.66 215.14 227.64 215.03 227.6 214.96C227.53 214.86 227.41 214.8 227.22 214.8C227.05 214.8 226.9 214.86 226.76 214.97C226.62 215.08 226.55 215.28 226.55 215.57C226.55 215.65 226.55 216.05 226.55 216.77L226.1 216.77L226.1 214.52L226.1 214.52L226.55 214.52Z" id="a3cKLBcXlB"></path><path d="M232.4 214.87C232.48 214.98 232.54 215.12 232.57 215.27C232.6 215.37 232.61 215.54 232.61 215.77C232.42 215.77 230.87 215.77 230.67 215.77C230.68 216 230.75 216.18 230.86 216.32C230.98 216.46 231.17 216.53 231.42 216.53C231.65 216.53 231.83 216.47 231.97 216.33C232.05 216.26 232.1 216.17 232.14 216.07C232.18 216.07 232.53 216.07 232.58 216.07C232.56 216.15 232.52 216.25 232.46 216.35C232.4 216.45 232.32 216.53 232.24 216.6C232.11 216.71 231.94 216.78 231.74 216.82C231.63 216.85 231.51 216.86 231.38 216.86C231.05 216.86 230.77 216.76 230.54 216.55C230.31 216.35 230.2 216.06 230.2 215.69C230.2 215.33 230.31 215.03 230.54 214.81C230.77 214.58 231.08 214.47 231.45 214.47C231.63 214.46 231.82 214.5 231.99 214.58C232.17 214.65 232.3 214.75 232.4 214.87ZM232.03 215.07C231.9 214.89 231.7 214.8 231.42 214.8C231.21 214.8 231.04 214.86 230.9 214.98C230.77 215.11 230.69 215.27 230.68 215.46C230.78 215.46 231.27 215.46 232.15 215.46C232.11 215.27 232.07 215.14 232.03 215.07Z" id="a1ZDg3rgKL"></path><path d="M233.72 213.88L233.72 214.52L234.15 214.52L234.15 214.83L233.72 214.83C233.72 215.71 233.72 216.21 233.72 216.3C233.72 216.38 233.75 216.43 233.82 216.46C233.85 216.48 233.91 216.48 233.99 216.48C234.01 216.48 234.04 216.48 234.06 216.48C234.08 216.48 234.11 216.48 234.15 216.48C234.15 216.51 234.15 216.75 234.15 216.78C234.09 216.79 234.04 216.8 233.98 216.81C233.93 216.81 233.87 216.81 233.8 216.81C233.6 216.81 233.45 216.77 233.38 216.68C233.31 216.59 233.27 216.47 233.27 216.32C233.27 216.22 233.27 215.73 233.27 214.83L232.91 214.83L232.91 214.52L233.27 214.52L233.27 213.88L233.72 213.88Z" id="c1fJOOdzFG"></path><path d="M234.93 217.01C234.95 216.95 234.97 216.89 234.97 216.83C234.97 216.82 234.97 216.81 234.97 216.8C234.96 216.8 234.96 216.79 234.96 216.78C234.94 216.78 234.85 216.78 234.69 216.78L234.69 216.32L235.22 216.32C235.22 216.57 235.22 216.72 235.22 216.74C235.22 216.91 235.18 217.06 235.1 217.18C235.02 217.31 234.89 217.39 234.69 217.42C234.69 217.41 234.69 217.34 234.69 217.22L234.69 217.22C234.82 217.16 234.9 217.1 234.93 217.01Z" id="b6LKYvOe9n"></path><path d="M209.13 215.6C209.13 215.96 209.03 216.26 208.82 216.5C208.61 216.74 208.29 216.86 207.86 216.86C207.49 216.86 207.2 216.75 206.99 216.54C206.77 216.33 206.67 216.05 206.67 215.69C206.67 215.31 206.78 215.01 207.01 214.79C207.23 214.56 207.53 214.45 207.91 214.45C208.26 214.45 208.55 214.55 208.78 214.74C209.02 214.94 209.13 215.22 209.13 215.6ZM208.67 215.61C208.67 215.4 208.63 215.23 208.55 215.09C208.42 214.89 208.21 214.78 207.9 214.78C207.63 214.78 207.44 214.87 207.31 215.05C207.19 215.22 207.13 215.44 207.13 215.69C207.13 215.93 207.19 216.13 207.31 216.29C207.44 216.45 207.63 216.53 207.9 216.53C208.19 216.53 208.39 216.44 208.5 216.24C208.61 216.05 208.67 215.84 208.67 215.61Z" id="aep2pa0sj"></path><path d="M210.14 213.68L210.14 216.78L209.7 216.78L209.7 213.68L210.14 213.68Z" id="ab5uRSx7iw"></path><path d="M213.1 215.6C213.1 215.96 213 216.26 212.79 216.5C212.58 216.74 212.26 216.86 211.82 216.86C211.46 216.86 211.17 216.75 210.95 216.54C210.74 216.33 210.63 216.05 210.63 215.69C210.63 215.31 210.75 215.01 210.97 214.79C211.2 214.56 211.5 214.45 211.88 214.45C212.22 214.45 212.51 214.55 212.75 214.74C212.98 214.94 213.1 215.22 213.1 215.6ZM212.63 215.61C212.63 215.4 212.59 215.23 212.51 215.09C212.39 214.89 212.17 214.78 211.87 214.78C211.6 214.78 211.4 214.87 211.28 215.05C211.15 215.23 211.09 215.44 211.09 215.69C211.09 215.93 211.15 216.13 211.28 216.29C211.4 216.45 211.6 216.53 211.86 216.53C212.16 216.53 212.36 216.44 212.47 216.24C212.58 216.05 212.63 215.84 212.63 215.61Z" id="a2gyUYiLNs"></path><path d="M214.09 214.52C214.09 214.75 214.09 214.88 214.09 214.91C214.12 214.83 214.21 214.74 214.34 214.63C214.48 214.52 214.64 214.46 214.81 214.46C214.82 214.46 214.84 214.46 214.86 214.47C214.88 214.47 214.91 214.47 214.96 214.47C214.96 214.52 214.96 214.84 214.96 214.88C214.93 214.87 214.91 214.87 214.88 214.87C214.86 214.87 214.84 214.87 214.81 214.87C214.59 214.87 214.41 214.93 214.29 215.05C214.17 215.17 214.11 215.32 214.11 215.48C214.11 215.56 214.11 216 214.11 216.78L213.66 216.78L213.66 214.52L213.66 214.52L214.09 214.52Z" id="blSFbKiFB"></path><path d="M217.14 216.36C217.26 216.48 217.45 216.55 217.74 216.55C217.91 216.55 218.06 216.51 218.19 216.45C218.31 216.39 218.38 216.3 218.38 216.17C218.38 216.07 218.33 216 218.23 215.95C218.16 215.92 218.03 215.88 217.84 215.84C217.8 215.83 217.51 215.77 217.47 215.76C217.24 215.72 217.07 215.66 216.96 215.6C216.77 215.5 216.67 215.36 216.67 215.18C216.67 214.96 216.76 214.79 216.95 214.66C217.13 214.53 217.38 214.46 217.69 214.46C218.09 214.46 218.39 214.56 218.57 214.76C218.68 214.89 218.74 215.02 218.73 215.17C218.69 215.17 218.35 215.17 218.31 215.17C218.3 215.08 218.26 215.01 218.2 214.94C218.09 214.84 217.91 214.79 217.65 214.79C217.48 214.79 217.35 214.81 217.26 214.87C217.17 214.92 217.13 215 217.13 215.09C217.13 215.18 217.18 215.26 217.3 215.32C217.37 215.36 217.47 215.39 217.6 215.41C217.63 215.42 217.87 215.47 217.9 215.47C218.23 215.54 218.45 215.6 218.56 215.67C218.73 215.76 218.82 215.92 218.82 216.12C218.82 216.33 218.73 216.5 218.55 216.65C218.37 216.79 218.09 216.87 217.72 216.87C217.31 216.87 217.03 216.79 216.86 216.64C216.7 216.48 216.61 216.29 216.6 216.07C216.62 216.07 216.77 216.07 217.03 216.07L217.03 216.07C217.06 216.22 217.1 216.32 217.14 216.36Z" id="gcvoTzrN7"></path><path d="M219.76 213.68L219.76 214.11L219.31 214.11L219.31 213.68L219.76 213.68ZM219.76 214.53L219.76 216.78L219.31 216.78L219.31 214.53L219.76 214.53Z" id="d5php29o96"></path><path d="M220.98 213.88L220.98 214.52L221.41 214.52L221.41 214.83L220.98 214.83C220.98 215.71 220.98 216.21 220.98 216.3C220.98 216.38 221.01 216.43 221.08 216.46C221.11 216.48 221.17 216.48 221.25 216.48C221.27 216.48 221.3 216.48 221.32 216.48C221.34 216.48 221.37 216.48 221.41 216.48C221.41 216.51 221.41 216.75 221.41 216.78C221.35 216.79 221.3 216.8 221.25 216.81C221.19 216.81 221.13 216.81 221.06 216.81C220.86 216.81 220.71 216.77 220.64 216.68C220.57 216.59 220.53 216.47 220.53 216.32C220.53 216.22 220.53 215.73 220.53 214.83L220.17 214.83L220.17 214.52L220.53 214.52L220.53 213.88L220.53 213.88L220.98 213.88Z" id="aBdLBW15i"></path><path d="M224.9 215.3C224.92 215.26 224.93 215.22 224.93 215.15C224.93 215.02 224.88 214.93 224.77 214.87C224.66 214.81 224.5 214.78 224.3 214.78C224.07 214.78 223.91 214.84 223.81 214.94C223.75 215 223.72 215.09 223.7 215.21C223.66 215.21 223.32 215.21 223.28 215.21C223.29 214.93 223.4 214.73 223.6 214.63C223.81 214.52 224.04 214.46 224.31 214.46C224.63 214.46 224.88 214.51 225.08 214.61C225.27 214.71 225.37 214.87 225.37 215.09C225.37 215.22 225.37 216.26 225.37 216.39C225.37 216.43 225.38 216.46 225.39 216.49C225.41 216.51 225.45 216.52 225.51 216.52C225.53 216.52 225.56 216.52 225.58 216.52C225.61 216.52 225.63 216.51 225.66 216.51C225.66 216.54 225.66 216.76 225.66 216.79C225.59 216.81 225.54 216.82 225.5 216.82C225.47 216.82 225.41 216.83 225.35 216.83C225.2 216.83 225.09 216.78 225.02 216.69C224.98 216.64 224.96 216.57 224.94 216.48C224.85 216.58 224.72 216.67 224.55 216.74C224.38 216.82 224.19 216.85 223.98 216.85C223.74 216.85 223.53 216.79 223.38 216.66C223.22 216.54 223.14 216.38 223.14 216.19C223.14 215.98 223.22 215.81 223.37 215.7C223.53 215.58 223.73 215.51 223.98 215.49C224.03 215.48 224.27 215.46 224.7 215.41C224.81 215.38 224.88 215.34 224.9 215.3ZM224.09 216.53C224.25 216.53 224.4 216.5 224.55 216.44C224.8 216.34 224.92 216.17 224.92 215.94C224.92 215.91 224.92 215.66 224.92 215.63C224.87 215.66 224.8 215.69 224.71 215.7C224.63 215.72 224.54 215.74 224.46 215.75C224.43 215.75 224.22 215.77 224.19 215.78C224.03 215.79 223.9 215.82 223.82 215.86C223.68 215.93 223.62 216.03 223.62 216.18C223.61 216.29 223.66 216.37 223.76 216.44C223.85 216.5 223.96 216.53 224.09 216.53Z" id="a1iB2sPjWk"></path><path d="M226.55 214.52C226.55 214.71 226.55 214.82 226.55 214.84C226.65 214.73 226.75 214.64 226.83 214.59C226.98 214.51 227.15 214.46 227.34 214.46C227.55 214.46 227.72 214.51 227.85 214.6C227.92 214.65 227.99 214.72 228.05 214.82C228.15 214.7 228.26 214.61 228.4 214.55C228.53 214.49 228.68 214.46 228.85 214.46C229.21 214.46 229.45 214.57 229.58 214.79C229.65 214.91 229.69 215.07 229.69 215.27C229.69 215.37 229.69 215.87 229.69 216.78L229.22 216.78C229.22 215.83 229.22 215.31 229.22 215.2C229.22 215.05 229.18 214.95 229.09 214.89C229 214.84 228.89 214.81 228.76 214.81C228.59 214.81 228.44 214.86 228.31 214.96C228.18 215.06 228.12 215.23 228.12 215.46C228.12 215.55 228.12 215.99 228.12 216.77L227.66 216.77C227.66 215.89 227.66 215.4 227.66 215.3C227.66 215.14 227.64 215.03 227.6 214.96C227.53 214.86 227.41 214.8 227.22 214.8C227.05 214.8 226.9 214.86 226.76 214.97C226.62 215.08 226.55 215.28 226.55 215.57C226.55 215.65 226.55 216.05 226.55 216.77L226.1 216.77L226.1 214.52L226.1 214.52L226.55 214.52Z" id="l40MhMfeOj"></path><path d="M232.4 214.87C232.48 214.98 232.54 215.12 232.57 215.27C232.6 215.37 232.61 215.54 232.61 215.77C232.42 215.77 230.87 215.77 230.67 215.77C230.68 216 230.75 216.18 230.86 216.32C230.98 216.46 231.17 216.53 231.42 216.53C231.65 216.53 231.83 216.47 231.97 216.33C232.05 216.26 232.1 216.17 232.14 216.07C232.18 216.07 232.53 216.07 232.58 216.07C232.56 216.15 232.52 216.25 232.46 216.35C232.4 216.45 232.32 216.53 232.24 216.6C232.11 216.71 231.94 216.78 231.74 216.82C231.63 216.85 231.51 216.86 231.38 216.86C231.05 216.86 230.77 216.76 230.54 216.55C230.31 216.35 230.2 216.06 230.2 215.69C230.2 215.33 230.31 215.03 230.54 214.81C230.77 214.58 231.08 214.47 231.45 214.47C231.63 214.46 231.82 214.5 231.99 214.58C232.17 214.65 232.3 214.75 232.4 214.87ZM232.03 215.07C231.9 214.89 231.7 214.8 231.42 214.8C231.21 214.8 231.04 214.86 230.9 214.98C230.77 215.11 230.69 215.27 230.68 215.46C230.78 215.46 231.27 215.46 232.15 215.46C232.11 215.27 232.07 215.14 232.03 215.07Z" id="j3A0s59rU"></path><path d="M233.72 213.88L233.72 214.52L234.15 214.52L234.15 214.83L233.72 214.83C233.72 215.71 233.72 216.21 233.72 216.3C233.72 216.38 233.75 216.43 233.82 216.46C233.85 216.48 233.91 216.48 233.99 216.48C234.01 216.48 234.04 216.48 234.06 216.48C234.08 216.48 234.11 216.48 234.15 216.48C234.15 216.51 234.15 216.75 234.15 216.78C234.09 216.79 234.04 216.8 233.98 216.81C233.93 216.81 233.87 216.81 233.8 216.81C233.6 216.81 233.45 216.77 233.38 216.68C233.31 216.59 233.27 216.47 233.27 216.32C233.27 216.22 233.27 215.73 233.27 214.83L232.91 214.83L232.91 214.52L233.27 214.52L233.27 213.88L233.72 213.88Z" id="ik5tAdPvp"></path><path d="M234.93 217.01C234.95 216.95 234.97 216.89 234.97 216.83C234.97 216.82 234.97 216.81 234.97 216.8C234.96 216.8 234.96 216.79 234.96 216.78C234.94 216.78 234.85 216.78 234.69 216.78L234.69 216.32L235.22 216.32C235.22 216.57 235.22 216.72 235.22 216.74C235.22 216.91 235.18 217.06 235.1 217.18C235.02 217.31 234.89 217.39 234.69 217.42C234.69 217.41 234.69 217.34 234.69 217.22L234.69 217.22C234.82 217.16 234.9 217.1 234.93 217.01Z" id="b1SRLB0wbK"></path><path d="M208.95 220.47C208.91 220.47 208.56 220.47 208.51 220.47C208.49 220.33 208.43 220.21 208.33 220.12C208.24 220.03 208.09 219.98 207.88 219.98C207.59 219.98 207.39 220.1 207.26 220.34C207.18 220.49 207.15 220.68 207.15 220.9C207.15 221.13 207.2 221.32 207.31 221.48C207.43 221.63 207.6 221.71 207.85 221.71C208.03 221.71 208.18 221.66 208.29 221.56C208.4 221.47 208.47 221.34 208.51 221.17C208.56 221.17 208.91 221.17 208.95 221.17C208.9 221.47 208.77 221.69 208.58 221.83C208.38 221.97 208.12 222.03 207.81 222.03C207.46 222.03 207.19 221.93 206.98 221.71C206.77 221.49 206.67 221.22 206.67 220.9C206.67 220.5 206.78 220.19 207.01 219.97C207.23 219.75 207.52 219.64 207.87 219.64C208.18 219.64 208.42 219.7 208.61 219.83C208.8 219.95 208.91 220.17 208.95 220.47Z" id="aK8YCIU7i"></path><path d="M211.68 220.79C211.68 221.16 211.58 221.46 211.37 221.69C211.16 221.93 210.84 222.05 210.4 222.05C210.04 222.05 209.75 221.95 209.54 221.74C209.32 221.53 209.22 221.24 209.22 220.89C209.22 220.51 209.33 220.21 209.55 219.98C209.78 219.76 210.08 219.64 210.46 219.64C210.8 219.64 211.09 219.74 211.33 219.93C211.56 220.13 211.68 220.41 211.68 220.79ZM211.21 220.8C211.21 220.59 211.18 220.42 211.1 220.29C210.97 220.08 210.76 219.97 210.45 219.97C210.18 219.97 209.98 220.06 209.86 220.24C209.74 220.42 209.68 220.63 209.68 220.88C209.68 221.12 209.74 221.32 209.86 221.48C209.98 221.64 210.18 221.72 210.45 221.72C210.74 221.72 210.94 221.63 211.05 221.44C211.16 221.25 211.21 221.03 211.21 220.8Z" id="c2MUtIJoLc"></path><path d="M212.66 219.71C212.66 219.9 212.66 220.01 212.66 220.03C212.78 219.9 212.92 219.8 213.06 219.74C213.2 219.69 213.35 219.66 213.53 219.66C213.9 219.66 214.16 219.77 214.29 219.99C214.37 220.12 214.4 220.29 214.4 220.52C214.4 220.62 214.4 221.1 214.4 221.97L213.95 221.97C213.95 221.12 213.95 220.64 213.95 220.54C213.95 220.41 213.92 220.3 213.87 220.21C213.8 220.07 213.65 220 213.44 220C213.34 220 213.25 220.01 213.18 220.03C213.06 220.06 212.95 220.12 212.86 220.21C212.78 220.29 212.73 220.36 212.71 220.45C212.69 220.53 212.68 220.64 212.68 220.79C212.68 220.87 212.68 221.26 212.68 221.97L212.23 221.97L212.23 219.71L212.66 219.71Z" id="a2tEdZ4Nr8"></path><path d="M215.44 221.55C215.56 221.67 215.76 221.74 216.04 221.74C216.21 221.74 216.36 221.71 216.49 221.64C216.62 221.58 216.68 221.49 216.68 221.36C216.68 221.26 216.63 221.19 216.53 221.14C216.46 221.11 216.33 221.07 216.14 221.03C216.1 221.02 215.82 220.96 215.78 220.95C215.55 220.91 215.38 220.85 215.27 220.8C215.07 220.69 214.97 220.55 214.97 220.37C214.97 220.15 215.07 219.98 215.25 219.85C215.44 219.72 215.68 219.65 215.99 219.65C216.4 219.65 216.69 219.75 216.87 219.95C216.99 220.08 217.04 220.21 217.04 220.36C217 220.36 216.66 220.36 216.62 220.36C216.61 220.28 216.57 220.2 216.51 220.13C216.4 220.03 216.22 219.98 215.96 219.98C215.79 219.98 215.65 220.01 215.57 220.06C215.48 220.12 215.43 220.19 215.43 220.28C215.43 220.38 215.49 220.45 215.61 220.51C215.67 220.55 215.77 220.58 215.91 220.61C215.94 220.61 216.18 220.66 216.21 220.67C216.54 220.73 216.75 220.8 216.87 220.86C217.04 220.96 217.13 221.11 217.13 221.32C217.13 221.52 217.04 221.69 216.85 221.84C216.67 221.99 216.4 222.06 216.02 222.06C215.62 222.06 215.34 221.98 215.17 221.83C215 221.68 214.91 221.49 214.9 221.26C214.93 221.26 215.07 221.26 215.33 221.26L215.33 221.26C215.37 221.41 215.4 221.51 215.44 221.55Z" id="a2qhBeC5VN"></path><path d="M219.66 220.06C219.75 220.18 219.81 220.31 219.84 220.46C219.87 220.57 219.88 220.73 219.88 220.96C219.68 220.96 218.13 220.96 217.94 220.96C217.95 221.19 218.01 221.38 218.13 221.52C218.25 221.65 218.43 221.72 218.68 221.72C218.91 221.72 219.1 221.66 219.23 221.53C219.31 221.45 219.37 221.36 219.4 221.26C219.44 221.26 219.79 221.26 219.84 221.26C219.83 221.35 219.79 221.44 219.72 221.54C219.66 221.64 219.59 221.73 219.5 221.79C219.37 221.9 219.2 221.98 219 222.02C218.9 222.04 218.78 222.05 218.64 222.05C218.31 222.05 218.03 221.95 217.8 221.74C217.57 221.54 217.46 221.25 217.46 220.88C217.46 220.52 217.57 220.22 217.81 220C218.04 219.77 218.34 219.66 218.71 219.66C218.9 219.66 219.08 219.69 219.26 219.77C219.43 219.84 219.57 219.94 219.66 220.06ZM219.29 220.26C219.17 220.08 218.97 219.99 218.68 219.99C218.48 219.99 218.31 220.05 218.17 220.18C218.03 220.3 217.96 220.46 217.95 220.66C218.05 220.66 218.54 220.66 219.42 220.66C219.38 220.46 219.34 220.33 219.29 220.26Z" id="aTMta6t7V"></path><path d="M222.54 220.47C222.5 220.47 222.15 220.47 222.11 220.47C222.08 220.33 222.02 220.21 221.93 220.12C221.83 220.03 221.68 219.98 221.47 219.98C221.19 219.98 220.98 220.1 220.86 220.34C220.78 220.49 220.74 220.68 220.74 220.9C220.74 221.13 220.8 221.32 220.91 221.48C221.02 221.63 221.2 221.71 221.44 221.71C221.63 221.71 221.77 221.66 221.88 221.56C221.99 221.47 222.07 221.34 222.11 221.17C222.15 221.17 222.5 221.17 222.54 221.17C222.49 221.47 222.37 221.69 222.17 221.83C221.97 221.97 221.72 222.03 221.41 222.03C221.06 222.03 220.78 221.93 220.57 221.71C220.37 221.49 220.26 221.22 220.26 220.9C220.26 220.5 220.37 220.19 220.6 219.97C220.83 219.75 221.12 219.64 221.47 219.64C221.77 219.64 222.02 219.7 222.2 219.83C222.39 219.95 222.51 220.17 222.54 220.47Z" id="a37R9G9vsG"></path><path d="M223.53 219.08L223.53 219.71L223.96 219.71L223.96 220.02L223.53 220.02C223.53 220.9 223.53 221.4 223.53 221.49C223.53 221.57 223.57 221.63 223.63 221.65C223.66 221.67 223.72 221.68 223.8 221.68C223.82 221.68 223.85 221.68 223.87 221.67C223.9 221.67 223.93 221.67 223.96 221.67C223.96 221.7 223.96 221.94 223.96 221.97C223.91 221.98 223.85 221.99 223.8 221.99C223.74 222 223.68 222 223.62 222C223.41 222 223.27 221.96 223.19 221.87C223.12 221.78 223.08 221.66 223.08 221.51C223.08 221.41 223.08 220.92 223.08 220.02L222.72 220.02L222.72 219.71L223.08 219.71L223.08 219.08L223.53 219.08Z" id="a3gff0QC5d"></path><path d="M226.46 220.06C226.54 220.18 226.6 220.31 226.63 220.46C226.66 220.57 226.67 220.73 226.67 220.96C226.48 220.96 224.93 220.96 224.73 220.96C224.74 221.19 224.81 221.38 224.92 221.52C225.04 221.65 225.23 221.72 225.47 221.72C225.71 221.72 225.89 221.66 226.03 221.53C226.11 221.45 226.16 221.36 226.2 221.26C226.24 221.26 226.59 221.26 226.63 221.26C226.62 221.35 226.58 221.44 226.52 221.54C226.45 221.64 226.38 221.73 226.3 221.79C226.16 221.9 226 221.98 225.8 222.02C225.69 222.04 225.57 222.05 225.44 222.05C225.11 222.05 224.83 221.95 224.6 221.74C224.37 221.54 224.25 221.25 224.25 220.88C224.25 220.52 224.37 220.22 224.6 220C224.83 219.77 225.14 219.66 225.51 219.66C225.69 219.66 225.88 219.69 226.05 219.77C226.23 219.84 226.36 219.94 226.46 220.06ZM226.09 220.26C225.96 220.08 225.76 219.99 225.48 219.99C225.27 219.99 225.1 220.05 224.96 220.18C224.83 220.3 224.75 220.46 224.74 220.66C224.84 220.66 225.33 220.66 226.21 220.66C226.17 220.46 226.13 220.33 226.09 220.26Z" id="b1Q0mCubPv"></path><path d="M227.78 219.08L227.78 219.71L228.21 219.71L228.21 220.02L227.78 220.02C227.78 220.9 227.78 221.4 227.78 221.49C227.78 221.57 227.81 221.63 227.88 221.65C227.91 221.67 227.97 221.68 228.05 221.68C228.07 221.68 228.1 221.68 228.12 221.67C228.14 221.67 228.17 221.67 228.21 221.67C228.21 221.7 228.21 221.94 228.21 221.97C228.15 221.98 228.1 221.99 228.05 221.99C227.99 222 227.93 222 227.87 222C227.66 222 227.51 221.96 227.44 221.87C227.37 221.78 227.33 221.66 227.33 221.51C227.33 221.41 227.33 220.92 227.33 220.02L226.97 220.02L226.97 219.71L227.33 219.71L227.33 219.08L227.33 219.08L227.78 219.08Z" id="c5Er2FMXbu"></path><path d="M229.1 221.21C229.1 221.32 229.12 221.42 229.16 221.49C229.24 221.63 229.39 221.7 229.6 221.7C229.9 221.7 230.11 221.58 230.22 221.34C230.28 221.21 230.31 221.04 230.31 220.82C230.31 220.75 230.31 220.38 230.31 219.71L230.76 219.71L230.76 221.97L230.33 221.97C230.34 221.77 230.34 221.66 230.34 221.64C230.28 221.72 230.21 221.8 230.13 221.86C229.96 221.98 229.76 222.03 229.52 222.03C229.14 222.03 228.89 221.93 228.75 221.71C228.68 221.6 228.65 221.44 228.65 221.25C228.65 221.15 228.65 220.63 228.65 219.71L229.1 219.71L229.1 219.71L229.1 219.71C229.1 220.61 229.1 221.11 229.1 221.21Z" id="b2fyDhajBQ"></path><path d="M231.93 219.71C231.93 219.94 231.93 220.07 231.93 220.1C231.96 220.02 232.05 219.93 232.18 219.82C232.32 219.71 232.47 219.66 232.65 219.66C232.66 219.66 232.67 219.66 232.69 219.66C232.71 219.66 232.75 219.66 232.8 219.67C232.8 219.71 232.8 220.03 232.8 220.07C232.77 220.06 232.74 220.06 232.72 220.06C232.7 220.06 232.67 220.06 232.65 220.06C232.42 220.06 232.25 220.12 232.13 220.24C232.01 220.37 231.95 220.51 231.95 220.67C231.95 220.76 231.95 221.19 231.95 221.97L231.5 221.97L231.5 219.71L231.5 219.71L231.93 219.71Z" id="bzDCOY2Zm"></path><path d="M236.24 220.49C236.25 220.46 236.26 220.41 236.26 220.34C236.26 220.21 236.21 220.12 236.1 220.06C235.99 220 235.84 219.97 235.64 219.97C235.4 219.97 235.24 220.03 235.14 220.14C235.08 220.2 235.05 220.28 235.03 220.4C234.99 220.4 234.66 220.4 234.61 220.4C234.62 220.12 234.73 219.93 234.93 219.82C235.13 219.71 235.37 219.65 235.64 219.65C235.96 219.65 236.21 219.7 236.41 219.8C236.6 219.91 236.7 220.06 236.7 220.28C236.7 220.41 236.7 221.45 236.7 221.58C236.7 221.62 236.71 221.65 236.72 221.68C236.74 221.7 236.78 221.71 236.84 221.71C236.87 221.71 236.89 221.71 236.91 221.71C236.94 221.71 236.96 221.71 236.99 221.7C236.99 221.73 236.99 221.95 236.99 221.98C236.92 222 236.87 222.01 236.83 222.01C236.8 222.02 236.75 222.02 236.68 222.02C236.53 222.02 236.42 221.97 236.35 221.88C236.31 221.83 236.29 221.76 236.27 221.67C236.18 221.77 236.05 221.86 235.88 221.94C235.71 222.01 235.52 222.05 235.31 222.05C235.07 222.05 234.87 221.98 234.71 221.86C234.55 221.73 234.47 221.57 234.47 221.38C234.47 221.17 234.55 221.01 234.7 220.89C234.86 220.78 235.06 220.7 235.31 220.68C235.36 220.67 235.6 220.65 236.03 220.6C236.14 220.57 236.21 220.53 236.24 220.49ZM235.42 221.72C235.58 221.72 235.73 221.69 235.88 221.63C236.13 221.53 236.25 221.36 236.25 221.13C236.25 221.1 236.25 220.85 236.25 220.82C236.2 220.85 236.13 220.88 236.04 220.89C235.95 220.91 235.87 220.93 235.79 220.94C235.76 220.94 235.55 220.96 235.52 220.97C235.36 220.98 235.24 221.01 235.15 221.05C235.02 221.12 234.95 221.22 234.95 221.37C234.94 221.48 234.99 221.57 235.09 221.63C235.18 221.69 235.29 221.72 235.42 221.72Z" id="k4gsqkj9os"></path><path d="M208.95 220.47C208.91 220.47 208.56 220.47 208.51 220.47C208.49 220.33 208.43 220.21 208.33 220.12C208.24 220.03 208.09 219.98 207.88 219.98C207.59 219.98 207.39 220.1 207.26 220.34C207.18 220.49 207.15 220.68 207.15 220.9C207.15 221.13 207.2 221.32 207.31 221.48C207.43 221.63 207.6 221.71 207.85 221.71C208.03 221.71 208.18 221.66 208.29 221.56C208.4 221.47 208.47 221.34 208.51 221.17C208.56 221.17 208.91 221.17 208.95 221.17C208.9 221.47 208.77 221.69 208.58 221.83C208.38 221.97 208.12 222.03 207.81 222.03C207.46 222.03 207.19 221.93 206.98 221.71C206.77 221.49 206.67 221.22 206.67 220.9C206.67 220.5 206.78 220.19 207.01 219.97C207.23 219.75 207.52 219.64 207.87 219.64C208.18 219.64 208.42 219.7 208.61 219.83C208.8 219.95 208.91 220.17 208.95 220.47Z" id="eDMjcn4uB"></path><path d="M211.68 220.79C211.68 221.16 211.58 221.46 211.37 221.69C211.16 221.93 210.84 222.05 210.4 222.05C210.04 222.05 209.75 221.95 209.54 221.74C209.32 221.53 209.22 221.24 209.22 220.89C209.22 220.51 209.33 220.21 209.55 219.98C209.78 219.76 210.08 219.64 210.46 219.64C210.8 219.64 211.09 219.74 211.33 219.93C211.56 220.13 211.68 220.41 211.68 220.79ZM211.21 220.8C211.21 220.59 211.18 220.42 211.1 220.29C210.97 220.08 210.76 219.97 210.45 219.97C210.18 219.97 209.98 220.06 209.86 220.24C209.74 220.42 209.68 220.63 209.68 220.88C209.68 221.12 209.74 221.32 209.86 221.48C209.98 221.64 210.18 221.72 210.45 221.72C210.74 221.72 210.94 221.63 211.05 221.44C211.16 221.25 211.21 221.03 211.21 220.8Z" id="e2gsQ5lb3"></path><path d="M212.66 219.71C212.66 219.9 212.66 220.01 212.66 220.03C212.78 219.9 212.92 219.8 213.06 219.74C213.2 219.69 213.35 219.66 213.53 219.66C213.9 219.66 214.16 219.77 214.29 219.99C214.37 220.12 214.4 220.29 214.4 220.52C214.4 220.62 214.4 221.1 214.4 221.97L213.95 221.97C213.95 221.12 213.95 220.64 213.95 220.54C213.95 220.41 213.92 220.3 213.87 220.21C213.8 220.07 213.65 220 213.44 220C213.34 220 213.25 220.01 213.18 220.03C213.06 220.06 212.95 220.12 212.86 220.21C212.78 220.29 212.73 220.36 212.71 220.45C212.69 220.53 212.68 220.64 212.68 220.79C212.68 220.87 212.68 221.26 212.68 221.97L212.23 221.97L212.23 219.71L212.66 219.71Z" id="e134sFnhaw"></path><path d="M215.44 221.55C215.56 221.67 215.76 221.74 216.04 221.74C216.21 221.74 216.36 221.71 216.49 221.64C216.62 221.58 216.68 221.49 216.68 221.36C216.68 221.26 216.63 221.19 216.53 221.14C216.46 221.11 216.33 221.07 216.14 221.03C216.1 221.02 215.82 220.96 215.78 220.95C215.55 220.91 215.38 220.85 215.27 220.8C215.07 220.69 214.97 220.55 214.97 220.37C214.97 220.15 215.07 219.98 215.25 219.85C215.44 219.72 215.68 219.65 215.99 219.65C216.4 219.65 216.69 219.75 216.87 219.95C216.99 220.08 217.04 220.21 217.04 220.36C217 220.36 216.66 220.36 216.62 220.36C216.61 220.28 216.57 220.2 216.51 220.13C216.4 220.03 216.22 219.98 215.96 219.98C215.79 219.98 215.65 220.01 215.57 220.06C215.48 220.12 215.43 220.19 215.43 220.28C215.43 220.38 215.49 220.45 215.61 220.51C215.67 220.55 215.77 220.58 215.91 220.61C215.94 220.61 216.18 220.66 216.21 220.67C216.54 220.73 216.75 220.8 216.87 220.86C217.04 220.96 217.13 221.11 217.13 221.32C217.13 221.52 217.04 221.69 216.85 221.84C216.67 221.99 216.4 222.06 216.02 222.06C215.62 222.06 215.34 221.98 215.17 221.83C215 221.68 214.91 221.49 214.9 221.26C214.93 221.26 215.07 221.26 215.33 221.26L215.33 221.26C215.37 221.41 215.4 221.51 215.44 221.55Z" id="adZaG3ayS"></path><path d="M219.66 220.06C219.75 220.18 219.81 220.31 219.84 220.46C219.87 220.57 219.88 220.73 219.88 220.96C219.68 220.96 218.13 220.96 217.94 220.96C217.95 221.19 218.01 221.38 218.13 221.52C218.25 221.65 218.43 221.72 218.68 221.72C218.91 221.72 219.1 221.66 219.23 221.53C219.31 221.45 219.37 221.36 219.4 221.26C219.44 221.26 219.79 221.26 219.84 221.26C219.83 221.35 219.79 221.44 219.72 221.54C219.66 221.64 219.59 221.73 219.5 221.79C219.37 221.9 219.2 221.98 219 222.02C218.9 222.04 218.78 222.05 218.64 222.05C218.31 222.05 218.03 221.95 217.8 221.74C217.57 221.54 217.46 221.25 217.46 220.88C217.46 220.52 217.57 220.22 217.81 220C218.04 219.77 218.34 219.66 218.71 219.66C218.9 219.66 219.08 219.69 219.26 219.77C219.43 219.84 219.57 219.94 219.66 220.06ZM219.29 220.26C219.17 220.08 218.97 219.99 218.68 219.99C218.48 219.99 218.31 220.05 218.17 220.18C218.03 220.3 217.96 220.46 217.95 220.66C218.05 220.66 218.54 220.66 219.42 220.66C219.38 220.46 219.34 220.33 219.29 220.26Z" id="f2SDiGZDRz"></path><path d="M222.54 220.47C222.5 220.47 222.15 220.47 222.11 220.47C222.08 220.33 222.02 220.21 221.93 220.12C221.83 220.03 221.68 219.98 221.47 219.98C221.19 219.98 220.98 220.1 220.86 220.34C220.78 220.49 220.74 220.68 220.74 220.9C220.74 221.13 220.8 221.32 220.91 221.48C221.02 221.63 221.2 221.71 221.44 221.71C221.63 221.71 221.77 221.66 221.88 221.56C221.99 221.47 222.07 221.34 222.11 221.17C222.15 221.17 222.5 221.17 222.54 221.17C222.49 221.47 222.37 221.69 222.17 221.83C221.97 221.97 221.72 222.03 221.41 222.03C221.06 222.03 220.78 221.93 220.57 221.71C220.37 221.49 220.26 221.22 220.26 220.9C220.26 220.5 220.37 220.19 220.6 219.97C220.83 219.75 221.12 219.64 221.47 219.64C221.77 219.64 222.02 219.7 222.2 219.83C222.39 219.95 222.51 220.17 222.54 220.47Z" id="cdVOS0w8L"></path><path d="M223.53 219.08L223.53 219.71L223.96 219.71L223.96 220.02L223.53 220.02C223.53 220.9 223.53 221.4 223.53 221.49C223.53 221.57 223.57 221.63 223.63 221.65C223.66 221.67 223.72 221.68 223.8 221.68C223.82 221.68 223.85 221.68 223.87 221.67C223.9 221.67 223.93 221.67 223.96 221.67C223.96 221.7 223.96 221.94 223.96 221.97C223.91 221.98 223.85 221.99 223.8 221.99C223.74 222 223.68 222 223.62 222C223.41 222 223.27 221.96 223.19 221.87C223.12 221.78 223.08 221.66 223.08 221.51C223.08 221.41 223.08 220.92 223.08 220.02L222.72 220.02L222.72 219.71L223.08 219.71L223.08 219.08L223.53 219.08Z" id="b4JakEL3l"></path><path d="M226.46 220.06C226.54 220.18 226.6 220.31 226.63 220.46C226.66 220.57 226.67 220.73 226.67 220.96C226.48 220.96 224.93 220.96 224.73 220.96C224.74 221.19 224.81 221.38 224.92 221.52C225.04 221.65 225.23 221.72 225.47 221.72C225.71 221.72 225.89 221.66 226.03 221.53C226.11 221.45 226.16 221.36 226.2 221.26C226.24 221.26 226.59 221.26 226.63 221.26C226.62 221.35 226.58 221.44 226.52 221.54C226.45 221.64 226.38 221.73 226.3 221.79C226.16 221.9 226 221.98 225.8 222.02C225.69 222.04 225.57 222.05 225.44 222.05C225.11 222.05 224.83 221.95 224.6 221.74C224.37 221.54 224.25 221.25 224.25 220.88C224.25 220.52 224.37 220.22 224.6 220C224.83 219.77 225.14 219.66 225.51 219.66C225.69 219.66 225.88 219.69 226.05 219.77C226.23 219.84 226.36 219.94 226.46 220.06ZM226.09 220.26C225.96 220.08 225.76 219.99 225.48 219.99C225.27 219.99 225.1 220.05 224.96 220.18C224.83 220.3 224.75 220.46 224.74 220.66C224.84 220.66 225.33 220.66 226.21 220.66C226.17 220.46 226.13 220.33 226.09 220.26Z" id="bs6hppnnQ"></path><path d="M227.78 219.08L227.78 219.71L228.21 219.71L228.21 220.02L227.78 220.02C227.78 220.9 227.78 221.4 227.78 221.49C227.78 221.57 227.81 221.63 227.88 221.65C227.91 221.67 227.97 221.68 228.05 221.68C228.07 221.68 228.1 221.68 228.12 221.67C228.14 221.67 228.17 221.67 228.21 221.67C228.21 221.7 228.21 221.94 228.21 221.97C228.15 221.98 228.1 221.99 228.05 221.99C227.99 222 227.93 222 227.87 222C227.66 222 227.51 221.96 227.44 221.87C227.37 221.78 227.33 221.66 227.33 221.51C227.33 221.41 227.33 220.92 227.33 220.02L226.97 220.02L226.97 219.71L227.33 219.71L227.33 219.08L227.33 219.08L227.78 219.08Z" id="a17l8nci54"></path><path d="M229.1 221.21C229.1 221.32 229.12 221.42 229.16 221.49C229.24 221.63 229.39 221.7 229.6 221.7C229.9 221.7 230.11 221.58 230.22 221.34C230.28 221.21 230.31 221.04 230.31 220.82C230.31 220.75 230.31 220.38 230.31 219.71L230.76 219.71L230.76 221.97L230.33 221.97C230.34 221.77 230.34 221.66 230.34 221.64C230.28 221.72 230.21 221.8 230.13 221.86C229.96 221.98 229.76 222.03 229.52 222.03C229.14 222.03 228.89 221.93 228.75 221.71C228.68 221.6 228.65 221.44 228.65 221.25C228.65 221.15 228.65 220.63 228.65 219.71L229.1 219.71L229.1 219.71L229.1 219.71C229.1 220.61 229.1 221.11 229.1 221.21Z" id="a2fwvtg9JC"></path><path d="M231.93 219.71C231.93 219.94 231.93 220.07 231.93 220.1C231.96 220.02 232.05 219.93 232.18 219.82C232.32 219.71 232.47 219.66 232.65 219.66C232.66 219.66 232.67 219.66 232.69 219.66C232.71 219.66 232.75 219.66 232.8 219.67C232.8 219.71 232.8 220.03 232.8 220.07C232.77 220.06 232.74 220.06 232.72 220.06C232.7 220.06 232.67 220.06 232.65 220.06C232.42 220.06 232.25 220.12 232.13 220.24C232.01 220.37 231.95 220.51 231.95 220.67C231.95 220.76 231.95 221.19 231.95 221.97L231.5 221.97L231.5 219.71L231.5 219.71L231.93 219.71Z" id="be9nkaMyH"></path><path d="M236.24 220.49C236.25 220.46 236.26 220.41 236.26 220.34C236.26 220.21 236.21 220.12 236.1 220.06C235.99 220 235.84 219.97 235.64 219.97C235.4 219.97 235.24 220.03 235.14 220.14C235.08 220.2 235.05 220.28 235.03 220.4C234.99 220.4 234.66 220.4 234.61 220.4C234.62 220.12 234.73 219.93 234.93 219.82C235.13 219.71 235.37 219.65 235.64 219.65C235.96 219.65 236.21 219.7 236.41 219.8C236.6 219.91 236.7 220.06 236.7 220.28C236.7 220.41 236.7 221.45 236.7 221.58C236.7 221.62 236.71 221.65 236.72 221.68C236.74 221.7 236.78 221.71 236.84 221.71C236.87 221.71 236.89 221.71 236.91 221.71C236.94 221.71 236.96 221.71 236.99 221.7C236.99 221.73 236.99 221.95 236.99 221.98C236.92 222 236.87 222.01 236.83 222.01C236.8 222.02 236.75 222.02 236.68 222.02C236.53 222.02 236.42 221.97 236.35 221.88C236.31 221.83 236.29 221.76 236.27 221.67C236.18 221.77 236.05 221.86 235.88 221.94C235.71 222.01 235.52 222.05 235.31 222.05C235.07 222.05 234.87 221.98 234.71 221.86C234.55 221.73 234.47 221.57 234.47 221.38C234.47 221.17 234.55 221.01 234.7 220.89C234.86 220.78 235.06 220.7 235.31 220.68C235.36 220.67 235.6 220.65 236.03 220.6C236.14 220.57 236.21 220.53 236.24 220.49ZM235.42 221.72C235.58 221.72 235.73 221.69 235.88 221.63C236.13 221.53 236.25 221.36 236.25 221.13C236.25 221.1 236.25 220.85 236.25 220.82C236.2 220.85 236.13 220.88 236.04 220.89C235.95 220.91 235.87 220.93 235.79 220.94C235.76 220.94 235.55 220.96 235.52 220.97C235.36 220.98 235.24 221.01 235.15 221.05C235.02 221.12 234.95 221.22 234.95 221.37C234.94 221.48 234.99 221.57 235.09 221.63C235.18 221.69 235.29 221.72 235.42 221.72Z" id="aOgHlCaHD"></path><path d="M207.31 224.06L207.31 224.49L206.85 224.49L206.85 224.06L207.31 224.06ZM207.31 224.91L207.31 227.16L206.85 227.16L206.85 224.91L207.31 224.91Z" id="bnxKZT3Fa"></path><path d="M208.38 224.91C208.38 225.09 208.38 225.19 208.38 225.21C208.47 225.1 208.57 225.02 208.68 224.97C208.83 224.88 209.01 224.84 209.21 224.84C209.51 224.84 209.77 224.94 209.98 225.14C210.19 225.33 210.3 225.61 210.3 225.98C210.3 226.47 210.15 226.82 209.84 227.03C209.65 227.17 209.43 227.23 209.17 227.23C208.97 227.23 208.8 227.19 208.66 227.12C208.58 227.08 208.49 227.01 208.4 226.9C208.4 226.98 208.4 227.37 208.4 228.06L207.95 228.06L207.95 224.91L208.38 224.91ZM209.84 226.01C209.84 225.83 209.81 225.68 209.75 225.55C209.63 225.3 209.42 225.18 209.11 225.18C208.8 225.18 208.58 225.31 208.47 225.57C208.41 225.71 208.38 225.89 208.38 226.11C208.38 226.28 208.41 226.43 208.47 226.55C208.59 226.79 208.8 226.9 209.11 226.9C209.32 226.9 209.49 226.83 209.63 226.68C209.77 226.53 209.84 226.31 209.84 226.01Z" id="b2MMA5w2hs"></path><path d="M211.27 224.06L211.27 224.49L210.82 224.49L210.82 224.06L211.27 224.06ZM211.27 224.91L211.27 227.16L210.82 227.16L210.82 224.91L211.27 224.91Z" id="bjQ6sY6q1"></path><path d="M212.33 226.74C212.44 226.86 212.64 226.93 212.93 226.93C213.1 226.93 213.24 226.89 213.37 226.83C213.5 226.77 213.57 226.68 213.57 226.55C213.57 226.45 213.51 226.38 213.41 226.33C213.35 226.3 213.22 226.26 213.02 226.22C212.99 226.21 212.7 226.15 212.66 226.14C212.43 226.1 212.26 226.04 212.15 225.98C211.95 225.88 211.86 225.74 211.86 225.56C211.86 225.34 211.95 225.17 212.13 225.04C212.32 224.91 212.56 224.84 212.88 224.84C213.28 224.84 213.58 224.94 213.76 225.14C213.87 225.27 213.92 225.4 213.92 225.55C213.88 225.55 213.54 225.55 213.5 225.55C213.49 225.46 213.45 225.39 213.39 225.32C213.28 225.22 213.1 225.17 212.84 225.17C212.67 225.17 212.54 225.19 212.45 225.25C212.36 225.31 212.31 225.38 212.31 225.47C212.31 225.56 212.37 225.64 212.49 225.7C212.56 225.74 212.66 225.77 212.79 225.79C212.82 225.8 213.06 225.85 213.09 225.86C213.42 225.92 213.64 225.99 213.75 226.05C213.92 226.14 214.01 226.3 214.01 226.51C214.01 226.71 213.92 226.88 213.74 227.03C213.55 227.17 213.28 227.25 212.9 227.25C212.5 227.25 212.22 227.17 212.05 227.02C211.88 226.86 211.8 226.68 211.78 226.45C211.81 226.45 211.96 226.45 212.21 226.45C212.25 226.6 212.29 226.7 212.33 226.74Z" id="fU4fonZ9"></path><path d="M216.59 225.66C216.55 225.66 216.2 225.66 216.16 225.66C216.13 225.52 216.07 225.4 215.98 225.31C215.88 225.22 215.73 225.17 215.52 225.17C215.24 225.17 215.03 225.29 214.91 225.53C214.83 225.68 214.79 225.87 214.79 226.09C214.79 226.32 214.85 226.51 214.96 226.66C215.07 226.82 215.25 226.9 215.49 226.9C215.68 226.9 215.82 226.85 215.93 226.75C216.04 226.66 216.12 226.52 216.16 226.36C216.2 226.36 216.55 226.36 216.59 226.36C216.54 226.66 216.42 226.88 216.22 227.02C216.02 227.15 215.77 227.22 215.46 227.22C215.11 227.22 214.83 227.12 214.62 226.9C214.42 226.68 214.31 226.41 214.31 226.09C214.31 225.69 214.43 225.38 214.65 225.16C214.88 224.94 215.17 224.83 215.52 224.83C215.82 224.83 216.07 224.89 216.25 225.02C216.44 225.14 216.56 225.35 216.59 225.66Z" id="c1fqaGSGcp"></path><path d="M217.5 224.06L217.5 224.49L217.04 224.49L217.04 224.06L217.5 224.06ZM217.5 224.91L217.5 227.16L217.04 227.16L217.04 224.91L217.5 224.91Z" id="bMt3FG5cQ"></path><path d="M218.6 224.9C218.6 225.09 218.6 225.2 218.6 225.22C218.72 225.08 218.86 224.99 219 224.93C219.14 224.88 219.3 224.85 219.47 224.85C219.85 224.85 220.1 224.96 220.24 225.18C220.31 225.31 220.35 225.48 220.35 225.71C220.35 225.8 220.35 226.29 220.35 227.16L219.89 227.16C219.89 226.3 219.89 225.83 219.89 225.73C219.89 225.6 219.87 225.49 219.82 225.4C219.74 225.26 219.59 225.19 219.39 225.19C219.28 225.19 219.19 225.2 219.12 225.22C219 225.25 218.89 225.31 218.8 225.4C218.73 225.48 218.68 225.55 218.65 225.64C218.63 225.71 218.62 225.83 218.62 225.98C218.62 226.06 218.62 226.45 218.62 227.16L218.17 227.16L218.17 224.9L218.6 224.9Z" id="b8q2aNGJM"></path><path d="M222.75 225.2C222.75 225.18 222.75 225.09 222.75 224.92L223.16 224.92C223.16 226.15 223.16 226.84 223.16 226.98C223.16 227.26 223.11 227.49 223.01 227.66C222.83 227.96 222.48 228.12 221.96 228.12C221.68 228.12 221.44 228.06 221.24 227.95C221.05 227.85 220.94 227.67 220.91 227.44C220.96 227.44 221.32 227.44 221.37 227.44C221.39 227.54 221.43 227.62 221.5 227.68C221.6 227.76 221.76 227.8 221.97 227.8C222.31 227.8 222.54 227.7 222.64 227.49C222.7 227.37 222.73 227.16 222.73 226.85C222.64 226.96 222.53 227.05 222.41 227.1C222.28 227.16 222.12 227.19 221.91 227.19C221.62 227.19 221.37 227.1 221.16 226.93C220.94 226.76 220.83 226.47 220.83 226.07C220.83 225.69 220.94 225.39 221.16 225.18C221.37 224.96 221.64 224.86 221.94 224.86C222.15 224.86 222.33 224.9 222.49 224.99C222.57 225.04 222.66 225.11 222.75 225.2ZM222.03 225.19C221.71 225.19 221.5 225.32 221.38 225.57C221.32 225.7 221.29 225.88 221.29 226.09C221.29 226.35 221.35 226.54 221.47 226.68C221.59 226.81 221.76 226.88 221.96 226.88C222.28 226.88 222.51 226.75 222.64 226.51C222.71 226.37 222.75 226.2 222.75 226.02C222.75 225.74 222.68 225.53 222.54 225.4C222.41 225.26 222.24 225.19 222.03 225.19Z" id="a81iVcAGn"></path><path d="M227.3 225.25C227.39 225.37 227.45 225.5 227.48 225.65C227.51 225.75 227.52 225.92 227.52 226.15C227.33 226.15 225.78 226.15 225.58 226.15C225.59 226.38 225.66 226.56 225.77 226.7C225.89 226.84 226.07 226.91 226.32 226.91C226.56 226.91 226.74 226.85 226.88 226.71C226.96 226.64 227.01 226.55 227.04 226.45C227.09 226.45 227.44 226.45 227.48 226.45C227.47 226.53 227.43 226.62 227.37 226.73C227.3 226.83 227.23 226.91 227.15 226.97C227.01 227.09 226.85 227.16 226.65 227.2C226.54 227.22 226.42 227.23 226.28 227.23C225.96 227.23 225.68 227.13 225.45 226.93C225.22 226.72 225.1 226.44 225.1 226.07C225.1 225.7 225.22 225.41 225.45 225.18C225.68 224.95 225.98 224.84 226.36 224.84C226.54 224.85 226.72 224.88 226.9 224.96C227.08 225.03 227.21 225.13 227.3 225.25ZM226.93 225.45C226.81 225.27 226.61 225.18 226.32 225.18C226.12 225.18 225.95 225.24 225.81 225.37C225.67 225.49 225.6 225.65 225.59 225.85C225.69 225.85 226.18 225.85 227.06 225.85C227.02 225.65 226.98 225.52 226.93 225.45Z" id="i15lomOG4p"></path><path d="M228.55 224.06L228.55 227.16L228.1 227.16L228.1 224.06L228.55 224.06Z" id="b7MgYLpZpg"></path><path d="M229.67 224.06L229.67 224.49L229.22 224.49L229.22 224.06L229.67 224.06ZM229.67 224.91L229.67 227.16L229.22 227.16L229.22 224.91L229.67 224.91Z" id="c1qZcjXYbY"></path><path d="M230.89 224.27L230.89 224.9L231.32 224.9L231.32 225.21L230.89 225.21C230.89 226.1 230.89 226.59 230.89 226.69C230.89 226.76 230.93 226.82 230.99 226.84C231.02 226.86 231.08 226.87 231.16 226.87C231.18 226.87 231.21 226.86 231.23 226.86C231.25 226.86 231.29 226.86 231.32 226.86C231.32 226.89 231.32 227.13 231.32 227.16C231.27 227.17 231.21 227.18 231.16 227.19C231.1 227.19 231.04 227.19 230.98 227.19C230.77 227.19 230.63 227.15 230.55 227.06C230.48 226.97 230.44 226.85 230.44 226.71C230.44 226.61 230.44 226.11 230.44 225.21L230.08 225.21L230.08 224.9L230.44 224.9L230.44 224.27L230.44 224.27L230.89 224.27Z" id="b7afI6Joh"></path><path d="M232.39 226.7L232.39 227.16L231.87 227.16L231.87 226.7L232.39 226.7Z" id="ekk7fumx6"></path><path d="M207.31 224.06L207.31 224.49L206.85 224.49L206.85 224.06L207.31 224.06ZM207.31 224.91L207.31 227.16L206.85 227.16L206.85 224.91L207.31 224.91Z" id="ae5MrGNhM"></path><path d="M208.38 224.91C208.38 225.09 208.38 225.19 208.38 225.21C208.47 225.1 208.57 225.02 208.68 224.97C208.83 224.88 209.01 224.84 209.21 224.84C209.51 224.84 209.77 224.94 209.98 225.14C210.19 225.33 210.3 225.61 210.3 225.98C210.3 226.47 210.15 226.82 209.84 227.03C209.65 227.17 209.43 227.23 209.17 227.23C208.97 227.23 208.8 227.19 208.66 227.12C208.58 227.08 208.49 227.01 208.4 226.9C208.4 226.98 208.4 227.37 208.4 228.06L207.95 228.06L207.95 224.91L208.38 224.91ZM209.84 226.01C209.84 225.83 209.81 225.68 209.75 225.55C209.63 225.3 209.42 225.18 209.11 225.18C208.8 225.18 208.58 225.31 208.47 225.57C208.41 225.71 208.38 225.89 208.38 226.11C208.38 226.28 208.41 226.43 208.47 226.55C208.59 226.79 208.8 226.9 209.11 226.9C209.32 226.9 209.49 226.83 209.63 226.68C209.77 226.53 209.84 226.31 209.84 226.01Z" id="c4nbE4CKcv"></path><path d="M211.27 224.06L211.27 224.49L210.82 224.49L210.82 224.06L211.27 224.06ZM211.27 224.91L211.27 227.16L210.82 227.16L210.82 224.91L211.27 224.91Z" id="a1KZZw3baV"></path><path d="M212.33 226.74C212.44 226.86 212.64 226.93 212.93 226.93C213.1 226.93 213.24 226.89 213.37 226.83C213.5 226.77 213.57 226.68 213.57 226.55C213.57 226.45 213.51 226.38 213.41 226.33C213.35 226.3 213.22 226.26 213.02 226.22C212.99 226.21 212.7 226.15 212.66 226.14C212.43 226.1 212.26 226.04 212.15 225.98C211.95 225.88 211.86 225.74 211.86 225.56C211.86 225.34 211.95 225.17 212.13 225.04C212.32 224.91 212.56 224.84 212.88 224.84C213.28 224.84 213.58 224.94 213.76 225.14C213.87 225.27 213.92 225.4 213.92 225.55C213.88 225.55 213.54 225.55 213.5 225.55C213.49 225.46 213.45 225.39 213.39 225.32C213.28 225.22 213.1 225.17 212.84 225.17C212.67 225.17 212.54 225.19 212.45 225.25C212.36 225.31 212.31 225.38 212.31 225.47C212.31 225.56 212.37 225.64 212.49 225.7C212.56 225.74 212.66 225.77 212.79 225.79C212.82 225.8 213.06 225.85 213.09 225.86C213.42 225.92 213.64 225.99 213.75 226.05C213.92 226.14 214.01 226.3 214.01 226.51C214.01 226.71 213.92 226.88 213.74 227.03C213.55 227.17 213.28 227.25 212.9 227.25C212.5 227.25 212.22 227.17 212.05 227.02C211.88 226.86 211.8 226.68 211.78 226.45C211.81 226.45 211.96 226.45 212.21 226.45C212.25 226.6 212.29 226.7 212.33 226.74Z" id="a2liSMehgP"></path><path d="M216.59 225.66C216.55 225.66 216.2 225.66 216.16 225.66C216.13 225.52 216.07 225.4 215.98 225.31C215.88 225.22 215.73 225.17 215.52 225.17C215.24 225.17 215.03 225.29 214.91 225.53C214.83 225.68 214.79 225.87 214.79 226.09C214.79 226.32 214.85 226.51 214.96 226.66C215.07 226.82 215.25 226.9 215.49 226.9C215.68 226.9 215.82 226.85 215.93 226.75C216.04 226.66 216.12 226.52 216.16 226.36C216.2 226.36 216.55 226.36 216.59 226.36C216.54 226.66 216.42 226.88 216.22 227.02C216.02 227.15 215.77 227.22 215.46 227.22C215.11 227.22 214.83 227.12 214.62 226.9C214.42 226.68 214.31 226.41 214.31 226.09C214.31 225.69 214.43 225.38 214.65 225.16C214.88 224.94 215.17 224.83 215.52 224.83C215.82 224.83 216.07 224.89 216.25 225.02C216.44 225.14 216.56 225.35 216.59 225.66Z" id="f37nvlzrp"></path><path d="M217.5 224.06L217.5 224.49L217.04 224.49L217.04 224.06L217.5 224.06ZM217.5 224.91L217.5 227.16L217.04 227.16L217.04 224.91L217.5 224.91Z" id="b23hJACVG5"></path><path d="M218.6 224.9C218.6 225.09 218.6 225.2 218.6 225.22C218.72 225.08 218.86 224.99 219 224.93C219.14 224.88 219.3 224.85 219.47 224.85C219.85 224.85 220.1 224.96 220.24 225.18C220.31 225.31 220.35 225.48 220.35 225.71C220.35 225.8 220.35 226.29 220.35 227.16L219.89 227.16C219.89 226.3 219.89 225.83 219.89 225.73C219.89 225.6 219.87 225.49 219.82 225.4C219.74 225.26 219.59 225.19 219.39 225.19C219.28 225.19 219.19 225.2 219.12 225.22C219 225.25 218.89 225.31 218.8 225.4C218.73 225.48 218.68 225.55 218.65 225.64C218.63 225.71 218.62 225.83 218.62 225.98C218.62 226.06 218.62 226.45 218.62 227.16L218.17 227.16L218.17 224.9L218.6 224.9Z" id="a3AXjxXMFX"></path><path d="M222.75 225.2C222.75 225.18 222.75 225.09 222.75 224.92L223.16 224.92C223.16 226.15 223.16 226.84 223.16 226.98C223.16 227.26 223.11 227.49 223.01 227.66C222.83 227.96 222.48 228.12 221.96 228.12C221.68 228.12 221.44 228.06 221.24 227.95C221.05 227.85 220.94 227.67 220.91 227.44C220.96 227.44 221.32 227.44 221.37 227.44C221.39 227.54 221.43 227.62 221.5 227.68C221.6 227.76 221.76 227.8 221.97 227.8C222.31 227.8 222.54 227.7 222.64 227.49C222.7 227.37 222.73 227.16 222.73 226.85C222.64 226.96 222.53 227.05 222.41 227.1C222.28 227.16 222.12 227.19 221.91 227.19C221.62 227.19 221.37 227.1 221.16 226.93C220.94 226.76 220.83 226.47 220.83 226.07C220.83 225.69 220.94 225.39 221.16 225.18C221.37 224.96 221.64 224.86 221.94 224.86C222.15 224.86 222.33 224.9 222.49 224.99C222.57 225.04 222.66 225.11 222.75 225.2ZM222.03 225.19C221.71 225.19 221.5 225.32 221.38 225.57C221.32 225.7 221.29 225.88 221.29 226.09C221.29 226.35 221.35 226.54 221.47 226.68C221.59 226.81 221.76 226.88 221.96 226.88C222.28 226.88 222.51 226.75 222.64 226.51C222.71 226.37 222.75 226.2 222.75 226.02C222.75 225.74 222.68 225.53 222.54 225.4C222.41 225.26 222.24 225.19 222.03 225.19Z" id="a1QGF4MY2g"></path><path d="M227.3 225.25C227.39 225.37 227.45 225.5 227.48 225.65C227.51 225.75 227.52 225.92 227.52 226.15C227.33 226.15 225.78 226.15 225.58 226.15C225.59 226.38 225.66 226.56 225.77 226.7C225.89 226.84 226.07 226.91 226.32 226.91C226.56 226.91 226.74 226.85 226.88 226.71C226.96 226.64 227.01 226.55 227.04 226.45C227.09 226.45 227.44 226.45 227.48 226.45C227.47 226.53 227.43 226.62 227.37 226.73C227.3 226.83 227.23 226.91 227.15 226.97C227.01 227.09 226.85 227.16 226.65 227.2C226.54 227.22 226.42 227.23 226.28 227.23C225.96 227.23 225.68 227.13 225.45 226.93C225.22 226.72 225.1 226.44 225.1 226.07C225.1 225.7 225.22 225.41 225.45 225.18C225.68 224.95 225.98 224.84 226.36 224.84C226.54 224.85 226.72 224.88 226.9 224.96C227.08 225.03 227.21 225.13 227.3 225.25ZM226.93 225.45C226.81 225.27 226.61 225.18 226.32 225.18C226.12 225.18 225.95 225.24 225.81 225.37C225.67 225.49 225.6 225.65 225.59 225.85C225.69 225.85 226.18 225.85 227.06 225.85C227.02 225.65 226.98 225.52 226.93 225.45Z" id="a4xnhoNhpU"></path><path d="M228.55 224.06L228.55 227.16L228.1 227.16L228.1 224.06L228.55 224.06Z" id="akbJTiFsm"></path><path d="M229.67 224.06L229.67 224.49L229.22 224.49L229.22 224.06L229.67 224.06ZM229.67 224.91L229.67 227.16L229.22 227.16L229.22 224.91L229.67 224.91Z" id="a1sCpxnrpp"></path><path d="M230.89 224.27L230.89 224.9L231.32 224.9L231.32 225.21L230.89 225.21C230.89 226.1 230.89 226.59 230.89 226.69C230.89 226.76 230.93 226.82 230.99 226.84C231.02 226.86 231.08 226.87 231.16 226.87C231.18 226.87 231.21 226.86 231.23 226.86C231.25 226.86 231.29 226.86 231.32 226.86C231.32 226.89 231.32 227.13 231.32 227.16C231.27 227.17 231.21 227.18 231.16 227.19C231.1 227.19 231.04 227.19 230.98 227.19C230.77 227.19 230.63 227.15 230.55 227.06C230.48 226.97 230.44 226.85 230.44 226.71C230.44 226.61 230.44 226.11 230.44 225.21L230.08 225.21L230.08 224.9L230.44 224.9L230.44 224.27L230.44 224.27L230.89 224.27Z" id="cfyyDc4Wo"></path><path d="M232.39 226.7L232.39 227.16L231.87 227.16L231.87 226.7L232.39 226.7Z" id="b4i7dYsJWB"></path><path d="M203 205.19C203.2 204.77 203.5 204.45 203.96 204.24C215.7 204.24 227.48 204.24 239.27 204.24C240.3 204.07 240.8 204.94 240.8 205.79C240.81 210.87 240.8 215.95 240.8 221.03C240.8 224.14 240.81 227.24 240.8 230.35C240.8 230.68 240.75 231.01 240.72 231.31C240.39 231.68 240.1 232.03 239.61 232.08C239.51 232.09 239.43 232.15 239.34 232.16C239.23 232.17 239.13 232.16 239.03 232.16C227.57 232.16 216.11 232.16 204.65 232.17C204.07 232.17 203.57 232.02 203.19 231.56C203.12 231.48 203.09 231.36 203 231.19C203 222.54 203 213.86 203 205.19ZM205.7 229.34C207.93 229.43 237.58 229.39 238.1 229.3C238.1 221.84 238.1 214.39 238.1 206.93C227.29 206.93 216.51 206.93 205.7 206.93C205.7 214.44 205.7 221.89 205.7 229.34Z" id="e63B2combX"></path><path d="M287.77 269.03C285.7 269.03 284.02 270.7 284.02 272.77C284.02 274.84 285.7 276.52 287.77 276.52C289.84 276.52 291.51 274.84 291.51 272.77C291.51 270.7 289.84 269.03 287.77 269.03Z" id="ajHOuQU0e"></path><path d="M295.95 262.37C293.88 262.37 292.21 264.05 292.21 266.12C292.21 268.18 293.88 269.86 295.95 269.86C298.02 269.86 299.7 268.18 299.7 266.12C299.7 264.05 298.02 262.37 295.95 262.37Z" id="b10QzJlXwE"></path><path d="M270.51 264.71C268.45 264.71 266.77 266.39 266.77 268.46C266.77 270.52 268.45 272.2 270.51 272.2C272.58 272.2 274.26 270.52 274.26 268.46C274.26 266.39 272.58 264.71 270.51 264.71Z" id="bMqmXH9e"></path><path d="M270.51 268.46L282.67 260.85L287.77 272.77" id="e1mwgXS5ly"></path><path d="M295.95 266.12L282.67 260.85" id="a5XSRQdmG2"></path><path d="M295.95 250.08C293.88 250.08 292.21 251.76 292.21 253.83C292.21 255.89 293.88 257.57 295.95 257.57C298.02 257.57 299.7 255.89 299.7 253.83C299.7 251.76 298.02 250.08 295.95 250.08Z" id="a2x5sUpslI"></path><path d="M281.98 261.28L295.95 253.83" id="bb2yIpWoo"></path><path d="M271.97 235.9C269.9 235.9 268.23 237.58 268.23 239.64C268.23 241.71 269.9 243.39 271.97 243.39C274.04 243.39 275.72 241.71 275.72 239.64C275.72 237.58 274.04 235.9 271.97 235.9Z" id="a3bAJ85LKc"></path><path d="M264.01 243.92C261.94 243.92 260.26 245.6 260.26 247.67C260.26 249.74 261.94 251.41 264.01 251.41C266.08 251.41 267.75 249.74 267.75 247.67C267.75 245.6 266.08 243.92 264.01 243.92Z" id="dei6i9IOs"></path><path d="M289.36 239.65C287.29 239.65 285.61 241.32 285.61 243.39C285.61 245.46 287.29 247.13 289.36 247.13C291.42 247.13 293.1 245.46 293.1 243.39C293.1 241.32 291.42 239.65 289.36 239.65Z" id="eeDD8sP2K"></path><path d="M289.36 243.39L277.45 251.4L271.97 239.64" id="a55L6YDqNv"></path><path d="M264.01 246.56L277.45 251.4" id="dahRmNFEyZ"></path><path d="M264.71 256.21C262.64 256.21 260.96 257.88 260.96 259.95C260.96 262.02 262.64 263.7 264.71 263.7C266.77 263.7 268.45 262.02 268.45 259.95C268.45 257.88 266.77 256.21 264.71 256.21Z" id="a10sHKZ2HM"></path><path d="M278.13 250.94L264.41 258.85" id="c2u6E2e9RU"></path><path d="M277.45 251.4L282.67 260.85" id="cB7QOEYbK"></path><path d="M278.15 252.61L282.65 260.85" id="aVXepwL7n"></path><path d="M282.67 256.24C280.12 256.24 278.06 258.3 278.06 260.85C278.06 263.39 280.12 265.46 282.67 265.46C285.22 265.46 287.28 263.39 287.28 260.85C287.28 258.3 285.22 256.24 282.67 256.24Z" id="dYAnAle2S"></path><path d="M277.45 246.78C274.91 246.78 272.84 248.85 272.84 251.39C272.84 253.94 274.91 256.01 277.45 256.01C280 256.01 282.06 253.94 282.06 251.39C282.06 248.85 280 246.78 277.45 246.78Z" id="f4vaNIZfIE"></path><path d="M249.25 241.17L257.59 241.28L253.33 234.12L252.03 236.35L245.35 232.49L243.85 235.08L250.54 238.94L249.25 241.17Z" id="blOORov9m"></path></defs><g><g><use xlink:href="#i1YbQt4oiU" opacity="1" fill="#000000" fill-opacity="0"></use><g><use xlink:href="#i1YbQt4oiU" opacity="1" fill-opacity="0" stroke="#000000" stroke-width="1" stroke-opacity="0"></use></g></g><g><use xlink:href="#e19FytsrFD" opacity="1" fill="#e8e8e8" fill-opacity="1"></use><g><use xlink:href="#e19FytsrFD" opacity="1" fill-opacity="0" stroke="#000000" stroke-width="1" stroke-opacity="0"></use></g></g><g><use xlink:href="#cdvMx54il" opacity="1" fill="#707070" fill-opacity="1"></use><g><use xlink:href="#cdvMx54il" opacity="1" fill-opacity="0" stroke="#000000" stroke-width="1" stroke-opacity="0"></use></g></g><g><use xlink:href="#c2f26VGHK0" opacity="1" fill="#707070" fill-opacity="1"></use><g><use xlink:href="#c2f26VGHK0" opacity="1" fill-opacity="0" stroke="#000000" stroke-width="1" stroke-opacity="0"></use></g></g><g><use xlink:href="#cHbv9TTVz" opacity="1" fill="#707070" fill-opacity="1"></use><g><use xlink:href="#cHbv9TTVz" opacity="1" fill-opacity="0" stroke="#000000" stroke-width="1" stroke-opacity="0"></use></g></g><g><use xlink:href="#avwfgPFAY" opacity="1" fill="#707070" fill-opacity="1"></use><g><use xlink:href="#avwfgPFAY" opacity="1" fill-opacity="0" stroke="#000000" stroke-width="1" stroke-opacity="0"></use></g></g><g><use xlink:href="#b1yeQP0x6T" opacity="1" fill="#707070" fill-opacity="1"></use><g><use xlink:href="#b1yeQP0x6T" opacity="1" fill-opacity="0" stroke="#000000" stroke-width="1" stroke-opacity="0"></use></g></g><g><use xlink:href="#cJgu4yX5M" opacity="1" fill="#707070" fill-opacity="1"></use><g><use xlink:href="#cJgu4yX5M" opacity="1" fill-opacity="0" stroke="#000000" stroke-width="1" stroke-opacity="0"></use></g></g><g><use xlink:href="#a2DpBi1Pr8" opacity="1" fill="#707070" fill-opacity="1"></use><g><use xlink:href="#a2DpBi1Pr8" opacity="1" fill-opacity="0" stroke="#000000" stroke-width="1" stroke-opacity="0"></use></g></g><g><use xlink:href="#d1iokE4DQs" opacity="1" fill="#707070" fill-opacity="1"></use><g><use xlink:href="#d1iokE4DQs" opacity="1" fill-opacity="0" stroke="#000000" stroke-width="1" stroke-opacity="0"></use></g></g><g><use xlink:href="#a1p2czDfiY" opacity="1" fill="#707070" fill-opacity="1"></use><g><use xlink:href="#a1p2czDfiY" opacity="1" fill-opacity="0" stroke="#000000" stroke-width="1" stroke-opacity="0"></use></g></g><g><use xlink:href="#b1eEKs8Wvo" opacity="1" fill="#707070" fill-opacity="1"></use><g><use xlink:href="#b1eEKs8Wvo" opacity="1" fill-opacity="0" stroke="#000000" stroke-width="1" stroke-opacity="0"></use></g></g><g><use xlink:href="#b1jAxD5DJm" opacity="1" fill="#000000" fill-opacity="0"></use><g><use xlink:href="#b1jAxD5DJm" opacity="1" fill-opacity="0" stroke="#707070" stroke-width="0.25" stroke-opacity="1"></use></g></g><g><use xlink:href="#aQNaSPTpk" opacity="1" fill="#000000" fill-opacity="0"></use><g><use xlink:href="#aQNaSPTpk" opacity="1" fill-opacity="0" stroke="#707070" stroke-width="0.25" stroke-opacity="1"></use></g></g><g><use xlink:href="#a1d1tzS6E" opacity="1" fill="#000000" fill-opacity="0"></use><g><use xlink:href="#a1d1tzS6E" opacity="1" fill-opacity="0" stroke="#707070" stroke-width="0.25" stroke-opacity="1"></use></g></g><g><use xlink:href="#fLUt4cbj8" opacity="1" fill="#000000" fill-opacity="0"></use><g><use xlink:href="#fLUt4cbj8" opacity="1" fill-opacity="0" stroke="#707070" stroke-width="0.25" stroke-opacity="1"></use></g></g><g><use xlink:href="#a8eHNHduZ" opacity="1" fill="#000000" fill-opacity="0"></use><g><use xlink:href="#a8eHNHduZ" opacity="1" fill-opacity="0" stroke="#707070" stroke-width="0.25" stroke-opacity="1"></use></g></g><g><use xlink:href="#g5LA7EV4E5" opacity="1" fill="#000000" fill-opacity="0"></use><g><use xlink:href="#g5LA7EV4E5" opacity="1" fill-opacity="0" stroke="#707070" stroke-width="0.25" stroke-opacity="1"></use></g></g><g><use xlink:href="#b15s29uO5m" opacity="1" fill="#000000" fill-opacity="0"></use><g><use xlink:href="#b15s29uO5m" opacity="1" fill-opacity="0" stroke="#707070" stroke-width="0.25" stroke-opacity="1"></use></g></g><g><use xlink:href="#a3mHjEvqx" opacity="1" fill="#000000" fill-opacity="0"></use><g><use xlink:href="#a3mHjEvqx" opacity="1" fill-opacity="0" stroke="#707070" stroke-width="0.25" stroke-opacity="1"></use></g></g><g><use xlink:href="#bkwANNgBS" opacity="1" fill="#000000" fill-opacity="0"></use><g><use xlink:href="#bkwANNgBS" opacity="1" fill-opacity="0" stroke="#707070" stroke-width="0.25" stroke-opacity="1"></use></g></g><g><use xlink:href="#bvLtvMbYk" opacity="1" fill="#000000" fill-opacity="0"></use><g><use xlink:href="#bvLtvMbYk" opacity="1" fill-opacity="0" stroke="#707070" stroke-width="0.25" stroke-opacity="1"></use></g></g><g><use xlink:href="#axAZPtgcn" opacity="1" fill="#707070" fill-opacity="1"></use><g><use xlink:href="#axAZPtgcn" opacity="1" fill-opacity="0" stroke="#000000" stroke-width="1" stroke-opacity="0"></use></g></g><g><use xlink:href="#b3tzVv5HN" opacity="1" fill="#707070" fill-opacity="1"></use><g><use xlink:href="#b3tzVv5HN" opacity="1" fill-opacity="0" stroke="#000000" stroke-width="1" stroke-opacity="0"></use></g></g><g><use xlink:href="#dJXB2v8x9" opacity="1" fill="#707070" fill-opacity="1"></use><g><use xlink:href="#dJXB2v8x9" opacity="1" fill-opacity="0" stroke="#000000" stroke-width="1" stroke-opacity="0"></use></g></g><g><use xlink:href="#duZ8Kxzt" opacity="1" fill="#707070" fill-opacity="1"></use><g><use xlink:href="#duZ8Kxzt" opacity="1" fill-opacity="0" stroke="#000000" stroke-width="1" stroke-opacity="0"></use></g></g><g><use xlink:href="#e1geDzZW5y" opacity="1" fill="#707070" fill-opacity="1"></use><g><use xlink:href="#e1geDzZW5y" opacity="1" fill-opacity="0" stroke="#000000" stroke-width="1" stroke-opacity="0"></use></g></g><g><use xlink:href="#b1zotwfhz1" opacity="1" fill="#707070" fill-opacity="1"></use><g><use xlink:href="#b1zotwfhz1" opacity="1" fill-opacity="0" stroke="#000000" stroke-width="1" stroke-opacity="0"></use></g></g><g><use xlink:href="#a1tIL7S9cF" opacity="1" fill="#707070" fill-opacity="1"></use><g><use xlink:href="#a1tIL7S9cF" opacity="1" fill-opacity="0" stroke="#000000" stroke-width="1" stroke-opacity="0"></use></g></g><g><use xlink:href="#dulPJzKZA" opacity="1" fill="#707070" fill-opacity="1"></use><g><use xlink:href="#dulPJzKZA" opacity="1" fill-opacity="0" stroke="#000000" stroke-width="1" stroke-opacity="0"></use></g></g><g><use xlink:href="#a3cKLBcXlB" opacity="1" fill="#707070" fill-opacity="1"></use><g><use xlink:href="#a3cKLBcXlB" opacity="1" fill-opacity="0" stroke="#000000" stroke-width="1" stroke-opacity="0"></use></g></g><g><use xlink:href="#a1ZDg3rgKL" opacity="1" fill="#707070" fill-opacity="1"></use><g><use xlink:href="#a1ZDg3rgKL" opacity="1" fill-opacity="0" stroke="#000000" stroke-width="1" stroke-opacity="0"></use></g></g><g><use xlink:href="#c1fJOOdzFG" opacity="1" fill="#707070" fill-opacity="1"></use><g><use xlink:href="#c1fJOOdzFG" opacity="1" fill-opacity="0" stroke="#000000" stroke-width="1" stroke-opacity="0"></use></g></g><g><use xlink:href="#b6LKYvOe9n" opacity="1" fill="#707070" fill-opacity="1"></use><g><use xlink:href="#b6LKYvOe9n" opacity="1" fill-opacity="0" stroke="#000000" stroke-width="1" stroke-opacity="0"></use></g></g><g><use xlink:href="#aep2pa0sj" opacity="1" fill="#000000" fill-opacity="0"></use><g><use xlink:href="#aep2pa0sj" opacity="1" fill-opacity="0" stroke="#707070" stroke-width="0.25" stroke-opacity="1"></use></g></g><g><use xlink:href="#ab5uRSx7iw" opacity="1" fill="#000000" fill-opacity="0"></use><g><use xlink:href="#ab5uRSx7iw" opacity="1" fill-opacity="0" stroke="#707070" stroke-width="0.25" stroke-opacity="1"></use></g></g><g><use xlink:href="#a2gyUYiLNs" opacity="1" fill="#000000" fill-opacity="0"></use><g><use xlink:href="#a2gyUYiLNs" opacity="1" fill-opacity="0" stroke="#707070" stroke-width="0.25" stroke-opacity="1"></use></g></g><g><use xlink:href="#blSFbKiFB" opacity="1" fill="#000000" fill-opacity="0"></use><g><use xlink:href="#blSFbKiFB" opacity="1" fill-opacity="0" stroke="#707070" stroke-width="0.25" stroke-opacity="1"></use></g></g><g><use xlink:href="#gcvoTzrN7" opacity="1" fill="#000000" fill-opacity="0"></use><g><use xlink:href="#gcvoTzrN7" opacity="1" fill-opacity="0" stroke="#707070" stroke-width="0.25" stroke-opacity="1"></use></g></g><g><use xlink:href="#d5php29o96" opacity="1" fill="#000000" fill-opacity="0"></use><g><use xlink:href="#d5php29o96" opacity="1" fill-opacity="0" stroke="#707070" stroke-width="0.25" stroke-opacity="1"></use></g></g><g><use xlink:href="#aBdLBW15i" opacity="1" fill="#000000" fill-opacity="0"></use><g><use xlink:href="#aBdLBW15i" opacity="1" fill-opacity="0" stroke="#707070" stroke-width="0.25" stroke-opacity="1"></use></g></g><g><use xlink:href="#a1iB2sPjWk" opacity="1" fill="#000000" fill-opacity="0"></use><g><use xlink:href="#a1iB2sPjWk" opacity="1" fill-opacity="0" stroke="#707070" stroke-width="0.25" stroke-opacity="1"></use></g></g><g><use xlink:href="#l40MhMfeOj" opacity="1" fill="#000000" fill-opacity="0"></use><g><use xlink:href="#l40MhMfeOj" opacity="1" fill-opacity="0" stroke="#707070" stroke-width="0.25" stroke-opacity="1"></use></g></g><g><use xlink:href="#j3A0s59rU" opacity="1" fill="#000000" fill-opacity="0"></use><g><use xlink:href="#j3A0s59rU" opacity="1" fill-opacity="0" stroke="#707070" stroke-width="0.25" stroke-opacity="1"></use></g></g><g><use xlink:href="#ik5tAdPvp" opacity="1" fill="#000000" fill-opacity="0"></use><g><use xlink:href="#ik5tAdPvp" opacity="1" fill-opacity="0" stroke="#707070" stroke-width="0.25" stroke-opacity="1"></use></g></g><g><use xlink:href="#b1SRLB0wbK" opacity="1" fill="#000000" fill-opacity="0"></use><g><use xlink:href="#b1SRLB0wbK" opacity="1" fill-opacity="0" stroke="#707070" stroke-width="0.25" stroke-opacity="1"></use></g></g><g><use xlink:href="#aK8YCIU7i" opacity="1" fill="#707070" fill-opacity="1"></use><g><use xlink:href="#aK8YCIU7i" opacity="1" fill-opacity="0" stroke="#000000" stroke-width="1" stroke-opacity="0"></use></g></g><g><use xlink:href="#c2MUtIJoLc" opacity="1" fill="#707070" fill-opacity="1"></use><g><use xlink:href="#c2MUtIJoLc" opacity="1" fill-opacity="0" stroke="#000000" stroke-width="1" stroke-opacity="0"></use></g></g><g><use xlink:href="#a2tEdZ4Nr8" opacity="1" fill="#707070" fill-opacity="1"></use><g><use xlink:href="#a2tEdZ4Nr8" opacity="1" fill-opacity="0" stroke="#000000" stroke-width="1" stroke-opacity="0"></use></g></g><g><use xlink:href="#a2qhBeC5VN" opacity="1" fill="#707070" fill-opacity="1"></use><g><use xlink:href="#a2qhBeC5VN" opacity="1" fill-opacity="0" stroke="#000000" stroke-width="1" stroke-opacity="0"></use></g></g><g><use xlink:href="#aTMta6t7V" opacity="1" fill="#707070" fill-opacity="1"></use><g><use xlink:href="#aTMta6t7V" opacity="1" fill-opacity="0" stroke="#000000" stroke-width="1" stroke-opacity="0"></use></g></g><g><use xlink:href="#a37R9G9vsG" opacity="1" fill="#707070" fill-opacity="1"></use><g><use xlink:href="#a37R9G9vsG" opacity="1" fill-opacity="0" stroke="#000000" stroke-width="1" stroke-opacity="0"></use></g></g><g><use xlink:href="#a3gff0QC5d" opacity="1" fill="#707070" fill-opacity="1"></use><g><use xlink:href="#a3gff0QC5d" opacity="1" fill-opacity="0" stroke="#000000" stroke-width="1" stroke-opacity="0"></use></g></g><g><use xlink:href="#b1Q0mCubPv" opacity="1" fill="#707070" fill-opacity="1"></use><g><use xlink:href="#b1Q0mCubPv" opacity="1" fill-opacity="0" stroke="#000000" stroke-width="1" stroke-opacity="0"></use></g></g><g><use xlink:href="#c5Er2FMXbu" opacity="1" fill="#707070" fill-opacity="1"></use><g><use xlink:href="#c5Er2FMXbu" opacity="1" fill-opacity="0" stroke="#000000" stroke-width="1" stroke-opacity="0"></use></g></g><g><use xlink:href="#b2fyDhajBQ" opacity="1" fill="#707070" fill-opacity="1"></use><g><use xlink:href="#b2fyDhajBQ" opacity="1" fill-opacity="0" stroke="#000000" stroke-width="1" stroke-opacity="0"></use></g></g><g><use xlink:href="#bzDCOY2Zm" opacity="1" fill="#707070" fill-opacity="1"></use><g><use xlink:href="#bzDCOY2Zm" opacity="1" fill-opacity="0" stroke="#000000" stroke-width="1" stroke-opacity="0"></use></g></g><g><use xlink:href="#k4gsqkj9os" opacity="1" fill="#707070" fill-opacity="1"></use><g><use xlink:href="#k4gsqkj9os" opacity="1" fill-opacity="0" stroke="#000000" stroke-width="1" stroke-opacity="0"></use></g></g><g><use xlink:href="#eDMjcn4uB" opacity="1" fill="#000000" fill-opacity="0"></use><g><use xlink:href="#eDMjcn4uB" opacity="1" fill-opacity="0" stroke="#707070" stroke-width="0.25" stroke-opacity="1"></use></g></g><g><use xlink:href="#e2gsQ5lb3" opacity="1" fill="#000000" fill-opacity="0"></use><g><use xlink:href="#e2gsQ5lb3" opacity="1" fill-opacity="0" stroke="#707070" stroke-width="0.25" stroke-opacity="1"></use></g></g><g><use xlink:href="#e134sFnhaw" opacity="1" fill="#000000" fill-opacity="0"></use><g><use xlink:href="#e134sFnhaw" opacity="1" fill-opacity="0" stroke="#707070" stroke-width="0.25" stroke-opacity="1"></use></g></g><g><use xlink:href="#adZaG3ayS" opacity="1" fill="#000000" fill-opacity="0"></use><g><use xlink:href="#adZaG3ayS" opacity="1" fill-opacity="0" stroke="#707070" stroke-width="0.25" stroke-opacity="1"></use></g></g><g><use xlink:href="#f2SDiGZDRz" opacity="1" fill="#000000" fill-opacity="0"></use><g><use xlink:href="#f2SDiGZDRz" opacity="1" fill-opacity="0" stroke="#707070" stroke-width="0.25" stroke-opacity="1"></use></g></g><g><use xlink:href="#cdVOS0w8L" opacity="1" fill="#000000" fill-opacity="0"></use><g><use xlink:href="#cdVOS0w8L" opacity="1" fill-opacity="0" stroke="#707070" stroke-width="0.25" stroke-opacity="1"></use></g></g><g><use xlink:href="#b4JakEL3l" opacity="1" fill="#000000" fill-opacity="0"></use><g><use xlink:href="#b4JakEL3l" opacity="1" fill-opacity="0" stroke="#707070" stroke-width="0.25" stroke-opacity="1"></use></g></g><g><use xlink:href="#bs6hppnnQ" opacity="1" fill="#000000" fill-opacity="0"></use><g><use xlink:href="#bs6hppnnQ" opacity="1" fill-opacity="0" stroke="#707070" stroke-width="0.25" stroke-opacity="1"></use></g></g><g><use xlink:href="#a17l8nci54" opacity="1" fill="#000000" fill-opacity="0"></use><g><use xlink:href="#a17l8nci54" opacity="1" fill-opacity="0" stroke="#707070" stroke-width="0.25" stroke-opacity="1"></use></g></g><g><use xlink:href="#a2fwvtg9JC" opacity="1" fill="#000000" fill-opacity="0"></use><g><use xlink:href="#a2fwvtg9JC" opacity="1" fill-opacity="0" stroke="#707070" stroke-width="0.25" stroke-opacity="1"></use></g></g><g><use xlink:href="#be9nkaMyH" opacity="1" fill="#000000" fill-opacity="0"></use><g><use xlink:href="#be9nkaMyH" opacity="1" fill-opacity="0" stroke="#707070" stroke-width="0.25" stroke-opacity="1"></use></g></g><g><use xlink:href="#aOgHlCaHD" opacity="1" fill="#000000" fill-opacity="0"></use><g><use xlink:href="#aOgHlCaHD" opacity="1" fill-opacity="0" stroke="#707070" stroke-width="0.25" stroke-opacity="1"></use></g></g><g><use xlink:href="#bnxKZT3Fa" opacity="1" fill="#707070" fill-opacity="1"></use><g><use xlink:href="#bnxKZT3Fa" opacity="1" fill-opacity="0" stroke="#000000" stroke-width="1" stroke-opacity="0"></use></g></g><g><use xlink:href="#b2MMA5w2hs" opacity="1" fill="#707070" fill-opacity="1"></use><g><use xlink:href="#b2MMA5w2hs" opacity="1" fill-opacity="0" stroke="#000000" stroke-width="1" stroke-opacity="0"></use></g></g><g><use xlink:href="#bjQ6sY6q1" opacity="1" fill="#707070" fill-opacity="1"></use><g><use xlink:href="#bjQ6sY6q1" opacity="1" fill-opacity="0" stroke="#000000" stroke-width="1" stroke-opacity="0"></use></g></g><g><use xlink:href="#fU4fonZ9" opacity="1" fill="#707070" fill-opacity="1"></use><g><use xlink:href="#fU4fonZ9" opacity="1" fill-opacity="0" stroke="#000000" stroke-width="1" stroke-opacity="0"></use></g></g><g><use xlink:href="#c1fqaGSGcp" opacity="1" fill="#707070" fill-opacity="1"></use><g><use xlink:href="#c1fqaGSGcp" opacity="1" fill-opacity="0" stroke="#000000" stroke-width="1" stroke-opacity="0"></use></g></g><g><use xlink:href="#bMt3FG5cQ" opacity="1" fill="#707070" fill-opacity="1"></use><g><use xlink:href="#bMt3FG5cQ" opacity="1" fill-opacity="0" stroke="#000000" stroke-width="1" stroke-opacity="0"></use></g></g><g><use xlink:href="#b8q2aNGJM" opacity="1" fill="#707070" fill-opacity="1"></use><g><use xlink:href="#b8q2aNGJM" opacity="1" fill-opacity="0" stroke="#000000" stroke-width="1" stroke-opacity="0"></use></g></g><g><use xlink:href="#a81iVcAGn" opacity="1" fill="#707070" fill-opacity="1"></use><g><use xlink:href="#a81iVcAGn" opacity="1" fill-opacity="0" stroke="#000000" stroke-width="1" stroke-opacity="0"></use></g></g><g><use xlink:href="#i15lomOG4p" opacity="1" fill="#707070" fill-opacity="1"></use><g><use xlink:href="#i15lomOG4p" opacity="1" fill-opacity="0" stroke="#000000" stroke-width="1" stroke-opacity="0"></use></g></g><g><use xlink:href="#b7MgYLpZpg" opacity="1" fill="#707070" fill-opacity="1"></use><g><use xlink:href="#b7MgYLpZpg" opacity="1" fill-opacity="0" stroke="#000000" stroke-width="1" stroke-opacity="0"></use></g></g><g><use xlink:href="#c1qZcjXYbY" opacity="1" fill="#707070" fill-opacity="1"></use><g><use xlink:href="#c1qZcjXYbY" opacity="1" fill-opacity="0" stroke="#000000" stroke-width="1" stroke-opacity="0"></use></g></g><g><use xlink:href="#b7afI6Joh" opacity="1" fill="#707070" fill-opacity="1"></use><g><use xlink:href="#b7afI6Joh" opacity="1" fill-opacity="0" stroke="#000000" stroke-width="1" stroke-opacity="0"></use></g></g><g><use xlink:href="#ekk7fumx6" opacity="1" fill="#707070" fill-opacity="1"></use><g><use xlink:href="#ekk7fumx6" opacity="1" fill-opacity="0" stroke="#000000" stroke-width="1" stroke-opacity="0"></use></g></g><g><use xlink:href="#ae5MrGNhM" opacity="1" fill="#000000" fill-opacity="0"></use><g><use xlink:href="#ae5MrGNhM" opacity="1" fill-opacity="0" stroke="#707070" stroke-width="0.25" stroke-opacity="1"></use></g></g><g><use xlink:href="#c4nbE4CKcv" opacity="1" fill="#000000" fill-opacity="0"></use><g><use xlink:href="#c4nbE4CKcv" opacity="1" fill-opacity="0" stroke="#707070" stroke-width="0.25" stroke-opacity="1"></use></g></g><g><use xlink:href="#a1KZZw3baV" opacity="1" fill="#000000" fill-opacity="0"></use><g><use xlink:href="#a1KZZw3baV" opacity="1" fill-opacity="0" stroke="#707070" stroke-width="0.25" stroke-opacity="1"></use></g></g><g><use xlink:href="#a2liSMehgP" opacity="1" fill="#000000" fill-opacity="0"></use><g><use xlink:href="#a2liSMehgP" opacity="1" fill-opacity="0" stroke="#707070" stroke-width="0.25" stroke-opacity="1"></use></g></g><g><use xlink:href="#f37nvlzrp" opacity="1" fill="#000000" fill-opacity="0"></use><g><use xlink:href="#f37nvlzrp" opacity="1" fill-opacity="0" stroke="#707070" stroke-width="0.25" stroke-opacity="1"></use></g></g><g><use xlink:href="#b23hJACVG5" opacity="1" fill="#000000" fill-opacity="0"></use><g><use xlink:href="#b23hJACVG5" opacity="1" fill-opacity="0" stroke="#707070" stroke-width="0.25" stroke-opacity="1"></use></g></g><g><use xlink:href="#a3AXjxXMFX" opacity="1" fill="#000000" fill-opacity="0"></use><g><use xlink:href="#a3AXjxXMFX" opacity="1" fill-opacity="0" stroke="#707070" stroke-width="0.25" stroke-opacity="1"></use></g></g><g><use xlink:href="#a1QGF4MY2g" opacity="1" fill="#000000" fill-opacity="0"></use><g><use xlink:href="#a1QGF4MY2g" opacity="1" fill-opacity="0" stroke="#707070" stroke-width="0.25" stroke-opacity="1"></use></g></g><g><use xlink:href="#a4xnhoNhpU" opacity="1" fill="#000000" fill-opacity="0"></use><g><use xlink:href="#a4xnhoNhpU" opacity="1" fill-opacity="0" stroke="#707070" stroke-width="0.25" stroke-opacity="1"></use></g></g><g><use xlink:href="#akbJTiFsm" opacity="1" fill="#000000" fill-opacity="0"></use><g><use xlink:href="#akbJTiFsm" opacity="1" fill-opacity="0" stroke="#707070" stroke-width="0.25" stroke-opacity="1"></use></g></g><g><use xlink:href="#a1sCpxnrpp" opacity="1" fill="#000000" fill-opacity="0"></use><g><use xlink:href="#a1sCpxnrpp" opacity="1" fill-opacity="0" stroke="#707070" stroke-width="0.25" stroke-opacity="1"></use></g></g><g><use xlink:href="#cfyyDc4Wo" opacity="1" fill="#000000" fill-opacity="0"></use><g><use xlink:href="#cfyyDc4Wo" opacity="1" fill-opacity="0" stroke="#707070" stroke-width="0.25" stroke-opacity="1"></use></g></g><g><use xlink:href="#b4i7dYsJWB" opacity="1" fill="#000000" fill-opacity="0"></use><g><use xlink:href="#b4i7dYsJWB" opacity="1" fill-opacity="0" stroke="#707070" stroke-width="0.25" stroke-opacity="1"></use></g></g><g><use xlink:href="#e63B2combX" opacity="1" fill="#333333" fill-opacity="1"></use><g><use xlink:href="#e63B2combX" opacity="1" fill-opacity="0" stroke="#333333" stroke-width="0.25" stroke-opacity="1"></use></g></g><g><use xlink:href="#ajHOuQU0e" opacity="1" fill="#333333" fill-opacity="1"></use><g><use xlink:href="#ajHOuQU0e" opacity="1" fill-opacity="0" stroke="#000000" stroke-width="1" stroke-opacity="0"></use></g></g><g><use xlink:href="#b10QzJlXwE" opacity="1" fill="#333333" fill-opacity="1"></use><g><use xlink:href="#b10QzJlXwE" opacity="1" fill-opacity="0" stroke="#000000" stroke-width="1" stroke-opacity="0"></use></g></g><g><use xlink:href="#bMqmXH9e" opacity="1" fill="#333333" fill-opacity="1"></use><g><use xlink:href="#bMqmXH9e" opacity="1" fill-opacity="0" stroke="#000000" stroke-width="1" stroke-opacity="0"></use></g></g><g><use xlink:href="#e1mwgXS5ly" opacity="1" fill="#000000" fill-opacity="0"></use><g><use xlink:href="#e1mwgXS5ly" opacity="1" fill-opacity="0" stroke="#333333" stroke-width="1" stroke-opacity="1"></use></g></g><g><use xlink:href="#a5XSRQdmG2" opacity="1" fill="#000000" fill-opacity="0"></use><g><use xlink:href="#a5XSRQdmG2" opacity="1" fill-opacity="0" stroke="#333333" stroke-width="1" stroke-opacity="1"></use></g></g><g><use xlink:href="#a2x5sUpslI" opacity="1" fill="#333333" fill-opacity="1"></use><g><use xlink:href="#a2x5sUpslI" opacity="1" fill-opacity="0" stroke="#000000" stroke-width="1" stroke-opacity="0"></use></g></g><g><use xlink:href="#bb2yIpWoo" opacity="1" fill="#000000" fill-opacity="0"></use><g><use xlink:href="#bb2yIpWoo" opacity="1" fill-opacity="0" stroke="#333333" stroke-width="1" stroke-opacity="1"></use></g></g><g><use xlink:href="#a3bAJ85LKc" opacity="1" fill="#333333" fill-opacity="1"></use><g><use xlink:href="#a3bAJ85LKc" opacity="1" fill-opacity="0" stroke="#000000" stroke-width="1" stroke-opacity="0"></use></g></g><g><use xlink:href="#dei6i9IOs" opacity="1" fill="#333333" fill-opacity="1"></use><g><use xlink:href="#dei6i9IOs" opacity="1" fill-opacity="0" stroke="#000000" stroke-width="1" stroke-opacity="0"></use></g></g><g><use xlink:href="#eeDD8sP2K" opacity="1" fill="#333333" fill-opacity="1"></use><g><use xlink:href="#eeDD8sP2K" opacity="1" fill-opacity="0" stroke="#000000" stroke-width="1" stroke-opacity="0"></use></g></g><g><use xlink:href="#a55L6YDqNv" opacity="1" fill="#000000" fill-opacity="0"></use><g><use xlink:href="#a55L6YDqNv" opacity="1" fill-opacity="0" stroke="#333333" stroke-width="1" stroke-opacity="1"></use></g></g><g><use xlink:href="#dahRmNFEyZ" opacity="1" fill="#000000" fill-opacity="0"></use><g><use xlink:href="#dahRmNFEyZ" opacity="1" fill-opacity="0" stroke="#333333" stroke-width="1" stroke-opacity="1"></use></g></g><g><use xlink:href="#a10sHKZ2HM" opacity="1" fill="#333333" fill-opacity="1"></use><g><use xlink:href="#a10sHKZ2HM" opacity="1" fill-opacity="0" stroke="#000000" stroke-width="1" stroke-opacity="0"></use></g></g><g><use xlink:href="#c2u6E2e9RU" opacity="1" fill="#000000" fill-opacity="0"></use><g><use xlink:href="#c2u6E2e9RU" opacity="1" fill-opacity="0" stroke="#333333" stroke-width="1" stroke-opacity="1"></use></g></g><g><use xlink:href="#cB7QOEYbK" opacity="1" fill="#333333" fill-opacity="1"></use><g><use xlink:href="#cB7QOEYbK" opacity="1" fill-opacity="0" stroke="#000000" stroke-width="1" stroke-opacity="0"></use></g></g><g><use xlink:href="#aVXepwL7n" opacity="1" fill="#000000" fill-opacity="0"></use><g><use xlink:href="#aVXepwL7n" opacity="1" fill-opacity="0" stroke="#333333" stroke-width="1" stroke-opacity="1"></use></g></g><g><use xlink:href="#dYAnAle2S" opacity="1" fill="#333333" fill-opacity="1"></use><g><use xlink:href="#dYAnAle2S" opacity="1" fill-opacity="0" stroke="#000000" stroke-width="1" stroke-opacity="0"></use></g></g><g><use xlink:href="#f4vaNIZfIE" opacity="1" fill="#333333" fill-opacity="1"></use><g><use xlink:href="#f4vaNIZfIE" opacity="1" fill-opacity="0" stroke="#000000" stroke-width="1" stroke-opacity="0"></use></g></g><g><use xlink:href="#blOORov9m" opacity="1" fill="#000000" fill-opacity="1"></use><g><use xlink:href="#blOORov9m" opacity="1" fill-opacity="0" stroke="#000000" stroke-width="1" stroke-opacity="1"></use></g></g></g></svg>