<?xml version="1.0" encoding="utf-8"?>
<!-- Generator: Adobe Illustrator 28.0.0, SVG Export Plug-In . SVG Version: 6.00 Build 0)  -->
<svg version="1.1" id="Layer_1" xmlns="http://www.w3.org/2000/svg" xmlns:xlink="http://www.w3.org/1999/xlink" x="0px" y="0px"
	 viewBox="0 0 48 48" style="enable-background:new 0 0 48 48;" xml:space="preserve">
<style type="text/css">
	.st0{fill:#FFFFFF;}
	.st1{fill:#333333;}
</style>
<g>
	<g>
		<path class="st0" d="M25,8H13v32h22V17c0-4.1-8-1-8-1C28,12,27,8,25,8z"/>
		<path class="st1" d="M28,6H13h-2v2v32v2h2h22h2v-2V16v-2L28,6z M35,40H13V8h12c2,0,3,4,2,8c0,0,8-3.1,8,1V40z"/>
	</g>
	<g>
		<rect x="22.5" y="21.1" class="st1" width="3" height="15.8"/>
		<rect x="16.1" y="27.5" class="st1" width="15.8" height="3"/>
	</g>
</g>
</svg>
