<?xml version="1.0" encoding="UTF-8"?>
<svg width="540" height="540" version="1.1" viewBox="0 0 540 540" xmlns="http://www.w3.org/2000/svg"><path d="m489.89 110h-222.84c-20.237 0-36.649-14.33-36.649-32s16.412-32 36.649-32h222.84c20.271 0 36.649 14.33 36.649 32s-16.377 32-36.649 32zm0 256h-439.79c-20.237 0-36.649-14.3-36.649-32s16.412-32 36.649-32h439.79c20.271 0 36.649 14.3 36.649 32s-16.377 32-36.649 32zm-261.66-160c0-17.7 16.412-32 36.649-32h225.01c20.271 0 36.649 14.3 36.649 32s-16.377 32-36.649 32h-225.01c-20.237 0-36.649-14.3-36.649-32zm261.66 288h-439.79c-20.237 0-36.649-14.3-36.649-32s16.412-32 36.649-32h439.79c20.271 0 36.649 14.3 36.649 32s-16.377 32-36.649 32z" stroke-width="1.0702"/><g transform="matrix(1.1231 0 0 1.086 976.89 -80.75)" style="shape-inside:url(#rect325);white-space:pre" aria-label="T"><path d="m-688.72 117.89v47.787h-4.6875q-4.1667-16.536-9.2448-23.698-5.0781-7.2917-13.932-11.589-4.9479-2.3438-17.318-2.3438h-13.151v136.2q0 13.542 1.4323 16.927 1.5625 3.3854 5.8594 5.9896 4.4271 2.474 11.979 2.474h5.8594v4.8177h-92.448v-4.8177h5.8594q7.6823 0 12.37-2.7344 3.3854-1.8229 5.3386-6.25 1.4323-3.125 1.4323-16.406v-136.2h-12.76q-17.839 0-25.911 7.5521-11.328 10.547-14.323 30.078h-4.9479v-47.787z"/></g></svg>
