<?xml version="1.0" encoding="utf-8"?>
<!-- Generator: Adobe Illustrator 16.0.4, SVG Export Plug-In . SVG Version: 6.00 Build 0)  -->
<!DOCTYPE svg PUBLIC "-//W3C//DTD SVG 1.1//EN" "http://www.w3.org/Graphics/SVG/1.1/DTD/svg11.dtd">
<svg version="1.1" id="Layer_1" xmlns="http://www.w3.org/2000/svg" xmlns:xlink="http://www.w3.org/1999/xlink" x="0px" y="0px"
	 width="48px" height="48px" viewBox="0 0 48 48" enable-background="new 0 0 48 48" xml:space="preserve">
<g>
	<line fill="none" x1="12.505" y1="23.687" x2="33.006" y2="23.812"/>
	<g>
		<path fill="#FFFFFF" d="M20.807,7.078h-9.691v25.846h17.77V14.345c0-3.329-6.461-0.807-6.461-0.807
			C23.231,10.308,22.423,7.078,20.807,7.078z"/>
		<path fill="#333333" d="M23.231,5.462H11.115H9.5v1.615v25.846v1.615h1.615h17.77H30.5v-1.615V13.539v-1.615L23.231,5.462z
			 M28.885,32.924h-17.77V7.078h9.691c1.617,0,2.424,3.23,1.617,6.461c0,0,6.461-2.522,6.461,0.807V32.924z"/>
	</g>
	<g>
		<path fill="#FFFFFF" d="M24.807,11.078h-9.691v25.846h17.77V18.345c0-3.329-6.461-0.807-6.461-0.807
			C27.23,14.308,26.424,11.078,24.807,11.078z"/>
		<path fill="#333333" d="M27.23,9.462H15.115H13.5v1.615v25.846v1.615h1.615h17.77H34.5v-1.615V17.539v-1.615L27.23,9.462z
			 M32.885,36.924h-17.77V11.078h9.691c1.617,0,2.424,3.23,1.617,6.461c0,0,6.461-2.522,6.461,0.807V36.924z"/>
	</g>
	<g>
		<path fill="#FFFFFF" d="M28.807,15.077h-9.691v25.845h17.77V22.345c0-3.329-6.461-0.807-6.461-0.807
			C31.23,18.307,30.424,15.077,28.807,15.077z"/>
		<path fill="#333333" d="M31.23,13.462H19.115H17.5v1.615v25.845v1.615h1.615h17.77H38.5v-1.615V21.538v-1.615L31.23,13.462z
			 M36.885,40.922h-17.77V15.077h9.691c1.617,0,2.424,3.23,1.617,6.461c0,0,6.461-2.522,6.461,0.807V40.922z"/>
	</g>
</g>
</svg>
