<svg id="Layer_1" data-name="Layer 1" xmlns="http://www.w3.org/2000/svg" viewBox="0 0 48 48"><defs><style>.cls-1{fill:#333;}</style></defs><rect class="cls-1" x="10.78" y="21.22" width="26.43" height="2"/><rect class="cls-1" x="23" y="11.68" width="2" height="10.6"/><polygon class="cls-1" points="19.56 15.05 24 13.16 28.44 15.05 24 4.52 19.56 15.05"/><path class="cls-1" d="M25.54,41.11A5,5,0,0,1,21,43.48,4.31,4.31,0,0,1,16.37,39c0-3.43,2.85-5.16,6.25-5.16a7.15,7.15,0,0,1,2.79.54V32.87c0-2-1-3-2.92-3a11.67,11.67,0,0,0-4.93,1.44,3.66,3.66,0,0,1-.13-1.09A4.94,4.94,0,0,1,17.91,28a15.74,15.74,0,0,1,5.48-1c3.75,0,5.61,1.6,5.61,5.87v5.8a4.09,4.09,0,0,0,.42,2,10.94,10.94,0,0,0,2.18-.32,2.24,2.24,0,0,1,0,.41,4.17,4.17,0,0,1-.45,1.8,9.51,9.51,0,0,1-4,.93,3.58,3.58,0,0,1-1.45-2.37Zm-.07-5a8.88,8.88,0,0,0-2-.26c-2.18,0-3.39,1-3.39,2.57a2.24,2.24,0,0,0,2.47,2.34,3.65,3.65,0,0,0,2.94-1.38Z"/></svg>
