<svg id="Layer_1" data-name="Layer 1" xmlns="http://www.w3.org/2000/svg" viewBox="0 0 48 48"><defs><style>.cls-1{fill:#fff;}.cls-2{fill:#333;}.cls-3{fill:gray;}</style></defs><path class="cls-1" d="M25,8H13V40H35V17c0-4.12-8-1-8-1C28,12,27,8,25,8Z"/><path class="cls-2" d="M28,6H11V42H37V14Zm7,34H13V8H25c2,0,3,4,2,8,0,0,8-3.12,8,1Z"/><path class="cls-3" d="M28.49,36.28a4.8,4.8,0,0,1-4.44,2.3,4.18,4.18,0,0,1-4.44-4.38c0-3.33,2.76-5,6.06-5a6.91,6.91,0,0,1,2.7.53V28.29c0-2-1-2.92-2.83-2.92a11.4,11.4,0,0,0-4.78,1.4,3.42,3.42,0,0,1-.13-1.06,4.78,4.78,0,0,1,.47-2.17,15.12,15.12,0,0,1,5.31-1c3.64,0,5.44,1.56,5.44,5.69v5.62a4,4,0,0,0,.4,2,10.16,10.16,0,0,0,2.11-.31,2.14,2.14,0,0,1,0,.4A4,4,0,0,1,34,37.67a9.21,9.21,0,0,1-3.85.9,3.43,3.43,0,0,1-1.4-2.3h-.22Zm-.06-4.82a9,9,0,0,0-2-.24c-2.11,0-3.29,1-3.29,2.48A2.17,2.17,0,0,0,25.57,36a3.56,3.56,0,0,0,2.86-1.34Z"/><path class="cls-2" d="M22.49,36.28a4.8,4.8,0,0,1-4.44,2.3,4.18,4.18,0,0,1-4.44-4.38c0-3.33,2.76-5,6.05-5a6.93,6.93,0,0,1,2.71.53V28.29c0-2-1-2.92-2.83-2.92a11.4,11.4,0,0,0-4.78,1.4,3.42,3.42,0,0,1-.13-1.06,4.78,4.78,0,0,1,.47-2.17,15.07,15.07,0,0,1,5.31-1c3.64,0,5.44,1.56,5.44,5.69v5.62a4,4,0,0,0,.4,2,10.16,10.16,0,0,0,2.11-.31,2.14,2.14,0,0,1,0,.4A4,4,0,0,1,28,37.67a9.21,9.21,0,0,1-3.85.9,3.4,3.4,0,0,1-1.4-2.3h-.22Zm-.06-4.82a9,9,0,0,0-2-.24c-2.11,0-3.29,1-3.29,2.48A2.17,2.17,0,0,0,19.57,36a3.56,3.56,0,0,0,2.86-1.34Z"/></svg>
