<?xml version="1.0" encoding="utf-8"?>
<!-- Generator: Adobe Illustrator 16.0.0, SVG Export Plug-In . SVG Version: 6.00 Build 0)  -->
<!DOCTYPE svg PUBLIC "-//W3C//DTD SVG 1.1//EN" "http://www.w3.org/Graphics/SVG/1.1/DTD/svg11.dtd">
<svg version="1.1" id="Layer_1" xmlns="http://www.w3.org/2000/svg" xmlns:xlink="http://www.w3.org/1999/xlink" x="0px" y="0px"
	 width="48px" height="48px" viewBox="0 0 48 48" enable-background="new 0 0 48 48" xml:space="preserve">
<g>
	<rect x="3.5" y="9.578" fill="#E8E8E8" width="41.25" height="28.083"/>
	<path fill="#333333" d="M1.917,39.04c0-10.105,0-20.246,0-30.382C2.154,8.174,2.5,7.792,3.036,7.547c13.718,0,27.485,0,41.253,0
		c1.201-0.188,1.789,0.818,1.789,1.812c0.008,5.935,0.004,11.871,0.004,17.802c0,3.633,0.004,7.267-0.004,10.897
		c0,0.385-0.061,0.768-0.088,1.115c-0.393,0.438-0.729,0.844-1.307,0.903c-0.109,0.015-0.211,0.069-0.318,0.09
		c-0.117,0.019-0.238,0.007-0.354,0.007c-13.394,0-26.783,0-40.167,0.004c-0.671,0-1.261-0.176-1.701-0.709
		C2.062,39.371,2.019,39.236,1.917,39.04z M5.075,10.693c0,8.769,0,17.474,0,26.179c2.604,0.105,37.241,0.062,37.849-0.045
		c0-8.71,0-17.417,0-26.134C30.299,10.693,17.701,10.693,5.075,10.693z"/>
	<g enable-background="new    ">
		<path fill="#707070" d="M7.224,12.675h0.558v3.082h2.067v0.417H7.224V12.675z"/>
		<path fill="#707070" d="M12.527,13.876c0.266,0.219,0.398,0.541,0.398,0.966c0,0.411-0.117,0.75-0.351,1.019
			c-0.234,0.269-0.597,0.402-1.089,0.402c-0.41,0-0.736-0.118-0.978-0.355c-0.242-0.237-0.362-0.556-0.362-0.956
			c0-0.428,0.127-0.769,0.381-1.023s0.596-0.381,1.025-0.381C11.937,13.547,12.262,13.658,12.527,13.876z M12.214,15.572
			c0.123-0.215,0.185-0.454,0.185-0.717c0-0.238-0.044-0.432-0.133-0.581c-0.141-0.235-0.383-0.352-0.727-0.352
			c-0.305,0-0.527,0.1-0.666,0.3c-0.139,0.2-0.208,0.441-0.208,0.723c0,0.271,0.069,0.497,0.208,0.678
			c0.139,0.181,0.359,0.271,0.66,0.271C11.864,15.894,12.091,15.787,12.214,15.572z"/>
		<path fill="#707070" d="M13.559,13.622h0.479v0.44c0.039-0.086,0.135-0.19,0.289-0.313c0.154-0.123,0.33-0.185,0.53-0.185
			c0.009,0,0.025,0,0.048,0.002c0.022,0.002,0.061,0.005,0.115,0.01v0.453c-0.03-0.005-0.058-0.008-0.083-0.01
			c-0.025-0.001-0.053-0.002-0.083-0.002c-0.254,0-0.45,0.069-0.586,0.208c-0.137,0.139-0.205,0.299-0.205,0.48v1.467h-0.505
			L13.559,13.622L13.559,13.622z"/>
		<path fill="#707070" d="M17.312,13.693c0.199,0.084,0.351,0.195,0.455,0.33c0.1,0.128,0.167,0.279,0.201,0.45
			c0.03,0.117,0.044,0.305,0.044,0.562h-2.185c0.009,0.259,0.081,0.468,0.214,0.625c0.134,0.157,0.34,0.235,0.621,0.235
			c0.261,0,0.47-0.074,0.626-0.222c0.087-0.086,0.149-0.186,0.186-0.299h0.496c-0.013,0.094-0.057,0.198-0.13,0.313
			c-0.074,0.115-0.156,0.209-0.247,0.282c-0.152,0.127-0.34,0.212-0.565,0.257c-0.121,0.025-0.257,0.038-0.409,0.038
			c-0.372,0-0.687-0.115-0.945-0.346c-0.258-0.231-0.387-0.555-0.387-0.971c0-0.41,0.13-0.742,0.39-0.998
			c0.26-0.256,0.6-0.383,1.02-0.383C16.909,13.564,17.114,13.607,17.312,13.693z M17.494,14.694
			c-0.021-0.186-0.068-0.334-0.142-0.445c-0.137-0.206-0.366-0.31-0.687-0.31c-0.23,0-0.423,0.071-0.579,0.213
			c-0.156,0.142-0.238,0.323-0.248,0.542H17.494z"/>
		<path fill="#707070" d="M18.652,13.622h0.499v0.362c0.12-0.125,0.229-0.217,0.326-0.274c0.166-0.097,0.355-0.145,0.566-0.145
			c0.239,0,0.432,0.05,0.578,0.15c0.082,0.057,0.157,0.141,0.224,0.252c0.112-0.137,0.244-0.238,0.396-0.304
			c0.152-0.066,0.322-0.099,0.51-0.099c0.404,0,0.679,0.124,0.825,0.371c0.079,0.134,0.118,0.313,0.118,0.539v1.698H22.17V14.4
			c0-0.169-0.05-0.286-0.15-0.35s-0.222-0.096-0.366-0.096c-0.198,0-0.369,0.057-0.512,0.169c-0.143,0.112-0.214,0.301-0.214,0.564
			v1.483h-0.513v-1.665c0-0.173-0.024-0.299-0.073-0.379c-0.077-0.119-0.22-0.178-0.429-0.178c-0.191,0-0.364,0.062-0.521,0.188
			c-0.156,0.125-0.234,0.353-0.234,0.681v1.353h-0.505L18.652,13.622L18.652,13.622z"/>
		<path fill="#707070" d="M25.031,12.675h0.514v0.485h-0.514V12.675z M25.031,13.634h0.514v2.539h-0.514V13.634z"/>
		<path fill="#707070" d="M26.266,13.634h0.494v0.338c0.102-0.116,0.211-0.206,0.331-0.27c0.171-0.095,0.371-0.143,0.603-0.143
			c0.342,0,0.632,0.111,0.869,0.332c0.236,0.222,0.355,0.538,0.355,0.949c0,0.556-0.172,0.953-0.516,1.19
			c-0.217,0.151-0.471,0.227-0.76,0.227c-0.229,0-0.418-0.042-0.57-0.126c-0.092-0.047-0.191-0.129-0.303-0.245v1.303h-0.504V13.634
			L26.266,13.634z M28.164,15.633c0.156-0.167,0.236-0.418,0.236-0.751c0-0.204-0.035-0.378-0.105-0.524
			c-0.131-0.281-0.371-0.422-0.72-0.422c-0.351,0-0.591,0.148-0.72,0.445c-0.07,0.159-0.104,0.361-0.104,0.605
			c0,0.197,0.034,0.364,0.104,0.502c0.131,0.264,0.371,0.396,0.72,0.396C27.812,15.885,28.008,15.801,28.164,15.633z"/>
		<path fill="#707070" d="M29.802,15.372c0.015,0.143,0.058,0.252,0.128,0.329c0.131,0.138,0.355,0.208,0.676,0.208
			c0.191,0,0.359-0.035,0.504-0.104c0.146-0.069,0.22-0.176,0.22-0.32c0-0.11-0.06-0.193-0.175-0.25
			c-0.073-0.035-0.221-0.075-0.438-0.121l-0.406-0.086c-0.262-0.054-0.453-0.114-0.576-0.181c-0.221-0.116-0.33-0.276-0.33-0.481
			c0-0.241,0.104-0.437,0.312-0.585c0.208-0.149,0.486-0.224,0.837-0.224c0.459,0,0.789,0.113,0.992,0.338
			c0.127,0.143,0.188,0.297,0.186,0.462h-0.48c-0.009-0.096-0.051-0.184-0.123-0.263c-0.119-0.112-0.324-0.168-0.617-0.168
			c-0.195,0-0.343,0.031-0.443,0.093c-0.1,0.062-0.148,0.143-0.148,0.244c0,0.111,0.064,0.199,0.195,0.266
			c0.076,0.04,0.189,0.075,0.34,0.105l0.34,0.069c0.369,0.075,0.617,0.147,0.742,0.217c0.195,0.109,0.295,0.282,0.295,0.517
			c0,0.227-0.104,0.423-0.311,0.588c-0.205,0.165-0.518,0.248-0.938,0.248c-0.453,0-0.773-0.086-0.961-0.258
			s-0.289-0.385-0.303-0.64h0.482L29.802,15.372L29.802,15.372z"/>
		<path fill="#707070" d="M32.878,13.622v1.693c0,0.13,0.022,0.237,0.071,0.319c0.087,0.152,0.25,0.229,0.488,0.229
			c0.342,0,0.576-0.133,0.699-0.4c0.065-0.143,0.102-0.339,0.102-0.588v-1.252h0.504v2.55h-0.477l0.006-0.376
			c-0.064,0.097-0.146,0.179-0.239,0.246c-0.188,0.133-0.419,0.2-0.688,0.2c-0.42,0-0.705-0.121-0.857-0.364
			c-0.082-0.13-0.125-0.304-0.125-0.521v-1.733h0.518L32.878,13.622L32.878,13.622z"/>
		<path fill="#707070" d="M35.566,13.622h0.5v0.362c0.119-0.125,0.229-0.217,0.326-0.274c0.166-0.097,0.354-0.145,0.564-0.145
			c0.236,0,0.434,0.05,0.577,0.15c0.082,0.057,0.155,0.141,0.224,0.252c0.113-0.137,0.244-0.238,0.396-0.304
			c0.15-0.066,0.322-0.099,0.511-0.099c0.403,0,0.679,0.124,0.823,0.371c0.08,0.134,0.119,0.313,0.119,0.539v1.698h-0.524V14.4
			c0-0.169-0.05-0.286-0.149-0.35c-0.101-0.064-0.223-0.096-0.365-0.096c-0.197,0-0.368,0.057-0.512,0.169
			c-0.145,0.113-0.216,0.301-0.216,0.564v1.483h-0.514v-1.665c0-0.173-0.022-0.299-0.072-0.379c-0.075-0.119-0.22-0.178-0.43-0.178
			c-0.19,0-0.363,0.062-0.521,0.188c-0.156,0.126-0.234,0.353-0.234,0.681v1.353h-0.504V13.622L35.566,13.622z"/>
	</g>
	<g enable-background="new    ">
		<path fill="none" stroke="#707070" stroke-width="0.25" stroke-miterlimit="10" d="M7.224,12.675h0.558v3.082h2.067v0.417H7.224
			V12.675z"/>
		<path fill="none" stroke="#707070" stroke-width="0.25" stroke-miterlimit="10" d="M12.527,13.876
			c0.266,0.219,0.398,0.541,0.398,0.966c0,0.411-0.117,0.75-0.351,1.019c-0.234,0.269-0.597,0.402-1.089,0.402
			c-0.41,0-0.736-0.118-0.978-0.355c-0.242-0.237-0.362-0.556-0.362-0.956c0-0.428,0.127-0.769,0.381-1.023s0.596-0.381,1.025-0.381
			C11.937,13.547,12.262,13.658,12.527,13.876z M12.214,15.572c0.123-0.215,0.185-0.454,0.185-0.717
			c0-0.238-0.044-0.432-0.133-0.581c-0.141-0.235-0.383-0.352-0.727-0.352c-0.305,0-0.527,0.1-0.666,0.3
			c-0.139,0.2-0.208,0.441-0.208,0.723c0,0.271,0.069,0.497,0.208,0.678c0.139,0.181,0.359,0.271,0.66,0.271
			C11.864,15.894,12.091,15.787,12.214,15.572z"/>
		<path fill="none" stroke="#707070" stroke-width="0.25" stroke-miterlimit="10" d="M13.559,13.622h0.479v0.44
			c0.039-0.086,0.135-0.19,0.289-0.313c0.154-0.123,0.33-0.185,0.53-0.185c0.009,0,0.025,0,0.048,0.002
			c0.022,0.002,0.061,0.005,0.115,0.01v0.453c-0.03-0.005-0.058-0.008-0.083-0.01c-0.025-0.001-0.053-0.002-0.083-0.002
			c-0.254,0-0.45,0.069-0.586,0.208c-0.137,0.139-0.205,0.299-0.205,0.48v1.467h-0.505L13.559,13.622L13.559,13.622z"/>
		<path fill="none" stroke="#707070" stroke-width="0.25" stroke-miterlimit="10" d="M17.312,13.693
			c0.199,0.084,0.351,0.195,0.455,0.33c0.1,0.128,0.167,0.279,0.201,0.45c0.03,0.117,0.044,0.305,0.044,0.562h-2.185
			c0.009,0.259,0.081,0.468,0.214,0.625c0.134,0.157,0.34,0.235,0.621,0.235c0.261,0,0.47-0.074,0.626-0.222
			c0.087-0.086,0.149-0.186,0.186-0.299h0.496c-0.013,0.094-0.057,0.198-0.13,0.313c-0.074,0.115-0.156,0.209-0.247,0.282
			c-0.152,0.127-0.34,0.212-0.565,0.257c-0.121,0.025-0.257,0.038-0.409,0.038c-0.372,0-0.687-0.115-0.945-0.346
			c-0.258-0.231-0.387-0.555-0.387-0.971c0-0.41,0.13-0.742,0.39-0.998c0.26-0.256,0.6-0.383,1.02-0.383
			C16.909,13.564,17.114,13.607,17.312,13.693z M17.494,14.694c-0.021-0.186-0.068-0.334-0.142-0.445
			c-0.137-0.206-0.366-0.31-0.687-0.31c-0.23,0-0.423,0.071-0.579,0.213c-0.156,0.142-0.238,0.323-0.248,0.542H17.494z"/>
		<path fill="none" stroke="#707070" stroke-width="0.25" stroke-miterlimit="10" d="M18.652,13.622h0.499v0.362
			c0.12-0.125,0.229-0.217,0.326-0.274c0.166-0.097,0.355-0.145,0.566-0.145c0.239,0,0.432,0.05,0.578,0.15
			c0.082,0.057,0.157,0.141,0.224,0.252c0.112-0.137,0.244-0.238,0.396-0.304c0.152-0.066,0.322-0.099,0.51-0.099
			c0.404,0,0.679,0.124,0.825,0.371c0.079,0.134,0.118,0.313,0.118,0.539v1.698H22.17V14.4c0-0.169-0.05-0.286-0.15-0.35
			s-0.222-0.096-0.366-0.096c-0.198,0-0.369,0.057-0.512,0.169c-0.143,0.112-0.214,0.301-0.214,0.564v1.483h-0.513v-1.665
			c0-0.173-0.024-0.299-0.073-0.379c-0.077-0.119-0.22-0.178-0.429-0.178c-0.191,0-0.364,0.062-0.521,0.188
			c-0.156,0.125-0.234,0.353-0.234,0.681v1.353h-0.505L18.652,13.622L18.652,13.622z"/>
		<path fill="none" stroke="#707070" stroke-width="0.25" stroke-miterlimit="10" d="M25.031,12.675h0.514v0.485h-0.514V12.675z
			 M25.031,13.634h0.514v2.539h-0.514V13.634z"/>
		<path fill="none" stroke="#707070" stroke-width="0.25" stroke-miterlimit="10" d="M26.266,13.634h0.494v0.338
			c0.102-0.116,0.211-0.206,0.331-0.27c0.171-0.095,0.371-0.143,0.603-0.143c0.342,0,0.632,0.111,0.869,0.332
			c0.236,0.222,0.355,0.538,0.355,0.949c0,0.556-0.172,0.953-0.516,1.19c-0.217,0.151-0.471,0.227-0.76,0.227
			c-0.229,0-0.418-0.042-0.57-0.126c-0.092-0.047-0.191-0.129-0.303-0.245v1.303h-0.504V13.634L26.266,13.634z M28.164,15.633
			c0.156-0.167,0.236-0.418,0.236-0.751c0-0.204-0.035-0.378-0.105-0.524c-0.131-0.281-0.371-0.422-0.72-0.422
			c-0.351,0-0.591,0.148-0.72,0.445c-0.07,0.159-0.104,0.361-0.104,0.605c0,0.197,0.034,0.364,0.104,0.502
			c0.131,0.264,0.371,0.396,0.72,0.396C27.812,15.885,28.008,15.801,28.164,15.633z"/>
		<path fill="none" stroke="#707070" stroke-width="0.25" stroke-miterlimit="10" d="M29.802,15.372
			c0.015,0.143,0.058,0.252,0.128,0.329c0.131,0.138,0.355,0.208,0.676,0.208c0.191,0,0.359-0.035,0.504-0.104
			c0.146-0.069,0.22-0.176,0.22-0.32c0-0.11-0.06-0.193-0.175-0.25c-0.073-0.035-0.221-0.075-0.438-0.121l-0.406-0.086
			c-0.262-0.054-0.453-0.114-0.576-0.181c-0.221-0.116-0.33-0.276-0.33-0.481c0-0.241,0.104-0.437,0.312-0.585
			c0.208-0.149,0.486-0.224,0.837-0.224c0.459,0,0.789,0.113,0.992,0.338c0.127,0.143,0.188,0.297,0.186,0.462h-0.48
			c-0.009-0.096-0.051-0.184-0.123-0.263c-0.119-0.112-0.324-0.168-0.617-0.168c-0.195,0-0.343,0.031-0.443,0.093
			c-0.1,0.062-0.148,0.143-0.148,0.244c0,0.111,0.064,0.199,0.195,0.266c0.076,0.04,0.189,0.075,0.34,0.105l0.34,0.069
			c0.369,0.075,0.617,0.147,0.742,0.217c0.195,0.109,0.295,0.282,0.295,0.517c0,0.227-0.104,0.423-0.311,0.588
			c-0.205,0.165-0.518,0.248-0.938,0.248c-0.453,0-0.773-0.086-0.961-0.258s-0.289-0.385-0.303-0.64h0.482L29.802,15.372
			L29.802,15.372z"/>
		<path fill="none" stroke="#707070" stroke-width="0.25" stroke-miterlimit="10" d="M32.878,13.622v1.693
			c0,0.13,0.022,0.237,0.071,0.319c0.087,0.152,0.25,0.229,0.488,0.229c0.342,0,0.576-0.133,0.699-0.4
			c0.065-0.143,0.102-0.339,0.102-0.588v-1.252h0.504v2.55h-0.477l0.006-0.376c-0.064,0.097-0.146,0.179-0.239,0.246
			c-0.188,0.133-0.419,0.2-0.688,0.2c-0.42,0-0.705-0.121-0.857-0.364c-0.082-0.13-0.125-0.304-0.125-0.521v-1.733h0.518
			L32.878,13.622L32.878,13.622z"/>
		<path fill="none" stroke="#707070" stroke-width="0.25" stroke-miterlimit="10" d="M35.566,13.622h0.5v0.362
			c0.119-0.125,0.229-0.217,0.326-0.274c0.166-0.097,0.354-0.145,0.564-0.145c0.236,0,0.434,0.05,0.577,0.15
			c0.082,0.057,0.155,0.141,0.224,0.252c0.113-0.137,0.244-0.238,0.396-0.304c0.15-0.066,0.322-0.099,0.511-0.099
			c0.403,0,0.679,0.124,0.823,0.371c0.08,0.134,0.119,0.313,0.119,0.539v1.698h-0.524V14.4c0-0.169-0.05-0.286-0.149-0.35
			c-0.101-0.064-0.223-0.096-0.365-0.096c-0.197,0-0.368,0.057-0.512,0.169c-0.145,0.113-0.216,0.301-0.216,0.564v1.483h-0.514
			v-1.665c0-0.173-0.022-0.299-0.072-0.379c-0.075-0.119-0.22-0.178-0.43-0.178c-0.19,0-0.363,0.062-0.521,0.188
			c-0.156,0.126-0.234,0.353-0.234,0.681v1.353h-0.504V13.622L35.566,13.622z"/>
	</g>
	<g enable-background="new    ">
		<path fill="#707070" d="M9.333,19.729c0.266,0.219,0.398,0.541,0.398,0.966c0,0.411-0.117,0.75-0.351,1.019
			c-0.234,0.269-0.597,0.402-1.089,0.402c-0.41,0-0.736-0.118-0.978-0.355c-0.242-0.237-0.362-0.556-0.362-0.956
			c0-0.428,0.127-0.769,0.381-1.023s0.596-0.381,1.025-0.381C8.743,19.401,9.067,19.511,9.333,19.729z M9.02,21.424
			c0.123-0.215,0.185-0.454,0.185-0.717c0-0.238-0.044-0.432-0.133-0.581c-0.142-0.234-0.384-0.351-0.728-0.351
			c-0.305,0-0.527,0.1-0.666,0.3c-0.139,0.2-0.208,0.441-0.208,0.723c0,0.271,0.069,0.497,0.208,0.678
			c0.139,0.181,0.359,0.271,0.66,0.271C8.67,21.746,8.896,21.639,9.02,21.424z"/>
		<path fill="#707070" d="M10.365,18.527h0.505v3.498h-0.505V18.527z"/>
		<path fill="#707070" d="M13.803,19.729c0.266,0.219,0.398,0.541,0.398,0.966c0,0.411-0.117,0.75-0.351,1.019
			c-0.234,0.269-0.597,0.402-1.089,0.402c-0.41,0-0.736-0.118-0.978-0.355c-0.242-0.237-0.362-0.556-0.362-0.956
			c0-0.428,0.127-0.769,0.381-1.023c0.254-0.254,0.596-0.381,1.025-0.381C13.213,19.401,13.538,19.511,13.803,19.729z M13.49,21.424
			c0.123-0.215,0.185-0.454,0.185-0.717c0-0.238-0.044-0.432-0.133-0.581c-0.141-0.235-0.383-0.352-0.727-0.352
			c-0.305,0-0.527,0.1-0.666,0.3c-0.139,0.2-0.208,0.441-0.208,0.723c0,0.271,0.069,0.497,0.208,0.678s0.359,0.271,0.66,0.271
			C13.14,21.746,13.367,21.639,13.49,21.424z"/>
		<path fill="#707070" d="M14.835,19.475h0.479v0.44c0.039-0.086,0.135-0.19,0.289-0.313s0.33-0.185,0.53-0.185
			c0.009,0,0.025,0,0.048,0.002c0.022,0.002,0.061,0.005,0.115,0.01v0.453c-0.03-0.005-0.058-0.008-0.083-0.01
			c-0.025-0.001-0.053-0.002-0.083-0.002c-0.254,0-0.45,0.069-0.586,0.208c-0.137,0.139-0.205,0.299-0.205,0.48v1.467h-0.505
			L14.835,19.475L14.835,19.475z"/>
		<path fill="#707070" d="M18.629,21.225c0.015,0.143,0.058,0.252,0.128,0.329c0.13,0.138,0.355,0.208,0.676,0.208
			c0.191,0,0.358-0.035,0.503-0.104c0.145-0.069,0.218-0.176,0.218-0.32c0-0.11-0.058-0.193-0.174-0.25
			c-0.074-0.035-0.22-0.075-0.439-0.121l-0.408-0.086c-0.26-0.054-0.452-0.114-0.576-0.181c-0.22-0.116-0.331-0.276-0.331-0.481
			c0-0.241,0.104-0.437,0.312-0.585c0.208-0.149,0.486-0.224,0.837-0.224c0.458,0,0.789,0.113,0.992,0.338
			c0.127,0.143,0.188,0.297,0.185,0.462h-0.477c-0.009-0.096-0.051-0.184-0.124-0.263c-0.119-0.112-0.324-0.168-0.617-0.168
			c-0.195,0-0.343,0.031-0.443,0.093c-0.101,0.062-0.151,0.143-0.151,0.244c0,0.111,0.066,0.199,0.198,0.266
			c0.076,0.04,0.188,0.075,0.337,0.105l0.34,0.069c0.37,0.075,0.617,0.147,0.743,0.217c0.196,0.109,0.294,0.282,0.294,0.517
			c0,0.227-0.103,0.423-0.308,0.588c-0.205,0.165-0.518,0.248-0.938,0.248c-0.453,0-0.773-0.086-0.961-0.258
			s-0.289-0.385-0.302-0.64h0.486V21.225z"/>
		<path fill="#707070" d="M21.201,18.527h0.513v0.485h-0.513V18.527z M21.201,19.487h0.513v2.539h-0.513V19.487z"/>
		<path fill="#707070" d="M22.578,18.763h0.51v0.712h0.479v0.35h-0.479v1.665c0,0.089,0.036,0.148,0.106,0.178
			c0.04,0.018,0.105,0.026,0.196,0.026c0.024,0,0.051,0,0.079-0.001c0.028-0.001,0.061-0.004,0.098-0.008v0.34
			c-0.058,0.014-0.118,0.024-0.181,0.031c-0.063,0.006-0.13,0.01-0.204,0.01c-0.235,0-0.395-0.051-0.479-0.154
			c-0.084-0.102-0.126-0.235-0.126-0.399v-1.688H22.17v-0.35h0.407L22.578,18.763L22.578,18.763z"/>
		<path fill="#707070" d="M27.277,20.481c0.115-0.013,0.193-0.054,0.231-0.124c0.022-0.039,0.033-0.093,0.033-0.165
			c0-0.146-0.062-0.253-0.185-0.319s-0.297-0.099-0.523-0.099c-0.266,0-0.447,0.061-0.561,0.182
			c-0.062,0.067-0.103,0.167-0.121,0.299h-0.471c0.01-0.315,0.129-0.534,0.359-0.658s0.498-0.185,0.803-0.185
			c0.354,0,0.639,0.057,0.859,0.171c0.219,0.114,0.328,0.292,0.328,0.534v1.469c0,0.044,0.01,0.08,0.031,0.107
			c0.021,0.027,0.065,0.041,0.137,0.041c0.021,0,0.048-0.001,0.076-0.003c0.026-0.002,0.058-0.006,0.09-0.011v0.316
			c-0.079,0.019-0.139,0.031-0.18,0.036c-0.041,0.004-0.1,0.007-0.168,0.007c-0.175,0-0.303-0.052-0.379-0.157
			c-0.041-0.055-0.07-0.134-0.09-0.235c-0.102,0.114-0.25,0.213-0.441,0.297s-0.404,0.126-0.637,0.126
			c-0.277,0-0.507-0.072-0.684-0.215c-0.178-0.143-0.268-0.323-0.268-0.539c0-0.236,0.088-0.419,0.264-0.549
			c0.174-0.13,0.4-0.21,0.685-0.24L27.277,20.481z M26.215,21.64c0.105,0.071,0.232,0.107,0.379,0.107
			c0.178,0,0.35-0.035,0.516-0.104c0.281-0.116,0.423-0.305,0.423-0.568v-0.345c-0.062,0.034-0.144,0.062-0.238,0.084
			c-0.099,0.022-0.19,0.038-0.285,0.047l-0.306,0.033c-0.184,0.021-0.32,0.053-0.412,0.098c-0.156,0.075-0.232,0.193-0.232,0.356
			C26.055,21.471,26.107,21.568,26.215,21.64z"/>
		<path fill="#707070" d="M28.861,19.475h0.5v0.362c0.119-0.125,0.229-0.217,0.326-0.274c0.166-0.097,0.354-0.145,0.564-0.145
			c0.238,0,0.434,0.05,0.577,0.15c0.082,0.057,0.155,0.141,0.226,0.252c0.111-0.137,0.242-0.238,0.396-0.304
			c0.149-0.066,0.321-0.099,0.51-0.099c0.403,0,0.679,0.124,0.824,0.371c0.079,0.134,0.118,0.313,0.118,0.539v1.698h-0.524v-1.772
			c0-0.169-0.05-0.286-0.149-0.35c-0.101-0.064-0.223-0.096-0.365-0.096c-0.197,0-0.368,0.057-0.512,0.169
			c-0.145,0.113-0.215,0.301-0.215,0.564v1.483h-0.515v-1.665c0-0.173-0.022-0.299-0.072-0.379c-0.075-0.119-0.22-0.178-0.43-0.178
			c-0.19,0-0.363,0.062-0.521,0.188c-0.156,0.126-0.233,0.353-0.233,0.681v1.353h-0.505V19.475L28.861,19.475z"/>
		<path fill="#707070" d="M35.502,19.544c0.199,0.084,0.35,0.195,0.454,0.33c0.101,0.128,0.167,0.279,0.2,0.45
			c0.029,0.117,0.045,0.305,0.045,0.562h-2.186c0.01,0.259,0.082,0.468,0.215,0.625c0.135,0.157,0.34,0.235,0.621,0.235
			c0.262,0,0.471-0.074,0.625-0.222c0.088-0.086,0.148-0.187,0.187-0.299h0.496c-0.013,0.094-0.058,0.198-0.13,0.313
			c-0.074,0.115-0.156,0.209-0.248,0.282c-0.152,0.127-0.34,0.212-0.564,0.257c-0.121,0.025-0.258,0.038-0.408,0.038
			c-0.373,0-0.688-0.115-0.945-0.346c-0.256-0.231-0.387-0.555-0.387-0.971c0-0.41,0.129-0.742,0.391-0.998
			c0.261-0.256,0.601-0.383,1.021-0.383C35.098,19.417,35.303,19.459,35.502,19.544z M35.684,20.545
			c-0.021-0.186-0.066-0.334-0.143-0.445c-0.139-0.206-0.367-0.31-0.688-0.31c-0.229,0-0.422,0.071-0.578,0.213
			c-0.156,0.142-0.238,0.323-0.248,0.542H35.684z"/>
		<path fill="#707070" d="M36.941,18.763h0.51v0.712h0.48v0.35h-0.48v1.665c0,0.089,0.035,0.148,0.107,0.178
			c0.039,0.018,0.104,0.026,0.193,0.026c0.023,0,0.053,0,0.079-0.001s0.062-0.004,0.101-0.008v0.34
			c-0.061,0.014-0.119,0.024-0.184,0.031s-0.13,0.01-0.203,0.01c-0.234,0-0.396-0.051-0.479-0.154
			c-0.084-0.102-0.125-0.235-0.125-0.399v-1.688h-0.406v-0.35h0.406V18.763z"/>
		<path fill="#707070" d="M38.543,22.525c0.129-0.02,0.219-0.096,0.271-0.232c0.026-0.072,0.043-0.141,0.043-0.208
			c0-0.011-0.002-0.021-0.002-0.03c-0.002-0.009-0.004-0.019-0.008-0.03h-0.307v-0.52h0.602v0.481c0,0.189-0.045,0.355-0.137,0.498
			c-0.09,0.143-0.242,0.231-0.465,0.265L38.543,22.525L38.543,22.525z"/>
	</g>
	<g enable-background="new    ">
		<path fill="none" stroke="#707070" stroke-width="0.25" stroke-miterlimit="10" d="M9.333,19.729
			c0.266,0.219,0.398,0.541,0.398,0.966c0,0.411-0.117,0.75-0.351,1.019c-0.234,0.269-0.597,0.402-1.089,0.402
			c-0.41,0-0.736-0.118-0.978-0.355c-0.242-0.237-0.362-0.556-0.362-0.956c0-0.428,0.127-0.769,0.381-1.023s0.596-0.381,1.025-0.381
			C8.743,19.401,9.067,19.511,9.333,19.729z M9.02,21.424c0.123-0.215,0.185-0.454,0.185-0.717c0-0.238-0.044-0.432-0.133-0.581
			c-0.142-0.234-0.384-0.351-0.728-0.351c-0.305,0-0.527,0.1-0.666,0.3c-0.139,0.2-0.208,0.441-0.208,0.723
			c0,0.271,0.069,0.497,0.208,0.678c0.139,0.181,0.359,0.271,0.66,0.271C8.67,21.746,8.896,21.639,9.02,21.424z"/>
		<path fill="none" stroke="#707070" stroke-width="0.25" stroke-miterlimit="10" d="M10.365,18.527h0.505v3.498h-0.505V18.527z"/>
		<path fill="none" stroke="#707070" stroke-width="0.25" stroke-miterlimit="10" d="M13.803,19.729
			c0.266,0.219,0.398,0.541,0.398,0.966c0,0.411-0.117,0.75-0.351,1.019c-0.234,0.269-0.597,0.402-1.089,0.402
			c-0.41,0-0.736-0.118-0.978-0.355c-0.242-0.237-0.362-0.556-0.362-0.956c0-0.428,0.127-0.769,0.381-1.023
			c0.254-0.254,0.596-0.381,1.025-0.381C13.213,19.401,13.538,19.511,13.803,19.729z M13.49,21.424
			c0.123-0.215,0.185-0.454,0.185-0.717c0-0.238-0.044-0.432-0.133-0.581c-0.141-0.235-0.383-0.352-0.727-0.352
			c-0.305,0-0.527,0.1-0.666,0.3c-0.139,0.2-0.208,0.441-0.208,0.723c0,0.271,0.069,0.497,0.208,0.678s0.359,0.271,0.66,0.271
			C13.14,21.746,13.367,21.639,13.49,21.424z"/>
		<path fill="none" stroke="#707070" stroke-width="0.25" stroke-miterlimit="10" d="M14.835,19.475h0.479v0.44
			c0.039-0.086,0.135-0.19,0.289-0.313s0.33-0.185,0.53-0.185c0.009,0,0.025,0,0.048,0.002c0.022,0.002,0.061,0.005,0.115,0.01
			v0.453c-0.03-0.005-0.058-0.008-0.083-0.01c-0.025-0.001-0.053-0.002-0.083-0.002c-0.254,0-0.45,0.069-0.586,0.208
			c-0.137,0.139-0.205,0.299-0.205,0.48v1.467h-0.505L14.835,19.475L14.835,19.475z"/>
		<path fill="none" stroke="#707070" stroke-width="0.25" stroke-miterlimit="10" d="M18.629,21.225
			c0.015,0.143,0.058,0.252,0.128,0.329c0.13,0.138,0.355,0.208,0.676,0.208c0.191,0,0.358-0.035,0.503-0.104
			c0.145-0.069,0.218-0.176,0.218-0.32c0-0.11-0.058-0.193-0.174-0.25c-0.074-0.035-0.22-0.075-0.439-0.121l-0.408-0.086
			c-0.26-0.054-0.452-0.114-0.576-0.181c-0.22-0.116-0.331-0.276-0.331-0.481c0-0.241,0.104-0.437,0.312-0.585
			c0.208-0.149,0.486-0.224,0.837-0.224c0.458,0,0.789,0.113,0.992,0.338c0.127,0.143,0.188,0.297,0.185,0.462h-0.477
			c-0.009-0.096-0.051-0.184-0.124-0.263c-0.119-0.112-0.324-0.168-0.617-0.168c-0.195,0-0.343,0.031-0.443,0.093
			c-0.101,0.062-0.151,0.143-0.151,0.244c0,0.111,0.066,0.199,0.198,0.266c0.076,0.04,0.188,0.075,0.337,0.105l0.34,0.069
			c0.37,0.075,0.617,0.147,0.743,0.217c0.196,0.109,0.294,0.282,0.294,0.517c0,0.227-0.103,0.423-0.308,0.588
			c-0.205,0.165-0.518,0.248-0.938,0.248c-0.453,0-0.773-0.086-0.961-0.258s-0.289-0.385-0.302-0.64h0.486V21.225z"/>
		<path fill="none" stroke="#707070" stroke-width="0.25" stroke-miterlimit="10" d="M21.201,18.527h0.513v0.485h-0.513V18.527z
			 M21.201,19.487h0.513v2.539h-0.513V19.487z"/>
		<path fill="none" stroke="#707070" stroke-width="0.25" stroke-miterlimit="10" d="M22.578,18.763h0.51v0.712h0.479v0.35h-0.479
			v1.665c0,0.089,0.036,0.148,0.106,0.178c0.04,0.018,0.105,0.026,0.196,0.026c0.024,0,0.051,0,0.079-0.001
			c0.028-0.001,0.061-0.004,0.098-0.008v0.34c-0.058,0.014-0.118,0.024-0.181,0.031c-0.063,0.006-0.13,0.01-0.204,0.01
			c-0.235,0-0.395-0.051-0.479-0.154c-0.084-0.102-0.126-0.235-0.126-0.399v-1.688H22.17v-0.35h0.407L22.578,18.763L22.578,18.763z"
			/>
		<path fill="none" stroke="#707070" stroke-width="0.25" stroke-miterlimit="10" d="M27.277,20.481
			c0.115-0.013,0.193-0.054,0.231-0.124c0.022-0.039,0.033-0.093,0.033-0.165c0-0.146-0.062-0.253-0.185-0.319
			s-0.297-0.099-0.523-0.099c-0.266,0-0.447,0.061-0.561,0.182c-0.062,0.067-0.103,0.167-0.121,0.299h-0.471
			c0.01-0.315,0.129-0.534,0.359-0.658s0.498-0.185,0.803-0.185c0.354,0,0.639,0.057,0.859,0.171
			c0.219,0.114,0.328,0.292,0.328,0.534v1.469c0,0.044,0.01,0.08,0.031,0.107c0.021,0.027,0.065,0.041,0.137,0.041
			c0.021,0,0.048-0.001,0.076-0.003c0.026-0.002,0.058-0.006,0.09-0.011v0.316c-0.079,0.019-0.139,0.031-0.18,0.036
			c-0.041,0.004-0.1,0.007-0.168,0.007c-0.175,0-0.303-0.052-0.379-0.157c-0.041-0.055-0.07-0.134-0.09-0.235
			c-0.102,0.114-0.25,0.213-0.441,0.297s-0.404,0.126-0.637,0.126c-0.277,0-0.507-0.072-0.684-0.215
			c-0.178-0.143-0.268-0.323-0.268-0.539c0-0.236,0.088-0.419,0.264-0.549c0.174-0.13,0.4-0.21,0.685-0.24L27.277,20.481z
			 M26.215,21.64c0.105,0.071,0.232,0.107,0.379,0.107c0.178,0,0.35-0.035,0.516-0.104c0.281-0.116,0.423-0.305,0.423-0.568v-0.345
			c-0.062,0.034-0.144,0.062-0.238,0.084c-0.099,0.022-0.19,0.038-0.285,0.047l-0.306,0.033c-0.184,0.021-0.32,0.053-0.412,0.098
			c-0.156,0.075-0.232,0.193-0.232,0.356C26.055,21.471,26.107,21.568,26.215,21.64z"/>
		<path fill="none" stroke="#707070" stroke-width="0.25" stroke-miterlimit="10" d="M28.861,19.475h0.5v0.362
			c0.119-0.125,0.229-0.217,0.326-0.274c0.166-0.097,0.354-0.145,0.564-0.145c0.238,0,0.434,0.05,0.577,0.15
			c0.082,0.057,0.155,0.141,0.226,0.252c0.111-0.137,0.242-0.238,0.396-0.304c0.149-0.066,0.321-0.099,0.51-0.099
			c0.403,0,0.679,0.124,0.824,0.371c0.079,0.134,0.118,0.313,0.118,0.539v1.698h-0.524v-1.772c0-0.169-0.05-0.286-0.149-0.35
			c-0.101-0.064-0.223-0.096-0.365-0.096c-0.197,0-0.368,0.057-0.512,0.169c-0.145,0.113-0.215,0.301-0.215,0.564v1.483h-0.515
			v-1.665c0-0.173-0.022-0.299-0.072-0.379c-0.075-0.119-0.22-0.178-0.43-0.178c-0.19,0-0.363,0.062-0.521,0.188
			c-0.156,0.126-0.233,0.353-0.233,0.681v1.353h-0.505V19.475L28.861,19.475z"/>
		<path fill="none" stroke="#707070" stroke-width="0.25" stroke-miterlimit="10" d="M35.502,19.544
			c0.199,0.084,0.35,0.195,0.454,0.33c0.101,0.128,0.167,0.279,0.2,0.45c0.029,0.117,0.045,0.305,0.045,0.562h-2.186
			c0.01,0.259,0.082,0.468,0.215,0.625c0.135,0.157,0.34,0.235,0.621,0.235c0.262,0,0.471-0.074,0.625-0.222
			c0.088-0.086,0.148-0.187,0.187-0.299h0.496c-0.013,0.094-0.058,0.198-0.13,0.313c-0.074,0.115-0.156,0.209-0.248,0.282
			c-0.152,0.127-0.34,0.212-0.564,0.257c-0.121,0.025-0.258,0.038-0.408,0.038c-0.373,0-0.688-0.115-0.945-0.346
			c-0.256-0.231-0.387-0.555-0.387-0.971c0-0.41,0.129-0.742,0.391-0.998c0.261-0.256,0.601-0.383,1.021-0.383
			C35.098,19.417,35.303,19.459,35.502,19.544z M35.684,20.545c-0.021-0.186-0.066-0.334-0.143-0.445
			c-0.139-0.206-0.367-0.31-0.688-0.31c-0.229,0-0.422,0.071-0.578,0.213c-0.156,0.142-0.238,0.323-0.248,0.542H35.684z"/>
		<path fill="none" stroke="#707070" stroke-width="0.25" stroke-miterlimit="10" d="M36.941,18.763h0.51v0.712h0.48v0.35h-0.48
			v1.665c0,0.089,0.035,0.148,0.107,0.178c0.039,0.018,0.104,0.026,0.193,0.026c0.023,0,0.053,0,0.079-0.001
			s0.062-0.004,0.101-0.008v0.34c-0.061,0.014-0.119,0.024-0.184,0.031s-0.13,0.01-0.203,0.01c-0.234,0-0.396-0.051-0.479-0.154
			c-0.084-0.102-0.125-0.235-0.125-0.399v-1.688h-0.406v-0.35h0.406V18.763z"/>
		<path fill="none" stroke="#707070" stroke-width="0.25" stroke-miterlimit="10" d="M38.543,22.525
			c0.129-0.02,0.219-0.096,0.271-0.232c0.026-0.072,0.043-0.141,0.043-0.208c0-0.011-0.002-0.021-0.002-0.03
			c-0.002-0.009-0.004-0.019-0.008-0.03h-0.307v-0.52h0.602v0.481c0,0.189-0.045,0.355-0.137,0.498
			c-0.09,0.143-0.242,0.231-0.465,0.265L38.543,22.525L38.543,22.525z"/>
	</g>
	<g enable-background="new    ">
		<path fill="#707070" d="M9.141,25.463c0.212,0.141,0.34,0.381,0.383,0.722H9.033c-0.03-0.157-0.098-0.288-0.205-0.392
			c-0.107-0.104-0.277-0.156-0.513-0.156c-0.322,0-0.551,0.133-0.69,0.398c-0.09,0.174-0.134,0.387-0.134,0.641
			c0,0.255,0.063,0.47,0.19,0.645c0.127,0.176,0.327,0.263,0.6,0.263c0.209,0,0.375-0.054,0.498-0.163
			c0.122-0.108,0.207-0.256,0.253-0.444h0.491c-0.056,0.338-0.196,0.585-0.42,0.742c-0.225,0.156-0.511,0.234-0.861,0.234
			c-0.393,0-0.706-0.121-0.939-0.365c-0.234-0.244-0.351-0.548-0.351-0.915c0-0.447,0.128-0.795,0.384-1.045
			c0.256-0.248,0.582-0.373,0.979-0.373C8.653,25.254,8.929,25.324,9.141,25.463z"/>
		<path fill="#707070" d="M12.205,25.582c0.266,0.22,0.398,0.541,0.398,0.967c0,0.41-0.117,0.75-0.351,1.02
			c-0.234,0.268-0.597,0.401-1.089,0.401c-0.41,0-0.736-0.119-0.978-0.354c-0.241-0.238-0.362-0.557-0.362-0.957
			c0-0.428,0.127-0.769,0.381-1.022s0.596-0.382,1.025-0.382C11.614,25.254,11.939,25.363,12.205,25.582z M11.891,27.277
			c0.123-0.215,0.185-0.453,0.185-0.717c0-0.238-0.044-0.432-0.133-0.581c-0.141-0.235-0.383-0.353-0.727-0.353
			c-0.305,0-0.527,0.101-0.666,0.301c-0.139,0.199-0.208,0.441-0.208,0.723c0,0.271,0.069,0.497,0.208,0.678
			c0.139,0.182,0.359,0.271,0.66,0.271C11.542,27.6,11.768,27.492,11.891,27.277z"/>
		<path fill="#707070" d="M13.223,25.328h0.479v0.361c0.142-0.148,0.292-0.256,0.452-0.32c0.159-0.065,0.335-0.099,0.53-0.099
			c0.426,0,0.714,0.126,0.864,0.378c0.083,0.139,0.124,0.336,0.124,0.594v1.636h-0.513v-1.607c0-0.155-0.027-0.28-0.082-0.376
			c-0.089-0.158-0.252-0.238-0.488-0.238c-0.12,0-0.218,0.01-0.294,0.031c-0.138,0.035-0.26,0.105-0.365,0.209
			c-0.084,0.084-0.139,0.172-0.164,0.262s-0.038,0.217-0.038,0.385v1.336h-0.505V25.328z"/>
		<path fill="#707070" d="M16.717,27.078c0.015,0.143,0.058,0.252,0.128,0.328c0.13,0.139,0.355,0.209,0.676,0.209
			c0.191,0,0.358-0.035,0.503-0.104s0.218-0.177,0.218-0.32c0-0.11-0.058-0.192-0.174-0.25c-0.074-0.034-0.22-0.075-0.439-0.12
			l-0.408-0.086c-0.26-0.055-0.452-0.115-0.576-0.182c-0.22-0.116-0.331-0.275-0.331-0.48c0-0.242,0.104-0.438,0.312-0.586
			s0.486-0.224,0.837-0.224c0.458,0,0.789,0.112,0.992,0.338c0.127,0.144,0.188,0.297,0.185,0.462h-0.477
			c-0.009-0.096-0.051-0.184-0.124-0.263c-0.119-0.112-0.324-0.168-0.617-0.168c-0.195,0-0.343,0.03-0.443,0.093
			c-0.101,0.062-0.151,0.143-0.151,0.244c0,0.111,0.066,0.199,0.198,0.266c0.076,0.041,0.188,0.075,0.337,0.105l0.34,0.068
			c0.37,0.076,0.617,0.147,0.743,0.217c0.196,0.109,0.294,0.283,0.294,0.518c0,0.227-0.103,0.423-0.308,0.588
			s-0.518,0.249-0.938,0.249c-0.453,0-0.773-0.086-0.961-0.258s-0.289-0.386-0.302-0.64h0.486V27.078z"/>
		<path fill="#707070" d="M21.143,25.398c0.199,0.084,0.351,0.195,0.455,0.33c0.1,0.128,0.167,0.279,0.201,0.45
			c0.03,0.116,0.044,0.306,0.044,0.562h-2.185c0.009,0.26,0.081,0.469,0.214,0.625c0.134,0.157,0.34,0.235,0.621,0.235
			c0.261,0,0.47-0.073,0.626-0.222c0.087-0.086,0.149-0.186,0.186-0.299h0.496c-0.013,0.094-0.057,0.197-0.13,0.312
			c-0.074,0.115-0.156,0.209-0.247,0.282c-0.152,0.127-0.34,0.213-0.565,0.256c-0.121,0.024-0.257,0.039-0.409,0.039
			c-0.372,0-0.687-0.115-0.945-0.348c-0.258-0.231-0.387-0.556-0.387-0.972c0-0.41,0.13-0.742,0.39-0.998
			c0.26-0.256,0.6-0.383,1.02-0.383C20.739,25.271,20.944,25.313,21.143,25.398z M21.324,26.4c-0.021-0.188-0.068-0.335-0.142-0.445
			c-0.137-0.207-0.366-0.311-0.687-0.311c-0.23,0-0.423,0.071-0.579,0.213C19.76,26,19.678,26.181,19.668,26.4H21.324z"/>
		<path fill="#707070" d="M24.466,25.463c0.212,0.141,0.341,0.381,0.384,0.722h-0.492c-0.03-0.157-0.098-0.288-0.205-0.392
			c-0.107-0.104-0.277-0.156-0.513-0.156c-0.322,0-0.551,0.133-0.69,0.398c-0.09,0.174-0.134,0.387-0.134,0.641
			c0,0.255,0.063,0.47,0.19,0.645c0.127,0.176,0.327,0.263,0.6,0.263c0.209,0,0.375-0.054,0.498-0.163
			c0.122-0.108,0.207-0.256,0.253-0.444h0.491c-0.057,0.338-0.197,0.585-0.421,0.742c-0.225,0.156-0.511,0.234-0.861,0.234
			c-0.393,0-0.706-0.121-0.939-0.365c-0.234-0.244-0.351-0.548-0.351-0.915c0-0.447,0.128-0.795,0.384-1.045
			c0.256-0.248,0.582-0.373,0.979-0.373C23.979,25.254,24.254,25.324,24.466,25.463z"/>
		<path fill="#707070" d="M25.455,24.615h0.51v0.713h0.48v0.35h-0.48v1.665c0,0.089,0.036,0.147,0.107,0.178
			c0.039,0.019,0.104,0.026,0.195,0.026c0.023,0,0.051,0,0.078-0.001s0.062-0.004,0.1-0.008v0.34
			c-0.059,0.016-0.119,0.024-0.182,0.03c-0.062,0.007-0.132,0.01-0.203,0.01c-0.235,0-0.396-0.051-0.479-0.153
			c-0.084-0.102-0.126-0.233-0.126-0.397v-1.688h-0.406v-0.351h0.406V24.615z"/>
		<path fill="#707070" d="M28.805,25.398c0.199,0.084,0.353,0.195,0.455,0.33c0.1,0.128,0.166,0.279,0.2,0.45
			c0.03,0.116,0.044,0.306,0.044,0.562H27.32c0.009,0.26,0.08,0.469,0.214,0.625c0.134,0.157,0.341,0.235,0.62,0.235
			c0.262,0,0.471-0.073,0.627-0.222c0.087-0.086,0.148-0.186,0.186-0.299h0.496c-0.014,0.094-0.057,0.197-0.131,0.312
			s-0.156,0.209-0.247,0.282c-0.151,0.127-0.341,0.213-0.565,0.256c-0.119,0.024-0.256,0.039-0.408,0.039
			c-0.37,0-0.688-0.115-0.943-0.348c-0.258-0.231-0.389-0.556-0.389-0.972c0-0.41,0.131-0.742,0.392-0.998
			c0.263-0.256,0.603-0.383,1.021-0.383C28.4,25.271,28.605,25.313,28.805,25.398z M28.986,26.4
			c-0.021-0.188-0.068-0.335-0.145-0.445c-0.137-0.207-0.365-0.311-0.688-0.311c-0.229,0-0.424,0.071-0.578,0.213
			C27.421,26,27.338,26.181,27.329,26.4H28.986z"/>
		<path fill="#707070" d="M30.244,24.615h0.511v0.713h0.479v0.35h-0.479v1.665c0,0.089,0.036,0.147,0.106,0.178
			c0.039,0.019,0.104,0.026,0.195,0.026c0.023,0,0.051,0,0.08-0.001c0.025-0.001,0.061-0.004,0.098-0.008v0.34
			c-0.06,0.016-0.118,0.024-0.183,0.03c-0.062,0.007-0.13,0.01-0.202,0.01c-0.234,0-0.396-0.051-0.479-0.153
			c-0.084-0.102-0.127-0.233-0.127-0.397v-1.688h-0.406v-0.351h0.406L30.244,24.615L30.244,24.615z"/>
		<path fill="#707070" d="M32.244,25.328v1.692c0,0.13,0.023,0.237,0.07,0.319c0.088,0.152,0.25,0.229,0.49,0.229
			c0.342,0,0.572-0.134,0.696-0.401c0.065-0.143,0.103-0.338,0.103-0.588v-1.252h0.506v2.551h-0.479l0.006-0.376
			c-0.062,0.097-0.145,0.179-0.238,0.246c-0.189,0.135-0.418,0.2-0.688,0.2c-0.42,0-0.707-0.121-0.858-0.365
			c-0.082-0.131-0.123-0.305-0.123-0.521V25.33h0.517L32.244,25.328L32.244,25.328z"/>
		<path fill="#707070" d="M34.947,25.328h0.479v0.439c0.039-0.086,0.137-0.189,0.288-0.312c0.153-0.123,0.33-0.186,0.53-0.186
			c0.01,0,0.023,0,0.048,0.002c0.021,0.002,0.062,0.006,0.114,0.01v0.453c-0.029-0.005-0.059-0.008-0.082-0.01
			c-0.025-0.002-0.055-0.002-0.083-0.002c-0.257,0-0.45,0.068-0.587,0.208s-0.203,0.299-0.203,0.479v1.468h-0.508v-2.55H34.947z"/>
		<path fill="#707070" d="M40.052,26.334c0.116-0.012,0.193-0.053,0.233-0.123c0.021-0.039,0.033-0.094,0.033-0.166
			c0-0.145-0.062-0.252-0.186-0.318s-0.297-0.1-0.523-0.1c-0.264,0-0.449,0.062-0.561,0.183c-0.062,0.067-0.102,0.167-0.119,0.3
			h-0.473c0.01-0.316,0.129-0.535,0.357-0.658c0.23-0.125,0.498-0.186,0.805-0.186c0.354,0,0.64,0.057,0.857,0.171
			c0.221,0.114,0.328,0.292,0.328,0.534v1.469c0,0.045,0.012,0.08,0.032,0.107s0.067,0.041,0.136,0.041
			c0.023,0,0.049-0.001,0.076-0.003c0.028-0.002,0.059-0.006,0.09-0.011v0.315c-0.078,0.02-0.139,0.03-0.18,0.037
			c-0.041,0.004-0.098,0.006-0.168,0.006c-0.174,0-0.301-0.052-0.379-0.156c-0.041-0.056-0.07-0.135-0.087-0.235
			c-0.103,0.114-0.251,0.214-0.442,0.298c-0.193,0.084-0.404,0.127-0.637,0.127c-0.279,0-0.506-0.072-0.684-0.217
			c-0.176-0.144-0.267-0.323-0.267-0.54c0-0.235,0.088-0.418,0.263-0.549c0.174-0.129,0.4-0.209,0.684-0.24L40.052,26.334z
			 M38.988,27.492c0.107,0.071,0.232,0.107,0.379,0.107c0.178,0,0.35-0.035,0.516-0.104c0.281-0.117,0.422-0.306,0.422-0.568v-0.346
			c-0.062,0.035-0.142,0.062-0.238,0.084c-0.098,0.022-0.19,0.039-0.283,0.047l-0.307,0.033c-0.184,0.021-0.319,0.054-0.414,0.099
			c-0.153,0.075-0.231,0.192-0.231,0.356C38.829,27.324,38.883,27.422,38.988,27.492z"/>
	</g>
	<g enable-background="new    ">
		<path fill="none" stroke="#707070" stroke-width="0.25" stroke-miterlimit="10" d="M9.141,25.463
			c0.212,0.141,0.34,0.381,0.383,0.722H9.033c-0.03-0.157-0.098-0.288-0.205-0.392c-0.107-0.104-0.277-0.156-0.513-0.156
			c-0.322,0-0.551,0.133-0.69,0.398c-0.09,0.174-0.134,0.387-0.134,0.641c0,0.255,0.063,0.47,0.19,0.645
			c0.127,0.176,0.327,0.263,0.6,0.263c0.209,0,0.375-0.054,0.498-0.163c0.122-0.108,0.207-0.256,0.253-0.444h0.491
			c-0.056,0.338-0.196,0.585-0.42,0.742c-0.225,0.156-0.511,0.234-0.861,0.234c-0.393,0-0.706-0.121-0.939-0.365
			c-0.234-0.244-0.351-0.548-0.351-0.915c0-0.447,0.128-0.795,0.384-1.045c0.256-0.248,0.582-0.373,0.979-0.373
			C8.653,25.254,8.929,25.324,9.141,25.463z"/>
		<path fill="none" stroke="#707070" stroke-width="0.25" stroke-miterlimit="10" d="M12.205,25.582
			c0.266,0.22,0.398,0.541,0.398,0.967c0,0.41-0.117,0.75-0.351,1.02c-0.234,0.268-0.597,0.401-1.089,0.401
			c-0.41,0-0.736-0.119-0.978-0.354c-0.241-0.238-0.362-0.557-0.362-0.957c0-0.428,0.127-0.769,0.381-1.022s0.596-0.382,1.025-0.382
			C11.614,25.254,11.939,25.363,12.205,25.582z M11.891,27.277c0.123-0.215,0.185-0.453,0.185-0.717
			c0-0.238-0.044-0.432-0.133-0.581c-0.141-0.235-0.383-0.353-0.727-0.353c-0.305,0-0.527,0.101-0.666,0.301
			c-0.139,0.199-0.208,0.441-0.208,0.723c0,0.271,0.069,0.497,0.208,0.678c0.139,0.182,0.359,0.271,0.66,0.271
			C11.542,27.6,11.768,27.492,11.891,27.277z"/>
		<path fill="none" stroke="#707070" stroke-width="0.25" stroke-miterlimit="10" d="M13.223,25.328h0.479v0.361
			c0.142-0.148,0.292-0.256,0.452-0.32c0.159-0.065,0.335-0.099,0.53-0.099c0.426,0,0.714,0.126,0.864,0.378
			c0.083,0.139,0.124,0.336,0.124,0.594v1.636h-0.513v-1.607c0-0.155-0.027-0.28-0.082-0.376c-0.089-0.158-0.252-0.238-0.488-0.238
			c-0.12,0-0.218,0.01-0.294,0.031c-0.138,0.035-0.26,0.105-0.365,0.209c-0.084,0.084-0.139,0.172-0.164,0.262
			s-0.038,0.217-0.038,0.385v1.336h-0.505V25.328z"/>
		<path fill="none" stroke="#707070" stroke-width="0.25" stroke-miterlimit="10" d="M16.717,27.078
			c0.015,0.143,0.058,0.252,0.128,0.328c0.13,0.139,0.355,0.209,0.676,0.209c0.191,0,0.358-0.035,0.503-0.104
			s0.218-0.177,0.218-0.32c0-0.11-0.058-0.192-0.174-0.25c-0.074-0.034-0.22-0.075-0.439-0.12l-0.408-0.086
			c-0.26-0.055-0.452-0.115-0.576-0.182c-0.22-0.116-0.331-0.275-0.331-0.48c0-0.242,0.104-0.438,0.312-0.586
			s0.486-0.224,0.837-0.224c0.458,0,0.789,0.112,0.992,0.338c0.127,0.144,0.188,0.297,0.185,0.462h-0.477
			c-0.009-0.096-0.051-0.184-0.124-0.263c-0.119-0.112-0.324-0.168-0.617-0.168c-0.195,0-0.343,0.03-0.443,0.093
			c-0.101,0.062-0.151,0.143-0.151,0.244c0,0.111,0.066,0.199,0.198,0.266c0.076,0.041,0.188,0.075,0.337,0.105l0.34,0.068
			c0.37,0.076,0.617,0.147,0.743,0.217c0.196,0.109,0.294,0.283,0.294,0.518c0,0.227-0.103,0.423-0.308,0.588
			s-0.518,0.249-0.938,0.249c-0.453,0-0.773-0.086-0.961-0.258s-0.289-0.386-0.302-0.64h0.486V27.078z"/>
		<path fill="none" stroke="#707070" stroke-width="0.25" stroke-miterlimit="10" d="M21.143,25.398
			c0.199,0.084,0.351,0.195,0.455,0.33c0.1,0.128,0.167,0.279,0.201,0.45c0.03,0.116,0.044,0.306,0.044,0.562h-2.185
			c0.009,0.26,0.081,0.469,0.214,0.625c0.134,0.157,0.34,0.235,0.621,0.235c0.261,0,0.47-0.073,0.626-0.222
			c0.087-0.086,0.149-0.186,0.186-0.299h0.496c-0.013,0.094-0.057,0.197-0.13,0.312c-0.074,0.115-0.156,0.209-0.247,0.282
			c-0.152,0.127-0.34,0.213-0.565,0.256c-0.121,0.024-0.257,0.039-0.409,0.039c-0.372,0-0.687-0.115-0.945-0.348
			c-0.258-0.231-0.387-0.556-0.387-0.972c0-0.41,0.13-0.742,0.39-0.998c0.26-0.256,0.6-0.383,1.02-0.383
			C20.739,25.271,20.944,25.313,21.143,25.398z M21.324,26.4c-0.021-0.188-0.068-0.335-0.142-0.445
			c-0.137-0.207-0.366-0.311-0.687-0.311c-0.23,0-0.423,0.071-0.579,0.213C19.76,26,19.678,26.181,19.668,26.4H21.324z"/>
		<path fill="none" stroke="#707070" stroke-width="0.25" stroke-miterlimit="10" d="M24.466,25.463
			c0.212,0.141,0.341,0.381,0.384,0.722h-0.492c-0.03-0.157-0.098-0.288-0.205-0.392c-0.107-0.104-0.277-0.156-0.513-0.156
			c-0.322,0-0.551,0.133-0.69,0.398c-0.09,0.174-0.134,0.387-0.134,0.641c0,0.255,0.063,0.47,0.19,0.645
			c0.127,0.176,0.327,0.263,0.6,0.263c0.209,0,0.375-0.054,0.498-0.163c0.122-0.108,0.207-0.256,0.253-0.444h0.491
			c-0.057,0.338-0.197,0.585-0.421,0.742c-0.225,0.156-0.511,0.234-0.861,0.234c-0.393,0-0.706-0.121-0.939-0.365
			c-0.234-0.244-0.351-0.548-0.351-0.915c0-0.447,0.128-0.795,0.384-1.045c0.256-0.248,0.582-0.373,0.979-0.373
			C23.979,25.254,24.254,25.324,24.466,25.463z"/>
		<path fill="none" stroke="#707070" stroke-width="0.25" stroke-miterlimit="10" d="M25.455,24.615h0.51v0.713h0.48v0.35h-0.48
			v1.665c0,0.089,0.036,0.147,0.107,0.178c0.039,0.019,0.104,0.026,0.195,0.026c0.023,0,0.051,0,0.078-0.001s0.062-0.004,0.1-0.008
			v0.34c-0.059,0.016-0.119,0.024-0.182,0.03c-0.062,0.007-0.132,0.01-0.203,0.01c-0.235,0-0.396-0.051-0.479-0.153
			c-0.084-0.102-0.126-0.233-0.126-0.397v-1.688h-0.406v-0.351h0.406V24.615z"/>
		<path fill="none" stroke="#707070" stroke-width="0.25" stroke-miterlimit="10" d="M28.805,25.398
			c0.199,0.084,0.353,0.195,0.455,0.33c0.1,0.128,0.166,0.279,0.2,0.45c0.03,0.116,0.044,0.306,0.044,0.562H27.32
			c0.009,0.26,0.08,0.469,0.214,0.625c0.134,0.157,0.341,0.235,0.62,0.235c0.262,0,0.471-0.073,0.627-0.222
			c0.087-0.086,0.148-0.186,0.186-0.299h0.496c-0.014,0.094-0.057,0.197-0.131,0.312s-0.156,0.209-0.247,0.282
			c-0.151,0.127-0.341,0.213-0.565,0.256c-0.119,0.024-0.256,0.039-0.408,0.039c-0.37,0-0.688-0.115-0.943-0.348
			c-0.258-0.231-0.389-0.556-0.389-0.972c0-0.41,0.131-0.742,0.392-0.998c0.263-0.256,0.603-0.383,1.021-0.383
			C28.4,25.271,28.605,25.313,28.805,25.398z M28.986,26.4c-0.021-0.188-0.068-0.335-0.145-0.445
			c-0.137-0.207-0.365-0.311-0.688-0.311c-0.229,0-0.424,0.071-0.578,0.213C27.421,26,27.338,26.181,27.329,26.4H28.986z"/>
		<path fill="none" stroke="#707070" stroke-width="0.25" stroke-miterlimit="10" d="M30.244,24.615h0.511v0.713h0.479v0.35h-0.479
			v1.665c0,0.089,0.036,0.147,0.106,0.178c0.039,0.019,0.104,0.026,0.195,0.026c0.023,0,0.051,0,0.08-0.001
			c0.025-0.001,0.061-0.004,0.098-0.008v0.34c-0.06,0.016-0.118,0.024-0.183,0.03c-0.062,0.007-0.13,0.01-0.202,0.01
			c-0.234,0-0.396-0.051-0.479-0.153c-0.084-0.102-0.127-0.233-0.127-0.397v-1.688h-0.406v-0.351h0.406L30.244,24.615L30.244,24.615
			z"/>
		<path fill="none" stroke="#707070" stroke-width="0.25" stroke-miterlimit="10" d="M32.244,25.328v1.692
			c0,0.13,0.023,0.237,0.07,0.319c0.088,0.152,0.25,0.229,0.49,0.229c0.342,0,0.572-0.134,0.696-0.401
			c0.065-0.143,0.103-0.338,0.103-0.588v-1.252h0.506v2.551h-0.479l0.006-0.376c-0.062,0.097-0.145,0.179-0.238,0.246
			c-0.189,0.135-0.418,0.2-0.688,0.2c-0.42,0-0.707-0.121-0.858-0.365c-0.082-0.131-0.123-0.305-0.123-0.521V25.33h0.517
			L32.244,25.328L32.244,25.328z"/>
		<path fill="none" stroke="#707070" stroke-width="0.25" stroke-miterlimit="10" d="M34.947,25.328h0.479v0.439
			c0.039-0.086,0.137-0.189,0.288-0.312c0.153-0.123,0.33-0.186,0.53-0.186c0.01,0,0.023,0,0.048,0.002
			c0.021,0.002,0.062,0.006,0.114,0.01v0.453c-0.029-0.005-0.059-0.008-0.082-0.01c-0.025-0.002-0.055-0.002-0.083-0.002
			c-0.257,0-0.45,0.068-0.587,0.208s-0.203,0.299-0.203,0.479v1.468h-0.508v-2.55H34.947z"/>
		<path fill="none" stroke="#707070" stroke-width="0.25" stroke-miterlimit="10" d="M40.052,26.334
			c0.116-0.012,0.193-0.053,0.233-0.123c0.021-0.039,0.033-0.094,0.033-0.166c0-0.145-0.062-0.252-0.186-0.318s-0.297-0.1-0.523-0.1
			c-0.264,0-0.449,0.062-0.561,0.183c-0.062,0.067-0.102,0.167-0.119,0.3h-0.473c0.01-0.316,0.129-0.535,0.357-0.658
			c0.23-0.125,0.498-0.186,0.805-0.186c0.354,0,0.64,0.057,0.857,0.171c0.221,0.114,0.328,0.292,0.328,0.534v1.469
			c0,0.045,0.012,0.08,0.032,0.107s0.067,0.041,0.136,0.041c0.023,0,0.049-0.001,0.076-0.003c0.028-0.002,0.059-0.006,0.09-0.011
			v0.315c-0.078,0.02-0.139,0.03-0.18,0.037c-0.041,0.004-0.098,0.006-0.168,0.006c-0.174,0-0.301-0.052-0.379-0.156
			c-0.041-0.056-0.07-0.135-0.087-0.235c-0.103,0.114-0.251,0.214-0.442,0.298c-0.193,0.084-0.404,0.127-0.637,0.127
			c-0.279,0-0.506-0.072-0.684-0.217c-0.176-0.144-0.267-0.323-0.267-0.54c0-0.235,0.088-0.418,0.263-0.549
			c0.174-0.129,0.4-0.209,0.684-0.24L40.052,26.334z M38.988,27.492c0.107,0.071,0.232,0.107,0.379,0.107
			c0.178,0,0.35-0.035,0.516-0.104c0.281-0.117,0.422-0.306,0.422-0.568v-0.346c-0.062,0.035-0.142,0.062-0.238,0.084
			c-0.098,0.022-0.19,0.039-0.283,0.047l-0.307,0.033c-0.184,0.021-0.319,0.054-0.414,0.099c-0.153,0.075-0.231,0.192-0.231,0.356
			C38.829,27.324,38.883,27.422,38.988,27.492z"/>
	</g>
	<g enable-background="new    ">
		<path fill="#707070" d="M7.157,30.231H7.67v0.483H7.157V30.231z M7.157,31.19H7.67v2.539H7.157V31.19z"/>
		<path fill="#707070" d="M8.391,31.19h0.494v0.339c0.101-0.116,0.212-0.206,0.332-0.271c0.171-0.096,0.371-0.144,0.602-0.144
			c0.341,0,0.631,0.108,0.869,0.332c0.238,0.222,0.357,0.538,0.357,0.948c0,0.557-0.172,0.951-0.515,1.189
			c-0.218,0.15-0.471,0.227-0.76,0.227c-0.227,0-0.417-0.043-0.571-0.127c-0.09-0.047-0.19-0.129-0.301-0.244v1.305H8.391V31.19z
			 M10.29,33.19c0.157-0.168,0.235-0.418,0.235-0.752c0-0.203-0.035-0.377-0.104-0.523c-0.131-0.281-0.371-0.422-0.72-0.422
			c-0.351,0-0.591,0.148-0.72,0.445c-0.069,0.158-0.104,0.361-0.104,0.604c0,0.196,0.035,0.363,0.104,0.502
			c0.131,0.266,0.371,0.396,0.72,0.396C9.937,33.44,10.133,33.356,10.29,33.19z"/>
		<path fill="#707070" d="M11.627,30.231h0.513v0.483h-0.513V30.231z M11.627,31.19h0.513v2.539h-0.513V31.19z"/>
		<path fill="#707070" d="M13.203,32.929c0.015,0.146,0.058,0.254,0.128,0.33c0.13,0.137,0.355,0.207,0.676,0.207
			c0.191,0,0.358-0.035,0.503-0.104c0.145-0.069,0.218-0.176,0.218-0.319c0-0.11-0.058-0.192-0.174-0.251
			c-0.074-0.033-0.22-0.074-0.439-0.121l-0.408-0.086c-0.26-0.054-0.452-0.113-0.576-0.181c-0.22-0.116-0.331-0.276-0.331-0.481
			c0-0.24,0.104-0.437,0.312-0.585c0.208-0.149,0.486-0.225,0.837-0.225c0.458,0,0.789,0.112,0.992,0.338
			c0.127,0.144,0.188,0.297,0.185,0.463H14.65c-0.009-0.097-0.051-0.185-0.124-0.265c-0.119-0.11-0.324-0.168-0.617-0.168
			c-0.195,0-0.343,0.031-0.443,0.094c-0.1,0.062-0.151,0.145-0.151,0.244c0,0.109,0.066,0.199,0.198,0.266
			c0.076,0.04,0.188,0.075,0.337,0.104l0.34,0.07c0.37,0.074,0.617,0.146,0.743,0.217c0.196,0.108,0.294,0.281,0.294,0.518
			c0,0.229-0.103,0.424-0.308,0.588c-0.205,0.166-0.518,0.248-0.938,0.248c-0.453,0-0.773-0.086-0.961-0.258
			c-0.188-0.174-0.289-0.387-0.302-0.643H13.203z"/>
		<path fill="#707070" d="M17.758,31.315c0.212,0.139,0.34,0.379,0.383,0.721H17.65c-0.03-0.157-0.098-0.287-0.205-0.393
			c-0.107-0.104-0.277-0.154-0.513-0.154c-0.322,0-0.551,0.133-0.69,0.398c-0.09,0.174-0.134,0.387-0.134,0.641
			c0,0.255,0.063,0.47,0.19,0.645c0.127,0.174,0.327,0.262,0.6,0.262c0.209,0,0.375-0.055,0.498-0.162
			c0.122-0.107,0.207-0.258,0.253-0.443h0.491c-0.056,0.338-0.196,0.586-0.42,0.742c-0.225,0.154-0.511,0.232-0.861,0.232
			c-0.393,0-0.706-0.121-0.939-0.365c-0.234-0.242-0.351-0.549-0.351-0.913c0-0.446,0.128-0.796,0.384-1.046
			c0.256-0.25,0.582-0.375,0.979-0.375C17.271,31.104,17.546,31.175,17.758,31.315z"/>
		<path fill="#707070" d="M18.646,30.231h0.513v0.483h-0.513V30.231z M18.646,31.19h0.513v2.539h-0.513V31.19z"/>
		<path fill="#707070" d="M19.922,31.179h0.479v0.362c0.142-0.149,0.292-0.257,0.452-0.321c0.159-0.063,0.335-0.098,0.53-0.098
			c0.426,0,0.714,0.126,0.864,0.379c0.083,0.139,0.124,0.336,0.124,0.592v1.637h-0.513v-1.605c0-0.154-0.027-0.279-0.082-0.377
			c-0.089-0.158-0.252-0.236-0.488-0.236c-0.12,0-0.218,0.012-0.294,0.029c-0.138,0.035-0.26,0.104-0.365,0.21
			c-0.084,0.085-0.139,0.171-0.164,0.263c-0.025,0.09-0.038,0.219-0.038,0.385v1.336h-0.505V31.179z"/>
		<path fill="#707070" d="M24.786,31.281c0.095,0.056,0.19,0.137,0.29,0.243v-0.322h0.466v2.32c0,0.324-0.056,0.578-0.167,0.767
			c-0.209,0.347-0.604,0.519-1.183,0.519c-0.322,0-0.593-0.061-0.813-0.184c-0.22-0.123-0.343-0.316-0.369-0.578h0.513
			c0.024,0.115,0.072,0.203,0.145,0.266c0.113,0.096,0.292,0.145,0.536,0.145c0.384,0,0.636-0.117,0.755-0.35
			c0.07-0.137,0.104-0.381,0.098-0.73c-0.1,0.133-0.221,0.229-0.363,0.291c-0.141,0.062-0.326,0.098-0.561,0.098
			c-0.324,0-0.607-0.1-0.851-0.295c-0.243-0.195-0.365-0.521-0.365-0.975c0-0.427,0.123-0.761,0.368-1
			c0.245-0.24,0.541-0.357,0.887-0.357C24.406,31.134,24.611,31.183,24.786,31.281z M24.848,31.741
			c-0.152-0.152-0.347-0.229-0.583-0.229c-0.354,0-0.595,0.141-0.726,0.424c-0.069,0.148-0.103,0.348-0.103,0.593
			c0,0.286,0.068,0.506,0.205,0.655c0.137,0.148,0.32,0.226,0.551,0.226c0.361,0,0.615-0.14,0.761-0.417
			c0.082-0.156,0.123-0.34,0.123-0.551C25.076,32.128,25,31.894,24.848,31.741z"/>
		<path fill="#707070" d="M29.762,31.249c0.198,0.085,0.35,0.195,0.453,0.33c0.102,0.129,0.168,0.279,0.201,0.45
			c0.029,0.116,0.045,0.305,0.045,0.562h-2.186c0.01,0.26,0.082,0.469,0.215,0.625c0.134,0.156,0.34,0.234,0.621,0.234
			c0.261,0,0.47-0.073,0.625-0.223c0.088-0.086,0.147-0.188,0.186-0.299h0.496c-0.014,0.094-0.057,0.197-0.13,0.312
			c-0.073,0.113-0.156,0.209-0.247,0.279c-0.152,0.127-0.34,0.215-0.564,0.26c-0.121,0.023-0.258,0.035-0.41,0.035
			c-0.371,0-0.686-0.113-0.942-0.346c-0.258-0.229-0.39-0.555-0.39-0.971c0-0.41,0.133-0.742,0.393-0.998
			c0.262-0.256,0.602-0.383,1.021-0.383C29.357,31.122,29.562,31.165,29.762,31.249z M29.941,32.251
			c-0.021-0.186-0.067-0.334-0.144-0.445c-0.138-0.207-0.364-0.311-0.688-0.311c-0.229,0-0.422,0.072-0.576,0.214
			c-0.156,0.142-0.238,0.323-0.248,0.542H29.941z"/>
		<path fill="#707070" d="M31.113,30.231h0.506v3.498h-0.506V30.231z"/>
		<path fill="#707070" d="M32.376,30.231h0.513v0.483h-0.513V30.231z M32.376,31.19h0.513v2.539h-0.513V31.19z"/>
		<path fill="#707070" d="M33.753,30.468h0.511v0.711h0.479v0.353h-0.479v1.665c0,0.088,0.035,0.146,0.105,0.178
			c0.04,0.02,0.105,0.026,0.197,0.026c0.021,0,0.051-0.003,0.078-0.003c0.026-0.002,0.061-0.004,0.098-0.008v0.34
			c-0.057,0.016-0.117,0.024-0.18,0.031c-0.063,0.006-0.131,0.01-0.205,0.01c-0.234,0-0.396-0.051-0.479-0.152
			c-0.084-0.104-0.126-0.234-0.126-0.396v-1.688h-0.406v-0.351h0.406L33.753,30.468L33.753,30.468z"/>
		<path fill="#707070" d="M35.368,33.21h0.586v0.52h-0.586V33.21z"/>
	</g>
	<g enable-background="new    ">
		<path fill="none" stroke="#707070" stroke-width="0.25" stroke-miterlimit="10" d="M7.157,30.231H7.67v0.483H7.157V30.231z
			 M7.157,31.19H7.67v2.539H7.157V31.19z"/>
		<path fill="none" stroke="#707070" stroke-width="0.25" stroke-miterlimit="10" d="M8.391,31.19h0.494v0.339
			c0.101-0.116,0.212-0.206,0.332-0.271c0.171-0.096,0.371-0.144,0.602-0.144c0.341,0,0.631,0.108,0.869,0.332
			c0.238,0.222,0.357,0.538,0.357,0.948c0,0.557-0.172,0.951-0.515,1.189c-0.218,0.15-0.471,0.227-0.76,0.227
			c-0.227,0-0.417-0.043-0.571-0.127c-0.09-0.047-0.19-0.129-0.301-0.244v1.305H8.391V31.19z M10.29,33.19
			c0.157-0.168,0.235-0.418,0.235-0.752c0-0.203-0.035-0.377-0.104-0.523c-0.131-0.281-0.371-0.422-0.72-0.422
			c-0.351,0-0.591,0.148-0.72,0.445c-0.069,0.158-0.104,0.361-0.104,0.604c0,0.196,0.035,0.363,0.104,0.502
			c0.131,0.266,0.371,0.396,0.72,0.396C9.937,33.44,10.133,33.356,10.29,33.19z"/>
		<path fill="none" stroke="#707070" stroke-width="0.25" stroke-miterlimit="10" d="M11.627,30.231h0.513v0.483h-0.513V30.231z
			 M11.627,31.19h0.513v2.539h-0.513V31.19z"/>
		<path fill="none" stroke="#707070" stroke-width="0.25" stroke-miterlimit="10" d="M13.203,32.929
			c0.015,0.146,0.058,0.254,0.128,0.33c0.13,0.137,0.355,0.207,0.676,0.207c0.191,0,0.358-0.035,0.503-0.104
			c0.145-0.069,0.218-0.176,0.218-0.319c0-0.11-0.058-0.192-0.174-0.251c-0.074-0.033-0.22-0.074-0.439-0.121l-0.408-0.086
			c-0.26-0.054-0.452-0.113-0.576-0.181c-0.22-0.116-0.331-0.276-0.331-0.481c0-0.24,0.104-0.437,0.312-0.585
			c0.208-0.149,0.486-0.225,0.837-0.225c0.458,0,0.789,0.112,0.992,0.338c0.127,0.144,0.188,0.297,0.185,0.463H14.65
			c-0.009-0.097-0.051-0.185-0.124-0.265c-0.119-0.11-0.324-0.168-0.617-0.168c-0.195,0-0.343,0.031-0.443,0.094
			c-0.1,0.062-0.151,0.145-0.151,0.244c0,0.109,0.066,0.199,0.198,0.266c0.076,0.04,0.188,0.075,0.337,0.104l0.34,0.07
			c0.37,0.074,0.617,0.146,0.743,0.217c0.196,0.108,0.294,0.281,0.294,0.518c0,0.229-0.103,0.424-0.308,0.588
			c-0.205,0.166-0.518,0.248-0.938,0.248c-0.453,0-0.773-0.086-0.961-0.258c-0.188-0.174-0.289-0.387-0.302-0.643H13.203z"/>
		<path fill="none" stroke="#707070" stroke-width="0.25" stroke-miterlimit="10" d="M17.758,31.315
			c0.212,0.139,0.34,0.379,0.383,0.721H17.65c-0.03-0.157-0.098-0.287-0.205-0.393c-0.107-0.104-0.277-0.154-0.513-0.154
			c-0.322,0-0.551,0.133-0.69,0.398c-0.09,0.174-0.134,0.387-0.134,0.641c0,0.255,0.063,0.47,0.19,0.645
			c0.127,0.174,0.327,0.262,0.6,0.262c0.209,0,0.375-0.055,0.498-0.162c0.122-0.107,0.207-0.258,0.253-0.443h0.491
			c-0.056,0.338-0.196,0.586-0.42,0.742c-0.225,0.154-0.511,0.232-0.861,0.232c-0.393,0-0.706-0.121-0.939-0.365
			c-0.234-0.242-0.351-0.549-0.351-0.913c0-0.446,0.128-0.796,0.384-1.046c0.256-0.25,0.582-0.375,0.979-0.375
			C17.271,31.104,17.546,31.175,17.758,31.315z"/>
		<path fill="none" stroke="#707070" stroke-width="0.25" stroke-miterlimit="10" d="M18.646,30.231h0.513v0.483h-0.513V30.231z
			 M18.646,31.19h0.513v2.539h-0.513V31.19z"/>
		<path fill="none" stroke="#707070" stroke-width="0.25" stroke-miterlimit="10" d="M19.922,31.179h0.479v0.362
			c0.142-0.149,0.292-0.257,0.452-0.321c0.159-0.063,0.335-0.098,0.53-0.098c0.426,0,0.714,0.126,0.864,0.379
			c0.083,0.139,0.124,0.336,0.124,0.592v1.637h-0.513v-1.605c0-0.154-0.027-0.279-0.082-0.377c-0.089-0.158-0.252-0.236-0.488-0.236
			c-0.12,0-0.218,0.012-0.294,0.029c-0.138,0.035-0.26,0.104-0.365,0.21c-0.084,0.085-0.139,0.171-0.164,0.263
			c-0.025,0.09-0.038,0.219-0.038,0.385v1.336h-0.505V31.179z"/>
		<path fill="none" stroke="#707070" stroke-width="0.25" stroke-miterlimit="10" d="M24.786,31.281
			c0.095,0.056,0.19,0.137,0.29,0.243v-0.322h0.466v2.32c0,0.324-0.056,0.578-0.167,0.767c-0.209,0.347-0.604,0.519-1.183,0.519
			c-0.322,0-0.593-0.061-0.813-0.184c-0.22-0.123-0.343-0.316-0.369-0.578h0.513c0.024,0.115,0.072,0.203,0.145,0.266
			c0.113,0.096,0.292,0.145,0.536,0.145c0.384,0,0.636-0.117,0.755-0.35c0.07-0.137,0.104-0.381,0.098-0.73
			c-0.1,0.133-0.221,0.229-0.363,0.291c-0.141,0.062-0.326,0.098-0.561,0.098c-0.324,0-0.607-0.1-0.851-0.295
			c-0.243-0.195-0.365-0.521-0.365-0.975c0-0.427,0.123-0.761,0.368-1c0.245-0.24,0.541-0.357,0.887-0.357
			C24.406,31.134,24.611,31.183,24.786,31.281z M24.848,31.741c-0.152-0.152-0.347-0.229-0.583-0.229
			c-0.354,0-0.595,0.141-0.726,0.424c-0.069,0.148-0.103,0.348-0.103,0.593c0,0.286,0.068,0.506,0.205,0.655
			c0.137,0.148,0.32,0.226,0.551,0.226c0.361,0,0.615-0.14,0.761-0.417c0.082-0.156,0.123-0.34,0.123-0.551
			C25.076,32.128,25,31.894,24.848,31.741z"/>
		<path fill="none" stroke="#707070" stroke-width="0.25" stroke-miterlimit="10" d="M29.762,31.249
			c0.198,0.085,0.35,0.195,0.453,0.33c0.102,0.129,0.168,0.279,0.201,0.45c0.029,0.116,0.045,0.305,0.045,0.562h-2.186
			c0.01,0.26,0.082,0.469,0.215,0.625c0.134,0.156,0.34,0.234,0.621,0.234c0.261,0,0.47-0.073,0.625-0.223
			c0.088-0.086,0.147-0.188,0.186-0.299h0.496c-0.014,0.094-0.057,0.197-0.13,0.312c-0.073,0.113-0.156,0.209-0.247,0.279
			c-0.152,0.127-0.34,0.215-0.564,0.26c-0.121,0.023-0.258,0.035-0.41,0.035c-0.371,0-0.686-0.113-0.942-0.346
			c-0.258-0.229-0.39-0.555-0.39-0.971c0-0.41,0.133-0.742,0.393-0.998c0.262-0.256,0.602-0.383,1.021-0.383
			C29.357,31.122,29.562,31.165,29.762,31.249z M29.941,32.251c-0.021-0.186-0.067-0.334-0.144-0.445
			c-0.138-0.207-0.364-0.311-0.688-0.311c-0.229,0-0.422,0.072-0.576,0.214c-0.156,0.142-0.238,0.323-0.248,0.542H29.941z"/>
		<path fill="none" stroke="#707070" stroke-width="0.25" stroke-miterlimit="10" d="M31.113,30.231h0.506v3.498h-0.506V30.231z"/>
		<path fill="none" stroke="#707070" stroke-width="0.25" stroke-miterlimit="10" d="M32.376,30.231h0.513v0.483h-0.513V30.231z
			 M32.376,31.19h0.513v2.539h-0.513V31.19z"/>
		<path fill="none" stroke="#707070" stroke-width="0.25" stroke-miterlimit="10" d="M33.753,30.468h0.511v0.711h0.479v0.353h-0.479
			v1.665c0,0.088,0.035,0.146,0.105,0.178c0.04,0.02,0.105,0.026,0.197,0.026c0.021,0,0.051-0.003,0.078-0.003
			c0.026-0.002,0.061-0.004,0.098-0.008v0.34c-0.057,0.016-0.117,0.024-0.18,0.031c-0.063,0.006-0.131,0.01-0.205,0.01
			c-0.234,0-0.396-0.051-0.479-0.152c-0.084-0.104-0.126-0.234-0.126-0.396v-1.688h-0.406v-0.351h0.406L33.753,30.468L33.753,30.468
			z"/>
		<path fill="none" stroke="#707070" stroke-width="0.25" stroke-miterlimit="10" d="M35.368,33.21h0.586v0.52h-0.586V33.21z"/>
	</g>
	<circle fill="#FFFFFF" stroke="#333333" stroke-width="2" stroke-miterlimit="10" cx="30.627" cy="36.934" r="9.542"/>
	<path fill="#333333" stroke="#333333" stroke-width="0.25" stroke-miterlimit="10" d="M29.625,33.638
		c-0.736,0.715-1.32,1.271-1.893,1.84c-0.459,0.457-0.943,0.752-1.531,0.236c-0.438-0.387-0.375-0.938,0.203-1.535
		c1.094-1.125,2.201-2.24,3.33-3.33c0.647-0.631,1.092-0.641,1.723-0.027c1.158,1.113,2.285,2.266,3.42,3.404
		c0.42,0.425,0.686,0.896,0.209,1.44c-0.395,0.459-0.934,0.417-1.535-0.142c-0.594-0.549-1.158-1.131-1.891-1.85
		c-0.041,0.555-0.086,0.887-0.086,1.217c-0.006,2.313-0.002,4.631-0.01,6.945c0,0.352,0.062,0.776-0.105,1.03
		c-0.207,0.308-0.627,0.62-0.963,0.63c-0.248,0.009-0.637-0.432-0.732-0.736c-0.133-0.436-0.059-0.935-0.061-1.402
		c-0.002-2.196,0.002-4.396-0.004-6.594C29.699,34.472,29.662,34.175,29.625,33.638z"/>
</g>
</svg>
