<svg id="Layer_1" data-name="Layer 1" xmlns="http://www.w3.org/2000/svg" viewBox="0 0 48 48"><defs><style>.cls-1,.cls-2{fill:#333;}.cls-1{stroke:#333;stroke-linecap:round;stroke-linejoin:round;stroke-width:2px;}</style></defs><polygon class="cls-1" points="12.81 3.7 35.19 3.7 26.39 13.11 26.46 19.73 21.61 22.53 21.61 13.11 12.81 3.7"/><path class="cls-2" d="M25.61,41.81a5.16,5.16,0,0,1-4.8,2.49A4.52,4.52,0,0,1,16,39.56c0-3.6,3-5.41,6.55-5.41a7.47,7.47,0,0,1,2.93.57V33.17c0-2.15-1-3.16-3.06-3.16a12.51,12.51,0,0,0-5.18,1.51,3.93,3.93,0,0,1-.13-1.14,5.22,5.22,0,0,1,.5-2.35A16.22,16.22,0,0,1,23.36,27c3.94,0,5.88,1.69,5.88,6.16v6.08a4.3,4.3,0,0,0,.44,2.12A11.29,11.29,0,0,0,32,41a2.38,2.38,0,0,1,0,.43,4.47,4.47,0,0,1-.47,1.89,10,10,0,0,1-4.17,1,3.75,3.75,0,0,1-1.51-2.49Zm-.06-5.21a9.93,9.93,0,0,0-2.12-.27c-2.29,0-3.57,1.08-3.57,2.69a2.35,2.35,0,0,0,2.59,2.46A3.88,3.88,0,0,0,25.55,40Z"/></svg>
