<svg xmlns="http://www.w3.org/2000/svg" viewBox="0 0 48 48"><defs><style>.cls-1{fill:#333;}.cls-2{fill:#fff;}</style></defs><g id="Draw_Layer" data-name="Draw Layer"><path class="cls-1" d="M25.45,43.16a4.66,4.66,0,0,1-4.32,2.24,4.07,4.07,0,0,1-4.33-4.26c0-3.24,2.7-4.87,5.9-4.87a6.7,6.7,0,0,1,2.63.51V35.39c0-1.93-.94-2.84-2.75-2.84a11.21,11.21,0,0,0-4.66,1.36,3.55,3.55,0,0,1-.12-1,4.55,4.55,0,0,1,.46-2.11,14.54,14.54,0,0,1,5.16-.94c3.54,0,5.3,1.51,5.3,5.53v5.47a3.93,3.93,0,0,0,.39,1.91,10.46,10.46,0,0,0,2.06-.3,2,2,0,0,1,0,.39,4,4,0,0,1-.43,1.69A8.89,8.89,0,0,1,27,45.4a3.38,3.38,0,0,1-1.36-2.24Zm-.06-4.68a8.45,8.45,0,0,0-1.9-.24c-2.06,0-3.21,1-3.21,2.41a2.11,2.11,0,0,0,2.33,2.21,3.44,3.44,0,0,0,2.78-1.3Z"/><rect class="cls-1" x="19" y="2.6" width="10" height="25"/><rect class="cls-1" x="30" y="12.6" width="10" height="15"/><rect class="cls-1" x="8" y="7.6" width="10" height="20"/><path class="cls-2" d="M33.71,21.78a2,2,0,0,0,.16.85,1.11,1.11,0,0,0,1.1.61,1.2,1.2,0,0,0,.86-.34,1.25,1.25,0,0,0,.37-1,1.1,1.1,0,0,0-.68-1.12,3.62,3.62,0,0,0-1.22-.15v-1.2a3.2,3.2,0,0,0,1.14-.16,1,1,0,0,0,.55-1,1.09,1.09,0,0,0-.28-.79,1,1,0,0,0-.8-.31,1,1,0,0,0-.87.38,1.6,1.6,0,0,0-.26,1H32.22a4,4,0,0,1,.21-1.2,2.68,2.68,0,0,1,.65-.92,2.29,2.29,0,0,1,.77-.46A3.57,3.57,0,0,1,35,15.85a2.92,2.92,0,0,1,2,.63,2.1,2.1,0,0,1,.75,1.69,1.92,1.92,0,0,1-.44,1.27,1.65,1.65,0,0,1-.59.44,1.24,1.24,0,0,1,.66.39,2.12,2.12,0,0,1,.63,1.62,2.68,2.68,0,0,1-.74,1.89A2.82,2.82,0,0,1,35,24.6a2.68,2.68,0,0,1-2.51-1.18,3.59,3.59,0,0,1-.41-1.64Z"/><path class="cls-2" d="M10.48,22.93a4.68,4.68,0,0,1,1.69-1.8A11.51,11.51,0,0,0,13.66,20a1.75,1.75,0,0,0,.53-1.22,1.36,1.36,0,0,0-.3-.9,1.06,1.06,0,0,0-.86-.36A1.05,1.05,0,0,0,12,18a3,3,0,0,0-.18,1.05H10.18a4.08,4.08,0,0,1,.4-1.76A2.44,2.44,0,0,1,13,16.06a3,3,0,0,1,2.15.75,2.8,2.8,0,0,1,.23,3.65,5.39,5.39,0,0,1-1.21,1.09l-.67.47a10.51,10.51,0,0,0-.86.65,1.94,1.94,0,0,0-.39.46h3.71V24.6H10.09A4.14,4.14,0,0,1,10.48,22.93Z"/><path class="cls-2" d="M21.29,18.74V17.6a8.31,8.31,0,0,0,1.11-.1,1.55,1.55,0,0,0,.81-.45,1.32,1.32,0,0,0,.33-.61,1.43,1.43,0,0,0,.06-.34H25v8.5H23.29V18.74Z"/></g></svg>
