<svg id="Layer_1" data-name="Layer 1" xmlns="http://www.w3.org/2000/svg" viewBox="0 0 48 48"><defs><style>.cls-1{fill:#333;}</style></defs><rect class="cls-1" x="16.08" y="5.17" width="28.06" height="10.52"/><rect class="cls-1" x="16.08" y="18.74" width="15.99" height="10.52"/><rect class="cls-1" x="16.08" y="32.31" width="6.85" height="10.52"/><path class="cls-1" d="M6.77,6.34H8.7l2.89,8.17H9.74L9.2,12.83h-3l-.56,1.68H3.86Zm-.11,5.08H8.75l-1-3.21Z"/><path class="cls-1" d="M10.44,20.88a2.08,2.08,0,0,1,.37,1.25,1.81,1.81,0,0,1-.37,1.2,1.92,1.92,0,0,1-.63.47,1.84,1.84,0,0,1,.95.72,2.15,2.15,0,0,1,.31,1.19A2.43,2.43,0,0,1,10.71,27a2.22,2.22,0,0,1-.58.64,2.34,2.34,0,0,1-.92.41,5.91,5.91,0,0,1-1.15.11H4.38V20H8.32A2.54,2.54,0,0,1,10.44,20.88ZM6,21.43v1.8H8a1.68,1.68,0,0,0,.86-.2.79.79,0,0,0,.34-.72.73.73,0,0,0-.44-.75,3,3,0,0,0-1-.13Zm0,3.15v2.18H8a2,2,0,0,0,.82-.14,1,1,0,0,0,.54-1,.88.88,0,0,0-.52-.88A2.11,2.11,0,0,0,8,24.58Z"/><path class="cls-1" d="M5.27,34.31a3.32,3.32,0,0,1,2.51-1,3.38,3.38,0,0,1,3,1.35,3,3,0,0,1,.56,1.52H9.61a2.33,2.33,0,0,0-.42-.88,1.65,1.65,0,0,0-1.35-.53,1.66,1.66,0,0,0-1.44.75,3.65,3.65,0,0,0-.52,2.12,3.23,3.23,0,0,0,.55,2.06,1.72,1.72,0,0,0,1.41.68,1.59,1.59,0,0,0,1.34-.58,2.73,2.73,0,0,0,.43-.95H11.3A3.65,3.65,0,0,1,10.18,41a3.25,3.25,0,0,1-2.31.84,3.47,3.47,0,0,1-2.74-1.13,4.55,4.55,0,0,1-1-3.12A4.49,4.49,0,0,1,5.27,34.31Z"/></svg>
