<?xml version="1.0" encoding="UTF-8" standalone="no"?>
<svg
   xmlns:dc="http://purl.org/dc/elements/1.1/"
   xmlns:cc="http://creativecommons.org/ns#"
   xmlns:rdf="http://www.w3.org/1999/02/22-rdf-syntax-ns#"
   xmlns:svg="http://www.w3.org/2000/svg"
   xmlns="http://www.w3.org/2000/svg"
   xmlns:sodipodi="http://sodipodi.sourceforge.net/DTD/sodipodi-0.dtd"
   xmlns:inkscape="http://www.inkscape.org/namespaces/inkscape"
   version="1.1"
   id="Layer_1"
   x="0px"
   y="0px"
   width="48px"
   height="48px"
   viewBox="0 0 48 48"
   enable-background="new 0 0 48 48"
   xml:space="preserve"
   sodipodi:docname="RelevantTerms.svg"
   inkscape:version="1.0.2 (e86c8708, 2021-01-15)"><metadata
   id="metadata3475"><rdf:RDF><cc:Work
       rdf:about=""><dc:format>image/svg+xml</dc:format><dc:type
         rdf:resource="http://purl.org/dc/dcmitype/StillImage" /><dc:title></dc:title></cc:Work></rdf:RDF></metadata><defs
   id="defs3473" /><sodipodi:namedview
   pagecolor="#ffffff"
   bordercolor="#666666"
   borderopacity="1"
   objecttolerance="10"
   gridtolerance="10"
   guidetolerance="10"
   inkscape:pageopacity="0"
   inkscape:pageshadow="2"
   inkscape:window-width="1789"
   inkscape:window-height="1027"
   id="namedview3471"
   showgrid="false"
   inkscape:zoom="15.916667"
   inkscape:cx="24"
   inkscape:cy="23.833766"
   inkscape:window-x="0"
   inkscape:window-y="25"
   inkscape:window-maximized="0"
   inkscape:current-layer="g3468" />
<g
   id="g3468"><g
   id="g3526"
   transform="translate(16.802752,2.8446344)"><text
     xml:space="preserve"
     style="font-size:13.3333px;line-height:1.25;font-family:sans-serif;letter-spacing:0px"
     x="-0.4036448"
     y="11.913442"
     id="text3479"><tspan
       sodipodi:role="line"
       id="tspan3477"
       x="-0.4036448"
       y="11.913442"
       style="font-size:13.3333px;fill:#808080">to</tspan><tspan
       sodipodi:role="line"
       x="-0.4036448"
       y="28.580067"
       id="tspan3483"
       style="font-size:13.3333px;fill:#808080" /></text><text
     xml:space="preserve"
     style="font-size:13.3333px;line-height:1.25;font-family:sans-serif;letter-spacing:0px"
     x="-1.204424"
     y="26.598061"
     id="text3511"><tspan
       sodipodi:role="line"
       x="-1.204424"
       y="26.598061"
       id="tspan3509"
       style="font-size:13.3333px;fill:#808080">be</tspan></text><text
     xml:space="preserve"
     style="font-size:13.3333px;line-height:1.25;font-family:sans-serif;letter-spacing:0px"
     x="-0.67708164"
     y="39.557423"
     id="text3517"><tspan
       sodipodi:role="line"
       x="-0.67708164"
       y="39.557423"
       id="tspan3515"
       style="font-size:13.3333px;fill:#808080">a</tspan></text></g>
	
	
	
	
	
	
	
	
	
	
	
	<path
   fill="#333333"
   stroke="#333333"
   stroke-width="0.25"
   stroke-miterlimit="10"
   d="m 38.797775,20.73704 c -0.736,0.715 -1.32,1.271 -1.893,1.84 -0.459,0.457 -0.943,0.752 -1.531,0.236 -0.438,-0.387 -0.375,-0.938 0.203,-1.535 1.094,-1.125 2.201,-2.24 3.33,-3.33 0.647,-0.631 1.092,-0.641 1.723,-0.027 1.158,1.113 2.285,2.266 3.42,3.404 0.42,0.425 0.686,0.896 0.209,1.44 -0.395,0.459 -0.934,0.417 -1.535,-0.142 -0.594,-0.549 -1.158,-1.131 -1.891,-1.85 -0.041,0.555 -0.086,0.887 -0.086,1.217 -0.006,2.313 -0.002,4.631 -0.01,6.945 0,0.352 0.062,0.776 -0.105,1.03 -0.207,0.308 -0.501346,0.557173 -0.837346,0.567173 -0.248,0.009 -0.762654,-0.369173 -0.857654,-0.673173 -0.133,-0.436 -0.059,-0.935 -0.061,-1.402 -0.002,-2.196 0.002,-4.396 -0.004,-6.594 0,-0.292 -0.037,-0.589 -0.074,-1.126 z"
   id="path3466"
   sodipodi:nodetypes="cccccccccccccccccc" />
<path
   fill="#333333"
   stroke="#333333"
   stroke-width="0.25"
   stroke-miterlimit="10"
   d="m 9.1999699,27.26296 c 0.736,-0.715 1.3200001,-1.271 1.8930001,-1.84 0.459,-0.457 0.943,-0.752 1.531,-0.236 0.438,0.387 0.375,0.938 -0.203,1.535 -1.094,1.125 -2.201,2.24 -3.3300001,3.33 -0.647,0.631 -1.092,0.641 -1.723,0.027 -1.1580002,-1.113 -2.2850002,-2.266 -3.4200002,-3.404 -0.42,-0.425 -0.686,-0.896 -0.209,-1.44 0.395,-0.459 0.934,-0.417 1.535,0.142 0.594,0.549 1.1580002,1.131 1.8910002,1.85 0.041,-0.555 0.086,-0.887 0.086,-1.217 0.006,-2.313 0.002,-4.631 0.01,-6.945 0,-0.352 -0.062,-0.776 0.105,-1.03 0.207,-0.308 0.501346,-0.557173 0.837346,-0.567173 0.248,-0.009 0.762654,0.369173 0.857654,0.673173 0.133,0.436 0.059,0.935 0.061,1.402 0.002,2.196 -0.002,4.396 0.004,6.594 0,0.292 0.037,0.589 0.074,1.126 z"
   id="path3485"
   sodipodi:nodetypes="cccccccccccccccccc" /></g>
</svg>
