<?xml version="1.0" encoding="utf-8"?>
<!-- Generator: Adobe Illustrator 16.1.0, SVG Export Plug-In . SVG Version: 6.00 Build 0)  -->
<!DOCTYPE svg PUBLIC "-//W3C//DTD SVG 1.1//EN" "http://www.w3.org/Graphics/SVG/1.1/DTD/svg11.dtd">
<svg version="1.1" id="Layer_1" xmlns="http://www.w3.org/2000/svg" xmlns:xlink="http://www.w3.org/1999/xlink" x="0px" y="0px"
	 width="48px" height="48px" viewBox="0 0 48 48" enable-background="new 0 0 48 48" xml:space="preserve">
<g>
	<g>
		<path fill="#333333" d="M18.366,10.512c0,2.027-1.127,3.179-2.866,3.179c-1.835,0-2.866-1.092-2.866-3.179
			c0-1.858,1.235-2.998,2.866-2.998C17.215,7.514,18.366,8.581,18.366,10.512z M15.5,12.778c0.972,0,1.439-0.875,1.439-2.267
			c0-1.199-0.563-2.099-1.439-2.099c-0.936,0-1.451,0.84-1.451,2.099C14.049,11.879,14.601,12.778,15.5,12.778z"/>
	</g>
	<path fill="#333333" d="M18.366,22.512c0,2.027-1.127,3.179-2.866,3.179c-1.835,0-2.866-1.092-2.866-3.179
		c0-1.858,1.235-2.998,2.866-2.998C17.215,19.514,18.366,20.581,18.366,22.512z M15.5,24.778c0.972,0,1.439-0.875,1.439-2.267
		c0-1.199-0.563-2.099-1.439-2.099c-0.936,0-1.451,0.84-1.451,2.099C14.049,23.879,14.601,24.778,15.5,24.778z"/>
	<path fill="#333333" d="M23.964,20.833c0.144-0.695,0.743-1.319,1.547-1.319c0.18,0,0.432,0.023,0.576,0.096
		c0.12,0.18,0.192,0.528,0.192,0.888c0,0.156-0.012,0.312-0.048,0.432c-0.24-0.132-0.6-0.204-0.864-0.204
		c-0.54,0-1.055,0.3-1.355,0.899v2.891c0.348,0.036,0.912,0.132,1.175,0.24c0.06,0.168,0.084,0.527,0.048,0.731h-3.514
		c0.024-0.228,0.096-0.527,0.18-0.695c0.18-0.108,0.503-0.216,0.731-0.288v-3.85h-0.852c0-0.265,0.096-0.636,0.24-0.852
		c0.276-0.12,0.696-0.204,1.104-0.204c0.24,0,0.516,0.036,0.684,0.096v1.14H23.964z"/>
	<path fill="#333333" d="M18.225,35.512c0,2.027-1.127,3.179-2.867,3.179c-1.835,0-2.866-1.092-2.866-3.179
		c0-1.858,1.235-2.998,2.866-2.998C17.073,32.514,18.225,33.581,18.225,35.512z M15.358,37.778c0.972,0,1.439-0.875,1.439-2.267
		c0-1.199-0.563-2.099-1.439-2.099c-0.935,0-1.451,0.84-1.451,2.099C13.907,36.879,14.458,37.778,15.358,37.778z"/>
	<path fill="#333333" d="M23.878,33.833c0.144-0.695,0.743-1.319,1.547-1.319c0.18,0,0.432,0.023,0.576,0.096
		c0.12,0.18,0.192,0.528,0.192,0.888c0,0.156-0.012,0.312-0.048,0.432c-0.24-0.132-0.6-0.204-0.864-0.204
		c-0.54,0-1.055,0.3-1.355,0.899v2.891c0.348,0.036,0.912,0.132,1.175,0.24c0.06,0.168,0.084,0.527,0.048,0.731h-3.514
		c0.024-0.228,0.096-0.527,0.18-0.695c0.18-0.108,0.503-0.216,0.731-0.288v-3.85h-0.852c0-0.265,0.096-0.636,0.24-0.852
		c0.276-0.12,0.696-0.204,1.104-0.204c0.24,0,0.516,0.036,0.684,0.096v1.14H23.878z"/>
	<path fill="#333333" d="M33.076,37.803c-0.324,0.563-0.912,0.888-1.715,0.888c-0.875,0-1.715-0.54-1.715-1.691
		c0-1.283,1.067-1.931,2.339-1.931c0.36,0,0.755,0.072,1.043,0.204v-0.552c0-0.768-0.372-1.128-1.091-1.128
		c-0.54,0-1.416,0.276-1.847,0.54c-0.036-0.096-0.048-0.276-0.048-0.408c0-0.312,0.072-0.659,0.18-0.839
		c0.42-0.204,1.367-0.372,2.051-0.372c1.403,0,2.099,0.6,2.099,2.194v2.171c0,0.312,0.06,0.612,0.156,0.756
		c0.204,0,0.588-0.06,0.815-0.12c0.012,0.061,0.012,0.12,0.012,0.156c0,0.228-0.072,0.479-0.168,0.672
		c-0.288,0.168-0.959,0.348-1.487,0.348c-0.251-0.145-0.468-0.504-0.54-0.888H33.076z M33.052,35.943
		c-0.216-0.06-0.552-0.096-0.755-0.096c-0.816,0-1.271,0.384-1.271,0.96c0,0.611,0.432,0.875,0.923,0.875
		c0.468,0,0.888-0.216,1.104-0.516V35.943z"/>
	<rect x="12" y="14.486" fill="#989898" width="7" height="1"/>
	<rect x="12" y="26.486" fill="#989898" width="7" height="1"/>
	<rect x="21" y="26.486" fill="#989898" width="6" height="1"/>
	<rect x="12" y="39.486" fill="#989898" width="7" height="1"/>
	<rect x="21" y="39.486" fill="#989898" width="6" height="1"/>
	<rect x="29" y="39.486" fill="#989898" width="7" height="1"/>
</g>
</svg>
