<?xml version="1.0" encoding="utf-8"?>
<!-- Generator: Adobe Illustrator 16.0.0, SVG Export Plug-In . SVG Version: 6.00 Build 0)  -->
<!DOCTYPE svg PUBLIC "-//W3C//DTD SVG 1.1//EN" "http://www.w3.org/Graphics/SVG/1.1/DTD/svg11.dtd">
<svg version="1.1" id="Layer_1" xmlns="http://www.w3.org/2000/svg" xmlns:xlink="http://www.w3.org/1999/xlink" x="0px" y="0px"
	 width="48px" height="48px" viewBox="0 0 48 48" enable-background="new 0 0 48 48" xml:space="preserve">
<g>
	<g enable-background="new    ">
		<path fill="#707070" d="M3.486,8.994H4.46v1.442h0.914v0.709H4.46v3.374c0,0.18,0.068,0.301,0.204,0.36
			c0.076,0.036,0.199,0.054,0.374,0.054c0.047,0,0.097-0.001,0.151-0.003c0.054-0.002,0.115-0.009,0.187-0.017v0.69
			c-0.111,0.027-0.225,0.05-0.344,0.062c-0.12,0.013-0.249,0.02-0.389,0.02c-0.449,0-0.753-0.104-0.914-0.311
			c-0.16-0.207-0.241-0.477-0.241-0.808v-3.421H2.712v-0.709h0.774V8.994z"/>
		<path fill="#707070" d="M10.485,10.951c0.506,0.445,0.76,1.095,0.76,1.958c0,0.831-0.223,1.519-0.669,2.062
			c-0.446,0.544-1.137,0.815-2.076,0.815c-0.782,0-1.403-0.24-1.863-0.722c-0.46-0.48-0.69-1.125-0.69-1.935
			c0-0.868,0.243-1.559,0.728-2.072c0.483-0.515,1.135-0.772,1.954-0.772C9.361,10.286,9.979,10.508,10.485,10.951z M9.888,14.386
			c0.235-0.435,0.353-0.919,0.353-1.454c0-0.481-0.085-0.873-0.254-1.176c-0.267-0.475-0.729-0.712-1.384-0.712
			c-0.582,0-1.005,0.204-1.27,0.607c-0.264,0.405-0.396,0.893-0.396,1.464c0,0.55,0.132,1.007,0.396,1.373
			c0.265,0.366,0.685,0.55,1.258,0.55C9.22,15.039,9.654,14.82,9.888,14.386z"/>
	</g>
	<g enable-background="new    ">
		<path fill="none" stroke="#707070" stroke-width="0.25" stroke-miterlimit="10" d="M3.486,8.994H4.46v1.442h0.914v0.709H4.46
			v3.374c0,0.18,0.068,0.301,0.204,0.36c0.076,0.036,0.199,0.054,0.374,0.054c0.047,0,0.097-0.001,0.151-0.003
			c0.054-0.002,0.115-0.009,0.187-0.017v0.69c-0.111,0.027-0.225,0.05-0.344,0.062c-0.12,0.013-0.249,0.02-0.389,0.02
			c-0.449,0-0.753-0.104-0.914-0.311c-0.16-0.207-0.241-0.477-0.241-0.808v-3.421H2.712v-0.709h0.774V8.994z"/>
		<path fill="none" stroke="#707070" stroke-width="0.25" stroke-miterlimit="10" d="M10.485,10.951
			c0.506,0.445,0.76,1.095,0.76,1.958c0,0.831-0.223,1.519-0.669,2.062c-0.446,0.544-1.137,0.815-2.076,0.815
			c-0.782,0-1.403-0.24-1.863-0.722c-0.46-0.48-0.69-1.125-0.69-1.935c0-0.868,0.243-1.559,0.728-2.072
			c0.483-0.515,1.135-0.772,1.954-0.772C9.361,10.286,9.979,10.508,10.485,10.951z M9.888,14.386
			c0.235-0.435,0.353-0.919,0.353-1.454c0-0.481-0.085-0.873-0.254-1.176c-0.267-0.475-0.729-0.712-1.384-0.712
			c-0.582,0-1.005,0.204-1.27,0.607c-0.264,0.405-0.396,0.893-0.396,1.464c0,0.55,0.132,1.007,0.396,1.373
			c0.265,0.366,0.685,0.55,1.258,0.55C9.22,15.039,9.654,14.82,9.888,14.386z"/>
	</g>
	<g enable-background="new    ">
		<path fill="#707070" d="M3.486,20.851H4.46v1.443h0.914v0.709H4.46v3.372c0,0.181,0.068,0.301,0.204,0.362
			c0.076,0.036,0.199,0.054,0.374,0.054c0.047,0,0.097-0.003,0.151-0.005s0.115-0.007,0.187-0.016v0.689
			c-0.111,0.029-0.225,0.049-0.344,0.063c-0.12,0.013-0.249,0.02-0.389,0.02c-0.449,0-0.753-0.104-0.914-0.312
			c-0.16-0.207-0.241-0.477-0.241-0.809v-3.42H2.712v-0.709h0.774V20.851z"/>
		<path fill="#707070" d="M10.485,22.808c0.506,0.445,0.76,1.097,0.76,1.958c0,0.833-0.223,1.52-0.669,2.063
			c-0.446,0.545-1.137,0.814-2.076,0.814c-0.782,0-1.403-0.24-1.863-0.72c-0.46-0.481-0.69-1.126-0.69-1.936
			c0-0.869,0.243-1.559,0.728-2.074c0.483-0.514,1.135-0.772,1.954-0.772C9.361,22.144,9.979,22.366,10.485,22.808z M9.888,26.244
			c0.235-0.436,0.353-0.92,0.353-1.454c0-0.481-0.085-0.873-0.254-1.175c-0.267-0.476-0.729-0.714-1.384-0.714
			c-0.582,0-1.005,0.204-1.27,0.607c-0.264,0.405-0.396,0.893-0.396,1.465c0,0.549,0.132,1.009,0.396,1.374
			c0.265,0.365,0.685,0.549,1.258,0.549C9.22,26.896,9.654,26.678,9.888,26.244z"/>
	</g>
	<g enable-background="new    ">
		<path fill="none" stroke="#707070" stroke-width="0.25" stroke-miterlimit="10" d="M3.486,20.851H4.46v1.443h0.914v0.709H4.46
			v3.372c0,0.181,0.068,0.301,0.204,0.362c0.076,0.036,0.199,0.054,0.374,0.054c0.047,0,0.097-0.003,0.151-0.005
			s0.115-0.007,0.187-0.016v0.689c-0.111,0.029-0.225,0.049-0.344,0.063c-0.12,0.013-0.249,0.02-0.389,0.02
			c-0.449,0-0.753-0.104-0.914-0.312c-0.16-0.207-0.241-0.477-0.241-0.809v-3.42H2.712v-0.709h0.774V20.851z"/>
		<path fill="none" stroke="#707070" stroke-width="0.25" stroke-miterlimit="10" d="M10.485,22.808
			c0.506,0.445,0.76,1.097,0.76,1.958c0,0.833-0.223,1.52-0.669,2.063c-0.446,0.545-1.137,0.814-2.076,0.814
			c-0.782,0-1.403-0.24-1.863-0.72c-0.46-0.481-0.69-1.126-0.69-1.936c0-0.869,0.243-1.559,0.728-2.074
			c0.483-0.514,1.135-0.772,1.954-0.772C9.361,22.144,9.979,22.366,10.485,22.808z M9.888,26.244
			c0.235-0.436,0.353-0.92,0.353-1.454c0-0.481-0.085-0.873-0.254-1.175c-0.267-0.476-0.729-0.714-1.384-0.714
			c-0.582,0-1.005,0.204-1.27,0.607c-0.264,0.405-0.396,0.893-0.396,1.465c0,0.549,0.132,1.009,0.396,1.374
			c0.265,0.365,0.685,0.549,1.258,0.549C9.22,26.896,9.654,26.678,9.888,26.244z"/>
	</g>
	<g enable-background="new    ">
		<path fill="#333333" d="M20.45,22.834c0.436,0.499,0.653,1.142,0.653,1.93c0,0.816-0.214,1.494-0.645,2.031
			c-0.429,0.538-1.029,0.806-1.799,0.806c-0.483,0-0.872-0.086-1.166-0.261c-0.176-0.103-0.366-0.283-0.57-0.54v0.661h-1.501v-7.103
			h1.523v2.527c0.194-0.245,0.407-0.43,0.641-0.56c0.276-0.16,0.627-0.241,1.055-0.241C19.41,22.086,20.014,22.335,20.45,22.834z
			 M19.177,26.037c0.219-0.287,0.329-0.662,0.329-1.129c0-0.373-0.054-0.683-0.162-0.927c-0.205-0.464-0.582-0.694-1.133-0.694
			c-0.557,0-0.938,0.226-1.149,0.679c-0.107,0.241-0.16,0.553-0.16,0.936c0,0.452,0.11,0.824,0.334,1.121
			c0.223,0.296,0.562,0.444,1.019,0.444C18.65,26.468,18.958,26.323,19.177,26.037z"/>
		<path fill="#333333" d="M25.96,22.308c0.405,0.164,0.741,0.424,1.006,0.778c0.239,0.313,0.394,0.676,0.464,1.087
			c0.043,0.241,0.06,0.591,0.053,1.044h-4.246c0.024,0.527,0.229,0.896,0.609,1.109c0.234,0.132,0.513,0.199,0.84,0.199
			c0.348,0,0.631-0.082,0.848-0.242c0.118-0.088,0.223-0.209,0.312-0.362h1.556c-0.04,0.312-0.229,0.63-0.563,0.951
			c-0.523,0.512-1.255,0.768-2.194,0.768c-0.774,0-1.459-0.216-2.051-0.647c-0.593-0.432-0.89-1.133-0.89-2.105
			c0-0.911,0.268-1.61,0.802-2.096c0.537-0.486,1.23-0.729,2.085-0.729C25.096,22.062,25.553,22.144,25.96,22.308z M23.681,23.496
			c-0.215,0.2-0.351,0.471-0.406,0.813h2.625c-0.028-0.365-0.163-0.641-0.405-0.83c-0.245-0.189-0.546-0.283-0.905-0.283
			C24.198,23.196,23.895,23.296,23.681,23.496z"/>
	</g>
	<g enable-background="new    ">
		<path fill="none" stroke="#333333" stroke-width="0.25" stroke-miterlimit="10" d="M20.45,22.834
			c0.436,0.499,0.653,1.142,0.653,1.93c0,0.816-0.214,1.494-0.645,2.031c-0.429,0.538-1.029,0.806-1.799,0.806
			c-0.483,0-0.872-0.086-1.166-0.261c-0.176-0.103-0.366-0.283-0.57-0.54v0.661h-1.501v-7.103h1.523v2.527
			c0.194-0.245,0.407-0.43,0.641-0.56c0.276-0.16,0.627-0.241,1.055-0.241C19.41,22.086,20.014,22.335,20.45,22.834z M19.177,26.037
			c0.219-0.287,0.329-0.662,0.329-1.129c0-0.373-0.054-0.683-0.162-0.927c-0.205-0.464-0.582-0.694-1.133-0.694
			c-0.557,0-0.938,0.226-1.149,0.679c-0.107,0.241-0.16,0.553-0.16,0.936c0,0.452,0.11,0.824,0.334,1.121
			c0.223,0.296,0.562,0.444,1.019,0.444C18.65,26.468,18.958,26.323,19.177,26.037z"/>
		<path fill="none" stroke="#333333" stroke-width="0.25" stroke-miterlimit="10" d="M25.96,22.308
			c0.405,0.164,0.741,0.424,1.006,0.778c0.239,0.313,0.394,0.676,0.464,1.087c0.043,0.241,0.06,0.591,0.053,1.044h-4.246
			c0.024,0.527,0.229,0.896,0.609,1.109c0.234,0.132,0.513,0.199,0.84,0.199c0.348,0,0.631-0.082,0.848-0.242
			c0.118-0.088,0.223-0.209,0.312-0.362h1.556c-0.04,0.312-0.229,0.63-0.563,0.951c-0.523,0.512-1.255,0.768-2.194,0.768
			c-0.774,0-1.459-0.216-2.051-0.647c-0.593-0.432-0.89-1.133-0.89-2.105c0-0.911,0.268-1.61,0.802-2.096
			c0.537-0.486,1.23-0.729,2.085-0.729C25.096,22.062,25.553,22.144,25.96,22.308z M23.681,23.496
			c-0.215,0.2-0.351,0.471-0.406,0.813h2.625c-0.028-0.365-0.163-0.641-0.405-0.83c-0.245-0.189-0.546-0.283-0.905-0.283
			C24.198,23.196,23.895,23.296,23.681,23.496z"/>
	</g>
	<g enable-background="new    ">
		<path fill="#707070" d="M3.486,32.708H4.46v1.44h0.914v0.71H4.46v3.374c0,0.179,0.068,0.301,0.204,0.36
			c0.076,0.035,0.199,0.053,0.374,0.053c0.047,0,0.097-0.001,0.151-0.003s0.115-0.008,0.187-0.017v0.69
			c-0.111,0.027-0.225,0.049-0.344,0.062c-0.12,0.015-0.249,0.021-0.389,0.021c-0.449,0-0.753-0.104-0.914-0.311
			c-0.16-0.208-0.241-0.478-0.241-0.808v-3.422H2.712v-0.71h0.774V32.708z"/>
		<path fill="#707070" d="M10.485,34.664c0.506,0.444,0.76,1.097,0.76,1.958c0,0.832-0.223,1.521-0.669,2.063
			C10.13,39.228,9.438,39.5,8.5,39.5c-0.782,0-1.403-0.24-1.863-0.721c-0.46-0.481-0.69-1.126-0.69-1.935
			c0-0.87,0.243-1.56,0.728-2.074c0.485-0.513,1.135-0.772,1.954-0.772C9.361,33.998,9.979,34.222,10.485,34.664z M9.888,38.1
			c0.235-0.437,0.353-0.921,0.353-1.453c0-0.483-0.085-0.874-0.254-1.177c-0.267-0.475-0.729-0.712-1.384-0.712
			c-0.582,0-1.005,0.202-1.27,0.606c-0.264,0.403-0.396,0.894-0.396,1.465c0,0.549,0.132,1.008,0.396,1.374
			c0.265,0.365,0.685,0.549,1.258,0.549C9.22,38.752,9.654,38.534,9.888,38.1z"/>
	</g>
	<g enable-background="new    ">
		<path fill="none" stroke="#707070" stroke-width="0.25" stroke-miterlimit="10" d="M3.486,32.708H4.46v1.44h0.914v0.71H4.46v3.374
			c0,0.179,0.068,0.301,0.204,0.36c0.076,0.035,0.199,0.053,0.374,0.053c0.047,0,0.097-0.001,0.151-0.003s0.115-0.008,0.187-0.017
			v0.69c-0.111,0.027-0.225,0.049-0.344,0.062c-0.12,0.015-0.249,0.021-0.389,0.021c-0.449,0-0.753-0.104-0.914-0.311
			c-0.16-0.208-0.241-0.478-0.241-0.808v-3.422H2.712v-0.71h0.774V32.708z"/>
		<path fill="none" stroke="#707070" stroke-width="0.25" stroke-miterlimit="10" d="M10.485,34.664
			c0.506,0.444,0.76,1.097,0.76,1.958c0,0.832-0.223,1.521-0.669,2.063C10.13,39.228,9.438,39.5,8.5,39.5
			c-0.782,0-1.403-0.24-1.863-0.721c-0.46-0.481-0.69-1.126-0.69-1.935c0-0.87,0.243-1.56,0.728-2.074
			c0.485-0.513,1.135-0.772,1.954-0.772C9.361,33.998,9.979,34.222,10.485,34.664z M9.888,38.1c0.235-0.437,0.353-0.921,0.353-1.453
			c0-0.483-0.085-0.874-0.254-1.177c-0.267-0.475-0.729-0.712-1.384-0.712c-0.582,0-1.005,0.202-1.27,0.606
			c-0.264,0.403-0.396,0.894-0.396,1.465c0,0.549,0.132,1.008,0.396,1.374c0.265,0.365,0.685,0.549,1.258,0.549
			C9.22,38.752,9.654,38.534,9.888,38.1z"/>
	</g>
	<g enable-background="new    ">
		<path fill="#333333" d="M20.45,34.691c0.436,0.496,0.653,1.142,0.653,1.929c0,0.817-0.214,1.493-0.645,2.031
			c-0.429,0.536-1.029,0.807-1.799,0.807c-0.483,0-0.872-0.089-1.166-0.261c-0.176-0.104-0.366-0.284-0.57-0.54v0.659h-1.501v-7.102
			h1.523v2.527c0.194-0.245,0.407-0.432,0.641-0.561c0.276-0.16,0.627-0.241,1.055-0.241C19.41,33.943,20.014,34.191,20.45,34.691z
			 M19.177,37.894c0.219-0.287,0.329-0.663,0.329-1.129c0-0.374-0.054-0.683-0.162-0.927c-0.205-0.462-0.582-0.693-1.133-0.693
			c-0.557,0-0.938,0.226-1.149,0.68c-0.107,0.241-0.16,0.553-0.16,0.937c0,0.449,0.11,0.823,0.334,1.119
			c0.223,0.296,0.562,0.445,1.019,0.445C18.65,38.322,18.958,38.18,19.177,37.894z"/>
		<path fill="#333333" d="M25.96,34.164c0.405,0.164,0.741,0.424,1.006,0.779c0.239,0.311,0.394,0.675,0.464,1.087
			c0.043,0.242,0.06,0.59,0.053,1.044h-4.246c0.024,0.527,0.229,0.897,0.609,1.109c0.234,0.131,0.513,0.196,0.84,0.196
			c0.348,0,0.631-0.078,0.848-0.241c0.118-0.086,0.223-0.207,0.312-0.36h1.556c-0.04,0.312-0.229,0.63-0.563,0.95
			c-0.523,0.511-1.255,0.769-2.194,0.769c-0.774,0-1.459-0.216-2.051-0.647c-0.593-0.432-0.89-1.133-0.89-2.104
			c0-0.912,0.268-1.61,0.802-2.096c0.537-0.487,1.23-0.73,2.085-0.73C25.096,33.918,25.553,33.998,25.96,34.164z M23.681,35.353
			c-0.215,0.199-0.351,0.472-0.406,0.814h2.625c-0.028-0.365-0.163-0.642-0.405-0.831c-0.245-0.188-0.546-0.283-0.905-0.283
			C24.198,35.052,23.895,35.151,23.681,35.353z"/>
	</g>
	<g enable-background="new    ">
		<path fill="none" stroke="#333333" stroke-width="0.25" stroke-miterlimit="10" d="M20.45,34.691
			c0.436,0.496,0.653,1.142,0.653,1.929c0,0.817-0.214,1.493-0.645,2.031c-0.429,0.536-1.029,0.807-1.799,0.807
			c-0.483,0-0.872-0.089-1.166-0.261c-0.176-0.104-0.366-0.284-0.57-0.54v0.659h-1.501v-7.102h1.523v2.527
			c0.194-0.245,0.407-0.432,0.641-0.561c0.276-0.16,0.627-0.241,1.055-0.241C19.41,33.943,20.014,34.191,20.45,34.691z
			 M19.177,37.894c0.219-0.287,0.329-0.663,0.329-1.129c0-0.374-0.054-0.683-0.162-0.927c-0.205-0.462-0.582-0.693-1.133-0.693
			c-0.557,0-0.938,0.226-1.149,0.68c-0.107,0.241-0.16,0.553-0.16,0.937c0,0.449,0.11,0.823,0.334,1.119
			c0.223,0.296,0.562,0.445,1.019,0.445C18.65,38.322,18.958,38.18,19.177,37.894z"/>
		<path fill="none" stroke="#333333" stroke-width="0.25" stroke-miterlimit="10" d="M25.96,34.164
			c0.405,0.164,0.741,0.424,1.006,0.779c0.239,0.311,0.394,0.675,0.464,1.087c0.043,0.242,0.06,0.59,0.053,1.044h-4.246
			c0.024,0.527,0.229,0.897,0.609,1.109c0.234,0.131,0.513,0.196,0.84,0.196c0.348,0,0.631-0.078,0.848-0.241
			c0.118-0.086,0.223-0.207,0.312-0.36h1.556c-0.04,0.312-0.229,0.63-0.563,0.95c-0.523,0.511-1.255,0.769-2.194,0.769
			c-0.774,0-1.459-0.216-2.051-0.647c-0.593-0.432-0.89-1.133-0.89-2.104c0-0.912,0.268-1.61,0.802-2.096
			c0.537-0.487,1.23-0.73,2.085-0.73C25.096,33.918,25.553,33.998,25.96,34.164z M23.681,35.353
			c-0.215,0.199-0.351,0.472-0.406,0.814h2.625c-0.028-0.365-0.163-0.642-0.405-0.831c-0.245-0.188-0.546-0.283-0.905-0.283
			C24.198,35.052,23.895,35.151,23.681,35.353z"/>
	</g>
	<g enable-background="new    ">
		<path fill="#707070" d="M35.437,34.664c0.507,0.444,0.758,1.097,0.758,1.958c0,0.832-0.222,1.521-0.668,2.063
			S34.39,39.5,33.45,39.5c-0.78,0-1.402-0.24-1.863-0.721c-0.459-0.481-0.688-1.126-0.688-1.935c0-0.87,0.242-1.56,0.727-2.074
			c0.485-0.513,1.137-0.772,1.954-0.772C34.311,33.998,34.93,34.222,35.437,34.664z M34.839,38.1
			c0.234-0.437,0.352-0.921,0.352-1.453c0-0.483-0.084-0.874-0.253-1.177c-0.269-0.475-0.731-0.712-1.386-0.712
			c-0.582,0-1.005,0.202-1.27,0.606c-0.263,0.403-0.396,0.894-0.396,1.465c0,0.549,0.134,1.008,0.396,1.374
			c0.265,0.365,0.686,0.549,1.261,0.549C34.172,38.752,34.604,38.534,34.839,38.1z"/>
		<path fill="#707070" d="M37.403,34.148h0.914v0.894c0.075-0.174,0.258-0.387,0.552-0.634c0.29-0.252,0.629-0.374,1.011-0.374
			c0.018,0,0.047,0,0.091,0.004c0.042,0.002,0.114,0.009,0.219,0.019v0.918c-0.058-0.01-0.11-0.017-0.158-0.021
			c-0.048-0.002-0.1-0.004-0.157-0.004c-0.484,0-0.857,0.141-1.117,0.423c-0.261,0.28-0.39,0.604-0.39,0.971v2.973h-0.962v-5.168
			H37.403z"/>
	</g>
	<g enable-background="new    ">
		<path fill="none" stroke="#707070" stroke-width="0.25" stroke-miterlimit="10" d="M35.437,34.664
			c0.507,0.444,0.758,1.097,0.758,1.958c0,0.832-0.222,1.521-0.668,2.063S34.39,39.5,33.45,39.5c-0.78,0-1.402-0.24-1.863-0.721
			c-0.459-0.481-0.688-1.126-0.688-1.935c0-0.87,0.242-1.56,0.727-2.074c0.485-0.513,1.137-0.772,1.954-0.772
			C34.311,33.998,34.93,34.222,35.437,34.664z M34.839,38.1c0.234-0.437,0.352-0.921,0.352-1.453c0-0.483-0.084-0.874-0.253-1.177
			c-0.269-0.475-0.731-0.712-1.386-0.712c-0.582,0-1.005,0.202-1.27,0.606c-0.263,0.403-0.396,0.894-0.396,1.465
			c0,0.549,0.134,1.008,0.396,1.374c0.265,0.365,0.686,0.549,1.261,0.549C34.172,38.752,34.604,38.534,34.839,38.1z"/>
		<path fill="none" stroke="#707070" stroke-width="0.25" stroke-miterlimit="10" d="M37.403,34.148h0.914v0.894
			c0.075-0.174,0.258-0.387,0.552-0.634c0.29-0.252,0.629-0.374,1.011-0.374c0.018,0,0.047,0,0.091,0.004
			c0.042,0.002,0.114,0.009,0.219,0.019v0.918c-0.058-0.01-0.11-0.017-0.158-0.021c-0.048-0.002-0.1-0.004-0.157-0.004
			c-0.484,0-0.857,0.141-1.117,0.423c-0.261,0.28-0.39,0.604-0.39,0.971v2.973h-0.962v-5.168H37.403z"/>
	</g>
</g>
</svg>
