<?xml version="1.0" encoding="UTF-8" standalone="no"?>
<svg
   xmlns:dc="http://purl.org/dc/elements/1.1/"
   xmlns:cc="http://creativecommons.org/ns#"
   xmlns:rdf="http://www.w3.org/1999/02/22-rdf-syntax-ns#"
   xmlns:svg="http://www.w3.org/2000/svg"
   xmlns="http://www.w3.org/2000/svg"
   xml:space="preserve"
   enable-background="new 0 0 48 48"
   viewBox="0 0 48 48"
   height="48px"
   width="48px"
   y="0px"
   x="0px"
   id="Layer_1"
   version="1.1"><metadata
     id="metadata3824"><rdf:RDF><cc:Work
         rdf:about=""><dc:format>image/svg+xml</dc:format><dc:type
           rdf:resource="http://purl.org/dc/dcmitype/StillImage" /><dc:title></dc:title></cc:Work></rdf:RDF></metadata><defs
     id="defs3822" /><g
     id="g3810"><path
       id="path3812"
       d="M25,8H13v32h22V17c0-4.123-8-1-8-1C28,12,27,8,25,8z"
       fill="#FFFFFF" /><path
       id="path3814"
       d="M28,6H13h-2v2v32v2h2h22h2v-2V16v-2L28,6z M35,40H13V8h12c2,0,3,4,2,8c0,0,8-3.123,8,1V40z"
       fill="#333333" /></g><path
     id="path3417"
     d="M 20.870511,38.727856 C 15.082973,38.27346 12.693519,31.979695 17.045439,28.6527 c 0.17113,-0.130823 0.136265,-0.179454 -0.169842,-0.236876 -1.865762,-0.350021 -2.304578,-2.843181 -0.754783,-4.288362 1.309751,-1.221332 2.836828,-1.29351 5.808275,-0.274533 2.215692,0.759816 3.070574,0.668223 3.065397,-0.328431 -0.0032,-0.582252 -0.321725,-0.817237 -1.09098,-0.804405 -0.546942,0.0092 -0.560869,-0.101504 -0.02125,-0.168921 4.014384,-0.501562 5.096554,4.517303 1.142708,5.299611 l -0.280363,0.05545 -0.01406,0.772424 c -0.01179,0.648134 -0.0013,0.785352 0.06631,0.852776 0.04418,0.04418 0.492688,0.440287 0.996654,0.880211 0.503972,0.439924 0.909964,0.8151 0.902217,0.833731 -0.0078,0.01865 -0.404049,0.372409 -0.880665,0.786176 -1.233601,1.070931 -1.095955,0.810831 -1.095955,2.070953 0,1.232137 -0.03965,1.165297 0.523763,0.883268 0.98049,-0.490822 1.900153,-1.438528 2.381086,-2.453696 0.179495,-0.378888 0.204647,-0.341218 0.204315,0.305965 -0.002,3.868358 -2.777657,6.217985 -6.957758,5.889794 z m 2.778123,-3.274594 c 0.266345,-0.03945 0.587481,-0.103085 0.713647,-0.141402 l 0.229388,-0.06967 0.01374,-1.1297 0.01374,-1.1297 -0.956743,-0.843273 -0.956749,-0.843279 -0.02546,1.108037 -0.02546,1.10803 -0.382308,0.159943 c -0.376038,0.157314 -1.044281,0.431575 -1.97688,0.811344 -0.541111,0.22035 -0.545995,0.237206 -0.135442,0.466898 0.877703,0.491062 2.241183,0.687554 3.488641,0.502768 z m -2.982026,-7.093104 c 0.504653,-0.202619 1.117684,-0.444982 1.362288,-0.538584 0.583471,-0.223285 0.576287,-0.234161 -0.3297,-0.498745 -0.97994,-0.286174 -1.107707,-0.253984 -2.019175,0.50874 -1.852028,1.549795 -2.053184,4.781407 -0.400576,6.435343 l 0.418644,0.418981 0.02546,-2.97867 0.02546,-2.978664 0.917543,-0.368401 z m 2.462402,2.438914 c 0.211172,-0.189243 0.614903,-0.545899 0.897164,-0.792563 0.641165,-0.560299 0.596278,-0.456048 0.57961,-1.346306 l -0.01412,-0.753948 -0.458775,-0.03719 c -0.252326,-0.02047 -0.671598,-0.08354 -0.931724,-0.140178 -0.26012,-0.05662 -0.483774,-0.102988 -0.497003,-0.102988 -0.01322,0 -0.02403,0.791384 -0.02403,1.758627 0,0.967251 0.01458,1.758634 0.03245,1.758634 0.01788,0 0.205251,-0.154838 0.416429,-0.344081 z m -5.375041,-2.607381 c 0.702796,-0.423153 1.983253,-0.934737 2.754349,-1.100452 0.445708,-0.09579 -1.331731,-0.547686 -2.186542,-0.555907 -1.129097,-0.01088 -1.700927,0.76487 -1.21795,1.652251 0.168577,0.309735 0.142815,0.309574 0.650143,0.0039 z"
     style="fill:#333;fill-opacity:1" /></svg>