<?xml version="1.0" encoding="utf-8"?>
<!-- Generator: Adobe Illustrator 16.0.0, SVG Export Plug-In . SVG Version: 6.00 Build 0)  -->
<!DOCTYPE svg PUBLIC "-//W3C//DTD SVG 1.1//EN" "http://www.w3.org/Graphics/SVG/1.1/DTD/svg11.dtd">
<svg version="1.1" id="Layer_1" xmlns="http://www.w3.org/2000/svg" xmlns:xlink="http://www.w3.org/1999/xlink" x="0px" y="0px"
	 width="348.067px" height="327.986px" viewBox="0 0 348.067 327.986" enable-background="new 0 0 348.067 327.986"
	 xml:space="preserve">
<rect x="48.534" y="147.24" fill="#FFFFFF" stroke="#414042" stroke-width="3" stroke-miterlimit="10" width="251" height="133"/>
<g>
	<line fill="#E6E7E8" x1="102.413" y1="213.74" x2="210.654" y2="213.74"/>
	<g>

			<line fill="none" stroke="#414042" stroke-width="13" stroke-miterlimit="10" x1="102.413" y1="213.74" x2="182.667" y2="213.74"/>
		<g>
			<polygon fill="#414042" points="176.977,233.187 210.654,213.74 176.977,194.293 			"/>
		</g>
	</g>
</g>
<path fill="#414042" stroke="#414042" stroke-width="5" stroke-miterlimit="10" d="M280.654,213.739
	c0,19.333-15.675,35.006-35,35.006c-19.324,0-35-15.673-35-35.006c0-19.334,15.676-35.004,35-35.004
	C264.979,178.735,280.654,194.405,280.654,213.739z"/>
<path fill="#F1F2F2" stroke="#414042" stroke-width="12" stroke-miterlimit="10" d="M137.413,213.74
	c0,19.332-15.674,35.006-35,35.006c-19.325,0-35-15.674-35-35.006c0-19.334,15.675-35.005,35-35.005
	C121.739,178.735,137.413,194.406,137.413,213.74z"/>
<g>
	<g>

			<line fill="none" stroke="#414042" stroke-width="13" stroke-miterlimit="10" x1="102.413" y1="82.751" x2="199.173" y2="171.233"/>
		<g>
			<polygon fill="#414042" points="181.85,181.745 219.826,190.121 208.097,153.043 			"/>
		</g>
	</g>
</g>
<path fill="#FFFFFF" stroke="#414042" stroke-width="12" stroke-miterlimit="10" d="M137.413,82.751
	c0,19.331-15.675,35.005-35,35.005s-35-15.674-35-35.005c0-19.334,15.674-35.005,35-35.005S137.413,63.417,137.413,82.751z"/>
</svg>
