<?xml version="1.0" encoding="utf-8"?>
<!-- Generator: Adobe Illustrator 16.0.4, SVG Export Plug-In . SVG Version: 6.00 Build 0)  -->
<!DOCTYPE svg PUBLIC "-//W3C//DTD SVG 1.1//EN" "http://www.w3.org/Graphics/SVG/1.1/DTD/svg11.dtd">
<svg version="1.1"
	 id="Layer_1" xmlns:dc="http://purl.org/dc/elements/1.1/" xmlns:cc="http://creativecommons.org/ns#" xmlns:rdf="http://www.w3.org/1999/02/22-rdf-syntax-ns#" xmlns:svg="http://www.w3.org/2000/svg"
	 xmlns="http://www.w3.org/2000/svg" xmlns:xlink="http://www.w3.org/1999/xlink" x="0px" y="0px" width="48px" height="48px"
	 viewBox="0 0 48 48" enable-background="new 0 0 48 48" xml:space="preserve">
<g>
	<g>
		<path fill="#333333" d="M9.071,9.042v21.931c0,0,8.428-0.971,8.428,7.256V17.473C17.5,9.627,9.071,9.042,9.071,9.042"/>
		<path fill="#333333" d="M13.02,7.5v19.299c0,0,4.654,0.9,4.654,9.131c0,8.242,0.027-15.313,0.027-19.737
			C17.703,8.358,13.02,7.5,13.02,7.5"/>
	</g>
	<path fill="#333333" d="M17.822,17.27v19.964c0,0,4.051-11.342,21.075,3.267c0-5.301,0.032-18.651,0.032-23.061
		C22.104,5.193,17.822,17.27,17.822,17.27"/>
	<polygon fill="#FFFFFF" points="19.433,32.22 23.2,32.22 24.422,23.823 24.453,23.823 27.795,32.22 29.309,32.22 32.811,23.823 
		32.856,23.823 33.915,32.22 37.707,32.22 35.492,17.643 31.728,17.643 28.603,25.429 25.633,17.643 21.901,17.643 	"/>
</g>
</svg>
