<?xml version="1.0" encoding="UTF-8" standalone="no"?>
<svg
   xmlns:dc="http://purl.org/dc/elements/1.1/"
   xmlns:cc="http://creativecommons.org/ns#"
   xmlns:rdf="http://www.w3.org/1999/02/22-rdf-syntax-ns#"
   xmlns:svg="http://www.w3.org/2000/svg"
   xmlns="http://www.w3.org/2000/svg"
   xmlns:sodipodi="http://sodipodi.sourceforge.net/DTD/sodipodi-0.dtd"
   xmlns:inkscape="http://www.inkscape.org/namespaces/inkscape"
   version="1.1"
   id="Layer_1"
   x="0px"
   y="0px"
   width="48px"
   height="48px"
   viewBox="0 0 48 48"
   enable-background="new 0 0 48 48"
   xml:space="preserve"
   sodipodi:docname="ScoreDocuments.svg"
   inkscape:version="1.0.1 (c497b03c, 2020-09-10)"><metadata
   id="metadata860"><rdf:RDF><cc:Work
       rdf:about=""><dc:format>image/svg+xml</dc:format><dc:type
         rdf:resource="http://purl.org/dc/dcmitype/StillImage" /></cc:Work></rdf:RDF></metadata><defs
   id="defs858" /><sodipodi:namedview
   pagecolor="#ffffff"
   bordercolor="#666666"
   borderopacity="1"
   objecttolerance="10"
   gridtolerance="10"
   guidetolerance="10"
   inkscape:pageopacity="0"
   inkscape:pageshadow="2"
   inkscape:window-width="1872"
   inkscape:window-height="1035"
   id="namedview856"
   showgrid="false"
   inkscape:zoom="14.833333"
   inkscape:cx="24"
   inkscape:cy="24"
   inkscape:window-x="48"
   inkscape:window-y="23"
   inkscape:window-maximized="1"
   inkscape:current-layer="Layer_1" />
<g
   id="g837">
	<path
   fill="#FFFFFF"
   d="M25,8H13v32h22V17c0-4.123-8-1-8-1C28,12,27,8,25,8z"
   id="path833" />
	<path
   fill="#333333"
   d="M28,6H13h-2v2v32v2h2h22h2v-2V16v-2L28,6z M35,40H13V8h12c2,0,3,4,2,8c0,0,8-3.123,8,1V40z"
   id="path835" />
</g>

<rect
   style="fill:#333333;stroke-width:1.1;stroke-linecap:round;stroke-linejoin:round;stroke-miterlimit:2.6;fill-opacity:1"
   id="rect862"
   width="4.719101"
   height="15.505618"
   x="13.685393"
   y="23.662922" /><rect
   style="fill:#333333;stroke-width:1.2237;stroke-linecap:round;stroke-linejoin:round;stroke-miterlimit:2.6;fill-opacity:1"
   id="rect862-8"
   width="4.719101"
   height="19.189182"
   x="24.292137"
   y="19.979359" /><rect
   style="fill:#333333;stroke-width:0.909881;stroke-linecap:round;stroke-linejoin:round;stroke-miterlimit:2.6;fill-opacity:1"
   id="rect862-0"
   width="4.719101"
   height="10.608961"
   x="29.595505"
   y="28.559578" /><rect
   style="fill:#333333;stroke-width:0.714207;stroke-linecap:round;stroke-linejoin:round;stroke-miterlimit:2.6;fill-opacity:1"
   id="rect862-2"
   width="4.719101"
   height="6.5365911"
   x="18.988766"
   y="32.63195" /></svg>
