<svg xmlns="http://www.w3.org/2000/svg" viewBox="0 0 48 48"><defs><style>.cls-1,.cls-3{fill:#333;}.cls-2{fill:none;stroke-width:2px;}.cls-2,.cls-3{stroke:#333;stroke-linecap:round;stroke-linejoin:round;}.cls-3{stroke-width:2px;}</style></defs><g id="Draw_Layer" data-name="Draw Layer"><path class="cls-1" d="M20.75,24.89a5,5,0,0,1-4.59,2.37,4.31,4.31,0,0,1-4.58-4.52c0-3.43,2.85-5.16,6.25-5.16a7,7,0,0,1,2.79.55V16.65c0-2-1-3-2.92-3a11.75,11.75,0,0,0-4.94,1.44A4,4,0,0,1,12.64,14a4.93,4.93,0,0,1,.48-2.24,15.5,15.5,0,0,1,5.48-1c3.75,0,5.61,1.6,5.61,5.87v5.8a4.06,4.06,0,0,0,.42,2,10.94,10.94,0,0,0,2.18-.32,2.28,2.28,0,0,1,0,.42,4.16,4.16,0,0,1-.45,1.79,9.52,9.52,0,0,1-4,.93A3.57,3.57,0,0,1,21,24.89Zm-.07-5a8.86,8.86,0,0,0-2-.25c-2.18,0-3.4,1-3.4,2.56a2.24,2.24,0,0,0,2.47,2.34,3.67,3.67,0,0,0,2.95-1.38Z"/><circle class="cls-2" cx="19.21" cy="19.34" r="13.93"/><rect class="cls-3" x="32.43" y="26.72" width="5.26" height="16.4" transform="translate(-14.43 35.02) rotate(-45)"/></g></svg>
