<?xml version="1.0" encoding="utf-8"?>
<!-- Generator: Adobe Illustrator 16.0.0, SVG Export Plug-In . SVG Version: 6.00 Build 0)  -->
<!DOCTYPE svg PUBLIC "-//W3C//DTD SVG 1.1//EN" "http://www.w3.org/Graphics/SVG/1.1/DTD/svg11.dtd">
<svg version="1.1" id="Layer_1" xmlns="http://www.w3.org/2000/svg" xmlns:xlink="http://www.w3.org/1999/xlink" x="0px" y="0px"
	 width="48px" height="48px" viewBox="0 0 48 48" enable-background="new 0 0 48 48" xml:space="preserve">
<path fill="#333333" stroke="#333333" stroke-width="0.25" stroke-miterlimit="10" d="M46.126,14.708c0,0-7.391-10.196-21.383-6.003
	c0,0-0.728,2.159-1.357,5.223c-1.117,5.43-1.928,13.704,2.157,17.837c0.942,0.954,2.146,1.688,3.667,2.114
	C41.037,37.2,46.126,14.708,46.126,14.708z"/>
<path fill="none" stroke="#FFFFFF" stroke-miterlimit="10" d="M41.105,16.853c0,0-3.126,2.205-5.385-1.146"/>
<path fill="none" stroke="#FFFFFF" stroke-miterlimit="10" d="M32.567,14.841c0,0-3.126,2.205-5.385-1.146"/>
<path fill="#FFFFFF" stroke="#FFFFFF" stroke-width="0.25" stroke-miterlimit="10" d="M36.483,29.026
	c0.036,0.054-0.049-0.136-0.075-0.203c-3.302-8.463-10.822-3.489-10.822-3.489S32.266,22.687,36.483,29.026z"/>
<path fill="#FFFFFF" stroke="#FFFFFF" stroke-width="2.5" stroke-miterlimit="10" d="M1.874,20.802c0,0,7.391-10.196,21.383-6.003
	c0,0,7.361,21.854-4.466,25.174C6.963,43.294,1.874,20.802,1.874,20.802z"/>
<path fill="#333333" stroke="#333333" stroke-width="0.25" stroke-miterlimit="10" d="M63.336,49.375c0-10.106,0-20.245,0-30.382
	c0.237-0.484,0.582-0.866,1.119-1.11c13.717,0,27.485,0,41.253,0c1.201-0.189,1.789,0.818,1.789,1.812
	c0.008,5.935,0.004,11.872,0.004,17.803c0,3.632,0.004,7.265-0.004,10.896c0,0.385-0.061,0.768-0.088,1.116
	c-0.393,0.438-0.729,0.843-1.307,0.905c-0.109,0.012-0.211,0.072-0.318,0.09c-0.117,0.016-0.238,0.004-0.354,0.004
	c-13.391,0-26.78,0-40.167,0.004c-0.672,0-1.262-0.173-1.701-0.709C63.48,49.706,63.438,49.571,63.336,49.375z M66.494,21.028
	c0,8.769,0,17.474,0,26.179c2.604,0.106,37.241,0.062,37.849-0.045c0-8.71,0-17.417,0-26.134
	C91.718,21.028,79.119,21.028,66.494,21.028z"/>
<text transform="matrix(1.1776 0 0 1 68.2061 26.5078)"><tspan x="0" y="0" fill="#707070" stroke="#707070" stroke-width="0.25" stroke-miterlimit="10" font-family="'Helvetica'" font-size="4.8771">Lorem ipsum </tspan><tspan x="0" y="5.852" fill="#707070" stroke="#707070" stroke-width="0.25" stroke-miterlimit="10" font-family="'Helvetica'" font-size="4.8771">olor sit amet, </tspan><tspan x="0" y="11.705" fill="#707070" stroke="#707070" stroke-width="0.25" stroke-miterlimit="10" font-family="'Helvetica'" font-size="4.8771">consectetur a</tspan><tspan x="0" y="17.557" fill="#707070" stroke="#707070" stroke-width="0.25" stroke-miterlimit="10" font-family="'Helvetica'" font-size="4.8771">ipiscing elit.</tspan></text>
<circle fill="#FFFFFF" stroke="#333333" stroke-width="2" stroke-miterlimit="10" cx="92.046" cy="47.269" r="9.542"/>
<path fill="#333333" stroke="#333333" stroke-width="0.25" stroke-miterlimit="10" d="M91.044,43.972
	c-0.736,0.715-1.32,1.27-1.893,1.84c-0.459,0.457-0.943,0.752-1.531,0.236c-0.438-0.386-0.375-0.939,0.203-1.535
	c1.094-1.125,2.201-2.24,3.33-3.33c0.65-0.631,1.092-0.64,1.723-0.029c1.158,1.115,2.285,2.266,3.42,3.406
	c0.42,0.424,0.686,0.894,0.209,1.441c-0.395,0.459-0.934,0.417-1.535-0.141c-0.594-0.549-1.158-1.131-1.891-1.85
	c-0.041,0.555-0.086,0.887-0.086,1.217c-0.006,2.315-0.002,4.631-0.01,6.946c0,0.351,0.064,0.777-0.105,1.031
	c-0.207,0.305-0.627,0.62-0.963,0.63c-0.248,0.008-0.637-0.43-0.732-0.738c-0.133-0.434-0.059-0.933-0.061-1.402
	c-0.002-2.197,0.002-4.396-0.004-6.594C91.118,44.806,91.081,44.509,91.044,43.972z"/>
<path fill="#333333" stroke="#333333" stroke-width="0.25" stroke-miterlimit="10" d="M1.874,20.802c0,0,7.391-10.196,21.383-6.003
	c0,0,7.361,21.854-4.466,25.174C6.963,43.294,1.874,20.802,1.874,20.802z"/>
<path fill="none" stroke="#FFFFFF" stroke-miterlimit="10" d="M7.153,26.177c0,0,1.634-3.459,5.25-1.656"/>
<path fill="none" stroke="#FFFFFF" stroke-miterlimit="10" d="M15.573,23.72c0,0,1.634-3.459,5.25-1.656"/>
<path fill="#FFFFFF" stroke="#FFFFFF" stroke-width="0.25" stroke-miterlimit="10" d="M21.446,30.198
	c0.037-0.048-0.056,0.122-0.083,0.181c-3.604,7.652-10.272,2.556-10.272,2.556S17.127,35.817,21.446,30.198z"/>
</svg>
