<?xml version="1.0" encoding="utf-8"?>
<!-- Generator: Adobe Illustrator 16.1.0, SVG Export Plug-In . SVG Version: 6.00 Build 0)  -->
<!DOCTYPE svg PUBLIC "-//W3C//DTD SVG 1.1//EN" "http://www.w3.org/Graphics/SVG/1.1/DTD/svg11.dtd">
<svg version="1.1" id="Layer_1" xmlns="http://www.w3.org/2000/svg" xmlns:xlink="http://www.w3.org/1999/xlink" x="0px" y="0px"
	 width="48px" height="48px" viewBox="0 0 48 48" enable-background="new 0 0 48 48" xml:space="preserve">
<g>
	<circle fill="#989898" cx="36.5" cy="12.501" r="2"/>
</g>
<g>
	<circle fill="#333333" cx="24.5" cy="14.501" r="2"/>
</g>
<g>
	<circle fill="#333333" cx="30.5" cy="18.501" r="2"/>
</g>
<g>
	<circle fill="#333333" cx="25.5" cy="20.501" r="2"/>
</g>
<g>
	<circle fill="#989898" cx="19.5" cy="17.501" r="2"/>
</g>
<g>
	<circle fill="#333333" cx="19.5" cy="23.501" r="2"/>
</g>
<g>
	<circle fill="#333333" cx="29.5" cy="24.501" r="2"/>
</g>
<g>
	<circle fill="#333333" cx="24.5" cy="26.501" r="2"/>
</g>
<g>
	<circle fill="#989898" cx="31.5" cy="8.501" r="2"/>
</g>
<g>
	<circle fill="#989898" cx="14.5" cy="10.501" r="2"/>
</g>
<g>
	<circle fill="#989898" cx="12.5" cy="16.501" r="2"/>
</g>
<g>
	<circle fill="#333333" cx="23.5" cy="33.501" r="2"/>
</g>
<g>
	<circle fill="#989898" cx="25.5" cy="38.501" r="2"/>
</g>
<g>
	<circle fill="#989898" cx="20.5" cy="39.501" r="2"/>
</g>
<g>
	<circle fill="#989898" cx="10.5" cy="21.501" r="2"/>
</g>
<g>
	<circle fill="#989898" cx="12.5" cy="33.501" r="2"/>
</g>
<g>
	<circle fill="#989898" cx="9.5" cy="28.501" r="2"/>
</g>
<g>
	<circle fill="#989898" cx="14.5" cy="38.501" r="2"/>
</g>
<g>
	<circle fill="#333333" cx="14.5" cy="28.501" r="2"/>
</g>
<g>
	<circle fill="#989898" cx="18.5" cy="34.501" r="2"/>
</g>
<g>
	<circle fill="#989898" cx="29.5" cy="34.501" r="2"/>
</g>
<g>
	<circle fill="#989898" cx="33.5" cy="30.501" r="2"/>
</g>
<g>
	<circle fill="#989898" cx="38.5" cy="18.501" r="2"/>
</g>
<g>
	<path fill="#333333" d="M24.75,30.5c-5.652,0-10.25-4.598-10.25-10.25C14.5,14.598,19.098,10,24.75,10S35,14.598,35,20.25
		C35,25.902,30.402,30.5,24.75,30.5z M24.75,11c-5.101,0-9.25,4.149-9.25,9.25s4.149,9.25,9.25,9.25S34,25.351,34,20.25
		S29.851,11,24.75,11z"/>
</g>
</svg>
