<svg id="Layer_1" data-name="Layer 1" xmlns="http://www.w3.org/2000/svg" viewBox="0 0 48 48"><defs><style>.cls-1{fill:#666;}</style></defs><rect class="cls-1" x="4.11" y="2.76" width="8.23" height="21.94"/><rect class="cls-1" x="14.63" y="12.2" width="8.23" height="12.51"/><rect class="cls-1" x="25.14" y="19.35" width="8.23" height="5.35"/><rect class="cls-1" x="35.66" y="12.2" width="8.23" height="12.51"/><path class="cls-1" d="M25.61,42.75a5.16,5.16,0,0,1-4.8,2.49A4.52,4.52,0,0,1,16,40.5c0-3.6,3-5.41,6.55-5.41a7.47,7.47,0,0,1,2.93.57V34.11c0-2.15-1-3.16-3.06-3.16a12.36,12.36,0,0,0-5.18,1.51,3.93,3.93,0,0,1-.13-1.14,5.22,5.22,0,0,1,.5-2.35,16.22,16.22,0,0,1,5.75-1c3.94,0,5.88,1.68,5.88,6.16v6.08a4.3,4.3,0,0,0,.44,2.12A11.34,11.34,0,0,0,32,41.94a2.54,2.54,0,0,1,0,.44,4.39,4.39,0,0,1-.47,1.88,9.89,9.89,0,0,1-4.17,1,3.75,3.75,0,0,1-1.51-2.49Zm-.06-5.21a9.33,9.33,0,0,0-2.12-.27c-2.29,0-3.57,1.08-3.57,2.69a2.35,2.35,0,0,0,2.59,2.46A3.88,3.88,0,0,0,25.55,41Z"/></svg>
