<?xml version="1.0" encoding="utf-8"?>
<!-- Generator: Adobe Illustrator 16.0.0, SVG Export Plug-In . SVG Version: 6.00 Build 0)  -->
<!DOCTYPE svg PUBLIC "-//W3C//DTD SVG 1.1//EN" "http://www.w3.org/Graphics/SVG/1.1/DTD/svg11.dtd">
<svg version="1.1" id="Layer_1" xmlns="http://www.w3.org/2000/svg" xmlns:xlink="http://www.w3.org/1999/xlink" x="0px" y="0px"
	 width="48px" height="48px" viewBox="0 0 48 48" enable-background="new 0 0 48 48" xml:space="preserve">
<circle fill="#CECECE" stroke="#CECECE" stroke-width="0.25" stroke-miterlimit="10" cx="23.934" cy="23.999" r="19.413"/>
<path fill="#333333" stroke="#333333" stroke-width="0.25" stroke-miterlimit="10" d="M116.626-24.542
	c0,0-7.392-10.196-21.383-6.003c0,0-0.728,2.159-1.356,5.223c-1.117,5.43-1.93,13.704,2.156,17.837
	c0.941,0.954,2.146,1.688,3.667,2.114C111.537-2.05,116.626-24.542,116.626-24.542z"/>
<path fill="none" stroke="#FFFFFF" stroke-miterlimit="10" d="M111.605-22.397c0,0-3.127,2.205-5.385-1.146"/>
<path fill="none" stroke="#FFFFFF" stroke-miterlimit="10" d="M103.066-24.409c0,0-3.125,2.205-5.385-1.146"/>
<path fill="#FFFFFF" stroke="#FFFFFF" stroke-width="0.25" stroke-miterlimit="10" d="M106.982-10.224
	c0.037,0.054-0.049-0.136-0.074-0.203c-3.303-8.463-10.822-3.489-10.822-3.489S102.766-16.563,106.982-10.224z"/>
<path fill="#FFFFFF" stroke="#FFFFFF" stroke-width="2.5" stroke-miterlimit="10" d="M72.374-18.448c0,0,7.392-10.196,21.383-6.003
	c0,0,7.361,21.854-4.466,25.174C77.463,4.044,72.374-18.448,72.374-18.448z"/>
<path fill="#333333" stroke="#333333" stroke-width="0.25" stroke-miterlimit="10" d="M63.336,49.375c0-10.105,0-20.245,0-30.382
	c0.236-0.484,0.582-0.866,1.119-1.11c13.717,0,27.484,0,41.253,0c1.201-0.189,1.789,0.818,1.789,1.812
	c0.008,5.935,0.004,11.872,0.004,17.803c0,3.632,0.004,7.266-0.004,10.896c0,0.385-0.062,0.768-0.088,1.114
	c-0.394,0.438-0.729,0.845-1.308,0.905c-0.108,0.014-0.211,0.07-0.317,0.09c-0.117,0.018-0.238,0.005-0.354,0.005
	c-13.391,0-26.779,0-40.166,0.005c-0.673,0-1.263-0.175-1.701-0.709C63.48,49.706,63.438,49.57,63.336,49.375z M66.494,21.028
	c0,8.769,0,17.474,0,26.179c2.604,0.105,37.24,0.062,37.849-0.045c0-8.71,0-17.417,0-26.134
	C91.718,21.028,79.119,21.028,66.494,21.028z"/>
<text transform="matrix(1.1776 0 0 1 68.207 26.5078)" fill="#707070" font-family="'Helvetica'" font-size="4.8771">Lorem ipsum </text>
<text transform="matrix(1.1776 0 0 1 68.207 26.5078)" fill="none" stroke="#707070" stroke-width="0.25" stroke-miterlimit="10" font-family="'Helvetica'" font-size="4.8771">Lorem ipsum </text>
<text transform="matrix(1.1776 0 0 1 68.207 32.3613)" fill="#707070" font-family="'Helvetica'" font-size="4.8771">olor sit amet, </text>
<text transform="matrix(1.1776 0 0 1 68.207 32.3613)" fill="none" stroke="#707070" stroke-width="0.25" stroke-miterlimit="10" font-family="'Helvetica'" font-size="4.8771">olor sit amet, </text>
<text transform="matrix(1.1776 0 0 1 68.207 38.2129)" fill="#707070" font-family="'Helvetica'" font-size="4.8771">consectetur a</text>
<text transform="matrix(1.1776 0 0 1 68.207 38.2129)" fill="none" stroke="#707070" stroke-width="0.25" stroke-miterlimit="10" font-family="'Helvetica'" font-size="4.8771">consectetur a</text>
<text transform="matrix(1.1776 0 0 1 68.207 44.0645)" fill="#707070" font-family="'Helvetica'" font-size="4.8771">ipiscing elit.</text>
<text transform="matrix(1.1776 0 0 1 68.207 44.0645)" fill="none" stroke="#707070" stroke-width="0.25" stroke-miterlimit="10" font-family="'Helvetica'" font-size="4.8771">ipiscing elit.</text>
<circle fill="#FFFFFF" stroke="#333333" stroke-width="2" stroke-miterlimit="10" cx="92.046" cy="47.269" r="9.542"/>
<path fill="#333333" stroke="#333333" stroke-width="0.25" stroke-miterlimit="10" d="M91.044,43.973
	c-0.735,0.715-1.319,1.271-1.894,1.84c-0.459,0.457-0.942,0.752-1.53,0.235c-0.438-0.386-0.375-0.938,0.203-1.534
	c1.094-1.125,2.2-2.24,3.329-3.33c0.65-0.631,1.093-0.641,1.724-0.029c1.158,1.115,2.285,2.267,3.42,3.406
	c0.42,0.424,0.687,0.895,0.209,1.44c-0.396,0.459-0.935,0.417-1.534-0.142c-0.595-0.549-1.158-1.131-1.892-1.851
	c-0.041,0.556-0.086,0.888-0.086,1.218c-0.007,2.314-0.002,4.631-0.011,6.945c0,0.352,0.063,0.777-0.104,1.031
	c-0.207,0.305-0.627,0.619-0.963,0.63c-0.248,0.008-0.638-0.431-0.731-0.737c-0.134-0.435-0.06-0.934-0.062-1.402
	c-0.002-2.196,0.002-4.396-0.004-6.594C91.118,44.807,91.081,44.509,91.044,43.973z"/>
<path fill="#333333" stroke="#333333" stroke-width="0.25" stroke-miterlimit="10" d="M72.374-18.448c0,0,7.392-10.196,21.383-6.003
	c0,0,7.361,21.854-4.466,25.174C77.463,4.044,72.374-18.448,72.374-18.448z"/>
<path fill="none" stroke="#FFFFFF" stroke-miterlimit="10" d="M77.652-13.073c0,0,1.635-3.459,5.25-1.656"/>
<path fill="none" stroke="#FFFFFF" stroke-miterlimit="10" d="M86.072-15.53c0,0,1.635-3.459,5.25-1.656"/>
<path fill="#FFFFFF" stroke="#FFFFFF" stroke-width="0.25" stroke-miterlimit="10" d="M91.945-9.052
	c0.037-0.048-0.055,0.122-0.082,0.181C88.26-1.219,81.592-6.315,81.592-6.315S87.627-3.433,91.945-9.052z"/>
<text transform="matrix(1.1776 0 0 1 23.999 -45.2476)" fill="#707070" font-family="'Helvetica'" font-size="8.7207">to </text>
<text transform="matrix(1.1776 0 0 1 23.999 -45.2476)" fill="none" stroke="#707070" stroke-width="0.25" stroke-miterlimit="10" font-family="'Helvetica'" font-size="8.7207">to </text>
<text transform="matrix(1.1776 0 0 1 35.418 -45.2476)" fill="#333333" font-family="'Helvetica-Bold'" font-size="8.7207">be</text>
<text transform="matrix(1.1776 0 0 1 35.418 -45.2476)" fill="none" stroke="#333333" stroke-width="0.25" stroke-miterlimit="10" font-family="'Helvetica-Bold'" font-size="8.7207">be</text>
<text transform="matrix(1.1776 0 0 1 47.4023 -45.2476)" fill="#333333" font-family="'Helvetica'" font-size="8.7207"> </text>
<text transform="matrix(1.1776 0 0 1 47.4023 -45.2476)" fill="none" stroke="#333333" stroke-width="0.25" stroke-miterlimit="10" font-family="'Helvetica'" font-size="8.7207"> </text>
<text transform="matrix(1.1776 0 0 1 50.2539 -45.2476)" fill="#707070" font-family="'Helvetica'" font-size="8.7207">a</text>
<text transform="matrix(1.1776 0 0 1 50.2539 -45.2476)" fill="none" stroke="#707070" stroke-width="0.25" stroke-miterlimit="10" font-family="'Helvetica'" font-size="8.7207">a</text>
<text transform="matrix(1.1776 0 0 1 55.9678 -45.2476)" fill="#333333" font-family="'Helvetica'" font-size="8.7207"> </text>
<text transform="matrix(1.1776 0 0 1 55.9678 -45.2476)" fill="none" stroke="#333333" stroke-width="0.25" stroke-miterlimit="10" font-family="'Helvetica'" font-size="8.7207"> </text>
<text transform="matrix(1.1776 0 0 1 23.999 -34.7827)" fill="#707070" font-family="'Helvetica'" font-size="8.7207">to</text>
<text transform="matrix(1.1776 0 0 1 23.999 -34.7827)" fill="none" stroke="#707070" stroke-width="0.25" stroke-miterlimit="10" font-family="'Helvetica'" font-size="8.7207">to</text>
<text transform="matrix(1.1776 0 0 1 32.5645 -34.7827)" fill="#333333" font-family="'Helvetica'" font-size="8.7207"> </text>
<text transform="matrix(1.1776 0 0 1 32.5645 -34.7827)" fill="none" stroke="#333333" stroke-width="0.25" stroke-miterlimit="10" font-family="'Helvetica'" font-size="8.7207"> </text>
<text transform="matrix(1.1776 0 0 1 35.418 -34.7827)" fill="#333333" font-family="'Helvetica-Bold'" font-size="8.7207">be</text>
<text transform="matrix(1.1776 0 0 1 35.418 -34.7827)" fill="none" stroke="#333333" stroke-width="0.25" stroke-miterlimit="10" font-family="'Helvetica-Bold'" font-size="8.7207">be</text>
<text transform="matrix(1.1776 0 0 1 47.4023 -34.7827)" fill="#333333" font-family="'Helvetica'" font-size="8.7207"> </text>
<text transform="matrix(1.1776 0 0 1 47.4023 -34.7827)" fill="none" stroke="#333333" stroke-width="0.25" stroke-miterlimit="10" font-family="'Helvetica'" font-size="8.7207"> </text>
<text transform="matrix(1.1776 0 0 1 50.2539 -34.7827)" fill="#707070" font-family="'Helvetica'" font-size="8.7207">the</text>
<text transform="matrix(1.1776 0 0 1 50.2539 -34.7827)" fill="none" stroke="#707070" stroke-width="0.25" stroke-miterlimit="10" font-family="'Helvetica'" font-size="8.7207">the</text>
<text transform="matrix(1.1776 0 0 1 64.5312 -34.7827)" fill="#333333" font-family="'Helvetica'" font-size="8.7207"> </text>
<text transform="matrix(1.1776 0 0 1 64.5312 -34.7827)" fill="none" stroke="#333333" stroke-width="0.25" stroke-miterlimit="10" font-family="'Helvetica'" font-size="8.7207"> </text>
<text transform="matrix(1.1776 0 0 1 23.999 -24.3188)" fill="#707070" font-family="'Helvetica'" font-size="8.7207">to</text>
<text transform="matrix(1.1776 0 0 1 23.999 -24.3188)" fill="none" stroke="#707070" stroke-width="0.25" stroke-miterlimit="10" font-family="'Helvetica'" font-size="8.7207">to</text>
<text transform="matrix(1.1776 0 0 1 32.5645 -24.3188)" fill="#333333" font-family="'Helvetica'" font-size="8.7207"> </text>
<text transform="matrix(1.1776 0 0 1 32.5645 -24.3188)" fill="none" stroke="#333333" stroke-width="0.25" stroke-miterlimit="10" font-family="'Helvetica'" font-size="8.7207"> </text>
<text transform="matrix(1.1776 0 0 1 35.418 -24.3188)" fill="#333333" font-family="'Helvetica-Bold'" font-size="8.7207">be </text>
<text transform="matrix(1.1776 0 0 1 35.418 -24.3188)" fill="none" stroke="#333333" stroke-width="0.25" stroke-miterlimit="10" font-family="'Helvetica-Bold'" font-size="8.7207">be </text>
<text transform="matrix(1.1776 0 0 1 50.2539 -24.3188)" fill="#707070" font-family="'Helvetica'" font-size="8.7207">or</text>
<text transform="matrix(1.1776 0 0 1 50.2539 -24.3188)" fill="none" stroke="#707070" stroke-width="0.25" stroke-miterlimit="10" font-family="'Helvetica'" font-size="8.7207">or</text>
<path fill="#333333" stroke="#333333" stroke-width="0.25" stroke-miterlimit="10" d="M-33.75-29.121c0-10.105,0-20.245,0-30.382
	c0.237-0.484,0.582-0.866,1.119-1.11c13.717,0,27.485,0,41.253,0c1.201-0.189,1.789,0.818,1.789,1.812
	c0.008,5.936,0.004,11.872,0.004,17.803c0,3.632,0.004,7.266-0.004,10.896c0,0.385-0.061,0.768-0.088,1.115
	c-0.393,0.438-0.729,0.844-1.307,0.905c-0.109,0.012-0.211,0.071-0.318,0.09c-0.117,0.017-0.238,0.004-0.354,0.004
	c-13.392,0-26.781,0-40.167,0.005c-0.672,0-1.262-0.174-1.701-0.709C-33.604-28.79-33.647-28.925-33.75-29.121z M-30.591-57.468
	c0,8.77,0,17.474,0,26.179c2.604,0.105,37.241,0.062,37.849-0.045c0-8.71,0-17.417,0-26.134
	C-5.368-57.468-17.966-57.468-30.591-57.468z"/>
<text transform="matrix(1.1776 0 0 1 -28.8799 -51.9878)" fill="#707070" font-family="'Helvetica'" font-size="4.8771">Lorem ipsum </text>
<text transform="matrix(1.1776 0 0 1 -28.8799 -51.9878)" fill="none" stroke="#707070" stroke-width="0.25" stroke-miterlimit="10" font-family="'Helvetica'" font-size="4.8771">Lorem ipsum </text>
<text transform="matrix(1.1776 0 0 1 -28.8799 -46.1343)" fill="#707070" font-family="'Helvetica'" font-size="4.8771">olor sit amet, </text>
<text transform="matrix(1.1776 0 0 1 -28.8799 -46.1343)" fill="none" stroke="#707070" stroke-width="0.25" stroke-miterlimit="10" font-family="'Helvetica'" font-size="4.8771">olor sit amet, </text>
<text transform="matrix(1.1776 0 0 1 -28.8799 -40.2817)" fill="#707070" font-family="'Helvetica'" font-size="4.8771">consectetur a</text>
<text transform="matrix(1.1776 0 0 1 -28.8799 -40.2817)" fill="none" stroke="#707070" stroke-width="0.25" stroke-miterlimit="10" font-family="'Helvetica'" font-size="4.8771">consectetur a</text>
<text transform="matrix(1.1776 0 0 1 -28.8799 -34.4312)" fill="#707070" font-family="'Helvetica'" font-size="4.8771">ipiscing elit.</text>
<text transform="matrix(1.1776 0 0 1 -28.8799 -34.4312)" fill="none" stroke="#707070" stroke-width="0.25" stroke-miterlimit="10" font-family="'Helvetica'" font-size="4.8771">ipiscing elit.</text>
<circle fill="#FFFFFF" stroke="#333333" stroke-width="2" stroke-miterlimit="10" cx="-5.04" cy="-31.227" r="9.542"/>
<text transform="matrix(1.1776 0 0 1 -8.583 -24.4565)" fill="#333333" font-family="'AdobeGurmukhi-Regular'" font-size="23.2779">i</text>
<path fill="none" d="M42.646,17.396c-0.141-0.089-0.312-0.133-0.5-0.154c0.313,0.839,0.579,1.701,0.774,2.59v-1.796
	C42.921,17.726,42.829,17.512,42.646,17.396z"/>
<path fill="none" d="M35.455,7.255c-0.24-0.514-0.68-0.771-1.317-0.771c-0.447,0-0.79,0.14-1.041,0.404
	c0.891,0.474,1.729,1.027,2.529,1.629c0.009-0.099,0.019-0.196,0.019-0.305C35.645,7.842,35.582,7.522,35.455,7.255z"/>
<path fill="none" d="M-1.034,20.766c0.605,0,1.02-0.196,1.244-0.589c0.225-0.393,0.337-0.831,0.337-1.311
	c0-0.435-0.081-0.789-0.243-1.062c-0.257-0.429-0.7-0.643-1.329-0.643c-0.558,0-0.963,0.183-1.217,0.548s-0.38,0.806-0.38,1.322
	c0,0.496,0.127,0.909,0.38,1.239C-1.988,20.601-1.586,20.766-1.034,20.766z"/>
<path fill="none" d="M3.01,28.41c-0.253,0.365-0.38,0.807-0.38,1.324c0,0.494,0.127,0.908,0.38,1.238
	c0.253,0.33,0.655,0.496,1.207,0.496c0.605,0,1.02-0.197,1.244-0.59c0.103-0.178,0.174-0.369,0.23-0.565
	c-0.256-0.743-0.48-1.499-0.646-2.279c-0.225-0.112-0.496-0.171-0.818-0.171C3.669,27.863,3.263,28.045,3.01,28.41z"/>
<path fill="none" d="M13.52,41.66c0.232,0.318,0.599,0.479,1.098,0.479c0.382,0,0.686-0.1,0.91-0.297
	c0.098-0.088,0.177-0.194,0.249-0.31c-0.892-0.42-1.757-0.888-2.568-1.433c-0.015,0.125-0.037,0.243-0.037,0.383
	C13.172,40.947,13.288,41.342,13.52,41.66z"/>
<path fill="none" d="M13.132,6.878c-0.285,0.26-0.436,0.59-0.453,0.991h0.582c0.608-0.405,1.245-0.768,1.898-1.104
	c-0.245-0.18-0.565-0.277-0.97-0.277C13.769,6.489,13.417,6.619,13.132,6.878z"/>
<path fill="none" d="M38.466,39.973c-0.037-0.34-0.124-0.611-0.26-0.812c-0.25-0.377-0.67-0.566-1.257-0.566
	c-0.099,0-0.181,0.031-0.271,0.046c-0.367,0.318-0.749,0.618-1.14,0.908c-0.047,0.134-0.091,0.27-0.098,0.425H38.466z"/>
<path fill="none" d="M26.994,43.74c0.206,0.174,0.533,0.262,0.979,0.262c0.704,0,1.165-0.213,1.383-0.635
	c0.088-0.172,0.142-0.441,0.164-0.794c-1.09,0.323-2.219,0.557-3.381,0.685h0.591C26.773,43.465,26.86,43.627,26.994,43.74z"/>
<path fill="none" d="M56.455,29.848l-0.559,0.061c-0.335,0.039-0.586,0.098-0.754,0.178c-0.285,0.137-0.428,0.355-0.428,0.654
	c0,0.225,0.097,0.402,0.292,0.533c0.194,0.129,0.426,0.195,0.691,0.195c0.325,0,0.639-0.064,0.943-0.193
	c0.515-0.211,0.77-0.557,0.77-1.037v-0.631c-0.113,0.062-0.258,0.113-0.435,0.152C56.8,29.803,56.625,29.83,56.455,29.848z"/>
<path fill="none" d="M48.702,17.758c-0.25-0.377-0.67-0.566-1.256-0.566c-0.421,0-0.772,0.13-1.058,0.39s-0.436,0.589-0.452,0.991
	h3.025C48.924,18.232,48.838,17.961,48.702,17.758z"/>
<path fill="none" d="M28.085,38.623c-0.646,0-1.089,0.258-1.327,0.775c-0.125,0.275-0.188,0.637-0.188,1.086
	c0,0.523,0.125,0.926,0.375,1.199s0.585,0.412,1.006,0.412c0.66,0,1.124-0.254,1.394-0.764c0.149-0.289,0.225-0.621,0.225-1.006
	c0-0.578-0.141-1.004-0.418-1.285C28.872,38.762,28.517,38.623,28.085,38.623z"/>
<path fill="none" d="M7.139,20.766c0.605,0,1.02-0.196,1.244-0.589c0.225-0.393,0.337-0.831,0.337-1.311
	c0-0.435-0.081-0.789-0.243-1.062c-0.257-0.429-0.7-0.643-1.328-0.643c-0.558,0-0.964,0.183-1.217,0.548
	c-0.253,0.365-0.38,0.806-0.38,1.322c0,0.496,0.127,0.909,0.38,1.239C6.186,20.601,6.588,20.766,7.139,20.766z"/>
<path fill="none" d="M15.705,7.869c-0.038-0.339-0.125-0.611-0.26-0.814c-0.077-0.116-0.176-0.208-0.286-0.289
	c-0.653,0.336-1.291,0.698-1.898,1.104H15.705z"/>
<path fill="none" d="M35.893,38.984c-0.175,0.158-0.281,0.352-0.354,0.563c0.391-0.29,0.772-0.59,1.14-0.908
	C36.381,38.686,36.111,38.784,35.893,38.984z"/>
<path fill="none" d="M32.82,7.299c-0.126,0.29-0.19,0.659-0.19,1.106c0,0.36,0.064,0.667,0.19,0.919
	c0.24,0.481,0.68,0.723,1.317,0.723c0.432,0,0.793-0.154,1.077-0.46c0.236-0.252,0.369-0.612,0.411-1.069
	c-0.801-0.602-1.639-1.155-2.529-1.629C32.988,7.004,32.893,7.135,32.82,7.299z"/>
<path fill="none" d="M22.449,28.461c-0.251-0.379-0.669-0.566-1.256-0.566c-0.421,0-0.773,0.129-1.058,0.389
	c-0.285,0.26-0.435,0.59-0.452,0.99h3.026C22.672,28.934,22.584,28.662,22.449,28.461z"/>
<path fill="none" d="M41.73,27.314h0.945v1.807c0.447-1.634,0.706-3.346,0.706-5.121c0-0.927-0.088-1.832-0.214-2.724h-0.247v-1.443
	c-0.195-0.89-0.461-1.751-0.774-2.59c-0.057-0.006-0.108-0.02-0.17-0.02c-0.36,0-0.673,0.103-0.935,0.309
	c-0.262,0.206-0.393,0.55-0.393,1.033v2.712h-0.938v-3.043c0-0.316-0.044-0.547-0.134-0.693c-0.14-0.217-0.401-0.326-0.784-0.326
	c-0.349,0-0.666,0.114-0.952,0.344c-0.285,0.229-0.429,0.644-0.429,1.246v2.473h-0.922v-4.663h0.914v0.662
	c0.218-0.229,0.415-0.396,0.595-0.501c0.304-0.177,0.647-0.265,1.034-0.265c0.438,0,0.79,0.091,1.057,0.274
	c0.15,0.104,0.287,0.258,0.411,0.462c0.204-0.25,0.446-0.435,0.722-0.556c0.201-0.087,0.427-0.131,0.663-0.155
	c-1.203-2.881-3.084-5.406-5.441-7.383c-0.147,0.497-0.402,0.895-0.794,1.166c-0.397,0.276-0.862,0.414-1.39,0.414
	c-0.415,0-0.763-0.077-1.045-0.231c-0.164-0.087-0.348-0.236-0.551-0.449v2.382h-0.923V6.237C29.37,5.201,26.754,4.618,24,4.618
	c-2.879,0-5.602,0.645-8.059,1.771c0.096,0.08,0.192,0.16,0.263,0.252c0.184,0.235,0.306,0.51,0.367,0.823
	c0.055,0.215,0.082,0.557,0.082,1.028h-3.994c0.017,0.475,0.147,0.855,0.392,1.141c0.244,0.288,0.622,0.431,1.135,0.431
	c0.478,0,0.859-0.136,1.144-0.407c0.16-0.157,0.272-0.339,0.339-0.546h0.907c-0.023,0.171-0.104,0.362-0.238,0.573
	c-0.135,0.21-0.286,0.382-0.452,0.515c-0.279,0.232-0.623,0.389-1.034,0.471c-0.221,0.047-0.47,0.07-0.748,0.07
	c-0.679,0-1.255-0.211-1.727-0.634c-0.325-0.29-0.53-0.667-0.631-1.117c-2.488,2.033-4.455,4.673-5.688,7.693
	c0.328-0.132,0.697-0.204,1.116-0.204c0.703,0,1.296,0.2,1.782,0.601c0.485,0.4,0.728,0.989,0.728,1.766
	c0,0.751-0.214,1.372-0.642,1.862c-0.428,0.49-1.091,0.735-1.991,0.735c-0.75,0-1.346-0.217-1.787-0.65
	c-0.117-0.115-0.216-0.242-0.302-0.378C4.745,21.577,4.618,22.773,4.618,24c0,1.111,0.115,2.194,0.294,3.254
	c0.421,0.089,0.797,0.259,1.121,0.527c0.486,0.398,0.729,0.986,0.729,1.764c0,0.752-0.214,1.373-0.642,1.861
	c-0.007,0.008-0.016,0.013-0.022,0.02c1.333,3.209,3.511,5.968,6.245,8.032c0.116-0.35,0.295-0.65,0.547-0.896
	c0.468-0.455,1.064-0.684,1.789-0.684c0.619,0,1.122,0.129,1.51,0.383c0.388,0.256,0.622,0.697,0.7,1.32h-0.897
	c-0.055-0.289-0.179-0.527-0.375-0.715c-0.195-0.191-0.507-0.287-0.938-0.287c-0.588,0-1.008,0.244-1.261,0.73
	c-0.115,0.222-0.175,0.493-0.209,0.789c0.812,0.545,1.676,1.013,2.568,1.433c0.091-0.147,0.167-0.312,0.215-0.505h0.897
	c-0.057,0.345-0.167,0.632-0.32,0.873c0.406,0.169,0.823,0.313,1.242,0.455v-4.318h0.938v4.605c1.672,0.47,3.428,0.739,5.25,0.739
	c0.607,0,1.205-0.036,1.797-0.091c-0.001-0.012-0.006-0.021-0.007-0.033h0.349c1.162-0.128,2.291-0.361,3.381-0.685
	c0.012-0.164,0.018-0.341,0.014-0.544c-0.185,0.236-0.405,0.414-0.665,0.529c-0.257,0.117-0.6,0.176-1.025,0.176
	c-0.592,0-1.111-0.18-1.555-0.539c-0.445-0.357-0.666-0.951-0.666-1.777c0-0.779,0.223-1.391,0.671-1.83
	c0.448-0.438,0.987-0.654,1.622-0.654c0.429,0,0.804,0.088,1.124,0.268c0.172,0.102,0.35,0.25,0.53,0.445v-0.588h0.852v4.211
	c1.424-0.5,2.771-1.156,4.021-1.957c0.025-0.69,0.254-1.262,0.703-1.703c0.475-0.465,1.096-0.701,1.865-0.701
	c0.144,0,0.284,0.021,0.425,0.044c1.921-1.851,3.462-4.087,4.492-6.593c-0.125-0.229-0.196-0.516-0.196-0.875V27.314z
	 M26.811,16.613v0.64h-0.877v3.043c0,0.163,0.064,0.271,0.194,0.326c0.072,0.033,0.192,0.048,0.358,0.048
	c0.045,0,0.094-0.001,0.145-0.003c0.05-0.001,0.111-0.006,0.18-0.015v0.623c-0.105,0.026-0.217,0.045-0.331,0.057
	c-0.116,0.012-0.238,0.018-0.371,0.018c-0.432,0-0.724-0.094-0.877-0.281C25.077,20.882,25,20.639,25,20.339v-3.086h-0.743v-0.64H25
	v-1.302h0.934v1.302H26.811z M17.822,5.91h0.913v0.662c0.218-0.229,0.417-0.396,0.595-0.5c0.304-0.178,0.649-0.266,1.036-0.266
	c0.437,0,0.789,0.091,1.056,0.274c0.15,0.104,0.287,0.259,0.41,0.461c0.205-0.25,0.445-0.435,0.723-0.555
	c0.277-0.12,0.588-0.18,0.933-0.18c0.738,0,1.242,0.226,1.508,0.679c0.145,0.244,0.216,0.572,0.216,0.984v3.105h-0.959v-3.24
	c0-0.311-0.092-0.524-0.275-0.64c-0.183-0.116-0.404-0.174-0.669-0.174c-0.361,0-0.673,0.103-0.935,0.309
	c-0.262,0.206-0.392,0.55-0.392,1.032v2.713h-0.938V7.53c0-0.317-0.044-0.548-0.133-0.693c-0.14-0.218-0.401-0.327-0.785-0.327
	c-0.349,0-0.666,0.114-0.951,0.344c-0.285,0.229-0.428,0.644-0.428,1.245v2.474h-0.923V5.91z M22.483,15.768V14.88h0.938v0.888
	H22.483z M23.421,16.635v4.641h-0.938v-4.641H23.421z M20.252,19.56c-0.136-0.063-0.403-0.138-0.802-0.222l-0.746-0.157
	c-0.476-0.099-0.827-0.209-1.053-0.331c-0.403-0.212-0.604-0.505-0.604-0.879c0-0.441,0.189-0.798,0.568-1.071
	c0.38-0.273,0.89-0.41,1.531-0.41c0.838,0,1.442,0.207,1.814,0.619c0.231,0.261,0.344,0.543,0.337,0.845h-0.872
	c-0.018-0.176-0.093-0.336-0.226-0.48c-0.216-0.206-0.593-0.309-1.128-0.309c-0.357,0-0.627,0.057-0.811,0.17
	c-0.184,0.112-0.275,0.262-0.275,0.447c0,0.202,0.12,0.364,0.362,0.486c0.139,0.072,0.345,0.136,0.617,0.191l0.621,0.125
	c0.676,0.137,1.129,0.27,1.359,0.396c0.359,0.201,0.538,0.516,0.538,0.945c0,0.416-0.188,0.774-0.563,1.076
	c-0.375,0.302-0.948,0.453-1.716,0.453c-0.827,0-1.413-0.157-1.757-0.473c-0.345-0.315-0.529-0.705-0.553-1.169h0.887
	c0.028,0.262,0.106,0.462,0.235,0.601c0.237,0.253,0.649,0.379,1.235,0.379c0.349,0,0.656-0.063,0.921-0.189
	c0.265-0.127,0.397-0.322,0.397-0.586C20.57,19.817,20.464,19.665,20.252,19.56z M12.372,31.977h-0.938v-2.938
	c0-0.287-0.049-0.516-0.148-0.688c-0.165-0.291-0.462-0.436-0.893-0.436c-0.219,0-0.398,0.018-0.539,0.055
	c-0.253,0.064-0.475,0.191-0.667,0.385c-0.154,0.154-0.254,0.312-0.3,0.477c-0.047,0.164-0.07,0.398-0.07,0.703v2.441H7.895v-4.662
	h0.877v0.66c0.26-0.271,0.535-0.467,0.826-0.586c0.291-0.119,0.613-0.18,0.969-0.18c0.78,0,1.306,0.232,1.579,0.693
	c0.151,0.252,0.226,0.613,0.226,1.084V31.977z M13.212,17.335c-0.465,0-0.822,0.127-1.072,0.381
	c-0.249,0.254-0.374,0.547-0.374,0.878v2.682h-0.923v-4.663h0.876v0.805c0.072-0.157,0.248-0.347,0.529-0.573
	c0.28-0.225,0.603-0.337,0.969-0.337c0.017,0,0.046,0.001,0.087,0.004c0.042,0.003,0.111,0.009,0.211,0.018v0.827
	c-0.055-0.008-0.105-0.014-0.152-0.017C13.318,17.337,13.267,17.335,13.212,17.335z M17.423,31.703
	c-0.375,0.303-0.948,0.453-1.716,0.453c-0.827,0-1.413-0.158-1.757-0.475c-0.345-0.312-0.529-0.703-0.553-1.166h0.887
	c0.028,0.26,0.106,0.461,0.235,0.6c0.238,0.254,0.65,0.379,1.235,0.379c0.349,0,0.656-0.062,0.921-0.188
	c0.265-0.129,0.397-0.322,0.397-0.588c0-0.199-0.106-0.354-0.318-0.457c-0.135-0.064-0.403-0.137-0.802-0.221l-0.745-0.158
	c-0.477-0.098-0.828-0.209-1.053-0.33c-0.403-0.213-0.604-0.506-0.604-0.879c0-0.443,0.189-0.799,0.568-1.072
	c0.38-0.271,0.89-0.408,1.531-0.408c0.838,0,1.442,0.205,1.813,0.617c0.232,0.262,0.345,0.543,0.338,0.844H16.93
	c-0.017-0.176-0.093-0.336-0.226-0.479c-0.217-0.205-0.593-0.311-1.128-0.311c-0.357,0-0.627,0.059-0.811,0.172
	c-0.184,0.113-0.276,0.262-0.276,0.447c0,0.201,0.12,0.365,0.362,0.486c0.139,0.07,0.344,0.135,0.616,0.189l0.622,0.127
	c0.676,0.137,1.128,0.27,1.358,0.395c0.359,0.201,0.539,0.516,0.539,0.945C17.986,31.043,17.798,31.402,17.423,31.703z M18.75,37.17
	h-0.938v-0.889h0.938V37.17z M18.673,29.736c0-0.75,0.238-1.357,0.713-1.826c0.476-0.465,1.098-0.701,1.866-0.701
	c0.387,0,0.762,0.078,1.125,0.234c0.364,0.156,0.64,0.355,0.832,0.602c0.184,0.236,0.306,0.51,0.366,0.822
	c0.055,0.217,0.081,0.559,0.081,1.029h-3.994c0.017,0.475,0.147,0.854,0.392,1.141c0.244,0.289,0.622,0.432,1.135,0.432
	c0.478,0,0.859-0.137,1.144-0.406c0.16-0.158,0.272-0.342,0.339-0.547h0.907c-0.023,0.172-0.103,0.361-0.238,0.57
	c-0.134,0.211-0.285,0.383-0.451,0.518c-0.278,0.23-0.622,0.389-1.033,0.471c-0.221,0.047-0.47,0.07-0.748,0.07
	c-0.68,0-1.255-0.213-1.727-0.635C18.909,31.086,18.673,30.496,18.673,29.736z M24.621,42.678h-0.938v-2.939
	c0-0.285-0.05-0.516-0.148-0.688c-0.164-0.291-0.462-0.434-0.892-0.434c-0.22,0-0.398,0.016-0.539,0.055
	c-0.253,0.064-0.475,0.193-0.666,0.383c-0.154,0.154-0.254,0.314-0.3,0.477c-0.047,0.164-0.07,0.398-0.07,0.705v2.441h-0.923v-4.664
	h0.877v0.662c0.26-0.273,0.535-0.467,0.826-0.588c0.291-0.119,0.613-0.18,0.969-0.18c0.779,0,1.306,0.234,1.579,0.693
	c0.15,0.252,0.226,0.615,0.226,1.086V42.678z M25.785,30.961c0.232,0.318,0.598,0.477,1.097,0.477c0.383,0,0.687-0.1,0.91-0.295
	c0.225-0.199,0.379-0.471,0.464-0.814h0.897c-0.103,0.617-0.357,1.07-0.77,1.354c-0.409,0.287-0.936,0.432-1.573,0.432
	c-0.717,0-1.291-0.225-1.718-0.668c-0.428-0.447-0.641-1.002-0.641-1.672c0-0.818,0.233-1.455,0.702-1.91
	c0.468-0.457,1.065-0.684,1.788-0.684c0.62,0,1.123,0.129,1.511,0.383c0.389,0.256,0.622,0.695,0.7,1.32h-0.897
	c-0.054-0.289-0.179-0.527-0.374-0.717c-0.194-0.191-0.506-0.285-0.939-0.285c-0.587,0-1.008,0.244-1.261,0.73
	c-0.163,0.316-0.246,0.705-0.246,1.17S25.553,30.639,25.785,30.961z M29.486,5.932h0.938v4.642h-0.938V5.932z M32.071,27.953h-0.877
	v3.043c0,0.164,0.065,0.273,0.195,0.33c0.07,0.031,0.191,0.047,0.358,0.047c0.046,0,0.093,0,0.145-0.002
	c0.051-0.002,0.11-0.01,0.179-0.016v0.621c-0.105,0.025-0.216,0.045-0.33,0.059c-0.115,0.01-0.239,0.018-0.373,0.018
	c-0.43,0-0.722-0.094-0.876-0.283c-0.152-0.186-0.23-0.43-0.23-0.729v-3.088h-0.744v-0.639h0.744v-1.301h0.933v1.301h0.877V27.953z
	 M30.879,21.039c-0.322-0.262-0.485-0.591-0.485-0.985c0-0.432,0.16-0.767,0.479-1.005c0.316-0.238,0.735-0.384,1.251-0.439
	l1.472-0.157c0.212-0.023,0.354-0.099,0.426-0.226c0.041-0.07,0.062-0.17,0.062-0.302c0-0.268-0.112-0.462-0.336-0.583
	c-0.224-0.122-0.543-0.182-0.96-0.182c-0.479,0-0.821,0.11-1.022,0.332c-0.112,0.123-0.186,0.305-0.22,0.547h-0.862
	c0.018-0.576,0.236-0.978,0.658-1.203c0.422-0.226,0.911-0.338,1.467-0.338c0.646,0,1.17,0.105,1.573,0.313
	c0.398,0.209,0.599,0.534,0.599,0.976v2.687c0,0.081,0.021,0.146,0.06,0.196c0.039,0.048,0.122,0.073,0.248,0.073
	c0.042,0,0.088-0.002,0.139-0.006c0.052-0.004,0.106-0.011,0.165-0.02v0.579c-0.146,0.035-0.254,0.056-0.329,0.065
	c-0.076,0.009-0.177,0.013-0.308,0.013c-0.317,0-0.55-0.095-0.691-0.287c-0.076-0.102-0.13-0.246-0.159-0.431
	c-0.188,0.209-0.46,0.39-0.812,0.544c-0.352,0.154-0.739,0.231-1.163,0.231C31.619,21.433,31.203,21.301,30.879,21.039z
	 M34.063,31.037c0.244,0.289,0.622,0.432,1.134,0.432c0.478,0,0.859-0.137,1.145-0.406c0.16-0.158,0.272-0.342,0.339-0.547h0.908
	c-0.023,0.172-0.104,0.361-0.239,0.57c-0.135,0.211-0.285,0.383-0.45,0.518c-0.28,0.23-0.623,0.389-1.034,0.471
	c-0.221,0.047-0.47,0.07-0.748,0.07c-0.68,0-1.255-0.213-1.727-0.635c-0.473-0.424-0.709-1.014-0.709-1.773
	c0-0.75,0.238-1.357,0.714-1.826c0.475-0.465,1.097-0.701,1.865-0.701c0.387,0,0.762,0.078,1.126,0.234
	c0.363,0.156,0.64,0.355,0.829,0.602c0.184,0.236,0.307,0.51,0.367,0.822c0.056,0.217,0.083,0.559,0.083,1.029h-3.995
	C33.688,30.371,33.818,30.75,34.063,31.037z M40.829,27.953h-0.876v3.043c0,0.164,0.064,0.273,0.193,0.33
	c0.072,0.031,0.192,0.047,0.36,0.047c0.044,0,0.092,0,0.142-0.002c0.053-0.002,0.113-0.01,0.181-0.016v0.621
	c-0.106,0.025-0.217,0.045-0.331,0.059c-0.114,0.01-0.237,0.018-0.371,0.018c-0.432,0-0.723-0.094-0.877-0.283
	c-0.154-0.186-0.229-0.43-0.229-0.729v-3.088h-0.745v-0.639h0.745v-1.301h0.933v1.301h0.876V27.953z"/>
<path fill="none" d="M5.798,29.568c0-0.436-0.082-0.789-0.243-1.061c-0.125-0.21-0.296-0.366-0.51-0.474
	c0.165,0.78,0.39,1.536,0.646,2.279C5.758,30.076,5.798,29.83,5.798,29.568z"/>
<path fill="none" d="M35.201,27.895c-0.42,0-0.771,0.129-1.057,0.389c-0.286,0.26-0.436,0.59-0.453,0.99h3.026
	c-0.038-0.34-0.124-0.611-0.26-0.812C36.207,28.082,35.788,27.895,35.201,27.895z"/>
<path fill="none" d="M34.056,19.536v-0.63c-0.112,0.062-0.258,0.112-0.436,0.153c-0.177,0.041-0.352,0.07-0.521,0.087l-0.56,0.061
	c-0.333,0.038-0.584,0.097-0.753,0.178c-0.285,0.136-0.428,0.354-0.428,0.652c0,0.226,0.097,0.404,0.292,0.534
	s0.425,0.195,0.691,0.195c0.325,0,0.64-0.063,0.944-0.191C33.799,20.363,34.056,20.018,34.056,19.536z"/>
<path fill="#FFFFFF" stroke="#FFFFFF" stroke-width="0.25" stroke-miterlimit="10" d="M14.104,10.739
	c0.278,0,0.527-0.023,0.748-0.07c0.411-0.082,0.755-0.238,1.034-0.471c0.166-0.133,0.316-0.305,0.452-0.515
	c0.134-0.21,0.214-0.402,0.238-0.573h-0.907c-0.066,0.207-0.179,0.39-0.339,0.546c-0.285,0.271-0.667,0.407-1.144,0.407
	c-0.513,0-0.891-0.143-1.135-0.431c-0.245-0.286-0.375-0.667-0.392-1.141h3.994c0-0.471-0.027-0.813-0.082-1.028
	c-0.061-0.313-0.184-0.588-0.367-0.823c-0.071-0.092-0.167-0.172-0.263-0.252c-0.263,0.121-0.525,0.245-0.782,0.376
	c0.109,0.081,0.208,0.173,0.286,0.289c0.135,0.204,0.222,0.476,0.26,0.814h-2.444c-0.523,0.349-1.029,0.722-1.514,1.119
	c0.101,0.451,0.306,0.827,0.631,1.117C12.85,10.527,13.425,10.739,14.104,10.739z"/>
<path fill="#FFFFFF" stroke="#FFFFFF" stroke-width="0.25" stroke-miterlimit="10" d="M18.745,8.1c0-0.601,0.143-1.016,0.428-1.245
	c0.286-0.23,0.603-0.344,0.951-0.344c0.383,0,0.645,0.108,0.785,0.327c0.089,0.145,0.133,0.376,0.133,0.693v3.043h0.938V7.861
	c0-0.482,0.13-0.826,0.392-1.032c0.262-0.206,0.574-0.309,0.935-0.309c0.265,0,0.486,0.058,0.669,0.174
	c0.184,0.116,0.275,0.33,0.275,0.64v3.24h0.959V7.469c0-0.412-0.071-0.74-0.216-0.984c-0.266-0.453-0.77-0.679-1.508-0.679
	c-0.345,0-0.655,0.061-0.933,0.18c-0.277,0.121-0.518,0.305-0.723,0.555c-0.124-0.203-0.26-0.357-0.41-0.461
	c-0.267-0.183-0.619-0.274-1.056-0.274c-0.387,0-0.732,0.088-1.036,0.266c-0.178,0.104-0.376,0.271-0.595,0.5V5.91h-0.913v4.664
	h0.923V8.1z"/>
<rect x="29.486" y="5.932" fill="#FFFFFF" stroke="#FFFFFF" stroke-width="0.25" stroke-miterlimit="10" width="0.938" height="4.642"/>
<path fill="#FFFFFF" stroke="#FFFFFF" stroke-width="0.25" stroke-miterlimit="10" d="M32.666,12.433V10.05
	c0.203,0.212,0.387,0.362,0.551,0.449c0.282,0.154,0.63,0.231,1.045,0.231c0.527,0,0.992-0.138,1.39-0.414
	c0.392-0.271,0.646-0.669,0.794-1.166c-0.264-0.222-0.544-0.425-0.819-0.632c-0.042,0.457-0.175,0.817-0.411,1.069
	c-0.284,0.306-0.646,0.46-1.077,0.46c-0.638,0-1.077-0.242-1.317-0.723c-0.126-0.253-0.19-0.559-0.19-0.919
	c0-0.447,0.064-0.816,0.19-1.106c0.072-0.164,0.168-0.295,0.276-0.41c-0.44-0.235-0.893-0.451-1.354-0.652v6.196H32.666z"/>
<path fill="#FFFFFF" stroke="#FFFFFF" stroke-width="0.25" stroke-miterlimit="10" d="M7.053,21.441
	c0.899,0,1.563-0.245,1.991-0.735c0.427-0.49,0.642-1.111,0.642-1.862c0-0.777-0.243-1.366-0.728-1.766
	c-0.486-0.401-1.08-0.601-1.782-0.601c-0.418,0-0.788,0.071-1.116,0.204c-0.486,1.189-0.854,2.438-1.096,3.732
	c0.086,0.136,0.185,0.263,0.302,0.378C5.707,21.225,6.302,21.441,7.053,21.441z M5.932,17.709c0.253-0.365,0.659-0.548,1.217-0.548
	c0.628,0,1.071,0.214,1.328,0.643c0.162,0.273,0.243,0.626,0.243,1.062c0,0.48-0.112,0.918-0.337,1.311
	c-0.225,0.393-0.639,0.589-1.244,0.589c-0.551,0-0.954-0.165-1.207-0.496c-0.253-0.33-0.38-0.743-0.38-1.239
	C5.552,18.515,5.679,18.075,5.932,17.709z"/>
<path fill="#FFFFFF" stroke="#FFFFFF" stroke-width="0.25" stroke-miterlimit="10" d="M13.516,16.53
	c-0.1-0.008-0.169-0.015-0.211-0.018c-0.041-0.003-0.07-0.004-0.087-0.004c-0.366,0-0.688,0.112-0.969,0.337
	c-0.281,0.226-0.457,0.416-0.529,0.573v-0.805h-0.876v4.663h0.923v-2.682c0-0.331,0.125-0.624,0.374-0.878
	c0.25-0.254,0.607-0.381,1.072-0.381c0.055,0,0.105,0.002,0.151,0.004c0.046,0.003,0.097,0.009,0.152,0.017V16.53z"/>
<path fill="#FFFFFF" stroke="#FFFFFF" stroke-width="0.25" stroke-miterlimit="10" d="M20.172,20.604
	c-0.265,0.126-0.572,0.189-0.921,0.189c-0.586,0-0.998-0.126-1.235-0.379c-0.129-0.139-0.207-0.339-0.235-0.601h-0.887
	c0.024,0.465,0.208,0.854,0.553,1.169c0.344,0.315,0.93,0.473,1.757,0.473c0.768,0,1.34-0.151,1.716-0.453
	c0.375-0.301,0.563-0.66,0.563-1.076c0-0.429-0.179-0.744-0.538-0.945c-0.23-0.127-0.683-0.26-1.359-0.396l-0.621-0.125
	c-0.272-0.055-0.478-0.119-0.617-0.191c-0.242-0.122-0.362-0.284-0.362-0.486c0-0.185,0.092-0.334,0.275-0.447
	c0.184-0.113,0.454-0.17,0.811-0.17c0.535,0,0.912,0.103,1.128,0.309c0.133,0.144,0.208,0.304,0.226,0.48h0.872
	c0.007-0.302-0.106-0.583-0.337-0.845c-0.372-0.412-0.976-0.619-1.814-0.619c-0.641,0-1.151,0.137-1.531,0.41
	c-0.379,0.272-0.568,0.63-0.568,1.071c0,0.375,0.201,0.667,0.604,0.879c0.226,0.122,0.577,0.232,1.053,0.331l0.746,0.157
	c0.399,0.084,0.667,0.158,0.802,0.222c0.211,0.104,0.317,0.257,0.317,0.458C20.57,20.282,20.437,20.477,20.172,20.604z"/>
<rect x="22.483" y="16.635" fill="#FFFFFF" stroke="#FFFFFF" stroke-width="0.25" stroke-miterlimit="10" width="0.938" height="4.641"/>
<rect x="22.483" y="14.88" fill="#FFFFFF" stroke="#FFFFFF" stroke-width="0.25" stroke-miterlimit="10" width="0.938" height="0.888"/>
<path fill="#FFFFFF" stroke="#FFFFFF" stroke-width="0.25" stroke-miterlimit="10" d="M25,15.311v1.302h-0.743v0.64H25v3.086
	c0,0.3,0.077,0.542,0.231,0.73c0.153,0.187,0.445,0.281,0.877,0.281c0.133,0,0.255-0.006,0.371-0.018
	c0.114-0.012,0.226-0.031,0.331-0.057v-0.623c-0.068,0.009-0.13,0.013-0.18,0.015c-0.051,0.002-0.1,0.003-0.145,0.003
	c-0.166,0-0.286-0.016-0.358-0.048c-0.13-0.055-0.194-0.164-0.194-0.326v-3.043h0.877v-0.64h-0.877v-1.302H25z"/>
<path fill="#FFFFFF" stroke="#FFFFFF" stroke-width="0.25" stroke-miterlimit="10" d="M34.103,20.658
	c0.029,0.186,0.083,0.329,0.159,0.431c0.142,0.192,0.374,0.287,0.691,0.287c0.131,0,0.231-0.004,0.308-0.013
	c0.075-0.009,0.184-0.03,0.329-0.065v-0.579c-0.059,0.009-0.113,0.015-0.165,0.02c-0.051,0.004-0.097,0.006-0.139,0.006
	c-0.126,0-0.209-0.025-0.248-0.073c-0.039-0.05-0.06-0.115-0.06-0.196v-2.687c0-0.441-0.2-0.766-0.599-0.976
	c-0.403-0.208-0.927-0.313-1.573-0.313c-0.556,0-1.045,0.113-1.467,0.338c-0.422,0.225-0.641,0.627-0.658,1.203h0.862
	c0.034-0.242,0.107-0.424,0.22-0.547c0.201-0.222,0.543-0.332,1.022-0.332c0.417,0,0.736,0.06,0.96,0.182
	c0.224,0.12,0.336,0.315,0.336,0.583c0,0.131-0.021,0.232-0.062,0.302c-0.072,0.127-0.214,0.203-0.426,0.226l-1.472,0.157
	c-0.516,0.055-0.935,0.201-1.251,0.439c-0.318,0.238-0.479,0.573-0.479,1.005c0,0.394,0.163,0.723,0.485,0.985
	c0.324,0.262,0.74,0.394,1.249,0.394c0.424,0,0.812-0.077,1.163-0.231C33.643,21.048,33.914,20.867,34.103,20.658z M32.343,20.766
	c-0.267,0-0.496-0.064-0.691-0.195s-0.292-0.309-0.292-0.534c0-0.299,0.143-0.516,0.428-0.652c0.169-0.081,0.42-0.14,0.753-0.178
	l0.56-0.061c0.169-0.017,0.344-0.046,0.521-0.087c0.178-0.041,0.323-0.091,0.436-0.153v0.63c0,0.481-0.257,0.827-0.769,1.039
	C32.982,20.703,32.668,20.766,32.343,20.766z"/>
<path fill="#FFFFFF" stroke="#FFFFFF" stroke-width="0.25" stroke-miterlimit="10" d="M40.502,17.244
	c-0.124-0.204-0.261-0.357-0.411-0.462c-0.267-0.183-0.618-0.274-1.057-0.274c-0.387,0-0.73,0.088-1.034,0.265
	c-0.18,0.105-0.377,0.272-0.595,0.501v-0.662h-0.914v4.663h0.922v-2.473c0-0.602,0.144-1.016,0.429-1.246
	c0.286-0.229,0.604-0.344,0.952-0.344c0.383,0,0.645,0.108,0.784,0.326c0.09,0.146,0.134,0.377,0.134,0.693v3.043h0.938v-2.712
	c0-0.482,0.131-0.827,0.393-1.033c0.262-0.207,0.574-0.309,0.935-0.309c0.062,0,0.113,0.014,0.17,0.02
	c-0.088-0.236-0.163-0.478-0.26-0.709c-0.236,0.024-0.462,0.068-0.663,0.155C40.948,16.81,40.706,16.994,40.502,17.244z"/>
<path fill="none" stroke="#FFFFFF" stroke-miterlimit="10" d="M42.921,21.276h0.247c-0.068-0.486-0.144-0.969-0.247-1.443V21.276z"
	/>
<path fill="#FFFFFF" stroke="#FFFFFF" stroke-width="0.25" stroke-miterlimit="10" d="M6.762,29.545
	c0-0.777-0.243-1.365-0.729-1.764c-0.324-0.269-0.7-0.438-1.121-0.527c0.044,0.261,0.078,0.523,0.132,0.78
	c0.214,0.107,0.385,0.264,0.51,0.474c0.162,0.271,0.243,0.625,0.243,1.061c0,0.262-0.041,0.508-0.108,0.745
	c0.129,0.374,0.256,0.749,0.408,1.112c0.006-0.007,0.016-0.012,0.022-0.02C6.548,30.918,6.762,30.297,6.762,29.545z"/>
<path fill="#FFFFFF" stroke="#FFFFFF" stroke-width="0.25" stroke-miterlimit="10" d="M10.567,27.209
	c-0.355,0-0.678,0.061-0.969,0.18c-0.292,0.119-0.566,0.314-0.826,0.586v-0.66H7.895v4.662h0.923v-2.441
	c0-0.305,0.023-0.539,0.07-0.703c0.046-0.164,0.146-0.322,0.3-0.477c0.191-0.193,0.414-0.32,0.667-0.385
	c0.14-0.037,0.319-0.055,0.539-0.055c0.43,0,0.728,0.145,0.893,0.436c0.099,0.172,0.148,0.4,0.148,0.688v2.938h0.938v-2.99
	c0-0.471-0.075-0.832-0.226-1.084C11.873,27.441,11.347,27.209,10.567,27.209z"/>
<path fill="#FFFFFF" stroke="#FFFFFF" stroke-width="0.25" stroke-miterlimit="10" d="M17.448,29.682
	c-0.23-0.125-0.683-0.258-1.358-0.395l-0.622-0.127c-0.272-0.055-0.478-0.119-0.616-0.189c-0.242-0.121-0.362-0.285-0.362-0.486
	c0-0.186,0.092-0.334,0.276-0.447c0.184-0.113,0.453-0.172,0.811-0.172c0.536,0,0.912,0.105,1.128,0.311
	c0.133,0.143,0.208,0.303,0.226,0.479h0.872c0.007-0.301-0.105-0.582-0.338-0.844c-0.371-0.412-0.976-0.617-1.813-0.617
	c-0.641,0-1.151,0.137-1.531,0.408c-0.379,0.273-0.568,0.629-0.568,1.072c0,0.373,0.201,0.666,0.604,0.879
	c0.226,0.121,0.577,0.232,1.053,0.33l0.745,0.158c0.399,0.084,0.667,0.156,0.802,0.221c0.212,0.104,0.318,0.258,0.318,0.457
	c0,0.266-0.132,0.459-0.397,0.588c-0.266,0.125-0.572,0.188-0.921,0.188c-0.585,0-0.998-0.125-1.235-0.379
	c-0.128-0.139-0.207-0.34-0.235-0.6h-0.887c0.024,0.463,0.208,0.854,0.553,1.166c0.344,0.316,0.93,0.475,1.757,0.475
	c0.769,0,1.341-0.15,1.716-0.453c0.375-0.301,0.563-0.66,0.563-1.076C17.986,30.197,17.807,29.883,17.448,29.682z"/>
<path fill="#FFFFFF" stroke="#FFFFFF" stroke-width="0.25" stroke-miterlimit="10" d="M21.856,32.074
	c0.411-0.082,0.755-0.24,1.033-0.471c0.166-0.135,0.317-0.307,0.451-0.518c0.136-0.209,0.215-0.398,0.238-0.57h-0.907
	c-0.066,0.205-0.179,0.389-0.339,0.547c-0.285,0.27-0.666,0.406-1.144,0.406c-0.513,0-0.891-0.143-1.135-0.432
	c-0.245-0.287-0.375-0.666-0.392-1.141h3.994c0-0.471-0.026-0.812-0.081-1.029c-0.061-0.312-0.183-0.586-0.366-0.822
	c-0.191-0.246-0.468-0.445-0.832-0.602c-0.363-0.156-0.739-0.234-1.125-0.234c-0.768,0-1.39,0.236-1.866,0.701
	c-0.475,0.469-0.713,1.076-0.713,1.826c0,0.76,0.236,1.35,0.708,1.773c0.472,0.422,1.047,0.635,1.727,0.635
	C21.387,32.145,21.636,32.121,21.856,32.074z M20.135,28.283c0.285-0.26,0.637-0.389,1.058-0.389c0.586,0,1.005,0.188,1.256,0.566
	c0.135,0.201,0.223,0.473,0.26,0.812h-3.026C19.7,28.873,19.851,28.543,20.135,28.283z"/>
<path fill="#FFFFFF" stroke="#FFFFFF" stroke-width="0.25" stroke-miterlimit="10" d="M26.942,27.881
	c0.434,0,0.745,0.094,0.939,0.285c0.195,0.189,0.32,0.428,0.374,0.717h0.897c-0.078-0.625-0.312-1.064-0.7-1.32
	c-0.388-0.254-0.891-0.383-1.511-0.383c-0.723,0-1.32,0.227-1.788,0.684c-0.469,0.455-0.702,1.092-0.702,1.91
	c0,0.67,0.213,1.225,0.641,1.672c0.427,0.443,1.001,0.668,1.718,0.668c0.638,0,1.164-0.145,1.573-0.432
	c0.412-0.283,0.667-0.736,0.77-1.354h-0.897c-0.085,0.344-0.239,0.615-0.464,0.814c-0.224,0.195-0.527,0.295-0.91,0.295
	c-0.499,0-0.864-0.158-1.097-0.477c-0.232-0.322-0.35-0.715-0.35-1.18s0.083-0.854,0.246-1.17
	C25.935,28.125,26.355,27.881,26.942,27.881z"/>
<path fill="#FFFFFF" stroke="#FFFFFF" stroke-width="0.25" stroke-miterlimit="10" d="M31.194,26.014h-0.933v1.301h-0.744v0.639
	h0.744v3.088c0,0.299,0.078,0.543,0.23,0.729c0.154,0.189,0.446,0.283,0.876,0.283c0.134,0,0.258-0.008,0.373-0.018
	c0.114-0.014,0.225-0.033,0.33-0.059v-0.621c-0.068,0.006-0.128,0.014-0.179,0.016c-0.052,0.002-0.099,0.002-0.145,0.002
	c-0.167,0-0.288-0.016-0.358-0.047c-0.13-0.057-0.195-0.166-0.195-0.33v-3.043h0.877v-0.639h-0.877V26.014z"/>
<path fill="#FFFFFF" stroke="#FFFFFF" stroke-width="0.25" stroke-miterlimit="10" d="M37.583,28.867
	c-0.061-0.312-0.184-0.586-0.367-0.822c-0.189-0.246-0.466-0.445-0.829-0.602c-0.364-0.156-0.739-0.234-1.126-0.234
	c-0.769,0-1.391,0.236-1.865,0.701c-0.476,0.469-0.714,1.076-0.714,1.826c0,0.76,0.236,1.35,0.709,1.773
	c0.472,0.422,1.047,0.635,1.727,0.635c0.278,0,0.527-0.023,0.748-0.07c0.411-0.082,0.754-0.24,1.034-0.471
	c0.165-0.135,0.315-0.307,0.45-0.518c0.136-0.209,0.216-0.398,0.239-0.57h-0.908c-0.066,0.205-0.179,0.389-0.339,0.547
	c-0.285,0.27-0.667,0.406-1.145,0.406c-0.512,0-0.89-0.143-1.134-0.432c-0.245-0.287-0.376-0.666-0.393-1.141h3.995
	C37.666,29.426,37.639,29.084,37.583,28.867z M33.691,29.273c0.018-0.4,0.167-0.73,0.453-0.99c0.285-0.26,0.637-0.389,1.057-0.389
	c0.587,0,1.006,0.188,1.257,0.566c0.136,0.201,0.222,0.473,0.26,0.812H33.691z"/>
<path fill="#FFFFFF" stroke="#FFFFFF" stroke-width="0.25" stroke-miterlimit="10" d="M39.953,26.014h-0.933v1.301h-0.745v0.639
	h0.745v3.088c0,0.299,0.075,0.543,0.229,0.729c0.154,0.189,0.445,0.283,0.877,0.283c0.134,0,0.257-0.008,0.371-0.018
	c0.114-0.014,0.225-0.033,0.331-0.059v-0.621c-0.067,0.006-0.128,0.014-0.181,0.016c-0.05,0.002-0.098,0.002-0.142,0.002
	c-0.168,0-0.288-0.016-0.36-0.047c-0.129-0.057-0.193-0.166-0.193-0.33v-3.043h0.876v-0.639h-0.876V26.014z"/>
<path fill="#FFFFFF" stroke="#FFFFFF" stroke-width="0.25" stroke-miterlimit="10" d="M42.676,27.314H41.73v3.17
	c0,0.359,0.071,0.646,0.196,0.875c0.298-0.724,0.54-1.474,0.749-2.238V27.314z"/>
<path fill="#FFFFFF" stroke="#FFFFFF" stroke-width="0.25" stroke-miterlimit="10" d="M15.992,41.027
	c-0.048,0.193-0.124,0.357-0.215,0.505c0.264,0.124,0.522,0.256,0.792,0.368c0.153-0.241,0.263-0.528,0.32-0.873H15.992z"/>
<path fill="#FFFFFF" stroke="#FFFFFF" stroke-width="0.25" stroke-miterlimit="10" d="M13.417,39.311
	c0.253-0.486,0.673-0.73,1.261-0.73c0.431,0,0.744,0.096,0.938,0.287c0.195,0.188,0.32,0.426,0.375,0.715h0.897
	c-0.079-0.623-0.312-1.064-0.7-1.32c-0.388-0.254-0.891-0.383-1.51-0.383c-0.725,0-1.321,0.229-1.789,0.684
	c-0.252,0.245-0.431,0.546-0.547,0.896c0.287,0.217,0.567,0.44,0.866,0.642C13.243,39.804,13.302,39.532,13.417,39.311z"/>
<rect x="17.812" y="36.281" fill="#FFFFFF" stroke="#FFFFFF" stroke-width="0.25" stroke-miterlimit="10" width="0.938" height="0.889"/>
<path fill="#FFFFFF" stroke="#FFFFFF" stroke-width="0.25" stroke-miterlimit="10" d="M17.812,38.037v4.318
	c0.31,0.104,0.622,0.198,0.938,0.287v-4.605H17.812z"/>
<path fill="#FFFFFF" stroke="#FFFFFF" stroke-width="0.25" stroke-miterlimit="10" d="M22.816,37.908
	c-0.355,0-0.678,0.061-0.969,0.18c-0.291,0.121-0.566,0.314-0.826,0.588v-0.662h-0.877v4.664h0.923v-2.441
	c0-0.307,0.023-0.541,0.07-0.705c0.046-0.162,0.146-0.322,0.3-0.477c0.191-0.189,0.413-0.318,0.666-0.383
	c0.141-0.039,0.319-0.055,0.539-0.055c0.43,0,0.728,0.143,0.892,0.434c0.099,0.172,0.148,0.402,0.148,0.688v2.939h0.938v-2.99
	c0-0.471-0.075-0.834-0.226-1.086C24.122,38.143,23.596,37.908,22.816,37.908z"/>
<path fill="#939393" d="M25.79,43.258c0.001,0.012,0.006,0.021,0.007,0.033c0.114-0.011,0.229-0.021,0.342-0.033H25.79z"/>
<path fill="#FFFFFF" stroke="#FFFFFF" stroke-width="0.25" stroke-miterlimit="10" d="M29.569,38.059v0.588
	c-0.181-0.195-0.358-0.344-0.53-0.445c-0.32-0.18-0.695-0.268-1.124-0.268c-0.635,0-1.174,0.217-1.622,0.654
	c-0.448,0.439-0.671,1.051-0.671,1.83c0,0.826,0.221,1.42,0.666,1.777c0.443,0.359,0.963,0.539,1.555,0.539
	c0.426,0,0.769-0.059,1.025-0.176c0.26-0.115,0.48-0.293,0.665-0.529c0.004,0.203-0.002,0.38-0.014,0.544
	c0.306-0.091,0.603-0.198,0.901-0.304v-4.211H29.569z M29.345,41.332c-0.27,0.51-0.733,0.764-1.394,0.764
	c-0.421,0-0.756-0.139-1.006-0.412s-0.375-0.676-0.375-1.199c0-0.449,0.062-0.811,0.188-1.086c0.238-0.518,0.681-0.775,1.327-0.775
	c0.432,0,0.787,0.139,1.066,0.418c0.277,0.281,0.418,0.707,0.418,1.285C29.569,40.711,29.494,41.043,29.345,41.332z"/>
<path fill="#FFFFFF" stroke="#FFFFFF" stroke-width="0.25" stroke-miterlimit="10" d="M35.145,38.609
	c-0.449,0.441-0.678,1.013-0.703,1.703c0.376-0.241,0.738-0.499,1.097-0.765c0.073-0.212,0.18-0.405,0.354-0.563
	c0.219-0.2,0.488-0.299,0.785-0.345c0.258-0.224,0.511-0.451,0.757-0.688c-0.141-0.022-0.281-0.044-0.425-0.044
	C36.24,37.908,35.619,38.145,35.145,38.609z"/>
<g enable-background="new    ">
	<path fill="#333333" d="M17.816,37.654V36.41c3.38-0.239,3.774-0.525,3.774-3.491v-9.137c0-2.631-0.113-2.871-3.437-3.253v-1.148
		c2.648-0.383,4.958-0.957,7.098-1.77v15.308c0,2.966,0.395,3.252,3.774,3.491v1.244H17.816z M20.576,11.583
		c0-1.292,1.183-2.249,2.591-2.249c1.409,0,2.479,0.957,2.479,2.249c0,1.148-1.07,2.201-2.535,2.201
		C21.759,13.784,20.576,12.731,20.576,11.583z"/>
</g>
</svg>
