<svg id="Layer_1" data-name="Layer 1" xmlns="http://www.w3.org/2000/svg" viewBox="0 0 48 48"><defs><style>.cls-1{isolation:isolate;}.cls-2{fill:#5d5d5d;}.cls-3{fill:#333;stroke:#333;stroke-miterlimit:10;stroke-width:0.25px;}</style></defs><g class="cls-1"><path class="cls-2" d="M7.13,36.82a1.56,1.56,0,0,1,1.39.77,4.68,4.68,0,0,1,0,4.13,1.55,1.55,0,0,1-1.39.76,1.54,1.54,0,0,1-1.39-.76,4.68,4.68,0,0,1,0-4.13A1.54,1.54,0,0,1,7.13,36.82Zm-1,4L7.93,37.9a1,1,0,0,0-.38-.43.85.85,0,0,0-.43-.12,1,1,0,0,0-.87.64A3.84,3.84,0,0,0,6,39.61c0,.15,0,.31,0,.48A3.91,3.91,0,0,0,6.08,40.79Zm2.08-2.26L6.33,41.45a1.11,1.11,0,0,0,.34.37A.73.73,0,0,0,7.1,42,1,1,0,0,0,8,41.22,4.45,4.45,0,0,0,8.3,39.6,4.18,4.18,0,0,0,8.16,38.53Z"/><path class="cls-2" d="M11.2,41.79V37.67a5.72,5.72,0,0,1-.56.39,5.79,5.79,0,0,1-.75.33v-.58A4.72,4.72,0,0,0,11.2,37h.64v4.81h1.28v.53H9.89v-.53Z"/><path class="cls-2" d="M15.43,41.79V37.67a5.72,5.72,0,0,1-.56.39,5.79,5.79,0,0,1-.75.33v-.58A4.72,4.72,0,0,0,15.43,37h.64v4.81h1.29v.53H14.12v-.53Z"/><path class="cls-2" d="M19.82,36.82a1.54,1.54,0,0,1,1.39.77,4.68,4.68,0,0,1,0,4.13,1.65,1.65,0,0,1-2.78,0,4.68,4.68,0,0,1,0-4.13A1.54,1.54,0,0,1,19.82,36.82Zm-1,4,1.84-2.89a.91.91,0,0,0-.38-.43.81.81,0,0,0-.42-.12,1,1,0,0,0-.88.64,4,4,0,0,0-.29,1.62c0,.15,0,.31,0,.48A4.09,4.09,0,0,0,18.78,40.79Zm2.07-2.26L19,41.45a1.11,1.11,0,0,0,.34.37.73.73,0,0,0,.43.13,1,1,0,0,0,.93-.73A4.67,4.67,0,0,0,21,39.6,3.79,3.79,0,0,0,20.85,38.53Z"/><path class="cls-2" d="M24.05,36.82a1.54,1.54,0,0,1,1.39.77,4.68,4.68,0,0,1,0,4.13,1.65,1.65,0,0,1-2.78,0,4.68,4.68,0,0,1,0-4.13A1.56,1.56,0,0,1,24.05,36.82Zm-1,4,1.84-2.89a.91.91,0,0,0-.38-.43.79.79,0,0,0-.42-.12,1,1,0,0,0-.87.64,3.84,3.84,0,0,0-.3,1.62c0,.15,0,.31,0,.48A4.09,4.09,0,0,0,23,40.79Zm2.07-2.26-1.83,2.92a1.11,1.11,0,0,0,.34.37A.73.73,0,0,0,24,42a1,1,0,0,0,.93-.73,4.67,4.67,0,0,0,.28-1.62A3.79,3.79,0,0,0,25.08,38.53Z"/><path class="cls-2" d="M28.28,36.82a1.54,1.54,0,0,1,1.39.77,4.68,4.68,0,0,1,0,4.13,1.65,1.65,0,0,1-2.78,0,4.68,4.68,0,0,1,0-4.13A1.56,1.56,0,0,1,28.28,36.82Zm-1,4,1.84-2.89a1,1,0,0,0-.37-.43.85.85,0,0,0-.43-.12,1,1,0,0,0-.87.64,3.84,3.84,0,0,0-.3,1.62c0,.15,0,.31,0,.48A4.09,4.09,0,0,0,27.24,40.79Zm2.08-2.26-1.84,2.92a1.23,1.23,0,0,0,.34.37.75.75,0,0,0,.43.13,1,1,0,0,0,.93-.73,4.45,4.45,0,0,0,.28-1.62A4.18,4.18,0,0,0,29.32,38.53Z"/><path class="cls-2" d="M32.36,41.79V37.67a5.81,5.81,0,0,1-.57.39,6.23,6.23,0,0,1-.74.33v-.58A4.72,4.72,0,0,0,32.36,37H33v4.81h1.28v.53H31.05v-.53Z"/><path class="cls-2" d="M36.59,41.79V37.67c-.2.15-.38.28-.56.39a6.49,6.49,0,0,1-.75.33v-.58A4.72,4.72,0,0,0,36.59,37h.64v4.81h1.28v.53H35.28v-.53Z"/><path class="cls-2" d="M40.82,41.79V37.67a5.72,5.72,0,0,1-.56.39,5.79,5.79,0,0,1-.75.33v-.58A4.72,4.72,0,0,0,40.82,37h.64v4.81h1.28v.53H39.51v-.53Z"/></g><path class="cls-3" d="M26.49,28.35c-1.4,2.44-3.94,3.84-7.41,3.84-3.78,0-7.4-2.33-7.4-7.3,0-5.54,4.6-8.34,10.09-8.34a11.44,11.44,0,0,1,4.51.88V15.05c0-3.32-1.61-4.87-4.71-4.87a19,19,0,0,0-8,2.33,5.9,5.9,0,0,1-.21-1.76,8,8,0,0,1,.78-3.63A25.27,25.27,0,0,1,23,5.52c6.07,0,9.07,2.59,9.07,9.47v9.37a6.74,6.74,0,0,0,.67,3.27,17.43,17.43,0,0,0,3.52-.52,3.56,3.56,0,0,1,0,.67,6.9,6.9,0,0,1-.72,2.9,15.33,15.33,0,0,1-6.42,1.5,5.74,5.74,0,0,1-2.33-3.83Zm-.11-8a14.34,14.34,0,0,0-3.26-.41c-3.52,0-5.49,1.65-5.49,4.14,0,2.64,1.86,3.78,4,3.78a5.91,5.91,0,0,0,4.76-2.23Z"/></svg>
