<?xml version="1.0" encoding="utf-8"?>
<!-- Generator: Adobe Illustrator 16.0.0, SVG Export Plug-In . SVG Version: 6.00 Build 0)  -->
<!DOCTYPE svg PUBLIC "-//W3C//DTD SVG 1.1//EN" "http://www.w3.org/Graphics/SVG/1.1/DTD/svg11.dtd">
<svg version="1.1" id="Layer_1" xmlns="http://www.w3.org/2000/svg" xmlns:xlink="http://www.w3.org/1999/xlink" x="0px" y="0px"
	 width="48px" height="48px" viewBox="0 0 48 48" enable-background="new 0 0 48 48" xml:space="preserve">
<path fill="none" d="M7.8,9.028c10.808,0,21.593,0,32.399,0c0,7.462,0,14.915,0,22.371c-0.521,0.094-30.17,0.133-32.399,0.039
	C7.8,23.986,7.8,16.534,7.8,9.028z M27.225,14.844c-1.951,3.032-3.892,6.048-5.831,9.063c-0.06-0.054-0.108-0.132-0.147-0.127
	c-0.262,0.029-0.497-0.074-0.744-0.119c-0.266-0.048-0.533-0.031-0.807-0.112c-0.28-0.083-0.605-0.003-0.908-0.022
	c-0.29-0.02-0.58-0.063-0.864-0.121c-0.328-0.069-0.614,0.13-0.925,0.121c-0.672-0.021-1.322,0.064-1.974,0.237
	c-0.53,0.143-1.066,0.256-1.562,0.499c-0.602,0.295-1.177,0.645-1.683,1.079c-0.458,0.393-0.774,0.92-1.065,1.443
	c-0.189,0.344-0.309,0.725-0.474,1.125c0,0.088,0,0.223,0,0.348c9.194,0,18.366,0,27.601,0c-1.182-3.367-2.311-6.701-3.378-10.055
	c-0.005-0.016-0.026-0.03-0.044-0.037c-0.02-0.006-0.041-0.001-0.072-0.001c-0.399,0.549-0.818,1.095-1.207,1.659
	c-0.389,0.563-0.779,1.123-1.273,1.786c-0.072-0.149-0.102-0.229-0.146-0.296c-0.472-0.72-0.914-1.462-1.429-2.149
	c-0.716-0.957-1.379-1.949-2.063-2.928C27.908,15.778,27.573,15.329,27.225,14.844z M16.267,13.287c-0.848,0-0.845,0.003-1.74,0.486
	c-0.506,0.273-0.837,0.721-1.125,1.182c-0.263,0.42-0.374,0.946-0.355,1.422c0.03,0.766,0.25,1.5,0.82,2.089
	c0.605,0.625,1.298,1.008,2.188,1.049c0.668,0.03,1.247-0.157,1.811-0.49c0.476-0.282,0.788-0.708,1.098-1.136
	c0.315-0.435,0.213-0.997,0.402-1.475c-0.173-0.465-0.093-0.994-0.366-1.431c-0.294-0.47-0.624-0.918-1.105-1.204
	C17.38,13.476,16.846,13.199,16.267,13.287z"/>
<text transform="matrix(1 0 0 1 5.0962 41.3105)" fill="#5D5D5D" font-family="'Monaco'" font-size="7.0511">011000111</text>
<rect x="5.706" y="7.836" fill="#E8E8E8" width="36.588" height="24.909"/>
<g enable-background="new    ">
	<path fill="#707070" d="M9.009,10.583h0.495v2.734h1.833v0.37H9.009V10.583z"/>
	<path fill="#707070" d="M13.713,11.649c0.236,0.194,0.353,0.48,0.353,0.857c0,0.364-0.104,0.666-0.311,0.904
		c-0.208,0.239-0.53,0.356-0.966,0.356c-0.363,0-0.653-0.104-0.868-0.314c-0.214-0.21-0.321-0.494-0.321-0.848
		c0-0.38,0.113-0.682,0.338-0.907c0.225-0.226,0.529-0.338,0.909-0.338C13.189,11.357,13.478,11.455,13.713,11.649z M13.435,13.153
		c0.109-0.191,0.164-0.403,0.164-0.636c0-0.211-0.039-0.383-0.118-0.516c-0.125-0.208-0.34-0.312-0.645-0.312
		c-0.271,0-0.467,0.088-0.591,0.266c-0.123,0.178-0.184,0.391-0.184,0.642c0,0.24,0.061,0.44,0.184,0.601
		c0.124,0.161,0.318,0.24,0.586,0.24C13.125,13.438,13.326,13.343,13.435,13.153z"/>
	<path fill="#707070" d="M14.628,11.423h0.425v0.39c0.035-0.076,0.12-0.168,0.256-0.277c0.136-0.109,0.292-0.165,0.47-0.165
		c0.008,0,0.022,0,0.042,0.002c0.02,0.002,0.054,0.005,0.102,0.009v0.402c-0.026-0.005-0.051-0.007-0.073-0.009
		c-0.022-0.001-0.047-0.001-0.074-0.001c-0.225,0-0.399,0.061-0.52,0.184c-0.122,0.124-0.182,0.265-0.182,0.426v1.302h-0.448
		L14.628,11.423L14.628,11.423z"/>
	<path fill="#707070" d="M17.957,11.486c0.177,0.074,0.312,0.173,0.404,0.292c0.088,0.114,0.148,0.248,0.178,0.399
		c0.027,0.104,0.04,0.271,0.04,0.499H16.64c0.008,0.229,0.072,0.415,0.189,0.554c0.119,0.139,0.301,0.208,0.551,0.208
		c0.231,0,0.417-0.065,0.555-0.197c0.077-0.077,0.132-0.165,0.165-0.266h0.44c-0.012,0.084-0.051,0.176-0.116,0.278
		c-0.065,0.102-0.138,0.186-0.219,0.25c-0.135,0.112-0.301,0.188-0.501,0.228c-0.107,0.022-0.228,0.034-0.363,0.034
		c-0.33,0-0.609-0.102-0.838-0.307c-0.229-0.205-0.343-0.492-0.343-0.861c0-0.364,0.115-0.658,0.346-0.885s0.532-0.34,0.904-0.34
		C17.6,11.372,17.781,11.41,17.957,11.486z M18.119,12.374c-0.019-0.165-0.061-0.296-0.126-0.395
		c-0.122-0.183-0.325-0.275-0.609-0.275c-0.204,0-0.375,0.063-0.514,0.188c-0.138,0.126-0.211,0.287-0.22,0.481H18.119z"/>
	<path fill="#707070" d="M19.146,11.423h0.442v0.321c0.106-0.111,0.203-0.192,0.29-0.243c0.147-0.086,0.315-0.129,0.502-0.129
		c0.212,0,0.383,0.045,0.513,0.133c0.073,0.05,0.139,0.125,0.199,0.224c0.099-0.122,0.216-0.211,0.352-0.27
		c0.134-0.058,0.285-0.088,0.452-0.088c0.358,0,0.602,0.11,0.731,0.33c0.07,0.119,0.104,0.277,0.104,0.478v1.506h-0.465v-1.572
		c0-0.15-0.044-0.253-0.133-0.31s-0.197-0.085-0.325-0.085c-0.175,0-0.327,0.051-0.454,0.15c-0.126,0.099-0.189,0.267-0.189,0.5
		v1.315h-0.455v-1.476c0-0.154-0.021-0.266-0.065-0.337c-0.068-0.105-0.195-0.158-0.38-0.158c-0.169,0-0.323,0.055-0.462,0.167
		c-0.138,0.111-0.207,0.313-0.207,0.604v1.2h-0.448L19.146,11.423L19.146,11.423z"/>
	<path fill="#707070" d="M24.804,10.583h0.456v0.43h-0.456V10.583z M24.804,11.434h0.456v2.252h-0.456V11.434z"/>
	<path fill="#707070" d="M25.898,11.434h0.438v0.3c0.09-0.103,0.188-0.183,0.294-0.24c0.151-0.084,0.329-0.126,0.534-0.126
		c0.303,0,0.561,0.098,0.771,0.294c0.21,0.197,0.315,0.477,0.315,0.842c0,0.493-0.152,0.845-0.457,1.056
		c-0.192,0.134-0.418,0.201-0.674,0.201c-0.203,0-0.371-0.037-0.506-0.112c-0.081-0.042-0.17-0.115-0.269-0.217v1.155h-0.447V11.434
		L25.898,11.434z M27.583,13.207c0.138-0.148,0.209-0.371,0.209-0.666c0-0.181-0.031-0.335-0.094-0.465
		c-0.115-0.249-0.329-0.375-0.638-0.375c-0.312,0-0.524,0.131-0.639,0.395c-0.062,0.141-0.093,0.32-0.093,0.537
		c0,0.175,0.03,0.323,0.093,0.445c0.116,0.234,0.329,0.351,0.639,0.351C27.271,13.43,27.444,13.356,27.583,13.207z"/>
	<path fill="#707070" d="M29.035,12.975c0.013,0.127,0.051,0.224,0.113,0.292c0.116,0.123,0.315,0.185,0.6,0.185
		c0.17,0,0.318-0.031,0.447-0.092c0.13-0.061,0.194-0.157,0.194-0.284c0-0.098-0.053-0.171-0.155-0.222
		c-0.064-0.031-0.195-0.066-0.388-0.107l-0.36-0.077c-0.232-0.048-0.401-0.101-0.511-0.161c-0.196-0.103-0.293-0.245-0.293-0.426
		c0-0.214,0.092-0.388,0.276-0.519c0.185-0.132,0.432-0.199,0.742-0.199c0.407,0,0.7,0.1,0.88,0.3
		c0.113,0.127,0.167,0.263,0.165,0.41h-0.427c-0.008-0.085-0.045-0.163-0.108-0.233c-0.106-0.1-0.288-0.149-0.548-0.149
		c-0.173,0-0.304,0.027-0.394,0.082c-0.088,0.055-0.131,0.127-0.131,0.217c0,0.098,0.057,0.176,0.173,0.236
		c0.067,0.035,0.168,0.066,0.302,0.093l0.301,0.061c0.328,0.066,0.548,0.13,0.658,0.192c0.174,0.097,0.262,0.25,0.262,0.458
		c0,0.201-0.092,0.375-0.275,0.521c-0.182,0.146-0.459,0.22-0.831,0.22c-0.402,0-0.687-0.076-0.853-0.229s-0.257-0.341-0.269-0.568
		h0.428L29.035,12.975L29.035,12.975z"/>
	<path fill="#707070" d="M31.764,11.423v1.501c0,0.116,0.02,0.21,0.063,0.283c0.077,0.135,0.222,0.203,0.433,0.203
		c0.304,0,0.512-0.118,0.62-0.354c0.059-0.127,0.091-0.301,0.091-0.522v-1.11h0.446v2.262h-0.423L33,13.352
		c-0.058,0.086-0.13,0.159-0.213,0.218c-0.167,0.118-0.371,0.177-0.61,0.177c-0.372,0-0.625-0.107-0.761-0.323
		c-0.072-0.115-0.11-0.27-0.11-0.462v-1.537h0.459L31.764,11.423L31.764,11.423z"/>
	<path fill="#707070" d="M34.148,11.423h0.443v0.321c0.105-0.111,0.203-0.192,0.289-0.243c0.147-0.086,0.313-0.129,0.501-0.129
		c0.21,0,0.385,0.045,0.512,0.133c0.073,0.05,0.138,0.125,0.198,0.224c0.101-0.122,0.217-0.211,0.352-0.27
		c0.134-0.058,0.286-0.088,0.453-0.088c0.358,0,0.603,0.11,0.73,0.33c0.071,0.119,0.105,0.277,0.105,0.478v1.506h-0.465v-1.572
		c0-0.15-0.044-0.253-0.133-0.31s-0.197-0.085-0.324-0.085c-0.175,0-0.326,0.051-0.453,0.15c-0.129,0.101-0.191,0.267-0.191,0.5
		v1.315H35.71v-1.476c0-0.154-0.02-0.266-0.064-0.337c-0.066-0.105-0.194-0.158-0.381-0.158c-0.169,0-0.322,0.055-0.462,0.167
		c-0.139,0.112-0.207,0.313-0.207,0.604v1.2h-0.447V11.423L34.148,11.423z"/>
</g>
<g enable-background="new    ">
	<path fill="none" stroke="#707070" stroke-width="0.25" stroke-miterlimit="10" d="M9.009,10.583h0.495v2.734h1.833v0.37H9.009
		V10.583z"/>
	<path fill="none" stroke="#707070" stroke-width="0.25" stroke-miterlimit="10" d="M13.713,11.649
		c0.236,0.194,0.353,0.48,0.353,0.857c0,0.364-0.104,0.666-0.311,0.904c-0.208,0.239-0.53,0.356-0.966,0.356
		c-0.363,0-0.653-0.104-0.868-0.314c-0.214-0.21-0.321-0.494-0.321-0.848c0-0.38,0.113-0.682,0.338-0.907
		c0.225-0.226,0.529-0.338,0.909-0.338C13.189,11.357,13.478,11.455,13.713,11.649z M13.435,13.153
		c0.109-0.191,0.164-0.403,0.164-0.636c0-0.211-0.039-0.383-0.118-0.516c-0.125-0.208-0.34-0.312-0.645-0.312
		c-0.271,0-0.467,0.088-0.591,0.266c-0.123,0.178-0.184,0.391-0.184,0.642c0,0.24,0.061,0.44,0.184,0.601
		c0.124,0.161,0.318,0.24,0.586,0.24C13.125,13.438,13.326,13.343,13.435,13.153z"/>
	<path fill="none" stroke="#707070" stroke-width="0.25" stroke-miterlimit="10" d="M14.628,11.423h0.425v0.39
		c0.035-0.076,0.12-0.168,0.256-0.277c0.136-0.109,0.292-0.165,0.47-0.165c0.008,0,0.022,0,0.042,0.002
		c0.02,0.002,0.054,0.005,0.102,0.009v0.402c-0.026-0.005-0.051-0.007-0.073-0.009c-0.022-0.001-0.047-0.001-0.074-0.001
		c-0.225,0-0.399,0.061-0.52,0.184c-0.122,0.124-0.182,0.265-0.182,0.426v1.302h-0.448L14.628,11.423L14.628,11.423z"/>
	<path fill="none" stroke="#707070" stroke-width="0.25" stroke-miterlimit="10" d="M17.957,11.486
		c0.177,0.074,0.312,0.173,0.404,0.292c0.088,0.114,0.148,0.248,0.178,0.399c0.027,0.104,0.04,0.271,0.04,0.499H16.64
		c0.008,0.229,0.072,0.415,0.189,0.554c0.119,0.139,0.301,0.208,0.551,0.208c0.231,0,0.417-0.065,0.555-0.197
		c0.077-0.077,0.132-0.165,0.165-0.266h0.44c-0.012,0.084-0.051,0.176-0.116,0.278c-0.065,0.102-0.138,0.186-0.219,0.25
		c-0.135,0.112-0.301,0.188-0.501,0.228c-0.107,0.022-0.228,0.034-0.363,0.034c-0.33,0-0.609-0.102-0.838-0.307
		c-0.229-0.205-0.343-0.492-0.343-0.861c0-0.364,0.115-0.658,0.346-0.885s0.532-0.34,0.904-0.34
		C17.6,11.372,17.781,11.41,17.957,11.486z M18.119,12.374c-0.019-0.165-0.061-0.296-0.126-0.395
		c-0.122-0.183-0.325-0.275-0.609-0.275c-0.204,0-0.375,0.063-0.514,0.188c-0.138,0.126-0.211,0.287-0.22,0.481H18.119z"/>
	<path fill="none" stroke="#707070" stroke-width="0.25" stroke-miterlimit="10" d="M19.146,11.423h0.442v0.321
		c0.106-0.111,0.203-0.192,0.29-0.243c0.147-0.086,0.315-0.129,0.502-0.129c0.212,0,0.383,0.045,0.513,0.133
		c0.073,0.05,0.139,0.125,0.199,0.224c0.099-0.122,0.216-0.211,0.352-0.27c0.134-0.058,0.285-0.088,0.452-0.088
		c0.358,0,0.602,0.11,0.731,0.33c0.07,0.119,0.104,0.277,0.104,0.478v1.506h-0.465v-1.572c0-0.15-0.044-0.253-0.133-0.31
		s-0.197-0.085-0.325-0.085c-0.175,0-0.327,0.051-0.454,0.15c-0.126,0.099-0.189,0.267-0.189,0.5v1.315h-0.455v-1.476
		c0-0.154-0.021-0.266-0.065-0.337c-0.068-0.105-0.195-0.158-0.38-0.158c-0.169,0-0.323,0.055-0.462,0.167
		c-0.138,0.111-0.207,0.313-0.207,0.604v1.2h-0.448L19.146,11.423L19.146,11.423z"/>
	<path fill="none" stroke="#707070" stroke-width="0.25" stroke-miterlimit="10" d="M24.804,10.583h0.456v0.43h-0.456V10.583z
		 M24.804,11.434h0.456v2.252h-0.456V11.434z"/>
	<path fill="none" stroke="#707070" stroke-width="0.25" stroke-miterlimit="10" d="M25.898,11.434h0.438v0.3
		c0.09-0.103,0.188-0.183,0.294-0.24c0.151-0.084,0.329-0.126,0.534-0.126c0.303,0,0.561,0.098,0.771,0.294
		c0.21,0.197,0.315,0.477,0.315,0.842c0,0.493-0.152,0.845-0.457,1.056c-0.192,0.134-0.418,0.201-0.674,0.201
		c-0.203,0-0.371-0.037-0.506-0.112c-0.081-0.042-0.17-0.115-0.269-0.217v1.155h-0.447V11.434L25.898,11.434z M27.583,13.207
		c0.138-0.148,0.209-0.371,0.209-0.666c0-0.181-0.031-0.335-0.094-0.465c-0.115-0.249-0.329-0.375-0.638-0.375
		c-0.312,0-0.524,0.131-0.639,0.395c-0.062,0.141-0.093,0.32-0.093,0.537c0,0.175,0.03,0.323,0.093,0.445
		c0.116,0.234,0.329,0.351,0.639,0.351C27.271,13.43,27.444,13.356,27.583,13.207z"/>
	<path fill="none" stroke="#707070" stroke-width="0.25" stroke-miterlimit="10" d="M29.035,12.975
		c0.013,0.127,0.051,0.224,0.113,0.292c0.116,0.123,0.315,0.185,0.6,0.185c0.17,0,0.318-0.031,0.447-0.092
		c0.13-0.061,0.194-0.157,0.194-0.284c0-0.098-0.053-0.171-0.155-0.222c-0.064-0.031-0.195-0.066-0.388-0.107l-0.36-0.077
		c-0.232-0.048-0.401-0.101-0.511-0.161c-0.196-0.103-0.293-0.245-0.293-0.426c0-0.214,0.092-0.388,0.276-0.519
		c0.185-0.132,0.432-0.199,0.742-0.199c0.407,0,0.7,0.1,0.88,0.3c0.113,0.127,0.167,0.263,0.165,0.41h-0.427
		c-0.008-0.085-0.045-0.163-0.108-0.233c-0.106-0.1-0.288-0.149-0.548-0.149c-0.173,0-0.304,0.027-0.394,0.082
		c-0.088,0.055-0.131,0.127-0.131,0.217c0,0.098,0.057,0.176,0.173,0.236c0.067,0.035,0.168,0.066,0.302,0.093l0.301,0.061
		c0.328,0.066,0.548,0.13,0.658,0.192c0.174,0.097,0.262,0.25,0.262,0.458c0,0.201-0.092,0.375-0.275,0.521
		c-0.182,0.146-0.459,0.22-0.831,0.22c-0.402,0-0.687-0.076-0.853-0.229s-0.257-0.341-0.269-0.568h0.428L29.035,12.975
		L29.035,12.975z"/>
	<path fill="none" stroke="#707070" stroke-width="0.25" stroke-miterlimit="10" d="M31.764,11.423v1.501
		c0,0.116,0.02,0.21,0.063,0.283c0.077,0.135,0.222,0.203,0.433,0.203c0.304,0,0.512-0.118,0.62-0.354
		c0.059-0.127,0.091-0.301,0.091-0.522v-1.11h0.446v2.262h-0.423L33,13.352c-0.058,0.086-0.13,0.159-0.213,0.218
		c-0.167,0.118-0.371,0.177-0.61,0.177c-0.372,0-0.625-0.107-0.761-0.323c-0.072-0.115-0.11-0.27-0.11-0.462v-1.537h0.459
		L31.764,11.423L31.764,11.423z"/>
	<path fill="none" stroke="#707070" stroke-width="0.25" stroke-miterlimit="10" d="M34.148,11.423h0.443v0.321
		c0.105-0.111,0.203-0.192,0.289-0.243c0.147-0.086,0.313-0.129,0.501-0.129c0.21,0,0.385,0.045,0.512,0.133
		c0.073,0.05,0.138,0.125,0.198,0.224c0.101-0.122,0.217-0.211,0.352-0.27c0.134-0.058,0.286-0.088,0.453-0.088
		c0.358,0,0.603,0.11,0.73,0.33c0.071,0.119,0.105,0.277,0.105,0.478v1.506h-0.465v-1.572c0-0.15-0.044-0.253-0.133-0.31
		s-0.197-0.085-0.324-0.085c-0.175,0-0.326,0.051-0.453,0.15c-0.129,0.101-0.191,0.267-0.191,0.5v1.315H35.71v-1.476
		c0-0.154-0.02-0.266-0.064-0.337c-0.066-0.105-0.194-0.158-0.381-0.158c-0.169,0-0.322,0.055-0.462,0.167
		c-0.139,0.112-0.207,0.313-0.207,0.604v1.2h-0.447V11.423L34.148,11.423z"/>
</g>
<g enable-background="new    ">
	<path fill="#707070" d="M10.88,16.839c0.236,0.195,0.353,0.48,0.353,0.857c0,0.364-0.104,0.665-0.312,0.904
		c-0.208,0.238-0.529,0.356-0.966,0.356c-0.364,0-0.653-0.105-0.868-0.315c-0.215-0.21-0.321-0.493-0.321-0.848
		c0-0.38,0.113-0.682,0.338-0.907s0.529-0.338,0.909-0.338C10.356,16.548,10.644,16.646,10.88,16.839z M10.602,18.343
		c0.109-0.191,0.164-0.403,0.164-0.636c0-0.211-0.039-0.383-0.118-0.515c-0.125-0.208-0.34-0.312-0.645-0.312
		c-0.271,0-0.468,0.089-0.591,0.266c-0.124,0.177-0.185,0.391-0.185,0.642c0,0.24,0.061,0.44,0.185,0.601
		c0.123,0.161,0.318,0.24,0.585,0.24C10.292,18.629,10.492,18.534,10.602,18.343z"/>
	<path fill="#707070" d="M11.795,15.774h0.448v3.102h-0.448V15.774z"/>
	<path fill="#707070" d="M14.845,16.839c0.236,0.195,0.353,0.48,0.353,0.857c0,0.364-0.104,0.665-0.312,0.904
		c-0.208,0.238-0.53,0.356-0.966,0.356c-0.364,0-0.653-0.105-0.867-0.315c-0.215-0.21-0.321-0.493-0.321-0.848
		c0-0.38,0.112-0.682,0.337-0.907c0.226-0.225,0.529-0.338,0.91-0.338C14.321,16.548,14.609,16.646,14.845,16.839z M14.567,18.343
		c0.108-0.191,0.164-0.403,0.164-0.636c0-0.211-0.039-0.383-0.118-0.515c-0.125-0.208-0.34-0.312-0.645-0.312
		c-0.271,0-0.467,0.089-0.591,0.267c-0.124,0.177-0.185,0.391-0.185,0.641c0,0.24,0.061,0.44,0.185,0.601s0.318,0.241,0.585,0.241
		C14.257,18.629,14.458,18.534,14.567,18.343z"/>
	<path fill="#707070" d="M15.76,16.614h0.425v0.39c0.035-0.076,0.12-0.168,0.257-0.277c0.136-0.109,0.292-0.164,0.47-0.164
		c0.008,0,0.022,0,0.043,0.001c0.02,0.002,0.054,0.005,0.102,0.009v0.402c-0.026-0.005-0.051-0.007-0.074-0.009
		c-0.022,0-0.046-0.001-0.073-0.001c-0.226,0-0.399,0.061-0.52,0.185c-0.121,0.123-0.182,0.265-0.182,0.426v1.301h-0.448
		L15.76,16.614L15.76,16.614z"/>
	<path fill="#707070" d="M19.125,18.167c0.014,0.127,0.052,0.224,0.114,0.292c0.115,0.122,0.314,0.185,0.6,0.185
		c0.169,0,0.317-0.031,0.446-0.092c0.128-0.061,0.193-0.156,0.193-0.284c0-0.098-0.051-0.171-0.154-0.222
		c-0.065-0.031-0.195-0.066-0.389-0.107l-0.362-0.076c-0.23-0.048-0.401-0.102-0.511-0.161c-0.195-0.103-0.294-0.245-0.294-0.427
		c0-0.214,0.092-0.388,0.277-0.519c0.185-0.132,0.431-0.199,0.742-0.199c0.406,0,0.7,0.1,0.88,0.3
		c0.112,0.127,0.167,0.263,0.164,0.41h-0.423c-0.008-0.085-0.045-0.163-0.11-0.233c-0.105-0.1-0.288-0.149-0.547-0.149
		c-0.173,0-0.304,0.027-0.393,0.082c-0.089,0.055-0.134,0.127-0.134,0.217c0,0.098,0.059,0.176,0.176,0.236
		c0.067,0.036,0.167,0.066,0.299,0.093L20,17.573c0.328,0.067,0.547,0.13,0.659,0.192c0.174,0.097,0.261,0.25,0.261,0.458
		c0,0.202-0.091,0.375-0.273,0.521s-0.459,0.22-0.832,0.22c-0.402,0-0.686-0.076-0.853-0.229c-0.167-0.152-0.256-0.342-0.268-0.568
		h0.431V18.167z"/>
	<path fill="#707070" d="M21.407,15.774h0.455v0.43h-0.455V15.774z M21.407,16.625h0.455v2.252h-0.455V16.625z"/>
	<path fill="#707070" d="M22.628,15.983h0.452v0.631h0.424v0.311H23.08v1.477c0,0.079,0.032,0.131,0.094,0.158
		c0.036,0.016,0.093,0.023,0.175,0.023c0.021,0,0.045,0,0.069-0.001c0.025-0.001,0.054-0.003,0.086-0.007v0.301
		c-0.051,0.013-0.104,0.021-0.159,0.028c-0.056,0.005-0.116,0.008-0.182,0.008c-0.208,0-0.35-0.045-0.424-0.136
		c-0.074-0.09-0.112-0.208-0.112-0.354v-1.497h-0.361v-0.311h0.361L22.628,15.983L22.628,15.983z"/>
	<path fill="#707070" d="M26.796,17.507c0.103-0.011,0.172-0.047,0.205-0.11c0.021-0.034,0.03-0.083,0.03-0.146
		c0-0.129-0.055-0.224-0.164-0.283s-0.264-0.088-0.465-0.088c-0.235,0-0.396,0.054-0.497,0.162
		c-0.055,0.059-0.091,0.148-0.107,0.265h-0.417c0.009-0.28,0.114-0.474,0.318-0.583c0.205-0.11,0.442-0.164,0.712-0.164
		c0.314,0,0.566,0.05,0.763,0.151c0.194,0.102,0.291,0.259,0.291,0.474v1.303c0,0.04,0.009,0.071,0.027,0.096
		c0.019,0.023,0.059,0.036,0.121,0.036c0.02,0,0.043-0.001,0.068-0.002c0.023-0.002,0.051-0.005,0.079-0.01v0.28
		c-0.07,0.017-0.123,0.027-0.159,0.032c-0.036,0.003-0.088,0.006-0.149,0.006c-0.154,0-0.268-0.046-0.336-0.139
		c-0.036-0.049-0.062-0.119-0.079-0.209c-0.091,0.102-0.222,0.189-0.392,0.263c-0.17,0.075-0.358,0.112-0.564,0.112
		c-0.246,0-0.45-0.064-0.606-0.191c-0.158-0.127-0.237-0.286-0.237-0.478c0-0.209,0.077-0.372,0.233-0.487
		c0.154-0.115,0.355-0.187,0.607-0.213L26.796,17.507z M25.854,18.535c0.094,0.063,0.206,0.095,0.336,0.095
		c0.158,0,0.311-0.031,0.458-0.092c0.249-0.103,0.375-0.271,0.375-0.503v-0.306c-0.055,0.03-0.128,0.055-0.212,0.074
		c-0.087,0.02-0.169,0.034-0.253,0.042l-0.271,0.029c-0.163,0.019-0.284,0.047-0.366,0.087c-0.139,0.066-0.206,0.171-0.206,0.316
		C25.712,18.385,25.759,18.471,25.854,18.535z"/>
	<path fill="#707070" d="M28.201,16.614h0.443v0.321c0.105-0.111,0.203-0.192,0.289-0.243c0.147-0.086,0.313-0.129,0.501-0.129
		c0.211,0,0.385,0.045,0.512,0.133c0.073,0.05,0.138,0.125,0.2,0.224c0.099-0.122,0.215-0.211,0.351-0.27
		c0.133-0.059,0.285-0.088,0.452-0.088c0.358,0,0.603,0.11,0.731,0.329c0.07,0.119,0.104,0.277,0.104,0.478v1.506H31.32v-1.572
		c0-0.15-0.044-0.253-0.133-0.31s-0.197-0.085-0.324-0.085c-0.175,0-0.326,0.051-0.453,0.15c-0.129,0.101-0.19,0.267-0.19,0.5v1.315
		h-0.457v-1.477c0-0.153-0.02-0.265-0.064-0.336c-0.066-0.106-0.194-0.158-0.381-0.158c-0.169,0-0.322,0.055-0.462,0.167
		c-0.139,0.112-0.207,0.313-0.207,0.604v1.2h-0.447V16.614L28.201,16.614z"/>
	<path fill="#707070" d="M34.091,16.676c0.177,0.075,0.311,0.173,0.403,0.293c0.089,0.113,0.147,0.248,0.178,0.399
		c0.025,0.104,0.039,0.271,0.039,0.499h-1.938c0.009,0.229,0.073,0.415,0.19,0.555c0.12,0.139,0.302,0.208,0.552,0.208
		c0.231,0,0.417-0.065,0.554-0.197c0.078-0.076,0.132-0.165,0.166-0.265h0.439c-0.011,0.083-0.051,0.176-0.115,0.277
		c-0.065,0.103-0.139,0.186-0.22,0.25c-0.135,0.113-0.302,0.188-0.501,0.228c-0.107,0.022-0.229,0.034-0.361,0.034
		c-0.331,0-0.61-0.102-0.839-0.307c-0.227-0.205-0.343-0.492-0.343-0.861c0-0.364,0.114-0.659,0.347-0.885
		c0.23-0.228,0.532-0.34,0.905-0.34C33.732,16.563,33.914,16.601,34.091,16.676z M34.252,17.564
		c-0.018-0.165-0.059-0.296-0.126-0.395c-0.123-0.183-0.326-0.275-0.61-0.275c-0.203,0-0.374,0.063-0.513,0.189
		c-0.139,0.126-0.211,0.287-0.22,0.48H34.252z"/>
	<path fill="#707070" d="M35.368,15.983h0.452v0.631h0.426v0.311H35.82v1.477c0,0.079,0.031,0.131,0.095,0.158
		c0.035,0.016,0.092,0.023,0.172,0.023c0.021,0,0.047,0,0.07-0.001c0.023-0.001,0.055-0.003,0.089-0.007v0.301
		c-0.054,0.013-0.105,0.021-0.163,0.028c-0.057,0.006-0.115,0.008-0.18,0.008c-0.208,0-0.352-0.045-0.425-0.136
		c-0.074-0.09-0.11-0.208-0.11-0.354v-1.497h-0.36v-0.311h0.36V15.983z"/>
	<path fill="#707070" d="M36.788,19.319c0.114-0.016,0.194-0.085,0.241-0.206c0.023-0.063,0.038-0.125,0.038-0.185
		c0-0.009-0.002-0.019-0.002-0.026c-0.002-0.008-0.003-0.017-0.007-0.027h-0.271v-0.46h0.533v0.427c0,0.167-0.04,0.315-0.121,0.441
		c-0.08,0.126-0.215,0.205-0.412,0.235L36.788,19.319L36.788,19.319z"/>
</g>
<g enable-background="new    ">
	<path fill="none" stroke="#707070" stroke-width="0.25" stroke-miterlimit="10" d="M10.88,16.839
		c0.236,0.195,0.353,0.48,0.353,0.857c0,0.364-0.104,0.665-0.312,0.904c-0.208,0.238-0.529,0.356-0.966,0.356
		c-0.364,0-0.653-0.105-0.868-0.315c-0.215-0.21-0.321-0.493-0.321-0.848c0-0.38,0.113-0.682,0.338-0.907s0.529-0.338,0.909-0.338
		C10.356,16.548,10.644,16.646,10.88,16.839z M10.602,18.343c0.109-0.191,0.164-0.403,0.164-0.636c0-0.211-0.039-0.383-0.118-0.515
		c-0.125-0.208-0.34-0.312-0.645-0.312c-0.271,0-0.468,0.089-0.591,0.266c-0.124,0.177-0.185,0.391-0.185,0.642
		c0,0.24,0.061,0.44,0.185,0.601c0.123,0.161,0.318,0.24,0.585,0.24C10.292,18.629,10.492,18.534,10.602,18.343z"/>
	<path fill="none" stroke="#707070" stroke-width="0.25" stroke-miterlimit="10" d="M11.795,15.774h0.448v3.102h-0.448V15.774z"/>
	<path fill="none" stroke="#707070" stroke-width="0.25" stroke-miterlimit="10" d="M14.845,16.839
		c0.236,0.195,0.353,0.48,0.353,0.857c0,0.364-0.104,0.665-0.312,0.904c-0.208,0.238-0.53,0.356-0.966,0.356
		c-0.364,0-0.653-0.105-0.867-0.315c-0.215-0.21-0.321-0.493-0.321-0.848c0-0.38,0.112-0.682,0.337-0.907
		c0.226-0.225,0.529-0.338,0.91-0.338C14.321,16.548,14.609,16.646,14.845,16.839z M14.567,18.343
		c0.108-0.191,0.164-0.403,0.164-0.636c0-0.211-0.039-0.383-0.118-0.515c-0.125-0.208-0.34-0.312-0.645-0.312
		c-0.271,0-0.467,0.089-0.591,0.267c-0.124,0.177-0.185,0.391-0.185,0.641c0,0.24,0.061,0.44,0.185,0.601s0.318,0.241,0.585,0.241
		C14.257,18.629,14.458,18.534,14.567,18.343z"/>
	<path fill="none" stroke="#707070" stroke-width="0.25" stroke-miterlimit="10" d="M15.76,16.614h0.425v0.39
		c0.035-0.076,0.12-0.168,0.257-0.277c0.136-0.109,0.292-0.164,0.47-0.164c0.008,0,0.022,0,0.043,0.001
		c0.02,0.002,0.054,0.005,0.102,0.009v0.402c-0.026-0.005-0.051-0.007-0.074-0.009c-0.022,0-0.046-0.001-0.073-0.001
		c-0.226,0-0.399,0.061-0.52,0.185c-0.121,0.123-0.182,0.265-0.182,0.426v1.301h-0.448L15.76,16.614L15.76,16.614z"/>
	<path fill="none" stroke="#707070" stroke-width="0.25" stroke-miterlimit="10" d="M19.125,18.167
		c0.014,0.127,0.052,0.224,0.114,0.292c0.115,0.122,0.314,0.185,0.6,0.185c0.169,0,0.317-0.031,0.446-0.092
		c0.128-0.061,0.193-0.156,0.193-0.284c0-0.098-0.051-0.171-0.154-0.222c-0.065-0.031-0.195-0.066-0.389-0.107l-0.362-0.076
		c-0.23-0.048-0.401-0.102-0.511-0.161c-0.195-0.103-0.294-0.245-0.294-0.427c0-0.214,0.092-0.388,0.277-0.519
		c0.185-0.132,0.431-0.199,0.742-0.199c0.406,0,0.7,0.1,0.88,0.3c0.112,0.127,0.167,0.263,0.164,0.41h-0.423
		c-0.008-0.085-0.045-0.163-0.11-0.233c-0.105-0.1-0.288-0.149-0.547-0.149c-0.173,0-0.304,0.027-0.393,0.082
		c-0.089,0.055-0.134,0.127-0.134,0.217c0,0.098,0.059,0.176,0.176,0.236c0.067,0.036,0.167,0.066,0.299,0.093L20,17.573
		c0.328,0.067,0.547,0.13,0.659,0.192c0.174,0.097,0.261,0.25,0.261,0.458c0,0.202-0.091,0.375-0.273,0.521s-0.459,0.22-0.832,0.22
		c-0.402,0-0.686-0.076-0.853-0.229c-0.167-0.152-0.256-0.342-0.268-0.568h0.431V18.167z"/>
	<path fill="none" stroke="#707070" stroke-width="0.25" stroke-miterlimit="10" d="M21.407,15.774h0.455v0.43h-0.455V15.774z
		 M21.407,16.625h0.455v2.252h-0.455V16.625z"/>
	<path fill="none" stroke="#707070" stroke-width="0.25" stroke-miterlimit="10" d="M22.628,15.983h0.452v0.631h0.424v0.311H23.08
		v1.477c0,0.079,0.032,0.131,0.094,0.158c0.036,0.016,0.093,0.023,0.175,0.023c0.021,0,0.045,0,0.069-0.001
		c0.025-0.001,0.054-0.003,0.086-0.007v0.301c-0.051,0.013-0.104,0.021-0.159,0.028c-0.056,0.005-0.116,0.008-0.182,0.008
		c-0.208,0-0.35-0.045-0.424-0.136c-0.074-0.09-0.112-0.208-0.112-0.354v-1.497h-0.361v-0.311h0.361L22.628,15.983L22.628,15.983z"
		/>
	<path fill="none" stroke="#707070" stroke-width="0.25" stroke-miterlimit="10" d="M26.796,17.507
		c0.103-0.011,0.172-0.047,0.205-0.11c0.021-0.034,0.03-0.083,0.03-0.146c0-0.129-0.055-0.224-0.164-0.283s-0.264-0.088-0.465-0.088
		c-0.235,0-0.396,0.054-0.497,0.162c-0.055,0.059-0.091,0.148-0.107,0.265h-0.417c0.009-0.28,0.114-0.474,0.318-0.583
		c0.205-0.11,0.442-0.164,0.712-0.164c0.314,0,0.566,0.05,0.763,0.151c0.194,0.102,0.291,0.259,0.291,0.474v1.303
		c0,0.04,0.009,0.071,0.027,0.096c0.019,0.023,0.059,0.036,0.121,0.036c0.02,0,0.043-0.001,0.068-0.002
		c0.023-0.002,0.051-0.005,0.079-0.01v0.28c-0.07,0.017-0.123,0.027-0.159,0.032c-0.036,0.003-0.088,0.006-0.149,0.006
		c-0.154,0-0.268-0.046-0.336-0.139c-0.036-0.049-0.062-0.119-0.079-0.209c-0.091,0.102-0.222,0.189-0.392,0.263
		c-0.17,0.075-0.358,0.112-0.564,0.112c-0.246,0-0.45-0.064-0.606-0.191c-0.158-0.127-0.237-0.286-0.237-0.478
		c0-0.209,0.077-0.372,0.233-0.487c0.154-0.115,0.355-0.187,0.607-0.213L26.796,17.507z M25.854,18.535
		c0.094,0.063,0.206,0.095,0.336,0.095c0.158,0,0.311-0.031,0.458-0.092c0.249-0.103,0.375-0.271,0.375-0.503v-0.306
		c-0.055,0.03-0.128,0.055-0.212,0.074c-0.087,0.02-0.169,0.034-0.253,0.042l-0.271,0.029c-0.163,0.019-0.284,0.047-0.366,0.087
		c-0.139,0.066-0.206,0.171-0.206,0.316C25.712,18.385,25.759,18.471,25.854,18.535z"/>
	<path fill="none" stroke="#707070" stroke-width="0.25" stroke-miterlimit="10" d="M28.201,16.614h0.443v0.321
		c0.105-0.111,0.203-0.192,0.289-0.243c0.147-0.086,0.313-0.129,0.501-0.129c0.211,0,0.385,0.045,0.512,0.133
		c0.073,0.05,0.138,0.125,0.2,0.224c0.099-0.122,0.215-0.211,0.351-0.27c0.133-0.059,0.285-0.088,0.452-0.088
		c0.358,0,0.603,0.11,0.731,0.329c0.07,0.119,0.104,0.277,0.104,0.478v1.506H31.32v-1.572c0-0.15-0.044-0.253-0.133-0.31
		s-0.197-0.085-0.324-0.085c-0.175,0-0.326,0.051-0.453,0.15c-0.129,0.101-0.19,0.267-0.19,0.5v1.315h-0.457v-1.477
		c0-0.153-0.02-0.265-0.064-0.336c-0.066-0.106-0.194-0.158-0.381-0.158c-0.169,0-0.322,0.055-0.462,0.167
		c-0.139,0.112-0.207,0.313-0.207,0.604v1.2h-0.447V16.614L28.201,16.614z"/>
	<path fill="none" stroke="#707070" stroke-width="0.25" stroke-miterlimit="10" d="M34.091,16.676
		c0.177,0.075,0.311,0.173,0.403,0.293c0.089,0.113,0.147,0.248,0.178,0.399c0.025,0.104,0.039,0.271,0.039,0.499h-1.938
		c0.009,0.229,0.073,0.415,0.19,0.555c0.12,0.139,0.302,0.208,0.552,0.208c0.231,0,0.417-0.065,0.554-0.197
		c0.078-0.076,0.132-0.165,0.166-0.265h0.439c-0.011,0.083-0.051,0.176-0.115,0.277c-0.065,0.103-0.139,0.186-0.22,0.25
		c-0.135,0.113-0.302,0.188-0.501,0.228c-0.107,0.022-0.229,0.034-0.361,0.034c-0.331,0-0.61-0.102-0.839-0.307
		c-0.227-0.205-0.343-0.492-0.343-0.861c0-0.364,0.114-0.659,0.347-0.885c0.23-0.228,0.532-0.34,0.905-0.34
		C33.732,16.563,33.914,16.601,34.091,16.676z M34.252,17.564c-0.018-0.165-0.059-0.296-0.126-0.395
		c-0.123-0.183-0.326-0.275-0.61-0.275c-0.203,0-0.374,0.063-0.513,0.189c-0.139,0.126-0.211,0.287-0.22,0.48H34.252z"/>
	<path fill="none" stroke="#707070" stroke-width="0.25" stroke-miterlimit="10" d="M35.368,15.983h0.452v0.631h0.426v0.311H35.82
		v1.477c0,0.079,0.031,0.131,0.095,0.158c0.035,0.016,0.092,0.023,0.172,0.023c0.021,0,0.047,0,0.07-0.001
		c0.023-0.001,0.055-0.003,0.089-0.007v0.301c-0.054,0.013-0.105,0.021-0.163,0.028c-0.057,0.006-0.115,0.008-0.18,0.008
		c-0.208,0-0.352-0.045-0.425-0.136c-0.074-0.09-0.11-0.208-0.11-0.354v-1.497h-0.36v-0.311h0.36V15.983z"/>
	<path fill="none" stroke="#707070" stroke-width="0.25" stroke-miterlimit="10" d="M36.788,19.319
		c0.114-0.016,0.194-0.085,0.241-0.206c0.023-0.063,0.038-0.125,0.038-0.185c0-0.009-0.002-0.019-0.002-0.026
		c-0.002-0.008-0.003-0.017-0.007-0.027h-0.271v-0.46h0.533v0.427c0,0.167-0.04,0.315-0.121,0.441
		c-0.08,0.126-0.215,0.205-0.412,0.235L36.788,19.319L36.788,19.319z"/>
</g>
<g enable-background="new    ">
	<path fill="#707070" d="M10.709,21.926c0.188,0.125,0.302,0.338,0.34,0.639h-0.436c-0.027-0.139-0.087-0.254-0.182-0.347
		c-0.095-0.093-0.246-0.138-0.456-0.138c-0.285,0-0.488,0.118-0.612,0.354c-0.08,0.153-0.119,0.343-0.119,0.568
		s0.056,0.416,0.168,0.572c0.113,0.155,0.29,0.232,0.532,0.232c0.186,0,0.333-0.047,0.442-0.145
		c0.108-0.096,0.184-0.227,0.225-0.394h0.436c-0.05,0.3-0.174,0.52-0.373,0.658c-0.2,0.139-0.454,0.208-0.764,0.208
		c-0.349,0-0.626-0.107-0.833-0.324c-0.208-0.217-0.312-0.486-0.312-0.811c0-0.396,0.113-0.706,0.34-0.927s0.516-0.332,0.868-0.332
		C10.276,21.74,10.521,21.803,10.709,21.926z"/>
	<path fill="#707070" d="M13.427,22.032c0.236,0.194,0.353,0.48,0.353,0.858c0,0.364-0.104,0.665-0.312,0.902
		c-0.208,0.238-0.53,0.357-0.966,0.357c-0.364,0-0.653-0.105-0.867-0.314c-0.214-0.21-0.321-0.493-0.321-0.848
		c0-0.379,0.113-0.683,0.338-0.908s0.528-0.338,0.909-0.338C12.903,21.74,13.191,21.838,13.427,22.032z M13.149,23.536
		c0.109-0.19,0.164-0.403,0.164-0.636c0-0.211-0.039-0.384-0.118-0.516c-0.125-0.208-0.34-0.312-0.645-0.312
		c-0.27,0-0.467,0.088-0.591,0.267c-0.123,0.177-0.185,0.391-0.185,0.641c0,0.241,0.062,0.44,0.185,0.601
		c0.124,0.161,0.319,0.241,0.585,0.241C12.839,23.821,13.04,23.726,13.149,23.536z"/>
	<path fill="#707070" d="M14.33,21.806h0.425v0.322c0.126-0.133,0.259-0.227,0.4-0.285c0.141-0.058,0.297-0.087,0.47-0.087
		c0.378,0,0.633,0.112,0.766,0.336c0.074,0.122,0.11,0.298,0.11,0.526v1.451h-0.455v-1.426c0-0.138-0.024-0.249-0.073-0.333
		c-0.079-0.141-0.223-0.211-0.433-0.211c-0.106,0-0.193,0.009-0.261,0.028c-0.122,0.031-0.23,0.093-0.323,0.186
		c-0.075,0.074-0.124,0.15-0.146,0.231c-0.022,0.08-0.034,0.193-0.034,0.341v1.185H14.33V21.806z"/>
	<path fill="#707070" d="M17.429,23.358c0.013,0.127,0.051,0.224,0.114,0.292c0.115,0.122,0.315,0.185,0.6,0.185
		c0.169,0,0.317-0.031,0.446-0.093c0.129-0.061,0.194-0.156,0.194-0.284c0-0.097-0.052-0.17-0.155-0.222
		c-0.065-0.03-0.195-0.066-0.389-0.106l-0.362-0.077c-0.231-0.047-0.401-0.101-0.511-0.159c-0.195-0.104-0.293-0.245-0.293-0.427
		c0-0.214,0.092-0.387,0.277-0.519c0.185-0.133,0.431-0.199,0.742-0.199c0.406,0,0.7,0.1,0.88,0.299
		c0.113,0.127,0.167,0.264,0.165,0.411h-0.423c-0.008-0.085-0.045-0.164-0.11-0.234c-0.106-0.099-0.288-0.149-0.547-0.149
		c-0.173,0-0.304,0.028-0.393,0.083c-0.09,0.055-0.134,0.126-0.134,0.217c0,0.098,0.059,0.176,0.175,0.235
		c0.068,0.035,0.167,0.066,0.299,0.094l0.302,0.061c0.329,0.066,0.547,0.13,0.659,0.192c0.174,0.097,0.261,0.25,0.261,0.459
		c0,0.201-0.091,0.375-0.273,0.521c-0.182,0.146-0.459,0.22-0.832,0.22c-0.402,0-0.686-0.076-0.853-0.229
		c-0.167-0.152-0.256-0.341-0.268-0.567h0.431V23.358z"/>
	<path fill="#707070" d="M21.355,21.869c0.176,0.074,0.312,0.173,0.404,0.293c0.089,0.112,0.148,0.248,0.178,0.398
		c0.027,0.104,0.039,0.27,0.039,0.499h-1.938c0.008,0.229,0.071,0.415,0.189,0.555c0.119,0.138,0.302,0.208,0.551,0.208
		c0.231,0,0.417-0.065,0.555-0.196c0.077-0.076,0.132-0.166,0.165-0.265h0.439c-0.011,0.084-0.05,0.176-0.115,0.278
		c-0.065,0.103-0.138,0.186-0.219,0.25c-0.135,0.113-0.301,0.189-0.501,0.227c-0.107,0.021-0.228,0.035-0.362,0.035
		c-0.33,0-0.609-0.102-0.839-0.309c-0.229-0.204-0.343-0.492-0.343-0.861c0-0.364,0.115-0.658,0.346-0.885
		c0.231-0.227,0.532-0.339,0.905-0.339C20.997,21.755,21.178,21.793,21.355,21.869z M21.516,22.756
		c-0.019-0.165-0.061-0.296-0.126-0.394c-0.122-0.183-0.325-0.274-0.609-0.274c-0.204,0-0.375,0.062-0.514,0.189
		c-0.139,0.125-0.211,0.286-0.22,0.479H21.516z"/>
	<path fill="#707070" d="M24.303,21.926c0.188,0.125,0.302,0.338,0.34,0.639h-0.437c-0.026-0.139-0.086-0.254-0.182-0.347
		c-0.095-0.093-0.245-0.138-0.454-0.138c-0.286,0-0.489,0.118-0.612,0.354c-0.081,0.153-0.119,0.343-0.119,0.568
		s0.055,0.416,0.168,0.572c0.113,0.155,0.29,0.232,0.532,0.232c0.186,0,0.333-0.047,0.442-0.145
		c0.109-0.096,0.184-0.227,0.225-0.394h0.435c-0.05,0.3-0.175,0.52-0.373,0.658c-0.199,0.139-0.453,0.208-0.763,0.208
		c-0.349,0-0.627-0.107-0.833-0.324c-0.208-0.217-0.312-0.486-0.312-0.811c0-0.396,0.113-0.706,0.341-0.927
		c0.227-0.221,0.516-0.332,0.868-0.332C23.87,21.74,24.114,21.803,24.303,21.926z"/>
	<path fill="#707070" d="M25.18,21.174h0.452v0.631h0.426v0.311h-0.426v1.476c0,0.08,0.032,0.132,0.096,0.158
		c0.034,0.017,0.092,0.024,0.173,0.024c0.021,0,0.045,0,0.069-0.002c0.024-0.001,0.055-0.003,0.088-0.007v0.301
		c-0.052,0.014-0.105,0.022-0.161,0.027c-0.055,0.006-0.116,0.009-0.18,0.009c-0.209,0-0.352-0.045-0.426-0.136
		c-0.074-0.09-0.111-0.207-0.111-0.353v-1.498h-0.36v-0.31h0.36V21.174z"/>
	<path fill="#707070" d="M28.15,21.869c0.177,0.074,0.313,0.173,0.404,0.293c0.088,0.112,0.147,0.248,0.178,0.398
		c0.026,0.104,0.038,0.27,0.038,0.499h-1.937c0.008,0.229,0.071,0.415,0.189,0.555c0.119,0.138,0.303,0.208,0.551,0.208
		c0.231,0,0.417-0.065,0.556-0.196c0.077-0.076,0.132-0.166,0.165-0.265h0.439c-0.012,0.084-0.05,0.176-0.116,0.278
		c-0.065,0.103-0.139,0.186-0.219,0.25c-0.135,0.113-0.303,0.189-0.502,0.227c-0.105,0.021-0.227,0.035-0.361,0.035
		c-0.329,0-0.61-0.102-0.837-0.309c-0.229-0.204-0.345-0.492-0.345-0.861c0-0.364,0.116-0.658,0.347-0.885
		c0.233-0.227,0.535-0.339,0.905-0.339C27.792,21.755,27.974,21.793,28.15,21.869z M28.312,22.756
		c-0.019-0.165-0.061-0.296-0.128-0.394c-0.121-0.183-0.324-0.274-0.609-0.274c-0.203,0-0.376,0.062-0.513,0.189
		c-0.138,0.125-0.212,0.286-0.22,0.479H28.312z"/>
	<path fill="#707070" d="M29.428,21.174h0.453v0.631h0.425v0.311h-0.425v1.476c0,0.08,0.032,0.132,0.094,0.158
		c0.035,0.017,0.092,0.024,0.174,0.024c0.021,0,0.045,0,0.071-0.002c0.022-0.001,0.053-0.003,0.086-0.007v0.301
		c-0.053,0.014-0.104,0.022-0.162,0.027c-0.055,0.006-0.115,0.009-0.179,0.009c-0.208,0-0.352-0.045-0.426-0.136
		c-0.074-0.09-0.112-0.207-0.112-0.353v-1.498h-0.36v-0.31h0.36L29.428,21.174L29.428,21.174z"/>
	<path fill="#707070" d="M31.201,21.806v1.501c0,0.116,0.021,0.211,0.062,0.284c0.078,0.134,0.222,0.203,0.435,0.203
		c0.304,0,0.508-0.118,0.618-0.355c0.058-0.126,0.091-0.3,0.091-0.521v-1.11h0.448v2.262h-0.424l0.005-0.333
		c-0.056,0.086-0.128,0.159-0.211,0.218c-0.168,0.12-0.371,0.178-0.611,0.178c-0.372,0-0.627-0.107-0.761-0.324
		c-0.073-0.115-0.109-0.269-0.109-0.461v-1.538h0.458L31.201,21.806L31.201,21.806z"/>
	<path fill="#707070" d="M33.599,21.806h0.425v0.391c0.035-0.076,0.121-0.168,0.256-0.278c0.136-0.109,0.293-0.164,0.47-0.164
		c0.009,0,0.021,0,0.043,0.001c0.018,0.002,0.055,0.004,0.102,0.009v0.402c-0.026-0.005-0.053-0.007-0.073-0.009
		c-0.022-0.001-0.049-0.001-0.073-0.001c-0.229,0-0.399,0.061-0.521,0.184c-0.122,0.124-0.181,0.265-0.181,0.426v1.301h-0.45v-2.262
		H33.599z"/>
	<path fill="#707070" d="M38.127,22.699c0.103-0.011,0.171-0.047,0.207-0.11c0.019-0.034,0.029-0.082,0.029-0.146
		c0-0.13-0.056-0.224-0.165-0.282c-0.108-0.059-0.263-0.088-0.464-0.088c-0.234,0-0.398,0.054-0.497,0.161
		c-0.056,0.06-0.09,0.149-0.105,0.265h-0.42c0.009-0.279,0.114-0.473,0.317-0.583c0.204-0.11,0.441-0.164,0.714-0.164
		c0.313,0,0.567,0.05,0.761,0.15c0.195,0.103,0.291,0.26,0.291,0.475v1.303c0,0.039,0.01,0.071,0.028,0.096
		c0.018,0.023,0.06,0.035,0.12,0.035c0.021,0,0.044,0,0.067-0.002c0.025-0.002,0.053-0.005,0.08-0.009v0.28
		c-0.069,0.017-0.123,0.026-0.159,0.033c-0.036,0.003-0.087,0.005-0.149,0.005c-0.154,0-0.267-0.045-0.336-0.139
		c-0.036-0.049-0.062-0.12-0.077-0.209c-0.091,0.102-0.223,0.19-0.393,0.264c-0.171,0.075-0.358,0.113-0.564,0.113
		c-0.248,0-0.448-0.064-0.606-0.192c-0.156-0.126-0.236-0.286-0.236-0.478c0-0.209,0.078-0.372,0.233-0.487
		c0.153-0.115,0.354-0.187,0.605-0.213L38.127,22.699z M37.184,23.726c0.095,0.062,0.206,0.095,0.336,0.095
		c0.157,0,0.31-0.031,0.457-0.092c0.25-0.103,0.374-0.271,0.374-0.503v-0.307c-0.054,0.03-0.125,0.055-0.211,0.074
		c-0.087,0.02-0.169,0.034-0.251,0.042l-0.272,0.029c-0.162,0.019-0.283,0.047-0.367,0.086c-0.136,0.067-0.205,0.172-0.205,0.316
		C37.042,23.577,37.09,23.664,37.184,23.726z"/>
</g>
<g enable-background="new    ">
	<path fill="none" stroke="#707070" stroke-width="0.25" stroke-miterlimit="10" d="M10.709,21.926
		c0.188,0.125,0.302,0.338,0.34,0.639h-0.436c-0.027-0.139-0.087-0.254-0.182-0.347c-0.095-0.093-0.246-0.138-0.456-0.138
		c-0.285,0-0.488,0.118-0.612,0.354c-0.08,0.153-0.119,0.343-0.119,0.568s0.056,0.416,0.168,0.572
		c0.113,0.155,0.29,0.232,0.532,0.232c0.186,0,0.333-0.047,0.442-0.145c0.108-0.096,0.184-0.227,0.225-0.394h0.436
		c-0.05,0.3-0.174,0.52-0.373,0.658c-0.2,0.139-0.454,0.208-0.764,0.208c-0.349,0-0.626-0.107-0.833-0.324
		c-0.208-0.217-0.312-0.486-0.312-0.811c0-0.396,0.113-0.706,0.34-0.927s0.516-0.332,0.868-0.332
		C10.276,21.74,10.521,21.803,10.709,21.926z"/>
	<path fill="none" stroke="#707070" stroke-width="0.25" stroke-miterlimit="10" d="M13.427,22.032
		c0.236,0.194,0.353,0.48,0.353,0.858c0,0.364-0.104,0.665-0.312,0.902c-0.208,0.238-0.53,0.357-0.966,0.357
		c-0.364,0-0.653-0.105-0.867-0.314c-0.214-0.21-0.321-0.493-0.321-0.848c0-0.379,0.113-0.683,0.338-0.908s0.528-0.338,0.909-0.338
		C12.903,21.74,13.191,21.838,13.427,22.032z M13.149,23.536c0.109-0.19,0.164-0.403,0.164-0.636c0-0.211-0.039-0.384-0.118-0.516
		c-0.125-0.208-0.34-0.312-0.645-0.312c-0.27,0-0.467,0.088-0.591,0.267c-0.123,0.177-0.185,0.391-0.185,0.641
		c0,0.241,0.062,0.44,0.185,0.601c0.124,0.161,0.319,0.241,0.585,0.241C12.839,23.821,13.04,23.726,13.149,23.536z"/>
	<path fill="none" stroke="#707070" stroke-width="0.25" stroke-miterlimit="10" d="M14.33,21.806h0.425v0.322
		c0.126-0.133,0.259-0.227,0.4-0.285c0.141-0.058,0.297-0.087,0.47-0.087c0.378,0,0.633,0.112,0.766,0.336
		c0.074,0.122,0.11,0.298,0.11,0.526v1.451h-0.455v-1.426c0-0.138-0.024-0.249-0.073-0.333c-0.079-0.141-0.223-0.211-0.433-0.211
		c-0.106,0-0.193,0.009-0.261,0.028c-0.122,0.031-0.23,0.093-0.323,0.186c-0.075,0.074-0.124,0.15-0.146,0.231
		c-0.022,0.08-0.034,0.193-0.034,0.341v1.185H14.33V21.806z"/>
	<path fill="none" stroke="#707070" stroke-width="0.25" stroke-miterlimit="10" d="M17.429,23.358
		c0.013,0.127,0.051,0.224,0.114,0.292c0.115,0.122,0.315,0.185,0.6,0.185c0.169,0,0.317-0.031,0.446-0.093
		c0.129-0.061,0.194-0.156,0.194-0.284c0-0.097-0.052-0.17-0.155-0.222c-0.065-0.03-0.195-0.066-0.389-0.106l-0.362-0.077
		c-0.231-0.047-0.401-0.101-0.511-0.159c-0.195-0.104-0.293-0.245-0.293-0.427c0-0.214,0.092-0.387,0.277-0.519
		c0.185-0.133,0.431-0.199,0.742-0.199c0.406,0,0.7,0.1,0.88,0.299c0.113,0.127,0.167,0.264,0.165,0.411h-0.423
		c-0.008-0.085-0.045-0.164-0.11-0.234c-0.106-0.099-0.288-0.149-0.547-0.149c-0.173,0-0.304,0.028-0.393,0.083
		c-0.09,0.055-0.134,0.126-0.134,0.217c0,0.098,0.059,0.176,0.175,0.235c0.068,0.035,0.167,0.066,0.299,0.094l0.302,0.061
		c0.329,0.066,0.547,0.13,0.659,0.192c0.174,0.097,0.261,0.25,0.261,0.459c0,0.201-0.091,0.375-0.273,0.521
		c-0.182,0.146-0.459,0.22-0.832,0.22c-0.402,0-0.686-0.076-0.853-0.229c-0.167-0.152-0.256-0.341-0.268-0.567h0.431V23.358z"/>
	<path fill="none" stroke="#707070" stroke-width="0.25" stroke-miterlimit="10" d="M21.355,21.869
		c0.176,0.074,0.312,0.173,0.404,0.293c0.089,0.112,0.148,0.248,0.178,0.398c0.027,0.104,0.039,0.27,0.039,0.499h-1.938
		c0.008,0.229,0.071,0.415,0.189,0.555c0.119,0.138,0.302,0.208,0.551,0.208c0.231,0,0.417-0.065,0.555-0.196
		c0.077-0.076,0.132-0.166,0.165-0.265h0.439c-0.011,0.084-0.05,0.176-0.115,0.278c-0.065,0.103-0.138,0.186-0.219,0.25
		c-0.135,0.113-0.301,0.189-0.501,0.227c-0.107,0.021-0.228,0.035-0.362,0.035c-0.33,0-0.609-0.102-0.839-0.309
		c-0.229-0.204-0.343-0.492-0.343-0.861c0-0.364,0.115-0.658,0.346-0.885c0.231-0.227,0.532-0.339,0.905-0.339
		C20.997,21.755,21.178,21.793,21.355,21.869z M21.516,22.756c-0.019-0.165-0.061-0.296-0.126-0.394
		c-0.122-0.183-0.325-0.274-0.609-0.274c-0.204,0-0.375,0.062-0.514,0.189c-0.139,0.125-0.211,0.286-0.22,0.479H21.516z"/>
	<path fill="none" stroke="#707070" stroke-width="0.25" stroke-miterlimit="10" d="M24.303,21.926
		c0.188,0.125,0.302,0.338,0.34,0.639h-0.437c-0.026-0.139-0.086-0.254-0.182-0.347c-0.095-0.093-0.245-0.138-0.454-0.138
		c-0.286,0-0.489,0.118-0.612,0.354c-0.081,0.153-0.119,0.343-0.119,0.568s0.055,0.416,0.168,0.572
		c0.113,0.155,0.29,0.232,0.532,0.232c0.186,0,0.333-0.047,0.442-0.145c0.109-0.096,0.184-0.227,0.225-0.394h0.435
		c-0.05,0.3-0.175,0.52-0.373,0.658c-0.199,0.139-0.453,0.208-0.763,0.208c-0.349,0-0.627-0.107-0.833-0.324
		c-0.208-0.217-0.312-0.486-0.312-0.811c0-0.396,0.113-0.706,0.341-0.927c0.227-0.221,0.516-0.332,0.868-0.332
		C23.87,21.74,24.114,21.803,24.303,21.926z"/>
	<path fill="none" stroke="#707070" stroke-width="0.25" stroke-miterlimit="10" d="M25.18,21.174h0.452v0.631h0.426v0.311h-0.426
		v1.476c0,0.08,0.032,0.132,0.096,0.158c0.034,0.017,0.092,0.024,0.173,0.024c0.021,0,0.045,0,0.069-0.002
		c0.024-0.001,0.055-0.003,0.088-0.007v0.301c-0.052,0.014-0.105,0.022-0.161,0.027c-0.055,0.006-0.116,0.009-0.18,0.009
		c-0.209,0-0.352-0.045-0.426-0.136c-0.074-0.09-0.111-0.207-0.111-0.353v-1.498h-0.36v-0.31h0.36V21.174z"/>
	<path fill="none" stroke="#707070" stroke-width="0.25" stroke-miterlimit="10" d="M28.15,21.869
		c0.177,0.074,0.313,0.173,0.404,0.293c0.088,0.112,0.147,0.248,0.178,0.398c0.026,0.104,0.038,0.27,0.038,0.499h-1.937
		c0.008,0.229,0.071,0.415,0.189,0.555c0.119,0.138,0.303,0.208,0.551,0.208c0.231,0,0.417-0.065,0.556-0.196
		c0.077-0.076,0.132-0.166,0.165-0.265h0.439c-0.012,0.084-0.05,0.176-0.116,0.278c-0.065,0.103-0.139,0.186-0.219,0.25
		c-0.135,0.113-0.303,0.189-0.502,0.227c-0.105,0.021-0.227,0.035-0.361,0.035c-0.329,0-0.61-0.102-0.837-0.309
		c-0.229-0.204-0.345-0.492-0.345-0.861c0-0.364,0.116-0.658,0.347-0.885c0.233-0.227,0.535-0.339,0.905-0.339
		C27.792,21.755,27.974,21.793,28.15,21.869z M28.312,22.756c-0.019-0.165-0.061-0.296-0.128-0.394
		c-0.121-0.183-0.324-0.274-0.609-0.274c-0.203,0-0.376,0.062-0.513,0.189c-0.138,0.125-0.212,0.286-0.22,0.479H28.312z"/>
	<path fill="none" stroke="#707070" stroke-width="0.25" stroke-miterlimit="10" d="M29.428,21.174h0.453v0.631h0.425v0.311h-0.425
		v1.476c0,0.08,0.032,0.132,0.094,0.158c0.035,0.017,0.092,0.024,0.174,0.024c0.021,0,0.045,0,0.071-0.002
		c0.022-0.001,0.053-0.003,0.086-0.007v0.301c-0.053,0.014-0.104,0.022-0.162,0.027c-0.055,0.006-0.115,0.009-0.179,0.009
		c-0.208,0-0.352-0.045-0.426-0.136c-0.074-0.09-0.112-0.207-0.112-0.353v-1.498h-0.36v-0.31h0.36L29.428,21.174L29.428,21.174z"/>
	<path fill="none" stroke="#707070" stroke-width="0.25" stroke-miterlimit="10" d="M31.201,21.806v1.501
		c0,0.116,0.021,0.211,0.062,0.284c0.078,0.134,0.222,0.203,0.435,0.203c0.304,0,0.508-0.118,0.618-0.355
		c0.058-0.126,0.091-0.3,0.091-0.521v-1.11h0.448v2.262h-0.424l0.005-0.333c-0.056,0.086-0.128,0.159-0.211,0.218
		c-0.168,0.12-0.371,0.178-0.611,0.178c-0.372,0-0.627-0.107-0.761-0.324c-0.073-0.115-0.109-0.269-0.109-0.461v-1.538h0.458
		L31.201,21.806L31.201,21.806z"/>
	<path fill="none" stroke="#707070" stroke-width="0.25" stroke-miterlimit="10" d="M33.599,21.806h0.425v0.391
		c0.035-0.076,0.121-0.168,0.256-0.278c0.136-0.109,0.293-0.164,0.47-0.164c0.009,0,0.021,0,0.043,0.001
		c0.018,0.002,0.055,0.004,0.102,0.009v0.402c-0.026-0.005-0.053-0.007-0.073-0.009c-0.022-0.001-0.049-0.001-0.073-0.001
		c-0.229,0-0.399,0.061-0.521,0.184c-0.122,0.124-0.181,0.265-0.181,0.426v1.301h-0.45v-2.262H33.599z"/>
	<path fill="none" stroke="#707070" stroke-width="0.25" stroke-miterlimit="10" d="M38.127,22.699
		c0.103-0.011,0.171-0.047,0.207-0.11c0.019-0.034,0.029-0.082,0.029-0.146c0-0.13-0.056-0.224-0.165-0.282
		c-0.108-0.059-0.263-0.088-0.464-0.088c-0.234,0-0.398,0.054-0.497,0.161c-0.056,0.06-0.09,0.149-0.105,0.265h-0.42
		c0.009-0.279,0.114-0.473,0.317-0.583c0.204-0.11,0.441-0.164,0.714-0.164c0.313,0,0.567,0.05,0.761,0.15
		c0.195,0.103,0.291,0.26,0.291,0.475v1.303c0,0.039,0.01,0.071,0.028,0.096c0.018,0.023,0.06,0.035,0.12,0.035
		c0.021,0,0.044,0,0.067-0.002c0.025-0.002,0.053-0.005,0.08-0.009v0.28c-0.069,0.017-0.123,0.026-0.159,0.033
		c-0.036,0.003-0.087,0.005-0.149,0.005c-0.154,0-0.267-0.045-0.336-0.139c-0.036-0.049-0.062-0.12-0.077-0.209
		c-0.091,0.102-0.223,0.19-0.393,0.264c-0.171,0.075-0.358,0.113-0.564,0.113c-0.248,0-0.448-0.064-0.606-0.192
		c-0.156-0.126-0.236-0.286-0.236-0.478c0-0.209,0.078-0.372,0.233-0.487c0.153-0.115,0.354-0.187,0.605-0.213L38.127,22.699z
		 M37.184,23.726c0.095,0.062,0.206,0.095,0.336,0.095c0.157,0,0.31-0.031,0.457-0.092c0.25-0.103,0.374-0.271,0.374-0.503v-0.307
		c-0.054,0.03-0.125,0.055-0.211,0.074c-0.087,0.02-0.169,0.034-0.251,0.042l-0.272,0.029c-0.162,0.019-0.283,0.047-0.367,0.086
		c-0.136,0.067-0.205,0.172-0.205,0.316C37.042,23.577,37.09,23.664,37.184,23.726z"/>
</g>
<g enable-background="new    ">
	<path fill="#707070" d="M8.95,26.155h0.455v0.43H8.95V26.155z M8.95,27.006h0.455v2.252H8.95V27.006z"/>
	<path fill="#707070" d="M10.044,27.006h0.438v0.301c0.089-0.104,0.188-0.184,0.294-0.24c0.152-0.085,0.329-0.128,0.534-0.128
		c0.303,0,0.56,0.097,0.771,0.295c0.211,0.196,0.317,0.478,0.317,0.841c0,0.494-0.153,0.844-0.457,1.056
		c-0.193,0.133-0.417,0.2-0.674,0.2c-0.202,0-0.37-0.038-0.506-0.112c-0.08-0.041-0.169-0.114-0.267-0.217v1.157h-0.45V27.006z
		 M11.729,28.779c0.139-0.148,0.208-0.37,0.208-0.667c0-0.18-0.031-0.334-0.092-0.464c-0.116-0.25-0.329-0.374-0.638-0.374
		c-0.312,0-0.525,0.132-0.639,0.395c-0.061,0.141-0.092,0.32-0.092,0.535c0,0.175,0.031,0.322,0.092,0.445
		c0.116,0.235,0.329,0.352,0.639,0.352C11.416,29.001,11.589,28.927,11.729,28.779z"/>
	<path fill="#707070" d="M12.915,26.155h0.455v0.43h-0.455V26.155z M12.915,27.006h0.455v2.252h-0.455V27.006z"/>
	<path fill="#707070" d="M14.312,28.548c0.013,0.129,0.052,0.225,0.113,0.292c0.115,0.122,0.315,0.184,0.6,0.184
		c0.17,0,0.318-0.031,0.446-0.092c0.128-0.062,0.193-0.155,0.193-0.283c0-0.098-0.052-0.17-0.154-0.223
		c-0.065-0.029-0.195-0.065-0.389-0.107l-0.362-0.076c-0.23-0.047-0.401-0.101-0.511-0.16c-0.195-0.103-0.294-0.245-0.294-0.427
		c0-0.213,0.092-0.388,0.277-0.519c0.185-0.133,0.432-0.199,0.743-0.199c0.406,0,0.7,0.1,0.88,0.3
		c0.112,0.127,0.167,0.263,0.164,0.41h-0.422c-0.008-0.086-0.045-0.164-0.11-0.234c-0.105-0.099-0.287-0.149-0.547-0.149
		c-0.173,0-0.305,0.027-0.394,0.083c-0.088,0.056-0.134,0.128-0.134,0.217c0,0.097,0.059,0.177,0.176,0.235
		c0.067,0.036,0.167,0.067,0.299,0.092l0.302,0.062c0.328,0.066,0.547,0.13,0.659,0.192c0.173,0.096,0.261,0.249,0.261,0.459
		c0,0.203-0.092,0.376-0.273,0.521c-0.182,0.147-0.459,0.22-0.832,0.22c-0.402,0-0.686-0.076-0.853-0.229
		c-0.167-0.154-0.256-0.343-0.268-0.569H14.312z"/>
	<path fill="#707070" d="M18.353,27.116c0.188,0.123,0.302,0.336,0.34,0.64h-0.436c-0.026-0.14-0.087-0.255-0.182-0.349
		c-0.095-0.093-0.246-0.137-0.455-0.137c-0.286,0-0.489,0.118-0.612,0.354c-0.081,0.154-0.119,0.343-0.119,0.568
		s0.056,0.417,0.168,0.571c0.112,0.154,0.29,0.232,0.532,0.232c0.185,0,0.333-0.049,0.441-0.144
		c0.108-0.096,0.184-0.229,0.225-0.394h0.436c-0.05,0.3-0.174,0.52-0.372,0.658c-0.2,0.137-0.454,0.206-0.764,0.206
		c-0.349,0-0.626-0.107-0.833-0.323c-0.208-0.215-0.312-0.487-0.312-0.812c0-0.395,0.114-0.705,0.341-0.927
		c0.227-0.222,0.516-0.332,0.868-0.332C17.92,26.93,18.165,26.992,18.353,27.116z"/>
	<path fill="#707070" d="M19.14,26.155h0.455v0.43H19.14V26.155z M19.14,27.006h0.455v2.252H19.14V27.006z"/>
	<path fill="#707070" d="M20.272,26.995h0.425v0.321c0.126-0.133,0.259-0.228,0.401-0.285c0.142-0.056,0.297-0.086,0.47-0.086
		c0.378,0,0.633,0.111,0.767,0.336c0.073,0.123,0.11,0.298,0.11,0.524v1.452h-0.455v-1.424c0-0.137-0.024-0.248-0.073-0.335
		c-0.079-0.14-0.224-0.209-0.433-0.209c-0.107,0-0.194,0.01-0.261,0.025c-0.123,0.031-0.231,0.092-0.324,0.187
		c-0.074,0.075-0.123,0.151-0.146,0.233c-0.022,0.079-0.034,0.193-0.034,0.341v1.185h-0.448V26.995z"/>
	<path fill="#707070" d="M24.586,27.086c0.084,0.05,0.17,0.121,0.258,0.216v-0.286h0.413v2.059c0,0.287-0.05,0.513-0.148,0.68
		c-0.185,0.308-0.535,0.46-1.049,0.46c-0.285,0-0.525-0.054-0.721-0.163c-0.195-0.108-0.304-0.28-0.328-0.513h0.456
		c0.021,0.103,0.064,0.181,0.128,0.236c0.101,0.084,0.259,0.128,0.476,0.128c0.34,0,0.563-0.104,0.67-0.311
		c0.062-0.121,0.092-0.338,0.086-0.647c-0.088,0.117-0.195,0.202-0.322,0.258c-0.125,0.056-0.289,0.087-0.497,0.087
		c-0.288,0-0.539-0.089-0.754-0.262s-0.324-0.463-0.324-0.864c0-0.38,0.109-0.676,0.326-0.888c0.217-0.213,0.48-0.316,0.787-0.316
		C24.25,26.955,24.432,26.999,24.586,27.086z M24.641,27.494c-0.135-0.135-0.307-0.203-0.516-0.203
		c-0.314,0-0.528,0.125-0.644,0.376c-0.061,0.132-0.092,0.309-0.092,0.526c0,0.254,0.061,0.448,0.182,0.581
		c0.121,0.132,0.284,0.2,0.489,0.2c0.32,0,0.545-0.124,0.675-0.37c0.072-0.139,0.109-0.302,0.109-0.488
		C24.844,27.837,24.775,27.629,24.641,27.494z"/>
	<path fill="#707070" d="M29,27.058c0.176,0.075,0.31,0.173,0.401,0.293c0.09,0.114,0.149,0.247,0.179,0.399
		c0.026,0.103,0.04,0.27,0.04,0.498h-1.938c0.009,0.23,0.072,0.415,0.19,0.554s0.301,0.208,0.551,0.208
		c0.231,0,0.417-0.064,0.555-0.197c0.077-0.076,0.131-0.166,0.164-0.265h0.44c-0.013,0.083-0.051,0.175-0.115,0.276
		c-0.065,0.101-0.139,0.186-0.22,0.248c-0.135,0.112-0.301,0.19-0.5,0.23c-0.107,0.021-0.229,0.031-0.364,0.031
		c-0.329,0-0.608-0.101-0.836-0.307c-0.229-0.203-0.346-0.492-0.346-0.861c0-0.363,0.118-0.658,0.349-0.885
		c0.232-0.228,0.533-0.34,0.906-0.34C28.641,26.945,28.823,26.983,29,27.058z M29.159,27.946c-0.02-0.165-0.06-0.296-0.128-0.395
		c-0.122-0.185-0.322-0.276-0.61-0.276c-0.202,0-0.374,0.064-0.511,0.19c-0.139,0.125-0.212,0.286-0.22,0.48H29.159z"/>
	<path fill="#707070" d="M30.198,26.155h0.449v3.103h-0.449V26.155z"/>
	<path fill="#707070" d="M31.318,26.155h0.455v0.43h-0.455V26.155z M31.318,27.006h0.455v2.252h-0.455V27.006z"/>
	<path fill="#707070" d="M32.54,26.364h0.453v0.631h0.425v0.312h-0.425v1.478c0,0.077,0.031,0.13,0.093,0.157
		c0.036,0.018,0.094,0.022,0.176,0.022c0.019,0,0.045-0.002,0.069-0.002c0.022-0.001,0.054-0.003,0.086-0.007v0.302
		c-0.05,0.014-0.104,0.021-0.159,0.027c-0.057,0.006-0.116,0.009-0.182,0.009c-0.208,0-0.352-0.045-0.426-0.135
		c-0.074-0.092-0.111-0.208-0.111-0.352V27.31h-0.36v-0.311h0.36L32.54,26.364L32.54,26.364z"/>
	<path fill="#707070" d="M33.973,28.797h0.52v0.461h-0.52V28.797z"/>
</g>
<g enable-background="new    ">
	<path fill="none" stroke="#707070" stroke-width="0.25" stroke-miterlimit="10" d="M8.95,26.155h0.455v0.43H8.95V26.155z
		 M8.95,27.006h0.455v2.252H8.95V27.006z"/>
	<path fill="none" stroke="#707070" stroke-width="0.25" stroke-miterlimit="10" d="M10.044,27.006h0.438v0.301
		c0.089-0.104,0.188-0.184,0.294-0.24c0.152-0.085,0.329-0.128,0.534-0.128c0.303,0,0.56,0.097,0.771,0.295
		c0.211,0.196,0.317,0.478,0.317,0.841c0,0.494-0.153,0.844-0.457,1.056c-0.193,0.133-0.417,0.2-0.674,0.2
		c-0.202,0-0.37-0.038-0.506-0.112c-0.08-0.041-0.169-0.114-0.267-0.217v1.157h-0.45V27.006z M11.729,28.779
		c0.139-0.148,0.208-0.37,0.208-0.667c0-0.18-0.031-0.334-0.092-0.464c-0.116-0.25-0.329-0.374-0.638-0.374
		c-0.312,0-0.525,0.132-0.639,0.395c-0.061,0.141-0.092,0.32-0.092,0.535c0,0.175,0.031,0.322,0.092,0.445
		c0.116,0.235,0.329,0.352,0.639,0.352C11.416,29.001,11.589,28.927,11.729,28.779z"/>
	<path fill="none" stroke="#707070" stroke-width="0.25" stroke-miterlimit="10" d="M12.915,26.155h0.455v0.43h-0.455V26.155z
		 M12.915,27.006h0.455v2.252h-0.455V27.006z"/>
	<path fill="none" stroke="#707070" stroke-width="0.25" stroke-miterlimit="10" d="M14.312,28.548
		c0.013,0.129,0.052,0.225,0.113,0.292c0.115,0.122,0.315,0.184,0.6,0.184c0.17,0,0.318-0.031,0.446-0.092
		c0.128-0.062,0.193-0.155,0.193-0.283c0-0.098-0.052-0.17-0.154-0.223c-0.065-0.029-0.195-0.065-0.389-0.107l-0.362-0.076
		c-0.23-0.047-0.401-0.101-0.511-0.16c-0.195-0.103-0.294-0.245-0.294-0.427c0-0.213,0.092-0.388,0.277-0.519
		c0.185-0.133,0.432-0.199,0.743-0.199c0.406,0,0.7,0.1,0.88,0.3c0.112,0.127,0.167,0.263,0.164,0.41h-0.422
		c-0.008-0.086-0.045-0.164-0.11-0.234c-0.105-0.099-0.287-0.149-0.547-0.149c-0.173,0-0.305,0.027-0.394,0.083
		c-0.088,0.056-0.134,0.128-0.134,0.217c0,0.097,0.059,0.177,0.176,0.235c0.067,0.036,0.167,0.067,0.299,0.092l0.302,0.062
		c0.328,0.066,0.547,0.13,0.659,0.192c0.173,0.096,0.261,0.249,0.261,0.459c0,0.203-0.092,0.376-0.273,0.521
		c-0.182,0.147-0.459,0.22-0.832,0.22c-0.402,0-0.686-0.076-0.853-0.229c-0.167-0.154-0.256-0.343-0.268-0.569H14.312z"/>
	<path fill="none" stroke="#707070" stroke-width="0.25" stroke-miterlimit="10" d="M18.353,27.116
		c0.188,0.123,0.302,0.336,0.34,0.64h-0.436c-0.026-0.14-0.087-0.255-0.182-0.349c-0.095-0.093-0.246-0.137-0.455-0.137
		c-0.286,0-0.489,0.118-0.612,0.354c-0.081,0.154-0.119,0.343-0.119,0.568s0.056,0.417,0.168,0.571
		c0.112,0.154,0.29,0.232,0.532,0.232c0.185,0,0.333-0.049,0.441-0.144c0.108-0.096,0.184-0.229,0.225-0.394h0.436
		c-0.05,0.3-0.174,0.52-0.372,0.658c-0.2,0.137-0.454,0.206-0.764,0.206c-0.349,0-0.626-0.107-0.833-0.323
		c-0.208-0.215-0.312-0.487-0.312-0.812c0-0.395,0.114-0.705,0.341-0.927c0.227-0.222,0.516-0.332,0.868-0.332
		C17.92,26.93,18.165,26.992,18.353,27.116z"/>
	<path fill="none" stroke="#707070" stroke-width="0.25" stroke-miterlimit="10" d="M19.14,26.155h0.455v0.43H19.14V26.155z
		 M19.14,27.006h0.455v2.252H19.14V27.006z"/>
	<path fill="none" stroke="#707070" stroke-width="0.25" stroke-miterlimit="10" d="M20.272,26.995h0.425v0.321
		c0.126-0.133,0.259-0.228,0.401-0.285c0.142-0.056,0.297-0.086,0.47-0.086c0.378,0,0.633,0.111,0.767,0.336
		c0.073,0.123,0.11,0.298,0.11,0.524v1.452h-0.455v-1.424c0-0.137-0.024-0.248-0.073-0.335c-0.079-0.14-0.224-0.209-0.433-0.209
		c-0.107,0-0.194,0.01-0.261,0.025c-0.123,0.031-0.231,0.092-0.324,0.187c-0.074,0.075-0.123,0.151-0.146,0.233
		c-0.022,0.079-0.034,0.193-0.034,0.341v1.185h-0.448V26.995z"/>
	<path fill="none" stroke="#707070" stroke-width="0.25" stroke-miterlimit="10" d="M24.586,27.086
		c0.084,0.05,0.17,0.121,0.258,0.216v-0.286h0.413v2.059c0,0.287-0.05,0.513-0.148,0.68c-0.185,0.308-0.535,0.46-1.049,0.46
		c-0.285,0-0.525-0.054-0.721-0.163c-0.195-0.108-0.304-0.28-0.328-0.513h0.456c0.021,0.103,0.064,0.181,0.128,0.236
		c0.101,0.084,0.259,0.128,0.476,0.128c0.34,0,0.563-0.104,0.67-0.311c0.062-0.121,0.092-0.338,0.086-0.647
		c-0.088,0.117-0.195,0.202-0.322,0.258c-0.125,0.056-0.289,0.087-0.497,0.087c-0.288,0-0.539-0.089-0.754-0.262
		s-0.324-0.463-0.324-0.864c0-0.38,0.109-0.676,0.326-0.888c0.217-0.213,0.48-0.316,0.787-0.316
		C24.25,26.955,24.432,26.999,24.586,27.086z M24.641,27.494c-0.135-0.135-0.307-0.203-0.516-0.203
		c-0.314,0-0.528,0.125-0.644,0.376c-0.061,0.132-0.092,0.309-0.092,0.526c0,0.254,0.061,0.448,0.182,0.581
		c0.121,0.132,0.284,0.2,0.489,0.2c0.32,0,0.545-0.124,0.675-0.37c0.072-0.139,0.109-0.302,0.109-0.488
		C24.844,27.837,24.775,27.629,24.641,27.494z"/>
	<path fill="none" stroke="#707070" stroke-width="0.25" stroke-miterlimit="10" d="M29,27.058c0.176,0.075,0.31,0.173,0.401,0.293
		c0.09,0.114,0.149,0.247,0.179,0.399c0.026,0.103,0.04,0.27,0.04,0.498h-1.938c0.009,0.23,0.072,0.415,0.19,0.554
		s0.301,0.208,0.551,0.208c0.231,0,0.417-0.064,0.555-0.197c0.077-0.076,0.131-0.166,0.164-0.265h0.44
		c-0.013,0.083-0.051,0.175-0.115,0.276c-0.065,0.101-0.139,0.186-0.22,0.248c-0.135,0.112-0.301,0.19-0.5,0.23
		c-0.107,0.021-0.229,0.031-0.364,0.031c-0.329,0-0.608-0.101-0.836-0.307c-0.229-0.203-0.346-0.492-0.346-0.861
		c0-0.363,0.118-0.658,0.349-0.885c0.232-0.228,0.533-0.34,0.906-0.34C28.641,26.945,28.823,26.983,29,27.058z M29.159,27.946
		c-0.02-0.165-0.06-0.296-0.128-0.395c-0.122-0.185-0.322-0.276-0.61-0.276c-0.202,0-0.374,0.064-0.511,0.19
		c-0.139,0.125-0.212,0.286-0.22,0.48H29.159z"/>
	<path fill="none" stroke="#707070" stroke-width="0.25" stroke-miterlimit="10" d="M30.198,26.155h0.449v3.103h-0.449V26.155z"/>
	<path fill="none" stroke="#707070" stroke-width="0.25" stroke-miterlimit="10" d="M31.318,26.155h0.455v0.43h-0.455V26.155z
		 M31.318,27.006h0.455v2.252h-0.455V27.006z"/>
	<path fill="none" stroke="#707070" stroke-width="0.25" stroke-miterlimit="10" d="M32.54,26.364h0.453v0.631h0.425v0.312h-0.425
		v1.478c0,0.077,0.031,0.13,0.093,0.157c0.036,0.018,0.094,0.022,0.176,0.022c0.019,0,0.045-0.002,0.069-0.002
		c0.022-0.001,0.054-0.003,0.086-0.007v0.302c-0.05,0.014-0.104,0.021-0.159,0.027c-0.057,0.006-0.116,0.009-0.182,0.009
		c-0.208,0-0.352-0.045-0.426-0.135c-0.074-0.092-0.111-0.208-0.111-0.352V27.31h-0.36v-0.311h0.36L32.54,26.364L32.54,26.364z"/>
	<path fill="none" stroke="#707070" stroke-width="0.25" stroke-miterlimit="10" d="M33.973,28.797h0.52v0.461h-0.52V28.797z"/>
</g>
<path fill="#333333" stroke="#333333" stroke-width="0.25" stroke-miterlimit="10" d="M5.097,33.293c0-8.652,0-17.33,0-26.007
	C5.3,6.872,5.596,6.545,6.055,6.335c11.743,0,23.527,0,35.313,0c1.028-0.162,1.53,0.701,1.53,1.551
	c0.006,5.081,0.004,10.161,0.004,15.239c0,3.109,0.002,6.218-0.004,9.328c0,0.328-0.051,0.656-0.075,0.955
	c-0.335,0.375-0.624,0.721-1.118,0.775c-0.094,0.01-0.18,0.062-0.271,0.074c-0.101,0.016-0.203,0.006-0.304,0.006
	c-11.462,0-22.922,0-34.382,0.002c-0.575,0-1.079-0.146-1.456-0.605C5.221,33.576,5.184,33.461,5.097,33.293z M7.8,9.028
	c0,7.506,0,14.958,0,22.41c2.229,0.094,31.878,0.055,32.399-0.039c0-7.456,0-14.907,0-22.371C29.393,9.028,18.607,9.028,7.8,9.028z"
	/>
</svg>
