<?xml version="1.0" encoding="utf-8"?>
<!-- Generator: Adobe Illustrator 16.1.0, SVG Export Plug-In . SVG Version: 6.00 Build 0)  -->
<!DOCTYPE svg PUBLIC "-//W3C//DTD SVG 1.1//EN" "http://www.w3.org/Graphics/SVG/1.1/DTD/svg11.dtd">
<svg version="1.1" id="Layer_1" xmlns="http://www.w3.org/2000/svg" xmlns:xlink="http://www.w3.org/1999/xlink" x="0px" y="0px"
	 width="48px" height="48px" viewBox="0 0 48 48" enable-background="new 0 0 48 48" xml:space="preserve">
<g>
	<path fill="#FFFFFF" d="M25,8H13v32h22V17c0-4.123-8-1-8-1C28,12,27,8,25,8z"/>
	<path fill="#333333" d="M28,6H13h-2v2v32v2h2h22h2v-2V16v-2L28,6z M35,40H13V8h12c2,0,3,4,2,8c0,0,8-3.123,8,1V40z"/>
</g>
<g>
	<path fill="#333333" d="M23.64,36.278c-0.839,1.462-2.361,2.299-4.442,2.299c-2.268,0-4.443-1.397-4.443-4.38
		c0-3.324,2.765-5.003,6.058-5.003c0.932,0,1.958,0.188,2.703,0.529v-1.429c0-1.988-0.963-2.92-2.827-2.92
		c-1.399,0-3.667,0.714-4.785,1.396c-0.094-0.247-0.125-0.714-0.125-1.057c0-0.807,0.187-1.708,0.467-2.173
		c1.087-0.53,3.542-0.965,5.312-0.965c3.636,0,5.437,1.554,5.437,5.686v5.623c0,0.809,0.156,1.586,0.404,1.958
		c0.528,0,1.522-0.154,2.113-0.311c0.031,0.156,0.031,0.311,0.031,0.403c0,0.592-0.187,1.243-0.435,1.741
		c-0.746,0.435-2.485,0.899-3.853,0.899c-0.652-0.372-1.211-1.304-1.398-2.299H23.64z M23.578,31.463
		c-0.56-0.155-1.429-0.248-1.958-0.248c-2.113,0-3.293,0.994-3.293,2.485c0,1.584,1.119,2.269,2.393,2.269
		c1.211,0,2.298-0.56,2.858-1.337V31.463z"/>
</g>
</svg>
