<?xml version="1.0" encoding="utf-8"?>
<!-- Generator: Adobe Illustrator 16.1.0, SVG Export Plug-In . SVG Version: 6.00 Build 0)  -->
<!DOCTYPE svg PUBLIC "-//W3C//DTD SVG 1.1//EN" "http://www.w3.org/Graphics/SVG/1.1/DTD/svg11.dtd">
<svg version="1.1" id="Layer_1" xmlns="http://www.w3.org/2000/svg" xmlns:xlink="http://www.w3.org/1999/xlink" x="0px" y="0px"
	 width="48px" height="48px" viewBox="0 0 48 48" enable-background="new 0 0 48 48" xml:space="preserve">
<g>
	<rect x="4.472" y="18" fill="#333333" width="21" height="12"/>
	<path fill="#FFFFFF" d="M6.57,20.783c0.26-0.145,0.832-0.262,1.209-0.262v1.887h1.846c0.039,0.193,0.091,0.715,0.052,1H7.779v3.25
		c0,0.781,0.208,1.08,0.832,1.08c0.351,0,0.832-0.078,1.209-0.17c0.013,0.064,0.013,0.17,0.013,0.195c0,0.234-0.078,0.52-0.208,0.74
		c-0.507,0.248-1.183,0.377-1.69,0.377c-1.117,0-1.677-0.57-1.677-2.002c0-0.805,0.026-2.287,0.091-3.471H5.413
		c0-0.234,0.091-0.701,0.194-0.922c0.208-0.105,0.508-0.209,0.741-0.262L6.57,20.783z"/>
	<path fill="#FFFFFF" d="M12.862,27.646c0.285,0.039,0.688,0.117,0.896,0.209c0.052,0.182,0.078,0.584,0.039,0.805h-3.419
		c0.026-0.246,0.104-0.572,0.195-0.754c0.194-0.117,0.546-0.234,0.793-0.312v-7.318h-0.924c0.014-0.299,0.131-0.701,0.273-0.936
		c0.325-0.131,0.832-0.221,1.313-0.221c0.272,0,0.624,0.039,0.832,0.115v2.25c0,0.572-0.039,1.273-0.092,1.885h0.156
		c0.26-0.637,0.923-1.184,2.041-1.184c1.066,0,2.041,0.326,2.041,2.354c0,1.027-0.025,2.119-0.091,3.107
		c0.312,0.025,0.729,0.117,0.988,0.209c0.039,0.168,0.052,0.338,0.052,0.506c0,0.117-0.013,0.221-0.026,0.299h-3.289
		c0.026-0.246,0.092-0.572,0.169-0.754c0.17-0.117,0.481-0.234,0.689-0.312v-2.795c0-0.883-0.299-1.469-1.131-1.469
		c-0.663,0-1.235,0.441-1.508,0.857V27.646z"/>
	<path fill="#FFFFFF" d="M20.285,25.801c0.064,1.209,0.832,1.924,1.963,1.924c0.571,0,1.442-0.17,1.924-0.352
		c0.026,0.273-0.091,0.742-0.247,0.988c-0.468,0.26-1.261,0.52-2.132,0.52c-1.95,0-3.068-1.391-3.068-3.223
		c0-1.977,1.248-3.473,3.159-3.473c1.664,0,2.354,1.158,2.354,2.912c0,0.223-0.014,0.469-0.039,0.703H20.285z M22.768,24.838
		c0.078-0.793-0.169-1.742-1.104-1.742c-0.793,0-1.326,0.715-1.404,1.742H22.768z"/>
	<g>
		<g>
			<path fill="#666666" d="M6.57,8.783c0.26-0.145,0.832-0.262,1.209-0.262v1.887h1.846c0.039,0.193,0.091,0.715,0.052,1H7.779v3.25
				c0,0.781,0.208,1.08,0.832,1.08c0.351,0,0.832-0.078,1.209-0.17c0.013,0.064,0.013,0.17,0.013,0.195
				c0,0.234-0.078,0.52-0.208,0.74c-0.507,0.248-1.183,0.377-1.69,0.377c-1.117,0-1.677-0.57-1.677-2.002
				c0-0.805,0.026-2.287,0.091-3.471H5.413c0-0.234,0.091-0.701,0.194-0.922c0.208-0.105,0.508-0.209,0.741-0.262L6.57,8.783z"/>
			<path fill="#666666" d="M12.862,15.646c0.285,0.039,0.688,0.117,0.896,0.209c0.052,0.182,0.078,0.584,0.039,0.805h-3.419
				c0.026-0.246,0.104-0.572,0.195-0.754c0.194-0.117,0.546-0.234,0.793-0.312V8.275h-0.924c0.014-0.299,0.131-0.701,0.273-0.936
				c0.325-0.131,0.832-0.221,1.313-0.221c0.272,0,0.624,0.039,0.832,0.115v2.25c0,0.572-0.039,1.273-0.092,1.885h0.156
				c0.26-0.637,0.923-1.184,2.041-1.184c1.066,0,2.041,0.326,2.041,2.354c0,1.027-0.025,2.119-0.091,3.107
				c0.312,0.025,0.729,0.117,0.988,0.209c0.039,0.168,0.052,0.338,0.052,0.506c0,0.117-0.013,0.221-0.026,0.299h-3.289
				c0.026-0.246,0.092-0.572,0.169-0.754c0.17-0.117,0.481-0.234,0.689-0.312v-2.795c0-0.883-0.299-1.469-1.131-1.469
				c-0.663,0-1.235,0.441-1.508,0.857V15.646z"/>
			<path fill="#666666" d="M20.285,13.801c0.064,1.209,0.832,1.924,1.963,1.924c0.571,0,1.442-0.17,1.924-0.352
				c0.026,0.273-0.091,0.742-0.247,0.988c-0.468,0.26-1.261,0.52-2.132,0.52c-1.95,0-3.068-1.391-3.068-3.223
				c0-1.977,1.248-3.473,3.159-3.473c1.664,0,2.354,1.158,2.354,2.912c0,0.223-0.014,0.469-0.039,0.703H20.285z M22.768,12.838
				c0.078-0.793-0.169-1.742-1.104-1.742c-0.793,0-1.326,0.715-1.404,1.742H22.768z"/>
		</g>
		<path fill="#666666" d="M32.621,23.422h-0.923c0.014-0.287,0.13-0.689,0.273-0.924c0.312-0.143,0.819-0.221,1.312-0.221
			c0.286,0,0.624,0.039,0.832,0.104v4.355c0,0.299,0.026,0.637,0.104,0.936h0.962c0.013,0.066,0.013,0.145,0.013,0.195
			c0,0.209-0.064,0.52-0.155,0.689c-0.481,0.156-1.47,0.26-2.003,0.26c-0.155-0.285-0.272-0.689-0.312-1.078h-0.091
			c-0.286,0.545-0.937,1.143-2.028,1.143c-1.053,0-1.976-0.35-1.976-2.379c0-0.961,0.013-2.08,0.064-3.08h-0.975
			c0.013-0.287,0.13-0.703,0.272-0.924c0.312-0.129,0.832-0.221,1.326-0.221c0.286,0,0.624,0.039,0.832,0.104v3.875
			c0,0.922,0.273,1.469,1.105,1.469c0.532,0,1.079-0.363,1.364-0.715V23.422z"/>
		<path fill="#666666" d="M6.57,32.783c0.26-0.145,0.832-0.262,1.209-0.262v1.887h1.846c0.039,0.193,0.091,0.715,0.052,1H7.779v3.25
			c0,0.781,0.208,1.08,0.832,1.08c0.351,0,0.832-0.078,1.209-0.17c0.013,0.064,0.013,0.17,0.013,0.195
			c0,0.234-0.078,0.52-0.208,0.74c-0.507,0.248-1.183,0.377-1.69,0.377c-1.117,0-1.677-0.57-1.677-2.002
			c0-0.805,0.026-2.287,0.091-3.471H5.413c0-0.234,0.091-0.701,0.194-0.922c0.208-0.105,0.508-0.209,0.741-0.262L6.57,32.783z"/>
		<path fill="#666666" d="M12.862,39.646c0.285,0.039,0.688,0.117,0.896,0.209c0.052,0.182,0.078,0.584,0.039,0.805h-3.419
			c0.026-0.246,0.104-0.572,0.195-0.754c0.194-0.117,0.546-0.234,0.793-0.312v-7.318h-0.924c0.014-0.299,0.131-0.701,0.273-0.936
			c0.325-0.131,0.832-0.221,1.313-0.221c0.272,0,0.624,0.039,0.832,0.115v2.25c0,0.572-0.039,1.273-0.092,1.885h0.156
			c0.26-0.637,0.923-1.184,2.041-1.184c1.066,0,2.041,0.326,2.041,2.354c0,1.027-0.025,2.119-0.091,3.107
			c0.312,0.025,0.729,0.117,0.988,0.209c0.039,0.168,0.052,0.338,0.052,0.506c0,0.117-0.013,0.221-0.026,0.299h-3.289
			c0.026-0.246,0.092-0.572,0.169-0.754c0.17-0.117,0.481-0.234,0.689-0.312v-2.795c0-0.883-0.299-1.469-1.131-1.469
			c-0.663,0-1.235,0.441-1.508,0.857V39.646z"/>
		<path fill="#666666" d="M20.285,37.801c0.064,1.209,0.832,1.924,1.963,1.924c0.571,0,1.442-0.17,1.924-0.352
			c0.026,0.273-0.091,0.742-0.247,0.988c-0.468,0.26-1.261,0.52-2.132,0.52c-1.95,0-3.068-1.391-3.068-3.223
			c0-1.977,1.248-3.473,3.159-3.473c1.664,0,2.354,1.158,2.354,2.912c0,0.223-0.014,0.469-0.039,0.703H20.285z M22.768,36.838
			c0.078-0.793-0.169-1.742-1.104-1.742c-0.793,0-1.326,0.715-1.404,1.742H22.768z"/>
		<path fill="#666666" d="M32.621,35.422h-0.923c0.014-0.287,0.13-0.689,0.273-0.924c0.312-0.143,0.819-0.221,1.312-0.221
			c0.286,0,0.624,0.039,0.832,0.104v4.355c0,0.299,0.026,0.637,0.104,0.936h0.962c0.013,0.066,0.013,0.145,0.013,0.195
			c0,0.209-0.064,0.52-0.155,0.689c-0.481,0.156-1.47,0.26-2.003,0.26c-0.155-0.285-0.272-0.689-0.312-1.078h-0.091
			c-0.286,0.545-0.937,1.143-2.028,1.143c-1.053,0-1.976-0.35-1.976-2.379c0-0.961,0.013-2.08,0.064-3.08h-0.975
			c0.013-0.287,0.13-0.703,0.272-0.924c0.312-0.129,0.832-0.221,1.326-0.221c0.286,0,0.624,0.039,0.832,0.104v3.875
			c0,0.922,0.273,1.469,1.105,1.469c0.532,0,1.079-0.363,1.364-0.715V35.422z"/>
		<path fill="#666666" d="M42.06,35.201c-0.169-0.078-0.43-0.145-0.677-0.145c-0.571,0-0.896,0.248-0.896,0.678
			c0,1.377,3.042,0.832,3.042,3.158c0,1.455-1.183,1.988-2.496,1.988c-0.806,0-1.547-0.154-2.158-0.494
			c-0.039-0.168-0.064-0.428-0.064-0.662c0-0.363,0.052-0.768,0.13-1.002c0.402,0,0.832,0.039,1.195,0.156v0.807
			c0.273,0.17,0.65,0.26,0.988,0.26c0.572,0,0.937-0.285,0.937-0.793c0-1.377-3.081-0.768-3.081-3.186
			c0-1.053,0.91-1.781,2.353-1.781c0.65,0,1.365,0.117,2.002,0.391c0.014,0.104,0.026,0.287,0.026,0.43
			c0,0.377-0.065,0.818-0.143,1.117c-0.416,0-0.885-0.104-1.157-0.246V35.201z"/>
	</g>
</g>
</svg>
