<?xml version="1.0" encoding="utf-8"?>
<!-- Generator: Adobe Illustrator 16.0.0, SVG Export Plug-In . SVG Version: 6.00 Build 0)  -->
<!DOCTYPE svg PUBLIC "-//W3C//DTD SVG 1.1//EN" "http://www.w3.org/Graphics/SVG/1.1/DTD/svg11.dtd">
<svg version="1.1" id="Layer_1" xmlns="http://www.w3.org/2000/svg" xmlns:xlink="http://www.w3.org/1999/xlink" x="0px" y="0px"
	 width="48px" height="48px" viewBox="0 0 48 48" enable-background="new 0 0 48 48" xml:space="preserve">
<g>
	<g>
		<circle fill="#CECECE" stroke="#CECECE" stroke-width="0.25" stroke-miterlimit="10" cx="23.983" cy="24" r="19.413"/>
		<path fill="none" d="M13.181,6.879c-0.284,0.26-0.436,0.59-0.452,0.991h0.582c0.607-0.405,1.244-0.768,1.897-1.104
			c-0.245-0.18-0.564-0.277-0.97-0.277C13.818,6.49,13.466,6.62,13.181,6.879z"/>
		<path fill="none" d="M28.134,38.624c-0.646,0-1.089,0.258-1.327,0.775c-0.125,0.274-0.188,0.637-0.188,1.086
			c0,0.522,0.125,0.926,0.375,1.199c0.25,0.272,0.584,0.411,1.006,0.411c0.66,0,1.124-0.254,1.395-0.764
			c0.148-0.289,0.225-0.621,0.225-1.006c0-0.578-0.141-1.005-0.418-1.285C28.921,38.763,28.566,38.624,28.134,38.624z"/>
		<path fill="none" d="M7.188,20.767c0.604,0,1.02-0.196,1.243-0.589c0.226-0.393,0.338-0.831,0.338-1.311
			c0-0.435-0.081-0.789-0.243-1.062c-0.257-0.429-0.7-0.643-1.328-0.643c-0.559,0-0.964,0.183-1.217,0.548s-0.381,0.806-0.381,1.322
			c0,0.496,0.128,0.909,0.381,1.239C6.235,20.602,6.637,20.767,7.188,20.767z"/>
		<path fill="none" d="M15.754,7.87c-0.038-0.339-0.125-0.611-0.26-0.814c-0.077-0.116-0.176-0.208-0.286-0.289
			c-0.653,0.336-1.291,0.698-1.897,1.104L15.754,7.87L15.754,7.87z"/>
		<path fill="none" d="M35.941,38.985c-0.175,0.158-0.281,0.352-0.354,0.562c0.391-0.29,0.771-0.59,1.141-0.908
			C36.43,38.687,36.16,38.785,35.941,38.985z"/>
		<path fill="none" d="M32.869,7.3c-0.127,0.29-0.19,0.659-0.19,1.106c0,0.36,0.063,0.667,0.19,0.919
			c0.24,0.481,0.68,0.723,1.316,0.723c0.432,0,0.793-0.154,1.077-0.46c0.236-0.252,0.369-0.612,0.411-1.069
			c-0.801-0.602-1.639-1.155-2.529-1.629C33.037,7.005,32.941,7.136,32.869,7.3z"/>
		<path fill="none" d="M22.498,28.462c-0.251-0.379-0.669-0.566-1.256-0.566c-0.421,0-0.773,0.129-1.059,0.39
			c-0.284,0.26-0.435,0.59-0.451,0.989h3.025C22.721,28.935,22.633,28.663,22.498,28.462z"/>
		<path fill="none" d="M41.779,27.315h0.944v1.807c0.447-1.635,0.706-3.346,0.706-5.121c0-0.927-0.088-1.832-0.214-2.724h-0.247
			v-1.443c-0.195-0.89-0.461-1.751-0.773-2.59c-0.058-0.006-0.108-0.02-0.17-0.02c-0.36,0-0.674,0.103-0.936,0.309
			c-0.262,0.206-0.393,0.55-0.393,1.033v2.712h-0.938v-3.043c0-0.316-0.044-0.547-0.134-0.693c-0.141-0.217-0.401-0.326-0.784-0.326
			c-0.349,0-0.666,0.114-0.952,0.344c-0.285,0.229-0.429,0.644-0.429,1.246v2.473h-0.923v-4.663h0.914v0.662
			c0.219-0.229,0.416-0.396,0.596-0.501c0.305-0.177,0.646-0.265,1.034-0.265c0.438,0,0.79,0.091,1.057,0.274
			c0.149,0.104,0.287,0.258,0.411,0.462c0.204-0.25,0.445-0.435,0.723-0.556c0.2-0.087,0.426-0.131,0.662-0.155
			c-1.203-2.881-3.084-5.406-5.441-7.383c-0.146,0.497-0.401,0.895-0.793,1.166c-0.397,0.276-0.862,0.414-1.391,0.414
			c-0.414,0-0.763-0.077-1.045-0.231c-0.164-0.087-0.348-0.236-0.551-0.449v2.382H31.79V6.238c-2.371-1.036-4.987-1.619-7.741-1.619
			c-2.879,0-5.602,0.645-8.059,1.771c0.096,0.08,0.191,0.16,0.263,0.252c0.185,0.235,0.306,0.51,0.367,0.823
			c0.055,0.215,0.082,0.557,0.082,1.028h-3.994c0.017,0.475,0.147,0.855,0.392,1.141c0.244,0.288,0.622,0.431,1.136,0.431
			c0.478,0,0.858-0.136,1.144-0.407c0.16-0.157,0.272-0.339,0.339-0.546h0.907c-0.022,0.171-0.104,0.362-0.238,0.573
			c-0.135,0.21-0.285,0.382-0.451,0.515c-0.279,0.232-0.623,0.389-1.034,0.471c-0.222,0.047-0.471,0.07-0.748,0.07
			c-0.68,0-1.255-0.211-1.728-0.634c-0.325-0.29-0.529-0.667-0.631-1.117c-2.488,2.033-4.455,4.673-5.688,7.693
			c0.328-0.132,0.696-0.204,1.115-0.204c0.703,0,1.297,0.2,1.782,0.601c0.485,0.4,0.729,0.989,0.729,1.766
			c0,0.751-0.214,1.372-0.643,1.862C8.663,21.198,8,21.443,7.1,21.443c-0.75,0-1.346-0.217-1.786-0.65
			c-0.117-0.115-0.217-0.242-0.303-0.378c-0.217,1.163-0.344,2.359-0.344,3.586c0,1.111,0.115,2.193,0.294,3.254
			c0.421,0.089,0.797,0.26,1.121,0.527c0.486,0.398,0.729,0.986,0.729,1.764c0,0.752-0.215,1.373-0.643,1.861
			c-0.007,0.008-0.016,0.013-0.021,0.02c1.333,3.209,3.511,5.969,6.244,8.032c0.116-0.351,0.296-0.649,0.548-0.896
			c0.468-0.455,1.063-0.685,1.789-0.685c0.618,0,1.121,0.129,1.51,0.383c0.388,0.257,0.622,0.697,0.7,1.32h-0.897
			c-0.055-0.289-0.179-0.526-0.375-0.715c-0.195-0.191-0.507-0.287-0.938-0.287c-0.589,0-1.009,0.244-1.262,0.729
			c-0.114,0.223-0.175,0.493-0.209,0.789c0.812,0.545,1.676,1.014,2.568,1.434c0.091-0.147,0.167-0.312,0.215-0.506h0.897
			c-0.058,0.346-0.167,0.633-0.32,0.873c0.406,0.17,0.823,0.313,1.242,0.455v-4.317h0.938v4.604c1.672,0.471,3.429,0.739,5.25,0.739
			c0.606,0,1.205-0.036,1.797-0.091c-0.001-0.012-0.006-0.021-0.007-0.033h0.35c1.161-0.128,2.291-0.361,3.381-0.686
			c0.012-0.163,0.018-0.34,0.014-0.543c-0.186,0.236-0.405,0.414-0.665,0.529c-0.257,0.116-0.601,0.176-1.025,0.176
			c-0.592,0-1.11-0.181-1.555-0.539c-0.445-0.357-0.666-0.951-0.666-1.777c0-0.779,0.224-1.391,0.671-1.83
			c0.448-0.438,0.986-0.654,1.622-0.654c0.429,0,0.804,0.088,1.124,0.269c0.172,0.102,0.35,0.25,0.529,0.444v-0.588h0.853v4.211
			c1.425-0.5,2.771-1.156,4.021-1.957c0.025-0.689,0.254-1.262,0.703-1.703c0.476-0.465,1.097-0.7,1.865-0.7
			c0.145,0,0.284,0.021,0.426,0.044c1.92-1.852,3.461-4.087,4.492-6.594c-0.125-0.229-0.197-0.516-0.197-0.875V27.315L41.779,27.315
			z M26.859,16.614v0.64h-0.877v3.043c0,0.163,0.064,0.271,0.194,0.326c0.072,0.033,0.192,0.048,0.358,0.048
			c0.045,0,0.094-0.001,0.145-0.003c0.051-0.001,0.111-0.006,0.18-0.015v0.623c-0.104,0.026-0.217,0.045-0.33,0.057
			c-0.117,0.012-0.238,0.018-0.371,0.018c-0.432,0-0.725-0.094-0.877-0.281c-0.155-0.187-0.232-0.43-0.232-0.73v-3.086h-0.743v-0.64
			h0.743v-1.302h0.934v1.302H26.859z M17.871,5.911h0.913v0.662c0.218-0.229,0.417-0.396,0.595-0.5
			c0.304-0.178,0.649-0.266,1.036-0.266c0.438,0,0.789,0.091,1.056,0.274c0.15,0.104,0.287,0.259,0.41,0.461
			c0.205-0.25,0.445-0.435,0.724-0.555c0.276-0.12,0.588-0.18,0.933-0.18c0.738,0,1.242,0.226,1.508,0.679
			c0.145,0.244,0.216,0.572,0.216,0.984v3.105h-0.959v-3.24c0-0.311-0.092-0.524-0.274-0.64c-0.184-0.116-0.404-0.174-0.669-0.174
			c-0.361,0-0.673,0.103-0.936,0.309c-0.262,0.206-0.392,0.55-0.392,1.032v2.713h-0.938V7.531c0-0.317-0.044-0.548-0.133-0.693
			c-0.14-0.218-0.401-0.327-0.785-0.327c-0.349,0-0.666,0.114-0.951,0.344c-0.284,0.229-0.428,0.644-0.428,1.245v2.474h-0.923V5.911
			H17.871z M22.532,15.769v-0.888h0.938v0.888H22.532z M23.47,16.636v4.641h-0.938v-4.641H23.47z M20.301,19.561
			c-0.136-0.063-0.402-0.138-0.802-0.222l-0.746-0.157c-0.476-0.099-0.827-0.209-1.053-0.331c-0.403-0.212-0.604-0.505-0.604-0.879
			c0-0.441,0.189-0.798,0.568-1.071c0.38-0.273,0.89-0.41,1.531-0.41c0.838,0,1.441,0.207,1.813,0.619
			c0.231,0.261,0.345,0.543,0.337,0.845h-0.872c-0.018-0.176-0.093-0.336-0.226-0.48c-0.216-0.206-0.593-0.309-1.128-0.309
			c-0.357,0-0.627,0.057-0.812,0.17c-0.184,0.112-0.274,0.262-0.274,0.447c0,0.202,0.12,0.364,0.362,0.486
			c0.139,0.072,0.345,0.136,0.616,0.191l0.621,0.125c0.677,0.137,1.129,0.27,1.359,0.396c0.359,0.201,0.538,0.516,0.538,0.945
			c0,0.416-0.188,0.774-0.563,1.076s-0.947,0.453-1.716,0.453c-0.827,0-1.413-0.157-1.757-0.473
			c-0.345-0.315-0.529-0.705-0.553-1.169h0.887c0.028,0.262,0.106,0.462,0.235,0.601c0.236,0.253,0.648,0.379,1.234,0.379
			c0.35,0,0.656-0.063,0.921-0.189c0.266-0.127,0.397-0.322,0.397-0.586C20.619,19.818,20.513,19.666,20.301,19.561z M12.421,31.978
			h-0.938V29.04c0-0.287-0.05-0.516-0.148-0.688c-0.165-0.291-0.462-0.437-0.893-0.437c-0.22,0-0.398,0.019-0.539,0.055
			c-0.253,0.064-0.476,0.191-0.667,0.386c-0.154,0.153-0.254,0.312-0.3,0.477c-0.048,0.164-0.07,0.398-0.07,0.703v2.441H7.944
			v-4.662h0.877v0.66c0.26-0.271,0.535-0.468,0.826-0.586c0.291-0.119,0.612-0.181,0.969-0.181c0.78,0,1.306,0.231,1.579,0.692
			c0.15,0.252,0.226,0.613,0.226,1.084V31.978z M13.261,17.336c-0.465,0-0.821,0.127-1.071,0.381
			c-0.249,0.254-0.374,0.547-0.374,0.878v2.682h-0.924v-4.663h0.877v0.805c0.071-0.157,0.247-0.347,0.528-0.573
			c0.28-0.225,0.604-0.337,0.969-0.337c0.018,0,0.047,0.001,0.088,0.004c0.042,0.003,0.11,0.009,0.211,0.018v0.827
			c-0.056-0.008-0.105-0.014-0.152-0.017C13.367,17.338,13.316,17.336,13.261,17.336z M17.472,31.704
			c-0.375,0.303-0.947,0.453-1.716,0.453c-0.827,0-1.413-0.158-1.757-0.475c-0.345-0.312-0.529-0.703-0.553-1.166h0.887
			c0.028,0.26,0.106,0.461,0.235,0.6c0.237,0.254,0.649,0.379,1.234,0.379c0.35,0,0.656-0.062,0.921-0.188
			c0.266-0.13,0.397-0.322,0.397-0.589c0-0.198-0.106-0.354-0.318-0.457c-0.135-0.063-0.402-0.137-0.802-0.221l-0.745-0.158
			c-0.477-0.098-0.828-0.209-1.053-0.33c-0.403-0.213-0.604-0.506-0.604-0.879c0-0.442,0.189-0.799,0.568-1.071
			c0.38-0.271,0.89-0.408,1.531-0.408c0.838,0,1.441,0.205,1.812,0.617c0.232,0.262,0.346,0.543,0.338,0.844h-0.869
			c-0.018-0.176-0.094-0.336-0.227-0.479c-0.217-0.205-0.593-0.311-1.128-0.311c-0.356,0-0.627,0.059-0.811,0.172
			c-0.185,0.112-0.276,0.262-0.276,0.446c0,0.201,0.12,0.365,0.362,0.486c0.139,0.07,0.344,0.135,0.615,0.189l0.622,0.127
			c0.677,0.137,1.128,0.27,1.358,0.395c0.359,0.201,0.539,0.516,0.539,0.945C18.035,31.044,17.847,31.403,17.472,31.704z
			 M18.799,37.171h-0.938v-0.889h0.938V37.171z M18.722,29.737c0-0.75,0.238-1.357,0.714-1.826c0.476-0.465,1.098-0.701,1.865-0.701
			c0.388,0,0.763,0.078,1.125,0.234c0.364,0.156,0.641,0.354,0.832,0.602c0.185,0.236,0.307,0.51,0.366,0.822
			c0.055,0.217,0.081,0.559,0.081,1.029h-3.994c0.018,0.475,0.147,0.854,0.393,1.141c0.243,0.289,0.621,0.432,1.135,0.432
			c0.478,0,0.858-0.137,1.144-0.406c0.16-0.158,0.272-0.342,0.339-0.547h0.907c-0.022,0.172-0.103,0.361-0.238,0.57
			c-0.134,0.211-0.284,0.383-0.45,0.518c-0.278,0.23-0.622,0.39-1.033,0.472c-0.221,0.047-0.47,0.069-0.748,0.069
			c-0.68,0-1.255-0.213-1.728-0.635C18.958,31.087,18.722,30.497,18.722,29.737z M24.67,42.679h-0.938V39.74
			c0-0.285-0.051-0.517-0.148-0.688c-0.164-0.291-0.462-0.434-0.892-0.434c-0.221,0-0.398,0.016-0.539,0.055
			c-0.253,0.064-0.476,0.193-0.666,0.383c-0.154,0.154-0.254,0.314-0.3,0.478c-0.048,0.163-0.07,0.397-0.07,0.704v2.441h-0.923
			v-4.664h0.877v0.662c0.26-0.273,0.535-0.467,0.826-0.588c0.291-0.119,0.612-0.18,0.969-0.18c0.779,0,1.306,0.234,1.579,0.693
			c0.149,0.252,0.226,0.614,0.226,1.086L24.67,42.679L24.67,42.679z M25.834,30.962c0.232,0.318,0.598,0.477,1.097,0.477
			c0.384,0,0.687-0.1,0.91-0.295c0.226-0.199,0.379-0.471,0.464-0.813h0.896c-0.103,0.616-0.356,1.069-0.77,1.354
			c-0.408,0.286-0.936,0.432-1.572,0.432c-0.718,0-1.291-0.225-1.719-0.668c-0.428-0.447-0.641-1.002-0.641-1.672
			c0-0.818,0.232-1.455,0.701-1.91c0.469-0.457,1.065-0.684,1.789-0.684c0.619,0,1.123,0.129,1.511,0.383
			c0.389,0.256,0.622,0.694,0.7,1.319h-0.897c-0.054-0.289-0.179-0.526-0.374-0.717c-0.193-0.19-0.506-0.285-0.939-0.285
			c-0.586,0-1.008,0.244-1.26,0.729c-0.164,0.316-0.246,0.705-0.246,1.171C25.484,30.248,25.602,30.64,25.834,30.962z M29.535,5.933
			h0.938v4.642h-0.938V5.933z M32.119,27.954h-0.877v3.043c0,0.164,0.065,0.273,0.195,0.33c0.07,0.031,0.191,0.047,0.358,0.047
			c0.046,0,0.093,0,0.146-0.002c0.051-0.002,0.109-0.01,0.178-0.016v0.621c-0.104,0.024-0.215,0.045-0.329,0.059
			c-0.115,0.01-0.239,0.018-0.373,0.018c-0.431,0-0.722-0.094-0.876-0.283c-0.152-0.186-0.23-0.43-0.23-0.729v-3.088h-0.744v-0.639
			h0.744v-1.301h0.934v1.301h0.877v0.639H32.119z M30.928,21.04c-0.322-0.262-0.484-0.591-0.484-0.985
			c0-0.432,0.16-0.767,0.479-1.005c0.316-0.238,0.734-0.384,1.251-0.439l1.472-0.157c0.213-0.023,0.354-0.099,0.426-0.226
			c0.041-0.07,0.062-0.17,0.062-0.302c0-0.268-0.111-0.462-0.336-0.583c-0.225-0.122-0.543-0.182-0.96-0.182
			c-0.479,0-0.821,0.11-1.022,0.332c-0.111,0.123-0.186,0.305-0.22,0.547h-0.862c0.019-0.576,0.236-0.978,0.658-1.203
			c0.422-0.226,0.911-0.338,1.467-0.338c0.646,0,1.17,0.105,1.573,0.313c0.397,0.209,0.599,0.534,0.599,0.976v2.687
			c0,0.081,0.021,0.146,0.061,0.196c0.039,0.048,0.122,0.073,0.248,0.073c0.042,0,0.088-0.002,0.139-0.006
			c0.053-0.004,0.106-0.011,0.165-0.02v0.579c-0.146,0.035-0.254,0.056-0.329,0.065c-0.076,0.009-0.177,0.013-0.308,0.013
			c-0.317,0-0.55-0.095-0.69-0.287c-0.076-0.102-0.131-0.246-0.16-0.431c-0.188,0.209-0.459,0.39-0.812,0.544
			c-0.353,0.154-0.739,0.231-1.163,0.231C31.668,21.434,31.252,21.302,30.928,21.04z M34.111,31.038
			c0.244,0.289,0.623,0.432,1.135,0.432c0.478,0,0.859-0.137,1.145-0.406c0.16-0.157,0.271-0.342,0.34-0.547h0.907
			c-0.022,0.172-0.104,0.361-0.239,0.57c-0.135,0.211-0.285,0.383-0.449,0.518c-0.28,0.23-0.623,0.39-1.034,0.472
			c-0.222,0.047-0.47,0.069-0.748,0.069c-0.681,0-1.255-0.213-1.728-0.635c-0.473-0.424-0.709-1.014-0.709-1.773
			c0-0.75,0.238-1.356,0.715-1.825c0.475-0.466,1.097-0.701,1.865-0.701c0.387,0,0.762,0.078,1.125,0.233
			c0.363,0.156,0.641,0.355,0.829,0.603c0.185,0.236,0.308,0.511,0.367,0.822c0.056,0.217,0.083,0.559,0.083,1.028H33.72
			C33.736,30.372,33.867,30.751,34.111,31.038z M40.878,27.954h-0.876v3.043c0,0.164,0.064,0.273,0.193,0.33
			c0.071,0.031,0.191,0.047,0.359,0.047c0.044,0,0.092,0,0.143-0.002c0.053-0.002,0.113-0.01,0.181-0.016v0.621
			c-0.106,0.024-0.218,0.045-0.331,0.059c-0.114,0.01-0.236,0.018-0.371,0.018c-0.432,0-0.723-0.094-0.877-0.283
			c-0.154-0.186-0.229-0.43-0.229-0.729v-3.088h-0.746v-0.639h0.746v-1.301h0.933v1.301h0.876L40.878,27.954L40.878,27.954z"/>
		<path fill="none" d="M5.847,29.569c0-0.437-0.082-0.789-0.242-1.062c-0.125-0.21-0.297-0.366-0.511-0.474
			c0.165,0.779,0.391,1.535,0.646,2.279C5.807,30.077,5.847,29.831,5.847,29.569z"/>
		<path fill="none" d="M35.25,27.896c-0.42,0-0.771,0.129-1.057,0.39c-0.287,0.26-0.437,0.59-0.453,0.989h3.025
			c-0.037-0.34-0.124-0.61-0.26-0.812C36.256,28.083,35.837,27.896,35.25,27.896z"/>
		<path fill="none" d="M34.105,19.537v-0.63c-0.113,0.062-0.259,0.112-0.437,0.153c-0.177,0.041-0.353,0.07-0.521,0.087
			l-0.561,0.061c-0.333,0.038-0.584,0.097-0.753,0.178c-0.285,0.136-0.429,0.354-0.429,0.652c0,0.226,0.098,0.404,0.293,0.534
			c0.195,0.13,0.425,0.195,0.69,0.195c0.325,0,0.64-0.063,0.944-0.191C33.848,20.364,34.105,20.019,34.105,19.537z"/>
		<path fill="#FFFFFF" stroke="#FFFFFF" stroke-width="0.25" stroke-miterlimit="10" d="M14.153,10.74
			c0.277,0,0.526-0.023,0.748-0.07c0.411-0.082,0.755-0.238,1.034-0.471c0.165-0.133,0.315-0.305,0.451-0.515
			c0.135-0.21,0.215-0.402,0.238-0.573h-0.907c-0.065,0.207-0.179,0.39-0.339,0.546c-0.285,0.271-0.667,0.407-1.144,0.407
			c-0.514,0-0.892-0.143-1.136-0.431c-0.244-0.286-0.375-0.667-0.392-1.141h3.994c0-0.471-0.027-0.813-0.082-1.028
			c-0.062-0.313-0.184-0.588-0.367-0.823c-0.071-0.092-0.167-0.172-0.263-0.252c-0.263,0.121-0.525,0.245-0.782,0.376
			c0.109,0.081,0.208,0.173,0.286,0.289c0.135,0.204,0.222,0.476,0.26,0.814h-2.443c-0.523,0.349-1.029,0.722-1.515,1.119
			c0.102,0.451,0.307,0.827,0.631,1.117C12.899,10.528,13.474,10.74,14.153,10.74z"/>
		<path fill="#FFFFFF" stroke="#FFFFFF" stroke-width="0.25" stroke-miterlimit="10" d="M18.794,8.101
			c0-0.601,0.144-1.016,0.428-1.245c0.286-0.23,0.604-0.344,0.951-0.344c0.383,0,0.646,0.108,0.785,0.327
			c0.089,0.145,0.133,0.376,0.133,0.693v3.043h0.938V7.862c0-0.482,0.13-0.826,0.392-1.032s0.574-0.309,0.936-0.309
			c0.265,0,0.485,0.058,0.669,0.174c0.184,0.116,0.274,0.33,0.274,0.64v3.24h0.959V7.47c0-0.412-0.071-0.74-0.216-0.984
			c-0.266-0.453-0.77-0.679-1.508-0.679c-0.345,0-0.655,0.061-0.933,0.18c-0.277,0.121-0.519,0.305-0.724,0.555
			c-0.124-0.203-0.26-0.357-0.41-0.461c-0.267-0.183-0.619-0.274-1.056-0.274c-0.387,0-0.732,0.088-1.036,0.266
			c-0.178,0.104-0.376,0.271-0.595,0.5V5.911h-0.913v4.664h0.923V8.101H18.794z"/>
		
			<rect x="29.535" y="5.933" fill="#FFFFFF" stroke="#FFFFFF" stroke-width="0.25" stroke-miterlimit="10" width="0.938" height="4.642"/>
		<path fill="#FFFFFF" stroke="#FFFFFF" stroke-width="0.25" stroke-miterlimit="10" d="M32.715,12.434v-2.383
			c0.203,0.212,0.387,0.362,0.551,0.449c0.282,0.154,0.631,0.231,1.045,0.231c0.527,0,0.992-0.138,1.391-0.414
			c0.392-0.271,0.646-0.669,0.793-1.166c-0.264-0.222-0.543-0.425-0.818-0.632c-0.042,0.457-0.175,0.817-0.411,1.069
			c-0.284,0.306-0.646,0.46-1.077,0.46c-0.638,0-1.076-0.242-1.316-0.723c-0.127-0.253-0.19-0.559-0.19-0.919
			c0-0.447,0.063-0.816,0.19-1.106c0.072-0.164,0.168-0.295,0.275-0.41c-0.439-0.235-0.893-0.451-1.354-0.652v6.196H32.715z"/>
		<path fill="#FFFFFF" stroke="#FFFFFF" stroke-width="0.25" stroke-miterlimit="10" d="M7.103,21.442
			c0.898,0,1.562-0.245,1.99-0.735c0.428-0.49,0.643-1.111,0.643-1.862c0-0.777-0.243-1.366-0.729-1.766
			c-0.485-0.401-1.08-0.601-1.782-0.601c-0.418,0-0.787,0.071-1.115,0.204c-0.486,1.189-0.854,2.438-1.097,3.732
			c0.086,0.136,0.186,0.263,0.303,0.378C5.756,21.226,6.351,21.442,7.103,21.442z M5.981,17.71c0.253-0.365,0.658-0.548,1.217-0.548
			c0.628,0,1.071,0.214,1.328,0.643c0.162,0.273,0.243,0.626,0.243,1.062c0,0.48-0.112,0.918-0.338,1.311
			c-0.225,0.393-0.639,0.589-1.243,0.589c-0.552,0-0.954-0.165-1.207-0.496c-0.253-0.33-0.381-0.743-0.381-1.239
			C5.601,18.516,5.729,18.076,5.981,17.71z"/>
		<path fill="#FFFFFF" stroke="#FFFFFF" stroke-width="0.25" stroke-miterlimit="10" d="M13.565,16.531
			c-0.101-0.008-0.169-0.015-0.211-0.018c-0.041-0.003-0.07-0.004-0.088-0.004c-0.365,0-0.688,0.112-0.969,0.337
			c-0.281,0.226-0.457,0.416-0.528,0.573v-0.805h-0.876v4.663h0.923v-2.682c0-0.331,0.125-0.624,0.374-0.878
			c0.25-0.254,0.606-0.381,1.071-0.381c0.056,0,0.105,0.002,0.151,0.004c0.046,0.003,0.097,0.009,0.152,0.017V16.531z"/>
		<path fill="#FFFFFF" stroke="#FFFFFF" stroke-width="0.25" stroke-miterlimit="10" d="M20.221,20.605
			c-0.265,0.126-0.571,0.189-0.921,0.189c-0.586,0-0.998-0.126-1.234-0.379c-0.129-0.139-0.207-0.339-0.235-0.601h-0.887
			c0.023,0.465,0.208,0.854,0.553,1.169c0.344,0.315,0.93,0.473,1.757,0.473c0.769,0,1.34-0.151,1.716-0.453
			c0.375-0.301,0.563-0.66,0.563-1.076c0-0.429-0.179-0.744-0.538-0.945c-0.23-0.127-0.683-0.26-1.359-0.396l-0.621-0.125
			c-0.271-0.055-0.478-0.119-0.616-0.191c-0.242-0.122-0.362-0.284-0.362-0.486c0-0.185,0.092-0.334,0.275-0.447
			c0.184-0.113,0.453-0.17,0.811-0.17c0.535,0,0.912,0.103,1.128,0.309c0.133,0.144,0.208,0.304,0.226,0.48h0.872
			c0.008-0.302-0.105-0.583-0.337-0.845c-0.372-0.412-0.976-0.619-1.813-0.619c-0.642,0-1.151,0.137-1.531,0.41
			c-0.379,0.272-0.568,0.63-0.568,1.071c0,0.375,0.201,0.667,0.604,0.879c0.226,0.122,0.577,0.232,1.053,0.331L19.5,19.34
			c0.399,0.084,0.667,0.158,0.802,0.222c0.211,0.104,0.317,0.257,0.317,0.458C20.619,20.283,20.486,20.478,20.221,20.605z"/>
		
			<rect x="22.532" y="16.636" fill="#FFFFFF" stroke="#FFFFFF" stroke-width="0.25" stroke-miterlimit="10" width="0.938" height="4.641"/>
		
			<rect x="22.532" y="14.881" fill="#FFFFFF" stroke="#FFFFFF" stroke-width="0.25" stroke-miterlimit="10" width="0.938" height="0.888"/>
		<path fill="#FFFFFF" stroke="#FFFFFF" stroke-width="0.25" stroke-miterlimit="10" d="M25.049,15.312v1.302h-0.743v0.64h0.743
			v3.086c0,0.3,0.077,0.542,0.23,0.73c0.153,0.187,0.445,0.281,0.877,0.281c0.134,0,0.256-0.006,0.371-0.018
			c0.114-0.012,0.227-0.031,0.332-0.057v-0.623c-0.068,0.009-0.131,0.013-0.181,0.015c-0.051,0.002-0.101,0.003-0.146,0.003
			c-0.166,0-0.285-0.016-0.357-0.048c-0.13-0.055-0.193-0.164-0.193-0.326v-3.043h0.877v-0.64h-0.877v-1.302H25.049z"/>
		<path fill="#FFFFFF" stroke="#FFFFFF" stroke-width="0.25" stroke-miterlimit="10" d="M34.152,20.659
			c0.028,0.186,0.082,0.329,0.158,0.431c0.143,0.192,0.375,0.287,0.691,0.287c0.131,0,0.23-0.004,0.309-0.013
			c0.074-0.009,0.184-0.03,0.328-0.065V20.72c-0.059,0.009-0.113,0.015-0.165,0.021c-0.051,0.004-0.097,0.006-0.139,0.006
			c-0.126,0-0.209-0.025-0.248-0.073c-0.039-0.05-0.06-0.115-0.06-0.196V17.79c0-0.441-0.201-0.766-0.6-0.976
			c-0.402-0.208-0.927-0.313-1.572-0.313c-0.557,0-1.045,0.113-1.468,0.338c-0.422,0.225-0.641,0.627-0.657,1.203h0.861
			c0.034-0.242,0.107-0.424,0.221-0.547c0.2-0.222,0.543-0.332,1.021-0.332c0.417,0,0.736,0.06,0.96,0.182
			c0.224,0.12,0.336,0.315,0.336,0.583c0,0.131-0.021,0.232-0.062,0.302c-0.072,0.127-0.215,0.203-0.427,0.226l-1.472,0.157
			c-0.516,0.055-0.936,0.201-1.251,0.439c-0.318,0.238-0.479,0.573-0.479,1.005c0,0.394,0.164,0.723,0.485,0.985
			c0.324,0.262,0.74,0.394,1.249,0.394c0.424,0,0.812-0.077,1.163-0.231C33.691,21.049,33.963,20.868,34.152,20.659z M32.392,20.767
			c-0.267,0-0.495-0.064-0.69-0.195c-0.195-0.131-0.293-0.309-0.293-0.534c0-0.299,0.144-0.516,0.429-0.652
			c0.169-0.081,0.42-0.14,0.753-0.178l0.561-0.061c0.168-0.017,0.344-0.046,0.521-0.087c0.178-0.041,0.323-0.091,0.437-0.153v0.63
			c0,0.481-0.258,0.827-0.77,1.039C33.031,20.704,32.717,20.767,32.392,20.767z"/>
		<path fill="#FFFFFF" stroke="#FFFFFF" stroke-width="0.25" stroke-miterlimit="10" d="M40.551,17.245
			c-0.124-0.204-0.261-0.357-0.411-0.462c-0.267-0.183-0.618-0.274-1.057-0.274c-0.388,0-0.729,0.088-1.034,0.265
			c-0.18,0.105-0.377,0.272-0.596,0.501v-0.662H36.54v4.663h0.922v-2.473c0-0.602,0.144-1.016,0.429-1.246
			c0.286-0.229,0.604-0.344,0.952-0.344c0.383,0,0.646,0.108,0.784,0.326c0.09,0.146,0.134,0.377,0.134,0.693v3.043h0.938v-2.712
			c0-0.482,0.131-0.827,0.393-1.033c0.262-0.207,0.574-0.309,0.936-0.309c0.062,0,0.112,0.014,0.17,0.021
			c-0.088-0.236-0.164-0.478-0.26-0.709c-0.236,0.024-0.463,0.068-0.664,0.155C40.997,16.811,40.755,16.995,40.551,17.245z"/>
		<path fill="none" stroke="#FFFFFF" stroke-miterlimit="10" d="M42.97,21.277h0.247c-0.068-0.486-0.145-0.969-0.247-1.443V21.277z"
			/>
		<path fill="#FFFFFF" stroke="#FFFFFF" stroke-width="0.25" stroke-miterlimit="10" d="M6.812,29.546
			c0-0.777-0.243-1.365-0.729-1.764c-0.324-0.27-0.7-0.438-1.121-0.527c0.044,0.262,0.078,0.523,0.132,0.78
			c0.214,0.106,0.386,0.264,0.511,0.474c0.161,0.271,0.242,0.625,0.242,1.061c0,0.263-0.041,0.509-0.107,0.746
			c0.129,0.373,0.256,0.748,0.408,1.111c0.006-0.007,0.016-0.012,0.021-0.02C6.597,30.919,6.812,30.298,6.812,29.546z"/>
		<path fill="#FFFFFF" stroke="#FFFFFF" stroke-width="0.25" stroke-miterlimit="10" d="M10.616,27.21
			c-0.355,0-0.678,0.061-0.969,0.18c-0.292,0.119-0.566,0.314-0.826,0.586v-0.66H7.944v4.662h0.923v-2.44
			c0-0.306,0.022-0.539,0.07-0.703c0.046-0.164,0.146-0.322,0.3-0.478c0.19-0.192,0.414-0.319,0.667-0.385
			c0.14-0.037,0.318-0.055,0.539-0.055c0.43,0,0.728,0.145,0.893,0.436c0.1,0.172,0.148,0.4,0.148,0.688v2.938h0.938v-2.99
			c0-0.471-0.075-0.832-0.226-1.084C11.922,27.442,11.396,27.21,10.616,27.21z"/>
		<path fill="#FFFFFF" stroke="#FFFFFF" stroke-width="0.25" stroke-miterlimit="10" d="M17.497,29.683
			c-0.23-0.125-0.683-0.258-1.358-0.395l-0.622-0.127c-0.271-0.055-0.478-0.119-0.615-0.189c-0.242-0.121-0.362-0.285-0.362-0.486
			c0-0.186,0.092-0.334,0.276-0.446c0.184-0.113,0.453-0.172,0.811-0.172c0.536,0,0.912,0.104,1.128,0.311
			c0.133,0.144,0.208,0.304,0.227,0.479h0.872c0.007-0.301-0.105-0.582-0.339-0.844c-0.37-0.412-0.976-0.617-1.812-0.617
			c-0.641,0-1.151,0.137-1.531,0.408c-0.379,0.272-0.567,0.629-0.567,1.071c0,0.373,0.2,0.666,0.604,0.88
			c0.226,0.12,0.577,0.231,1.053,0.329l0.745,0.158c0.399,0.084,0.667,0.156,0.802,0.222c0.213,0.104,0.318,0.258,0.318,0.456
			c0,0.267-0.132,0.46-0.396,0.589c-0.267,0.125-0.572,0.188-0.922,0.188c-0.585,0-0.998-0.125-1.234-0.379
			c-0.128-0.139-0.207-0.34-0.235-0.6h-0.887c0.023,0.463,0.208,0.854,0.553,1.166c0.344,0.315,0.93,0.475,1.757,0.475
			c0.77,0,1.341-0.15,1.716-0.453c0.375-0.301,0.563-0.66,0.563-1.076C18.035,30.198,17.856,29.884,17.497,29.683z"/>
		<path fill="#FFFFFF" stroke="#FFFFFF" stroke-width="0.25" stroke-miterlimit="10" d="M21.905,32.075
			c0.411-0.082,0.755-0.24,1.033-0.471c0.166-0.136,0.316-0.308,0.45-0.519c0.137-0.209,0.216-0.397,0.238-0.569H22.72
			c-0.065,0.204-0.179,0.389-0.339,0.547c-0.285,0.27-0.666,0.405-1.144,0.405c-0.514,0-0.892-0.143-1.135-0.432
			c-0.245-0.287-0.375-0.666-0.393-1.142h3.994c0-0.471-0.026-0.812-0.081-1.028c-0.061-0.312-0.183-0.586-0.366-0.822
			c-0.19-0.246-0.468-0.444-0.832-0.603c-0.362-0.155-0.738-0.233-1.125-0.233c-0.768,0-1.39,0.235-1.866,0.701
			c-0.475,0.469-0.713,1.075-0.713,1.825c0,0.761,0.236,1.351,0.708,1.773c0.473,0.422,1.048,0.635,1.728,0.635
			C21.437,32.146,21.686,32.122,21.905,32.075z M20.184,28.284c0.285-0.26,0.638-0.389,1.059-0.389c0.586,0,1.005,0.188,1.256,0.565
			c0.135,0.201,0.223,0.474,0.26,0.812h-3.025C19.749,28.874,19.9,28.544,20.184,28.284z"/>
		<path fill="#FFFFFF" stroke="#FFFFFF" stroke-width="0.25" stroke-miterlimit="10" d="M26.99,27.882
			c0.435,0,0.746,0.094,0.939,0.285c0.195,0.189,0.32,0.428,0.374,0.717h0.897c-0.078-0.625-0.312-1.064-0.7-1.32
			c-0.388-0.254-0.892-0.383-1.511-0.383c-0.724,0-1.32,0.228-1.789,0.685c-0.469,0.454-0.701,1.092-0.701,1.909
			c0,0.67,0.213,1.226,0.641,1.672c0.428,0.443,1.001,0.669,1.719,0.669c0.638,0,1.164-0.146,1.572-0.433
			c0.412-0.283,0.667-0.736,0.77-1.354h-0.896c-0.085,0.344-0.238,0.615-0.464,0.814c-0.224,0.194-0.526,0.295-0.91,0.295
			c-0.499,0-0.864-0.158-1.097-0.478c-0.232-0.321-0.35-0.715-0.35-1.18c0-0.466,0.082-0.854,0.246-1.171
			C25.984,28.126,26.404,27.882,26.99,27.882z"/>
		<path fill="#FFFFFF" stroke="#FFFFFF" stroke-width="0.25" stroke-miterlimit="10" d="M31.242,26.015h-0.932v1.301h-0.744v0.64
			h0.744v3.088c0,0.299,0.077,0.543,0.229,0.729c0.153,0.188,0.446,0.283,0.876,0.283c0.134,0,0.258-0.009,0.373-0.019
			c0.113-0.015,0.225-0.033,0.33-0.06v-0.621c-0.068,0.006-0.129,0.015-0.18,0.017c-0.052,0.002-0.099,0.002-0.145,0.002
			c-0.167,0-0.288-0.017-0.357-0.047c-0.131-0.058-0.195-0.166-0.195-0.33v-3.043h0.877v-0.64h-0.877V26.015L31.242,26.015z"/>
		<path fill="#FFFFFF" stroke="#FFFFFF" stroke-width="0.25" stroke-miterlimit="10" d="M37.632,28.868
			c-0.062-0.312-0.185-0.586-0.367-0.822c-0.188-0.246-0.466-0.445-0.829-0.602s-0.738-0.234-1.125-0.234
			c-0.77,0-1.392,0.236-1.865,0.701c-0.477,0.469-0.715,1.076-0.715,1.826c0,0.76,0.236,1.35,0.709,1.772s1.047,0.636,1.728,0.636
			c0.278,0,0.526-0.023,0.748-0.07c0.411-0.082,0.754-0.24,1.034-0.471c0.164-0.136,0.314-0.308,0.449-0.519
			c0.137-0.209,0.217-0.397,0.239-0.569H36.73c-0.066,0.204-0.18,0.389-0.34,0.547c-0.285,0.27-0.667,0.405-1.145,0.405
			c-0.512,0-0.891-0.143-1.135-0.432c-0.244-0.287-0.375-0.666-0.393-1.142h3.995C37.715,29.427,37.688,29.085,37.632,28.868z
			 M33.74,29.274c0.018-0.4,0.166-0.73,0.453-0.99c0.285-0.26,0.637-0.389,1.057-0.389c0.587,0,1.006,0.188,1.257,0.565
			c0.136,0.201,0.222,0.474,0.26,0.812H33.74V29.274z"/>
		<path fill="#FFFFFF" stroke="#FFFFFF" stroke-width="0.25" stroke-miterlimit="10" d="M40.002,26.015h-0.934v1.301h-0.744v0.64
			h0.744v3.088c0,0.299,0.076,0.543,0.229,0.729c0.153,0.188,0.444,0.283,0.877,0.283c0.134,0,0.257-0.009,0.371-0.019
			c0.114-0.015,0.226-0.033,0.331-0.06v-0.621c-0.066,0.006-0.128,0.015-0.182,0.017c-0.049,0.002-0.098,0.002-0.142,0.002
			c-0.168,0-0.288-0.017-0.36-0.047c-0.129-0.058-0.192-0.166-0.192-0.33v-3.043h0.876v-0.64h-0.876L40.002,26.015L40.002,26.015z"
			/>
		<path fill="#FFFFFF" stroke="#FFFFFF" stroke-width="0.25" stroke-miterlimit="10" d="M42.725,27.315h-0.945v3.17
			c0,0.358,0.07,0.646,0.195,0.875c0.299-0.725,0.54-1.475,0.749-2.238L42.725,27.315L42.725,27.315z"/>
		<path fill="#FFFFFF" stroke="#FFFFFF" stroke-width="0.25" stroke-miterlimit="10" d="M16.041,41.028
			c-0.048,0.192-0.124,0.356-0.215,0.505c0.264,0.124,0.521,0.256,0.792,0.368c0.153-0.241,0.263-0.528,0.32-0.873H16.041z"/>
		<path fill="#FFFFFF" stroke="#FFFFFF" stroke-width="0.25" stroke-miterlimit="10" d="M13.466,39.312
			c0.253-0.485,0.673-0.729,1.262-0.729c0.431,0,0.743,0.096,0.938,0.287c0.195,0.188,0.32,0.426,0.375,0.715h0.897
			c-0.079-0.623-0.312-1.063-0.7-1.319c-0.389-0.255-0.892-0.384-1.51-0.384c-0.726,0-1.321,0.229-1.789,0.685
			c-0.252,0.244-0.432,0.545-0.548,0.896c0.287,0.217,0.567,0.44,0.866,0.642C13.292,39.806,13.351,39.533,13.466,39.312z"/>
		
			<rect x="17.861" y="36.282" fill="#FFFFFF" stroke="#FFFFFF" stroke-width="0.25" stroke-miterlimit="10" width="0.938" height="0.889"/>
		<path fill="#FFFFFF" stroke="#FFFFFF" stroke-width="0.25" stroke-miterlimit="10" d="M17.861,38.038v4.318
			c0.31,0.104,0.622,0.197,0.938,0.287v-4.605H17.861z"/>
		<path fill="#FFFFFF" stroke="#FFFFFF" stroke-width="0.25" stroke-miterlimit="10" d="M22.865,37.909
			c-0.355,0-0.678,0.061-0.969,0.18c-0.291,0.121-0.566,0.314-0.826,0.588v-0.662h-0.877v4.664h0.923v-2.441
			c0-0.307,0.022-0.541,0.07-0.704c0.046-0.162,0.146-0.322,0.3-0.478c0.19-0.188,0.413-0.318,0.666-0.383
			c0.141-0.039,0.318-0.055,0.539-0.055c0.43,0,0.728,0.143,0.892,0.434c0.099,0.172,0.148,0.402,0.148,0.688v2.938h0.938v-2.99
			c0-0.471-0.075-0.834-0.226-1.086C24.171,38.144,23.646,37.909,22.865,37.909z"/>
		<path fill="#939393" d="M25.839,43.259c0.001,0.012,0.006,0.021,0.007,0.033c0.114-0.011,0.229-0.021,0.342-0.033H25.839z"/>
		<path fill="#FFFFFF" stroke="#FFFFFF" stroke-width="0.25" stroke-miterlimit="10" d="M29.617,38.06v0.588
			c-0.18-0.194-0.357-0.344-0.529-0.444c-0.32-0.181-0.695-0.269-1.124-0.269c-0.636,0-1.174,0.217-1.622,0.654
			c-0.447,0.439-0.671,1.051-0.671,1.83c0,0.826,0.221,1.42,0.666,1.777c0.442,0.359,0.963,0.539,1.555,0.539
			c0.427,0,0.769-0.06,1.025-0.176c0.26-0.115,0.479-0.293,0.665-0.529c0.004,0.203-0.002,0.38-0.014,0.544
			c0.306-0.091,0.603-0.198,0.9-0.304V38.06H29.617L29.617,38.06z M29.395,41.333c-0.271,0.51-0.734,0.764-1.395,0.764
			c-0.422,0-0.756-0.139-1.006-0.412c-0.25-0.272-0.375-0.676-0.375-1.199c0-0.448,0.062-0.811,0.188-1.086
			c0.238-0.518,0.682-0.774,1.327-0.774c0.433,0,0.787,0.14,1.065,0.418c0.277,0.281,0.418,0.707,0.418,1.285
			C29.617,40.712,29.543,41.044,29.395,41.333z"/>
		<path fill="#FFFFFF" stroke="#FFFFFF" stroke-width="0.25" stroke-miterlimit="10" d="M35.193,38.61
			c-0.449,0.44-0.678,1.013-0.703,1.703c0.377-0.242,0.738-0.5,1.098-0.766c0.072-0.212,0.18-0.404,0.354-0.562
			c0.219-0.2,0.488-0.299,0.785-0.346c0.258-0.224,0.512-0.451,0.758-0.688c-0.142-0.021-0.281-0.044-0.426-0.044
			C36.289,37.909,35.668,38.146,35.193,38.61z"/>
	</g>
	<g enable-background="new    ">
		<path fill="#333333" d="M18.395,38.16v-1.244c3.381-0.239,3.773-0.525,3.773-3.491v-9.137c0-2.631-0.111-2.871-3.436-3.253v-1.148
			c2.646-0.383,4.957-0.957,7.097-1.77v15.308c0,2.966,0.395,3.252,3.773,3.491v1.244H18.395z M21.155,12.089
			c0-1.292,1.184-2.249,2.592-2.249c1.408,0,2.478,0.957,2.478,2.249c0,1.148-1.07,2.201-2.535,2.201
			C22.338,14.29,21.155,13.237,21.155,12.089z"/>
	</g>
</g>
</svg>
