<?xml version="1.0" encoding="utf-8"?>
<!-- Generator: Adobe Illustrator 16.0.4, SVG Export Plug-In . SVG Version: 6.00 Build 0)  -->
<!DOCTYPE svg PUBLIC "-//W3C//DTD SVG 1.1//EN" "http://www.w3.org/Graphics/SVG/1.1/DTD/svg11.dtd">
<svg version="1.1" id="Layer_1" xmlns="http://www.w3.org/2000/svg" xmlns:xlink="http://www.w3.org/1999/xlink" x="0px" y="0px"
	 width="400px" height="500px" viewBox="0 0 400 500" enable-background="new 0 0 400 500" xml:space="preserve">
<path fill-rule="evenodd" clip-rule="evenodd" fill="#333333" d="M127.475,327.341c-53.109-33.408-52.535-52.548,2.974-103.004
	c-2.335-2.125-4.403-4.495-6.914-6.218c-26.285-18.035-36.306-43.62-33.463-74.431c2.856-30.962,20.05-52.056,48.212-64.155
	c31.391-13.486,64.006-15.258,96.235-4.76c16.395,5.34,31.438,4.564,47.42,0.689c12.867-3.119,26.02-5.067,40.084-7.733
	c0,16.182,0,30.821,0,47.951c-14.848-4.917-28.832-9.549-45.814-15.172c3.438,4.59,4.756,6.755,6.459,8.561
	c31.043,32.967,24.672,85.091-13.912,109.1c-32.451,20.192-68.358,21.56-104.554,15.25c-12.318-2.146-16.626,3.941-19.389,12.158
	c-3.302,9.82,1.728,17.232,11.568,20.253c4.751,1.458,9.993,1.771,15.018,1.808c25.908,0.187,51.82,0.01,77.73,0.191
	c8.777,0.062,17.664,0.038,26.301,1.355c57.795,8.81,62.088,59.646,50.389,98.943c-9.25,31.068-33.738,46.975-63.107,54.752
	c-49.75,13.172-99.842,12.758-149.079-2.934c-11.137-3.551-22.189-9.855-31.08-17.465c-20.276-17.348-17.504-46.277,5.659-59.467
	C100.023,336.288,113.639,332.731,127.475,327.341z M195.606,340.005c-11.552,0-23.104-0.053-34.655,0.012
	c-18.979,0.107-28.208,10.127-26.903,29.096c0.943,13.705,10.673,26.953,27.548,28.803c23.051,2.529,46.624,1.582,69.87,0.271
	c6.988-0.395,14.749-5.781,20.183-10.955c9.659-9.197,13.112-21.682,8.269-34.307c-4.494-11.707-16.093-12.604-26.887-12.871
	C220.562,339.747,208.081,339.983,195.606,340.005z M227.469,152.764c-1.633-12.864-2.195-25.432-5.015-37.471
	c-3.458-14.761-12.093-19.733-27.262-20.183c-14.859-0.439-24.123,7.682-25.05,20.614c-1.732,24.188-1.637,48.675,0.078,72.87
	c0.91,12.848,10.945,19.033,24.737,19.165c13.887,0.133,23.957-4.768,27.225-18.35C225.071,177.395,225.81,164.864,227.469,152.764z
	"/>
</svg>
