<svg id="Layer_1" data-name="Layer 1" xmlns="http://www.w3.org/2000/svg" viewBox="0 0 48 48"><defs><style>.cls-1{fill:none;stroke:#333;stroke-miterlimit:10;stroke-width:3px;}.cls-2{fill:#333;}</style></defs><line class="cls-1" x1="8.51" y1="17.89" x2="8.51" y2="29.66"/><line class="cls-1" x1="2.62" y1="23.77" x2="14.39" y2="23.77"/><line class="cls-1" x1="33.61" y1="23.77" x2="45.38" y2="23.77"/><path class="cls-2" d="M22.72,2.71H25l3.42,9.69H26.24l-.64-2H22l-.65,2H19.26Zm-.14,6h2.48L23.84,4.93Z"/><path class="cls-2" d="M27.22,20a2.45,2.45,0,0,1,.44,1.48,2.17,2.17,0,0,1-.45,1.43,2.32,2.32,0,0,1-.73.55,2.14,2.14,0,0,1,1.11.85A2.51,2.51,0,0,1,28,25.69a2.83,2.83,0,0,1-.43,1.55,2.75,2.75,0,0,1-.68.76,2.69,2.69,0,0,1-1.1.49,7.33,7.33,0,0,1-1.37.13H20V18.93h4.68A3,3,0,0,1,27.22,20ZM22,20.61v2.14h2.35a2,2,0,0,0,1-.24.92.92,0,0,0,.39-.85.88.88,0,0,0-.52-.9,3.66,3.66,0,0,0-1.14-.15Zm0,3.74v2.58h2.35a2.18,2.18,0,0,0,1-.17,1.21,1.21,0,0,0,.64-1.21,1,1,0,0,0-.62-1,2.45,2.45,0,0,0-1-.17Z"/><path class="cls-2" d="M20.91,36.34a4,4,0,0,1,3-1.19,4,4,0,0,1,3.54,1.6,3.49,3.49,0,0,1,.66,1.81h-2a2.63,2.63,0,0,0-.5-1.05,2,2,0,0,0-1.6-.63,1.94,1.94,0,0,0-1.7.89,4.3,4.3,0,0,0-.63,2.52,3.82,3.82,0,0,0,.66,2.44,2.07,2.07,0,0,0,1.67.81,1.88,1.88,0,0,0,1.59-.7,3,3,0,0,0,.5-1.12h2a4.33,4.33,0,0,1-1.33,2.58,3.86,3.86,0,0,1-2.74,1A4.14,4.14,0,0,1,20.74,44a5.46,5.46,0,0,1-1.18-3.7A5.35,5.35,0,0,1,20.91,36.34Z"/></svg>
