<svg xmlns="http://www.w3.org/2000/svg" viewBox="0 0 48 48"><defs><style>.cls-1{fill:#333;}.cls-2{fill:#b3b3b3;}.cls-3{fill:#666;}</style></defs><g id="Draw_Layer" data-name="Draw Layer"><path class="cls-1" d="M10.76,12.6h1.68L15,19.71H13.34l-.47-1.46H10.26l-.49,1.46H8.22ZM10.66,17h1.82l-.9-2.8Z"/><path class="cls-1" d="M26.19,5.79a1.87,1.87,0,0,1,.32,1.09,1.56,1.56,0,0,1-.33,1,1.6,1.6,0,0,1-.54.41,1.55,1.55,0,0,1,.82.63,1.82,1.82,0,0,1,.28,1,2.07,2.07,0,0,1-.32,1.13,1.92,1.92,0,0,1-.5.56,2.16,2.16,0,0,1-.8.36,5.34,5.34,0,0,1-1,.09h-3.2V5h3.43A2.23,2.23,0,0,1,26.19,5.79Zm-3.86.48V7.84h1.72a1.45,1.45,0,0,0,.76-.18A.68.68,0,0,0,25.09,7a.63.63,0,0,0-.38-.66,2.8,2.8,0,0,0-.84-.11Zm0,2.74v1.9h1.72a1.57,1.57,0,0,0,.72-.13.89.89,0,0,0,.47-.88.78.78,0,0,0-.45-.77A2.12,2.12,0,0,0,24.08,9Z"/><path class="cls-1" d="M34.26,19.73a2.9,2.9,0,0,1,2.18-.88A3,3,0,0,1,39,20a2.72,2.72,0,0,1,.49,1.33H38a2,2,0,0,0-.36-.77,1.47,1.47,0,0,0-1.18-.46,1.43,1.43,0,0,0-1.25.65,3.16,3.16,0,0,0-.46,1.85,2.81,2.81,0,0,0,.48,1.79,1.52,1.52,0,0,0,1.23.6,1.41,1.41,0,0,0,1.17-.51,2.3,2.3,0,0,0,.37-.83h1.47a3.2,3.2,0,0,1-1,1.89,2.85,2.85,0,0,1-2,.73,3,3,0,0,1-2.38-1,4,4,0,0,1-.87-2.71A3.91,3.91,0,0,1,34.26,19.73Z"/><path class="cls-2" d="M36.4,28.89c-4.57,0-8.27,6.3-8.27,14.08H44.66C44.66,35.19,41,28.89,36.4,28.89Z"/><path class="cls-3" d="M11.6,22C7,22,3.34,31.37,3.34,43H19.87C19.87,31.37,16.17,22,11.6,22Z"/><path class="cls-1" d="M23.82,14.82C18.93,14.82,15,27.42,15,43H32.68C32.68,27.42,28.72,14.82,23.82,14.82Z"/></g></svg>
