<svg xmlns="http://www.w3.org/2000/svg" viewBox="0 0 48 48"><defs><style>.cls-1{fill:#333;}.cls-2{fill:#b3b3b3;}.cls-3{fill:#666;}</style></defs><g id="Draw_Layer" data-name="Draw Layer"><path class="cls-1" d="M9.23,11.29h1.88l2.8,7.93h-1.8l-.52-1.63H8.67l-.54,1.63H6.4Zm-.11,4.93h2l-1-3.12Z"/><path class="cls-1" d="M26.44,3.69A2,2,0,0,1,26.8,4.9a1.73,1.73,0,0,1-.37,1.17,1.63,1.63,0,0,1-.6.45,1.82,1.82,0,0,1,.92.7,2.15,2.15,0,0,1,.3,1.16,2.29,2.29,0,0,1-.35,1.27,2.22,2.22,0,0,1-.56.62,2.06,2.06,0,0,1-.9.4,5.52,5.52,0,0,1-1.12.11H20.55V2.85h3.83A2.46,2.46,0,0,1,26.44,3.69Zm-4.31.54V6h1.93a1.63,1.63,0,0,0,.84-.19.76.76,0,0,0,.32-.7.7.7,0,0,0-.43-.73,3,3,0,0,0-.93-.12Zm0,3.06V9.4h1.93a1.91,1.91,0,0,0,.8-.14,1,1,0,0,0,.52-1,.86.86,0,0,0-.5-.85,2.11,2.11,0,0,0-.8-.13Z"/><path class="cls-1" d="M35.44,19.23a3.69,3.69,0,0,1,5.33.34,2.77,2.77,0,0,1,.54,1.48H39.66a2.22,2.22,0,0,0-.41-.86,1.8,1.8,0,0,0-2.71.21A3.54,3.54,0,0,0,36,22.46a3.12,3.12,0,0,0,.54,2,1.7,1.7,0,0,0,1.37.66,1.55,1.55,0,0,0,1.3-.57,2.4,2.4,0,0,0,.41-.92H41.3a3.57,3.57,0,0,1-1.09,2.11,3.16,3.16,0,0,1-2.24.81,3.35,3.35,0,0,1-2.66-1.09,4.43,4.43,0,0,1-1-3A4.41,4.41,0,0,1,35.44,19.23Z"/><path class="cls-2" d="M37.83,29.46c-5.09,0-9.22,7-9.22,15.69H47C47,36.48,42.92,29.46,37.83,29.46Z"/><path class="cls-3" d="M10.18,21.74C5.08,21.74,1,32.22,1,45.15H19.39C19.39,32.22,15.27,21.74,10.18,21.74Z"/><path class="cls-1" d="M23.8,13.77c-5.45,0-9.88,14.05-9.88,31.38H33.68C33.68,27.82,29.26,13.77,23.8,13.77Z"/></g></svg>
