<?xml version="1.0" encoding="utf-8"?>
<!-- Generator: Adobe Illustrator 16.0.4, SVG Export Plug-In . SVG Version: 6.00 Build 0)  -->
<!DOCTYPE svg PUBLIC "-//W3C//DTD SVG 1.1//EN" "http://www.w3.org/Graphics/SVG/1.1/DTD/svg11.dtd">
<svg version="1.1" id="Layer_1" xmlns="http://www.w3.org/2000/svg" xmlns:xlink="http://www.w3.org/1999/xlink" x="0px" y="0px"
	 width="48px" height="48px" viewBox="0 0 48 48" enable-background="new 0 0 48 48" xml:space="preserve">
<g>
	<path fill="#333333" d="M23.033,5.881c0.638,0,1.276,0,1.915,0c0.561,0.071,1.121,0.131,1.678,0.217
		c4.881,0.748,8.832,3.104,11.791,7.031c3.186,4.229,4.29,9.02,3.317,14.219c-0.995,5.32-3.907,9.39-8.51,12.192
		c-3.716,2.264-7.791,3.031-12.085,2.325C16.172,41.05,12.2,38.55,9.27,34.459c-2.623-3.662-3.693-7.775-3.247-12.25
		c0.506-5.059,2.804-9.178,6.742-12.371c2.53-2.052,5.429-3.298,8.662-3.75C21.961,6.014,22.498,5.949,23.033,5.881z M24.008,8.74
		C15.555,8.791,8.829,15.612,8.812,23.92c-0.017,8.563,6.945,15.329,15.345,15.274c8.584-0.055,15.482-7.221,15.132-15.867
		C38.97,15.474,32.479,8.743,24.008,8.74z"/>
	<path fill-rule="evenodd" clip-rule="evenodd" fill="#333333" d="M24.3,34.464c-3.213-0.072-5.953-0.863-8.266-2.838
		c-1.214-1.037-2.105-2.293-2.382-3.909c-0.038-0.219-0.046-0.445-0.049-0.669c-0.008-0.807,0.563-1.418,1.338-1.44
		c0.769-0.022,1.378,0.525,1.431,1.314c0.098,1.457,0.995,2.388,2.112,3.14c1.946,1.309,4.123,1.744,6.44,1.583
		c1.702-0.12,3.312-0.562,4.717-1.547c0.598-0.419,1.111-0.979,1.603-1.528c0.399-0.449,0.543-1.034,0.575-1.642
		c0.041-0.771,0.677-1.351,1.425-1.32c0.788,0.033,1.364,0.644,1.348,1.437c-0.035,1.732-0.87,3.09-2.07,4.242
		c-1.808,1.735-4.015,2.652-6.468,3.012C25.401,34.394,24.739,34.423,24.3,34.464z"/>
	<path fill-rule="evenodd" clip-rule="evenodd" fill="#333333" d="M20.958,18.861c-0.038,0.805-0.198,1.752-0.768,2.579
		c-0.829,1.205-2.055,1.207-2.889,0.014c-1.028-1.472-1.017-4.189,0.022-5.646c0.818-1.145,2.051-1.135,2.852,0.023
		C20.681,16.561,20.966,17.601,20.958,18.861z"/>
	<path fill-rule="evenodd" clip-rule="evenodd" fill="#333333" d="M31.472,18.978c0,0.612-0.166,1.451-0.596,2.222
		c-0.114,0.204-0.254,0.401-0.413,0.571c-0.751,0.801-1.718,0.766-2.41-0.083c-0.733-0.9-0.943-1.97-0.932-3.089
		c0.008-0.993,0.214-1.947,0.812-2.775c0.769-1.062,1.93-1.073,2.706-0.02c0.153,0.207,0.282,0.437,0.391,0.671
		C31.357,17.184,31.479,17.938,31.472,18.978z"/>
</g>
</svg>
