<?xml version="1.0" encoding="UTF-8" standalone="no"?>
<svg
   xmlns:dc="http://purl.org/dc/elements/1.1/"
   xmlns:cc="http://creativecommons.org/ns#"
   xmlns:rdf="http://www.w3.org/1999/02/22-rdf-syntax-ns#"
   xmlns:svg="http://www.w3.org/2000/svg"
   xmlns="http://www.w3.org/2000/svg"
   xmlns:sodipodi="http://sodipodi.sourceforge.net/DTD/sodipodi-0.dtd"
   xmlns:inkscape="http://www.inkscape.org/namespaces/inkscape"
   version="1.1"
   id="Capa_1"
   x="0px"
   y="0px"
   width="512px"
   height="512px"
   viewBox="0 0 512.002 512.002"
   style="enable-background:new 0 0 512.002 512.002;"
   xml:space="preserve"
   inkscape:version="0.91 r13725"
   sodipodi:docname="twitter-small.svg"><metadata
     id="metadata41"><rdf:RDF><cc:Work
         rdf:about=""><dc:format>image/svg+xml</dc:format><dc:type
           rdf:resource="http://purl.org/dc/dcmitype/StillImage" /><dc:title></dc:title></cc:Work></rdf:RDF></metadata><defs
     id="defs39" /><sodipodi:namedview
     pagecolor="#ffffff"
     bordercolor="#666666"
     borderopacity="1"
     objecttolerance="10"
     gridtolerance="10"
     guidetolerance="10"
     inkscape:pageopacity="0"
     inkscape:pageshadow="2"
     inkscape:window-width="1280"
     inkscape:window-height="698"
     id="namedview37"
     showgrid="false"
     inkscape:zoom="0.65186406"
     inkscape:cx="170.29961"
     inkscape:cy="227.85594"
     inkscape:window-x="0"
     inkscape:window-y="1"
     inkscape:window-maximized="1"
     inkscape:current-layer="Capa_1" /><g
     id="g3"
     transform="matrix(0.70041899,0,0,0.70041899,76.693188,76.693038)"><path
       d="m 512.002,97.211 c -18.84,8.354 -39.082,14.001 -60.33,16.54 21.686,-13 38.342,-33.585 46.186,-58.115 -20.299,12.039 -42.777,20.78 -66.705,25.49 -19.16,-20.415 -46.461,-33.17 -76.674,-33.17 -58.011,0 -105.042,47.029 -105.042,105.039 0,8.233 0.929,16.25 2.72,23.939 -87.3,-4.382 -164.701,-46.2 -216.509,-109.753 -9.042,15.514 -14.223,33.558 -14.223,52.809 0,36.444 18.544,68.596 46.73,87.433 -17.219,-0.546 -33.416,-5.271 -47.577,-13.139 -0.01,0.438 -0.01,0.878 -0.01,1.321 0,50.894 36.209,93.348 84.261,103 -8.813,2.399 -18.094,3.687 -27.674,3.687 -6.769,0 -13.349,-0.66 -19.764,-1.888 13.368,41.73 52.16,72.104 98.126,72.949 -35.95,28.176 -81.243,44.967 -130.458,44.967 -8.479,0 -16.84,-0.496 -25.058,-1.471 46.486,29.807 101.701,47.197 161.021,47.197 193.211,0 298.868,-160.062 298.868,-298.872 0,-4.554 -0.104,-9.084 -0.305,-13.59 20.526,-14.809 38.335,-33.309 52.417,-54.373 z"
       id="path5"
       inkscape:connector-curvature="0"
       style="fill:#333333" /></g>
</svg>