<?xml version="1.0" encoding="utf-8"?>
<!-- Generator: Adobe Illustrator 16.0.4, SVG Export Plug-In . SVG Version: 6.00 Build 0)  -->
<!DOCTYPE svg PUBLIC "-//W3C//DTD SVG 1.1//EN" "http://www.w3.org/Graphics/SVG/1.1/DTD/svg11.dtd">
<svg version="1.1" id="Layer_1" xmlns="http://www.w3.org/2000/svg" xmlns:xlink="http://www.w3.org/1999/xlink" x="0px" y="0px"
	 width="48px" height="48px" viewBox="0 0 48 48" enable-background="new 0 0 48 48" xml:space="preserve">
<g>
	<g>
		<path opacity="0.88" enable-background="new    " d="M43.143,17.053c-0.006-0.022-0.021-0.047-0.035-0.069l-0.096-0.117
			l0.024-0.095c0.008-0.033,0.008-0.067-0.001-0.1c-0.646-2.236-1.741-4.428-3.163-6.344c-0.022-0.028-0.05-0.049-0.08-0.063
			l-0.237-0.1c-0.062-0.025-0.135-0.018-0.187,0.021l-0.192,0.13c-0.127-0.164-0.26-0.34-0.334-0.438
			c-0.326-0.356-0.599-0.721-0.725-0.887c0.009-0.035,0.009-0.072-0.004-0.106l-0.098-0.289c-0.188-0.368-0.779-0.854-0.855-0.916
			c-0.027-0.017-0.248-0.173-0.416-0.238c-0.178-0.069-0.36-0.078-0.383-0.079c-0.038-0.002-0.075,0.008-0.109,0.031
			c-0.518-0.368-1.632-1.265-1.646-1.276c-0.017-0.016-0.041-0.026-0.063-0.035l-0.224-0.069c-0.07-0.021-0.127-0.019-0.176,0.036
			c0,0.001-0.055,0.035-0.23,0.083c-0.227,0.059-0.428,0.086-0.602,0.108l-0.045,0.007c-0.236,0.03-0.318,0.127-0.35,0.205
			l-0.32,0.517C32.587,6.984,32.579,7,32.574,7.018c-0.01,0.025-0.018,0.084,0.002,0.175c-0.004-0.008-0.01-0.017-0.014-0.025
			c-0.074-0.172-0.231-0.306-0.278-0.342c-0.354-0.201-0.962-0.122-1.208-0.079c-0.447,0.075-1.045,0.275-1.165,0.32
			c-0.095,0.038-0.604,0.208-0.866,0.275c-0.154,0.04-0.287,0.079-0.406,0.114c-0.086,0.026-0.156,0.048-0.228,0.066
			c-0.114,0.031-0.693,0.2-1.759,0.519C26.24,8.163,25.975,8.21,25.979,8.21c-0.14,0.015-0.256,0.021-0.35,0.021
			c-0.277,0-0.381-0.041-0.381-0.039c-0.001-0.003-0.004-0.041-0.004-0.041l0.003-0.456c-0.003-0.028-0.026-0.277-0.241-0.391
			c-0.171-0.094-0.391-0.121-0.696-0.136c-0.325-0.014-0.675,0.017-0.853,0.056c-0.329,0.073-0.593,0.217-0.782,0.427
			c-0.274,0.307-0.236,0.571-0.233,0.577c0,0,0.015,0.269,0.035,0.468c0.007,0.073,0.027,0.135,0.056,0.188
			c-0.171,0.079-0.458,0.196-0.904,0.326c-0.819,0.242-1.376,0.29-1.381,0.291c-0.106,0.008-0.183,0.101-0.176,0.207
			c0.017,0.218,0.19,1.182,0.209,1.288c0.008,0.055,0.089,0.536,0.124,0.669c0.032,0.126,0.119,0.402,0.12,0.402
			c0.004,0.024,0.064,0.232,0.28,0.333c0.167,0.079,0.484,0.124,0.822-0.009c0.281-0.108,0.393-0.242,0.5-0.369l0.187-0.22
			c0.002-0.002,0.176-0.157,0.376-0.091c0.184,0.063,0.331,0.271,0.376,0.352c-0.106,0.036-0.237,0.079-0.337,0.104
			c-0.193,0.052-2.079,0.66-2.079,0.66s-0.732,0.233-1.312,0.374c-0.579,0.139-0.9,0.188-1.026,0.195
			c-0.119,0.01-0.141,0.005-0.145,0.003c0,0,0.006-0.01,0.059-0.106c0.002-0.007,0.004-0.014,0.007-0.021
			c0.001-0.002,0.002-0.002,0.002-0.004c0.013-0.03,0.022-0.059,0.025-0.088c0.001-0.013,0.003-0.018,0.004-0.027
			c0.001-0.015,0.003-0.027,0.005-0.042c0-0.003,0-0.006,0-0.01c0-0.027,0-0.051,0-0.051s-0.007-0.013-0.017-0.037
			C18.247,13,18.24,12.986,18.228,12.97c-0.04-0.078-0.107-0.196-0.208-0.306c-0.04-0.044-0.084-0.077-0.127-0.101
			c-0.131-0.075-0.261-0.073-0.261-0.073s-0.325-0.047-0.905,0.198c-0.58,0.244-0.781,0.447-0.903,0.631
			c-0.121,0.183-0.009,0.397-0.009,0.397c0.141,0.201,0.407,0.43,0.407,0.43l-0.007,0.002c-0.183,0.208-0.662,0.4-0.78,0.445
			c-0.017,0.007-0.024,0.011-0.024,0.011s-0.013,0.002-0.032,0.011c-0.149,0.051-0.773,0.26-1.34,0.331
			c-0.311,0.04-0.593,0.06-0.797,0.069c0.276-0.273,0.398-0.569,0.404-0.582c0.263-0.646,0.027-1.285-0.115-1.444
			c-0.134-0.143-0.399-0.341-0.419-0.355c-0.094-0.079-0.324-0.175-0.599-0.049c0.025-0.158,0.076-0.352,0.151-0.532
			c0.127-0.308,0.402-0.844,0.402-0.844c0.017-0.03,0.415-0.708,0.578-1.142c0.172-0.453,0.172-0.801,0.172-0.815
			c0-0.043-0.015-0.084-0.04-0.117c0,0-0.188-0.239-0.29-0.37c0.306,0.065,0.531-0.062,0.574-0.087
			c0.423-0.32,0.686-0.893,0.691-0.91L15.132,7c0.028-0.059,0.025-0.129-0.01-0.186L14.805,6.3
			c-0.026-0.045-0.073-0.078-0.125-0.088c-0.038-0.008-0.102-0.022-0.477,0.107c-0.173,0.059-0.317,0.12-0.417,0.166l-0.104-0.154
			c-0.007-0.008-0.039-0.042-0.045-0.052c-0.087-0.089-0.255-0.1-0.527-0.04c-0.314,0.072-0.758,0.312-0.967,0.589
			c-0.117,0.153-0.172,0.266-0.197,0.336c-0.564,0.485-1.038,0.715-1.142,0.762c-0.19,0.03-0.312,0.121-0.332,0.137
			c-0.53,0.446-1.149,1.166-1.228,1.26C9.218,9.35,9.194,9.385,9.172,9.429C9.147,9.475,9.067,9.72,9.086,9.827
			c0.001,0.009,0.002,0.017,0.005,0.026c-0.24,0.32-0.395,0.498-0.478,0.587c-0.022,0-0.048,0-0.072,0.003
			c-0.094,0.028-0.266,0.136-0.335,0.179c-0.022,0.014-0.04,0.03-0.054,0.05c-0.149,0.209-0.489,0.773-0.599,0.957
			c-0.026,0.012-0.052,0.027-0.077,0.043c-0.027,0.001-0.058,0.011-0.083,0.026l-0.264,0.148c-0.029,0.018-0.053,0.038-0.07,0.068
			c-1.227,2.018-2.073,4.214-2.517,6.528c-0.005,0.029-0.004,0.058,0.004,0.085l0.016,0.062l-0.069,0.154
			c-0.008,0.014-0.011,0.03-0.014,0.046c-0.193,1.113-0.292,2.258-0.292,3.403c0,0.748,0.043,1.499,0.126,2.236
			c0.004,0.032,0.015,0.062,0.033,0.088l0.07,0.103l-0.044,0.104c-0.013,0.031-0.016,0.064-0.013,0.098
			c0.35,2.634,1.212,5.131,2.564,7.425c0.014,0.021,0.031,0.038,0.052,0.055l0.026,0.019l0.022,0.076
			c0.004,0.019,0.011,0.032,0.021,0.049C10.67,38.43,17.011,42,24,42c4.995,0,9.764-1.863,13.434-5.25
			c3.646-3.361,5.887-7.928,6.309-12.854c0.001-0.029-0.002-0.06-0.012-0.091l-0.056-0.123l0.067-0.115
			c0.018-0.023,0.027-0.054,0.029-0.085c0.026-0.438,0.039-0.873,0.039-1.298C43.812,20.443,43.588,18.718,43.143,17.053z
			 M43.21,19.753c0.026-0.027,0.04-0.076,0.037-0.204c0.067,0.496,0.114,0.994,0.144,1.494c-0.035,0.073-0.045,0.232-0.045,0.232
			s-0.025,0.181-0.061,0.176c-0.008-0.001-0.021-0.001-0.036-0.008c-0.049-0.023-0.123-0.122-0.181-0.534
			c-0.076-0.554-0.062-1.136-0.062-1.136s-0.015-0.059,0.021-0.071c0.035-0.014,0.072,0.037,0.072,0.037S43.146,19.812,43.21,19.753
			z M42.779,17.191c0.082,0.312,0.15,0.625,0.219,0.94c-0.098-0.397-0.206-0.764-0.288-1.029L42.779,17.191z M42.709,17.101
			c0.021,0.07,0.045,0.145,0.066,0.224C42.753,17.245,42.727,17.168,42.709,17.101L42.709,17.101z M42.65,17.03l0.007,0.008
			l-0.062-0.071l0,0l0.055,0.06C42.65,17.029,42.65,17.03,42.65,17.03z M41.874,14.598c0.002-0.001,0.002-0.005,0.004-0.006
			c0.294,0.688,0.552,1.388,0.761,2.092c-0.02,0-0.033,0-0.053,0.004c-0.005,0.002-0.007,0.004-0.011,0.006
			c-0.001-0.004-0.003-0.007-0.003-0.007s-0.122-0.352-0.399-1.054c-0.243-0.613-0.31-0.877-0.323-0.934
			c-0.004-0.008-0.004-0.011-0.004-0.011S41.83,14.611,41.874,14.598z M42.596,16.962L42.596,16.962L42.596,16.962L42.596,16.962z
			 M42.57,16.684L42.57,16.684l-0.002-0.002C42.568,16.681,42.57,16.683,42.57,16.684z M39.682,11.111
			c0.049-0.023,0.102-0.056,0.146-0.09c0.014-0.012,0.024-0.024,0.039-0.038c0.327,0.472,0.64,0.956,0.927,1.456
			c-0.034,0.004-0.062,0.048,0.012,0.236c0.045,0.119,0.053,0.16,0.043,0.169c-0.016,0.009-0.072-0.079-0.072-0.079
			c-0.355-0.451-1.092-1.651-1.092-1.651l-0.072-0.048L39.682,11.111z M39.445,11.213c0.009-0.003,0.021-0.008,0.033-0.013
			c0.008-0.003,0.013-0.006,0.021-0.009c0.022-0.011,0.047-0.019,0.063-0.029c0,0,0.006-0.002,0.017-0.005c0,0,0,0,0.001,0
			l0.004,0.005c0.395,0.634,1.096,1.653,1.096,1.653s0.283,0.368,0.35,0.373c0.062,0.005-0.032-0.286-0.032-0.286
			s-0.033-0.115-0.006-0.131c0.259,0.474,0.502,0.958,0.725,1.45l0,0c0,0-0.055,0.028-0.055,0.127c0,0.194,0.188,0.639,0.188,0.639
			s0.402,1.019,0.659,1.73c-0.084,0.047-0.134,0.117-0.312,0.146c-0.225,0.038-0.491,0.117-0.745,0.507
			c-0.079,0.116-0.106,0.24-0.112,0.361c0,0-0.001,0.001-0.002,0.003c0,0.009,0.002,0.015,0.001,0.023
			c0,0.047,0.002,0.094,0.011,0.136c0,0.014,0,0.027,0.002,0.04c0.006,0.037,0.014,0.07,0.024,0.102
			c0.004,0.013,0.006,0.027,0.009,0.038c0,0.002,0,0.003,0.002,0.007c0.033,0.1,0.066,0.165,0.066,0.165s0.139,0.228,0.204,0.345
			c0.065,0.118,0.409,0.852,0.012,1.389c0,0-0.212,0.247-0.586,0.33c-0.33,0.074-0.246-0.313-0.278-0.521
			c0,0-0.051-0.879-0.475-1.383c-0.38-0.44-1.059,0.343-1.4,0.604c-0.316,0.241-1.238,1.197-2.57,1.894l-0.045-0.64
			c0,0-0.032-0.342-0.221-0.877c-0.375-1.088-0.748-1.585-0.748-1.585s-0.146-0.319-0.476-0.451
			c-0.085-0.033-0.175-0.058-0.281-0.058c-0.515,0-0.552,0.471-0.552,0.471s-0.119,0.37-0.314,0.483
			c-0.172,0.099-0.623,0.363-0.935,0.208c-0.046-0.021-0.087-0.052-0.122-0.092c-0.062-0.065-0.107-0.134-0.16-0.202
			c-0.057-0.078-0.109-0.155-0.156-0.236c-0.16-0.281-0.259-0.574-0.285-0.861c-0.039-0.44,0.146-0.621,0.146-0.621
			s0.036-0.115,0.618-0.115c0.65,0,0.773-0.199,0.773-0.199s0.123-0.117,0.117-0.372c-0.013-0.258-0.109-0.806-0.303-1.156
			c-0.023-0.048-0.062-0.105-0.102-0.162c-0.146-0.219-0.357-0.488-0.545-0.709l-0.353-0.063l0.353,0.061
			c0.226-0.083,0.539-0.207,0.881-0.358c0.689-0.313,1.02-0.574,1.336-0.754c0,0,0.701-0.431,1.111-0.421
			c0.002,0,0.094-0.001,0.104,0.124c0.011,0.126,0.041,0.314,0.086,0.421c0.039,0.108,0.28,0.702,1.049,0.79
			c0.095,0.01,0.185,0.012,0.267,0.005c0.047-0.004,0.086-0.013,0.127-0.021c0.035-0.004,0.069-0.007,0.103-0.015
			c0.058-0.016,0.108-0.036,0.155-0.057c0.012-0.002,0.023-0.007,0.029-0.011c0.055-0.024,0.099-0.05,0.14-0.077
			c0.005-0.001,0.011-0.004,0.016-0.007c0.177-0.118,0.261-0.25,0.261-0.25s0.262-0.402-0.191-0.883c0,0-0.37-0.394-0.379-0.426
			c0,0-0.025-0.034,0.013-0.066c0.015-0.007,0.028-0.017,0.05-0.021c0.064-0.019,0.521-0.148,0.965-0.291
			C39.092,11.347,39.289,11.278,39.445,11.213z M37.036,23.757c0.202,0.42,0.655,0.464,0.979,0.382
			c0.328-0.084,0.438-0.262,0.618-0.655c0.181-0.391,0.276-0.42,0.276-0.42s0.072-0.104,0.402-0.065
			c0.334,0.04,0.406,0.273,0.406,0.273s0.189,0.453,0.151,0.926c-0.035,0.477-0.142,0.688-0.247,0.856
			c-0.111,0.17-0.68,0.115-0.68,0.115s-0.976-0.109-1.065,1.062c-0.085,1.172,0.306,1.983,0.306,1.983
			c0.144,0.31,0.289,0.478,0.412,0.562c0.115,0.089,0.231,0.201,0.231,0.201s0.021,0.02,0.053,0.061h-0.006
			c-0.694,0.562-0.901,0.745-1.458,1.133c0,0-0.632,0.477-1.32,0.846c-0.693,0.379-1.51,0.33-1.51,0.33s-0.223-0.022-0.113-0.186
			c0.105-0.156,0.242-0.545,0.299-0.745c0.052-0.197,0.158-0.7-0.246-0.858c-0.402-0.16-1.16,0.075-1.16,0.075
			s-1.742,0.466-2.454,1.241c-0.688,0.761-0.11,1.098-0.11,1.098s0.273,0.188,0.533,0.278c0.248,0.092,0.201,0.17,0.137,0.214
			c0,0-0.777,0.495-1.693,0.764c0,0-1.26,0.385-2.48,0.459c-1.197,0.078-1.713,0.109-1.729,0.109
			c-0.129-0.253-0.264-0.486-0.264-0.486s-0.144-0.221-0.212-0.526c-0.061-0.257-0.063-0.577,0.116-0.896
			c0.398-0.697,1.055-0.906,1.055-0.906s0.575-0.125,1.151,0.008c0.544,0.128,0.817-0.081,0.817-0.081s0.189-0.083,0.326-0.407
			c0.014-0.027,0.023-0.062,0.031-0.092c0.012-0.028,0.023-0.057,0.029-0.088c0.02-0.068,0.035-0.146,0.048-0.225
			c0.101-0.666-0.007-1.902-0.892-2.146c-0.885-0.243-1.358,0.216-1.358,0.216s-0.476,0.526-0.632,0.603
			c-0.154,0.078-0.395,0.217-0.395,0.217s-0.33,0.201-0.562,0.25c-0.142,0.029-0.614-0.59-0.72-1.12
			c-0.007-0.037-0.019-0.074-0.021-0.109c-0.045-0.44-0.129-0.813-0.126-1.597c0.001-0.11,0.004-0.232,0.007-0.36
			c0-0.001,0-0.004,0-0.008c0.157-0.01,0.317-0.019,0.478-0.021c1.376-0.053,2.06-0.215,2.79-0.381
			c0.729-0.164,1.758-0.762,1.908-0.879c0.138-0.098,0.396-0.216,0.502-0.583c0.015-0.04,0.022-0.085,0.026-0.125
			c0.002-0.016,0.007-0.029,0.009-0.041c0-0.002,0.002-0.003,0.002-0.005c0.063-0.498-0.524-0.83-0.524-0.83
			s-0.47-0.247-0.568-0.357c-0.046-0.056-0.048-0.108-0.042-0.148c0.014-0.039,0.035-0.065,0.035-0.065s0.266-0.569,1.115-0.904
			c0.849-0.336,1.416-0.428,1.775-0.466c0.358-0.037,0.48,0.092,0.527,0.154c0.051,0.06,0.051,0.185,0.01,0.315
			c-0.039,0.117-0.17,0.398-0.248,0.536c-0.076,0.137-0.201,0.47-0.121,0.625c0.078,0.155,0.322,0.229,0.639,0.171
			c0.316-0.059,1.15-0.292,1.884-0.599c0.729-0.304,1.948-0.902,1.948-0.902s0.006-0.002,0.011-0.004l0.001-0.003
			c0,0,0,0,0.002-0.002l0.031-0.272c0,0.003,0.001,0.005,0.001,0.007l-0.029,0.274C36.357,22.336,36.84,23.343,37.036,23.757z
			 M39.025,29.049l-0.012,0.243c0.084,0.224,0.141,0.571,0.055,1.088c-0.11,0.681-0.271,1.078-0.381,1.278
			c-0.018,0.035-0.039,0.07-0.059,0.103c-0.011,0.013-0.014,0.021-0.021,0.027c-0.015,0.026-0.037,0.05-0.055,0.071
			c-0.02,0.029-0.056,0.072-0.104,0.127c-0.021,0.021-0.047,0.048-0.067,0.07c-0.012,0.008-0.021,0.014-0.026,0.021
			c-0.027,0.023-0.056,0.054-0.084,0.078c-0.012,0.009-0.015,0.015-0.02,0.018c-0.148,0.128-0.331,0.244-0.525,0.268
			c-0.435,0.051-0.901,0.048-1.336,0.461c-0.002,0.009-0.013,0.01-0.02,0.014c-0.016,0.018-0.028,0.031-0.045,0.049
			c-0.006,0.01-0.014,0.016-0.021,0.021c-0.003,0.004-0.006,0.008-0.008,0.011c-0.045,0.049-0.083,0.104-0.125,0.166
			c-0.349,0.526-0.273,1.112-0.273,1.112s0.047,0.44,0.523,0.322c0.471-0.121,0.954-0.488,1.32-0.773
			c0.365-0.291,0.143,0.096,0.143,0.096c-0.322,0.627-0.932,1.252-0.932,1.252s-0.212,0.188-0.682,0.846
			c-0.125,0.172-0.226,0.325-0.307,0.459h-0.002c0,0-0.003,0.004-0.004,0.006c-0.48,0.258-1.168,0.6-1.604,0.774
			c0.022-0.009,0.045-0.019,0.065-0.022c-0.021,0.005-0.043,0.018-0.065,0.025c-0.229,0.094-0.408,0.155-0.539,0.191
			c0.004-0.002,0.006-0.002,0.007-0.003c-0.14,0.038-0.22,0.049-0.246,0.036c-0.001,0-0.003,0-0.003,0
			c-0.008-0.002-0.004-0.01,0-0.017c0-0.003-0.002-0.005,0-0.008c0.046-0.071,0.177-0.176,0.177-0.176s0.151-0.152,0.151-0.31
			c0,0,0.014-0.057-0.057-0.094c-0.072-0.04-0.229-0.064-0.561,0.005c-0.167,0.035-0.322,0.083-0.473,0.134
			c-0.004,0.002-0.008,0.002-0.012,0.004c-0.197,0.067-0.38,0.142-0.514,0.199c0.004,0,0.005,0,0.006,0c0,0,0.016-0.007,0.039-0.019
			c-0.193,0.086-0.312,0.149-0.312,0.149s-0.34,0.158-0.57,0.34l0.009-0.006c-0.011,0.006-0.017,0.01-0.026,0.018
			c-0.027,0.023-0.055,0.048-0.076,0.07c-0.006,0.005-0.012,0.01-0.017,0.015c-0.03,0.03-0.052,0.062-0.073,0.091
			c-0.004,0.006-0.007,0.01-0.01,0.016c-0.015,0.029-0.025,0.06-0.027,0.088c0,0.004,0.002,0.006,0.002,0.01
			c0,0.029,0.008,0.061,0.031,0.088c0,0,0.045,0.072,0.243,0.139c0.027,0.006,0.033,0.016,0.039,0.025
			c0.002,0.004,0.001,0.008,0.001,0.011s-0.004,0.011-0.008,0.017c-0.001,0.009-0.005,0.015-0.014,0.019
			c-0.004,0.002-0.01,0.006-0.015,0.008c-0.01,0.011-0.021,0.019-0.038,0.027l0.01-0.001c-0.117,0.062-0.33,0.129-0.33,0.129
			c-0.524,0.171-0.928,0.25-1.438,0.355c-0.529,0.108-0.986,0.207-1.294,0.275l-0.001-0.001l0.005-0.001
			c-0.034-0.125-0.084-0.249-0.136-0.368c-0.008-0.012-0.016-0.026-0.021-0.04c-0.025-0.056-0.05-0.104-0.076-0.154
			c-0.006-0.01-0.012-0.02-0.016-0.027c-0.031-0.059-0.061-0.105-0.087-0.154c-0.015-0.02-0.028-0.039-0.036-0.057
			c-0.016-0.024-0.027-0.042-0.039-0.061c-0.033-0.056-0.063-0.104-0.084-0.134c-0.119-0.19-0.324-0.303-0.922-0.202
			c-0.6,0.1-1.303,0.399-1.303,0.399s-0.727,0.382-1.269,0.312c-0.134-0.021-0.243-0.065-0.33-0.13
			c-0.26-0.194-0.321-0.534-0.316-0.667c0.004-0.171,0.115-0.318,0.399-0.428c0.281-0.111,0.948-0.264,1.918-0.312
			c0.968-0.049,1.33-0.681,1.33-0.681c0.111-0.162,0.301-0.495-0.018-0.78c-0.047-0.041-0.102-0.084-0.172-0.119
			c-0.34-0.189-0.471-0.231-0.586-0.281c-0.043-0.021-0.083-0.042-0.129-0.071c-0.004-0.004-0.008-0.006-0.012-0.01
			c-0.011-0.007-0.017-0.013-0.024-0.019c-0.022-0.013-0.04-0.026-0.062-0.041c-0.067-0.053-0.136-0.105-0.199-0.164
			c-0.191-0.166-0.373-0.365-0.459-0.621c-0.008-0.03-0.021-0.075-0.039-0.112l-0.193-0.126l-0.127-0.088h0.004l0,0l0,0v-0.001
			v-0.003l0,0l0,0l0,0l0,0v0.002v0.001v-0.001l0.003-0.004l0,0l0.021-0.02l-0.021,0.02v0.004v0.001l0.321,0.213
			c0.281-0.021,0.65-0.05,0.979-0.063c0.649-0.031,1.67-0.185,2.26-0.312c0.594-0.134,1.49-0.41,2.152-0.752
			c0.663-0.343,0.695-0.582,0.695-0.582s0.053-0.072,0.021-0.175c-0.021-0.064-0.065-0.135-0.172-0.213
			c-0.279-0.203-0.4-0.146-0.645-0.396c-0.029-0.028-0.051-0.062-0.061-0.094c-0.072-0.242,0.275-0.523,0.275-0.523
			s0.234-0.334,1.547-0.841c1.309-0.504,1.531-0.335,1.598-0.279c0.021,0.014,0.029,0.035,0.039,0.063
			c0.027,0.077,0.026,0.202,0.01,0.292c-0.023,0.125-0.192,0.561-0.276,0.793c-0.045,0.113-0.075,0.253-0.048,0.369
			c0.023,0.115,0.104,0.21,0.279,0.248c0.356,0.074,0.854-0.004,1.322-0.172c1.11-0.397,1.443-0.881,3.28-2.217
			c0.005-0.006,0.011-0.008,0.015-0.011l0.006-0.249c0-0.001,0.002-0.001,0.002-0.001l0,0
			C39.023,29.045,39.023,29.047,39.025,29.049z M20.099,35.775c0.292,0.334,0.603,0.476,0.603,0.476s0.18,0.078,0.177,0.13
			c-0.002,0.061-0.006,0.118-0.141,0.194c0,0-0.537,0.313-1.581,0.332c-1.045,0.015-1.505,0.011-1.812-0.269
			c-0.254-0.227,0.063-0.707,0.063-0.707s0.127-0.24,0-0.561c-0.128-0.324-0.854-0.33-0.854-0.33l-1.006-0.055
			c-1.191-0.03-2.764-0.163-3.464-0.248c0,0-0.005,0-0.013-0.002v0.002l-0.02-0.034c0,0-0.721-1.3-0.646-1.774
			c0,0,0.021-0.242,0.329-0.397c0.042-0.021,0.093-0.042,0.149-0.058c0.314-0.096,0.274,0.209,1.197,0.373
			c0,0,0.465,0.125,0.776-0.076c0.096-0.061,0.181-0.147,0.229-0.285c0.206-0.582-0.219-1.307-0.219-1.307s-0.558-1.021-1.249-1.062
			h-0.001l0,0c-0.003,0-0.006,0.001-0.01,0.001c-0.349-0.018-0.261,0.225-0.805,0.355c0,0-0.736,0.071-0.97-0.373
			c-0.281-0.531-0.391-1.142-0.391-1.549c0-0.012,0-0.023,0-0.037c0.008-0.25,0.015-0.341,0.03-0.41
			c0.004-0.022,0.012-0.051,0.019-0.09c0.009-0.039,0.025-0.094,0.044-0.16c0.019-0.068,0.039-0.15,0.052-0.26v-0.005
			c0.312-0.034,0.814-0.092,1.394-0.151c0.972-0.104,1.625-0.211,2.231-0.119c0.604,0.092,0.799,0.562,0.799,0.562
			s0.012,0.033,0.004,0.071c-0.006,0.039-0.031,0.093-0.098,0.137c-0.136,0.085-0.29,0.21-0.365,0.344c0,0,0,0-0.001,0.002l0,0
			c-0.01,0.015-0.018,0.034-0.027,0.051l0,0c-0.063,0.148-0.106,0.404,0.088,0.731c0.221,0.371,0.824,0.611,1.339,0.552
			c0.514-0.06,1.283-0.259,1.739-0.377c0.374-0.1,0.713-0.261,0.882-0.5c0.058-0.08,0.095-0.166,0.11-0.268
			c0.056-0.389-0.593-0.884-0.593-0.884s-0.31-0.234-0.348-0.285c-0.009-0.017-0.012-0.028-0.009-0.035
			c0.007-0.028,0.045-0.038,0.045-0.038s0.365-0.091,0.522-0.16c0.157-0.074,0.586-0.25,1.29-0.468
			c0.705-0.221,2.158-0.481,2.158-0.481s0.804-0.125,1.804-0.209l0.001-0.006c0.001,0,0.002,0,0.002,0l0.124-0.144l0.039-0.039
			l-0.165,0.187c-0.001,0.097-0.004,0.195-0.009,0.295c-0.056,1.49,0.277,2.259,0.277,2.259c0.189,0.407,0.395,0.704,0.671,0.889
			c0.277,0.19,0.654,0.063,0.777,0c0.119-0.06,0.461-0.216,0.75-0.396c0.284-0.187,0.278-0.265,0.627-0.588
			c0.348-0.319,0.797-0.229,0.797-0.229s0.428,0.01,0.67,0.502c0.244,0.494,0.195,1.197,0.133,1.452
			c-0.059,0.256-0.172,0.423-0.407,0.378c-0.237-0.041-0.634-0.081-0.776-0.088c-0.146-0.007-0.55-0.02-0.924,0.078
			c-0.359,0.093-0.849,0.354-1.311,1.107c-0.363,0.588-0.186,1.158-0.104,1.389c0.067,0.177,0.245,0.426,0.402,0.727l0.293,0.096
			l-0.001,0.002l-0.291-0.095c-0.494,0.058-1.329,0.179-2.153,0.376c-1.008,0.246-1.971,0.444-2.656,0.885
			C20.316,35.104,19.805,35.443,20.099,35.775z M12.073,34.744L12.071,34.8l0,0l0,0l0,0l0,0l0,0L12.073,34.744z M10.533,27.34
			l-0.001-0.002l0.001-0.001C10.533,27.337,10.533,27.338,10.533,27.34z M22.636,19.175c-0.075-0.537-0.096-0.664-0.572-2.295
			c0.625-0.085,1.131-0.165,1.704-0.276c0.385-0.076,0.8-0.166,1.305-0.281c0,0,1.173-0.208,1.413-0.636
			c0.144-0.25,0.396-0.591-0.012-0.935c-0.002,0-0.002-0.002-0.004-0.002l0,0c0,0-0.048-0.061-0.306-0.119
			c-0.11-0.024-0.205-0.046-0.297-0.076c-0.128-0.037-0.246-0.088-0.372-0.177c-0.215-0.155-0.212-0.334-0.212-0.334
			s-0.017-0.171,0.333-0.369c0,0,0.186-0.134,0.548-0.288c0.124-0.052,0.267-0.105,0.427-0.157c0.654-0.206,1.403-0.115,1.403-0.115
			s0.315,0.035,0.267,0.248c-0.057,0.213-0.234,0.571-0.238,0.753c-0.006,0.11,0,0.231,0.076,0.343
			c0.029,0.037,0.064,0.071,0.108,0.104c0.047,0.035,0.101,0.067,0.173,0.097c0.227,0.094,0.512,0.11,0.694,0.11
			c0.108,0,0.18-0.007,0.18-0.007s0.53-0.026,1.405-0.307c0.546-0.177,1.092-0.366,1.425-0.485c0.194-0.068,0.315-0.111,0.334-0.118
			c0.001-0.002,0.001-0.002,0.006-0.003v0.003c0.769,0.75,0.908,1.663,0.908,1.663s0.103,0.359-0.108,0.388
			c-0.188,0.022-0.619,0.026-0.619,0.026s-0.162,0.016-0.432,0.07c-0.265,0.055-0.434,0.338-0.471,0.535
			c-0.039,0.196-0.156,0.734,0.299,1.581c0.453,0.845,1.023,0.806,1.023,0.806c0.496-0.044,0.65-0.132,0.939-0.328
			c0.28-0.192,0.41-0.616,0.424-0.697c0.019-0.081,0.057-0.164,0.12-0.164c0.065,0,0.046,0,0.195-0.021
			c0.155-0.022,0.271,0.087,0.396,0.342c0.082,0.166,0.519,0.883,0.646,1.31c0.123,0.423,0.233,0.847,0.245,1.23
			c0.005,0.149,0.023,0.322,0.05,0.478l0.119,0.175v0.001l0,0l-0.122-0.18c-0.641,0.317-2.087,1.022-3.029,1.351
			c0,0-0.724,0.293-1.015,0.302c0,0-0.066,0.003-0.015-0.067c0.055-0.071,0.105-0.124,0.194-0.285s0.246-0.521,0.246-0.896
			c0-0.372-0.427-0.736-1.026-0.673c-0.601,0.063-1.178,0.231-1.867,0.498c-0.691,0.267-1.289,0.829-1.364,1.299
			c-0.082,0.467,0.427,0.739,0.427,0.739s0.566,0.29,0.641,0.442c0.073,0.158,0.021,0.305,0.021,0.305s-0.051,0.153-0.305,0.299
			c-0.25,0.146-0.928,0.494-0.928,0.494s-0.851,0.47-2.142,0.582c0,0-1.179,0.103-1.854,0.136c-0.009,0.002-0.015,0.002-0.025,0.002
			c0.029-0.869-0.076-1.543-0.254-2.043c-0.061-0.169-0.128-0.318-0.204-0.446c-0.308-0.544-0.815-0.832-1.062-0.955
			c-0.25-0.121-0.826-0.177-1.221-0.032s-0.476,0.26-0.621,0.51c-0.144,0.25-0.32,0.234-0.32,0.234s-0.526,0.011-0.716-0.778
			c-0.004-0.014-0.008-0.026-0.012-0.042c-0.027-0.121-0.042-0.229-0.054-0.333c-0.003-0.021-0.009-0.049-0.011-0.071
			c-0.009-0.069-0.009-0.125-0.012-0.188c-0.002-0.048-0.006-0.102-0.006-0.146c0.002-0.602,0.219-0.813,0.219-0.813
			s0.124-0.185,0.527-0.24c0.406-0.056,0.666,0.046,0.978,0.121c0.309,0.079,0.543,0.047,0.931-0.144
			c0.223-0.107,0.37-0.259,0.441-0.473C22.655,19.601,22.669,19.411,22.636,19.175z M29.139,7.716
			c0.271-0.07,0.797-0.245,0.909-0.287c0.109-0.043,0.683-0.232,1.093-0.303c0.412-0.074,0.787-0.06,0.926,0.014
			c0.021,0.019,0.108,0.106,0.146,0.187c0.054,0.111,0.197,0.386,0.447,0.512c0.209,0.105,0.358,0.166,0.821,0.124
			c0.662-0.163,0.732-0.531,0.664-0.655c-0.084-0.165-0.344-0.333-0.344-0.333s-0.345-0.222-0.42-0.327
			c-0.01-0.01-0.01-0.019-0.012-0.026c0.186-0.026,0.395-0.052,0.64-0.118c0.121-0.032,0.212-0.063,0.279-0.096l0.104,0.032
			c0.205,0.164,1.381,1.102,1.779,1.366c0.079,0.054,0.189,0.038,0.253-0.038l0.009-0.01c0.051,0.041,0.104,0.083,0.121,0.102
			c0,0,0.25-0.001,0.372,0.125c0.167,0.133,0.62,0.535,0.734,0.758l0.062,0.175c-0.033,0.063-0.031,0.139,0.012,0.198
			c0.018,0.021,0.367,0.517,0.811,1.005c0.046,0.061,0.413,0.561,0.622,0.776c-0.108,0.044-0.263,0.1-0.467,0.155
			c-0.429,0.114-0.843,0.307-0.843,0.307s-0.342,0.112-0.213,0.391c0.013,0.025,0.026,0.043,0.043,0.067
			c0.004,0.02,0.015,0.041,0.03,0.062c0,0,0.009,0.005,0.009,0.009c0.114,0.183,0.244,0.275,0.244,0.275s0.018,0.021,0.047,0.053
			c0.019,0.017,0.032,0.038,0.057,0.063c0.005,0.008,0.012,0.019,0.021,0.027c0.026,0.037,0.055,0.081,0.086,0.123
			c0.036,0.067,0.067,0.138,0.07,0.202c0.008,0.201-0.075,0.292-0.294,0.413c-0.217,0.121-0.413,0.145-0.413,0.145
			s-0.518,0.094-0.77-0.149c-0.256-0.242-0.305-0.64-0.305-0.64s-0.019-0.338-0.439-0.481c-0.426-0.144-0.943,0.163-0.943,0.163
			s-0.413,0.218-0.85,0.502c-0.438,0.283-1.266,0.63-1.785,0.812l-0.061,0.27l0,0c0.002,0,0.002,0,0.002,0v0.001l-0.002-0.001l0,0
			l0,0l0,0l0,0l0,0l0,0l0,0l0,0l0.026-0.131l0.033-0.138l0,0l0,0c-0.036-0.034-0.104-0.102-0.181-0.19
			c-0.201-0.218-0.498-0.568-0.772-0.896c-0.271-0.322-0.513-0.62-0.597-0.746c-0.219-0.312-0.252-0.383-0.291-0.487
			c-0.01-0.024-0.012-0.058-0.006-0.097c0.019-0.115,0.093-0.267,0.162-0.349c0.094-0.108,0.205-0.131,0.426-0.082
			c0.226,0.049,0.373,0.148,0.729,0.032c0.354-0.112,0.371-0.381,0.395-0.653c0.023-0.206-0.154-0.58-0.355-0.875
			c-0.07-0.097-0.141-0.185-0.204-0.255c-0.261-0.277-0.633-0.323-0.886-0.306c-0.258,0.016-0.406,0.203-0.557,0.284
			c-0.146,0.082-0.424,0.165-0.547,0.11c-0.062-0.028-0.143-0.056-0.232-0.122c-0.09-0.068-0.189-0.175-0.295-0.363
			C29.1,8.156,28.979,7.93,28.902,7.783C28.975,7.76,29.05,7.737,29.139,7.716z M21.614,13.257c0.059-0.028,0.164-0.073,0.311-0.093
			l0.293-0.018c0.062,0.003,0.126,0.009,0.195,0.015l0.069,0.005c0.134,0.013,0.315,0.026,0.534-0.065
			c0.001,0,0.003-0.001,0.004-0.002c0.004-0.002,0.011-0.005,0.018-0.007c0.04-0.016,0.079-0.033,0.114-0.052
			c0.163-0.09,0.609-0.333,0.579-0.832c-0.029-0.497-0.426-1.086-0.751-1.29c-0.08-0.051-0.167-0.083-0.258-0.102
			c-0.269-0.056-0.554,0.023-0.729,0.152c-0.233,0.173-0.324,0.396-0.466,0.468c-0.14,0.07-0.34,0.227-0.551,0.181
			c-0.002,0-0.005,0-0.008,0c-0.213-0.051-0.223-0.527-0.314-1.065c-0.037-0.218-0.067-0.398-0.092-0.542
			c-0.011-0.062-0.018-0.115-0.027-0.161c0.25-0.039,0.665-0.115,1.2-0.272c0.89-0.261,1.198-0.47,1.229-0.493
			c0.042-0.029,0.06-0.074,0.068-0.123c0.093-0.057,0.177-0.119,0.243-0.18c0,0,0.241-0.114,0.009-0.339l0,0l0,0
			C23.05,8.218,22.937,8.15,22.937,8.15S22.9,8.128,22.88,8.081c-0.006-0.015-0.01-0.031-0.011-0.048
			c0.021-0.038,0.048-0.079,0.092-0.126c0.132-0.149,0.326-0.252,0.575-0.307c0.129-0.028,0.449-0.062,0.755-0.047
			c0.241,0.011,0.382,0.031,0.475,0.065c-0.013,0.142-0.033,0.334-0.029,0.394c0.007,0.06,0.013,0.193,0.148,0.318
			c0.025,0.077,0.076,0.151,0.162,0.188c0.059,0.035,0.303,0.146,0.979,0.076c0.015-0.002,0.295-0.052,0.732-0.182
			c1.053-0.312,1.639-0.486,1.748-0.515c0.01-0.002,0.02-0.005,0.029-0.007c0.052,0.107,0.143,0.273,0.295,0.529
			c0.348,0.598,0.952,0.828,1.213,0.802c0.23-0.025,0.62-0.131,0.773-0.3c0.152-0.169,0.305-0.148,0.305-0.148
			c0.333-0.021,0.417,0.259,0.688,0.649c0.273,0.393,0.105,0.699,0.105,0.699c-0.182,0.238-0.383,0.191-0.568,0.152
			c-0.14-0.028-0.156-0.045-0.316-0.077c-0.5-0.067-0.67,0.304-0.67,0.304c-0.36,0.556,0.065,0.96,0.065,0.96
			s0.951,1.274,1.679,2.059c-0.549,0.19-1.262,0.427-1.262,0.427s-0.962,0.357-1.599,0.444c-0.636,0.087-0.776-0.006-0.865-0.092
			c-0.085-0.085,0.019-0.39,0.019-0.39s0.261-0.529,0.133-0.803c-0.123-0.275-0.941-0.345-0.957-0.345
			c-0.014,0-0.891-0.104-1.713,0.357c-0.728,0.409-0.822,0.632-0.822,0.632s-0.235,0.362,0.04,0.718
			c0.312,0.405,0.724,0.441,0.724,0.441s0.395,0.032,0.484,0.146c0.091,0.115,0.027,0.241,0.027,0.241s-0.127,0.355-0.854,0.505
			c0,0-1.224,0.357-3.506,0.683c-0.456-1.645-0.483-2.68-0.483-2.68C21.434,13.483,21.473,13.35,21.614,13.257z M14.063,18.251
			c0,0,0.183,0.025,0.156,0.089c-0.024,0.052-0.16,0.159-0.16,0.159s-0.053,0.031-0.252,0.257c-0.2,0.226-0.257,0.445-0.268,0.639
			c-0.001,0.026,0.001,0.056,0.009,0.091c0.04,0.241,0.281,0.698,0.92,0.833c0.733,0.153,1.57-0.131,1.57-0.131
			s0.55-0.121,1.072-0.644c0.237-0.239,0.269-0.496,0.228-0.713c-0.052-0.277-0.223-0.484-0.223-0.484s-0.085-0.119-0.249-0.172
			c0,0-0.04-0.01-0.043-0.034c0-0.008,0.002-0.018,0.014-0.028c0.024-0.027,0.073-0.115,0.194-0.203
			c0.075-0.041,0.185-0.092,0.334-0.146c0.387-0.1,1.532-0.461,4.255-0.822l0.001-0.001c0,0.004,0.198,0.791,0.349,1.299
			c0.148,0.511,0.214,1.014,0.238,1.118c0.023,0.105,0.017,0.293-0.121,0.405c-0.139,0.112-0.478,0.205-0.549,0.217
			c-0.073,0.011-0.205-0.016-0.382-0.078c-0.179-0.06-0.355-0.072-0.355-0.072s-0.429-0.072-0.882,0.065
			c-0.455,0.141-0.797,0.604-0.826,1.188c-0.026,0.583-0.021,0.877,0.207,1.393c0.227,0.514,0.637,0.809,0.947,0.812
			c0.311,0.008,0.564-0.154,0.743-0.404c0.176-0.248,0.226-0.288,0.226-0.288c0.211-0.116,0.749-0.167,1.02-0.065
			c0.274,0.099,0.773,0.411,1.049,1.03c0.223,0.498,0.292,1.057,0.281,2.065l0.223,0.171l-0.002,0.002l-0.226-0.172
			c-0.631,0.051-1.362,0.139-1.362,0.139s-1.651,0.232-3.163,0.7c-1.284,0.396-1.528,0.61-1.528,0.61s-0.274,0.23-0.045,0.562
			c0,0,0.132,0.209,0.397,0.416c0.263,0.206,0.475,0.404,0.445,0.504c-0.029,0.102-0.111,0.147-0.111,0.147s-0.37,0.33-1.883,0.585
			c0,0-0.976,0.188-1.275-0.105c-0.3-0.295-0.167-0.492-0.167-0.492s0.02-0.069,0.238-0.204c0,0,0.366-0.229,0.25-0.665
			c-0.116-0.434-0.819-0.979-1.577-0.973c0,0-0.887,0.002-3.156,0.293c0,0-0.005,0.002-0.006,0.002c0-0.104-0.001-0.209-0.009-0.318
			c-0.035-0.643-0.08-1.626-0.167-2.2c-0.087-0.574-0.245-1.461-0.768-1.486c0,0-0.257-0.021-0.628,0.341
			c-0.341,0.327-0.647-0.273-0.664-0.641c-0.021-0.432,0.05-0.869,0.157-1.077c0.026-0.051,0.065-0.092,0.108-0.12
			c0.129-0.091,0.304-0.096,0.347-0.092c0.056,0.006,0.213,0.065,0.4,0.184c0.142,0.088,0.323,0.109,0.469,0.049
			c0.049-0.021,0.093-0.047,0.133-0.086c0.15-0.151,0.363-0.329,0.449-1c0.086-0.67,0.086-1.365,0.006-2.197l-0.002-0.004
			c0.148-0.026,0.342-0.061,0.562-0.094c0.245-0.037,0.521-0.073,0.814-0.104C12.72,18.213,13.666,18.202,14.063,18.251z
			 M7.627,12.033c0.032-0.023,0.08-0.054,0.108-0.065c0.047-0.014,0.085-0.043,0.11-0.085c0.005-0.006,0.416-0.695,0.596-0.957
			c0.06-0.038,0.118-0.072,0.151-0.092c0.017,0.007,0.034,0.01,0.051,0.012c0.053,0.008,0.108-0.009,0.148-0.044
			c0.022-0.018,0.22-0.198,0.68-0.818C9.506,9.943,9.52,9.889,9.512,9.837C9.508,9.8,9.494,9.767,9.472,9.739
			c0.012-0.048,0.032-0.114,0.046-0.146c0.003-0.004,0.006-0.008,0.008-0.012c0.008-0.006,0.66-0.775,1.182-1.216
			c0,0,0.065-0.047,0.168-0.058c0.018-0.003,0.035-0.008,0.052-0.013c0.023-0.012,0.602-0.256,1.308-0.875
			c0.029-0.024,0.052-0.066,0.062-0.104c0,0,0.023-0.087,0.148-0.255c0.102-0.136,0.33-0.289,0.553-0.379
			c-0.073,0.066-0.166,0.149-0.282,0.275c-0.119,0.126-0.158,0.203-0.15,0.242c0.01,0.04,0.067,0.041,0.145,0.014
			c0.04-0.013,0.088-0.032,0.148-0.059c0.002,0,0.002-0.001,0.005-0.001l0,0c0.15-0.064,0.368-0.169,0.679-0.329l0.011,0.019
			c0.056,0.083,0.167,0.11,0.254,0.061c0.001,0,0.136-0.073,0.342-0.155c-0.117,0.253-0.322,0.653-0.554,0.942
			c0,0-0.145,0.212-0.257,0.16c-0.11-0.051-0.241-0.056-0.35-0.032c-0.109,0.022-0.444,0.134-0.749,0.544
			c-0.305,0.409-0.34,0.717-0.176,0.809c0.164,0.091,0.401-0.03,0.546-0.157c0.107-0.096,0.19-0.153,0.244-0.173
			c0.018,0.037,0.044,0.067,0.079,0.085c-0.001,0.025-0.002,0.051-0.006,0.063c-0.011,0.037-0.06,0.525-0.626,1.505
			c-0.142,0.246-0.324,0.612-0.41,0.789l0,0l-0.002-0.001c-0.919,0.171-1.604,0.383-1.838,0.472
			c-0.234,0.089-0.238,0.031-0.238,0.031c-0.033-0.039-0.01-0.111,0.027-0.184c0.022-0.044,0.05-0.089,0.076-0.124
			c0.035-0.05,0.065-0.087,0.065-0.087s0.251-0.342,0.351-0.658c0.1-0.315-0.343-0.274-0.343-0.274
			c-0.292,0.048-0.501,0.186-0.744,0.476c-0.186,0.227-0.3,0.537-0.342,0.7c-0.028,0.102-0.075,0.197-0.075,0.197
			s-0.036,0.064-0.173,0.125c-0.16,0.069-0.473,0.154-0.473,0.154s-0.208,0.017-0.359-0.059c-0.05-0.026-0.148-0.016-0.228-0.005
			C7.608,12.042,7.62,12.039,7.627,12.033z M7.346,12.259c0-0.001,0.001-0.002,0.001-0.002l0.004-0.004
			c-0.001,0-0.001,0.001-0.002,0.001l0,0l-0.064,0.098c0.023-0.035,0.043-0.067,0.064-0.098C7.348,12.256,7.347,12.256,7.346,12.259
			z M6.027,14.803c-0.001,0.01-0.001,0.012-0.003,0.02C6,14.903,5.991,14.951,5.991,14.951c-0.002,0.038,0,0.062,0.003,0.082
			c0.007,0.024,0.017,0.037,0.041,0.035c0.015-0.001,0.048-0.052,0.059-0.025c0.005,0.017,0.003,0.06-0.015,0.16
			c-0.035,0.18-0.201,0.659-0.266,0.853c-0.066,0.195-0.139,0.326-0.191,0.318c-0.017-0.004-0.027-0.015-0.035-0.028
			c-0.015-0.025-0.017-0.061-0.017-0.061s-0.002-0.03-0.014-0.052c-0.008-0.019-0.024-0.028-0.052-0.006
			C5.66,15.747,5.835,15.272,6.027,14.803z M5.378,16.636l0.001-0.004c0,0,0.018-0.046,0.033-0.07
			c0.014-0.017,0.023-0.019,0.02,0.04c-0.004,0.128,0.076,0.139,0.076,0.139c0.052-0.008,0.107-0.066,0.164-0.161l0,0
			c0.001-0.002,0.003-0.006,0.004-0.007c0.023-0.039,0.047-0.084,0.07-0.135c0.006-0.012,0.013-0.027,0.019-0.042
			c0.018-0.04,0.037-0.083,0.056-0.128c0.009-0.021,0.016-0.042,0.025-0.063c0.018-0.043,0.035-0.089,0.053-0.14
			c0.007-0.022,0.017-0.045,0.024-0.07c0.015-0.041,0.03-0.085,0.045-0.128c0.009-0.03,0.02-0.056,0.028-0.085
			c0.01-0.024,0.014-0.047,0.022-0.07c0.017-0.052,0.032-0.105,0.047-0.157c0.012-0.037,0.022-0.073,0.032-0.108
			c0.011-0.038,0.02-0.075,0.03-0.111c0.007-0.034,0.017-0.066,0.024-0.099c0.015-0.057,0.028-0.111,0.039-0.161
			c0.007-0.027,0.011-0.05,0.015-0.074c0.008-0.031,0.014-0.06,0.018-0.085c0.002-0.01,0.006-0.022,0.008-0.031l0,0
			c0.015-0.077,0.024-0.131,0.024-0.143c0-0.043-0.021-0.075-0.059-0.053c-0.038,0.02-0.048,0.003-0.048,0.003
			c0-0.008,0-0.021,0.003-0.038c0-0.001,0-0.003,0.001-0.006c0.026-0.124,0.134-0.39,0.134-0.39c0.057-0.146,0.118-0.289,0.18-0.427
			c0.005-0.012,0.012-0.023,0.017-0.037c0.03-0.066,0.06-0.129,0.09-0.193c0.001-0.002,0.003-0.007,0.006-0.011
			c0.238-0.492,0.486-0.903,0.661-1.173c0.033-0.005,0.034-0.002,0.092-0.022c0,0,0.155-0.025,0.43,0.045
			c0.353,0.095,0.794-0.19,0.794-0.19s0.006-0.004,0.017-0.01c0.002,0,0.003-0.003,0.005-0.004c0.012-0.006,0.025-0.016,0.042-0.027
			c0.005-0.003,0.008-0.007,0.012-0.011c0.016-0.011,0.034-0.024,0.054-0.041c0.008-0.005,0.014-0.012,0.022-0.017
			c0.019-0.016,0.039-0.033,0.058-0.052c0.005-0.004,0.01-0.009,0.016-0.014c-0.001,0-0.002,0.001-0.003,0.001
			c0.095-0.09,0.199-0.208,0.269-0.356l0.139-0.387c0,0,0.111-0.373,0.425-0.493c0,0,0.122-0.066,0.319-0.069
			c0.124,0,0.153,0.052,0.156,0.092c0.001,0.025-0.003,0.044-0.003,0.044s-0.022,0.09-0.226,0.351
			c-0.205,0.26-0.259,0.46-0.259,0.46S9.53,11.875,9.578,11.99c0.017,0.04,0.046,0.074,0.095,0.097c0,0,0.093,0.053,0.361-0.035
			c0.269-0.09,1.162-0.326,1.707-0.409l0.005-0.001l-0.001,0.002c-0.102,0.291-0.233,0.748-0.181,1.005
			c0.078,0.388,0.445,0.388,0.445,0.388s0.082,0.002,0.204-0.021c0.007,0.002,0.012,0.01,0.02,0.014
			c0.067,0.021,0.195,0.025,0.42-0.089c0.018-0.009,0.033-0.011,0.048-0.017c0.131,0.123,0.167,0.483,0.167,0.559
			c0,0.102-0.002,0.663-0.392,0.941c0,0-0.157,0.121-0.379,0.121c-0.222,0-0.367-0.066-0.367-0.066s-0.378-0.105-0.612,0.032
			c-0.233,0.138-0.51,0.422-0.73,0.834c-0.217,0.414-0.402,1.15-0.392,1.693c0.007,0.428,0.069,0.833,0.111,1.108l0.256,0.165
			c-0.001,0-0.001,0-0.003,0l0,0l0,0l0,0l-0.259-0.166c0,0-0.882,0.233-1.878,0.227c-0.7-0.004-0.68-0.37-0.592-0.61
			c0.012-0.034,0.026-0.065,0.04-0.095c0.003-0.006,0.006-0.014,0.01-0.022c0.012-0.023,0.025-0.045,0.033-0.06
			c0.013-0.019,0.019-0.029,0.019-0.029s0.245-0.432,0.29-0.681c0,0,0.086-0.671-0.547-0.627c-0.633,0.042-0.757,0.593-0.757,0.593
			s-0.043,0.31-0.034,0.537c0.007,0.229-0.001,0.71-0.287,0.985c-0.283,0.274-0.588,0.191-0.588,0.191S5.3,18.33,5.198,18.278
			c-0.081-0.041-0.155-0.046-0.225-0.035C5.088,17.7,5.222,17.165,5.378,16.636z M4.791,24.478l-0.103-0.144
			c-0.077-0.706-0.118-1.43-0.118-2.145c0-1.115,0.096-2.229,0.281-3.313l0.087-0.194c0.01-0.017,0.013-0.036,0.016-0.056
			c0.083,0.016,0.157,0.053,0.157,0.053s0.437,0.234,0.631,0.276c0.195,0.041,0.336-0.026,0.462-0.113
			c0.027-0.019,0.054-0.045,0.083-0.069c0.023-0.021,0.045-0.036,0.069-0.056c0.019-0.018,0.036-0.04,0.052-0.059
			c0.03-0.032,0.061-0.063,0.091-0.1c-0.002,0.001-0.006,0.003-0.009,0.006c0.083-0.102,0.152-0.215,0.206-0.329
			c-0.002,0.009-0.005,0.021-0.011,0.035c0.023-0.046,0.043-0.093,0.06-0.135c0.009-0.031,0.019-0.067,0.027-0.104
			c0.003-0.015,0.006-0.029,0.008-0.043c0.004-0.021,0.008-0.042,0.013-0.063c-0.001,0.004-0.002,0.005-0.003,0.01
			c0.019-0.115,0.032-0.247,0.042-0.368c0,0.002,0,0.005,0,0.008c0.016-0.193,0.02-0.352,0.02-0.358l0.001,0.005v-0.004v0.002
			c0,0,0-0.163-0.003-0.201c-0.001-0.003-0.001-0.008-0.002-0.014c-0.008-0.055-0.019-0.203,0.079-0.286
			c0.106-0.091,0.176-0.132,0.44-0.141c0.261-0.005,0.342,0.147,0.342,0.147s0.089,0.125,0.09,0.205
			c0,0.081-0.027,0.132-0.027,0.132s-0.143,0.24-0.192,0.357c-0.05,0.119-0.245,0.511-0.187,0.839c0,0.001,0,0.001,0,0.001v0.001
			c0.056,0.327,0.568,0.48,0.568,0.48s0.408,0.097,0.991,0.011l1.201-0.193l0.209-0.241l0.002,0.003l-0.208,0.237
			c0.03,0.437,0.065,1.293,0.059,1.581c-0.006,0.351-0.058,1.092-0.427,1.266c0,0-0.125,0.065-0.334-0.091
			c-0.21-0.158-0.437-0.166-0.528-0.17c-0.091,0-0.494,0.063-0.651,0.507c-0.158,0.44-0.144,1.035-0.111,1.383
			c0.033,0.35,0.337,0.948,0.72,0.948c0,0,0.186,0.01,0.407-0.212c0.217-0.229,0.346-0.247,0.444-0.245
			c0.099,0.001,0.288,0.105,0.412,1.095c0.118,0.943,0.169,1.713,0.159,2.566l0.227,0.146c0,0.001,0,0.001,0,0.001
			c-0.002,0-0.002,0-0.004,0L10.3,27.184c-0.125,0.018-0.275,0.031-0.428,0.043C9.483,27.251,8.919,27.206,8.219,27
			c-0.678-0.205-1.104-0.562-1.191-0.797c-0.002-0.008-0.01-0.02-0.011-0.029c-0.009-0.038-0.014-0.076-0.016-0.117
			c-0.001-0.01,0-0.02-0.001-0.033c0.002-0.117,0.029-0.229,0.029-0.229s0.131-0.509,0.049-0.924
			c-0.011-0.045-0.02-0.093-0.032-0.136c-0.003-0.015-0.006-0.027-0.008-0.041c-0.003-0.008-0.007-0.021-0.009-0.031
			c-0.003-0.01-0.008-0.014-0.012-0.023c-0.092-0.306-0.244-0.559-0.569-0.758c-0.403-0.241-0.632-0.199-0.632-0.199
			s-0.36-0.053-0.348,0.557c0.014,0.614,0.091,0.868,0.091,0.868s0.069,0.216-0.042,0.246c-0.109,0.027-0.284-0.141-0.284-0.141
			s-0.079-0.07-0.187-0.176c-0.013-0.016-0.026-0.031-0.041-0.043c-0.073-0.072-0.153-0.159-0.23-0.241l0.036-0.091
			C4.834,24.604,4.828,24.534,4.791,24.478z M5.491,28.096c0,0,0-0.003,0.002-0.003c0.03-0.007,0.223,0.341,0.333,0.671
			c0.127,0.381,0.213,0.698,0.213,0.698s0.07,0.216,0.064,0.288C5.873,29.211,5.669,28.658,5.491,28.096z M7.384,32.266
			l-0.032-0.117c-0.011-0.043-0.037-0.076-0.072-0.102l-0.046-0.036c-0.361-0.61-0.68-1.241-0.968-1.88
			c0.001-0.004,0.001-0.013,0.002-0.018C6.271,30.1,6.273,30.09,6.274,30.07c0-0.01-0.001-0.027-0.002-0.041
			c-0.001-0.025-0.004-0.051-0.008-0.08c-0.002-0.012,0-0.016-0.003-0.025c0,0-0.001,0-0.002,0c-0.03-0.188-0.114-0.492-0.3-0.992
			c-0.2-0.546-0.329-0.836-0.411-0.994v-0.002c-0.009-0.016-0.015-0.027-0.023-0.041c0,0,0,0,0,0.002
			c-0.067-0.125-0.097-0.147-0.106-0.154c-0.009-0.016-0.035-0.037-0.052-0.032c-0.252-0.845-0.44-1.719-0.574-2.603
			c0.031,0.035,0.064,0.072,0.103,0.117l0,0c0.066,0.074,0.146,0.162,0.239,0.258l0.001,0.002l0,0l0,0
			c0.417,0.434,0.55,0.158,0.55,0.158s0.006-0.018,0.013-0.055c0.001-0.005,0.002-0.01,0.003-0.014
			c0.002-0.014,0.005-0.033,0.007-0.053c0.001-0.01,0.001-0.019,0.003-0.026c0.003-0.021,0.006-0.039,0.008-0.068
			c0-0.002,0.001-0.004,0.001-0.008c0,0.001-0.001,0.001-0.001,0.002c0.002-0.054,0.002-0.112-0.001-0.183c0,0.002,0,0.005,0,0.007
			c0-0.002,0-0.005,0-0.009c-0.002-0.033-0.008-0.071-0.012-0.111c-0.001-0.02-0.003-0.042-0.007-0.062
			c-0.008-0.041-0.015-0.09-0.027-0.131c-0.003-0.02-0.004-0.035-0.008-0.054c0-0.002-0.001-0.003-0.002-0.006
			c-0.072-0.304-0.092-0.53-0.042-0.655c0.013-0.035,0.033-0.059,0.055-0.08c0.009-0.007,0.016-0.012,0.025-0.014
			c0.019-0.011,0.042-0.017,0.065-0.021c0.009,0,0.015-0.004,0.025-0.004c0.222,0.009,0.868,0.14,1.07,0.675
			c0,0,0.083,0.25,0.007,0.569c-0.077,0.321-0.063,0.605-0.007,0.884c0.056,0.279,0.291,0.539,0.564,0.756
			c0.27,0.218,1.057,0.592,1.82,0.642c0.765,0.049,1,0.009,1,0.009l0.285-0.293c0,0.002,0,0.003,0,0.006l-0.286,0.293
			c-0.017,0.069-0.035,0.156-0.054,0.238c-0.066,0.26-0.072,0.525-0.009,0.989c0.062,0.461,0.311,1.431,0.675,1.683
			c0.481,0.333,0.795,0.326,1.123,0.303c0.323-0.022,0.547-0.271,0.547-0.271s0.126-0.131,0.264-0.094
			c0.138,0.039,0.517,0.254,0.791,0.804c0.275,0.547,0.335,1.151-0.122,1.26c-0.457,0.104-1.244-0.327-1.244-0.327
			s-0.445-0.25-0.812,0.023c-0.366,0.279-0.375,0.697-0.193,1.214c0.102,0.284,0.301,0.748,0.582,1.228l0.273,0.114
			c0-0.001-0.002-0.001-0.002-0.001l-0.273-0.113c-0.438-0.088-1.248-0.261-1.567-0.418c-0.126-0.062-0.226-0.094-0.297-0.134
			c-0.035-0.021-0.062-0.043-0.083-0.067C9.81,34.018,9.8,33.954,9.812,33.844c0.04-0.297-0.289-0.705-0.289-0.705
			s-0.458-0.496-0.869-0.804c-0.412-0.31-0.587-0.218-0.587-0.218s-0.185,0.099-0.019,0.499c0.17,0.401,0.332,0.54,0.332,0.54
			s0.081,0.083,0.035,0.105c-0.046,0.026-0.187-0.082-0.303-0.183c-0.054-0.045-0.273-0.246-0.492-0.451
			C7.542,32.504,7.46,32.387,7.384,32.266z M17.312,40.438c0.51,0.067,1.16,0.142,1.382,0.164l0.005-0.002
			c-0.002,0.034-0.016,0.07-0.037,0.118c-0.04,0.087,0.042,0.151,0.119,0.191C18.282,40.773,17.793,40.611,17.312,40.438z
			 M18.929,40.494L18.929,40.494l0.056,0.003c-0.046-0.043-0.106-0.084-0.173-0.123c-0.006-0.006-0.01-0.008-0.019-0.01
			c0.006,0,0.013,0.004,0.016,0.007c-0.021-0.01-0.039-0.023-0.062-0.037c-0.27-0.143-1.435-0.913-1.796-1.158
			c-0.241-0.16-0.603-0.394-0.899-0.51c-0.022-0.01-0.04-0.02-0.059-0.021c-0.122-0.039-0.23-0.061-0.312-0.035
			c-0.213,0.067-0.182,0.15-0.309,0.211c-0.096,0.047-0.195,0.035-0.368-0.037c-0.004-0.003-0.008-0.006-0.012-0.008
			c-0.057-0.026-0.123-0.061-0.198-0.099c-0.024-0.014-0.046-0.028-0.067-0.036c-0.038-0.021-0.074-0.039-0.11-0.062
			c-0.19-0.104-0.388-0.229-0.701-0.506c-0.029-0.026-0.054-0.049-0.085-0.075c-0.063-0.058-0.127-0.118-0.199-0.187
			c-0.48-0.455,0.613-0.045,0.613-0.045s0.237,0.103,0.132-0.146c-0.013-0.031-0.033-0.065-0.055-0.104
			c-0.013-0.021-0.03-0.043-0.045-0.067c-0.012-0.019-0.025-0.037-0.04-0.06c-0.02-0.029-0.043-0.062-0.069-0.094
			c-0.012-0.021-0.025-0.036-0.04-0.059c-0.027-0.034-0.055-0.069-0.086-0.107c-0.016-0.02-0.031-0.038-0.047-0.061
			c-0.029-0.038-0.06-0.075-0.092-0.113c-0.021-0.023-0.042-0.05-0.066-0.074c-0.026-0.033-0.057-0.066-0.085-0.104
			c-0.035-0.038-0.071-0.08-0.108-0.122c-0.018-0.02-0.037-0.042-0.055-0.062c-0.042-0.05-0.087-0.097-0.13-0.145
			c0.002,0.002,0.002,0.004,0.005,0.009c-0.079-0.09-0.16-0.174-0.241-0.259c-0.153-0.159-0.278-0.299-0.395-0.434
			c0.002,0.002,0.006,0.008,0.009,0.012c-0.202-0.231-0.368-0.457-0.55-0.723l-0.213-0.248c0.001,0.002,0.003,0.004,0.005,0.006
			l-0.007-0.006L12,35.02c0.188,0.285,0.406,0.564,0.645,0.81c0,0,0.949,1.049,1.477,1.714c0,0,0.03,0.061-0.061,0.008
			c-0.091-0.06-0.487-0.242-0.701-0.219c-0.212,0.02-0.173,0.15-0.173,0.15s0.092,0.484,1.543,1.298c0,0,0.524,0.29,0.854,0.29
			c0,0,0.107,0.018,0.237-0.133c0.135-0.146,0.174-0.129,0.265-0.099c0.093,0.028,0.213,0.093,0.671,0.427
			c0.457,0.327,1.346,0.836,1.664,1.049c0.105,0.068,0.171,0.121,0.212,0.16c-0.652-0.05-1.368-0.139-1.744-0.189
			c-0.17-0.064-0.335-0.133-0.502-0.204c-0.079-0.051-0.173-0.104-0.266-0.163c-0.198-0.118-0.796-0.35-0.796-0.35
			s-0.063-0.021-0.146-0.053c-0.714-0.365-1.405-0.771-2.069-1.224c0.115,0.038,0.236,0.06,0.327,0.005
			c-0.022-0.218-0.271-0.395-0.413-0.499c-0.052-0.04-0.088-0.108-0.138-0.153c-0.181-0.162-0.394-0.317-0.593-0.457
			c-0.164-0.115-0.387-0.186-0.534-0.319c-0.003-0.033,0.047-0.115,0.016-0.196c-0.128-0.348-0.613-0.745-0.913-0.931
			c-0.14-0.089-0.374-0.125-0.502-0.216c-0.095-0.008-0.145-0.01-0.167,0.061c-0.038,0.085,0.08,0.202,0.121,0.262
			c0.105,0.146,0.224,0.315,0.366,0.424c0.106,0.082,0.226,0.151,0.319,0.244h0.045c-0.059-0.162-0.234-0.254-0.364-0.351
			c-0.12-0.089-0.173-0.243-0.275-0.349c0.009-0.051,0.014-0.047,0.031-0.078c0.421,0.005,0.693,0.392,0.882,0.642
			c0.085,0.111,0.22,0.177,0.229,0.364c-0.045,0-0.084,0-0.106-0.014h-0.047c0.073,0.197,0.317,0.185,0.487,0.291
			c0.342,0.211,0.617,0.539,0.913,0.805c0.102,0.088,0.278,0.181,0.304,0.334c-0.207-0.01-0.353-0.123-0.484-0.215
			c-0.015-0.008-0.036-0.022-0.052-0.035c-0.195-0.143-0.385-0.289-0.576-0.439c-0.058-0.059-0.11-0.111-0.149-0.162
			c-0.031-0.039-0.042-0.104-0.078-0.139c-0.041-0.04-0.1-0.055-0.137-0.105h-0.059c-0.002,0.031,0.005,0.056,0.014,0.078
			c-1.349-1.127-2.555-2.443-3.581-3.939c0.02,0.02,0.038,0.033,0.059,0.052c0.449,0.353,0.561,0.33,0.591,0.302
			c0.011-0.011,0.012-0.021,0.012-0.021s0.022-0.155-0.116-0.326c-0.038-0.048-0.082-0.107-0.125-0.176
			c-0.019-0.026-0.036-0.055-0.053-0.085c-0.053-0.093-0.099-0.183-0.122-0.261c-0.001-0.006-0.001-0.012-0.002-0.018
			c-0.005-0.02-0.009-0.039-0.011-0.059c0-0.018,0.002-0.036,0.007-0.051c0,0,0-0.006,0.001-0.01
			c0.055-0.132,0.119-0.117,0.119-0.117s0.051-0.021,0.229,0.114c0.178,0.134,0.576,0.413,0.774,0.654
			c0.194,0.237,0.184,0.448,0.183,0.452c0,0.001-0.001,0.015-0.001,0.037c-0.001,0.07,0.015,0.24,0.176,0.414
			c0.213,0.233,0.667,0.662,2.254,0.905c0.01,0.003,0.015,0.003,0.024,0.007l0.074-0.211l0.002,0.002l0,0h0.001l0,0l0.215,0.248
			c0.002,0,0.004,0.002,0.007,0.002c1.381,0.202,2.133,0.217,2.133,0.217s1.812,0.062,2.303,0.062c0.417,0,0.412,0.186,0.402,0.243
			c-0.002,0.005-0.004,0.01-0.004,0.01s-0.028,0.14-0.086,0.249c-0.038,0.068-0.106,0.262-0.118,0.447
			c-0.006,0.107,0.007,0.219,0.063,0.305c0,0,0.225,0.547,1.685,0.588c0,0,1.278,0.103,2.171-0.263
			c0.281-0.118,0.393-0.245,0.416-0.371c0.054-0.269-0.328-0.509-0.328-0.509s-0.306-0.188-0.436-0.285
			c-0.058-0.046-0.075-0.095-0.075-0.133c0-0.042,0.018-0.081,0.028-0.112c0.024-0.063,0.114-0.136,0.218-0.19
			c0.103-0.049,0.476-0.252,2.063-0.662c1.588-0.408,2.537-0.454,2.537-0.454s0.01-0.001,0.016-0.002
			c0.15,0.366,0.269,0.573,0.498,0.825c0.25,0.272,0.646,0.482,1.111,0.66c0.465,0.18,0.254,0.494,0.254,0.494
			c-0.267,0.574-1.058,0.6-1.291,0.627c-0.231,0.024-0.72,0.072-1.174,0.172c-0.458,0.1-0.884,0.158-1.141,0.455
			c-0.253,0.295-0.154,0.599-0.005,0.92c0.149,0.322,0.548,0.494,1.098,0.471c0.548-0.021,0.902-0.182,1.236-0.324
			c0.33-0.145,0.907-0.312,1.081-0.361c0.171-0.052,0.404-0.15,0.578,0.1c0.183,0.269,0.382,0.654,0.471,0.941l0.212-0.044
			c0,0,0,0.001,0,0.003c-0.039,0.008-0.071,0.014-0.097,0.021c-0.063,0.014-0.098,0.021-0.098,0.021s-0.467,0.113-1.244,0.413
			c-0.775,0.302-2.3,0.552-2.3,0.552S23.98,40.2,23.66,40.279c0.038-0.014,0.067-0.021,0.067-0.021s0.369-0.071,0.741-0.122
			c0,0-0.98,0.113-1.071,0.24c-0.03,0.053-0.026,0.092-0.009,0.124c0.023,0.048,0.087,0.073,0.087,0.073s0.14,0.087,0.642,0.107
			c0,0,0.173,0,0.183,0.016c0,0.001,0,0.003,0,0.003c0.002,0.004,0.003,0.009,0.003,0.012c0,0.001-0.001,0.003-0.002,0.003
			c-0.003,0.004-0.011,0.01-0.027,0.021c-0.015,0.007-0.035,0.014-0.065,0.021c-0.11,0.033-0.328,0.122-1.068,0.216
			c-0.488,0.062-0.647,0.03-0.701,0.004l0,0c-0.031-0.016-0.03-0.029-0.03-0.029s0-0.012,0.002-0.021
			c0.004-0.015,0.012-0.036,0.029-0.063c0.007-0.01,0.013-0.027,0.013-0.043c0.001-0.051-0.038-0.112-0.125-0.163
			c0-0.002-0.028-0.019-0.105-0.042c0,0,0.008,0.002,0.014,0.009c-0.096-0.029-0.286-0.067-0.613-0.065
			c-0.542,0.006-1.621,0.01-2.628-0.053C18.975,40.498,18.95,40.497,18.929,40.494z M21.314,41.43
			c-0.335-0.045-0.668-0.098-0.999-0.158c0.199-0.013,0.335-0.021,0.507,0.013c0.243,0.055,0.494,0.112,0.516,0.136
			C21.349,41.423,21.334,41.428,21.314,41.43z M25.264,41.568c0.266-0.034,0.582-0.053,0.758-0.074
			c0.07-0.006,0.121-0.006,0.156-0.006C25.877,41.523,25.568,41.55,25.264,41.568z M26.646,41.43
			c-0.023-0.012-0.074-0.023-0.199-0.031c-0.11-0.004-0.219-0.004-0.334,0c-0.162,0.002-0.371,0.011-0.562,0.037
			c-0.131,0.02-0.268,0.041-0.381,0.06c-0.038,0.007-0.075,0.011-0.112,0.017c-0.248,0.037-0.36,0.067-0.408,0.09
			c-0.219,0.008-0.433,0.018-0.651,0.018c-0.777,0-1.542-0.053-2.299-0.139c0.022-0.024-0.031-0.059-0.067-0.073
			c-0.018-0.011-0.033-0.017-0.033-0.017s-0.035-0.014-0.105-0.039l0,0c-0.006-0.002-0.014-0.002-0.02-0.004
			c0.001,0,0.007,0.002,0.011,0.002c-0.04-0.014-0.091-0.029-0.149-0.043c0,0-0.002-0.002-0.005-0.002
			c-0.046-0.014-0.095-0.024-0.151-0.035c-0.001-0.002-0.002-0.002-0.002-0.002c-0.116-0.022-0.253-0.053-0.421-0.07
			c0.006,0.001,0.013,0.002,0.017,0.004c-0.088-0.014-0.179-0.024-0.281-0.028c0,0-0.311-0.024-0.58,0.003
			c-0.01,0.001-0.022,0.001-0.035,0.001c0.003,0,0.005,0,0.008-0.001c-0.005,0.001-0.009,0-0.01,0c-0.2-0.039-0.4-0.087-0.596-0.137
			c-0.111-0.041-0.272-0.126-0.208-0.214c0.049-0.063,0.053-0.128,0.026-0.191c0.426,0.025,0.983,0.056,0.983,0.056
			s1.145,0.043,1.772-0.006c0.281-0.026,0.194,0.121,0.194,0.121s-0.081,0.135,0.081,0.202c0,0,0.296,0.17,1.284,0.062
			c0.991-0.107,1.208-0.332,1.208-0.332s0.115-0.104-0.134-0.153c-0.013-0.003-0.026-0.005-0.04-0.006
			c-0.004-0.001-0.014-0.005-0.014-0.007c-0.003,0-0.006,0-0.01,0s-0.006,0-0.008-0.002c-0.002,0-0.002-0.002-0.004-0.002
			s-0.006,0-0.009,0c-0.002,0-0.005,0-0.005-0.002c-0.001,0-0.004,0-0.007,0c-0.002,0-0.005-0.002-0.008-0.002
			c-0.001,0-0.004,0-0.005,0c-0.004-0.002-0.006-0.002-0.008-0.004c-0.002,0-0.006,0-0.007,0c0,0-0.003,0-0.006,0
			c0-0.002-0.004-0.002-0.005-0.002c-0.005,0-0.006-0.002-0.006-0.002c-0.002,0-0.002,0-0.004,0c-0.004,0-0.009,0-0.013,0
			c0,0,0,0-0.001-0.002c0,0-0.004,0-0.008,0c-0.001-0.001-0.003-0.001-0.005-0.001s-0.004,0-0.006,0c-0.003,0-0.004,0-0.004,0
			c-0.004-0.001-0.006-0.001-0.009-0.001h-0.002c-0.002,0-0.005-0.002-0.007-0.002s-0.004,0-0.006,0c-0.002,0-0.005,0-0.006,0
			c-0.002,0-0.002,0-0.004,0c-0.015-0.002-0.03-0.002-0.048-0.005c-0.001,0-0.002,0-0.002,0c-0.004,0-0.007,0-0.009,0
			c-0.001,0-0.003,0-0.006,0c0,0-0.002,0-0.006,0c-0.002-0.001-0.005-0.001-0.007-0.001s-0.004,0-0.006,0s-0.005,0-0.008-0.001
			c-0.001,0-0.005,0-0.007,0s-0.007-0.001-0.011-0.002c-0.002,0-0.005,0-0.008,0s-0.006,0-0.011,0c-0.002,0-0.004,0-0.007,0
			c-0.002,0-0.006,0-0.008,0s-0.006,0-0.01,0c0-0.001-0.005-0.001-0.008-0.001c-0.002,0-0.006,0-0.009,0
			c-0.001-0.002-0.006-0.002-0.01-0.002c-0.002-0.001-0.007-0.001-0.009-0.002c-0.002,0-0.007-0.001-0.011-0.001
			c-0.002,0-0.005,0-0.006,0c-0.005,0-0.011-0.002-0.015-0.003c-0.002,0-0.003,0-0.006,0c-0.009-0.002-0.014-0.004-0.023-0.004
			c-0.054-0.01-0.104-0.012-0.146-0.021l-0.06-0.007c-0.094-0.027-0.111-0.062,0-0.092c0.169-0.043,0.451-0.067,0.451-0.067
			s0.866-0.116,1.565-0.299c0,0,0.747-0.175,1.487-0.438c0.287-0.102,0.533-0.177,0.723-0.227l0.168-0.246v0.001l-0.164,0.243
			c0.038,0.251-0.041,0.334-0.096,0.428c-0.062,0.104-0.229,0.229-0.146,0.456c0.082,0.228,0.646,0.154,0.976,0.058
			c0.328-0.099,0.604-0.19,0.822-0.269c0.217-0.073,0.275,0.036,0.275,0.036s0.094,0.068-0.223,0.232
			c-0.069,0.035-0.15,0.065-0.241,0.095c-0.015,0.005-0.021,0.01-0.035,0.014c-0.069,0.021-0.146,0.04-0.22,0.056
			c-0.018,0.004-0.04,0.009-0.057,0.014c-0.062,0.014-0.125,0.023-0.187,0.036c-0.022,0.006-0.046,0.01-0.075,0.013
			c-0.047,0.007-0.098,0.014-0.145,0.021c-0.025,0.006-0.053,0.011-0.075,0.014c-0.052,0.003-0.103,0.01-0.142,0.015
			c-0.033,0.007-0.065,0.009-0.09,0.011c-0.014,0.002-0.027,0.002-0.043,0.004c-0.005,0-0.015,0.002-0.023,0.002
			c-0.016,0.002-0.031,0.002-0.047,0.002c-0.008,0.003-0.02,0.003-0.031,0.004c-0.006,0.001-0.008,0.001-0.012,0.001
			c-0.016,0.001-0.031,0.003-0.043,0.007c-0.004,0.001-0.006,0.001-0.01,0.002c-0.062,0.016-0.148,0.04-0.312,0.098
			c-0.416,0.144-0.026,0.273-0.026,0.273c0.209,0.054,0.401,0.082,0.581,0.102C27.848,41.234,27.25,41.35,26.646,41.43z
			 M34.589,38.423c-0.011,0.009-0.021,0.015-0.024,0.022c-1.746,1.144-3.674,2.01-5.729,2.547c-0.179-0.016-0.312-0.04-0.378-0.051
			c-0.166-0.021-0.298-0.055-0.337-0.141c-0.007-0.012-0.007-0.017-0.005-0.023c0.017-0.059,0.188-0.053,0.188-0.053h0.002
			c0,0,0.035-0.006,0.09-0.01c0.166-0.025,0.545-0.082,0.937-0.191c0.073-0.02,0.146-0.041,0.218-0.062
			c0.6-0.197,0.744-0.378,0.723-0.518c-0.004-0.021-0.017-0.036-0.029-0.049c-0.006-0.006-0.012-0.011-0.02-0.015
			c-0.014-0.008-0.027-0.012-0.048-0.019c-0.004-0.004-0.014-0.008-0.024-0.01c-0.021-0.006-0.049-0.01-0.082-0.011
			c-0.002-0.001-0.006-0.001-0.012-0.001c-0.035,0-0.074,0.004-0.117,0.01c-0.008,0.002-0.014,0-0.017,0.002
			c0.002,0,0.004,0,0.007,0c-0.103,0.014-0.219,0.041-0.348,0.082c-0.359,0.114-0.895,0.287-1.023,0.314
			c-0.031,0.009-0.062,0.01-0.094,0.011c0.006,0,0.008,0,0.012,0c-0.047,0.003-0.094,0-0.133-0.007
			c-0.001-0.001-0.006-0.003-0.013-0.005c-0.036-0.013-0.065-0.026-0.084-0.058h-0.001c-0.044-0.075-0.079-0.205,0.061-0.35
			c0.139-0.145,0.151-0.266,0.151-0.266c0.017-0.062,0.019-0.129,0.017-0.196c0-0.017-0.002-0.034-0.004-0.05
			c-0.002-0.021,0-0.041-0.004-0.061c0.023-0.006,0.038-0.009,0.038-0.009s0.89-0.206,1.261-0.271
			c0.369-0.065,1.213-0.246,1.57-0.42s0.538-0.31,0.581-0.412c0.042-0.105-0.153-0.164-0.153-0.164s-0.223-0.057-0.193-0.131
			c0.029-0.078,0.111-0.146,0.465-0.309c0.354-0.154,0.799-0.326,1.242-0.438c0.443-0.109,0.281,0.074,0.281,0.074
			s-0.264,0.271-0.3,0.375c-0.032,0.105,0.009,0.109,0.043,0.127c0.033,0.021,0.248,0.012,0.394-0.023
			c0.147-0.038,1.332-0.488,2.059-0.902c0.018-0.011,0.037-0.022,0.051-0.029l0.153-0.252v0.002c0,0,0,0,0,0.002
			c-0.011,0.01-0.015,0.021-0.022,0.035c-0.213,0.349-0.306,0.548-0.306,0.548s-0.11,0.211-0.116,0.334
			c-0.012,0.118-0.103,0.104-0.103,0.104s-0.183-0.012-0.447,0.104c-0.011,0.004-0.014,0.005-0.021,0.006
			c0,0-0.014,0.005-0.028,0.015c-0.09,0.042-0.181,0.097-0.28,0.168c-0.019,0.015-0.035,0.026-0.054,0.037
			c-0.013,0.011-0.021,0.019-0.032,0.026c-0.283,0.23-0.479,0.429-0.589,0.553c-0.007,0.008-0.013,0.012-0.017,0.018
			c-0.057,0.064-0.088,0.104-0.088,0.104s-0.166,0.218-0.008,0.218c0.155,0,0.528-0.188,0.672-0.315
			C34.66,38.318,34.589,38.423,34.589,38.423z M37.988,35.548c-0.248,0.272-0.37,0.388-0.37,0.388s-0.044,0.041-0.093,0.099
			l-0.004,0.005c0,0.002-0.004,0.004-0.004,0.004l0,0c-0.033,0.037-0.061,0.078-0.076,0.113c-0.811,0.779-1.686,1.49-2.623,2.121
			c0.022-0.03,0.027-0.057,0.02-0.064h-0.001c0-0.001,0-0.001,0-0.001c-0.052-0.04-0.239,0.099-0.239,0.099
			s-0.031,0.021-0.072,0.054l0.002-0.001c-0.055,0.037-0.131,0.09-0.209,0.128c-0.02,0.012-0.037,0.019-0.062,0.026
			c-0.011,0.006-0.022,0.012-0.038,0.016c-0.027,0.007-0.054,0.011-0.076,0.01c-0.151-0.01,0.185-0.331,0.185-0.331
			s0.196-0.222,0.437-0.356c0.078-0.045,0.161-0.08,0.246-0.092c0.328-0.063,0.395-0.145,0.555-0.271
			c0.056-0.041,0.093-0.084,0.133-0.146c0.084-0.121,0.17-0.315,0.393-0.72c0.014-0.021,0.023-0.047,0.039-0.067l0,0
			c0.426-0.236,0.577-0.311,0.678-0.373c0.455-0.271,0.994-0.599,1.137-0.711C37.943,35.471,38.238,35.27,37.988,35.548z M40.738,32
			c0.117-0.251,0.214-0.523,0.328-0.785c0.117-0.265,0.283-0.521,0.277-0.9c-0.021-0.015-0.031-0.039-0.047-0.061h-0.09
			c-0.096,0.081-0.223,0.116-0.32,0.186c-0.154,0.108-0.294,0.254-0.443,0.363c-0.066,0.053-0.166,0.102-0.213,0.172
			c-0.076,0.11-0.062,0.309-0.149,0.407v0.06c0.118-0.041,0.178-0.183,0.272-0.256c0.119-0.092,0.219-0.207,0.332-0.291
			c0.076-0.056,0.162-0.08,0.231-0.138c0.046,0.011,0.044,0.013,0.076,0.03c-0.009,0.388-0.21,0.658-0.337,0.945
			c-0.036,0.084-0.047,0.211-0.107,0.271c-0.027,0.029-0.087,0.036-0.119,0.062c-0.102,0.107-0.203,0.223-0.308,0.334
			c-0.097,0.132-0.142,0.309-0.243,0.44c-0.001,0.042-0.001,0.083,0.016,0.104c0.015,0.014,0.043,0.024,0.062,0.033
			c0.167-0.16,0.329-0.297,0.478-0.473c-0.664,1.038-1.416,2.01-2.254,2.901c0.014-0.021,0.034-0.038,0.047-0.063
			c0.01-0.009,0.016-0.016,0.022-0.025c0.114-0.16,0.036-0.156,0.036-0.156s-0.028-0.002-0.102,0.029
			c-0.011,0.002-0.022,0.004-0.035,0.013c-0.008,0.004-0.012,0.005-0.02,0.009v0.001c-0.055,0.024-0.126,0.065-0.227,0.126
			c-0.312,0.198-0.526,0.333-0.526,0.333s-0.666,0.377-1.086,0.623c-0.003,0.003-0.005,0.006-0.009,0.009
			c0.002-0.002,0.002-0.002,0.003-0.004s0.004-0.005,0.008-0.007c-0.004,0.002-0.007,0.005-0.008,0.007
			c0.301-0.473,0.657-0.885,0.928-1.187c0.335-0.372,0.729-0.974,0.729-0.974s0.246-0.423,0.257-0.619
			c0.002-0.024-0.003-0.051-0.013-0.066c-0.002-0.012-0.015-0.008-0.022-0.014c-0.011-0.004-0.015-0.01-0.026-0.01
			c-0.094-0.017-0.294,0.082-0.597,0.312c-0.274,0.206-0.501,0.347-0.687,0.444c-0.006,0.004-0.014,0.006-0.022,0.01
			c0.01-0.004,0.017-0.01,0.022-0.014c-0.105,0.051-0.213,0.088-0.307,0.097c-0.248,0.026-0.333-0.122-0.359-0.281
			c-0.012-0.095-0.006-0.192,0.004-0.259c0.026-0.182,0.125-0.596,0.41-0.76c0.289-0.164,0.694-0.158,0.979-0.198
			c0.283-0.038,0.412-0.118,0.412-0.118s0.464-0.293,0.77-0.789c0.303-0.498,0.58-1.299,0.612-2.094
			c0-0.008-0.002-0.016-0.002-0.027c0.005-0.077,0.002-0.148-0.004-0.22c-0.002-0.026-0.007-0.052-0.009-0.074
			c-0.006-0.055-0.014-0.103-0.019-0.147c-0.005-0.022-0.01-0.043-0.014-0.062c-0.015-0.062-0.025-0.118-0.045-0.171l0.002,0.001
			c0.763-0.603,1.489-1.375,1.489-1.375s0.481-0.485,0.726-0.906c0.021-0.03,0.034-0.052,0.047-0.071
			c0.005-0.006,0.011-0.008,0.013-0.014c0.008-0.014,0.019-0.023,0.025-0.027c0.001,0,0.002,0,0.004,0
			c0.006-0.002,0.008,0,0.012,0.006c0,0,0,0.004,0.002,0.006c0.002,0.011,0.002,0.021,0.002,0.031c0,0.002,0,0.006,0,0.009
			c-0.002,0.001-0.002,0.004-0.002,0.004s-0.195,0.554-0.127,0.829c0,0.002,0,0.005,0,0.007c0-0.002-0.002-0.005-0.002-0.006
			c0,0.006,0.002,0.012,0.002,0.019c0.004,0.055,0.012,0.11,0.021,0.159c0.005,0.019,0.01,0.03,0.017,0.047
			c0.014,0.054,0.037,0.104,0.072,0.144c0,0.002,0,0.004,0,0.004c0.009,0.01,0.014,0.01,0.021,0.01
			c0.17,0.118,0.58-0.316,0.58-0.316s0.263-0.303,0.369-0.791c0.098-0.451,0.102-0.68,0.092-0.785
			c-0.004-0.062-0.019-0.08-0.019-0.08s-0.094-0.149-0.036-0.33c0.006-0.016,0.016-0.041,0.021-0.062
			c0.1-0.268,0.427-1.08,0.711-1.441C43.04,26.993,42.129,29.652,40.738,32z M40.383,32.312c-0.02,0.146-0.135,0.283-0.244,0.351
			v0.014H40.12c0.03-0.184,0.17-0.231,0.231-0.362h0.031V32.312z M41.54,27.041c-0.017,0.061-0.028,0.105-0.028,0.105
			s-0.003,0.008-0.005,0.019c0.002-0.01,0.005-0.019,0.005-0.019S41.523,27.102,41.54,27.041z M43.391,23.413l-0.094,0.158
			c-0.029,0.054-0.035,0.115-0.014,0.17l0.041,0.103c-0.004,0.003-0.004,0.007-0.006,0.01c0,0.001,0,0.002-0.002,0.002
			c-0.004,0.01-0.01,0.021-0.017,0.026c-0.069,0.112-0.157,0.252-0.263,0.428c-0.489,0.801-0.564,1.452-0.564,1.452
			s-0.045,0.252-0.021,0.399c0.007,0.028,0.013,0.052,0.021,0.073c0,0,0,0.004,0,0.007c0.006,0.026,0.014,0.042,0.021,0.062
			c0,0,0,0,0.001,0l0,0c0.01,0.024,0.015,0.04,0.021,0.059c0,0.005,0.002,0.007,0.004,0.011c0.004,0.007,0.008,0.019,0.008,0.028
			c0.004,0.015-0.004,0.096-0.023,0.201c-0.005,0.02-0.01,0.043-0.016,0.062s-0.012,0.038-0.014,0.061
			c-0.012,0.039-0.027,0.086-0.041,0.133c-0.004,0.012-0.014,0.029-0.021,0.045c-0.019,0.052-0.042,0.104-0.07,0.158
			c-0.005,0.008-0.007,0.016-0.01,0.02c-0.171,0.312-0.313,0.398-0.313,0.398s-0.287,0.209-0.328,0.059
			c-0.041-0.146-0.029-0.276-0.017-0.37c0.017-0.093,0.112-0.608,0.099-0.795c-0.012-0.192-0.184-0.039-0.184-0.039
			s-0.039,0.042-0.115,0.142c-0.076,0.094-0.496,0.629-0.654,0.814c-0.383,0.447-0.729,0.77-1.651,1.512
			c-0.004,0.002-0.008,0.006-0.009,0.008c-0.004-0.006-0.006-0.008-0.01-0.008c-0.034-0.061-0.068-0.105-0.102-0.146
			c-0.041-0.057-0.078-0.1-0.1-0.131c-0.109-0.141-0.309-0.073-0.555-0.664c-0.244-0.584-0.297-1.084-0.291-1.428
			c0-0.052,0.004-0.094,0.006-0.138c0.021-0.341,0.104-0.478,0.26-0.622c0.162-0.145,0.857-0.08,0.857-0.08s0.34,0.07,0.646-0.439
			c0.229-0.375,0.275-0.929,0.244-1.359c-0.012-0.15-0.034-0.283-0.061-0.391c-0.095-0.413-0.238-0.775-0.807-0.832
			c-0.566-0.061-0.82,0.637-0.82,0.637s-0.115,0.268-0.236,0.423c-0.117,0.147-0.443,0.109-0.443,0.109
			c-0.145-0.021-0.316,0.037-0.486-0.313c-0.17-0.349-0.557-1.264-0.557-1.264c-0.131-0.312-0.212-0.582-0.266-0.792l-0.277-0.115
			l-0.001-0.001l0.278,0.113c0.395-0.217,1.064-0.606,1.543-1.012c0.722-0.605,1.426-1.242,1.604-1.401
			c0.178-0.161,0.344-0.289,0.502-0.282c0.16,0.009,0.281,0.122,0.381,0.553c0.103,0.429,0.118,0.783,0.164,0.993
			c0.045,0.209,0.111,0.453,0.359,0.503c0.248,0.05,0.581-0.168,0.705-0.275c0.033-0.026,0.072-0.07,0.111-0.125
			c0-0.004,0.004-0.008,0.008-0.011c0.02-0.023,0.033-0.051,0.053-0.079c0.093-0.169,0.18-0.413,0.171-0.705
			c0,0,0.024-0.618-0.293-1.204c0,0-0.134-0.235-0.187-0.301c-0.033-0.045-0.058-0.091-0.002-0.2
			c0.016-0.028,0.033-0.062,0.058-0.098c0.067-0.109,0.182-0.25,0.353-0.344c0.17-0.099,0.336-0.122,0.432-0.152
			c0,0,0.106-0.026,0.244-0.101v-0.003l0,0c0,0.004,0.002,0.008,0.004,0.012c0.203,0.631,0.435,1.681,0.435,1.681
			s0.073,0.311,0.081,0.452c0.01,0.142-0.023,0.146-0.091,0.071c-0.063-0.074-0.125-0.027-0.125-0.027s-0.066,0.027-0.066,0.297
			c0,0.271,0.032,0.903,0.082,1.392c0.062,0.579,0.239,0.82,0.239,0.82s0.156,0.239,0.201-0.221
			c0.003-0.018,0.004-0.027,0.007-0.041c0.008,0.211,0.017,0.423,0.017,0.635C43.428,22.588,43.417,23.002,43.391,23.413z"/>
		<path opacity="0.88" enable-background="new    " d="M13.397,36.383c0.021,0.021,0.042,0.044,0.062,0.066
			c-0.003-0.004-0.007-0.01-0.007-0.01L13.397,36.383z"/>
		<path opacity="0.88" enable-background="new    " d="M10.361,18.313L10.361,18.313L10.361,18.313z"/>
		<path opacity="0.88" enable-background="new    " d="M25.42,33.941h0.002H25.42z"/>
		<path opacity="0.88" enable-background="new    " d="M33.865,33.193c-0.442-0.106-0.813,0.107-1.277,0.076
			c-0.044-0.045-0.076-0.074-0.105-0.139c-0.322,0.012-0.678,0.729-0.351,0.942c0.175,0.12,0.671,0.052,0.884,0
			c0.115-0.024,0.299-0.05,0.392,0.018c0.132,0.093,0.104,0.454,0.063,0.654c-0.053,0.378-0.103,0.751-0.154,1.127
			c-0.045,0.229-0.09,0.456-0.137,0.687c0.231,0,0.453-0.238,0.518-0.412c0.039-0.101,0.021-0.191,0.048-0.304
			c0.08-0.321,0.089-0.7,0.166-1.034c0.051-0.217,0.019-0.423,0.06-0.625c0.033-0.147,0.057-0.649,0.02-0.791
			C33.966,33.314,33.904,33.256,33.865,33.193z"/>
		<path opacity="0.88" enable-background="new    " d="M12.291,7.615v-0.03h-0.06C12.16,7.638,11.97,7.669,11.88,7.721
			c0.013,0.052,0.008,0.04,0.046,0.062c-0.053,0.147-0.229,0.259-0.321,0.381c-0.143,0.192-0.302,0.373-0.442,0.563
			C11.117,8.79,11.086,8.89,11.027,8.94c-0.092,0.079-0.352,0.071-0.457,0.151h-0.029c0.021-0.127,0.349-0.534,0.441-0.623V8.453
			c-0.157,0.021-0.279,0.105-0.381,0.182c0.017,0.035,0.015,0.029,0.047,0.046c-0.055,0.092-0.139,0.159-0.197,0.244
			c-0.077,0.106-0.118,0.231-0.198,0.335c0.006,0.015,0.011,0.029,0.014,0.044c0.099-0.008,0.504-0.137,0.563-0.182h0.046
			c-0.062,0.186-0.304,0.439-0.412,0.61c-0.061,0.093-0.097,0.218-0.182,0.288c0.014,0.016-0.001,0,0.016,0.016
			c0.034,0.02,0.313-0.053,0.366-0.09c0.031,0.004,0.028,0.003,0.045,0.014c0.016,0.025-0.184,0.381-0.229,0.427v0.016
			c0.076-0.01,0.193-0.022,0.243-0.062c0.148-0.114,0.182-0.359,0.29-0.517c-0.005-0.026-0.011-0.052-0.015-0.077
			c-0.086-0.014-0.262,0.007-0.334,0.061h-0.016c0.036-0.182,0.334-0.518,0.441-0.67c0.175-0.249,0.338-0.49,0.517-0.732
			c0.094-0.127,0.225-0.238,0.32-0.365C12.033,7.901,12.144,7.713,12.291,7.615z"/>
		<path opacity="0.88" enable-background="new    " d="M16.507,33.104c-0.022,0.053-0.02,0.135-0.043,0.196
			c-0.133,0.322-0.175,0.39,0.029,0.701c0.093,0,0.103-0.015,0.152-0.045C16.707,33.702,16.715,33.223,16.507,33.104z"/>
		<path opacity="0.88" enable-background="new    " d="M17.149,32.83c-0.065-0.104-0.189-0.131-0.276-0.214
			c-0.025-0.011-0.015-0.005-0.03-0.017c0.197-0.103,0.406-0.215,0.609-0.304c0.055,0.06,0.31,0.304,0.396,0.261
			c0.015-0.007,0.03-0.01,0.044-0.017c-0.003-0.086-0.009-0.173-0.015-0.261c-0.193-0.19-0.475-0.353-0.792-0.41v0.018H17.07
			c0.037,0.105,0.153,0.204,0.245,0.256v0.047c-0.179,0.024-0.339,0.115-0.501,0.166c-0.112,0.037-0.246,0.033-0.337,0.095h-0.044
			c0.067-0.187,0.282-0.339,0.396-0.487c0.221-0.301,0.396-0.667,0.747-0.841c-0.011-0.142-0.416-0.427-0.563-0.332
			c-0.038,0.017-0.014-0.01-0.032,0.028c-0.021,0.056,0.053,0.125,0.032,0.214c-0.031,0.118-0.319,0.67-0.397,0.729v0.02
			c-0.157-0.058-0.276-0.203-0.427-0.274c0.028-0.142,0.144-0.249,0.213-0.354c0.174-0.264,0.313-0.514,0.579-0.686
			c-0.002-0.201-0.329-0.412-0.548-0.408c0,0.092,0.048,0.146,0.031,0.226c-0.054,0.248-0.169,0.499-0.259,0.718
			c-0.061,0.141-0.088,0.307-0.184,0.407c-0.021,0.014-0.188-0.003-0.228-0.028c-0.058-0.001-0.116,0.003-0.152,0.018v0.029
			c0.256,0.249,0.533,0.329,0.882,0.487c-0.048,0.252-0.302,0.419-0.425,0.608c-0.065,0-0.116-0.002-0.153-0.032
			c-0.036,0.008-0.038,0.01-0.059,0.018c0.005,0.226,0.192,0.412,0.379,0.457c0.126-0.141,0.284-0.209,0.472-0.29
			c0.173,0.182,0.224,0.439,0.291,0.729c0.027,0.131-0.019,0.271,0.015,0.383c0.059,0.196,0.164,0.254,0.258,0.394h0.107
			c0.067-0.355-0.096-0.707-0.183-0.988C17.199,33.074,17.173,32.948,17.149,32.83z"/>
		<path opacity="0.88" enable-background="new    " d="M20.985,39.542c0.115,0.044,0.209,0.155,0.318,0.215
			c0.295,0.152,0.778,0.278,1.22,0.185c0.216-0.051,0.439-0.051,0.5-0.244c0.07-0.107-0.025-0.26-0.059-0.317
			c-0.143-0.254-0.329-0.421-0.563-0.581c-0.776-0.529-1.919-1.068-3.244-1.035c-0.064,0.041-0.194,0.01-0.274,0.032
			c-0.111,0.028-0.178,0.083-0.257,0.138c-0.004,0.373,0.555,0.572,0.865,0.65c0.188,0.049,0.351-0.041,0.458-0.076
			c0.084-0.314-0.299-0.357-0.473-0.517h-0.031v-0.015c1.169-0.045,2.043,0.278,2.711,0.774c0.165,0.128,0.356,0.304,0.442,0.505
			c0.031,0.075,0.042,0.197,0,0.262c-0.062,0.168-0.264,0.15-0.457,0.195c-0.448,0.104-1.062-0.15-1.264-0.349
			c-0.042,0.071,0.019,0.185-0.047,0.26c-0.067,0.183-0.304,0.136-0.517,0.181c-0.352,0.076-0.907-0.104-1.111-0.244
			c-0.059-0.039-0.099-0.107-0.152-0.148c-0.003-0.039-0.008-0.055-0.017-0.076c0.032-0.027,0.069-0.072,0.091-0.107
			c0.438-0.031,0.663-0.011,0.914,0.228c-0.005,0.03-0.004,0.03-0.016,0.045c-0.026,0.06-0.093,0.065-0.182,0.062v0.03
			c0.159,0.001,0.228-0.024,0.318-0.075c0.006-0.029,0.013-0.062,0.016-0.095c-0.053-0.052-0.089-0.123-0.153-0.168
			c-0.25-0.162-0.765-0.246-1.049-0.06c-0.046,0.219,0.09,0.33,0.213,0.428c0.25,0.186,0.459,0.295,0.808,0.395
			c0.111,0.033,0.212,0.002,0.335,0.03c0.108,0.022,0.293,0.03,0.409,0c0.194-0.052,0.465-0.254,0.245-0.489L20.985,39.542
			L20.985,39.542z M19.583,38.096c0.054,0.039,0.085,0.114,0.137,0.156c0,0.038,0,0.055-0.014,0.074
			c-0.099,0.269-0.656,0.068-0.793-0.033c-0.04-0.029-0.057-0.094-0.09-0.137c0.005-0.03,0.002-0.028,0.016-0.042
			c0.041-0.118,0.16-0.076,0.258-0.138C19.29,37.977,19.464,38.014,19.583,38.096z"/>
		<path opacity="0.88" enable-background="new    " d="M24.943,41.109c0.006-0.012,0.012-0.028,0.016-0.043
			c-0.379-0.016-0.753-0.031-1.127-0.045c-0.048,0.03-0.121,0.014-0.182,0.029c-0.079,0.021-0.165,0.057-0.229,0.092
			c0.009,0.027,0.004,0.017,0.015,0.03c0.093,0.072,0.625,0.075,0.73,0h0.032v-0.032c-0.162-0.048-0.455,0.078-0.579,0h-0.017
			v-0.014c0.404-0.025,0.858-0.02,1.281-0.018c-0.041,0.029-0.13,0.023-0.168,0.049c-0.018,0.006-0.033,0.011-0.046,0.014v0.033
			c0.091,0.011,0.185,0.027,0.272,0.041c0.016,0.018,0,0.001,0.018,0.015c-0.136,0.089-0.486,0.054-0.611-0.015v-0.03
			c-0.067-0.032-0.38,0.031-0.441,0.045c-0.052,0.015-0.105-0.007-0.137,0.017c-0.063,0.003-0.07,0.009-0.106,0.031
			c0.009,0.045,0.013,0.041,0.03,0.073c0.099,0.023,0.268,0.025,0.38,0.06v-0.015h0.016v-0.014
			c-0.058-0.024-0.216-0.011-0.276-0.044h-0.03c0.051-0.041,0.549-0.107,0.641-0.047c0.024,0.011,0.014,0.004,0.03,0.018
			c-0.08,0.012-0.164,0.029-0.244,0.042c0.008,0.026,0.005,0.015,0.015,0.031c0.026,0.015,0.075,0.015,0.122,0.014
			c-0.015,0.028-0.021,0.042-0.046,0.062c0.004,0.008,0.01,0.021,0.016,0.032c0.216,0,0.398-0.025,0.577-0.063
			c0.107-0.022,0.244,0.022,0.319-0.03h0.125v-0.029c-0.207,0-0.728-0.02-0.854,0.061H24.44c0.014-0.014-0.001-0.002,0.015-0.014
			c0.059-0.068,0.184-0.035,0.29-0.062c0.169-0.038,0.448-0.106,0.594,0c0.042,0.025,0.013-0.002,0.013,0.044
			c0.041-0.001,0.069-0.001,0.094-0.011h0.105v-0.034c-0.136-0.033-0.341-0.097-0.457-0.168
			C25.031,41.177,25.061,41.121,24.943,41.109z"/>
		<path opacity="0.88" enable-background="new    " d="M41.479,29.254c-0.058,0.048-0.136,0.062-0.197,0.107
			c-0.191,0.138-0.393,0.367-0.53,0.562c-0.11,0.151-0.209,0.32-0.308,0.487c-0.043,0.072-0.051,0.15-0.106,0.213v0.029
			c0.134-0.025,0.21-0.109,0.308-0.168c0.25-0.158,0.479-0.303,0.711-0.473c0.115-0.085,0.203-0.212,0.32-0.292
			c0.014-0.183,0.051-0.325-0.029-0.458C41.598,29.256,41.545,29.253,41.479,29.254z M41.297,29.799
			c-0.092,0.066-0.181,0.16-0.273,0.23c-0.082,0.056-0.176,0.084-0.242,0.148h-0.018c0.051-0.154,0.313-0.428,0.442-0.515
			c0.065-0.052,0.146-0.06,0.213-0.108h0.06c0.015,0.018,0.015,0.018,0.03,0.03C41.493,29.703,41.371,29.744,41.297,29.799z"/>
		<path opacity="0.88" enable-background="new    " d="M33.716,38.251h-0.153c-0.101,0.077-0.265,0.089-0.381,0.149
			c-0.102,0.057-0.226,0.131-0.318,0.199c-0.082,0.057-0.127,0.159-0.197,0.227c0,0.074,0.001,0.09,0.061,0.105
			c0.012,0.012,0.004,0.01,0.026,0.018c0.019-0.021,0.031-0.024,0.048-0.049c0.012-0.01-0.012-0.039-0.017-0.086
			c0.147-0.149,0.259-0.231,0.474-0.32c0.055-0.025,0.174-0.092,0.244-0.047h0.029c-0.012,0.152-0.354,0.613-0.457,0.685v0.042
			c0.279-0.07,0.469-0.631,0.652-0.835c-0.006-0.034-0.004-0.042-0.014-0.059L33.716,38.251z"/>
		<path opacity="0.88" enable-background="new    " d="M41.175,22.779c0.033,0.086,0.099,0.225,0.169,0.276
			c0.033,0.021,0.049,0.015,0.075,0.044c0.504,0.044,0.707-0.825,0.502-1.323c-0.038-0.088-0.196-0.342-0.351-0.246h-0.029
			c0.012-0.024,0.005-0.014,0.018-0.03c0-0.072-0.011-0.094-0.031-0.136c-0.031-0.006-0.061-0.01-0.094-0.014
			c-0.015,0.011-0.004,0.004-0.029,0.014c0.013,0.093,0.044,0.096,0.049,0.197C41.206,21.787,40.996,22.323,41.175,22.779z
			 M41.343,21.972c0.033-0.08,0.103-0.133,0.149-0.196c0.033-0.006,0.031-0.004,0.046-0.017c0.116,0,0.147,0.022,0.213,0.062
			c0.118,0.273,0.132,0.75-0.058,0.959c-0.03,0.033-0.092,0.046-0.125,0.076C41.25,22.831,41.227,22.251,41.343,21.972z"/>
		<path opacity="0.88" enable-background="new    " d="M42.423,22.69v-0.246c-0.039-0.174-0.021-0.405-0.06-0.578
			c-0.072-0.337-0.01-0.74-0.139-1.021c-0.072-0.019-0.149-0.032-0.258-0.03c-0.04,0.042-0.068,0.062-0.061,0.108
			c0.031,0.138,0.211,0.166,0.257,0.304c0.007,0.066,0.01,0.131,0.017,0.197c0.049,0.217,0.045,0.495,0.09,0.718v0.181
			c0.027,0.112,0.062,0.4,0.029,0.49c-0.052,0.156-0.223,0.299-0.332,0.409c-0.29,0.291-0.63,0.658-1.145,0.715
			c-0.006,0.025-0.002,0.014-0.014,0.032c0.01,0.188,0.186,0.153,0.305,0.225c0.029-0.002,0.061-0.007,0.093-0.013
			c0.044-0.027,0.073-0.094,0.106-0.137c0.072-0.101,0.213-0.157,0.287-0.261h0.016c0.002,0.465,0.013,0.984,0.015,1.431h0.045
			c0.104-0.45,0.097-1.004,0.093-1.551c0.199-0.189,0.326-0.461,0.531-0.64v-0.032h0.018c0.004,0.482,0.015,0.975,0.015,1.461
			c0,0.159-0.04,0.53,0,0.595v0.094h0.032c0.039-0.166,0.048-0.395,0.089-0.58V24.3c0.047-0.205,0.047-0.601,0.001-0.807
			C42.402,23.239,42.475,22.928,42.423,22.69z"/>
		<path opacity="0.88" enable-background="new    " d="M32.494,39.378c-0.09,0.077-0.311,0.086-0.409,0.168h-0.017
			c0.039-0.062,0.111-0.085,0.152-0.137c0.028-0.041,0.043-0.091,0.076-0.124c-0.008-0.031-0.005-0.028-0.018-0.044v-0.032
			c-0.441-0.078-1.184,0.305-1.41,0.505c-0.062,0.054-0.1,0.128-0.154,0.187c0.001,0.041,0.006,0.062,0.016,0.088
			c0.271,0.021,0.774-0.146,0.836-0.36c0.01-0.011,0.007-0.001,0-0.019V39.58c-0.186-0.014-0.434,0.027-0.549,0.135h-0.013
			c0.099-0.152,0.468-0.287,0.669-0.35c0.064-0.021,0.211-0.057,0.275-0.018c0.014,0.008,0.027,0.012,0.046,0.018
			c-0.036,0.154-0.254,0.324-0.396,0.365v0.031c0.23-0.058,0.444-0.162,0.65-0.244c0.143-0.062,0.305-0.072,0.428-0.152
			c0.092-0.057,0.389-0.467,0.409-0.58C32.736,38.839,32.706,39.184,32.494,39.378z M31.294,39.682v0.047
			c-0.032,0.017-0.051,0.059-0.075,0.073c-0.08,0.046-0.187,0.04-0.262,0.093c-0.035-0.004-0.042-0.004-0.059-0.018h-0.018
			C30.923,39.748,31.175,39.689,31.294,39.682z"/>
		<path opacity="0.88" enable-background="new    " d="M34.279,27.97c-0.172-0.105-0.197-0.646-0.262-0.882
			c-0.123-0.469-0.188-0.96-0.319-1.431c-0.085-0.304-0.2-0.62-0.166-0.991c0.05-0.051,0.087-0.121,0.151-0.168
			c0.084-0.059,0.224-0.091,0.287-0.165c0.012-0.023-0.007-0.052-0.013-0.095c-0.176,0.027-0.341,0.134-0.487,0.199
			c-0.309,0.129-0.604,0.206-0.912,0.333c-0.101,0.041-0.201,0.109-0.322,0.123v0.09c0.009,0.008,0.021,0.012,0.031,0.019
			c0.014,0.015,0.396-0.151,0.518-0.046c0.135,0.047,0.119,0.225,0.195,0.333c-0.022,0.239-0.256,0.601-0.352,0.806
			c-0.222,0.514-0.449,0.999-0.697,1.479c-0.095,0.185-0.209,0.516-0.334,0.656v0.013c-0.084-0.11-0.076-0.401-0.123-0.562
			c-0.135-0.475-0.219-0.994-0.363-1.461c-0.027-0.092-0.117-0.492-0.062-0.58c0.022-0.209,0.316-0.3,0.49-0.363
			c-0.004-0.034-0.011-0.069-0.017-0.105c-0.27,0.041-0.549,0.184-0.791,0.273c-0.229,0.086-0.438,0.121-0.67,0.197
			c-0.115,0.041-0.246,0.105-0.381,0.123v0.012h-0.015c0.008,0.045,0.01,0.07,0.03,0.096c0.061,0.042,0.396-0.135,0.533-0.028
			c0.215,0.073,0.22,0.412,0.289,0.638c0.183,0.606,0.28,1.28,0.457,1.901c0.041,0.158,0.148,0.651,0.043,0.776
			c-0.055,0.169-0.338,0.238-0.5,0.309c0.002,0.03,0.006,0.061,0.014,0.09c0.232-0.035,0.445-0.144,0.656-0.216
			c0.41-0.137,0.797-0.251,1.19-0.396c-0.009-0.037-0.012-0.073-0.019-0.106c-0.166,0.045-0.295,0.099-0.534,0.093
			c-0.029-0.025-0.058-0.054-0.089-0.076c-0.023-0.082-0.055-0.16-0.076-0.242c0.018-0.195,0.264-0.551,0.352-0.719
			c0.262-0.498,0.483-0.998,0.715-1.521c0.086-0.201,0.289-0.492,0.32-0.714c0.071,0.043,0.049,0.168,0.073,0.257
			c0.051,0.183,0.08,0.38,0.14,0.579c0.106,0.385,0.146,0.796,0.256,1.203c0.041,0.15,0.1,0.402,0.029,0.562
			c-0.066,0.153-0.32,0.256-0.486,0.321c0.008,0.031,0.017,0.069,0.03,0.09c0.001,0.003,0.349-0.112,0.412-0.137
			c0.427-0.183,0.856-0.37,1.293-0.534c-0.009-0.037-0.011-0.072-0.019-0.105C34.67,27.92,34.425,28.061,34.279,27.97z"/>
		<path opacity="0.88" enable-background="new    " d="M27.243,10.964c0.073,0.036,0.073,0.126,0.106,0.197
			c0.071,0.143,0.168,0.316,0.215,0.474v0.122c0.035,0.096,0.146,0.107,0.226,0.167c0.06-0.008,0.085-0.024,0.123-0.045
			c-0.028-0.291-0.205-0.529-0.308-0.762c-0.029-0.072-0.076-0.173-0.09-0.242c-0.011-0.044,0.022-0.066,0-0.107
			c-0.02-0.048-0.025-0.033-0.058-0.062c-0.026-0.015-0.015-0.005,0-0.029c0.022-0.057,0.078-0.111,0.104-0.167
			c0.047-0.122,0.045-0.223,0.148-0.29c-0.014-0.158-0.245-0.176-0.426-0.167c-0.021,0.016-0.061,0.024-0.092,0.03
			c0.02,0.039,0.029,0.047,0.076,0.059c0.045,0.447-0.269,0.857-0.475,1.126c-0.077,0.107-0.214,0.175-0.286,0.292h-0.016v0.013
			C26.697,11.541,27.143,11.121,27.243,10.964z"/>
		<path opacity="0.88" enable-background="new    " d="M24.213,11.178c0.076,0.026,0.152,0.052,0.229,0.077
			c0.062,0,0.126-0.001,0.169-0.015c-0.006-0.253-0.141-0.352-0.23-0.519c-0.042-0.084-0.067-0.199-0.136-0.259
			c0.027-0.092,0.278-0.117,0.379-0.151c0.248-0.082,0.526-0.163,0.778-0.243c0.117-0.039,0.257-0.032,0.351-0.091
			c0.06,0.005,0.086,0.01,0.106,0.043c0.058,0.083,0.099,0.644,0.059,0.807c-0.148,0.642-0.344,1.141-0.741,1.524v0.015
			c0.146-0.026,0.216-0.17,0.318-0.243c0.403-0.307,0.676-0.759,0.821-1.326c0.086-0.332-0.053-0.659,0.076-0.943h-0.017
			c-0.028-0.073-0.416-0.213-0.532-0.214C25.777,9.707,25.689,9.8,25.6,9.838c-0.141,0.057-0.322,0.04-0.44,0.121
			c-0.111-0.01-0.193-0.221-0.121-0.305c-0.004-0.035-0.002-0.043-0.017-0.061c-0.09-0.073-0.328-0.066-0.485-0.061
			c-0.054,0.047-0.099,0.059-0.122,0.138h-0.017c-0.007,0.029,0.01,0.02,0.017,0.03c0.008,0.007,0.061-0.002,0.093,0.016
			c0.173,0.018,0.168,0.217,0.257,0.318c-0.008,0.028-0.005,0.017-0.015,0.032c-0.062,0.047-0.501,0.174-0.596,0.197
			c-0.072,0.017-0.159-0.025-0.213-0.031c-0.127-0.01-0.243,0.063-0.318,0.107c0.04,0.062,0.166,0.045,0.211,0.106
			C23.994,10.664,24.066,10.94,24.213,11.178z"/>
		<path opacity="0.88" enable-background="new    " d="M25.611,17.603c0.305,0.092,0.522,0.437,0.699,0.67
			c0.078,0.102,0.198,0.184,0.274,0.287c0.326,0.436,0.697,0.826,1.019,1.266c0.129,0.171,0.299,0.316,0.414,0.503
			c0.068-0.002,0.08-0.011,0.119-0.03c0.084-0.358,0.129-0.719,0.231-1.082c0.042-0.166,0.103-0.361,0.116-0.548
			c0.129,0.046,0.23,0.234,0.31,0.336c0.238,0.315,0.569,0.578,0.791,0.913c0.062-0.004,0.067-0.009,0.104-0.029
			c0.069-0.519,0.135-1.035,0.199-1.553v-0.152c0.067-0.309,0.055-0.678,0.123-0.989c0.09-0.419-0.039-0.827,0.381-0.929
			c0.01-0.042,0.021-0.058,0-0.093c-0.011-0.024-0.004-0.015-0.015-0.03c-0.019-0.011-0.017-0.008-0.044-0.015
			c-0.119,0.085-0.438,0.145-0.594,0.183c-0.123,0.03-0.245,0.004-0.338,0.061c-0.012,0.007-0.029,0.01-0.043,0.015
			c0.002,0.031,0.007,0.063,0.014,0.093c0.174,0.058,0.336-0.011,0.409,0.136c0.051,0.098,0.043,0.446,0.016,0.579
			c-0.094,0.448-0.054,0.959-0.153,1.402c-0.033,0.152,0.01,0.45-0.059,0.563v0.03c-0.091-0.045-0.154-0.165-0.213-0.244
			c-0.137-0.18-0.335-0.324-0.473-0.503c-0.082-0.109-0.17-0.236-0.275-0.32c0.016-0.293,0.102-0.599,0.17-0.867
			c0.049-0.202,0.051-0.387,0.148-0.535c0.062-0.083,0.197-0.136,0.291-0.182c0-0.038-0.002-0.056-0.017-0.076
			c-0.003-0.015-0.007-0.03-0.012-0.046c-0.209,0.031-0.388,0.131-0.582,0.183c-0.175,0.046-0.351,0.035-0.487,0.106
			c0.006,0.035,0.004,0.044,0.018,0.062c0.008,0.015,0.01,0.031,0.015,0.044c0.536-0.028,0.452,0.261,0.351,0.671
			c-0.031,0.126-0.008,0.297-0.074,0.394v0.032H28.43c-0.111-0.168-0.273-0.33-0.408-0.473c-0.062-0.053-0.113-0.103-0.172-0.152
			c-0.037-0.053-0.061-0.12-0.106-0.168c0.01-0.169,0.146-0.211,0.278-0.26c-0.01-0.07-0.023-0.078-0.047-0.122
			c-0.399,0.059-0.744,0.281-1.188,0.305v0.016H26.77c0.002,0.04,0.002,0.057,0.018,0.077v0.029c0.084,0.015,0.216-0.021,0.32,0.015
			c0.162,0.06,0.31,0.25,0.408,0.383c0.149,0.196,0.383,0.365,0.532,0.562c0.079,0.105,0.167,0.244,0.274,0.319
			c-0.016,0.268-0.09,0.549-0.153,0.792c-0.032,0.124-0.011,0.282-0.076,0.381c-0.007,0.026,0,0.015-0.014,0.03
			c-0.146-0.276-0.427-0.487-0.611-0.731c-0.354-0.47-0.747-0.894-1.108-1.354c0-0.066,0.004-0.104,0.029-0.14
			c0.026-0.088,0.139-0.169,0.242-0.181c0.008-0.047,0.014-0.052-0.015-0.093c-0.005-0.013-0.011-0.029-0.017-0.044
			c-0.307,0.047-0.582,0.191-0.881,0.274c-0.156,0.043-0.357,0.023-0.475,0.107c-0.016,0.005-0.03,0.009-0.042,0.015
			c0.008,0.06,0.021,0.067,0.042,0.107C25.367,17.601,25.494,17.566,25.611,17.603z"/>
		<path opacity="0.88" enable-background="new    " d="M40.031,15.989c-0.035,0.53-0.487,0.696-0.973,0.487
			c-0.348-0.148-0.625-0.477-0.84-0.763c-0.072-0.094-0.185-0.176-0.258-0.274c-0.068-0.092-0.12-0.195-0.199-0.273V15.15h-0.033
			c0.043,0.164,0.14,0.314,0.201,0.458c0.256,0.593,0.582,1.005,1.079,1.354c0.233,0.165,0.623,0.426,0.962,0.184
			c0.586-0.423,0.301-1.997,0.059-2.588c-0.062-0.156-0.112-0.277-0.184-0.41c-0.113-0.222-0.232-0.544-0.562-0.547
			c-0.08,0.068-0.166,0.123-0.214,0.227c-0.297,0.677,0.312,1.443,0.595,1.813C39.766,15.769,39.88,15.913,40.031,15.989z
			 M39.422,14.329h0.076c0.148,0.155,0.289,0.303,0.381,0.518c0.053,0.113,0.062,0.308,0.122,0.41
			c-0.011,0.028-0.002,0.016-0.017,0.032c-0.039,0.039-0.207-0.16-0.243-0.198C39.573,14.921,39.232,14.622,39.422,14.329z"/>
		<path opacity="0.88" enable-background="new    " d="M9.155,14.466c0.237-0.244,0.738-0.854,0.731-1.308
			c-0.025-0.024-0.045-0.064-0.062-0.092c-0.093-0.024-0.216-0.033-0.351-0.03c-0.034,0.124-0.105,0.228-0.151,0.335
			c-0.103,0.234-0.196,0.471-0.289,0.7c-0.079,0.191-0.128,0.498-0.244,0.654v0.03C8.949,14.728,9.058,14.566,9.155,14.466z
			 M9.215,13.98c0.091-0.216,0.152-0.431,0.258-0.624c0.059,0,0.104,0.005,0.138,0.031c0.036,0.02,0.01-0.009,0.03,0.03
			c0.031,0.076-0.068,0.196-0.105,0.256c-0.069,0.116-0.108,0.229-0.185,0.335c-0.067,0.1-0.177,0.174-0.243,0.276H9.093
			C9.113,14.168,9.174,14.076,9.215,13.98z"/>
		<path opacity="0.88" enable-background="new    " d="M7.752,14.771h0.213C8,14.726,8.037,14.678,8.073,14.634
			c0.127-0.135,0.294-0.272,0.396-0.427h0.045v0.212c-0.116,0.105-0.297,0.269-0.35,0.428v0.121
			c-0.079,0.339,0.086,0.512,0.38,0.487c0.192-0.179,0.51-0.326,0.472-0.684C8.999,14.758,9.015,14.773,9,14.757
			c-0.03,0.006-0.028,0.004-0.044,0.015c-0.111,0.058-0.297,0.549-0.52,0.412c-0.11,0-0.123-0.021-0.182-0.063
			c0.007-0.145,0.252-0.409,0.352-0.47c0.011-0.233,0.072-0.483,0.044-0.7c-0.016-0.006-0.03-0.012-0.044-0.015
			C8.553,13.918,8.51,14,8.469,14.042c-0.11,0.11-0.249,0.229-0.335,0.365c-0.129-0.001-0.544-0.006-0.625,0.045H7.464
			c0.038-0.098,0.331-0.422,0.243-0.564c-0.006-0.015-0.01-0.029-0.015-0.044c-0.278,0-0.613,0.496-0.7,0.699
			c-0.045,0.103-0.045,0.221-0.106,0.306v0.016c0.208-0.027,0.417-0.052,0.624-0.078C7.589,14.768,7.697,14.805,7.752,14.771z
			 M7.236,14.482H7.144c0.042-0.168,0.207-0.36,0.411-0.366v0.077c-0.071,0.092-0.142,0.183-0.212,0.273
			C7.298,14.466,7.259,14.466,7.236,14.482z"/>
		<path opacity="0.88" enable-background="new    " d="M15.199,24.715v0.014c0.023,0.032,0.022,0.101,0.044,0.138
			c-0.008,0.028-0.003,0.017-0.015,0.032c-0.062,0.039-0.155,0.023-0.242,0.043c-0.183,0.047-0.766,0.188-0.898,0.062
			c-0.085-0.03-0.143-0.142-0.152-0.244c-0.039,0.001-0.056,0.001-0.076,0.017h-0.03c0.055,0.298,0.11,0.589,0.166,0.885h0.015
			v0.012c0.533-0.09,1.067-0.179,1.599-0.273c-0.074-0.279-0.15-0.559-0.229-0.838c-0.041-0.062-0.178-0.056-0.258-0.088
			c-0.133-0.059-0.298-0.177-0.38-0.289c-0.245-0.339-0.515-1.137-0.334-1.736c0.144-0.488,0.46-0.818,0.973-0.946
			c0.26-0.061,0.539,0.026,0.7,0.109c0.466,0.239,0.666,0.578,0.807,1.141c0.185,0.727-0.052,1.394-0.533,1.617
			c0.029,0.29,0.06,0.587,0.092,0.882c0.171-0.005,0.328-0.04,0.473-0.076c0.241-0.062,0.488-0.066,0.714-0.123
			c0.167-0.041,0.406-0.008,0.534-0.091c0.029-0.063-0.097-0.518-0.121-0.623c-0.023-0.092-0.004-0.177-0.047-0.246V24.06
			c-0.035,0.006-0.071,0.011-0.107,0.018c0.007,0.46-0.319,0.397-0.685,0.486c-0.181,0.047-0.404,0.104-0.608,0.105
			c0-0.062,0-0.13,0-0.195c0.017-0.032,0.285-0.149,0.334-0.186c0.177-0.124,0.358-0.316,0.472-0.502
			c0.079-0.125,0.142-0.294,0.184-0.442c0.052-0.189,0.057-0.45,0.015-0.64c-0.031-0.131-0.019-0.231-0.062-0.35
			c-0.163-0.458-0.51-0.791-0.943-0.976c-0.198-0.083-0.421-0.087-0.655-0.137c-0.207-0.045-0.581,0.046-0.73,0.093
			c-0.734,0.215-1.23,0.568-1.462,1.278c-0.092,0.28-0.062,0.668,0.015,0.93C13.947,24.143,14.449,24.703,15.199,24.715z"/>
		<path opacity="0.88" enable-background="new    " d="M17.377,32.906c-0.031,0.13,0.292,0.427,0.395,0.501
			c0.051,0.038,0.12,0.128,0.198,0.093c0.042-0.004,0.052-0.009,0.078-0.018c0.018-0.041,0.042-0.09,0.016-0.135
			C18.052,33.157,17.557,32.943,17.377,32.906z"/>
		<path opacity="0.88" enable-background="new    " d="M20.91,33.636c0.015-0.008,0.031-0.012,0.044-0.019
			c-0.006-0.197-0.388-0.282-0.593-0.225c-0.092,0.024-0.198,0.082-0.289,0.107c-0.07,0.006-0.141,0.01-0.213,0.014
			c-0.024-0.248-0.146-0.438-0.153-0.699c0.228-0.006,0.517-0.035,0.67-0.119c-0.004-0.077-0.018-0.077-0.044-0.122
			c-0.175-0.042-0.474-0.048-0.611,0.045c-0.037-0.002-0.056-0.002-0.074-0.017c-0.085-0.108-0.046-0.324-0.122-0.438v-0.062
			c0.162-0.035,0.431-0.066,0.516-0.183c0.013-0.019,0.006-0.005,0.014-0.028c-0.013-0.017-0.019-0.031-0.029-0.049
			c-0.238-0.058-0.342-0.019-0.549,0.061c-0.062-0.205,0.014-0.367-0.197-0.428c0.047-0.074,0.195-0.072,0.29-0.105
			c0.148-0.045,0.314-0.11,0.441-0.178c0.009-0.03,0.004-0.02,0.016-0.035c-0.009-0.073-0.029-0.071-0.061-0.12
			c-0.22-0.019-0.395,0.006-0.518,0.12H19.42c0.017-0.11,0.089-0.276,0.15-0.363c0.044-0.062,0.124-0.057,0.153-0.137h0.014v-0.018
			c-0.031-0.041-0.059-0.08-0.09-0.119c-0.072-0.053-0.175-0.06-0.243-0.108c-0.103-0.001-0.197-0.001-0.259,0.028
			c0.009,0.06,0.034,0.095,0.047,0.138c0.04,0.157-0.11,0.646-0.17,0.718c-0.046,0.059-0.597,0.256-0.745,0.213
			c-0.035-0.012-0.14-0.064-0.168-0.094c-0.011-0.014-0.006-0.004-0.015-0.028c0.216-0.2,0.371-0.653,0.67-0.747
			c0.005-0.022,0.009-0.048,0.016-0.076c-0.076-0.073-0.437-0.459-0.625-0.334c-0.016,0.008-0.031,0.011-0.045,0.015
			c0,0.132,0.064,0.228,0.029,0.364c-0.07,0.273-0.226,0.601-0.365,0.826c-0.084,0.133-0.268,0.278-0.274,0.471
			c0.248-0.023,0.308-0.281,0.5-0.353c0.058,0.056,0.113,0.104,0.169,0.154c0.078,0.118,0.064,0.298,0.106,0.457
			c0.07,0.329,0.142,0.659,0.212,0.989c0.01,0.162,0.02,0.324,0.032,0.488c0.04,0.146,0.161,0.399,0.319,0.436
			c0.025,0.014,0.046,0.01,0.075-0.014c0.054-0.043,0.026-0.121,0.063-0.184c0.085-0.061,0.235-0.048,0.35-0.077
			c0.311-0.081,0.674-0.077,1.02-0.151C20.51,33.614,20.779,33.712,20.91,33.636z M18.441,31.657
			c0.026-0.044,0.429-0.106,0.473-0.078c0.162,0.076,0.104,0.313,0.199,0.458c-0.032,0.074-0.403,0.189-0.518,0.199
			C18.575,32.072,18.547,31.746,18.441,31.657z M18.642,32.402c0.115-0.012,0.416-0.109,0.5-0.166h0.015
			c0.03,0.139,0.047,0.375,0.122,0.486c-0.053,0.133-0.389,0.119-0.517,0.196C18.709,32.891,18.639,32.508,18.642,32.402z
			 M18.914,33.684c-0.032-0.219-0.135-0.412-0.137-0.641c0.234-0.006,0.355-0.1,0.548-0.125c0.011,0.145,0.099,0.544,0.167,0.641
			c0.001,0.012,0.001,0.021,0.001,0.03C19.31,33.629,19.119,33.686,18.914,33.684z"/>
		<path opacity="0.88" enable-background="new    " d="M6.444,22.49c0.032,0.008,0.054,0.014,0.075,0.029
			c0.3-0.021,0.363-0.26,0.517-0.427c0.131,0.316,0.033,0.868-0.258,0.946c-0.125,0.085-0.31-0.027-0.381-0.093
			c-0.249-0.229-0.302-0.581-0.395-0.975c-0.032-0.132,0.012-0.4-0.045-0.503c0.001-0.154,0.035-0.435-0.046-0.518v-0.016
			l-0.029,0.001c-0.006,0.948-0.056,2.413,0.685,2.623c0.269,0.071,0.417-0.107,0.501-0.232c0.303-0.448,0.219-1.324-0.075-1.704
			c-0.13,0.014-0.318,0.324-0.381,0.427c-0.03-0.008-0.027-0.006-0.044-0.016c-0.035-0.014-0.033-0.025-0.062-0.046
			c-0.022-0.357,0.049-0.692,0.062-1.036c0.401,0.041,0.746,0.269,1.157,0.291c0-0.071,0-0.169,0.028-0.213
			c-0.003-0.035-0.002-0.044-0.015-0.062c-0.056-0.044-0.365-0.117-0.457-0.121v-0.016H7.266c0.056-0.451-0.073-0.8-0.381-0.929
			c-0.173-0.03-0.346-0.061-0.519-0.093c-0.088-0.031-0.131-0.103-0.198-0.15c-0.021-0.147-0.052-0.31,0.062-0.396
			c-0.01-0.054-0.013-0.066-0.046-0.092v-0.016H6.169c-0.052,0.089-0.093,0.191-0.122,0.304c-0.09,0.379,0.12,0.699,0.35,0.776
			c0.154,0.026,0.306,0.052,0.458,0.078c0.121,0.045,0.174,0.145,0.259,0.228c-0.003,0.196-0.193,0.218-0.351,0.166
			c-0.246-0.078-0.508-0.135-0.761-0.228c-0.066-0.023-0.129-0.065-0.214-0.075c-0.01,0.095-0.021,0.192-0.029,0.288
			c0.212,0.065,0.426,0.133,0.638,0.198C6.388,21.43,6.176,22.076,6.444,22.49z"/>
		<path opacity="0.88" enable-background="new    " d="M8.346,30.896c0.092,0.049,0.112,0.261,0.152,0.363
			c0.08,0.215,0.2,0.496,0.395,0.598v0.014h0.032C8.9,31.699,8.802,31.542,8.743,31.4c-0.135-0.33-0.24-0.678-0.351-1.008
			c-0.064-0.191-0.107-0.382-0.168-0.564c-0.031-0.092-0.023-0.201-0.076-0.273v-0.046c0.104,0.038,0.261,0.033,0.351,0.095h0.076
			c-0.017-0.08-0.034-0.211-0.076-0.275c-0.047-0.073-0.342-0.073-0.426-0.137c-0.12-0.092-0.235-0.362-0.321-0.5
			c-0.215-0.347-0.5-0.705-0.821-0.945c-0.17-0.127-0.289-0.26-0.594-0.26c-0.035,0.022-0.071,0.049-0.106,0.076
			c-0.068,0.302,0.054,0.862,0.228,1.002v0.028c-0.074-0.017-0.151-0.057-0.199-0.104H6.245c0.003,0.089,0.02,0.202,0.06,0.26
			c0.018,0.076,0.141,0.136,0.213,0.153c0.095,0.396,0.227,0.809,0.366,1.171c0.11,0.295,0.167,0.571,0.287,0.854
			c0.062,0.136,0.203,0.235,0.244,0.38h0.046c-0.035-0.125-0.105-0.25-0.153-0.361c-0.14-0.34-0.25-0.698-0.367-1.036
			c-0.074-0.228-0.125-0.44-0.197-0.654c-0.026-0.082-0.019-0.167-0.06-0.229V29.01c0.103,0.018,0.166,0.07,0.243,0.105
			c0.177,0.074,0.347,0.104,0.534,0.181c0.135,0.06,0.306,0.136,0.473,0.153c0.019,0.139,0.096,0.502,0.167,0.594v0.047
			c-0.23-0.162-0.227-0.385-0.639-0.352c-0.021,0.022-0.049,0.045-0.077,0.061c-0.039,0.092-0.04,0.249,0,0.35
			c0.1,0.25,0.414,0.767,0.671,0.838C8.155,31.059,8.301,30.975,8.346,30.896z M7.951,29.157C7.79,29.15,7.654,29.083,7.524,29.04
			c-0.342-0.131-0.655-0.241-0.958-0.382c-0.037-0.143-0.293-0.633-0.153-0.809c0.01-0.014,0.02-0.031,0.031-0.043
			c0.03-0.011,0.028-0.006,0.044-0.018c0.47,0.059,0.941,0.625,1.173,0.943c0.09,0.125,0.165,0.311,0.289,0.396L7.951,29.157
			L7.951,29.157z M7.556,30.303c0-0.15,0.058-0.15,0.121-0.23c0.035-0.004,0.042-0.004,0.06-0.012
			c0.237,0.004,0.291,0.108,0.428,0.197c0.022,0.09,0.037,0.127,0.029,0.229c-0.045,0.055-0.092,0.108-0.137,0.166
			c-0.042,0.031-0.085,0.043-0.121,0.078C7.675,30.723,7.665,30.463,7.556,30.303z"/>
		<path opacity="0.88" enable-background="new    " d="M34.505,10.387c0.177,0.237,0.375,0.482,0.699,0.563
			c0.369,0.092,0.548-0.339,0.688-0.503c0.142-0.167,0.453-0.207,0.562-0.427c0.042-0.079,0.011-0.235-0.017-0.303
			c-0.068-0.165-0.408-0.625-0.545-0.716c0.006-0.092,0.049-0.094,0.088-0.151c0.096,0.045,0.131,0.181,0.199,0.257
			c0.088,0.101,0.211,0.154,0.305,0.244c0.146,0,0.229-0.036,0.303-0.106h0.02C36.768,9.142,36.637,9.072,36.562,9
			c-0.16-0.159-0.28-0.359-0.444-0.516V8.469c-0.077,0.026-0.345,0.264-0.396,0.334c-0.098-0.036-0.147-0.141-0.228-0.197
			c-0.263-0.197-0.509-0.451-0.96-0.442c-0.057,0.042-0.143,0.044-0.215,0.076c-0.202,0.088-0.414,0.265-0.498,0.473
			c-0.1,0.231,0.002,0.573,0.072,0.744C34.046,9.806,34.292,10.101,34.505,10.387z M34.428,8.271
			c0.262,0.002,0.383,0.176,0.535,0.289c0.374,0.279,0.686,0.627,0.96,1.005c0.12,0.17,0.292,0.265,0.289,0.562
			c-0.048,0.046-0.062,0.086-0.137,0.107c-0.017,0.013-0.005,0.007-0.033,0.015c-0.213-0.357-0.526-0.658-0.774-0.989
			c-0.08-0.108-0.211-0.196-0.289-0.304c-0.14-0.185-0.309-0.332-0.457-0.502c-0.045-0.052-0.063-0.1-0.121-0.139
			C34.414,8.282,34.412,8.294,34.428,8.271z M34.047,8.484h0.061c0.076,0.113,0.211,0.194,0.291,0.303
			c0.229,0.302,0.506,0.565,0.729,0.868c0.141,0.187,0.293,0.361,0.426,0.548c0.067,0.095,0.123,0.217,0.215,0.289
			c-0.014,0.07-0.043,0.103-0.076,0.155c-0.269,0.062-0.4-0.114-0.545-0.261c-0.361-0.36-0.604-0.806-0.885-1.248
			C34.168,8.985,33.922,8.701,34.047,8.484z"/>
	</g>
</g>
</svg>
