<?xml version="1.0" encoding="utf-8"?>
<!-- Generator: Adobe Illustrator 28.3.0, SVG Export Plug-In . SVG Version: 6.00 Build 0)  -->
<svg version="1.1" id="Layer_1" xmlns="http://www.w3.org/2000/svg" xmlns:xlink="http://www.w3.org/1999/xlink" x="0px" y="0px"
	 viewBox="0 0 48 48" style="enable-background:new 0 0 48 48;" xml:space="preserve">
<style type="text/css">
	.st0{fill:#333333;}
	.st1{fill:#FFFFFF;}
</style>
<g>
	<path class="st0" d="M40.6,22.9c0-0.2,0-0.4,0-0.6c0-4.8-3.9-8.7-8.7-8.7c-0.9,0-1.8,0.1-2.6,0.4c-2-3.2-5.5-5.3-9.5-5.3
		c-6.2,0-11.2,5-11.2,11.2c0,0.3,0,0.5,0,0.8c-3.5,1.5-5.9,5-5.9,9c0,5.4,4.4,9.8,9.8,9.8h24.1c4.8,0,8.7-3.9,8.7-8.7
		C45.3,27.2,43.4,24.3,40.6,22.9z"/>
	<g>
		<path class="st1" d="M25.5,32.5c-0.8,1.4-2.3,2.2-4.3,2.2c-2.2,0-4.3-1.4-4.3-4.3c0-3.2,2.7-4.9,5.9-4.9c0.9,0,1.9,0.2,2.6,0.5
			v-1.4c0-1.9-0.9-2.8-2.8-2.8c-1.4,0-3.6,0.7-4.7,1.4c-0.1-0.2-0.1-0.7-0.1-1c0-0.8,0.2-1.7,0.5-2.1c1.1-0.5,3.4-0.9,5.2-0.9
			c3.5,0,5.3,1.5,5.3,5.5v5.5c0,0.8,0.2,1.5,0.4,1.9c0.5,0,1.5-0.1,2.1-0.3c0,0.2,0,0.3,0,0.4c0,0.6-0.2,1.2-0.4,1.7
			c-0.7,0.4-2.4,0.9-3.7,0.9c-0.6-0.4-1.2-1.3-1.4-2.2L25.5,32.5L25.5,32.5z M25.4,27.9c-0.5-0.2-1.4-0.2-1.9-0.2
			c-2.1,0-3.2,1-3.2,2.4c0,1.5,1.1,2.2,2.3,2.2c1.2,0,2.2-0.5,2.8-1.3V27.9z"/>
	</g>
</g>
</svg>
