<?xml version="1.0" encoding="utf-8"?>
<!-- Generator: Adobe Illustrator 28.3.0, SVG Export Plug-In . SVG Version: 6.00 Build 0)  -->
<svg version="1.1" id="Layer_1" xmlns="http://www.w3.org/2000/svg" xmlns:xlink="http://www.w3.org/1999/xlink" x="0px" y="0px"
	 viewBox="0 0 48 48" style="enable-background:new 0 0 48 48;" xml:space="preserve">
<style type="text/css">
	.st0{fill:none;stroke:#333333;stroke-width:3;stroke-miterlimit:10;}
	.st1{fill:#333333;}
</style>
<g>
	<g>
		<line class="st0" x1="34.6" y1="16.4" x2="34.6" y2="31.6"/>
		<line class="st0" x1="27" y1="24" x2="42.2" y2="24"/>
	</g>
	<g>
		<path class="st1" d="M17.3,31.4c-1.1,1.9-3,3-5.7,3c-2.9,0-5.7-1.8-5.7-5.7c0-4.3,3.6-6.5,7.8-6.5c1.2,0,2.5,0.2,3.5,0.7v-1.8
			c0-2.6-1.2-3.8-3.6-3.8c-1.8,0-4.7,0.9-6.2,1.8c-0.1-0.3-0.2-0.9-0.2-1.4c0-1,0.2-2.2,0.6-2.8c1.4-0.7,4.6-1.2,6.9-1.2
			c4.7,0,7,2,7,7.3v7.3c0,1,0.2,2,0.5,2.5c0.7,0,2-0.2,2.7-0.4c0,0.2,0,0.4,0,0.5c0,0.8-0.2,1.6-0.6,2.2c-1,0.6-3.2,1.2-5,1.2
			c-0.8-0.5-1.6-1.7-1.8-3L17.3,31.4L17.3,31.4z M17.2,25.1c-0.7-0.2-1.8-0.3-2.5-0.3c-2.7,0-4.2,1.3-4.2,3.2c0,2,1.4,2.9,3.1,2.9
			c1.6,0,3-0.7,3.7-1.7V25.1z"/>
	</g>
</g>
</svg>
